<svg xmlns="http://www.w3.org/2000/svg" viewBox="0 0 167.802 57.776">
  <defs>
    <style>
      .cls-1 {
        fill: #a3b8ca;
      }

      .cls-2 {
        fill: #b0c6d7;
      }
    </style>
  </defs>
  <g id="elixir_logo" transform="translate(-152.458 -200.7)">
    <g id="Layer_3" transform="translate(152.459 200.7)">
      <path id="Path_5360" data-name="Path 5360" class="cls-1" d="M175.226,200.7c-.165,1.322-.3,2.259-.358,3.2a16.64,16.64,0,0,0,4.656,12.507c2.59,2.893,5.482,5.482,8.265,8.21,1.13,1.13,2.259,2.231,3.416,3.361,4.518,4.463,5.234,9.725,3.306,15.538a21.542,21.542,0,0,1-41.847-3.609c-.716-5.289.523-10.138,2.59-14.849A58.383,58.383,0,0,1,173.9,201.582,9.533,9.533,0,0,1,175.226,200.7Z" transform="translate(-152.458 -200.7)"/>
    </g>
    <g id="Layer_2" transform="translate(205.195 213.609)">
      <path id="Path_5361" data-name="Path 5361" class="cls-2" d="M555.83,291.8c1.35-.22,2.342.468,3.168,1.791,1.515,2.4,3.223,4.683,4.794,7.053.5.744.771.689,1.24,0,1.625-2.452,3.333-4.849,4.986-7.273A4.342,4.342,0,0,1,575,291.991c.937.468.634,1.1.22,1.708-1.13,1.681-2.287,3.333-3.416,4.986-1.35,1.956-2.672,3.94-4.077,5.9a1.407,1.407,0,0,0,0,1.928c2.617,3.747,5.207,7.548,7.8,11.35.331.5.964.992.551,1.708-.358.634-1.1.551-1.736.634a4.062,4.062,0,0,1-4.49-2.094c-1.543-2.59-3.416-4.986-5.069-7.548-.634-.964-.909-.771-1.433.055q-2.81,4.174-5.7,8.265a4.446,4.446,0,0,1-4.986,1.019c-.826-.523-.386-1.1-.028-1.625,1.736-2.535,3.471-5.069,5.234-7.6.937-1.35,1.846-2.755,2.838-4.077a1.407,1.407,0,0,0,.028-1.928c-2.342-3.389-4.656-6.832-6.942-10.248-.386-.579-1.157-1.157-.8-1.928.413-.909,1.433-.606,2.2-.716C555.334,291.77,555.472,291.8,555.83,291.8Z" transform="translate(-494.804 -279.527)"/>
      <path id="Path_5362" data-name="Path 5362" class="cls-2" d="M454.736,265.717V249.739c0-1.68.386-2.039,2.287-2.039,1.873,0,2.259.358,2.259,2.094v30.3a13.93,13.93,0,0,0,.055,1.515c.3,2.424,1.4,3.278,3.829,3,1.818-.22,2.176.028,2.424,1.763.193,1.212-.358,1.791-1.984,2.039a11.15,11.15,0,0,1-1.653.138c-4.491.055-7.163-2.507-7.218-7C454.68,276.268,454.736,270.979,454.736,265.717Z" transform="translate(-424.179 -247.661)"/>
      <path id="Path_5363" data-name="Path 5363" class="cls-2" d="M715.16,295.17a14.574,14.574,0,0,1,3.03-2.838,6.011,6.011,0,0,1,2.975-.937c2.782-.055,3.8,1.267,3,3.94-.248.826-.634,1.212-1.6.937a5.613,5.613,0,0,0-6.8,2.452,2.488,2.488,0,0,0-.3,1.57v17.631c0,1.736-.386,2.094-2.231,2.094-1.873,0-2.287-.358-2.287-2.039-.028-6.694-.028-13.416-.11-20.111a20.154,20.154,0,0,0-.441-3.829c-.193-.964-.083-1.57.937-1.9,1.543-.5,2.534-.358,3,.689A12.792,12.792,0,0,1,715.16,295.17Z" transform="translate(-609.367 -279.317)"/>
      <path id="Path_5364" data-name="Path 5364" class="cls-2" d="M518.873,306.2v12.4c0,1.543-.441,1.928-2.259,1.928s-2.314-.386-2.314-1.928V294.08c0-1.625.468-2.011,2.369-1.984,1.791.028,2.2.358,2.2,1.984C518.9,298.13,518.873,302.152,518.873,306.2Z" transform="translate(-467.352 -279.825)"/>
      <path id="Path_5365" data-name="Path 5365" class="cls-2" d="M665.546,306.339V318.6c0,1.57-.441,1.928-2.259,1.928-1.791,0-2.287-.386-2.287-1.928V293.942c0-1.488.5-1.873,2.342-1.846,1.763.028,2.2.358,2.2,1.846Z" transform="translate(-573.637 -279.825)"/>
      <path id="Path_5366" data-name="Path 5366" class="cls-2" d="M518.714,250.406c0,2.59-1.873,3.719-4.27,2.59a1.091,1.091,0,0,1-.744-1.047v-3.03a1.385,1.385,0,0,1,.165-.661c.413-.634,2.534-.909,3.8-.523.964.275,1.074,1.019,1.019,1.846C518.686,249.855,518.714,250.131,518.714,250.406Z" transform="translate(-466.917 -247.557)"/>
      <path id="Path_5367" data-name="Path 5367" class="cls-2" d="M665.284,250.632c-.138.716.413,1.791-.579,2.287a4.781,4.781,0,0,1-3.747.055.821.821,0,0,1-.606-.689c-.028-1.24-.028-2.479.028-3.719.028-.386.386-.606.744-.744a4.9,4.9,0,0,1,1.074-.193C664.953,247.491,665.284,247.794,665.284,250.632Z" transform="translate(-573.155 -247.59)"/>
      <path id="Path_5368" data-name="Path 5368" class="cls-2" d="M365.377,295.73c-2.259-3.526-5.73-4.463-9.67-4.353-5.675.165-9.56,3.141-11.02,8.6a23.188,23.188,0,0,0-.138,11.571,10.213,10.213,0,0,0,8.54,8.265,20.385,20.385,0,0,0,10.055-.523,9.512,9.512,0,0,0,2.948-1.46c1.24-.909.579-1.818.028-2.755s-1.185-1.322-2.231-.634a12.654,12.654,0,0,1-3.967,1.543c-6.254,1.433-10.276-1.185-11.02-7.163-.11-.937.138-1.185,1.047-1.185,2.535.055,5.042.028,7.576.028h7.438a2.427,2.427,0,0,0,2.59-2.287C367.636,301.984,367.25,298.651,365.377,295.73Zm-5.069,8.044H349.839c-.523,0-1.019.083-.937-.744.523-5.455,3.526-8.347,8.761-7.6,2.755.386,4.38,2.342,4.931,5.675C363.035,303.775,363.035,303.775,360.308,303.775Z" transform="translate(-343.884 -279.299)"/>
    </g>
  </g>
</svg>
