<svg xmlns="http://www.w3.org/2000/svg" viewBox="0 0 151.077 77.066">
  <defs>
    <style>
      .cls-1 {
        opacity: 0.7;
      }

      .cls-2 {
        fill: #819eb6;
      }

      .cls-3 {
        fill: #93b1c9;
      }

      .cls-4 {
        fill: #f9fafc;
      }

      .cls-5 {
        fill: #f8f9fb;
      }

      .cls-6 {
        fill: #f7f8fb;
      }

      .cls-7 {
        fill: #fbfcfd;
      }
    </style>
  </defs>
  <g id="ethereum_alliance_logo" class="cls-1" transform="translate(-123.1 -141.4)">
    <path id="Path_2851" data-name="Path 2851" class="cls-2" d="M216.2,183.08V142.9c.468-.025.517.37.69.591l20.4,29.122c.394.567.813.961-.222,1.4-6.8,2.956-13.6,5.962-20.375,8.943C216.57,183.007,216.471,183.007,216.2,183.08Z" transform="translate(-70.162 -1.127)"/>
    <path id="Path_2852" data-name="Path 2852" class="cls-2" d="M144.958,141.4v40.43c-.246.222-.468,0-.665-.074-6.726-2.957-13.427-5.913-20.154-8.87-.616-.271-.986-.419-.443-1.183q10.459-14.856,20.843-29.738A3.8,3.8,0,0,1,144.958,141.4Z" transform="translate(-0.251)"/>
    <path id="Path_2853" data-name="Path 2853" class="cls-2" d="M123.2,330.577c2.932-.985,5.741-1.922,8.525-2.883a1.734,1.734,0,0,1,1.4.123c3.819,1.7,7.662,3.351,11.481,5.075a2.035,2.035,0,0,0,1.848-.025c3.745-1.675,7.514-3.3,11.235-4.977a2.257,2.257,0,0,1,1.872-.1c2.685.961,5.4,1.848,8.4,2.858-1.971.862-3.671,1.626-5.4,2.39-5.4,2.39-10.816,4.755-16.212,7.145a1.685,1.685,0,0,1-1.5.123c-7.071-3.154-14.167-6.258-21.262-9.387C123.5,330.848,123.422,330.75,123.2,330.577Z" transform="translate(-0.075 -140.321)"/>
    <path id="Path_2854" data-name="Path 2854" class="cls-2" d="M123.1,293.7c3.129-1.059,6.012-2.045,8.919-3.03.419-.148.714.123,1.035.271,3.794,1.651,7.588,3.3,11.358,5a2.269,2.269,0,0,0,2.07-.025q5.617-2.513,11.259-4.952c.37-.148.665-.443,1.158-.271,2.883.986,5.79,1.971,9.017,3.055-2.193.986-4.114,1.848-6.036,2.685q-7.761,3.437-15.546,6.825a1.687,1.687,0,0,1-1.5.148q-10.57-4.693-21.139-9.338C123.568,294,123.47,293.921,123.1,293.7Z" transform="translate(0 -112.461)"/>
    <path id="Path_2855" data-name="Path 2855" class="cls-2" d="M145.114,373.638Q134.545,360.555,124,347.472a.75.75,0,0,0,.123-.172c1.478.665,2.957,1.33,4.435,1.971,5.322,2.365,10.619,4.755,15.94,7.12.517.222.887.443.887,1.133q-.037,7.982-.025,15.965A2.159,2.159,0,0,1,145.114,373.638Z" transform="translate(-0.678 -155.171)"/>
    <path id="Path_2856" data-name="Path 2856" class="cls-2" d="M216.1,373.665V357.848c0-.567.025-.986.665-1.257,6.775-3.006,13.551-6.036,20.326-9.042a2.432,2.432,0,0,1,.468-.049c-7.145,8.845-14.191,17.567-21.213,26.288A2.286,2.286,0,0,1,216.1,373.665Z" transform="translate(-70.087 -155.322)"/>
    <path id="Path_2857" data-name="Path 2857" class="cls-3" d="M652.955,285.507c-.591.887-1.232,1.725-1.749,2.636-.468.813-.739.641-1.133-.025a11.722,11.722,0,0,0-1.922-2.464c0,1.454-.049,2.907.025,4.336.025.788-.3.961-1.01.961-.739,0-1.133-.123-1.109-.986.049-2.291,0-4.583.025-6.9,0-.419-.32-1.158.394-1.232.739-.049,1.651-.443,2.193.542.468.813,1.01,1.577,1.478,2.414.419.739.69.616,1.035-.025.443-.788.961-1.528,1.4-2.316a1.175,1.175,0,0,1,1.059-.69c1.577-.074,1.552-.1,1.552,1.478v6.406c0,.69.172,1.306-.986,1.33-1.207.025-1.059-.641-1.059-1.4.025-1.355,0-2.685,0-4.041C653.1,285.531,653.029,285.507,652.955,285.507Z" transform="translate(-394.077 -105.746)"/>
    <path id="Path_2858" data-name="Path 2858" class="cls-3" d="M545.832,358.522c0,1.8-.049,3.277.025,4.73.049.912-.493.838-1.084.862-.641.025-.961-.074-.961-.862.049-2.341,0-4.681.025-7,0-.419-.345-1.109.345-1.232a1.732,1.732,0,0,1,2,.542c.961,1.38,2.02,2.685,3.03,4.016.148.2.3.37.714.887,0-1.7.049-3.055-.025-4.385-.049-.862.222-1.109,1.084-1.133.912,0,.961.419.961,1.109-.025,2.291,0,4.583-.025,6.874,0,.394.3,1.01-.345,1.133-.616.1-1.281.246-1.774-.443-1.084-1.478-2.217-2.932-3.351-4.41C546.325,359.039,546.177,358.916,545.832,358.522Z" transform="translate(-317.012 -160.923)"/>
    <path id="Path_2859" data-name="Path 2859" class="cls-3" d="M397.742,214.059c0-1.5.049-2.957-.025-4.385-.025-.838.443-.788,1.01-.788s1.035-.049,1.01.788c-.049,2.39,0,4.755-.025,7.145,0,.394.3,1.035-.32,1.158-.591.123-1.281.271-1.8-.419-1.059-1.454-2.193-2.883-3.277-4.312-.172-.222-.345-.419-.739-.887,0,1.774-.049,3.252.025,4.755.025.838-.345.912-1.035.936-.715,0-1.035-.123-1.01-.936.049-2.341,0-4.681.025-7.022,0-.394-.3-1.035.32-1.133.641-.1,1.38-.32,1.922.394,1.01,1.38,2.07,2.759,3.129,4.114C397.176,213.69,397.25,213.985,397.742,214.059Z" transform="translate(-202.282 -50.83)"/>
    <path id="Path_2860" data-name="Path 2860" class="cls-3" d="M524.975,290.838c-1.5.345-2.636.2-3.277-1.257a8.107,8.107,0,0,0-.739-1.133c-.37-.591-.936-.443-1.429-.37-.517.1-.3.591-.345.912a3.367,3.367,0,0,0,0,.862c.123.862-.246,1.109-1.109,1.109-.887,0-1.01-.37-.985-1.109q.037-3.511,0-7.022c0-.764.148-1.133,1.01-1.059,1.256.074,2.538,0,3.819.074a2.772,2.772,0,0,1,2.71,1.971,2.929,2.929,0,0,1-1.109,3.474c-.616.419-.493.69-.148,1.133C523.916,289.237,524.409,290,524.975,290.838Z" transform="translate(-296.919 -105.781)"/>
    <path id="Path_2861" data-name="Path 2861" class="cls-3" d="M518.99,213.579c0-1.232.025-2.464,0-3.7-.025-.591.074-.912.788-.887,1.355.049,2.71-.025,4.065.074a2.687,2.687,0,0,1,2.636,2.02,2.847,2.847,0,0,1-1.084,3.375c-.665.468-.517.764-.148,1.257.419.567.788,1.158,1.183,1.725.37.542.172.665-.394.714a2.179,2.179,0,0,1-2.341-1.109c-.419-.714-.591-1.774-1.749-1.823-.641-.025-1.035.123-.936.862.049.32-.025.665.025.985.074.739-.1,1.084-.985,1.109-.912,0-1.084-.345-1.059-1.158C519.015,215.87,518.99,214.736,518.99,213.579Z" transform="translate(-298.35 -50.941)"/>
    <path id="Path_2862" data-name="Path 2862" class="cls-3" d="M610.761,218.013c-1.7.443-2.685-.025-3.375-1.429-.3-.591-.517-1.4-1.528-1.355-.616.025-.911.172-.862.838.025.32-.025.665.025.985.1.838-.172,1.133-1.059,1.133-.912,0-.961-.419-.961-1.109.025-2.39.025-4.755,0-7.145,0-.665.148-.961.887-.936,1.281.049,2.538,0,3.819.074a2.81,2.81,0,0,1,2.784,2.02,2.981,2.981,0,0,1-1.158,3.449c-.517.37-.493.591-.148,1.059C609.677,216.338,610.169,217.126,610.761,218.013Z" transform="translate(-361.664 -50.941)"/>
    <path id="Path_2863" data-name="Path 2863" class="cls-3" d="M439.079,286.578c0,1.232-.049,2.464.025,3.7.025.788-.345.887-.961.838-.567-.025-1.232.148-1.158-.788v-.37c-.049-2.759-.025-2.735-2.883-2.513-.542.049-.714.222-.714.739.025.567-.025,1.158,0,1.725.025.69.074,1.257-.961,1.232-.961,0-1.158-.345-1.133-1.232.049-2.341.049-4.681,0-7-.025-.936.419-.961,1.109-.961.715-.025,1.109.172.986.961v.123c.049,2.759.049,2.759,2.833,2.538.591-.049.788-.271.764-.813-.025-.493.049-.985-.025-1.478-.172-1.133.32-1.429,1.38-1.33.591.049.764.271.764.813C439.055,284.04,439.079,285.3,439.079,286.578Z" transform="translate(-232.261 -105.906)"/>
    <path id="Path_2864" data-name="Path 2864" class="cls-3" d="M351.049,213.528c0-1.232.025-2.464,0-3.7-.025-.641.222-.862.862-.838,1.725.025,3.449.049,5.174,0,.69-.025.936.2.912.912,0,.641-.123.986-.887.936-1.01-.049-2.045.025-3.08-.025-.764-.049-.862.345-.862.961-.025.665.246.862.862.838.862-.049,1.725.025,2.587-.025.813-.049.813.394.813.985,0,.567-.049.936-.788.912-.813-.049-1.651.025-2.464-.025-.69-.049-1.01.1-1.035.912-.025.887.345,1.035,1.084.985,1.035-.049,2.045.025,3.08-.025.714-.049.813.3.788.887,0,.542-.049.936-.788.936q-2.772-.037-5.543,0c-.616,0-.764-.246-.764-.813C351.049,216.065,351.049,214.809,351.049,213.528Z" transform="translate(-171.751 -50.939)"/>
    <path id="Path_2865" data-name="Path 2865" class="cls-3" d="M351.192,286.43c0-1.183.025-2.39,0-3.572-.025-.641.123-.961.862-.961,1.774.049,3.523.049,5.3,0,.739-.025.764.37.764.912s0,.961-.764.912c-1.059-.049-2.143.025-3.2-.025-.641-.025-.838.222-.838.838,0,.641.123.985.887.936.813-.049,1.651.025,2.464-.025.665-.025.961.148.936.887-.025.69-.1,1.084-.936,1.01-.739-.074-1.478,0-2.217-.025-.665-.025-1.133-.025-1.158.936,0,.912.394,1.01,1.109.986,1.035-.025,2.045.025,3.08-.025.739-.049.788.345.788.887,0,.567-.074.936-.788.912q-2.772-.037-5.543,0c-.616,0-.739-.3-.739-.838Z" transform="translate(-171.894 -105.881)"/>
    <path id="Path_2866" data-name="Path 2866" class="cls-3" d="M478.193,213.456c0-1.183.025-2.39,0-3.572-.025-.616.148-.887.813-.887,1.774.025,3.523.049,5.3,0,.813-.025.813.394.838.985.025.641-.173.887-.838.838-1.059-.049-2.143.025-3.2-.025-.69-.025-.813.3-.813.887,0,.567.1.936.788.887.813-.049,1.651.025,2.464-.025.665-.025,1.059.025,1.059.887s-.32,1.059-1.084,1.01c-.739-.049-1.478.025-2.217-.025-.69-.049-1.035.1-1.035.912-.025.887.37,1.01,1.109.986,1.035-.049,2.045.049,3.08-.025.764-.049.764.345.788.912,0,.567-.074.936-.788.912-1.8-.025-3.6-.025-5.42,0-.69,0-.838-.3-.813-.887C478.218,215.994,478.193,214.713,478.193,213.456Z" transform="translate(-267.605 -50.942)"/>
    <path id="Path_2867" data-name="Path 2867" class="cls-3" d="M708.018,213.528c0-1.232.025-2.464,0-3.7-.025-.641.222-.862.862-.838,1.774.025,3.523.049,5.3,0,.714-.025.788.345.764.912,0,.517.025.961-.739.936-1.109-.049-2.217.025-3.326-.025-.69-.025-.838.3-.838.887s.1.936.788.912c.936-.049,1.9.025,2.833-.025.764-.025.714.443.714.961,0,.542,0,.986-.739.936-.912-.049-1.8.025-2.71-.025-.714-.049-.912.246-.912.936.025.616.074,1.01.862.985,1.109-.049,2.217.025,3.326-.025.764-.049.764.37.764.912,0,.567-.074.936-.788.912-1.8-.049-3.622-.025-5.42,0-.591,0-.788-.246-.764-.813C708.043,216.065,708.018,214.809,708.018,213.528Z" transform="translate(-440.789 -50.939)"/>
    <path id="Path_2868" data-name="Path 2868" class="cls-3" d="M634.993,359.627c0-1.232.025-2.464,0-3.7-.025-.665.148-.961.862-.936q2.587.074,5.174,0c.715-.025.887.246.912.936,0,.69-.2.961-.912.912-1.059-.049-2.143.025-3.2-.025-.69-.025-.838.271-.813.887,0,.567.074.936.788.912.936-.049,1.9.025,2.833-.025.739-.025.739.419.739.961s-.025.961-.764.936c-.912-.049-1.8.025-2.71-.025-.714-.049-.912.246-.912.936.025.616.074,1.01.862.985,1.109-.049,2.217.025,3.326-.025.69-.049.838.246.813.862-.025.517.025.985-.739.961q-2.772-.037-5.543,0c-.665,0-.714-.32-.714-.838C635.018,362.091,634.993,360.859,634.993,359.627Z" transform="translate(-385.774 -160.969)"/>
    <path id="Path_2869" data-name="Path 2869" class="cls-3" d="M560.719,286.479c0-1.232.025-2.464,0-3.7-.025-.616.148-.887.813-.887,1.749.049,3.523.049,5.3,0,.788-.025.838.37.838.986s-.172.887-.838.862c-1.109-.049-2.217.025-3.326-.025-.714-.025-.764.345-.788.912,0,.591.1.936.788.887.813-.049,1.651.025,2.464-.025.665-.025,1.035.1,1.059.912.025.887-.37,1.01-1.109.986-.69-.049-1.4.025-2.094-.025-.69-.025-1.133,0-1.133.936s.443.986,1.133.961c1.035-.025,2.045.025,3.08-.025.739-.049.764.345.764.912s-.025.936-.764.912c-1.8-.049-3.6-.025-5.42,0-.591,0-.813-.2-.788-.788C560.719,289.017,560.719,287.76,560.719,286.479Z" transform="translate(-329.78 -105.881)"/>
    <path id="Path_2870" data-name="Path 2870" class="cls-3" d="M476.725,286.481c0-1.232.025-2.464,0-3.7-.025-.567.172-.788.764-.788,1.8.025,3.6.025,5.42,0,.739-.025.739.394.764.936,0,.567-.049.936-.788.912-1.035-.049-2.045,0-3.08-.025-.616,0-1.059-.025-1.084.862-.025.986.493.936,1.133.912.788-.025,1.552.025,2.341-.025s.838.394.838.986-.1.936-.813.912c-.813-.049-1.651.025-2.464-.025-.665-.025-1.035.049-1.059.887-.025.862.32,1.059,1.084,1.01,1.035-.049,2.045.025,3.08-.025.69-.049.838.246.813.862,0,.616-.074.985-.838.961-1.749-.049-3.523-.049-5.3,0-.665.025-.838-.246-.838-.862C476.749,289.019,476.725,287.762,476.725,286.481Z" transform="translate(-266.482 -105.956)"/>
    <path id="Path_2871" data-name="Path 2871" class="cls-3" d="M503.558,363.908c-1.38.32-2.414.246-2.686-1.306-.1-.517-.468-.616-.912-.591a11.58,11.58,0,0,1-1.6,0c-1.059-.123-1.774.1-2.07,1.306-.32,1.257-1.4.542-2.39.764.69-1.626,1.306-3.08,1.922-4.509.567-1.355,1.183-2.71,1.725-4.065a.881.881,0,0,1,1.035-.641c.493.049,1.084-.222,1.38.493C501.094,358.217,502.326,361.05,503.558,363.908Z" transform="translate(-279.444 -160.865)"/>
    <path id="Path_2872" data-name="Path 2872" class="cls-3" d="M353.4,362.019c-1.232-.246-2.119,0-2.488,1.4-.271,1.035-1.306.641-1.872.468-.542-.148-.049-.764.1-1.109.986-2.39,2.045-4.73,3.006-7.12a1.289,1.289,0,0,1,1.4-.862,1.14,1.14,0,0,1,1.256.862c.986,2.414,2.045,4.8,3.055,7.219.123.32.665.838.123,1.01-.591.172-1.38.394-1.922-.246a.188.188,0,0,1-.049-.123C355.742,362.019,354.707,361.748,353.4,362.019Z" transform="translate(-170.087 -160.823)"/>
    <path id="Path_2873" data-name="Path 2873" class="cls-3" d="M562.122,213.6c0-1.281.025-2.538,0-3.819-.025-.567.2-.813.788-.788,1.158.049,2.291-.025,3.449.049a3.033,3.033,0,0,1,3.08,2.907,3.112,3.112,0,0,1-2.759,3.351l-.37.074c-.641.148-1.429-.246-1.9.2-.493.443-.172,1.232-.2,1.872-.025.887-.665.641-1.158.665-.517.025-.986.049-.961-.715C562.146,216.14,562.122,214.883,562.122,213.6Z" transform="translate(-330.838 -50.94)"/>
    <path id="Path_2874" data-name="Path 2874" class="cls-3" d="M600.772,285v-1.848c0-.69-.172-1.355.986-1.355,1.084,0,1.059.517,1.059,1.281-.025,1.355-.025,2.71.025,4.065s.764,2.094,1.922,2.094a1.9,1.9,0,0,0,1.946-2.094c.049-1.429.074-2.883,0-4.312-.025-.813.246-1.035,1.035-1.035.862-.025,1.035.345,1.01,1.084-.049,1.478.025,2.957-.025,4.435-.074,2.464-1.5,3.77-4.041,3.745-2.488,0-3.794-1.257-3.893-3.745C600.748,286.576,600.772,285.788,600.772,285Z" transform="translate(-359.979 -105.805)"/>
    <path id="Path_2875" data-name="Path 2875" class="cls-3" d="M670.789,217.813a4.84,4.84,0,0,1-2.907-.813c-.345-.222-1.109-.394-.493-1.035.37-.394.591-1.306,1.5-.591a3.16,3.16,0,0,0,2.439.641.92.92,0,0,0,.912-.714c.1-.517-.3-.739-.69-.887-.739-.271-1.5-.443-2.217-.69a2.421,2.421,0,0,1-1.9-2.661,2.662,2.662,0,0,1,2.168-2.488,5.119,5.119,0,0,1,3.794.591c.345.2.813.443.32.912-.37.345-.37,1.355-1.306.764a3.15,3.15,0,0,0-2.094-.517.843.843,0,0,0-.813.641.707.707,0,0,0,.567.838c.567.222,1.158.37,1.749.542,1.946.591,2.685,1.528,2.464,3.1C674.041,216.975,672.833,217.813,670.789,217.813Z" transform="translate(-410.014 -50.519)"/>
    <path id="Path_2876" data-name="Path 2876" class="cls-3" d="M589.2,359.094a4.562,4.562,0,0,1,2.365-4.213,4.962,4.962,0,0,1,5.149.123c.32.2,1.158.37.542,1.035-.394.443-.591,1.478-1.675.665a2.532,2.532,0,0,0-3.3.074,3.032,3.032,0,0,0-.665,3.5,2.547,2.547,0,0,0,3.942,1.01c.961-.714,1.33-.1,1.749.468.542.714-.271.912-.641,1.133a4.8,4.8,0,0,1-5.026.271A4.491,4.491,0,0,1,589.2,359.094Z" transform="translate(-351.264 -160.387)"/>
    <path id="Path_2877" data-name="Path 2877" class="cls-3" d="M393.027,281.99c.912,0,1.8.025,2.71,0,.69-.025,1.035.074,1.035.912,0,.764-.222,1.059-.985.961-.2-.025-.419.025-.616,0-1.01-.172-1.232.32-1.183,1.232.074,1.675-.025,3.351.025,5.026.025.813-.222,1.059-1.035,1.059-.838,0-1.158-.246-1.109-1.109.074-1.6-.074-3.2.049-4.78.1-1.207-.3-1.626-1.478-1.429-.813.123-1.454.049-1.306-1.109.074-.616.3-.739.838-.739C390.983,282.015,392.017,281.99,393.027,281.99Z" transform="translate(-200.474 -105.95)"/>
    <path id="Path_2878" data-name="Path 2878" class="cls-3" d="M398.1,359.458c0-1.183.049-2.39-.025-3.572-.074-.912.394-.961,1.109-.985.714,0,1.059.123,1.035.936-.049,1.8,0,3.622-.025,5.42-.025.69.172.961.887.936.912-.049,1.8.025,2.71-.025.665-.025.961.148.936.887-.025.69-.123,1.059-.936,1.01q-2.4-.074-4.8,0c-.714.025-.936-.246-.912-.936C398.126,361.922,398.1,360.69,398.1,359.458Z" transform="translate(-207.223 -160.899)"/>
    <path id="Path_2879" data-name="Path 2879" class="cls-3" d="M439.021,214.466v-1.232c0-2.168,0-2.193-2.143-2.365-.641-.049-.715-.345-.69-.862.025-.493-.123-1.01.69-1.01,2.045.025,4.114.025,6.159,0,.715-.025.788.37.764.912,0,.517.025.912-.739.961-2.02.1-2.02.148-2.02,2.217,0,1.4-.025,2.784.025,4.188.025.739-.3.912-.961.887-.616-.025-1.158.049-1.084-.862C439.046,216.363,439.021,215.4,439.021,214.466Z" transform="translate(-235.948 -50.942)"/>
    <path id="Path_2880" data-name="Path 2880" class="cls-3" d="M436.014,359.483c0-1.232.049-2.464-.025-3.7-.049-.887.443-.862,1.084-.887.616,0,.986.074.961.862-.049,1.8.025,3.622-.025,5.42-.025.838.271,1.084,1.059,1.01.862-.049,1.725.025,2.587-.025.764-.049.986.246.986.986,0,.69-.2.936-.912.912q-2.4-.074-4.8,0c-.69.025-.936-.2-.912-.912C436.063,361.946,436.014,360.714,436.014,359.483Z" transform="translate(-235.799 -160.899)"/>
    <path id="Path_2881" data-name="Path 2881" class="cls-3" d="M474.2,359.433c0-1.183.074-2.39-.025-3.572-.074-.936.443-.961,1.133-.961.665,0,1.059.049,1.035.887-.049,2.464-.049,4.927,0,7.367.025.862-.394.887-1.035.912-.714,0-1.183-.049-1.133-.961C474.252,361.9,474.2,360.665,474.2,359.433Z" transform="translate(-264.576 -160.899)"/>
    <path id="Path_2882" data-name="Path 2882" class="cls-3" d="M646.614,213.49c0-1.281.049-2.538-.025-3.819-.025-.838.493-.764,1.035-.788.591-.025,1.01,0,1.01.813-.049,2.488-.049,5,0,7.49.025.788-.345.862-.985.838-.641,0-1.109-.025-1.059-.887C646.663,215.954,646.614,214.722,646.614,213.49Z" transform="translate(-394.512 -50.853)"/>
    <path id="Path_2883" data-name="Path 2883" class="cls-4" d="M526.649,292.055a1.511,1.511,0,0,1-1.429-2.291c.2-.394.517-.3.838-.32a8.328,8.328,0,0,1,1.109,0c.813.025,1.5.345,1.528,1.257.025.961-.69,1.306-1.552,1.355Z" transform="translate(-302.905 -111.555)"/>
    <path id="Path_2884" data-name="Path 2884" class="cls-5" d="M528.489,216.454c1.4,0,2.143.468,2,1.355-.222,1.429-1.4,1.133-2.39,1.257-1.355.172-1.059-.714-1.158-1.5C526.764,216.158,527.7,216.478,528.489,216.454Z" transform="translate(-304.325 -56.551)"/>
    <path id="Path_2885" data-name="Path 2885" class="cls-4" d="M611.913,218.722c-.37-.123-1.059.271-1.232-.32-.173-.69-.394-1.749.1-2.094a2.876,2.876,0,0,1,2.685.025,1.049,1.049,0,0,1,.591,1.33c-.222.912-.961,1.01-1.725,1.035A1.881,1.881,0,0,1,611.913,218.722Z" transform="translate(-367.301 -56.208)"/>
    <path id="Path_2886" data-name="Path 2886" class="cls-6" d="M510.109,365c.443,1.109.764,1.9,1.109,2.759a4.813,4.813,0,0,1-2.217-.025C509.32,366.872,509.641,366.109,510.109,365Z" transform="translate(-290.824 -168.51)"/>
    <path id="Path_2887" data-name="Path 2887" class="cls-5" d="M363.4,368.888a9.88,9.88,0,0,1,.961-2.488c.419.1.443.493.542.764.2.517.788,1.207.493,1.552C364.952,369.184,364.139,368.839,363.4,368.888Z" transform="translate(-181.096 -169.566)"/>
    <path id="Path_2888" data-name="Path 2888" class="cls-7" d="M571.55,219.105c-.764.148-1.232-.074-1.059-1.059.123-.714-.468-1.8,1.084-1.675,1.38.123,2.045.468,2,1.429C573.5,219.056,572.61,219.13,571.55,219.105Z" transform="translate(-337.138 -56.492)"/>
  </g>
</svg>
