<svg xmlns="http://www.w3.org/2000/svg" viewBox="0 0 115.864 65.959">
  <defs>
    <style>
      .cls-1 {
        opacity: 0.7;
      }

      .cls-2 {
        fill: #819eb6;
        fill-rule: evenodd;
      }
    </style>
  </defs>
  <g id="koop_logo" class="cls-1" transform="translate(-250.001 -147.333)">
    <g id="koop--master--wh" transform="translate(250.001 147.333)">
      <g id="koop-blu" transform="translate(0 0)">
        <g id="Group_1112" data-name="Group 1112">
          <path id="Fill-1" class="cls-2" d="M375.953,58.835a9.634,9.634,0,0,0,2.786-7,9.393,9.393,0,0,0-2.786-6.94,9.786,9.786,0,0,0-13.809,0,9.587,9.587,0,0,0-2.725,6.94,9.837,9.837,0,0,0,2.725,7,9.941,9.941,0,0,0,13.809,0Zm5.2-18.777a15.776,15.776,0,0,1,4.954,11.774,15.777,15.777,0,0,1-4.954,11.774,17.774,17.774,0,0,1-21.739,1.942v8.676a3.687,3.687,0,1,1-7.375,0V65.289c.03-.029.063-.053.093-.082a17.921,17.921,0,0,0,5.628-13.375,18.121,18.121,0,0,0-2.626-9.63A16.975,16.975,0,0,1,357,40.058a17.666,17.666,0,0,1,24.151,0Z" transform="translate(-270.245 -27.397)"/>
          <path id="Fill-3" class="cls-2" d="M25.006,36.176,15.424,24.016l7.787-8.678a3.48,3.48,0,0,0-.118-4.913L22.618,10a3.474,3.474,0,0,0-4.894.41L7.375,21.94V4.7a3.369,3.369,0,0,0-3.368-3.37H3.368A3.369,3.369,0,0,0,0,4.7V38.788a3.369,3.369,0,0,0,3.368,3.37h.639a3.369,3.369,0,0,0,3.368-3.37v-5.8l3.049-3.4,8.792,11.158a3.474,3.474,0,0,0,4.857.722l.5-.4a3.48,3.48,0,0,0,.431-4.9" transform="translate(-0.001 -1.333)"/>
          <path id="Fill-5" class="cls-2" d="M128.583,58.835a9.634,9.634,0,0,0,2.786-7,9.392,9.392,0,0,0-2.786-6.94,9.786,9.786,0,0,0-13.809,0,9.587,9.587,0,0,0-2.725,6.94,9.837,9.837,0,0,0,2.725,7,9.941,9.941,0,0,0,13.809,0m-23.9-7a15.777,15.777,0,0,1,4.954-11.774,17.666,17.666,0,0,1,24.151,0,15.776,15.776,0,0,1,4.954,11.774,15.777,15.777,0,0,1-4.954,11.774,17.667,17.667,0,0,1-24.151,0,15.778,15.778,0,0,1-4.954-11.774" transform="translate(-80.358 -27.397)"/>
          <path id="Fill-7" class="cls-2" d="M266.136,40.246a16.607,16.607,0,0,0-10.757-4.715v6.785a9,9,0,0,1,5.556,2.764,9.393,9.393,0,0,1,2.786,6.94,9.634,9.634,0,0,1-2.786,7,9.941,9.941,0,0,1-13.809,0,10.64,10.64,0,0,1-1.181-1.509,17.54,17.54,0,0,1-3.624,6.575,17.651,17.651,0,0,0,23.815-.3A15.777,15.777,0,0,0,271.09,52.02a15.776,15.776,0,0,0-4.954-11.774" transform="translate(-186.018 -27.585)"/>
          <path id="Fill-9" class="cls-2" d="M253,35.478A16.624,16.624,0,0,0,242.32,39.91a17.542,17.542,0,0,1,3.629,6.595,9.988,9.988,0,0,1,1.176-1.466,9.031,9.031,0,0,1,5.878-2.8Z" transform="translate(-186.017 -27.544)"/>
        </g>
      </g>
      <g id="the.fintech.hub" transform="translate(13.557 55.863)">
        <path id="the" class="cls-2" d="M1.288,24.586V23.255h.988V21.261H4.11v1.994H5.261v1.332H4.11v3.778a.857.857,0,0,0,.111.548,1.208,1.208,0,0,0,.676.108q.085,0,.179,0t.185-.01v1.4l-.878.033a2.341,2.341,0,0,1-1.794-.459,1.375,1.375,0,0,1-.312-.99v-4.4Zm9.067-1.581a3,3,0,0,1,1.193.23,2.089,2.089,0,0,1,.881.7,1.873,1.873,0,0,1,.358.823,10.226,10.226,0,0,1,.065,1.381v4.2H10.96V25.99a1.927,1.927,0,0,0-.2-.931.977.977,0,0,0-.962-.5,1.32,1.32,0,0,0-1.115.5,2.281,2.281,0,0,0-.38,1.414v3.87H6.461V20.7H8.307V24.12a2.28,2.28,0,0,1,.933-.869A2.617,2.617,0,0,1,10.355,23.005Zm7.019,1.535a1.253,1.253,0,0,0-1,.407,2.04,2.04,0,0,0-.445,1.1h2.88a1.635,1.635,0,0,0-.445-1.125A1.376,1.376,0,0,0,17.374,24.54Zm0-1.541a3.686,3.686,0,0,1,1.593.335,2.8,2.8,0,0,1,1.17,1.056,3.623,3.623,0,0,1,.54,1.476,9.616,9.616,0,0,1,.059,1.417h-4.85a1.783,1.783,0,0,0,.67,1.509,1.567,1.567,0,0,0,.923.269,1.322,1.322,0,0,0,.93-.328,1.558,1.558,0,0,0,.345-.492h1.892a2.379,2.379,0,0,1-.657,1.292,3.2,3.2,0,0,1-2.549,1.043,3.312,3.312,0,0,1-3.42-3.739,4,4,0,0,1,.933-2.847A3.176,3.176,0,0,1,17.374,23Z" transform="translate(-1.288 -20.478)"/>
        <path id="fintech" class="cls-2" d="M126.981,23.021v-.672h1.052v-1.1a2.29,2.29,0,0,1,.333-1.317,1.275,1.275,0,0,1,1.132-.484q.186,0,.346.013t.32.04v.739a1.98,1.98,0,0,0-.479-.067.864.864,0,0,0-.479.114.668.668,0,0,0-.253.3,1.374,1.374,0,0,0-.1.423q-.02.235-.02.477v.86h1.3v.672h-1.3v6.287h-.8V23.021Zm4.78,6.287V22.349h.8v6.959Zm.839-8.477h-.879v-1.2h.879Zm2.62,8.477h-.8V22.349h.8v.967a5.085,5.085,0,0,1,.992-.833,2.266,2.266,0,0,1,1.232-.322,3.12,3.12,0,0,1,1.185.222,2.026,2.026,0,0,1,.919.772,1.742,1.742,0,0,1,.3.772,7.072,7.072,0,0,1,.047.826v4.554h-.8V24.767a2.086,2.086,0,0,0-.413-1.411,1.744,1.744,0,0,0-1.371-.47,1.931,1.931,0,0,0-.679.114,2.13,2.13,0,0,0-.553.3,2.02,2.02,0,0,0-.686.94,2.582,2.582,0,0,0-.146.645q-.027.309-.027.672Zm9.025.027q-.146.027-.386.094a1.971,1.971,0,0,1-.533.067,1.262,1.262,0,0,1-.912-.3,1.48,1.48,0,0,1-.313-1.081V23.021h-.972v-.672h.972V20.414h.8v1.934h1.292v.672H142.9V27.79q0,.255.013.443a.749.749,0,0,0,.08.309.383.383,0,0,0,.206.175,1.135,1.135,0,0,0,.393.054,2.045,2.045,0,0,0,.326-.027q.166-.027.326-.067Zm6.269-3.99a3.221,3.221,0,0,0-.14-.961,2.251,2.251,0,0,0-.413-.779,1.967,1.967,0,0,0-.686-.524,2.19,2.19,0,0,0-.945-.195,2.086,2.086,0,0,0-.939.2,2.161,2.161,0,0,0-.692.537,2.708,2.708,0,0,0-.459.779,3.64,3.64,0,0,0-.226.94Zm-4.5.672a3.807,3.807,0,0,0,.146,1.068,2.588,2.588,0,0,0,.433.873,2.1,2.1,0,0,0,.726.591,2.217,2.217,0,0,0,1.012.222,2.188,2.188,0,0,0,1.345-.416,2.008,2.008,0,0,0,.746-1.182h.892a4.36,4.36,0,0,1-.386.92,2.834,2.834,0,0,1-.6.739,2.584,2.584,0,0,1-.852.49,3.424,3.424,0,0,1-1.145.175,3.318,3.318,0,0,1-1.425-.282,2.69,2.69,0,0,1-.985-.772,3.271,3.271,0,0,1-.573-1.155,5.281,5.281,0,0,1-.186-1.431,4.6,4.6,0,0,1,.22-1.437,3.671,3.671,0,0,1,.626-1.175A2.913,2.913,0,0,1,147,22.45a2.972,2.972,0,0,1,1.332-.289,2.739,2.739,0,0,1,2.237.987,4.365,4.365,0,0,1,.8,2.868Zm11.794-1.478a2.344,2.344,0,0,0-.732-1.216,1.978,1.978,0,0,0-1.318-.437,2.059,2.059,0,0,0-1.052.255,2.137,2.137,0,0,0-.719.678,3.071,3.071,0,0,0-.413.954,4.373,4.373,0,0,0-.133,1.068,4.563,4.563,0,0,0,.126,1.075,2.885,2.885,0,0,0,.406.94,2.1,2.1,0,0,0,.719.665,2.132,2.132,0,0,0,1.065.249,2.029,2.029,0,0,0,1.431-.5,2.318,2.318,0,0,0,.686-1.37h.852a4.073,4.073,0,0,1-.34,1.055,2.781,2.781,0,0,1-.6.819,2.571,2.571,0,0,1-.872.531,3.7,3.7,0,0,1-2.583-.094,2.69,2.69,0,0,1-.985-.772,3.265,3.265,0,0,1-.573-1.162,5.355,5.355,0,0,1-.186-1.437,4.664,4.664,0,0,1,.206-1.39,3.636,3.636,0,0,1,.606-1.175,2.887,2.887,0,0,1,2.357-1.115,3.056,3.056,0,0,1,1.937.578,2.688,2.688,0,0,1,.925,1.8Zm2.514,4.769V19.635h.8v3.681a5.084,5.084,0,0,1,.992-.833,2.266,2.266,0,0,1,1.232-.322,3.12,3.12,0,0,1,1.185.222,2.026,2.026,0,0,1,.919.772,1.742,1.742,0,0,1,.3.772,7.072,7.072,0,0,1,.047.826v4.554H165V24.767a2.086,2.086,0,0,0-.413-1.411,1.744,1.744,0,0,0-1.371-.47,1.931,1.931,0,0,0-.679.114,2.13,2.13,0,0,0-.553.3,2.02,2.02,0,0,0-.686.94,2.581,2.581,0,0,0-.146.645q-.027.309-.027.672v3.748Z" transform="translate(-104.507 -19.447)"/>
        <path id="hub" class="cls-2" d="M371.418,22.915a3,3,0,0,1,1.193.23,2.089,2.089,0,0,1,.881.7,1.873,1.873,0,0,1,.358.823,10.217,10.217,0,0,1,.065,1.381v4.2h-1.892V25.9a1.927,1.927,0,0,0-.2-.931.977.977,0,0,0-.962-.5,1.32,1.32,0,0,0-1.115.5,2.281,2.281,0,0,0-.38,1.414v3.87h-1.846V20.613h1.846V24.03a2.28,2.28,0,0,1,.933-.869A2.617,2.617,0,0,1,371.418,22.915Zm6.07.184v4.31a2.274,2.274,0,0,0,.143.918.988.988,0,0,0,.995.544,1.3,1.3,0,0,0,1.3-.774,2.825,2.825,0,0,0,.182-1.109V23.1h1.879v7.15h-1.8v-1.01q-.026.033-.13.2a1.313,1.313,0,0,1-.247.289,2.577,2.577,0,0,1-.842.538,2.846,2.846,0,0,1-.952.144,2.119,2.119,0,0,1-2.119-1.141,4.4,4.4,0,0,1-.306-1.856V23.1Zm10.114-.157a2.616,2.616,0,0,1,2.188,1.017,4.153,4.153,0,0,1,.79,2.624,4.644,4.644,0,0,1-.78,2.762,2.8,2.8,0,0,1-3.589.741,2.832,2.832,0,0,1-.689-.735v.9h-1.814V20.593h1.846V24.03a2.714,2.714,0,0,1,.774-.761A2.282,2.282,0,0,1,387.6,22.941Zm-.475,5.956a1.269,1.269,0,0,0,1.112-.584,2.684,2.684,0,0,0,.4-1.535,3.489,3.489,0,0,0-.2-1.259,1.359,1.359,0,0,0-1.365-.945,1.379,1.379,0,0,0-1.385.925,3.5,3.5,0,0,0-.195,1.273,2.683,2.683,0,0,0,.4,1.522A1.376,1.376,0,0,0,387.127,28.9Z" transform="translate(-302.04 -20.388)"/>
      </g>
    </g>
  </g>
</svg>
