<svg xmlns="http://www.w3.org/2000/svg" viewBox="0 0 84.292 86.273">
  <defs>
    <style>
      .cls-1 {
        opacity: 0.7;
      }

      .cls-2 {
        fill: #819eb6;
      }

      .cls-3 {
        fill: #93b1c9;
      }

      .cls-4 {
        fill: #fcfcfc;
      }

      .cls-5 {
        fill: #b11e2c;
      }

      .cls-6 {
        fill: #fbf6f7;
      }

      .cls-7 {
        fill: #f5e6e8;
      }
    </style>
  </defs>
  <g id="linspark_logo" class="cls-1" transform="translate(-165.495 -13.633)">
    <path id="Path_2810" data-name="Path 2810" class="cls-2" d="M224.928,69.3c-.475.7-.52.7-1.039.059a83.848,83.848,0,0,1-14.547-26.764,94.74,94.74,0,0,1-3.949-16.566c-.148-1.069-.238-2.167-.356-3.236-.059-.46.119-.653.609-.7a50.158,50.158,0,0,0,25.1-9.426,32.181,32.181,0,0,0,4.824-4.275c.327-.371.52-.371.876-.015a46.376,46.376,0,0,0,22.474,12.44,47.6,47.6,0,0,0,7.378,1.262c.623.059.727.312.683.846a69.86,69.86,0,0,1-1.188,8.06,93.529,93.529,0,0,1-6.65,20.634,80.535,80.535,0,0,1-9.871,16.329c-.935,1.232-1.959,2.39-2.939,3.592-.549.683-.742.683-1.484.208a10.223,10.223,0,0,1-2.138-1.692,3.021,3.021,0,0,1-.831-1.766c-.074-.638.119-.861.772-.861,1.6,0,3.221-.015,4.824,0,.534,0,.876-.163.846-.757-.119-3.088-.341-6.16-1.8-8.981a12.344,12.344,0,0,0-4.884-4.913c-1.306-.787-2.642-1.544-3.874-2.449a5.978,5.978,0,0,1-2.7-3.978,1.53,1.53,0,0,1-.015-.52c.045-.371.238-.46.564-.282a3.949,3.949,0,0,0,3.622.015,2.68,2.68,0,0,1,3.34,1.633,2.806,2.806,0,0,0,2.88,1.87.975.975,0,0,0,.653-.312,5.7,5.7,0,0,1,2.375-1.44A1.35,1.35,0,0,0,249.51,45.8a4.451,4.451,0,0,1,0-.445,2.321,2.321,0,0,0-1.425-2.627,8.712,8.712,0,0,1-2.509-2.271,1.927,1.927,0,0,1-.445-1.514,2.359,2.359,0,0,0-1.707-2.687,4.448,4.448,0,0,1-1.915-1.232c-.653-.787-.564-1.247.282-1.781a2.777,2.777,0,0,0,.52-.416c.341-.341.713-.727.594-1.217-.134-.549-.713-.43-1.128-.5a20.629,20.629,0,0,0-8.313,0,15.038,15.038,0,0,0-3.874,1.44.925.925,0,0,0-.52,1.321c.312.772.52,1.573.787,2.36l-.178.134c-.668-.52-1.38-.995-2-1.559-.52-.475-.92-.49-1.381.015-1.024.8-1.039.831-.46,2,.267.534.549,1.054.846,1.573.074.148.223.3.03.46-.148.119-.282.015-.4-.089-.386-.327-.638-.193-.891.208s-.534.831-.787,1.262c-.208.356-.386.668-.015,1.054.238.267.074.475-.267.445-.445-.03-.594.267-.757.579-.312.564-.46,1.2-.727,1.781-.178.371.089.549.312.727.119.089.252.178.148.356-.074.134-.208.089-.327.074-.594-.1-1.188.015-1.766-.1a.664.664,0,0,0-.831.534c-.549,1.811-.46,1.989,1.336,2.464a6.591,6.591,0,0,1,.92.282.285.285,0,0,1,.208.282c-.015.134-.148.193-.267.208a5.169,5.169,0,0,0-.653.148c-.178.045-.371.1-.416.267a9.685,9.685,0,0,0-.371,2.256.259.259,0,0,0,.074.208c.49.356.668.638-.089.891-.193.059-.193.4-.193.609-.015.475-.074.935-.1,1.4-.03.534-.059.995.579,1.158a.2.2,0,0,1,.148.223c-.015.148-.134.193-.267.208-.46.074-.906.208-1.381.282a.784.784,0,0,0-.727.92c.045,1.915-.148,1.47,1.47,2,.43.148.95.208.238.742a7.4,7.4,0,0,0,.045,3.325,4.236,4.236,0,0,0,1.158.653,14.324,14.324,0,0,1,1.87,1.039C225.3,66.181,226.131,67.517,224.928,69.3Z" transform="translate(-28.87 5.52)"/>
    <path id="Path_2811" data-name="Path 2811" class="cls-2" d="M255.877,476.083v5.9c0,.369-.017.721,0,1.09.017.386-.151.587-.537.57h-.168c-2.751-.05-2.214.419-2.231-2.13-.034-3.1.017-6.207-.017-9.293,0-.7.134-.99.923-.99,2.55.017,2.55-.017,3.892,2.181,1.023,1.678,2.047,3.338,3.07,5,.084.134.151.3.386.352a3.987,3.987,0,0,0,.117-1.778c0-1.678-.017-3.355-.067-5.033-.017-.554.2-.7.738-.721,2.231-.05,2.231-.067,2.231,2.147,0,3.1-.034,6.207.017,9.293.017.805-.268.906-.99.99-3.439.117-2.952-.3-3.758-2.03a54.6,54.6,0,0,0-3.036-5.016C256.314,476.435,256.23,476.183,255.877,476.083Z" transform="translate(-72.751 -384.063)"/>
    <path id="Path_2812" data-name="Path 2812" class="cls-3" d="M532.011,477.286c0-1.761.017-3.523-.017-5.284-.017-.637.151-.923.839-.889a29.1,29.1,0,0,1,5.687.2,3.609,3.609,0,0,1,2.533,5.469,2.7,2.7,0,0,1-1.292,1.158c-.621.268-.6.587-.285,1.09.788,1.241,1.543,2.533,2.332,3.774.335.537.268.755-.386.738h-.084c-2.7.067-2.7.067-3.976-2.332-.335-.621-.654-1.225-1.006-1.828-.218-.369-.369-.889-.973-.7-.537.168-.268.654-.336,1.006-.017,1.04-.034,2.063,0,3.1.017.52-.134.738-.7.772-2.332.1-2.332.117-2.332-2.231Z" transform="translate(-305.018 -383.941)"/>
    <path id="Path_2813" data-name="Path 2813" class="cls-3" d="M600.9,477.417c0-1.795.017-3.573,0-5.368,0-.57.168-.805.755-.805,2.734.05,2.147-.336,2.2,2.114.017.637,0,1.292.017,1.929,0,.185-.084.436.134.52.268.117.386-.151.52-.3,1.057-1.191,2.13-2.365,3.154-3.59a1.642,1.642,0,0,1,1.51-.671c.637.05,1.292,0,1.929.017.235,0,.554-.134.654.184.084.252-.168.386-.319.554-1.275,1.375-2.55,2.734-3.841,4.093-.822.872-.839.856-.05,1.795,1.426,1.694,2.852,3.372,4.261,5.066.134.168.386.3.268.554-.084.185-.4.134-.6.151-2.885.2-3.791-.168-4.9-2.2a16.359,16.359,0,0,0-1.929-2.432c-.185-.218-.319-.637-.671-.5-.3.1-.151.5-.151.755-.017,1.208-.034,2.4,0,3.607.017.587-.218.788-.788.772-2.617-.067-2.13.369-2.181-2.147C600.886,480.152,600.9,478.793,600.9,477.417Z" transform="translate(-362.335 -384.072)"/>
    <path id="Path_2814" data-name="Path 2814" class="cls-3" d="M454.648,481.419h-.335c-1.963,0-1.963,0-2.7,1.812-.084.2-.117.487-.369.52a9.448,9.448,0,0,1-2.835,0c-.386-.05-.168-.453-.067-.688,1.191-2.835,2.365-5.653,3.556-8.488.352-.856.721-1.694,1.074-2.533.117-.285.235-.587.6-.6q1.132-.025,2.265,0c.319,0,.453.252.57.52q2.315,5.611,4.647,11.206c.218.5.067.671-.436.654a4.479,4.479,0,0,1-.671,0c-2.483.034-2.5-.252-2.785-1.862a.671.671,0,0,0-.788-.57C455.823,481.435,455.236,481.419,454.648,481.419Z" transform="translate(-235.271 -384.232)"/>
    <path id="Path_2815" data-name="Path 2815" class="cls-3" d="M396.211,477.588c0-1.812.017-3.623-.017-5.435-.017-.6.151-.872.788-.839a41.069,41.069,0,0,1,5.183.134c3.137.5,3.724,2.382,3.338,4.848-.235,1.51-1.761,2.533-3.791,2.734a12.315,12.315,0,0,1-1.745.1c-.537-.017-.755.2-.738.738.034,1.057-.017,2.114.017,3.187.017.5-.168.671-.671.688-2.365.067-2.349.084-2.349-2.281C396.211,480.155,396.211,478.88,396.211,477.588Z" transform="translate(-191.999 -384.126)"/>
    <path id="Path_2816" data-name="Path 2816" class="cls-3" d="M334.334,482.341a6.914,6.914,0,0,1-3.942-1.208c-.47-.335-.688-.654-.151-1.124a6.457,6.457,0,0,0,.453-.5c.889-.939.889-.923,2-.268a2.722,2.722,0,0,0,2.55.386,1.131,1.131,0,0,0,.3-2.013,6.012,6.012,0,0,0-1.678-.738c-.335-.151-.688-.252-1.023-.369a3.278,3.278,0,0,1-2.466-3.12,3.439,3.439,0,0,1,2.181-3.539,6.189,6.189,0,0,1,5.938.4c.788.453.772.688.134,1.325a3.492,3.492,0,0,0-.352.352c-.52.7-1.04,1.09-1.862.319a2.067,2.067,0,0,0-1.678-.336,1.278,1.278,0,0,0-1.225.973c-.134.654.352.973.839,1.191.839.352,1.745.621,2.583.973a3.268,3.268,0,0,1,2.214,2.9,3.7,3.7,0,0,1-1.728,3.59A5.173,5.173,0,0,1,334.334,482.341Z" transform="translate(-136.848 -382.437)"/>
    <path id="Path_2817" data-name="Path 2817" class="cls-2" d="M165.513,477.424c0-1.795.034-3.573-.017-5.368-.017-.688.218-.856.872-.856,2.181.017,2.181-.017,2.181,2.2,0,2.231.017,4.479-.017,6.71-.017.654.185.889.856.872,1.09-.05,2.181,0,3.271-.017.453,0,.671.168.671.637-.034,2.483.3,2-1.845,2.03-1.728.017-3.472-.017-5.2.017-.587.017-.788-.185-.772-.772C165.529,481.064,165.513,479.235,165.513,477.424Z" transform="translate(0 -384.045)"/>
    <path id="Path_2818" data-name="Path 2818" class="cls-2" d="M219.911,477.47c0-1.812.017-3.64-.017-5.452-.017-.6.151-.839.788-.855,2.265-.034,2.265-.05,2.265,2.214,0,3.1-.017,6.207.017,9.31.017.755-.235.956-.956.939-2.114-.034-2.114,0-2.114-2.13C219.911,480.154,219.911,478.812,219.911,477.47Z" transform="translate(-45.273 -384.008)"/>
    <path id="Path_2819" data-name="Path 2819" class="cls-4" d="M552.144,488.251c-.05.017-.084.034-.134.05a5.12,5.12,0,0,1-1.879.285c-.47-.034-.738-.218-.755-.772-.067-2.063.554-2.533,2.567-1.879a1.557,1.557,0,0,1,.453.2C553.268,487.009,553.2,487.529,552.144,488.251Z" transform="translate(-319.481 -396.08)"/>
    <path id="Path_2820" data-name="Path 2820" class="cls-5" d="M566.252,488.3c0-.067.017-.134.017-.2a1.15,1.15,0,0,1,.6,1.325c-.1.453-.369.889-.973.839A1.264,1.264,0,0,0,566.252,488.3Z" transform="translate(-333.237 -398.11)"/>
    <path id="Path_2821" data-name="Path 2821" class="cls-6" d="M480.308,498.6c-1.426,0-1.426,0-.923-1.359.218-.57.419-1.158.637-1.728.084-.2.1-.5.352-.52.285-.034.285.3.352.486.3.788.537,1.594.872,2.348.252.587.134.839-.52.788A5.929,5.929,0,0,0,480.308,498.6Z" transform="translate(-260.982 -403.841)"/>
    <path id="Path_2822" data-name="Path 2822" class="cls-7" d="M414.3,487.526c0-1.426,0-1.426,1.124-1.426,1.527,0,2.231.453,2.214,1.409-.017.973-.772,1.459-2.315,1.459C414.3,488.969,414.3,488.969,414.3,487.526Z" transform="translate(-207.068 -396.445)"/>
  </g>
</svg>
