<svg xmlns="http://www.w3.org/2000/svg" viewBox="0 0 201.056 50.235">
  <defs>
    <style>
      .cls-1 {
        opacity: 0.7;
      }

      .cls-2 {
        fill: #93b1c9;
      }

      .cls-3 {
        fill: #819eb6;
      }

      .cls-4 {
        fill: #fcfdfd;
      }

      .cls-5 {
        fill: #fdfefe;
      }
    </style>
  </defs>
  <g id="lostar_logo" class="cls-1" transform="translate(-60.332 -51.378)">
    <path id="Path_2823" data-name="Path 2823" class="cls-2" d="M642.44,106.415a1.019,1.019,0,0,1-.876.389,41.849,41.849,0,0,0-4.51.1,8.621,8.621,0,0,0-6.586,3.926,7.6,7.6,0,0,0-.973,4.185c-.032,4.153-.032,8.339-.032,12.492v.357q-.049.681-.681.681h-3.7c-.487,0-.681-.227-.681-.779v-4.153c0-2.888,0-5.775.065-8.631a14.424,14.424,0,0,1,.973-5.613,11.427,11.427,0,0,1,7.333-6.651,16.548,16.548,0,0,1,5.029-.584c1.265,0,2.531,0,3.764-.032a1.019,1.019,0,0,1,.876.389Z" transform="translate(-381.052 -34.265)"/>
    <path id="Path_2824" data-name="Path 2824" class="cls-3" d="M87.868,101.514a27.961,27.961,0,0,1-5.938-.13,24.187,24.187,0,0,1-10.74-4.218A24.666,24.666,0,0,1,60.646,80.359,25.065,25.065,0,0,1,80.308,51.937a24.764,24.764,0,0,1,18.624,3.342c.422.26.422.26.1.616q-6.278,6.23-12.524,12.524a41.924,41.924,0,0,0-4.283,5A17.961,17.961,0,0,0,78.686,84.9a19.091,19.091,0,0,0,5.062,12.3c1.2,1.4,2.531,2.661,3.829,3.926a3.449,3.449,0,0,0,.357.292C87.9,101.449,87.9,101.481,87.868,101.514Z" transform="translate(0)"/>
    <path id="Path_2825" data-name="Path 2825" class="cls-3" d="M166.564,96.958a24.964,24.964,0,0,1-6.035,16.353,24.625,24.625,0,0,1-7.852,6.165.468.468,0,0,1-.649-.1c-1.492-1.525-3.05-3.017-4.542-4.607a15.616,15.616,0,0,1-3.958-7.106,12.3,12.3,0,0,1,.649-7.917,12.549,12.549,0,0,1,2.4-3.277c1.557-1.752,3.245-3.407,4.9-5.062l9.507-9.507c.26-.26.357-.26.584.032a24.858,24.858,0,0,1,4.8,12.1C166.5,95.011,166.532,95.984,166.564,96.958Z" transform="translate(-55.952 -20.492)"/>
    <path id="Path_2826" data-name="Path 2826" class="cls-2" d="M556.456,128.477H550a10.749,10.749,0,0,1-4.056-.649,6.305,6.305,0,0,1-4.088-4.77,11.22,11.22,0,0,1,.227-5.678,5.541,5.541,0,0,1,5.159-4.153c1.655-.162,3.31-.162,4.964-.162h6.684c.292,0,.389-.032.292-.357a6.982,6.982,0,0,0-2.888-4.185,9.408,9.408,0,0,0-5.386-1.72c-1.233-.032-2.433,0-3.666-.032-.584,0-.779-.195-.779-.779v-3.18c0-.552.195-.746.746-.746,2.077,0,4.153-.065,6.23.065a11.572,11.572,0,0,1,10.707,9.7,33.662,33.662,0,0,1,.324,4.77v11.1c0,.649-.195.811-.844.811C561.258,128.477,558.857,128.477,556.456,128.477Zm-2.044-4.834h4.672c.26,0,.357-.032.357-.324V117.77c0-.227-.032-.324-.292-.324-2.855.032-5.71-.065-8.566.065a7.816,7.816,0,0,0-2.725.519,2.336,2.336,0,0,0-1.428,1.59,3.683,3.683,0,0,0-.032,1.785,2.258,2.258,0,0,0,1.525,1.817,6.868,6.868,0,0,0,1.979.357C551.394,123.675,552.887,123.643,554.412,123.643Z" transform="translate(-325.113 -34.231)"/>
    <path id="Path_2827" data-name="Path 2827" class="cls-2" d="M305.3,114.292a13.708,13.708,0,1,1,13.66,13.725A13.682,13.682,0,0,1,305.3,114.292Zm13.725,8.987a8.988,8.988,0,1,0-8.987-8.987A8.987,8.987,0,0,0,319.025,123.279Z" transform="translate(-165.487 -33.251)"/>
    <path id="Path_2828" data-name="Path 2828" class="cls-2" d="M406.55,128.511h-7.17c-.714,0-.876-.162-.876-.876V124.65c0-.681.162-.844.844-.844h12.1a13.5,13.5,0,0,0,2.79-.227c1.849-.357,2.628-1.493,2.369-3.569a2.293,2.293,0,0,0-1.655-1.979,10.078,10.078,0,0,0-3.407-.487h-5.775a11.574,11.574,0,0,1-3.8-.552,6.354,6.354,0,0,1-4.315-4.834,11.136,11.136,0,0,1,.26-5.743,5.474,5.474,0,0,1,5-4.088,39.651,39.651,0,0,1,4.8-.227H415.7c.714,0,.876.162.876.876v2.92c0,.779-.162.941-.908.941h-8.76a12.357,12.357,0,0,0-2.433.227c-1.914.357-2.5,1.428-2.271,3.309a2.721,2.721,0,0,0,2.239,2.369,14.2,14.2,0,0,0,4.056.324c2.174.032,4.348-.032,6.522.13a11.457,11.457,0,0,1,2.109.357,5.081,5.081,0,0,1,3.569,3.439,10.576,10.576,0,0,1,.292,6.489c-.746,2.79-2.725,4.25-5.451,4.8a12.683,12.683,0,0,1-2.466.227Z" transform="translate(-227.705 -34.265)"/>
    <path id="Path_2829" data-name="Path 2829" class="cls-2" d="M479.6,97.163V88.176c0-.714.162-.876.876-.876h3.472c.519,0,.746.195.746.714v3.7c0,.292.1.357.357.357h11.356c.746,0,.909.162.909.908v2.953c0,.681-.195.844-.844.844H485.148c-.324,0-.422.065-.389.389.032,2.531,0,5.029,0,7.56a23.8,23.8,0,0,0,.162,2.628,6,6,0,0,0,1.622,3.374,8.582,8.582,0,0,0,5.613,2.855,31.468,31.468,0,0,0,4.283.1c.746,0,.909.162.909.908v2.985c0,.584-.195.811-.779.811-1.914-.032-3.829.065-5.743-.065a11.619,11.619,0,0,1-10.707-9.279,28.169,28.169,0,0,1-.454-5.224C479.6,101.641,479.6,99.4,479.6,97.163Z" transform="translate(-283.234 -24.267)"/>
    <path id="Path_2830" data-name="Path 2830" class="cls-2" d="M245.729,85.378c.032,2.985-.065,6.684.065,10.35a7.628,7.628,0,0,0,6.489,7.657,13.03,13.03,0,0,0,2.758.26h4.9c.649,0,.844.195.844.811V107.6c0,.519-.227.746-.714.746-2.758-.032-5.516.1-8.274-.065a11.5,11.5,0,0,1-10.8-9.961,38.679,38.679,0,0,1-.292-4.737V73.308c0-.746.162-.908.909-.908h3.342c.584,0,.779.195.779.779Z" transform="translate(-121.846 -14.201)"/>
    <path id="Path_2831" data-name="Path 2831" class="cls-4" d="M564.27,155.687c-1.492,0-3.017.032-4.51-.065a6.869,6.869,0,0,1-1.979-.357,2.259,2.259,0,0,1-1.525-1.817,4.722,4.722,0,0,1,.032-1.785,2.207,2.207,0,0,1,1.428-1.59,7.141,7.141,0,0,1,2.725-.519c2.855-.13,5.71-.032,8.566-.065.26,0,.292.1.292.324v5.548c0,.292-.13.324-.357.324Z" transform="translate(-334.971 -66.276)"/>
    <path id="Path_2832" data-name="Path 2832" class="cls-5" d="M328.887,133.075a8.988,8.988,0,1,1,8.987-8.987A9.008,9.008,0,0,1,328.887,133.075Z" transform="translate(-175.349 -43.047)"/>
  </g>
</svg>
