<svg xmlns="http://www.w3.org/2000/svg" viewBox="0 0 191.319 58.649">
  <defs>
    <style>
      .cls-1 {
        opacity: 0.698;
      }

      .cls-2, .cls-3 {
        fill: #819eb6;
      }

      .cls-3 {
        stroke: #819eb6;
      }
    </style>
  </defs>
  <g id="microsoft_azure_logo" class="cls-1" transform="translate(-15.1 -231.5)">
    <g id="Group_1113" data-name="Group 1113" transform="translate(15.1 231.5)">
      <path id="Path_2833" data-name="Path 2833" class="cls-2" d="M98.931,236.937c10.71-1.5,21.389-2.968,32.1-4.437-.031,9.425,0,18.849,0,28.274H98.9c.031-7.925-.031-15.881.031-23.837" transform="translate(-72.411 -232.5)"/>
      <path id="Path_2834" data-name="Path 2834" class="cls-3" d="M592.719,244.45a3.588,3.588,0,0,1,4.8-.8c-1.163.306-2.479.245-3.55.826-.918,1.285-.428,3-.581,4.5,2.142.031,4.253,0,6.4.031.031-1.561.061-3.091.061-4.651l1.132.031v4.559c1.132.031,2.234.031,3.366.061v.857c-1.132,0-2.264,0-3.366.031.031,3.3,0,6.579,0,9.884.092.887-.214,2.081.612,2.693.765.612,1.836.459,2.754.643v.826c-1.714.031-4.131-.337-4.406-2.417-.214-3.886-.031-7.772-.061-11.658h-6.426c0,4.712.031,9.425-.031,14.137-.275-.092-.765-.275-1.04-.337-.214-4.559-.061-9.18-.061-13.739-1.04-.184-2.54.367-3.121-.826,1.01-.061,2.05-.122,3.06-.153.061-1.5-.153-3.091.459-4.5" transform="translate(-413.527 -238.984)"/>
      <path id="Path_2835" data-name="Path 2835" class="cls-3" d="M257.331,243.5c.459.092,1.346.275,1.805.367,3.152,6.151,5.753,12.607,8.721,18.849,3.3-6.089,5.753-12.638,8.721-18.911.643,0,1.285-.031,1.928-.031v20.41l-1.377-.122c.031-6.273.092-12.515-.031-18.788-3,6.212-5.63,12.607-8.507,18.849h-1.255c-1.928-4.162-3.825-8.354-5.722-12.546a29.157,29.157,0,0,0-2.968-5.845c-.214,6.12-.061,12.24-.092,18.39-.306,0-.949.031-1.255.061.031-6.916,0-13.8.031-20.685" transform="translate(-183.188 -239.288)"/>
      <path id="Path_2836" data-name="Path 2836" class="cls-3" d="M339.831,244.3c.275,0,.826.031,1.071.031v2.723h-1.1c0-.918.031-1.836.031-2.754" transform="translate(-240.443 -239.843)"/>
      <path id="Path_2837" data-name="Path 2837" class="cls-2" d="M15.1,250.888c8.14-1.163,16.31-2.142,24.449-3.488.061,7.925,0,15.82.031,23.745-8.139.061-16.279-.092-24.419.092-.061-6.793,0-13.586-.061-20.349" transform="translate(-15.1 -242.841)"/>
      <path id="Path_2838" data-name="Path 2838" class="cls-3" d="M355.434,263.08c3.4-3.55,10.618-2.479,11.9,2.6-.245.092-.765.275-1.04.367-.918-4.9-8.262-5.508-10.71-1.591a8.519,8.519,0,0,0,.214,9.18c2.387,3.06,8.323,2.815,9.853-1.01.367-.765.673-1.775,1.775-1.561a7.077,7.077,0,0,1-9,5.263c-5.569-1.316-6.793-9.425-3-13.25" transform="translate(-249.774 -251.432)"/>
      <path id="Path_2839" data-name="Path 2839" class="cls-3" d="M339.854,262.3l1.1.031v14.81l-1.071.061c-.061-4.957-.061-9.914-.031-14.9" transform="translate(-240.467 -252.335)"/>
      <path id="Path_2840" data-name="Path 2840" class="cls-3" d="M408.83,262.4h1.132c.031.918.031,1.805.061,2.723,1.652-1.438,3.611-3.06,5.967-2.662.122.153.4.459.52.643-2.723.122-5.753,1.561-6.365,4.468-.4,3.3.031,6.671-.245,9.975-.275-.153-.765-.459-1.01-.581-.184-4.865-.031-9.7-.061-14.565" transform="translate(-288.329 -252.405)"/>
      <path id="Path_2841" data-name="Path 2841" class="cls-3" d="M439.581,262.286c-5.416,1.744-5.753,10.587-.734,13.035a6.224,6.224,0,0,0,6.763-1.071,7.966,7.966,0,0,0,.306-10.281,6.116,6.116,0,0,0-6.334-1.683m-.612-.734a7.466,7.466,0,0,1,7.65,1.652c3.06,3.274,2.846,9.119-.612,12-3.213,2.6-8.66,1.775-10.679-1.928-2.448-3.917-1.01-10.19,3.641-11.72" transform="translate(-305.921 -251.526)"/>
      <path id="Path_2842" data-name="Path 2842" class="cls-3" d="M492.45,262.053a8.619,8.619,0,0,1,8.139.061c1.377.734,1.652,2.417,2.05,3.764-1.775.031-1.377-2.295-2.693-3.029a7.073,7.073,0,0,0-6.762-.092,2.486,2.486,0,0,0,.061,4.315c2.6,1.346,5.814.979,8.323,2.54a3.723,3.723,0,0,1,1.132,4.468c-.765,1.683-2.723,2.234-4.376,2.509-2.6.4-5.691-.184-7.252-2.479-.581-.918-1.285-2.326.031-2.907.49,1.193.765,2.632,1.867,3.458,2.02,1.53,4.865,1.377,7.13.581a2.793,2.793,0,0,0,.673-4.835c-2.693-1.5-6.151-.979-8.69-2.785a3.4,3.4,0,0,1,.367-5.569" transform="translate(-344.929 -251.476)"/>
      <path id="Path_2843" data-name="Path 2843" class="cls-3" d="M545.252,262.061c-4.865.367-6.671,6.579-4.682,10.434,1.377,3.335,6.059,4.315,8.9,2.264,3-2.295,3.4-6.977,1.469-10.1a5.759,5.759,0,0,0-5.692-2.6m-2.264-.337a7.417,7.417,0,0,1,8.445,1.805,8.76,8.76,0,0,1-.306,11.077,7.342,7.342,0,0,1-9.914.337c-3.978-3.458-3.244-11.108,1.775-13.219" transform="translate(-378.453 -251.515)"/>
      <path id="Path_2844" data-name="Path 2844" class="cls-2" d="M15.254,328.8H39.673c.031,7.864,0,15.728.031,23.623-8.17-.734-16.279-2.264-24.419-3.244-.061-6.824-.061-13.586-.031-20.379" transform="translate(-15.193 -298.486)"/>
      <path id="Path_2845" data-name="Path 2845" class="cls-2" d="M98.9,352.6c.061-7.956-.061-15.942.061-23.9,10.679.061,21.389-.031,32.068.031v28.335c-10.74-1.377-21.45-2.938-32.13-4.468" transform="translate(-72.411 -298.417)"/>
      <path id="Path_2846" data-name="Path 2846" class="cls-2" d="M256.973,347.826h7.681c-1.224-3.213-2.387-6.457-3.764-9.578-1.469,3.091-2.54,6.4-3.917,9.578m2.356-12.026c1.1,0,2.173.031,3.274.061,2.815,6.824,5.661,13.647,8.66,20.41-1.071,0-2.142-.031-3.213-.031-.8-2.05-1.591-4.07-2.387-6.12-3.213.031-6.4,0-9.608.031-.826,2.05-1.652,4.07-2.479,6.12H250.7c2.876-6.824,5.722-13.678,8.629-20.471" transform="translate(-178.607 -303.345)"/>
      <path id="Path_2847" data-name="Path 2847" class="cls-2" d="M431.065,355.893c1.5-1.867,3.427-3.458,5.967-3.4,0,.826,0,1.652.031,2.479-2.2.092-4.774.949-5.416,3.335-.734,3.121-.214,6.334-.367,9.517h-2.632c-.031-4.957-.031-9.945,0-14.9H431.1v2.968Z" transform="translate(-302.088 -314.93)"/>
      <path id="Path_2848" data-name="Path 2848" class="cls-2" d="M460.737,359.34c3.274.061,6.518.061,9.792,0-.52-2.448-2.57-4.8-5.324-4.345-2.479-.122-3.978,2.2-4.468,4.345m-.7-3.794c2.57-3.244,8.078-3.58,10.893-.459a9.717,9.717,0,0,1,2.081,6.365c-4.1.031-8.17-.031-12.27.031.306,1.224.4,2.632,1.408,3.519,2.387,2.387,7.1,1.836,8.323-1.5.612.031,1.836.031,2.417.061-1.438,5.171-8.629,6.365-12.332,3a8.459,8.459,0,0,1-.52-11.016" transform="translate(-322.64 -315.226)"/>
      <path id="Path_2849" data-name="Path 2849" class="cls-2" d="M319.828,353.931c4.284-.031,8.537-.061,12.821.031-.092,1.652-1.377,2.754-2.387,3.947-2.54,2.907-5.11,5.814-7.619,8.751,3.4.643,6.854-.367,10.251.367,0,.428.031,1.316.031,1.775H319.4v-1.867c3.152-3.611,6.457-7.069,9.455-10.8-2.907-.245-5.845-.031-8.751-.214-.092-.459-.214-1.469-.275-1.989" transform="translate(-226.285 -315.906)"/>
      <path id="Path_2850" data-name="Path 2850" class="cls-2" d="M371.289,353.9c.857,0,1.744,0,2.632.031.061,3.672-.184,7.375.092,11.046,1.377,3.947,8.078,2.111,8.078-1.836.092-3.06,0-6.151.031-9.211h2.54v14.9h-2.326c-.061-.49-.153-1.5-.214-2.02a7.257,7.257,0,0,1-8.415,1.683c-1.775-.8-2.356-2.876-2.356-4.651-.122-3.335-.031-6.64-.061-9.945" transform="translate(-262.294 -315.906)"/>
    </g>
  </g>
</svg>
