<svg xmlns="http://www.w3.org/2000/svg" viewBox="0 0 183.272 59.355">
  <defs>
    <style>
      .cls-1 {
        opacity: 0.7;
      }

      .cls-2 {
        fill: #93b1c9;
      }

      .cls-3 {
        fill: #819eb6;
      }
    </style>
  </defs>
  <g id="OpenID_logo" class="cls-1" transform="translate(7034.409 -849.409)">
    <g id="g2202" transform="translate(-7034.409 849.41)">
      <path id="path2204" class="cls-2" d="M-8179.893,9815.426c-5.43-3.381-13.012-5.481-21.312-5.481-16.7,0-30.227,8.351-30.227,18.648,0,9.427,11.271,17.162,25.872,18.494v-5.431c-9.836-1.229-17.214-6.608-17.214-13.063,0-7.325,9.632-13.32,21.568-13.32a29.347,29.347,0,0,1,15.215,3.894l-5.533,3.433h17.266v-10.656Z" transform="translate(8231.432 -9795.139)"/>
      <path id="path2206" class="cls-2" d="M-5335.867,8158.463v46.365l8.66-5.431v-46.519Z" transform="translate(5361.739 -8152.878)"/>
    </g>
    <g id="g2208" transform="translate(-6972.014 870.251)">
      <path id="path2210" class="cls-3" d="M-1175.1,13606.3a13.906,13.906,0,0,1,2.6-5,12.926,12.926,0,0,1,4.446-3.421,13.582,13.582,0,0,1,6.157-1.3,13.681,13.681,0,0,1,6.225,1.3,12.674,12.674,0,0,1,4.378,3.421,13.908,13.908,0,0,1,2.6,5,18.552,18.552,0,0,1,.889,5.881,19.3,19.3,0,0,1-.889,5.952,14.176,14.176,0,0,1-2.6,4.926,12.66,12.66,0,0,1-4.378,3.42,13.668,13.668,0,0,1-6.225,1.3,13.569,13.569,0,0,1-6.157-1.3,12.911,12.911,0,0,1-4.446-3.42,14.174,14.174,0,0,1-2.6-4.926,19.3,19.3,0,0,1-.889-5.952,18.552,18.552,0,0,1,.889-5.881m2.6,10.737a12.2,12.2,0,0,0,2.052,4.243,10.7,10.7,0,0,0,3.489,3.01,10.641,10.641,0,0,0,5.062,1.093,10.925,10.925,0,0,0,5.13-1.093,11.454,11.454,0,0,0,3.489-3.01,13.378,13.378,0,0,0,1.984-4.243,19.343,19.343,0,0,0,.684-4.856,18.826,18.826,0,0,0-.684-4.788,12.739,12.739,0,0,0-1.984-4.24,10.572,10.572,0,0,0-3.489-3.009,10.89,10.89,0,0,0-5.13-1.1,10.607,10.607,0,0,0-5.062,1.1,9.933,9.933,0,0,0-3.489,3.009,11.659,11.659,0,0,0-2.052,4.24,18.768,18.768,0,0,0-.616,4.788A19.286,19.286,0,0,0-1172.5,13617.04Z" transform="translate(1175.987 -13596.588)"/>
      <path id="path2212" class="cls-3" d="M2179.877,14531.257v4.1h.069a7.14,7.14,0,0,1,3.01-3.488,8.984,8.984,0,0,1,4.72-1.232,9.525,9.525,0,0,1,4.31.889,8.519,8.519,0,0,1,3.079,2.53,12.008,12.008,0,0,1,1.778,3.626,15.4,15.4,0,0,1,.616,4.378,15.053,15.053,0,0,1-.616,4.379,11.974,11.974,0,0,1-1.778,3.626,8.509,8.509,0,0,1-3.079,2.53,10.511,10.511,0,0,1-4.31.89,14.18,14.18,0,0,1-2.395-.274,9.791,9.791,0,0,1-2.121-.889,7.748,7.748,0,0,1-1.847-1.5,5.958,5.958,0,0,1-1.163-2.052h-.068v12.04h-2.668v-29.552h2.463m14.5,7.524a9.94,9.94,0,0,0-1.231-3.011,8.355,8.355,0,0,0-2.257-2.121,5.9,5.9,0,0,0-3.215-.752,7.3,7.3,0,0,0-3.626.752,6.241,6.241,0,0,0-2.394,1.984,9.527,9.527,0,0,0-1.231,2.94,18.89,18.89,0,0,0-.342,3.489,13.621,13.621,0,0,0,.41,3.352,8.222,8.222,0,0,0,1.3,2.943,6.933,6.933,0,0,0,2.326,2.12,7.191,7.191,0,0,0,3.557.821,5.9,5.9,0,0,0,3.215-.821,7.414,7.414,0,0,0,2.257-2.12,9.524,9.524,0,0,0,1.231-2.943,13.608,13.608,0,0,0,0-6.634Z" transform="translate(-2147.451 -14522.295)"/>
      <path id="path2214" class="cls-3" d="M4584.461,14545.758a7.781,7.781,0,0,0,1.3,2.737,6.518,6.518,0,0,0,5.4,2.8,6.33,6.33,0,0,0,4.515-1.5,7.823,7.823,0,0,0,2.257-4.037h2.668a10.183,10.183,0,0,1-3.079,5.679,9.123,9.123,0,0,1-6.362,2.052,10.6,10.6,0,0,1-4.378-.89,7.974,7.974,0,0,1-3.078-2.53,10.458,10.458,0,0,1-1.71-3.626,15.062,15.062,0,0,1-.547-4.379,14.262,14.262,0,0,1,.547-4.172,11.422,11.422,0,0,1,1.71-3.694,8.814,8.814,0,0,1,3.078-2.6,9.621,9.621,0,0,1,4.378-.956,9.084,9.084,0,0,1,4.447,1.025,8.936,8.936,0,0,1,3.009,2.737,12.4,12.4,0,0,1,1.642,3.9,16.073,16.073,0,0,1,.41,4.446h-16.623a11.81,11.81,0,0,0,.41,3.011m13.066-8.072a8.526,8.526,0,0,0-1.368-2.463,7.331,7.331,0,0,0-2.121-1.71,6.559,6.559,0,0,0-2.873-.615,6.354,6.354,0,0,0-2.874.615,6.535,6.535,0,0,0-2.121,1.71,7.313,7.313,0,0,0-1.437,2.463,12.61,12.61,0,0,0-.683,2.874h13.955A9.713,9.713,0,0,0,4597.527,14537.686Z" transform="translate(-4530.008 -14522.295)"/>
      <path id="path2216" class="cls-3" d="M6888.556,14531.257v3.693h.069a6.718,6.718,0,0,1,2.735-3.146,8.045,8.045,0,0,1,4.242-1.163,11.8,11.8,0,0,1,3.762.547,5.891,5.891,0,0,1,2.463,1.71,6.2,6.2,0,0,1,1.3,2.6,13.735,13.735,0,0,1,.342,3.489v13.888h-2.6V14539.4a10.447,10.447,0,0,0-.273-2.6,5.521,5.521,0,0,0-.889-2.053,3.825,3.825,0,0,0-1.71-1.368,5.889,5.889,0,0,0-2.6-.479,6.353,6.353,0,0,0-2.874.547,5.729,5.729,0,0,0-2.052,1.506,6.847,6.847,0,0,0-1.368,2.394,9.8,9.8,0,0,0-.547,2.942v12.587h-2.6v-21.616Z" transform="translate(-6813.922 -14522.295)"/>
      <path id="path2218" class="cls-3" d="M9101.4,13673.149v29.894h-2.806v-29.894Z" transform="translate(-9006.785 -13672.466)"/>
      <path id="path2220" class="cls-3" d="M9667.818,13673.149c4.584.067,8,1.368,10.33,3.831,2.257,2.463,3.421,6.157,3.421,11.082,0,4.994-1.164,8.688-3.421,11.15-2.325,2.462-5.746,3.693-10.33,3.83h-10.329v-29.894h10.329m-1.368,27.433a19.235,19.235,0,0,0,5.542-.685,9.258,9.258,0,0,0,3.831-2.189,9.838,9.838,0,0,0,2.188-3.9,24.2,24.2,0,0,0,0-11.424,8.968,8.968,0,0,0-2.188-3.9,8.568,8.568,0,0,0-3.831-2.189,19.1,19.1,0,0,0-5.542-.751h-6.087v25.038Z" transform="translate(-9560.692 -13672.466)"/>
    </g>
  </g>
</svg>
