<svg xmlns="http://www.w3.org/2000/svg" viewBox="0 0 125.948 84.388">
  <defs>
    <style>
      .cls-1, .cls-2 {
        fill: #a3b8ca;
      }

      .cls-2 {
        stroke: #a3b8ca;
        stroke-linecap: round;
        stroke-linejoin: round;
        stroke-miterlimit: 10;
      }
    </style>
  </defs>
  <g id="pharos_production" transform="translate(-115 -55.2)">
    <g id="Group_3347" data-name="Group 3347" transform="translate(133.702 86.153)">
      <g id="Group_3346" data-name="Group 3346" transform="translate(0 0)">
        <path id="Path_6088" data-name="Path 6088" class="cls-1" d="M222.171,234.157l-1.984-.331L220.1,232.8h7.048c3.533,0,6.543,1.2,6.543,5.186s-3.01,5.238-6.543,5.238h-2.471l.035,6.369,3.045.348.191,1.027h-7.57l.1-1.027,1.705-.348C222.206,248.931,222.171,235.027,222.171,234.157Zm2.523.07v7.622h1.984c3.411,0,4.35-1.6,4.35-3.846s-1.444-3.794-4.35-3.794C226.295,234.192,225.181,234.227,224.694,234.227Z" transform="translate(-220.1 -232.435)"/>
        <path id="Path_6089" data-name="Path 6089" class="cls-1" d="M322.117,242.723h-9.084v7.082l1.688.348.191,1.027H308.7l.1-1.027,1.705-.348V234.475l-1.705-.348-.1-1.027h6.212l-.191,1.027-1.688.348v6.874h9.084v-6.874l-1.705-.348-.1-1.027H326.5l-.191,1.027-1.688.348v15.331l1.688.348.191,1.027h-6.212l.1-1.027,1.705-.348v-7.082Z" transform="translate(-293.282 -232.682)"/>
        <path id="Path_6090" data-name="Path 6090" class="cls-1" d="M418.186,249.219l.139.957H413l.1-.957,1.5-.383,5.864-16.636,2.523-.4,6.491,16.984,1.845.331.087,1.027h-6.752l.209-1.027,1.879-.331c-.139-.435-1.027-2.854-2.088-5.621h-6.4c-1.061,3.063-1.932,5.673-1.932,5.673Zm.522-7.448h5.429l-2.854-7.517Z" transform="translate(-379.432 -231.609)"/>
        <path id="Path_6091" data-name="Path 6091" class="cls-1" d="M527.471,234.157l-1.984-.331L525.4,232.8h7.065c3.532,0,6.543,1.2,6.543,5.186,0,3.063-1.758,4.507-4.176,5.012,1.2,1.566,3.585,4.768,4.942,6.63l1.6.278.191,1.114-3.237-.035h-.644s-4.368-5.951-5.76-7.761h-1.932l.035,6.369,3.045.348.191,1.027h-7.587l.1-1.027,1.705-.348C527.506,248.931,527.471,235.027,527.471,234.157Zm2.523.07v7.622h1.984c3.411,0,4.35-1.6,4.35-3.846s-1.444-3.794-4.35-3.794C531.6,234.192,530.481,234.227,529.994,234.227Z" transform="translate(-472.273 -232.435)"/>
        <path id="Path_6092" data-name="Path 6092" class="cls-1" d="M639.788,230.7c5.725,0,8.475,4.211,8.475,9.466,0,4.907-2.871,9.414-8.475,9.414-5.325,0-8.388-4.211-8.388-9.414C631.4,234.894,634.671,230.7,639.788,230.7Zm-.174,1.462c-3.794,0-5.481,4.072-5.481,7.413,0,3.2,1.27,8.579,5.882,8.579,4.211,0,5.481-4.263,5.481-7.483S644.469,232.162,639.614,232.162Z" transform="translate(-559.827 -230.7)"/>
        <path id="Path_6093" data-name="Path 6093" class="cls-1" d="M753.52,236.429h-1.357l-.713-2.993a7.249,7.249,0,0,0-3.289-.592c-1.9,0-3.254.592-3.254,2.436,0,3.063,9.467,4.316,9.467,9.171,0,3.881-3.15,5.777-6.63,5.777a28.122,28.122,0,0,1-5.342-.783l.035-.035.209-4.507H744l.731,3.254a7.534,7.534,0,0,0,3.15.574c2,0,3.933-.731,3.933-3.411,0-3.881-9.258-4.751-9.258-9.014,0-3.533,2.575-4.907,5.586-4.907a31.35,31.35,0,0,1,5.568.626Z" transform="translate(-651.512 -231.278)"/>
      </g>
    </g>
    <g id="Group_3349" data-name="Group 3349" transform="translate(133.615 110.202)">
      <g id="Group_3348" data-name="Group 3348" transform="translate(0 0)">
        <path id="Path_6094" data-name="Path 6094" class="cls-1" d="M220.853,371.318l-1.2-.191-.052-.626h4.281c2.14,0,3.968.731,3.968,3.15s-1.827,3.184-3.968,3.184h-1.5l.017,3.863,1.845.209.122.626h-4.594l.07-.626,1.044-.209C220.87,380.262,220.853,371.84,220.853,371.318Zm1.531.035v4.629h1.2c2.071,0,2.628-.975,2.628-2.332s-.87-2.3-2.628-2.3C223.359,371.335,222.68,371.353,222.384,371.353Z" transform="translate(-219.6 -370.222)"/>
        <path id="Path_6095" data-name="Path 6095" class="cls-1" d="M274.453,371.318l-1.2-.191-.052-.626h4.281c2.14,0,3.968.731,3.968,3.15a2.859,2.859,0,0,1-2.541,3.045c.731.957,2.175,2.889,2.993,4.02l.974.157.122.679-1.966-.017h-.383s-2.645-3.6-3.48-4.7H276l.017,3.863,1.845.209.122.626h-4.594l.07-.626,1.044-.209C274.47,380.262,274.453,371.84,274.453,371.318Zm1.531.035v4.629h1.2c2.071,0,2.628-.975,2.628-2.332s-.87-2.3-2.628-2.3C276.959,371.335,276.28,371.353,275.984,371.353Z" transform="translate(-263.873 -370.222)"/>
        <path id="Path_6096" data-name="Path 6096" class="cls-1" d="M342.581,369.1c3.48,0,5.133,2.558,5.133,5.743,0,2.976-1.74,5.708-5.133,5.708-3.219,0-5.081-2.558-5.081-5.708C337.482,371.658,339.483,369.1,342.581,369.1Zm-.1.887c-2.3,0-3.324,2.471-3.324,4.49,0,1.949.766,5.2,3.567,5.2,2.558,0,3.324-2.575,3.324-4.542C346.044,373.189,345.417,369.988,342.476,369.988Z" transform="translate(-316.983 -369.065)"/>
        <path id="Path_6097" data-name="Path 6097" class="cls-1" d="M405.153,371.335l-1.2-.209-.052-.626h4.281c3.376,0,5.238,2.384,5.238,5.516s-1.862,5.516-5.238,5.516h-4.107l.07-.626,1.044-.209C405.17,380.262,405.153,371.892,405.153,371.335Zm1.531,0,.017,9.345h1.183c2.053-.017,3.881-1.166,3.881-4.611,0-3.219-1.862-4.733-3.881-4.733Z" transform="translate(-371.829 -370.222)"/>
        <path id="Path_6098" data-name="Path 6098" class="cls-1" d="M468.236,376.817l.017-5.464-1.2-.209-.052-.626h4.089l-.139.626-1.183.209-.017,5.551c0,2.332.974,3.9,3.028,3.9,2.175,0,3.2-1.288,3.2-3.95,0-1.966-.017-3.393-.017-5.534l-1.236-.244-.087-.574h3.219l-.07.574-.853.209c.017,1.218.017,5.447.017,5.5,0,3.045-.957,4.959-4.472,4.959C469.245,381.724,468.236,379.514,468.236,376.817Z" transform="translate(-423.949 -370.222)"/>
        <path id="Path_6099" data-name="Path 6099" class="cls-1" d="M543.116,379.55a5.989,5.989,0,0,0,3.341-1.044l.261.766a5.948,5.948,0,0,1-3.585,1.183c-3.185,0-5.134-2.245-5.134-5.777,0-3.359,2.14-5.777,5.168-5.777a16.576,16.576,0,0,1,3.393.5l-.017.017h.017l-.122,2.523h-.714l-.418-1.775a4.948,4.948,0,0,0-1.966-.418c-2.349,0-3.724,1.688-3.724,4.925C539.653,377.322,541.063,379.55,543.116,379.55Z" transform="translate(-482.593 -368.9)"/>
        <path id="Path_6100" data-name="Path 6100" class="cls-1" d="M593.1,370.4h9.171l-.017.017h.017l-.122,2.488-.713-.139-.348-1.531h-2.645v9.31l1.183.209.122.626h-4.089l.07-.626,1.2-.209v-9.31h-2.645l-.348,1.531-.714.139L593.1,370.4Z" transform="translate(-528.105 -370.139)"/>
        <path id="Path_6101" data-name="Path 6101" class="cls-1" d="M654.584,380.728l1.183.209.122.626H651.8l.07-.626,1.2-.209v-9.292l-1.2-.209-.07-.626h4.089l-.122.626-1.183.209Z" transform="translate(-576.59 -370.304)"/>
        <path id="Path_6102" data-name="Path 6102" class="cls-1" d="M688.081,369.1c3.48,0,5.133,2.558,5.133,5.743,0,2.976-1.74,5.708-5.133,5.708-3.219,0-5.081-2.558-5.081-5.708C683,371.658,684.984,369.1,688.081,369.1Zm-.1.887c-2.3,0-3.324,2.471-3.324,4.49,0,1.949.766,5.2,3.567,5.2,2.558,0,3.324-2.575,3.324-4.542C691.562,373.189,690.935,369.988,687.977,369.988Z" transform="translate(-602.361 -369.065)"/>
        <path id="Path_6103" data-name="Path 6103" class="cls-1" d="M750.666,371.435l-1.1-.209-.07-.626h3.115c.453,1.114,3.724,6.526,5.377,9.258,0-2.088-.017-7.97-.017-8.37l-1.062-.209-.07-.626h3.324l-.122.626-1.079.209-.017,9.919h-.017a.214.214,0,0,0,.035.052c.017,0-1.671.3-1.618.261,0,0-4.542-7.6-5.725-9.623l.017,8.649,1.079.209.122.626H749.5l.07-.626,1.114-.209C750.683,380.24,750.666,371.957,750.666,371.435Z" transform="translate(-657.289 -370.304)"/>
      </g>
    </g>
    <path id="Path_6104" data-name="Path 6104" class="cls-2" d="M173.3,134.189s-.87-2.436-2.123-3.184c-.9-.539-2.906,1.131-3.846,2.314-1.827,2.314-1.827,3.846-1.827,3.846l1.671-.975a3.99,3.99,0,0,1,2.053-2.332C170.72,132.954,173.3,134.189,173.3,134.189Z" transform="translate(-41.299 -62.115)"/>
    <path id="Path_6105" data-name="Path 6105" class="cls-2" d="M168.326,163.172l.331-.365s-1.723-2.488-6.073-2.21c-1.41.087-5.638,1.288-6.16,3.237a2.076,2.076,0,0,0,1.479,2.836l.331-1.514s-1.462-.331.174-1.932a8.573,8.573,0,0,1,5.917-1.862A5.32,5.32,0,0,1,168.326,163.172Z" transform="translate(-33.701 -86.625)"/>
    <path id="Path_6106" data-name="Path 6106" class="cls-2" d="M166.8,173.009a4.97,4.97,0,0,1,1.723-.853l1.566-.157s-2.193,1.288-2.715,2.384a5.4,5.4,0,0,0-.209,2.923l-1.514.644S164.872,174.836,166.8,173.009Z" transform="translate(-41.297 -96.062)"/>
    <path id="Path_6107" data-name="Path 6107" class="cls-2" d="M193.047,179.175c.087-1.218.07-1.584.07-1.584l.679-.191-.331,2.993-.574.052C192.873,180.445,192.978,180.115,193.047,179.175Z" transform="translate(-63.922 -100.522)"/>
    <path id="Path_6108" data-name="Path 6108" class="cls-2" d="M213.4,178l.922.278.209,2.471-.644.052a10.491,10.491,0,0,0-.122-1.323A6.384,6.384,0,0,0,213.4,178Z" transform="translate(-80.864 -101.018)"/>
    <path id="Path_6109" data-name="Path 6109" class="cls-2" d="M165.422,198.514s-2-1.862-5.934-1.427c-3.62.4-7.465,1.827-7.987,4.559-.418,2.158,2.419,3.846,2.419,3.846l1.392-1.966s-2.68-2.436.713-4.507c3.585-2.193,7.883-.331,7.883-.331Z" transform="translate(-29.701 -116.729)"/>
    <path id="Path_6110" data-name="Path 6110" class="cls-2" d="M129.247,241.935c-.278.783-5.743,11.381-8.44,18.794-2.158,5.917-5.307,17.593-5.307,17.593a111.411,111.411,0,0,1,2.523-15.731,99.843,99.843,0,0,1,11.4-28.191Z" transform="translate(0 -147.603)"/>
    <path id="Path_6111" data-name="Path 6111" class="cls-2" d="M135.451,370.2v11.05s-3.62,3.95-6.526,7.865c-1.688,2.28-6.125,9.745-6.125,9.745a111.75,111.75,0,0,1,4.977-13.991C130.787,378.187,135.451,370.2,135.451,370.2Z" transform="translate(-6.03 -259.772)"/>
    <path id="Path_6112" data-name="Path 6112" class="cls-2" d="M186.9,67.55l1.5-2.593V55.7Z" transform="translate(-58.975 0)"/>
    <path id="Path_6113" data-name="Path 6113" class="cls-2" d="M243.6,105.2l61.845-15.5-3.254,5.447Z" transform="translate(-105.809 -28.083)"/>
    <path id="Path_6114" data-name="Path 6114" class="cls-2" d="M236.3,189.07l100.007-1.27-1.462,1.323Z" transform="translate(-99.779 -109.113)"/>
    <g id="Group_3352" data-name="Group 3352" transform="translate(237.468 84.221)">
      <g id="Group_3351" data-name="Group 3351" transform="translate(0.974 0.783)">
        <g id="Group_3350" data-name="Group 3350">
          <path id="Path_6115" data-name="Path 6115" class="cls-1" d="M822.209,224.239,822,224.2v-.1h.748c.365,0,.7.122.7.539a.489.489,0,0,1-.435.522c.122.174.383.5.522.7l.174.035.017.122h-.418s-.452-.626-.609-.818h-.209v.679l.313.035.017.1h-.8l.017-.1.174-.035C822.226,225.805,822.209,224.344,822.209,224.239Zm.278.017v.8h.209c.365,0,.452-.174.452-.4,0-.244-.157-.4-.452-.4Z" transform="translate(-822 -224.1)"/>
        </g>
      </g>
      <path id="Path_6116" data-name="Path 6116" class="cls-1" d="M818.14,223.08a1.74,1.74,0,1,1,1.74-1.74A1.745,1.745,0,0,1,818.14,223.08Zm1.514-1.74a1.514,1.514,0,1,0-1.514,1.514A1.515,1.515,0,0,0,819.654,221.34Z" transform="translate(-816.4 -219.6)"/>
    </g>
  </g>
</svg>
