<svg xmlns="http://www.w3.org/2000/svg" viewBox="0 0 77.052 82.539">
  <defs>
    <style>
      .cls-1 {
        fill: #b0c6d7;
      }
    </style>
  </defs>
  <g id="quorum_logo" transform="translate(-284.505 -109.7)">
    <path id="Path_4952" data-name="Path 4952" class="cls-1" d="M350.107,118.234c0-1.459.272-1.9-1.113-1.88-7.025.025-14.025.025-21.05,0-1.435,0-1.9.569-1.9,1.929q.074,7.272,0,14.545c0,1.41.569,1.9,1.954,1.9,4.65-.049,9.326-.049,13.976,0,2.6.025,3.908,1.41,3.71,3.785a3.066,3.066,0,0,1-3.191,3.141q-9.833.037-19.715-.074c-2.226-.025-3.488-1.435-3.562-3.908-.1-2.869-.049-5.739-.049-8.608,0-4.972-.025-9.944,0-14.916.025-3.24,1.138-4.354,4.378-4.378l30.4-.074c2.672,0,3.908,1.138,3.884,3.834-.124,13.506-.223,27.036-.445,40.542-.025,2.152-.049,4.329-.1,6.481-.025.891.322,1.262,1.212,1.262q10.426-.037,20.852-.025c.965,0,1.385-.47,1.385-1.41V144.875c0-1.435-1.014-1.385-2-1.385H364.949c-1.88,0-3.216-.717-3.71-2.622a3.223,3.223,0,0,1,3.067-4.279q10.055-.111,20.086,0c2.1.025,3.24,1.558,3.24,4.156,0,4.452-.1,8.9-.1,13.382-.025,3.513.025,7,.025,10.513,0,2.82-1.237,4.106-4.081,4.131q-14.545.037-29.09,0c-2.8,0-4.205-1.484-4.205-4.279V145.765" transform="translate(-26.075)"/>
    <path id="Path_4953" data-name="Path 4953" class="cls-1" d="M514.788,386.929v-4.972c0-.519.2-1.36.742-.965.2.148.272.346.47.495.717.594,1.806-.668,2.647-.792a3.908,3.908,0,0,1,3.438.742c.594.519.989.173,1.509-.1,3.142-1.583,5.541-.2,5.615,3.265.049,2.3.025,4.576.025,6.877,0,.792-.049,1.608-1.138,1.633-1.187.025-1.039-.866-1.039-1.608,0-2.226.025-4.452.025-6.679,0-1.187-.223-2.276-1.732-2.2-1.361.049-2.3.618-2.276,2.226.049,2.028.049,4.081,0,6.11-.025.891.322,2.325-1.163,2.152-1.262-.148-.94-1.41-.965-2.2-.074-1.9-.025-3.809.025-5.739.025-1.311-.173-2.523-1.855-2.523-1.558,0-2.276.816-2.2,2.424.074,2.1.025,4.205,0,6.308,0,.866.223,1.806-1.262,1.707-1.064-.074-.841-1.064-.866-1.756,0-1.459.025-2.944,0-4.4Z" transform="translate(-173.317 -203.887)"/>
    <path id="Path_4954" data-name="Path 4954" class="cls-1" d="M296.154,376.828c-.124,2.845-.1,5.368-2.944,6.9-1.064.569-.1,1.014.272,1.41.445.47,1.484,1.039.519,1.806a1.47,1.47,0,0,1-2.3-.47,4.777,4.777,0,0,0-3.315-2.251c-1.88-.421-2.845-2.053-3.364-3.834a12.99,12.99,0,0,1-.173-6.6c.767-3.29,2.82-5,5.838-4.9a5.827,5.827,0,0,1,5.417,5.467A16.522,16.522,0,0,1,296.154,376.828Zm-2.35-.346a14.657,14.657,0,0,0-.272-3.092,3.1,3.1,0,0,0-2.968-2.523,2.828,2.828,0,0,0-3.043,2.127,12.432,12.432,0,0,0,.173,8.039,2.653,2.653,0,0,0,2.894,1.707,2.865,2.865,0,0,0,2.746-2A12.015,12.015,0,0,0,293.8,376.482Z" transform="translate(0 -195.072)"/>
    <path id="Path_4955" data-name="Path 4955" class="cls-1" d="M395.97,387.7a8.178,8.178,0,0,1-.915,4.255,4.23,4.23,0,0,1-7.47-.025,7.879,7.879,0,0,1-.792-3.686,12.385,12.385,0,0,1,.668-4.4c.693-1.954,2.523-2.523,4.873-2.2,2.028.3,2.869,1.806,3.364,3.587A11.84,11.84,0,0,1,395.97,387.7Zm-7.124.4a12.586,12.586,0,0,0,.247,2.276,2.281,2.281,0,0,0,2.251,1.9c1.237,0,1.855-.792,2.177-1.954a10.112,10.112,0,0,0-.049-5.294,2.158,2.158,0,0,0-2-1.707,2.19,2.19,0,0,0-2.226,1.385C388.747,385.7,388.92,386.739,388.846,388.1Z" transform="translate(-76.985 -204.612)"/>
    <path id="Path_4956" data-name="Path 4956" class="cls-1" d="M350.522,388.129c0,1.583.025,3.191,0,4.774-.025.965-.544,1.633-1.435.866-.693-.594-.989-.47-1.534-.1-2.6,1.707-5.442.173-5.541-3.092-.049-2.3-.025-4.6,0-6.877,0-.742-.1-1.657,1.039-1.707,1.311-.049,1.113.99,1.113,1.756.025,2.028.025,4.081,0,6.11,0,1.336-.049,2.671,1.83,2.721,1.583.025,2.177-.742,2.2-2.82.025-1.855-.049-3.71.025-5.541.025-.866-.346-2.177,1.113-2.2,1.633-.025,1.138,1.36,1.212,2.276.049,1.286,0,2.548-.025,3.834Z" transform="translate(-43.262 -204.939)"/>
    <path id="Path_4957" data-name="Path 4957" class="cls-1" d="M434.625,387.7V382.93c0-.519.3-1.187.693-1.039a1.147,1.147,0,0,1,.519.594c.346.767,1.732-.717,2.548-.792a6.286,6.286,0,0,1,.965-.025c.668.049,1.558-.124,1.509.94-.025.89-.742,1.014-1.509,1.088-2.523.223-2.647.4-2.671,2.894,0,1.979,0,3.933-.025,5.912,0,.767-.173,1.435-1.138,1.385-.89-.049-.915-.742-.915-1.385.025-1.633.025-3.216.025-4.8Z" transform="translate(-112.968 -204.687)"/>
    <path id="Path_4958" data-name="Path 4958" class="cls-1" d="M476.422,387.329c0,1.583.025,3.191,0,4.774-.025.965-.544,1.633-1.435.866-.693-.594-.99-.47-1.534-.1-2.6,1.707-5.442.173-5.541-3.092-.049-2.3-.025-4.6,0-6.877,0-.742-.1-1.657,1.039-1.707,1.311-.049,1.113.99,1.113,1.756.025,2.028.025,4.081,0,6.11,0,1.336-.049,2.671,1.83,2.721,1.583.025,2.177-.742,2.2-2.82.025-1.855-.049-3.71.025-5.541.025-.866-.346-2.177,1.113-2.2,1.633-.025,1.138,1.36,1.212,2.276.05,1.286-.025,2.573-.025,3.834Z" transform="translate(-138.019 -204.337)"/>
  </g>
</svg>
