<svg xmlns="http://www.w3.org/2000/svg" viewBox="0 0 177.643 66.31">
  <defs>
    <style>
      .cls-1 {
        opacity: 0.7;
      }

      .cls-2, .cls-6 {
        fill: #819eb6;
      }

      .cls-3 {
        fill: #93b1c9;
      }

      .cls-4 {
        fill: #f2f6f8;
      }

      .cls-5 {
        fill: none;
      }

      .cls-6 {
        font-size: 44px;
        font-family: MyriadPro-Regular, Myriad Pro;
      }
    </style>
  </defs>
  <g id="ratel_logo" class="cls-1" transform="translate(-132.822 -174.138)">
    <path id="Path_2889" data-name="Path 2889" class="cls-2" d="M163.521,234.881a17.975,17.975,0,0,0-7.571-1.745,14.161,14.161,0,0,0-13.481,12.975c-.056.957-.338,1.154-1.21,1.126-2.2-.056-4.419-.056-6.614,0-.76.028-1.069-.225-1.182-.985A51.6,51.6,0,0,1,161.8,191.622c.366-.169.788-.281,1.182-.422.619.169.844.7,1.126,1.182a40.439,40.439,0,0,1,5.8,16.859,39.713,39.713,0,0,1-5.094,24.2C164.478,234.008,164.225,234.655,163.521,234.881Z" transform="translate(0 -12.26)"/>
    <path id="Path_2890" data-name="Path 2890" class="cls-3" d="M240.463,222.621a42.246,42.246,0,0,0,5.432-13.594,39.3,39.3,0,0,0-5.432-29.13c-.2-.31-.366-.647-.563-.957a47.206,47.206,0,0,1,16.1-4.475,40.727,40.727,0,0,1,9.794-.056c.31.619,0,1.182-.169,1.773a35.464,35.464,0,0,0,1.689,24.88c.422.957,1.295,1.745,1.238,2.927a33.657,33.657,0,0,0-8.781,16.042,32.152,32.152,0,0,0-.225,13.509c.225,1.126.113,1.52-1.182,1.464-3.237-.113-6.473-.028-9.682-.028-.535,0-1.126.169-1.154-.76C247.274,229.094,244.656,225.351,240.463,222.621Z" transform="translate(-76.941)"/>
    <path id="Path_2891" data-name="Path 2891" class="cls-2" d="M329.58,204.68a32.334,32.334,0,0,1-4.756-16.127,34.741,34.741,0,0,1,1.97-13.453,48.758,48.758,0,0,1,23.839,8.078,51,51,0,0,1,13.087,12.215c.253.338.478.675.7,1.041.056.056,0,.169.028.394a56.277,56.277,0,0,0-6.361-1.492,32.86,32.86,0,0,0-27.047,8.078C330.565,203.836,330.087,204.258,329.58,204.68Z" transform="translate(-137.942 -0.691)"/>
    <path id="Path_2892" data-name="Path 2892" class="cls-4" d="M410.7,215.258a1.578,1.578,0,1,1,3.152-.141,1.451,1.451,0,0,1-1.52,1.632A1.468,1.468,0,0,1,410.7,215.258Z" transform="translate(-199.67 -28.353)"/>
    <rect id="Rectangle_106" data-name="Rectangle 106" class="cls-5" width="108.723" height="36.757" transform="translate(201.742 198.247)"/>
    <text id="ratel" class="cls-6" transform="translate(201.742 229.448)"><tspan x="0" y="0">ratel</tspan></text>
  </g>
</svg>
