<?xml version="1.0" encoding="utf-8"?>
<!-- Generator: Adobe Illustrator 22.1.0, SVG Export Plug-In . SVG Version: 6.00 Build 0)  -->
<svg version="1.1" id="Layer_1" xmlns="http://www.w3.org/2000/svg" xmlns:xlink="http://www.w3.org/1999/xlink" x="0px" y="0px"
	 viewBox="0 0 381.3 348.6" style="enable-background:new 0 0 381.3 348.6;" xml:space="preserve">
<style type="text/css">
	.st0{fill:none;}
	.st1{fill:url(#Path_2925_1_);}
	.st2{fill:#FF5A75;}
	.st3{fill:#FBA284;}
	.st4{opacity:0.65;clip-path:url(#SVGID_2_);}
	.st5{opacity:0.26;enable-background:new    ;}
	.st6{opacity:0.311;enable-background:new    ;}
	.st7{fill:#073C5B;}
	.st8{fill:#91C1FF;}
	.st9{fill:#5D7A9A;}
	.st10{fill:#8199B4;}
	.st11{fill:#596A93;}
	.st12{fill:#072528;}
	.st13{fill:#465B73;}
	.st14{fill:#9DB0C3;}
	.st15{fill:#676868;}
	.st16{fill:#708BAA;}
	.st17{fill:#E2E8EF;}
	.st18{fill:url(#Path_4767_1_);}
	.st19{fill:#C9D3DC;}
	.st20{fill:#A7BED9;}
	.st21{display:none;fill:url(#prespective_QR_code-2_1_);}
	.st22{fill:url(#Path_4770_1_);}
	.st23{fill:url(#Path_4771_1_);}
	.st24{fill:url(#XMLID_2_);}
	.st25{fill:#79777A;}
	.st26{fill:#2A262A;}
	.st27{fill:#3F3D3F;}
	.st28{fill:#4E4C4E;}
	.st29{fill:none;stroke:#0E5FAA;}
</style>
<pattern  x="-66.7" y="379.3" width="575" height="949" patternUnits="userSpaceOnUse" id="pattern" viewBox="0 -949 575 949" style="overflow:visible;">
	<g>
		<rect y="-949" class="st0" width="575" height="949"/>
		
			<image style="overflow:visible;enable-background:new    ;" width="575" height="949" xlink:href="B33A058E406DEB14.png"  transform="matrix(1 0 0 -1 0 0)">
		</image>
	</g>
</pattern>
<g id="anonymous_connection" transform="translate(-718.72 -4968.038)">
	<g id="Group_1718" transform="translate(718.72 5038.604)">
		
			<linearGradient id="Path_2925_1_" gradientUnits="userSpaceOnUse" x1="-296.5927" y1="619.0051" x2="-296.5927" y2="618.0051" gradientTransform="matrix(374.2139 0 0 -216.2441 111179.2422 133902.0781)">
			<stop  offset="0" style="stop-color:#FFBF88"/>
			<stop  offset="0.719" style="stop-color:#F7797F"/>
			<stop  offset="1" style="stop-color:#FF649D"/>
		</linearGradient>
		<path id="Path_2925" class="st1" d="M3,152.8l187-107l187.3,107L190,262.1L3,152.8z"/>
		<path id="Path_2926" class="st2" d="M3,165.7v-13.5l186.8,109.5v13.2L3,165.7z"/>
		<path id="Path_2927" class="st3" d="M377.3,164.5v-11.6L189.4,261.5v13.3L377.3,164.5z"/>
		<g>
			<defs>
				<path id="SVGID_1_" d="M469.5,147.6l-3.8-8l0,0l-12.6-2l-3.4-7.2l0,0l-12.6-1.9l-3.4-7.2l-12.6-2l-3.4-7.2l0,0l-12.6-2l-3.4-7.2
					l0,0l-12.6-2l-3.4-7.2l-12.6-1.9l-3.4-7.3l0,0l-12.6-2l-3.4-7.2l-12.6-2l-3.4-7.2l-12.6-1.9l-3.4-7.2l0,0l-12.6-2l-3.4-7.2
					l-12.6-2l-3.4-7.2l-12.6-2l-3.4-7.2l-12.6-2l-3.4-7.2l-12.6-2l-3.4-7.2l-12.6-2L226,2.2L212.1,0L203,5.2l-12.6-1.9l-10.1,5.9
					l3.4,7.2l-8.2,4.8l-12.6-2L152.8,25l3.4,7.2l-8.2,4.8l-12.6-2l-10.1,5.9l3.4,7.2l-8.2,4.8l-12.6-2l-10.1,5.9l3.4,7.2l-8.2,4.8
					l-12.6-2l-10.1,5.9l3.4,7.2l-8.2,4.8l-12.6-2l-10.1,5.9l3.4,7.2l-8.2,4.8l-12.6-2l-10.1,5.9l3.4,7.2l-8.2,4.8l-12.6-2l-10.1,5.9
					l3.4,7.2l-8.2,4.8l-12.6-2l-10.1,5.9l3.4,7.2L-44,148l-12.6-2l-10.1,5.8l3.8,8l12.6,2l3.4,7.2l0,0l12.6,2l3.4,7.2l12.6,1.9
					l3.4,7.2l12.6,2l3.4,7.3l0,0l12.6,2l3.4,7.2l0,0l12.6,2l3.4,7.2l12.6,2l3.4,7.3l12.6,2l3.4,7.2l12.6,2l3.4,7.2l12.6,2l3.4,7.2
					l12.6,2l3.4,7.2l12.6,2l3.4,7.2l12.6,2l3.4,7.2l12.6,2l3.4,7.2l12.6,2l3.4,7.2l12.6,2l3.4,7.2l13.9,2.2l6.7-3.9l3.4-2l-3.4-7.2
					l8.2-4.8l12.6,2l7.2-4.3l2.9-1.7l-3.4-7.2l8.2-4.8l12.8,2.6l10.1-5.9l-3.4-7.2l8.2-4.8l12.6,2l10.1-5.9l-3.4-7.2l8.2-4.8l12.6,2
					l7.2-4.1l2.9-1.7l-3.4-7.2l8.2-4.8l12.6,2l0.5-0.2l9.6-5.6l-3.4-7.2l8.2-4.8l12.6,2l3.8-2.2l6.3-3.7l-3.4-7.2l8.2-4.8l12.6,2
					l10.1-5.9l-3.4-7.2l8.2-4.8l12.6,2l5.9-3.4l4.3-2.4l-3.4-7.2l8.2-4.8l12.6,2l10.1-5.9l-3.4-7.2L469.5,147.6z M463.7,140.6l3,6.5
					l-8.2,4.8l-11.2-1.7l-3-6.5l8.2-4.8L463.7,140.6z M385.1,185.4l-2.9,1.7l-11.2-1.7l-3-6.5l8.2-4.8l5.6,0.9l5.6,0.9l1.5,3.3
					l1.5,3.3L385.1,185.4z M354.7,203.1l-5.6-0.9l-5.6-0.9l-1.5-3.3l-1.5-3.3l8.2-4.8l11.2,1.7l3,6.5l-2.7,1.6L354.7,203.1z
					 M43.3,109.2l5.6,0.9l5.6,0.9l1.5,3.3l1.5,3.3l-2.9,1.7l-5.2,3l-11.2-1.7l-3-6.5L43.3,109.2z M98.2,77.2l5.6,0.9l5.6,0.9
					l1.5,3.3l1.5,3.3l-8.2,4.8l-11.2-1.7l-3-6.5L98.2,77.2z M117.5,66.1l8.2-4.8l11.2,1.7l3,6.5l-4.8,2.8l-3.4,2l-5.6-0.9l-5.6-0.9
					l-1.5-3.3L117.5,66.1z M139,62.7l8.2-4.8l11.2,1.7l3,6.5l-8.2,4.8l-5.6-0.9l-5.6-0.9l-1.5-3.3L139,62.7z M152.9,45.4l5.6,0.9
					l5.6,0.9l1.5,3.3l1.5,3.3l-5.1,3l-2.9,1.7l-11.2-1.7l-3-6.5L152.9,45.4z M180.4,29.4l5.6,0.9l5.6,0.9l1.5,3.3l1.5,3.3l-8.2,4.8
					l-11.2-1.7l-3-6.5L180.4,29.4z M207.8,13.5l5.6,0.9l5.6,0.9l1.5,3.3l1.5,3.3l-5.5,3.2l-2.7,1.6l-11.2-1.7l-3-6.5L207.8,13.5z
					 M234.9,24.5l1.5,3.3l1.5,3.3l-1.7,1l-6.5,3.8l-11.2-1.7l-3-6.5l8.2-4.8l5.6,0.9L234.9,24.5z M250.9,33.7l0.4,0.9l2.6,5.6
					l-2.4,1.3l-5.7,3.3l-11.2-1.7l-3-6.5l8.2-4.8l5.6,0.9L250.9,33.7z M266.7,42.8l1.5,3.3l1.5,3.3l-8.2,4.8l-11.2-1.7l-3-6.5
					l8.2-4.8l5.6,0.9L266.7,42.8z M282.7,52.1l1.5,3.3l1.5,3.3l-1.8,1l-6.3,3.7l-11.2-1.7l-3-6.5l8.2-4.8l5.6,0.9L282.7,52.1z
					 M298.7,61.2l0.2,0.5l2.8,6l-2,1.1l-6.2,3.5l-11.2-1.7l-3-6.5l8.2-4.8l1.6,0.2L298.7,61.2z M314.6,70.5l1.5,3.3l1.5,3.3l-1.8,1
					l-6.3,3.7l-11-1.8l-3-6.5l8.2-4.8l5.6,0.9L314.6,70.5z M330.5,79.6l1.5,3.2l1.5,3.3l-8.2,4.8l-11.2-1.7l-3-6.5l8.2-4.8l1.6,0.2
					L330.5,79.6z M346.4,88.8l1.5,3.2l1.5,3.3l-2.4,1.3l-5.7,3.3l-11.2-1.7l-3-6.5L335,87l5.6,0.9L346.4,88.8z M362.4,98.1l1.5,3.2
					l1.5,3.3l-5.5,3.2l-2.7,1.6l-11.2-1.7l-3-6.5l8.2-4.8l5.6,0.9L362.4,98.1z M378.3,107.2l1.5,3.3l1.5,3.3l-8.2,4.8l-11.2-1.7
					l-3-6.5l8.2-4.8l5.6,0.9L378.3,107.2z M394.2,116.5l1.5,3.3l1.5,3.3l-1.7,1l-6.5,3.8l-11.2-1.7l-3-6.5l8.2-4.8l5.6,0.9
					L394.2,116.5z M410.2,125.6l1.5,3.3l1.5,3.3l-8,4.6l-0.1,0.1l-11.2-1.7l-3-6.5l8.2-4.8l5.6,0.9L410.2,125.6z M426.2,134.8
					l1.5,3.3l1.5,3.3l-6.8,3.9l-1.3,0.7l-11.2-1.7l-3-6.5l8.2-4.8l5.6,0.9L426.2,134.8z M398.7,158.9l-5.1,3l-11.2-1.7l-3-6.5
					l8.2-4.8l5.6,0.9l5.6,0.9l0,0l1.5,3.3l1.5,3.2L398.7,158.9z M180,276.9l-11.2-1.7l-3-6.5l8.2-4.8l5.6,0.9l5.6,0.9l1.5,3.3
					l1.5,3.3l-3.9,2.3L180,276.9z M148.2,258.4l-11.2-1.7l-3-6.5l8.2-4.8l5.6,0.9l5.6,0.9l1.5,3.3l1.5,3.3L149,258L148.2,258.4z
					 M132.2,249.3l-11.2-1.7l-3-6.5l8.2-4.8l9.6,1.5l1.6,0.2l1.5,3.3l1.5,3.3l-6.8,3.9L132.2,249.3z M116.2,240l-11.2-1.7l-3-6.5
					l8.2-4.8l5.6,0.9l5.6,0.9l1.5,3.2l1.5,3.3l-6.8,3.9L116.2,240z M68.4,212.5l-11.2-1.7l-3-6.5l8.2-4.8l10.2,1.6l1,0.1l1.5,3.3
					l1.5,3.3l-3.5,2.1L68.4,212.5z M52.6,203.2l-11.2-1.7l-3-6.5l8.2-4.8l5.6,0.9l5.6,0.9l2.6,5.6l0.4,0.9l-3.9,2.3L52.6,203.2z
					 M4.8,175.6l-11.2-1.7l-3-6.5l8.2-4.8l5.6,0.9l5.6,0.9l1.5,3.3l1.5,3.3l-6.2,3.7L4.8,175.6z M59.3,118.3l5.6,0.9l5.6,0.9
					l1.5,3.3l1.5,3.3l-8.2,4.8L54,129.7l-3-6.5L59.3,118.3z M72.8,119.7l8.2-4.8l11.2,1.7l3,6.5l-8.2,4.8l-5.6-0.9l-5.6-0.9
					l-1.5-3.3L72.8,119.7z M84.3,94.5l8.2-4.8l11.2,1.7l3,6.5l-8.2,4.8l-5.6-0.9l-5.6-0.9l-1.5-3.3L84.3,94.5z M114,86.5l5.6,0.9
					l5.6,0.9l0,0l1.5,3.3l1.5,3.3l-8.2,4.8l-11.2-1.7l-3-6.5L114,86.5z M127.6,87.8l8.2-4.8l5.6,0.9l5.6,0.9l0,0l1.5,3.3l1.5,3.3
					l-4.4,2.6l-3.8,2.2l-5.6-0.9l-5.6-0.9l-1.5-3.3L127.6,87.8z M133.3,75.3l8.2-4.8l11.2,1.7l3,6.5l-2.7,1.6l-5.5,3.2l-5.6-0.9
					l-5.6-0.9l-1.5-3.3L133.3,75.3z M155,71.8l8.2-4.8l11.2,1.7l3,6.5l-8.2,4.8l-5.6-0.9l-5.6-0.9l-1.5-3.3L155,71.8z M166.5,46.7
					l8.2-4.8l11.2,1.7l3,6.5l-8.2,4.8h-0.1l-11-1.7L166.5,46.7L166.5,46.7z M196.4,38.7l5.6,0.9l5.6,0.9l0,0l1.5,3.3l1.5,3.3
					l-4.8,2.8l-3.4,2L191.1,50l-3-6.5L196.4,38.7z M209.9,40l8.2-4.8l11.2,1.7l3,6.5l-8.2,4.8l-5.6-0.9l-5.6-0.9l-1.5-3.3L209.9,40z
					 M382.9,149.8l-5.1,3l-11.2-1.7l-3-6.5l8.2-4.8l5.6,0.9l5.6,0.9l0,0l1.5,3.3l1.5,3.3L382.9,149.8z M353.2,167l-2.9,1.7
					l-11.2-1.7l-3-6.5l8.2-4.8l5.6,0.9l5.6,0.9l1.5,3.3l1.5,3.3L353.2,167z M322.8,184.7l-5.6-0.9l-5.6-0.9l-1.5-3.3l-1.5-3.3
					l8.2-4.8l11.2,1.7l3,6.5l-2.7,1.6L322.8,184.7z M106.1,218.3l-11.2-1.7l-3-6.5l8.2-4.8l1.6,0.2l9.6,1.5l1.5,3.2l1.5,3.3l-4,2.3
					L106.1,218.3z M75.3,127.5l5.6,0.9l5.6,0.9L87,130l2.6,5.6l-7.4,4.4l-0.7,0.4l-11.2-1.7l-3-6.5L75.3,127.5z M100.3,103.8
					l8.2-4.8l11.2,1.7l3,6.5l-0.2,0.1l-7.9,4.6l-5.6-0.9l-5.6-0.9l-1.5-3.3L100.3,103.8z M130,95.6l5.6,0.9l5.6,0.9l0,0l0.1,0.1
					l2.9,6.3l-8.2,4.8l-11.2-1.7l-3-6.5L130,95.6z M149.3,84.4l8.2-4.8l11.2,1.7l3,6.5l-4.3,2.4l-3.9,2.3l-9.6-1.5l-1.6-0.2
					l-1.5-3.3L149.3,84.4z M182.5,56l8.2-4.8l11.2,1.7l3,6.5l-1.8,1.1l-6.3,3.7h-0.1l-11-1.7L182.5,56L182.5,56z M212.2,47.8
					l5.6,0.9l5.6,0.9l0,0l0.1,0.1l2.9,6.3l-3.3,2l-4.9,2.8L207.1,59l-3-6.5L212.2,47.8z M233.9,44.5l11.2,1.7l3,6.5l-8.2,4.8
					l-5.6-0.9l-5.6-0.9l-1.5-3.2l-1.5-3.3L233.9,44.5z M257.7,67.6l8.2-4.8l11.2,1.7l3,6.5l-8.2,4.8l-1.6-0.2l-9.6-1.5l-1.5-3.2
					L257.7,67.6z M289.6,86l8.2-4.8l11.2,1.7l3,6.5l-8.2,4.8l-1.6-0.2l-9.6-1.5l-1.5-3.2L289.6,86z M319.1,104.8L319.1,104.8
					l1.5,3.3l1.5,3.3l-8.2,4.8l-11.2-1.7l-3-6.5l8.2-4.8l5.6,0.9L319.1,104.8L319.1,104.8z M334.9,113.9L334.9,113.9l1.5,3.3
					l1.5,3.3l-5.7,3.4l-2.3,1.3l-11.2-1.7l-3-6.5l8.2-4.8l5.6,0.9L334.9,113.9L334.9,113.9z M350.9,123.2L350.9,123.2l1.5,3.3
					l1.5,3.3l-4.3,2.4l-3.9,2.2l-11.2-1.7l-3-6.5l8.2-4.8l5.6,0.9L350.9,123.2z M366.9,132.3L366.9,132.3l1.5,3.3l1.5,3.3l-3.7,2.2
					l-4.5,2.6l-11.2-1.7l-3-6.5l8.2-4.8l5.6,0.9L366.9,132.3z M344.8,154.4l-2.9-6.3v-0.1l8.2-4.8l11.2,1.7l3,6.5l-8.2,4.8H356
					L344.8,154.4z M230,220l-5.5,3.2l-11.2-1.7l-3-6.5l8.2-4.8l5.6,0.9l5.6,0.9l1.5,3.3l1.5,3.3L230,220z M169.8,255l-11.2-1.7
					l-3-6.5l8.2-4.8l5.6,0.9l5.6,0.9l1.5,3.3l1.5,3.3l-6.8,3.9L169.8,255z M137.9,236.7l-11.2-1.7l-3-6.5l8.2-4.8l5.6,0.9l5.6,0.9
					l1.5,3.2l1.5,3.3l-6.8,3.9L137.9,236.7z M74.3,199.9l-11.2-1.7l-3-6.5l8.2-4.8l1.6,0.2l9.6,1.5l0.2,0.5l2.8,6l-3.5,2.1
					L74.3,199.9z M91.1,136.7l5.6,0.9l5.6,0.9l1.5,3.3l1.5,3.3l-8.2,4.8l-11.2-1.7l-3-6.5L91.1,136.7z M124.3,108.2l11.2,1.7l3,6.5
					l-2.7,1.6l-5.5,3.2l-5.6-0.9l-5.6-0.9l-1.5-3.2l-1.5-3.3L124.3,108.2z M165.3,93.7l8.2-4.8l11.2,1.7l3,6.5l-8.2,4.8l-5.6-0.9
					l-5.6-0.9l-1.5-3.2L165.3,93.7z M190.9,76.7L179.7,75l-3-6.5l8.2-4.8l5.6,0.9l5.6,0.9l0.5,0.9l2.6,5.6l-5.7,3.3L190.9,76.7z
					 M260,75.5h0.2l10.9,1.7l3,6.5l-4.5,2.6l-3.7,2.1l-11.2-1.7l-3-6.5L260,75.5z M340,147h-0.1l-11-1.7l-2.9-6.3v-0.1l8.2-4.8
					l11.2,1.7l3,6.5l-5,2.9L340,147z M291,175.4l-5.9,3.4l-5.6-0.9l-5.6-0.9l-1.5-3.3l-1.5-3.3l8.2-4.8l5.6,0.9l5.6,0.9l0,0l1.5,3.2
					l1.5,3.3L291,175.4z M95.9,196.5l-11.2-1.7l-3-6.5l8.2-4.8l11.2,1.7l3,6.5L95.9,196.5z M85.4,149.3l11.2,1.7l3,6.5l-8.2,4.8
					l-11.2-1.7l-3-6.5L85.4,149.3z M120.6,147.2l8.2-4.8l11.2,1.7l3,6.5l-8.2,4.8h-0.2l-10.9-1.7l-1.5-3.2L120.6,147.2z
					 M159.5,106.2l8.2-4.8l5.6,0.9l5.6,0.9l1.5,3.2l1.5,3.2l-2.2,1.2l-6,3.4l-5.6-0.9l-5.6-0.9l-1.5-3.2L159.5,106.2z M181.1,102.8
					l8.2-4.8l11.2,1.7l3,6.5l-6.2,3.7l-1.8,1.1l-5.6-0.9l-5.6-0.9l-1.5-3.2L181.1,102.8z M202.8,99.5l8.2-4.8l11.2,1.7l3,6.5
					l-8.2,4.8l-1.6-0.2l-9.6-1.5l-1.5-3.2L202.8,99.5z M206.9,85.9l-11.2-1.7l-3-6.5l8.2-4.8l5.6,0.9l5.6,0.9l1.5,3.3l1.5,3.2
					l-4.4,2.6L206.9,85.9z M214.3,74.4l8.2-4.8l11.2,1.7l3,6.5l-7.7,4.5l-0.5,0.2l-2.9-0.5l-8.3-1.3L214.3,74.4L214.3,74.4z
					 M268.5,96.2l-8.2,4.8l-2.9-0.5l-8.3-1.3l-2-4.1l-1.1-2.3l8.2-4.8l11.2,1.7L268.5,96.2z M327.4,135.9l-3.3,2h-0.1l-11-1.7l-2-4
					l-1.1-2.4l8.2-4.8l11.2,1.7l3,6.5L327.4,135.9z M305.4,139.4l-2.9,1.7l-11.2-1.7l-3-6.5l8.2-4.8l5.6,0.9l5.6,0.9l1.5,3.2
					l1.5,3.3L305.4,139.4z M275.8,165.9l-6.5,3.8l-5.6-0.9l-5.6-0.9l-0.4-0.9l-2.6-5.6l8.2-4.8l10.9,1.7h0.2l1.5,3.3l1.5,3.3
					L275.8,165.9z M149.4,211.5l-11.2-1.7l-3-6.5l8.2-4.8l11.2,1.7l3,6.5l-4,2.3L149.4,211.5z M90.5,182.2l-3-6.5l8.2-4.8l11.2,1.7
					l3,6.5l-8.2,4.8L90.5,182.2z M134.2,156.8l0.2,0.5l2.8,6l-1.7,1l-6.5,3.8l-11.2-1.7l-3-6.5l8.2-4.8l1.6,0.2L134.2,156.8z
					 M148.1,131.4l8.2-4.8l11.2,1.7l3,6.5l-5.4,3.2l-2.7,1.6l-1.6-0.2l-9.6-1.5l-1.5-3.2L148.1,131.4z M175.4,115.4l8.2-4.8l5.6,0.9
					l5.6,0.9l2.9,6.3l0.1,0.1l-4.4,2.6l-3.8,2.2l-1.6-0.2l-9.6-1.5l-1.5-3.2L175.4,115.4z M218.8,108.7l8.2-4.8l11.2,1.7l3,6.5
					l-8.2,4.8l-5.6-0.9l-5.6-0.9l-0.2-0.5L218.8,108.7z M216.7,82.2l5.6,0.9l5.6,0.9l1.5,3.3l1.5,3.3l-8.2,4.8l-11.2-1.7l-3-6.5
					L216.7,82.2z M243.8,93.1l0.2,0.5l2.8,6l-8.2,4.8l-11.2-1.7l-3-6.5l8.2-4.8l1.6,0.2L243.8,93.1z M259.8,102.3l1.5,3.3l1.5,3.3
					l-2.3,1.3l-5.9,3.4l-11.2-1.7l-3.1-6.5l8.2-4.8l5.6,0.9L259.8,102.3z M275.6,111.5l1.5,3.2l1.5,3.3l-8.2,4.8l-11.2-1.7l-3-6.5
					l8.2-4.8l1.6,0.2L275.6,111.5z M291.6,120.7l1.5,3.2l1.5,3.3l-1.8,1.1l-6.3,3.7l-11.2-1.7l-3.1-6.5l8.2-4.8l5.6,0.9L291.6,120.7
					z M258.2,157.6l-4.8,2.8l-5.6-0.9l-5.6-0.9l-1.5-3.3l-1.5-3.3l8.2-4.8l5.6,0.9l5.6,0.9l0,0l1.5,3.2l1.5,3.3L258.2,157.6z
					 M183.1,192l-6.2,3.7l-11.2-1.7l-3-6.5l8.2-4.8l5.6,0.9l5.6,0.9l1.5,3.2l1.5,3.3L183.1,192z M155.1,198.9l-11.2-1.7l-3-6.5
					l8.2-4.8l11.2,1.7l3,6.5L155.1,198.9z M123.3,180.6l-11.2-1.7l-3-6.5l8.2-4.8l11.2,1.7l3,6.5L123.3,180.6z M138.9,164.3l5.6,0.9
					l5.6,0.9l1.5,3.3l1.5,3.3l-8.2,4.8l-11.2-1.7l-3-6.5L138.9,164.3z M152.5,165.6l8.2-4.8l11.2,1.7l3,6.5l-8.3,4.8h-0.2l-10.9-1.7
					l-1.5-3.2L152.5,165.6z M199.5,119.9l11.2,1.7l1.5,3.2l1.5,3.2l-1.3,0.9l-6.8,3.9l-5.6-0.9l-5.6-0.9l-0.2-0.5l-2.8-6
					L199.5,119.9z M213.1,121.2l8.2-4.8l11.2,1.7l3,6.5l-6.6,3.9l-1.6,0.9l-5.6-0.9l-5.6-0.9l-1.5-3.2L213.1,121.2z M234.7,117.8
					l8.2-4.8l11.2,1.7l3,6.5l-8.2,4.8l-1.6-0.2l-9.6-1.5l-1.5-3.2L234.7,117.8z M237.4,151.2l-5.6-0.9l-5.6-0.9l-1.5-3.3l-1.5-3.3
					l8.2-4.8l5.6,0.9l5.6,0.9l1.5,3.2l1.5,3.3l-1.3,0.7L237.4,151.2z M177.2,168.8l-3-6.5l8.2-4.8l11.2,1.7l3,6.5l-8.2,4.8
					L177.2,168.8z M179.9,149.8l8.2-4.8l11.2,1.7l3,6.5l-5.1,2.9l-3,1.7l-1.6-0.2l-9.6-1.5l-1.5-3.2L179.9,149.8z M215.4,129
					l5.6,0.9l5.6,0.9l2.9,6.3l0.1,0.1l-7.7,4.5l-0.4,0.2l-1.6-0.2l-9.6-1.5l-1.5-3.2l-1.5-3.3L215.4,129z M204.9,134.2l1.5,3.2
					l1.5,3.2l-8.2,4.8l-11.2-1.7l-3-6.5l8.2-4.8l5.6,0.9L204.9,134.2z M210,167.1l-5.6-0.9l-5.6-0.9l-1.5-3.3l-1.5-3.3l8.2-4.8
					l11.2,1.7l3,6.5l-0.5,0.2L210,167.1z M215.8,154.5l-11.2-1.7l-3-6.5l8.2-4.8h0.2l10.9,1.7l1.5,3.2l1.5,3.3L215.8,154.5z
					 M243.2,138.7l-5.6-0.9L232,137l-2.6-5.6l-0.4-0.9l8.2-4.8l11.2,1.7l3,6.5L243.2,138.7z M188.9,125l3,6.5l-8.2,4.8l-11.2-1.7
					l-3-6.5l8.2-4.8h0.2L188.9,125z M172.1,135.7l11.2,1.7l3,6.5l-1.7,1l-6.5,3.8l-5.6-0.9L167,147l-0.2-0.5l-2.8-6L172.1,135.7z
					 M166.4,148.3l11.2,1.7l3,6.5l-7.7,4.4l-0.5,0.2l-11.2-1.7l-3-6.5L166.4,148.3z M169,181.7l-8.2,4.8l-11.2-1.7l-3-6.5l8.2-4.8
					l1.6,0.2l9.6,1.5l1.5,3.2L169,181.7z M182.6,183.1l-5.6-0.9l-5.6-0.9l-1.5-3.2l-1.5-3.2l8.2-4.8l11.2,1.7l3,6.5L182.6,183.1z
					 M193.1,177.9l-3-6.5l8.2-4.8l11.2,1.7l3,6.5l-4,2.3l-4,2.3L193.1,177.9z M225.9,176.4l-5.6-0.9l-5.6-0.9l-1.5-3.3l-1.5-3.3
					l8.2-4.8l11.2,1.7l3,6.5L225.9,176.4z M231.6,163.8l-11.2-1.7l-3-6.5l8.2-4.8l5.6,0.9l5.6,0.9l1.5,3.2l1.5,3.3L231.6,163.8z
					 M259.1,147.8l-5.6-0.9l-5.6-0.9l-1.5-3.3l-1.5-3.3l8.2-4.8l11.2,1.7l3,6.5l-4.8,2.8L259.1,147.8z M264.8,135.3l-5.6-0.9
					l-5.6-0.9l-1.5-3.3l-1.5-3.2l8.2-4.8L270,124l3.1,6.5L264.8,135.3z M205.3,107.3l11.2,1.7l3.1,6.5l-4.4,2.6l-3.7,2.2l-10.2-1.6
					l-1-0.1l-2.6-5.6l-0.4-0.9L205.3,107.3z M173.1,115.7l1.5,3.2l1.5,3.2l-8.2,4.8l-11.2-1.7l-3-6.5l8.2-4.8l5.6,0.9L173.1,115.7z
					 M150.4,139.2l11.2,1.7l3,6.5l-6.1,3.5l-2,1.2l-11.2-1.7l-3-6.5L150.4,139.2z M144.7,151.7l11.2,1.7l3,6.5l-8.2,4.8l-5.6-0.9
					l-5.6-0.9l-3-6.5L144.7,151.7z M101.4,158.4l11.2,1.7l3,6.5l-8.2,4.8l-11.2-1.7l-3-6.5L101.4,158.4z M111.5,180.3l11.2,1.7
					l3,6.5l-8.2,4.8l-11.2-1.7l-3-6.5L111.5,180.3z M128.1,188.1l-3-6.5l8.2-4.8l11.2,1.7l3,6.5l-8.2,4.8L128.1,188.1z M154.2,219.1
					l-3-6.5l8.2-4.8l11.2,1.7l3,6.5l-4,2.3l-4,2.3L154.2,219.1z M171.1,208.2l-11.2-1.7l-3-6.5l8.2-4.8l11.2,1.7l3,6.5L171.1,208.2z
					 M192.8,204.8l-11.2-1.7l-3-6.5l8.2-4.8l5.6,0.9l5.6,0.9l1.5,3.2l1.5,3.3L192.8,204.8z M198.6,192.2l-5.6-0.9l-5.6-0.9l-1.5-3.2
					l-1.5-3.2l8.2-4.8l11.2,1.7l3,6.5L198.6,192.2z M220.2,188.9l-11.2-1.7l-3-6.5l8.2-4.8l11.2,1.7l3,6.5l-4,2.3L220.2,188.9z
					 M241.9,185.5l-5.6-0.9l-5.6-0.9l-0.4-0.9l-2.6-5.6l8.2-4.8l11.1,1.7l3,6.5l-0.4,0.2L241.9,185.5z M236.5,171.2l-3-6.5l8.2-4.8
					l5.6,0.9l5.6,0.9l0,0l1.5,3.2l1.5,3.3l-8.2,4.8L236.5,171.2z M275,157l-5.6-0.9l-5.6-0.9l-1.5-3.3l-1.5-3.3l8.2-4.8l11.2,1.7
					l3,6.5l-2.7,1.6L275,157z M280.8,144.4l-5.6-0.9l-5.6-0.9l-1.5-3.3l-1.5-3.3l8.2-4.8l11.2,1.7l3,6.5L280.8,144.4z M311.3,126.7
					l-3.2,1.8H308l-11-1.7l-2.2-4.8l-0.7-1.7l8.2-4.8l11.2,1.7l3,6.5L311.3,126.7z M292.2,119.3h-0.1l-11-1.7l-2.3-4.8l-0.7-1.7
					l8.2-4.8l11.2,1.7l3,6.5L292.2,119.3z M279.4,108.3l-3,1.8h-0.1l-11.1-1.7l-2.9-6.3V102l8.2-4.8l11.2,1.7l3,6.5L279.4,108.3z
					 M244.4,91.7L244.4,91.7L233.2,90l-2.9-6.3v-0.1l8.2-4.8l11.2,1.7l3,6.5L244.4,91.7z M140.3,117.5l11.2,1.7l3,6.5l-8.2,4.8
					l-5.6-0.9l-5.6-0.9l-1.5-3.2l-1.5-3.3L140.3,117.5z M134.5,130l11.2,1.7l3,6.5l-7.7,4.4l-0.5,0.2l-11.2-1.7l-3-6.5L134.5,130z
					 M118.2,147.6l1.5,3.3l1.5,3.3l-8.2,4.8l-11.2-1.7l-3-6.5l8.2-4.8l5.6,0.9L118.2,147.6z M79.6,161.8l11.2,1.7l3,6.5l-4,2.3
					l-4,2.3l-11.2-1.7l-3-6.5L79.6,161.8z M73.9,174.4l11.2,1.7l3,6.5l-8.2,4.8l-11.2-1.7l-3-6.5L73.9,174.4z M122.3,200.6l-3-6.5
					l8.2-4.8l11.2,1.7l3,6.5l-8.2,4.8L122.3,200.6z M137.7,211.2l11.2,1.7l3,6.5l-8.2,4.8l-11.2-1.7l-3-6.5L137.7,211.2z
					 M159.7,233.3l-11.2-1.7l-3-6.5l8.2-4.8l11.2,1.7l3,6.5L159.7,233.3z M170.1,228.2l-3-6.5l8.2-4.8l11.2,1.7l3,6.5l-4,2.3
					l-4.3,2.4L170.1,228.2z M187.1,217.3l-11.2-1.7l-3-6.5l8.2-4.8l11.2,1.7l3,6.5L187.1,217.3z M208.7,214l-11.2-1.7l-3-6.5
					l8.2-4.8l5.6,0.9l5.6,0.9l1.5,3.3l1.5,3.3l-1.5,0.9L208.7,214z M214.4,201.5l-5.6-0.9l-5.6-0.9l-0.1-0.1l-2.9-6.3l8.2-4.8
					l11.2,1.7l3,6.5L214.4,201.5z M236.1,198.1l-11.2-1.7l-3.1-6.5l8.2-4.8l11.2,1.7l3,6.5l-4,2.3L236.1,198.1z M246,194.4l11.2,1.7
					l3,6.5l-8.2,4.8l-11.2-1.7l-3-6.5L246,194.4z M257.8,194.8l-5.6-0.9l-5.6-0.9l-1.5-3.3l-1.5-3.3l8.2-4.8l11.2,1.7l3,6.5l-5.2,3
					L257.8,194.8z M263.6,182.1l-11.2-1.7l-3-6.5l8.2-4.8l5.6,0.9l5.6,0.9l1.5,3.3l1.5,3.3L263.6,182.1z M290.9,166.2l-5.6-0.9
					l-5.6-0.9l-1.5-3.3l-1.5-3.3l8.2-4.8l11.2,1.7l3,6.5l-4.8,2.8L290.9,166.2z M296.7,153.7l-5.6-0.9l-5.6-0.9l-0.5-0.9l-2.6-5.6
					l8.2-4.8l11.2,1.7l3,6.5L296.7,153.7z M318.3,150.3l-11.2-1.7l-3-6.5l8.2-4.8l5.6,0.9l5.6,0.9l1.5,3.3l1.5,3.3l-3.8,2.2
					L318.3,150.3z M206.5,60.4l11.2,1.7l3,6.5l-6.5,3.8l-1.6,1l-2.9-0.5l-8.3-1.3l-2.9-6.3V65L206.5,60.4z M195,85.5l11.2,1.7l3,6.5
					l-8.2,4.8l-5.6-0.9l-5.6-0.9l-1.5-3.2l-1.5-3.3L195,85.5z M158.7,109.8l1.5,3.2l-8.2,4.8l-11.2-1.7l-3-6.5l8.2-4.8l5.6,0.9
					l5.6,0.9L158.7,109.8z M118.6,120.7l11.2,1.7l3,6.5l-2,1.2l-6.1,3.5l-11.2-1.7l-3-6.5L118.6,120.7z M112.8,133.3L124,135l3,6.5
					l-8.2,4.8l-5.6-0.9l-5.6-0.9l-1.5-3.2l-1.5-3.3L112.8,133.3z M83.7,148.3l-8.2,4.8l-11.2-1.7l-3-6.5l8.2-4.8l11.2,1.7
					L83.7,148.3z M63.7,152.6l11.2,1.7l3,6.5l-4,2.3l-4,2.3l-11.2-1.7l-3-6.5L63.7,152.6z M57.9,165.1l11.2,1.7l3,6.5l-8.2,4.8
					l-11.2-1.7l-3-6.5L57.9,165.1z M36.4,168.6l5.6,0.9l5.6,0.9l1.5,3.3l1.5,3.3l-8.2,4.8l-11.2-1.7l-3-6.5L36.4,168.6z M52.2,177.7
					l5.6,0.9l5.6,0.9l1.5,3.3l1.5,3.3l-8.2,4.8L47,189l-3-6.5L52.2,177.7z M111.8,205.8l-11.2-1.7l-3-6.5l8.2-4.8l11.2,1.7l3,6.5
					L111.8,205.8z M121.7,202l11.2,1.7l3,6.5l-8.2,4.8l-11.2-1.7l-3-6.5L121.7,202z M147.8,233l5.6,0.9l5.6,0.9l1.5,3.3l1.5,3.3
					l-8.2,4.8l-11.2-1.7l-3-6.5L147.8,233z M175.5,242.5l-11.2-1.7l-3-6.5l8.2-4.8l11.2,1.7l3,6.5L175.5,242.5z M186,237.5l-3-6.5
					l8.2-4.8l11.2,1.7l3,6.5l-4,2.3l-4,2.3L186,237.5z M203,226.6l-11.2-1.7l-3-6.5l8.2-4.8l11.2,1.7l3,6.5L203,226.6z M230.4,210.6
					l-5.6-0.9l-5.6-0.9l-1.5-3.3l-1.5-3.3l8.2-4.8l11.2,1.7l3,6.5L230.4,210.6z M273.7,203.9l-5.6-0.9l-5.6-0.9l-1.5-3.3l-1.5-3.3
					l8.2-4.8l11.2,1.7l3,6.5l-1.8,1L273.7,203.9z M279.4,191.4l-11.2-1.7l-3-6.5l8.2-4.8l5.6,0.9l5.6,0.9l1.5,3.3l1.5,3.3
					L279.4,191.4z M288.5,183.1l-1.5-3.3l8.2-4.8l5.6,0.9l5.6,0.9l1.5,3.3l1.5,3.3l-8.2,4.8l-5.6-0.9l-5.6-0.9L288.5,183.1z
					 M306.9,175.4l-5.6-0.9l-5.6-0.9l-1.5-3.3l-1.5-3.3l8.2-4.8l11.2,1.7l3,6.5l-2.7,1.6L306.9,175.4z M312.6,162.8L307,162
					l-5.6-0.9l-1.5-3.3l-1.5-3.3l8.2-4.8l11.2,1.7l3,6.5L312.6,162.8z M323.1,157.7l-3-6.5l8.2-4.8l5.6,0.9l5.6,0.9l1.5,3.3l1.5,3.3
					l-5.1,3l-2.9,1.7L323.1,157.7z M306.1,102.1l-8.2,4.8l-11.2-1.7l-3-6.5l8.2-4.8h0.2l10.9,1.7l1.5,3.2L306.1,102.1z M287.1,86.4
					l1.5,3.2l1.5,3.2l-4.5,2.6l-3.7,2.1l-11.2-1.7l-3-6.5l8.2-4.8l5.6,0.9L287.1,86.4z M256.9,71.2l1.5,3.2l-6.5,3.8l-1.7,1
					l-11.2-1.7l-3-6.5l8.2-4.8l5.6,0.9l5.6,0.9L256.9,71.2z M234.3,70l-11.2-1.7l-3-6.5l8.2-4.8l5.6,0.9l5.6,0.9l1.5,3.2l1.5,3.2
					L234.3,70z M179,76.3l11.2,1.7l3,6.5l-8.2,4.8l-5.6-0.9l-5.6-0.9l-1.5-3.2l-1.5-3.3L179,76.3z M151.7,92.3l5.6,0.9l5.6,0.9
					l1.5,3.2l1.5,3.2l-8.2,4.8l-5.6-0.9l-5.6-0.9l-1.5-3.2l-1.5-3.3L151.7,92.3z M102.6,111.6l11.2,1.7l3,6.5l-0.4,0.2l-7.8,4.5
					l-11.2-1.7l-3-6.5L102.6,111.6z M96.8,124.2l11.2,1.7l3,6.5l-8.2,4.8l-5.6-0.9l-5.6-0.9l-1.5-3.2l-1.5-3.3L96.8,124.2z
					 M47.8,143.4l11.2,1.7l3.1,6.5l-8.2,4.8l-11.2-1.7l-3-6.5L47.8,143.4z M42.1,156l11.2,1.7l3,6.5l-8.2,4.8L37,167.2l-3-6.5
					L42.1,156z M20.4,159.4l5.6,0.9l5.6,0.9L32,162l2.6,5.6l-3.5,2.1l-4.6,2.7l-11.2-1.7l-3-6.5L20.4,159.4z M90.1,209.1l-11.2-1.7
					l-3-6.5l8.2-4.8l5.6,0.9l5.6,0.9l1.5,3.3l1.5,3.3l-3.5,2.1L90.1,209.1z M116,214.5l5.6,0.9l5.6,0.9l1.5,3.2l1.5,3.3l-7.2,4.1
					l-1,0.6l-11.2-1.7l-3-6.5L116,214.5z M187.1,263.4l-1.3,0.7l-11.2-1.7l-3-6.5l8.2-4.8l5.6,0.9l5.6,0.9l1.5,3.3l1.5,3.3
					L187.1,263.4z M191.5,251.7l-11.2-1.7l-3-6.5l8.2-4.8l11.2,1.7l3,6.5L191.5,251.7z M202,246.6l-3-6.5l8.2-4.8l11.2,1.7l3,6.5
					l-4,2.3l-4,2.3L202,246.6z M218.9,235.8l-11.2-1.7l-3-6.5l8.2-4.8l11.2,1.7l3,6.5L218.9,235.8z M240.5,232.5l-11.2-1.7l-3-6.5
					l8.2-4.8l5.6,0.9l5.6,0.9l1.5,3.3l1.5,3.3L240.5,232.5z M246.4,219.9l-5.6-0.9l-5.6-0.9l-1.5-3.3l-1.5-3.3l8.2-4.8l11.2,1.7
					l3,6.5L246.4,219.9z M268,216.5l-11.2-1.7l-3-6.5l8.2-4.8l11.2,1.7l3,6.5l-1.5,0.9L268,216.5z M277,208.2l-1.5-3.3l8.2-4.8
					l11.2,1.7l3,6.5l-8.2,4.8l-5.6-0.9l-5.6-0.9L277,208.2z M295.4,200.5l-11.2-1.7l-3-6.5l8.2-4.8l5.6,0.9l5.6,0.9l1.5,3.3l1.5,3.3
					L295.4,200.5z M328.6,172.1l-5.6-0.9l-5.6-0.9l-1.5-3.3l-1.5-3.3l8.2-4.8l11.2,1.7l3,6.5L328.6,172.1z M383.3,140.1l-5.6-0.9
					l-5.6-0.9l-1.5-3.3l-1.5-3.3l8.2-4.8l11.2,1.7l3,6.5L383.3,140.1z M375.5,126.2l-8.2,4.8l-5.6-0.9l-5.6-0.9l-1.5-3.3l-1.5-3.3
					l8.2-4.8l11.2,1.7L375.5,126.2z M359.7,117.1l-8.2,4.8l-5.6-0.9l-5.6-0.9l-0.5-0.9l-2.6-5.6l8.2-4.8l11.2,1.7L359.7,117.1z
					 M343.7,107.8l-8.2,4.8l-5.6-0.9l-5.6-0.9l-1.5-3.3l-1.5-3.3l8.2-4.8l11.2,1.7L343.7,107.8z M327.7,98.7l-8.2,4.8l-5.6-0.9
					l-5.6-0.9l-1.5-3.3l-1.5-3.3l8.2-4.8l11.2,1.7L327.7,98.7z M295.9,80.3l-8.2,4.8l-5.6-0.9l-5.6-0.9l-0.2-0.5l-2.8-6l8.2-4.8
					l11.2,1.7L295.9,80.3z M264.1,61.8l-8.2,4.8l-5.6-0.9l-5.6-0.9l-1.5-3.2l-1.5-3.3l8.2-4.8l11.2,1.7L264.1,61.8z M168.9,54.6
					l5.6,0.9l5.6,0.9l1.5,3.3l1.5,3.3l-8.2,4.8L163.7,66l-3-6.5L168.9,54.6z M86.7,102.3l11.2,1.7l3,6.5l-4,2.3l-4,2.3l-11.2-1.7
					l-3-6.5L86.7,102.3z M53.5,130.9l11.2,1.7l3,6.5l-8.2,4.8l-11.2-1.7l-3-6.5L53.5,130.9z M31.8,134.3l11.2,1.7l3,6.5l-8.2,4.8
					l-11.2-1.7l-3-6.5L31.8,134.3z M26.1,146.8l11.2,1.7l3,6.5l-8.2,4.8L21,158.1l-3-6.5L26.1,146.8z M4.4,150.1L10,151l5.6,0.9
					l1.5,3.3l1.5,3.3l-6.8,3.9l-1.3,0.7l-11.2-1.7l-3-6.5L4.4,150.1z M14.6,172l5.6,0.9l5.6,0.9l1.5,3.3l1.5,3.3l-8.2,4.8l-11.2-1.7
					l-3-6.5L14.6,172z M30.6,181.1l5.6,0.9l5.6,0.9l1.5,3.3l1.5,3.3l-8.2,4.8l-11.2-1.7l-3-6.5L30.6,181.1z M78.3,208.7l5.6,0.9
					l5.6,0.9l2.6,5.6l0.4,1l-8.2,4.8L73.1,220l-3-6.5L78.3,208.7z M158.1,254.7l5.6,0.9l5.6,0.9l1.5,3.3l1.5,3.3l-8.2,4.8l-11.2-1.7
					l-3-6.5L158.1,254.7z M202.7,273l-1,0.6l-11.2-1.7l-3-6.5l8.2-4.8l5.6,0.9l5.6,0.9l1.5,3.3l1.5,3.3L202.7,273z M207.5,260.9
					l-11.2-1.7l-3-6.5l8.2-4.8l11.2,1.7l3,6.5L207.5,260.9z M229.1,257.6l-11.2-1.7l-3-6.5l8.2-4.8l11.2,1.7l3,6.5l-6,3.4
					L229.1,257.6z M234.8,245l-11.2-1.7l-3-6.5l8.2-4.8l11.2,1.7l3,6.5L234.8,245z M256.5,241.6l-11.2-1.7l-3-6.5l8.2-4.8l5.6,0.9
					l5.6,0.9l1.5,3.3l1.5,3.3L256.5,241.6z M262.2,229l-5.6-0.9l-5.6-0.9l-1.5-3.3l-1.5-3.3l8.2-4.8l11.2,1.7l3,6.5L262.2,229z
					 M272.7,223.9l-3-6.5l8.2-4.8l11.2,1.7l3,6.5l-4,2.3l-4,2.3L272.7,223.9z M294.4,220.6l-1.5-3.3l-1.5-3.3l8.2-4.8l11.2,1.7
					l3,6.5l-8.2,4.8l-5.6-0.9L294.4,220.6z M311.4,209.8l-11.2-1.7l-3-6.5l8.2-4.8l5.6,0.9l5.6,0.9l1.5,3.3l1.5,3.3L311.4,209.8z
					 M317.1,197.2l-5.6-0.9l-5.6-0.9l-1.5-3.3l-1.5-3.3l8.2-4.8l5.6,0.9l5.6,0.9l1.5,3.3l1.5,3.3l-1.3,0.7L317.1,197.2z M326,188.8
					l-1.5-3.3l8.2-4.8l11.2,1.7l3,6.5l-8.2,4.8l-5.6-0.9l-5.6-0.7L326,188.8z M344.4,181.2l-5.6-0.9l-5.6-0.9l-1.5-3.3l-1.5-3.3
					l8.2-4.8l11.2,1.7l3,6.5L344.4,181.2z M354.9,176.1l-3-6.5l8.2-4.8l5.6,0.9l5.6,0.9l1.5,3.3l1.5,3.3l-8.2,4.8L354.9,176.1z
					 M371.9,165.4h-0.1l-11-1.7l-2.9-6.3v-0.1l8.2-4.8l11.2,1.7l3,6.5L371.9,165.4z M399.3,149.4l-5.6-0.9l-5.6-0.9l-1.5-3.3
					l-1.5-3.3l8.2-4.8l11.2,1.7l3,6.5L399.3,149.4z M202.1,26.1l11.2,1.7l3,6.5l-8.2,4.8l-5.6-0.9l-5.6-0.9l-1.5-3.3l-1.5-3.3
					L202.1,26.1z M119.8,73.9l5.6,0.9l5.6,0.9l0,0l1.5,3.3l1.5,3.3l-3.3,2l-4.8,2.8l-5.6-1l-5.6-0.9l-1.5-3.3l-1.5-3.2L119.8,73.9z
					 M70.7,93.2L82,94.9l3,6.5l-8.2,4.8l-11.2-1.7l-3-6.5L70.7,93.2z M65,105.7l11.2,1.7l3,6.5l-8.2,4.8l-5.6-0.9l-5.6-0.9l-1.5-3.3
					l-1.5-3.3L65,105.7z M37.6,121.7l11.2,1.7l3,6.5l-8.2,4.8l-11.2-1.7l-3-6.5L37.6,121.7z M15.9,125l11.2,1.7l3,6.5l-8.2,4.8
					l-11.2-1.7l-3-6.5L15.9,125z M10.1,137.6l11.2,1.7l3,6.5l-8.2,4.8L5,148.8l-3-6.5L10.1,137.6z M-11.5,141l5.6,0.9l5.6,0.9
					l1.5,3.3l1.5,3.3l-5,2.9l-3.2,1.8l-11.2-1.7l-3-6.5L-11.5,141z M-17.2,153.6l5.6,0.9l5.6,0.9l1.5,3.3l1.5,3.3l-6.8,3.9l-1.3,0.7
					l-11.2-1.7l-3-6.5L-17.2,153.6z M94.3,218l5.6,0.9l5.6,0.9l1.5,3.2l1.5,3.3l-7.2,4.1l-1,0.6L89,229.2l-3-6.5L94.3,218z
					 M195.9,286l-11.2-1.7l-3-6.5l8.2-4.8l5.6,0.9l5.6,0.9l1.5,3.3l1.5,3.3l-0.4,0.2L195.9,286z M218.9,281.9l-1.3,0.7l-11.2-1.7
					l-3-6.5l8.2-4.8l5.6,0.9l5.6,0.9l1.5,3.3l1.5,3.3L218.9,281.9z M223.3,270.2l-11.2-1.7l-3-6.5l8.2-4.8l11.2,1.7l3,6.5
					L223.3,270.2z M233.8,265l-3-6.5l8.2-4.8l11.2,1.7l3,6.5l-8.2,4.8L233.8,265z M250.8,254.2l-11.2-1.7l-3-6.5l8.2-4.8l11.2,1.7
					l3,6.5L250.8,254.2z M272.5,250.8l-11.2-1.7l-3-6.5l8.2-4.8l5.6,0.9l5.6,0.9l1.5,3.3l1.5,3.3L272.5,250.8z M278.2,238.2
					l-5.6-0.9l-5.6-0.9l-1.5-3.3l-1.5-3.3l8.2-4.8l11.2,1.7l3,6.5L278.2,238.2z M299.9,234.9l-11.2-1.7l-3-6.5l8.2-4.8l11.2,1.7
					l3,6.5l-4,2.3L299.9,234.9z M327.2,218.9l-11.2-1.7l-3-6.5l8.2-4.8l5.6,0.9l5.6,0.9l1.5,3.3l1.5,3.3L327.2,218.9z M333,206.4
					l-5.6-0.9l-5.6-0.9l-1.5-3.3l-1.5-3.3l8.2-4.8l5.6,0.9l5.6,0.9l1.5,3.3l1.5,3.3l-2.7,1.6L333,206.4z M360.4,190.5l-5.6-0.9
					l-5.6-0.9l-1.5-3.3l-1.5-3.3l8.2-4.8l11.2,1.7l3,6.5L360.4,190.5z M387.9,174.5h-0.1l-11-1.7l-2.9-6.3v-0.1l8.2-4.8l11.2,1.7
					l3,6.5l-5,2.9L387.9,174.5z M409.4,171.1l-11.2-1.7l-3-6.5l8.2-4.8l5.6,0.9l5.6,0.9l0,0l1.5,3.3l1.5,3.3L409.4,171.1z
					 M415.3,158.6l-5.6-0.9l-5.6-0.9l-1.5-3.3l-1.5-3.3l8.2-4.8l11.2,1.7l3,6.5L415.3,158.6z M436.9,155.3l-11.2-1.7l-2.9-6.6
					l8.2-4.8l5.6,0.9l5.6,0.9l1.5,3.3l1.5,3.3l-1.7,1L436.9,155.3z M447.7,131.5l3,6.5l-8.2,4.8l-11.2-1.7l-3-6.5l8.2-4.8
					L447.7,131.5z M431.9,122.3l3,6.5l-8.2,4.8l-11.2-1.7l-3-6.5l8.2-4.8L431.9,122.3z M415.9,113.1l3,6.5l-8.2,4.8l-11.2-1.7
					l-3-6.5l8.2-4.8L415.9,113.1z M399.9,103.9l3,6.5l-8.2,4.8l-11.2-1.7l-3-6.5l8.2-4.8L399.9,103.9z M384.1,94.6l3,6.5l-8.2,4.8
					l-11.2-1.7l-3-6.5l8.2-4.8L384.1,94.6z M368.1,85.5l3,6.5l-8.2,4.8L351.8,95l-3-6.5l8.2-4.8L368.1,85.5z M352.1,76.2l3,6.5
					l-8.2,4.8l-11.2-1.7l-3-6.5l8.2-4.8L352.1,76.2z M336.3,67.1l3,6.5l-8.2,4.8l-11.2-1.7l-3-6.5l8.2-4.8L336.3,67.1z M320.3,57.9
					l3,6.5l-8.2,4.8l-11.2-1.7l-3-6.5l8.2-4.8L320.3,57.9z M304.4,48.7l3,6.5l-8.2,4.8l-11.2-1.7l-3-6.5l8.2-4.8L304.4,48.7z
					 M288.5,39.5l3,6.5l-8.2,4.8L272.1,49l-3-6.5l8.2-4.8L288.5,39.5z M272.5,30.2l3,6.5l-8.2,4.8l-11.2-1.7l-3-6.5l8.2-4.8
					L272.5,30.2z M256.6,21.1l3,6.5l-8.2,4.8l-11.2-1.7l-3-6.5l8.2-4.8L256.6,21.1z M240.6,12l3,6.5l-8.2,4.8l-11.2-1.7l-3-6.5
					l8.2-4.8L240.6,12z M213.6,1l11.2,1.7l3,6.5l-8.2,4.8l-11.2-1.7l-3-6.5L213.6,1z M183.7,9l8.2-4.8L203.1,6l1.5,3.3l1.5,3.3
					l-1.5,0.9l-6.7,3.9l-11.2-1.7L183.7,9z M186.1,16.8l11.2,1.7l3,6.5l-8.2,4.8l-5.6-0.9L181,28l-1.5-3.3l-1.5-3.3L186.1,16.8z
					 M156.4,25l8.2-4.8l11.2,1.7l1.5,3.3l1.5,3.3l-3,1.7l-5.1,3l-11.2-1.7L156.4,25z M158.7,32.8l11.2,1.7l3,6.5l-8.2,4.8h-0.1
					l-11-1.7l-2.9-6.3v-0.1L158.7,32.8z M128.9,41l8.2-4.8l11.2,1.7l1.5,3.3l1.5,3.3l-5.1,3l-2.9,1.7L132,47.6L128.9,41z
					 M131.4,48.8l11.2,1.7l3,6.5l-8.2,4.8l-5.6-0.9l-5.6-0.9l-1.5-3.3l-1.5-3.3L131.4,48.8z M101.5,56.8l8.2-4.8l11.2,1.7l3,6.5
					l-2.7,1.6l-5.5,3.2l-5.6-0.9l-5.6-0.9L101.5,56.8z M103.9,64.6l5.6,0.9l5.6,0.9l1.5,3.3l1.5,3.3l-5.7,3.4l-2.3,1.3l-5.6-0.9
					L98.8,76l-1.5-3.3l-1.5-3.3L103.9,64.6z M74,72.8l8.2-4.8l11.2,1.7l1.5,3.3l1.5,3.3l-8.2,4.8L77,79.4L74,72.8z M76.5,80.6
					l11.2,1.7l3,6.5l-8.2,4.8L77,92.7l-5.6-0.9l-1.5-3.3l-1.5-3.3L76.5,80.6z M46.7,88.7l8.2-4.8l11.2,1.7l3,6.5l-4,2.3l-4,2.3
					L49.9,95L46.7,88.7z M49,96.6l11.2,1.7l3,6.5l-8.2,4.8l-5.6-0.9l-5.6-0.9l-1.5-3.3l-1.5-3.3L49,96.6z M19.3,104.6l8.2-4.8
					l11.2,1.7l1.5,3.3l1.5,3.3l-8.2,4.8l-11.2-1.7L19.3,104.6z M21.7,112.5l11.2,1.7l3,6.5l-8.2,4.8l-11.2-1.7l-3-6.5L21.7,112.5z
					 M-8.2,120.6l8.2-4.8l11.2,1.7l3,6.5l-8.2,4.8l-11.2-1.7L-8.2,120.6z M-5.7,128.4l11.2,1.7l3,6.5l-8.2,4.8l-11.2-1.7l-3-6.5
					L-5.7,128.4z M-35.6,136.5l8.2-4.8l11.2,1.7l1.5,3.3l1.5,3.3l-6.8,3.9l-1.3,0.7l-11.2-1.7L-35.6,136.5z M-33.2,144.3l5.6,0.9
					l5.6,0.9l1.5,3.3l1.5,3.3l-3.9,2.3l-4.3,2.4l-11.1-1.8l-3-6.5L-33.2,144.3z M-60,158.9l-3-6.5l8.2-4.8l11.2,1.7l1.5,3.3l1.5,3.3
					l-8.2,4.8L-60,158.9z M-44,168.1l-3-6.5l8.2-4.8l5.6,0.9l5.6,0.9l1.5,3.3l1.5,3.3l-8.2,4.8L-44,168.1z M-28.1,177.3l-3-6.5
					l8.2-4.8l5.6,0.9l5.6,0.9l1.5,3.3l1.5,3.3l-8.2,4.8L-28.1,177.3z M-15.2,180l8.2-4.8l5.6,0.9l5.6,0.9l0.5,0.9l2.6,5.6l-0.7,0.5
					l-7.4,4.3l-11.2-1.7L-15.2,180z M0.7,189.2l8.2-4.8l5.6,0.9l5.6,0.9l1.5,3.3l1.5,3.3l-4,2.3l-4,2.3l-11.2-1.7L0.7,189.2z
					 M19.8,204.9l-3-6.5l8.2-4.8l5.6,0.9l5.6,0.9l1.5,3.3L39,202l-8.2,4.8L19.8,204.9z M32.6,207.6l8.2-4.8l1.6,0.2l9.6,1.5l0.2,0.5
					l2.8,6l-1.2,0.7l-7,4L35.6,214L32.6,207.6z M51.6,223.3l-3-6.5l8.2-4.8l5.6,0.9l5.6,0.9l1.5,3.3l1.5,3.3l-8.2,4.8L51.6,223.3z
					 M64.5,226l8.2-4.8l1.6,0.2l9.6,1.5l1.5,3.2l1.5,3.3l-0.4,0.2l-7.8,4.5l-11.2-1.7L64.5,226z M94.7,243.4l-11.2-1.7l-3-6.5
					l8.2-4.8l5.6,0.9l5.6,0.9l1.5,3.2l1.5,3.3l-6.5,3.8L94.7,243.4z M96.4,244.4l8.2-4.8l5.6,0.9l5.6,0.9l1.5,3.2l1.5,3.3l-0.7,0.5
					l-7.4,4.3l-11.2-1.7L96.4,244.4z M115.3,260l-3-6.5l8.2-4.8l5.6,0.9l5.6,0.9l1.5,3.3l1.5,3.3l-8.2,4.8L115.3,260z M128.2,262.8
					l8.2-4.8l5.6,0.9l5.6,0.9l1.5,3.3l1.5,3.3l-4,2.3l-4,2.3l-11.2-1.7L128.2,262.8z M144.2,272l8.2-4.8l5.6,0.9l5.6,0.9l1.5,3.3
					l1.5,3.3l-0.7,0.5l-7.4,4.3l-11.2-1.7L144.2,272z M163.1,287.7l-3-6.5l8.2-4.8l5.6,0.9l5.6,0.9l1.5,3.3l1.5,3.3l-8.2,4.8
					L163.1,287.7z M179,296.9l-3-6.5l8.2-4.8l5.6,0.9l5.6,0.9l1.5,3.3l1.5,3.3l-8.2,4.8L179,296.9z M214.3,303.1l-8.2,4.8l-11.2-1.7
					l-3-6.5l8.2-4.8l5.6,0.9l5.6,0.9L214.3,303.1z M211.9,295.3l-11.2-1.7l-3-6.5l8.2-4.8l5.6,0.9l5.6,0.9l1.5,3.3l1.5,3.3
					L211.9,295.3z M241.7,287.1l-8.2,4.8l-11.2-1.7l-3-6.5l8.2-4.8l5.6,0.9l5.6,0.9L241.7,287.1z M239.3,279.3l-11.2-1.7l-3-6.5
					l8.2-4.8l11.2,1.7l3,6.5L239.3,279.3z M269.1,271.2l-8.2,4.8l-11.2-1.7l-3-6.5l8.2-4.8l11.2,1.7L269.1,271.2z M266.7,263.3
					l-11.2-1.7l-3-6.5l8.2-4.8l11.2,1.7l3,6.5L266.7,263.3z M296.5,255.3l-8.2,4.8l-11.2-1.7l-3-6.5l8.2-4.8l5.6,0.9l5.6,0.9
					L296.5,255.3z M294.1,247.5l-5.6-0.9l-5.6-0.9l-1.5-3.3l-1.5-3.3l8.2-4.8l11.2,1.7l3,6.5L294.1,247.5z M323.9,239.3l-8.2,4.8
					l-11.2-1.7l-3-6.5l8.2-4.8l11.2,1.7L323.9,239.3z M321.5,231.5l-5.6-0.9l-5.6-0.9l-1.5-3.3l-1.5-3.3l8.2-4.8l11.2,1.7l3,6.5
					L321.5,231.5z M351.4,223.4l-8.2,4.8l-11.1-1.7l-3-6.5l8.2-4.8l5.6,0.9l5.6,0.9L351.4,223.4z M348.9,215.6l-5.6-0.9l-5.6-0.9
					l-1.5-3.3l-1.5-3.3l8.2-4.8l5.6,0.9l5.6,0.9l1.5,3.3l1.5,3.3L348.9,215.6z M378.7,207.5l-8.2,4.8l-11.2-1.7l-1.5-3.3l-1.5-3.3
					l8.2-4.8l11.2,1.7L378.7,207.5z M376.4,199.7l-5.6-0.9l-5.6-0.9l-1.5-3.3l-1.5-3.3l8.2-4.8l11.2,1.7l3,6.5L376.4,199.7z
					 M406.1,191.6l-8.2,4.8l-11.2-1.7l-3-6.5l8.2-4.8l5.6,0.9l5.6,0.9L406.1,191.6z M403.7,183.7h-0.1l-11-1.7l-2.9-6.3v-0.1
					l8.2-4.8l11.2,1.7l3,6.5L403.7,183.7z M433.6,175.6l-8.2,4.8l-11.2-1.7l-3-6.5l8.2-4.8l5.6,0.9l5.6,0.9L433.6,175.6z
					 M431.2,167.8l-5.6-0.9l-5.6-0.9l-1.5-3.3l-1.5-3.3l8.2-4.8l11.2,1.7l3,6.5L431.2,167.8z M461,159.7l-8.2,4.8l-11.2-1.7
					l-3.1-6.5l8.2-4.8l5.6,0.9l5.6,0.9L461,159.7z"/>
			</defs>
			<clipPath id="SVGID_2_">
				<use xlink:href="#SVGID_1_"  style="overflow:visible;"/>
			</clipPath>
			<g id="Mask_Group_23" transform="translate(0 0)" class="st4">
				<path id="Path_2928" class="st3" d="M1.8,152.8l187-107l187.3,107L188.8,262.1L1.8,152.8z"/>
			</g>
		</g>
	</g>
	<path id="Path_4938" class="st5" d="M1037.9,5176.7l-77.9,43.5c0,0-8.6,5.9-16.6,0s-124.1-72.4-124.1-72.4l96-55.3l135.7,77.7
		L1037.9,5176.7z"/>
	<path id="Path_4939" class="st6" d="M885.4,5227.2l-11.8,7l-51.7-30.8l12.4-5.9L885.4,5227.2z"/>
	<g id="Group_1672" transform="translate(893.818 4983.752)">
		<g id="Group_1176">
			<g id="Group_1173" transform="translate(84.889)">
				<path id="Path_3435" class="st7" d="M-65,1.4h0.5c0.2,0,0.2,0,0.3,0.2h0.2c0.2,0,0.3,0.2,0.5,0.2h0.2l2.2-1.3
					c-0.7-0.5-1.6-0.5-2.3-0.2l-2.2,1.3l0,0c0.2,0,0.2,0,0.3-0.2C-65.2,1.6-65.2,1.4-65,1.4z"/>
				<path id="Path_3436" class="st8" d="M60.7,169L61,79.1l-124.7-72L-64,97L60.7,169z"/>
				<path id="Path_3437" class="st7" d="M63.6,172.4v0.2c0,0.2,0,0.4-0.2,0.5c0,0.1-0.1,0.2-0.2,0.2c0,0,0,0,0,0
					c0,0.2-0.2,0.2-0.2,0.3l-0.2,0.2l-0.2,0.2l2.2-1.3c0.7-0.3,1-1,1-2.2l-2.2,1.3C63.6,171.9,63.6,172,63.6,172.4z"/>
				<path id="Path_3438" class="st7" d="M63.9,79.1l-0.3,92.4l2.2-1.2l0.3-92.6L63.9,79.1z"/>
				<path id="Path_3439" class="st7" d="M60.5,73.4l2.2-1.3L-61,0.6l-2.2,1.3L60.5,73.4z"/>
				<path id="Path_3440" class="st7" d="M61.2,73.7c0.4,0.3,0.8,0.7,1.2,1.2c0.2,0.2,0.3,0.5,0.5,0.7c0.6,0.9,1,2,1,3.2l2.2-1.3
					c-0.1-2.3-1.4-4.4-3.3-5.7l-2.2,1.3C60.7,73.4,61,73.6,61.2,73.7z"/>
				<path id="Path_3441" class="st9" d="M63.1,173.4c0.1-0.1,0.1-0.2,0.2-0.3c0-0.1,0.1-0.2,0.2-0.2c0,0,0,0,0,0
					c0-0.2,0.2-0.3,0.2-0.5v-0.8l0.3-92.6c0-1.1-0.4-2.2-1-3.2c-0.1-0.3-0.3-0.5-0.5-0.7c-0.3-0.5-0.7-0.9-1.2-1.2
					c-0.2-0.2-0.5-0.3-0.7-0.5L-63.2,1.9h-0.2c-0.1-0.1-0.3-0.2-0.5-0.2H-64c-0.2,0-0.3,0-0.3-0.2H-65c-0.2,0-0.2,0-0.3,0.2
					c-0.7,0.3-1,1-1,2.2l-0.3,92.6c0.1,2.3,1.4,4.5,3.3,5.7l123.7,71.5c0.7,0.6,1.8,0.6,2.5,0C62.9,173.5,62.9,173.5,63.1,173.4z
					 M-64,96.8l0.3-89.9l0,0L61,78.9l-0.3,89.9l0,0L-64,96.8z"/>
			</g>
			<g id="Group_1174" transform="translate(0 100.944)">
				<path id="Path_3442" class="st10" d="M-65.9,50.6L-65.9,50.6l-0.5-0.5c0-0.1-0.1-0.2-0.2-0.2c0,0,0,0,0,0c0-0.2-0.2-0.2-0.2-0.3
					v-0.5l0,0V53c0.1,0.8,0.6,1.5,1.3,1.8V51C-65.5,51-65.7,50.8-65.9,50.6z"/>
				<path id="Path_3443" class="st11" d="M92.2,56.7L8,8l0,0L92.2,56.7z"/>
				<path id="Path_3444" class="st10" d="M146.4,74.6v0.2c0,0.2-0.2,0.2-0.2,0.3c0,0.1-0.1,0.2-0.2,0.2c0,0,0,0,0,0
					c0,0.2-0.2,0.2-0.3,0.3c0,0.1-0.1,0.2-0.2,0.2c0,0,0,0,0,0c-0.2,0.2-0.4,0.4-0.7,0.5v3.9c0.7-0.3,1.2-1,1.3-1.8v-3.9
					C146.4,74.3,146.4,74.4,146.4,74.6z"/>
				<path id="Path_3445" class="st11" d="M132.7,80.1L96,58.9l0,0L132.7,80.1z"/>
				<path id="Path_3446" class="st12" d="M8,8l-42,24.4l84.2,48.7l42-24.4L8,8z"/>
				<path id="Path_3447" class="st11" d="M54.2,83.1L96,58.9l0,0L54.2,83.1z"/>
				<path id="Path_3448" class="st11" d="M0.8,59.2l43.7,25.1l0,0L0.8,59.2z"/>
				<path id="Path_3449" class="st9" d="M5.6,80.6l-21.1-12.1l-2.2,1.3v5l16.6,9.5L5.6,80.6z"/>
				<path id="Path_3450" class="st9" d="M7,81.5l-6.5,3.9L17.3,95H26l2.2-1.3L7,81.5z"/>
				<path id="Path_3451" class="st13" d="M7,81.5l-1.3-0.8l-6.5,3.9l1.3,0.8L7,81.5z"/>
				<path id="Path_3452" class="st14" d="M5.6,80.6L7,81.5l21.4,12.4l16.1-9.5L0.8,59.2l0,0l-16.1,9.4l0,0L5.6,80.6z"/>
				<path id="Path_3453" class="st15" d="M26.2,95l2.2-1.2l0,0L26.2,95z"/>
				<path id="Path_3454" class="st12" d="M96,58.9L54.2,83.1l36.7,21.3l41.9-24.3L96,58.9z"/>
				<path id="Path_3455" class="st11" d="M28.4,93.8L28.4,93.8l16.1-9.5l0,0L28.4,93.8z"/>
				<path id="Path_3456" class="st16" d="M65.1,122.6v3.9l80-46.5v-3.9L65.1,122.6z"/>
				<path id="Path_3457" class="st9" d="M-65.2,51.2l-0.2,3.9l123.9,71.5v-3.9L-65.2,51.2z"/>
				<path id="Path_3458" class="st10" d="M58.5,122.6v3.9c2.1,1,4.5,1,6.5,0v-3.9C63,123.6,60.6,123.6,58.5,122.6z"/>
				<path id="Path_3459" class="st17" d="M-66.5,49.5v0.2c0,0.2,0.2,0.2,0.2,0.3c0,0.1,0.1,0.2,0.2,0.2c0,0,0,0,0,0
					c0,0.2,0.2,0.2,0.3,0.3l0.2,0.2c0.2,0.2,0.4,0.4,0.7,0.5l123.7,71.5c2.1,1,4.5,1,6.5,0l80-46.5c0.2-0.2,0.5-0.3,0.7-0.5l0.2-0.2
					l0.3-0.3c0-0.1,0.1-0.2,0.2-0.2c0,0,0,0,0,0c0-0.2,0.2-0.2,0.2-0.3v-0.2c0.1-0.9-0.4-1.8-1.3-2.2L21.7,0.8c-2.1-1-4.5-1-6.5,0
					l-80,46.5c-0.7,0.3-1.2,1-1.3,1.8C-66.7,49.3-66.5,49.5-66.5,49.5z M44.5,84.3l-16.2,9.4l0,0L26,94.9h-8.7L0.3,85l-1.3-0.8
					l-16.6-9.5v-5l2.2-1.3l0,0l16.2-9.4l0,0L44.5,84.3L44.5,84.3z M132.7,80.1l-41.9,24.3L54.2,83.1l0,0L96,58.9L132.7,80.1z
					 M92.2,56.7l-42,24.4l-84.2-48.7L8,8l0,0L92.2,56.7z"/>
			</g>
			<g id="Group_1175" transform="translate(32.649 107.725)">
				<path id="Path_3460" class="st9" d="M-21.7,10l6-3.5V5.2l-5.9,3.5L-21.7,10z"/>
				<path id="Path_3461" class="st9" d="M-21.5,8.7l-9.2-5.2v1.2l9,5.4L-21.5,8.7z"/>
				<path id="Path_3462" class="st14" d="M-15.6,5.2l-9-5.2l-6,3.5l9.2,5.2L-15.6,5.2z"/>
				<path id="Path_3463" class="st9" d="M-28.7,14.2l6-3.5V9.4l-6,3.5V14.2z"/>
				<path id="Path_3464" class="st9" d="M-28.7,12.9l-9.2-5.2v1.2l9.2,5.4L-28.7,12.9z"/>
				<path id="Path_3465" class="st14" d="M-22.7,9.4l-9.2-5.2l-6,3.5l9.2,5.2L-22.7,9.4z"/>
				<path id="Path_3466" class="st9" d="M-14,14.4l6-3.5V9.7l-6,3.5V14.4z"/>
				<path id="Path_3467" class="st9" d="M-20,9.7v1.2l6,3.5v-1.2L-20,9.7z"/>
				<path id="Path_3468" class="st14" d="M-14,13.2l6-3.5l-6-3.5l-6,3.5L-14,13.2z"/>
				<path id="Path_3469" class="st9" d="M2.9,24.1l6-3.3v-1.3l-6,3.5L2.9,24.1z"/>
				<path id="Path_3470" class="st9" d="M-12.3,14.1v1.3l15.2,8.7v-1.2L-12.3,14.1z"/>
				<path id="Path_3471" class="st14" d="M2.9,22.9l6-3.5l-15.4-8.9l-5.9,3.5L2.9,22.9z"/>
				<path id="Path_3472" class="st9" d="M-18,20.4l6-3.5v-1.3l-6,3.5L-18,20.4z"/>
				<path id="Path_3473" class="st9" d="M-27.2,13.9v1.2l9.2,5.4v-1.3L-27.2,13.9z"/>
				<path id="Path_3474" class="st14" d="M-27.2,13.9l9.2,5.2l6-3.5l-9.2-5.2L-27.2,13.9z"/>
				<path id="Path_3475" class="st9" d="M-7.3,26.6l6-3.5v-1.3l-6,3.5V26.6z"/>
				<path id="Path_3476" class="st9" d="M-16.5,20.1v1.2l9.2,5.4v-1.3L-16.5,20.1z"/>
				<path id="Path_3477" class="st14" d="M-16.5,20.1l9.2,5.2l6-3.5l-9.2-5.2L-16.5,20.1z"/>
				<path id="Path_3478" class="st9" d="M19.9,34l6-3.5v-1.3l-6,3.5V34z"/>
				<path id="Path_3479" class="st9" d="M4.4,23.8v1.3L19.8,34v-1.3L4.4,23.8z"/>
				<path id="Path_3480" class="st14" d="M19.8,32.6l6-3.5l-15.4-8.9l-6,3.5L19.8,32.6z"/>
				<path id="Path_3481" class="st9" d="M3.4,32.8l6-3.5V28l-6,3.5V32.8z"/>
				<path id="Path_3482" class="st9" d="M-5.8,26.3v1.2l9.2,5.4v-1.3L-5.8,26.3z"/>
				<path id="Path_3483" class="st14" d="M-5.8,26.3l9.2,5.2l6-3.5l-9.2-5.2L-5.8,26.3z"/>
				<path id="Path_3484" class="st9" d="M14.2,39l6-3.5v-1.3l-6,3.5L14.2,39z"/>
				<path id="Path_3485" class="st9" d="M5.1,32.5L5,33.7l9.2,5.4v-1.3L5.1,32.5z"/>
				<path id="Path_3486" class="st14" d="M5.1,32.5l9,5.2l6-3.5L11,29L5.1,32.5z"/>
				<path id="Path_3487" class="st9" d="M36.6,43.7l6-3.5v-1.3l-6,3.5V43.7z"/>
				<path id="Path_3488" class="st9" d="M21.4,33.5v1.3l15.2,8.9v-1.3L21.4,33.5z"/>
				<path id="Path_3489" class="st14" d="M36.6,42.4l6-3.5l-15.2-8.7l-6,3.3L36.6,42.4z"/>
				<path id="Path_3490" class="st9" d="M24.9,45.2l6-3.5v-1.3l-6,3.5V45.2z"/>
				<path id="Path_3491" class="st9" d="M15.8,38.7v1.2l9,5.4v-1.3L15.8,38.7z"/>
				<path id="Path_3492" class="st14" d="M15.8,38.7l9,5.2l6-3.5l-9.2-5.2L15.8,38.7z"/>
				<path id="Path_3493" class="st9" d="M53.5,53.4l6-3.5v-1.3l-6,3.5L53.5,53.4z"/>
				<path id="Path_3494" class="st9" d="M38.3,43.4v1.2l15.2,8.9v-1.3L38.3,43.4z"/>
				<path id="Path_3495" class="st14" d="M53.5,52.1l6-3.5l-15.2-8.7l-6,3.5L53.5,52.1z"/>
				<path id="Path_3496" class="st9" d="M35.6,51.4l6-3.5v-1.3l-6,3.5L35.6,51.4z"/>
				<path id="Path_3497" class="st9" d="M26.6,44.9V46l9,5.4v-1.3L26.6,44.9z"/>
				<path id="Path_3498" class="st14" d="M26.6,44.9l9,5.2l6-3.5l-9-5.2L26.6,44.9z"/>
				<path id="Path_3499" class="st9" d="M46.3,57.6l6-3.5v-1.3l-6,3.5V57.6z"/>
				<path id="Path_3500" class="st9" d="M37.3,51.1v1.2l9,5.4v-1.3L37.3,51.1z"/>
				<path id="Path_3501" class="st14" d="M37.3,51.1l9,5.2l6-3.5l-9-5.2L37.3,51.1z"/>
				<path id="Path_3502" class="st9" d="M65.6,60.3l5.9-3.5v-1.2l-5.9,3.5V60.3z"/>
				<path id="Path_3503" class="st9" d="M57.4,54.2v1.3l8.2,4.7v-1.2L57.4,54.2z"/>
				<path id="Path_3504" class="st14" d="M65.6,59.1l5.9-3.5l-8-4.7l-6,3.3L65.6,59.1z"/>
				<path id="Path_3505" class="st9" d="M74.9,65.8l6-3.5v-1.3l-6,3.5L74.9,65.8z"/>
				<path id="Path_3506" class="st9" d="M66.9,59.8v1.3l8,4.7v-1.3L66.9,59.8z"/>
				<path id="Path_3507" class="st14" d="M74.9,64.5l6-3.5l-8-4.5l-6,3.3L74.9,64.5z"/>
				<path id="Path_3508" class="st9" d="M84.5,71.3l6-3.5v-1.3l-6,3.5L84.5,71.3z"/>
				<path id="Path_3509" class="st9" d="M76.4,65.3v1.3l8,4.7V70L76.4,65.3z"/>
				<path id="Path_3510" class="st14" d="M84.5,70l6-3.5l-8-4.7l-6,3.5L84.5,70z"/>
				<path id="Path_3511" class="st9" d="M94,75.5v1.3l6-3.5V72L94,75.5z"/>
				<path id="Path_3512" class="st9" d="M86,70.8v1.3l8,4.7v-1.3L86,70.8z"/>
				<path id="Path_3513" class="st14" d="M100.1,72l-8-4.7l-6,3.5l8,4.7L100.1,72z"/>
				<path id="Path_3514" class="st9" d="M58.4,64.5l6-3.5v-1.3l-6,3.5V64.5z"/>
				<path id="Path_3515" class="st9" d="M50.2,58.4v1.3l8.2,4.7v-1.3L50.2,58.4z"/>
				<path id="Path_3516" class="st14" d="M50.2,58.4l8.2,4.7l6-3.5l-8.2-4.7L50.2,58.4z"/>
				<path id="Path_3517" class="st9" d="M67.9,70l6-3.5v-1.3l-6,3.5V70z"/>
				<path id="Path_3518" class="st9" d="M67.9,68.6L59.7,64v1.3l8.2,4.7V68.6z"/>
				<path id="Path_3519" class="st14" d="M73.9,65.1l-8.2-4.7l-6,3.5l8.2,4.7L73.9,65.1z"/>
				<path id="Path_3520" class="st9" d="M77.5,75.5l6-3.5v-1.3l-6,3.5L77.5,75.5z"/>
				<path id="Path_3521" class="st9" d="M77.4,74.2l-8.2-4.7v1.3l8.2,4.7V74.2z"/>
				<path id="Path_3522" class="st14" d="M83.5,70.7L75.3,66l-6,3.5l8.2,4.7L83.5,70.7z"/>
				<path id="Path_3523" class="st9" d="M87,81l5.9-3.5v-1.3L87,79.7V81z"/>
				<path id="Path_3524" class="st9" d="M78.8,75v1.2L87,81v-1.3L78.8,75z"/>
				<path id="Path_3525" class="st14" d="M78.8,75l8.2,4.7l5.9-3.5l-8-4.7L78.8,75z"/>
				<path id="Path_3526" class="st9" d="M-35.9,18.4l6-3.5v-1.3l-6,3.5V18.4z"/>
				<path id="Path_3527" class="st9" d="M-36.9,17.7l1,0.7v-1.3l-9.2-5.4v1.3L-36.9,17.7z"/>
				<path id="Path_3528" class="st14" d="M-29.9,13.6l-9.2-5.2l-6,3.3l9.2,5.4L-29.9,13.6z"/>
				<path id="Path_3529" class="st9" d="M-28.2,22.8L-28.2,22.8l6-3.5v-1.2l-6,3.3V22.8z"/>
				<path id="Path_3530" class="st9" d="M-28.2,21.4l-6-3.3v1.2l6,3.5L-28.2,21.4z"/>
				<path id="Path_3531" class="st14" d="M-34.2,18.1l6,3.3l6-3.3l-6-3.5L-34.2,18.1z"/>
				<path id="Path_3532" class="st9" d="M-11.3,32.5L-11.3,32.5l5.9-3.5v-1.2l-5.9,3.5V32.5z"/>
				<path id="Path_3533" class="st9" d="M-26.2,23.9l1.5,0.8l0,0l9.2,5.4l0,0L-14,31l0,0l2.7,1.5v-1.2l-15.4-8.9v1.2L-26.2,23.9z"/>
				<path id="Path_3534" class="st14" d="M-5.4,27.8l-15.2-8.9l-6,3.5l15.4,8.9L-5.4,27.8z"/>
				<path id="Path_3535" class="st9" d="M5.5,42.2L5.5,42.2l6-3.5v-1.2l-6,3.5L5.5,42.2z"/>
				<path id="Path_3536" class="st9" d="M-4.8,36.3l1.5,0.8l0,0l8.7,5V41l-15.2-8.9v1.2L-4.8,36.3z"/>
				<path id="Path_3537" class="st14" d="M11.5,37.5l-15.2-8.9l-6,3.5L5.5,41L11.5,37.5z"/>
				<path id="Path_3538" class="st9" d="M22.4,51.9L22.4,51.9l6-3.3v-1.3l-6,3.5V51.9z"/>
				<path id="Path_3539" class="st9" d="M22.4,51.9v-1.2L7,41.9v1.3l0.5,0.2l0,0l9.2,5.4l0,0l1.5,0.8l0,0L22.4,51.9z"/>
				<path id="Path_3540" class="st14" d="M28.4,47.2L13,38.3l-6,3.5l15.4,8.9L28.4,47.2z"/>
				<path id="Path_3541" class="st9" d="M39.3,61.8l5.9-3.5v-1.3l-5.9,3.5V61.8z"/>
				<path id="Path_3542" class="st9" d="M28.9,55.8l9.2,5.4l0,0l1.2,0.7v-1.3l-15.4-8.9v1.3l3.5,2l0,0L28.9,55.8z"/>
				<path id="Path_3543" class="st14" d="M45.1,56.9l-15.2-8.9l-6,3.5l15.4,8.9L45.1,56.9z"/>
				<path id="Path_3544" class="st9" d="M51.2,68.6l6-3.5v-1.3l-6,3.5V68.6z"/>
				<path id="Path_3545" class="st9" d="M43,62.6V64l8.2,4.7v-1.3L43,62.6z"/>
				<path id="Path_3546" class="st14" d="M51.2,67.3l6-3.5L49,59.1l-6,3.5L51.2,67.3z"/>
				<path id="Path_3547" class="st9" d="M60.7,74.2l6-3.5v-1.3l-6,3.5L60.7,74.2z"/>
				<path id="Path_3548" class="st9" d="M60.7,72.8l-8.2-4.7v1.3l8.2,4.7V72.8z"/>
				<path id="Path_3549" class="st14" d="M66.7,69.3l-8.2-4.7l-6,3.5l8.2,4.7L66.7,69.3z"/>
				<path id="Path_3550" class="st9" d="M70.3,79.5l6-3.3v-1.3l-6,3.5L70.3,79.5z"/>
				<path id="Path_3551" class="st9" d="M70.2,78.4L62,73.7v1.2l8.2,4.7V78.4z"/>
				<path id="Path_3552" class="st14" d="M76.3,74.8l-8.2-4.7l-6,3.5l8.2,4.7L76.3,74.8z"/>
				<path id="Path_3553" class="st9" d="M79.8,85.1l6-3.5v-1.2l-6,3.5V85.1z"/>
				<path id="Path_3554" class="st9" d="M71.6,79.2v1.2l8.2,4.7v-1.2L71.6,79.2z"/>
				<path id="Path_3555" class="st14" d="M71.6,79.2l8.2,4.7l6-3.5l-8.2-4.7L71.6,79.2z"/>
				<path id="Path_3556" class="st9" d="M-42.9,21.3v1.2l5.9-3.5l0.2-1.2l0,0L-42.9,21.3z"/>
				<path id="Path_3557" class="st9" d="M-42.9,21.3l-9.2-5.4v1.3l9.2,5.2L-42.9,21.3z"/>
				<path id="Path_3558" class="st14" d="M-36.9,17.7l-8.2-4.7l-1-0.7l-6,3.5l9.2,5.4L-36.9,17.7z"/>
				<path id="Path_3559" class="st9" d="M-32.2,27.5v1.2l6-3.5v-1.2l0,0L-32.2,27.5z"/>
				<path id="Path_3560" class="st9" d="M-41.4,22.1v1.3l9.2,5.2v-1.2L-41.4,22.1z"/>
				<path id="Path_3561" class="st14" d="M-34.2,19.3l-1.2-0.7l-6,3.5l9.2,5.4l6-3.5l-0.5-0.3l-1.5-0.8l0,0L-34.2,19.3z"/>
				<path id="Path_3562" class="st9" d="M-21.5,33.7v1.2l6-3.5v-1.2l0,0L-21.5,33.7z"/>
				<path id="Path_3563" class="st9" d="M-30.7,28.3v1.3l9.2,5.2v-1.2L-30.7,28.3z"/>
				<path id="Path_3564" class="st14" d="M-15.5,30.1l-9.2-5.4l0,0l-6,3.5l9.2,5.4L-15.5,30.1z"/>
				<path id="Path_3565" class="st9" d="M-10.8,39.8V41l6-3.5v-1.2l0,0L-10.8,39.8z"/>
				<path id="Path_3566" class="st9" d="M-20,34.5v1.3l9.2,5.2v-1.2L-20,34.5z"/>
				<path id="Path_3567" class="st14" d="M-14,31L-14,31l-6,3.5l9.2,5.4l6-3.5l-5-3l-1.5-0.8l0,0L-14,31z"/>
				<path id="Path_3568" class="st9" d="M-0.1,47.2l6-3.5v-1.2l-6,3.5L-0.1,47.2z"/>
				<path id="Path_3569" class="st9" d="M-9.3,40.7V42l9.2,5.2V46L-9.3,40.7z"/>
				<path id="Path_3570" class="st14" d="M-3.3,37.2L-3.3,37.2l-6,3.5l9.2,5.4l6-3.5l-0.5-0.3l0,0L-3.3,37.2z"/>
				<path id="Path_3571" class="st9" d="M10.6,52.2v1.2l6-3.5v-1.2l0,0L10.6,52.2z"/>
				<path id="Path_3572" class="st9" d="M1.4,46.9v1.3l9.2,5.2v-1.2L1.4,46.9z"/>
				<path id="Path_3573" class="st14" d="M16.7,48.7l-9.2-5.4l0,0l-6,3.5l9.2,5.4L16.7,48.7z"/>
				<path id="Path_3574" class="st9" d="M21.4,58.4v1.2l6-3.5v-1.2l0,0L21.4,58.4z"/>
				<path id="Path_3575" class="st9" d="M12.2,53.1v1.3l9.2,5.2v-1.2L12.2,53.1z"/>
				<path id="Path_3576" class="st14" d="M27.4,54.9l-3.5-2l-1.5-1l0,0l-4.2-2.3l0,0l-6,3.5l9.2,5.4L27.4,54.9z"/>
				<path id="Path_3577" class="st9" d="M32.1,64.6v1.2l6-3.5v-1.2l0,0L32.1,64.6z"/>
				<path id="Path_3578" class="st9" d="M23,59.3v1.3l9,5.2v-1.2L23,59.3z"/>
				<path id="Path_3579" class="st14" d="M38.1,61.1l-9.2-5.4l0,0L23,59.3l9,5.4L38.1,61.1z"/>
				<path id="Path_3580" class="st9" d="M44,72.8l6-3.5V68l-6,3.5L44,72.8z"/>
				<path id="Path_3581" class="st9" d="M44,71.5l-8-4.7v1.3l8,4.7V71.5z"/>
				<path id="Path_3582" class="st14" d="M50,68l-8-4.7l-6,3.5l8,4.7L50,68z"/>
				<path id="Path_3583" class="st9" d="M53.5,78.4l6-3.5v-1.3l-6,3.5L53.5,78.4z"/>
				<path id="Path_3584" class="st9" d="M53.5,77l-8-4.7v1.2l8,4.9L53.5,77z"/>
				<path id="Path_3585" class="st14" d="M59.5,73.5l-8-4.7l-6,3.5l8,4.7L59.5,73.5z"/>
				<path id="Path_3586" class="st9" d="M63.1,83.7l6-3.5V79l-6,3.5V83.7z"/>
				<path id="Path_3587" class="st9" d="M63,82.5l-8.2-4.7V79l8.2,4.7V82.5z"/>
				<path id="Path_3588" class="st14" d="M69.1,79l-8.2-4.7l-6,3.5l8.2,4.7L69.1,79z"/>
				<path id="Path_3589" class="st9" d="M72.6,89.2l6-3.5v-1.2l-6,3.5V89.2z"/>
				<path id="Path_3590" class="st9" d="M64.4,83.4v1.2l8.2,4.7v-1.2L64.4,83.4z"/>
				<path id="Path_3591" class="st14" d="M64.4,83.4l8.2,4.7l6-3.5l-8.2-4.7L64.4,83.4z"/>
				<path id="Path_3592" class="st9" d="M-50.3,26.6l6-3.3v-1.3l-6,3.5L-50.3,26.6z"/>
				<path id="Path_3593" class="st9" d="M-50.3,25.4l-9-5.4v1.3l9,5.2L-50.3,25.4z"/>
				<path id="Path_3594" class="st14" d="M-44.3,21.9l-9.2-5.4l-5.9,3.5l9,5.4L-44.3,21.9z"/>
				<path id="Path_3595" class="st9" d="M-39.6,32.8l6-3.3v-1.3l-6,3.5V32.8z"/>
				<path id="Path_3596" class="st9" d="M-48.6,26.3v1.3l9,5.2v-1.2L-48.6,26.3z"/>
				<path id="Path_3597" class="st14" d="M-48.6,26.3l9,5.4l6-3.5l-9-5.4L-48.6,26.3z"/>
				<path id="Path_3598" class="st9" d="M-28.9,39l6-3.3v-1.3l-6,3.5L-28.9,39z"/>
				<path id="Path_3599" class="st9" d="M-28.9,37.8l-9-5.4v1.3l9,5.2L-28.9,37.8z"/>
				<path id="Path_3600" class="st14" d="M-22.8,34.3l-9-5.4l-6,3.5l9,5.4L-22.8,34.3z"/>
				<path id="Path_3601" class="st9" d="M-18.2,45.2l6-3.3v-1.3l-6,3.5V45.2z"/>
				<path id="Path_3602" class="st9" d="M-18.2,44l-9-5.4V40l9,5.2L-18.2,44z"/>
				<path id="Path_3603" class="st14" d="M-12.1,40.5l-9-5.4l-6,3.5l9,5.4L-12.1,40.5z"/>
				<path id="Path_3604" class="st9" d="M-7.3,51.4l5.9-3.3v-1.3l-5.9,3.5V51.4z"/>
				<path id="Path_3605" class="st9" d="M-7.3,50.2l-9.2-5.4v1.3l9.2,5.2L-7.3,50.2z"/>
				<path id="Path_3606" class="st14" d="M-1.4,46.7l-9-5.4l-6,3.5l9.2,5.4L-1.4,46.7z"/>
				<path id="Path_3607" class="st9" d="M3.4,57.6l6-3.5v-1.2l-6,3.5V57.6z"/>
				<path id="Path_3608" class="st9" d="M3.4,56.4l-9.2-5.4v1.3l9.2,5.2V56.4z"/>
				<path id="Path_3609" class="st14" d="M9.5,52.9l-9.2-5.4l-6,3.5l9.2,5.4L9.5,52.9z"/>
				<path id="Path_3610" class="st9" d="M14.2,63.8l6-3.3v-1.3l-6,3.5L14.2,63.8z"/>
				<path id="Path_3611" class="st9" d="M14.2,62.6L5,57.3v1.3l9.2,5.2L14.2,62.6z"/>
				<path id="Path_3612" class="st14" d="M20.2,59.1L11,53.7l-6,3.5l9.2,5.4L20.2,59.1z"/>
				<path id="Path_3613" class="st9" d="M24.9,70l6-3.3v-1.3l-6,3.5V70z"/>
				<path id="Path_3614" class="st9" d="M24.9,68.8l-9.2-5.4v1.3l9.2,5.2L24.9,68.8z"/>
				<path id="Path_3615" class="st14" d="M30.9,65.3l-9.2-5.4l-6,3.5l9.2,5.4L30.9,65.3z"/>
				<path id="Path_3616" class="st9" d="M36.8,76.9l6-3.3v-1.3l-5.9,3.5L36.8,76.9z"/>
				<path id="Path_3617" class="st9" d="M36.9,75.7L28.7,71v1.2l8,4.7L36.9,75.7z"/>
				<path id="Path_3618" class="st14" d="M42.8,72.2l-8-4.7l-6,3.5l8.2,4.7L42.8,72.2z"/>
				<path id="Path_3619" class="st9" d="M46.3,82.4l6-3.5v-1.2l-6,3.5V82.4z"/>
				<path id="Path_3620" class="st9" d="M46.3,81.2l-8-4.7v1.2l8,4.7V81.2z"/>
				<path id="Path_3621" class="st14" d="M52.3,77.7l-8-4.7l-6,3.5l8,4.7L52.3,77.7z"/>
				<path id="Path_3622" class="st9" d="M55.9,87.9l6-3.5v-1.2l-6,3.5V87.9z"/>
				<path id="Path_3623" class="st9" d="M55.9,86.7l-8-4.7v1.2l8,4.7V86.7z"/>
				<path id="Path_3624" class="st14" d="M61.9,83.2l-8-4.7l-6,3.5l8,4.7L61.9,83.2z"/>
				<path id="Path_3625" class="st9" d="M65.4,93.4l6-3.5v-1.2l-6,3.3V93.4z"/>
				<path id="Path_3626" class="st9" d="M57.4,87.4v1.3l8,4.7v-1.3L57.4,87.4z"/>
				<path id="Path_3627" class="st14" d="M57.4,87.4l8,4.7l6-3.3l-8-4.7L57.4,87.4z"/>
				<path id="Path_3628" class="st9" d="M-51.5,26.1l-6,3.5V31l6-3.5V26.1z"/>
				<path id="Path_3629" class="st9" d="M-66.7,24.4v1.2l9.2,5.4v-1.3L-66.7,24.4z"/>
				<path id="Path_3630" class="st14" d="M-51.5,26.1l-9.2-5.2l-6,3.5l9.2,5.2L-51.5,26.1z"/>
				<path id="Path_3631" class="st9" d="M-43.8,30.6l-6,3.5v1.2l5.9-3.5L-43.8,30.6z"/>
				<path id="Path_3632" class="st9" d="M-56,30.6v1.2l6.2,3.5v-1.2L-56,30.6z"/>
				<path id="Path_3633" class="st14" d="M-43.8,30.6l-6.2-3.5l-6,3.5l6.2,3.5L-43.8,30.6z"/>
				<path id="Path_3634" class="st9" d="M6.8,59.8l-6,3.5v1.2l6-3.3V59.8z"/>
				<path id="Path_3635" class="st9" d="M-48.3,35v1.2L0.8,64.5v-1.2L-48.3,35z"/>
				<path id="Path_3636" class="st14" d="M6.8,59.8l-49.1-28.3l-6,3.5L0.8,63.3L6.8,59.8z"/>
				<path id="Path_3637" class="st9" d="M23.5,69.5l-6,3.5v1.3l6-3.5V69.5z"/>
				<path id="Path_3638" class="st9" d="M2.3,64.1v1.3l15.2,8.9V73L2.3,64.1z"/>
				<path id="Path_3639" class="st14" d="M23.5,69.5L8.3,60.6l-6,3.5L17.5,73L23.5,69.5z"/>
				<path id="Path_3640" class="st9" d="M35.8,76.4l-6,3.5V81l6-3.5L35.8,76.4z"/>
				<path id="Path_3641" class="st9" d="M21.5,75.2v1.2l8.2,4.7v-1.2L21.5,75.2z"/>
				<path id="Path_3642" class="st14" d="M35.8,76.3l-8.2-4.7l-6,3.5l8.2,4.7L35.8,76.3z"/>
				<path id="Path_3643" class="st9" d="M45.3,81.9l-6,3.5v1.2l5.9-3.5L45.3,81.9z"/>
				<path id="Path_3644" class="st9" d="M31.1,80.7v1.2l8.2,4.7v-1.2L31.1,80.7z"/>
				<path id="Path_3645" class="st14" d="M45.3,81.9l-8.2-4.7l-6,3.5l8.2,4.7L45.3,81.9z"/>
				<path id="Path_3646" class="st9" d="M54.8,87.4l-6,3.5v1.2l5.9-3.5L54.8,87.4z"/>
				<path id="Path_3647" class="st9" d="M40.6,86.1v1.3l8.2,4.7v-1.2L40.6,86.1z"/>
				<path id="Path_3648" class="st14" d="M54.8,87.4l-8.2-4.7l-6,3.3l8.2,4.9L54.8,87.4z"/>
				<path id="Path_3649" class="st9" d="M58.2,97.6l6-3.5v-1.2l-6,3.3L58.2,97.6z"/>
				<path id="Path_3650" class="st9" d="M50.2,91.6v1.3l8,4.7v-1.3L50.2,91.6z"/>
				<path id="Path_3651" class="st14" d="M50.2,91.6l8,4.7l6-3.3l-8-4.9L50.2,91.6z"/>
			</g>
			<path id="Path_3652" class="st12" d="M145.6,169L20.9,96.8l0.3-89.9l1,0.7v88.7l123.6,71.2L145.6,169z"/>
		</g>
		
			<image style="overflow:visible;" width="106" height="174" id="QR_x5F_code" xlink:href="prespective_QR_code@2x.png"  transform="matrix(0.4912 0 0 0.5086 55.0053 43.1651)">
		</image>
	</g>
	<g id="full_control_mobile_account" transform="translate(892.68 5077.669)">
		<path id="Path_4766" class="st17" d="M-66.7,6.6c0-3,2.1-4.2,4.7-2.7l41.7,24c2.8,1.8,4.5,4.9,4.7,8.2v106.7c0,3-2.1,4.2-4.7,2.7
			l-41.7-24c-2.8-1.8-4.5-4.9-4.7-8.2V6.6z"/>
		
			<linearGradient id="Path_4767_1_" gradientUnits="userSpaceOnUse" x1="-466.2399" y1="579.0021" x2="-466.2399" y2="577.1241" gradientTransform="matrix(46.8548 0 0 -124.1952 21804.3809 71900.625)">
			<stop  offset="0" style="stop-color:#5CBEEC"/>
			<stop  offset="1" style="stop-color:#3E67B1"/>
		</linearGradient>
		<path id="Path_4767" class="st18" d="M-64.6,102.1c0.1,1.4,0.8,2.6,2,3.4l42.9,24.8c0.5,0.4,1.3,0.4,1.7-0.1
			c0.2-0.3,0.3-0.6,0.3-1V34.8c-0.1-1.4-0.8-2.6-2-3.4L-62.6,6.7c-0.5-0.4-1.3-0.4-1.7,0.1c-0.2,0.3-0.3,0.6-0.3,1V102.1z"/>
		<path id="Path_4768" class="st19" d="M-45.3,122.2c0.1,2.9,1.7,5.6,4.2,7.2c2.3,1.3,4.2,0.3,4.2-2.4c-0.2-2.9-1.7-5.6-4.2-7.2
			C-43.5,118.5-45.3,119.6-45.3,122.2z"/>
		
			<image style="overflow:visible;" width="106" height="174" id="QR_x5F_code_1_" xlink:href="prespective_QR_code@2x.png"  transform="matrix(0.2416 0 0 0.2502 -56.2559 45.451)">
		</image>
		<path id="Path_4769" class="st20" d="M-15.6,142.8V36.1c-0.2-3.3-1.9-6.4-4.7-8.2L-62,3.8C-63,3.2-64.2,3-65.3,3.5l0,0l5.6-3.2
			c1.1-0.4,2.2-0.2,3.2,0.4l41.7,24c2.8,1.8,4.5,4.9,4.7,8.2v106.7c0.1,1.2-0.4,2.4-1.4,3.1l-5.2,3C-16,144.9-15.5,143.8-15.6,142.8
			z"/>
	</g>
	
		<pattern  id="prespective_QR_code-2_1_" xlink:href="#pattern" patternTransform="matrix(4.347826e-02 0 0 -4.320337e-02 -7098.4321 -8611.2646)">
	</pattern>
	<rect id="prespective_QR_code-2" x="837.3" y="5124" class="st21" width="25" height="41"/>
	
		<linearGradient id="Path_4770_1_" gradientUnits="userSpaceOnUse" x1="423.3278" y1="5656.729" x2="422.4158" y2="5656.4155" gradientTransform="matrix(170.6499 0 0 -160.7549 -71206.9922 914400.25)">
		<stop  offset="0" style="stop-color:#4BB3FF;stop-opacity:0"/>
		<stop  offset="0.468" style="stop-color:#44AFFD;stop-opacity:0.275"/>
		<stop  offset="1" style="stop-color:#24E5F5"/>
	</linearGradient>
	<path id="Path_4770" class="st22" d="M869.3,5097.8l46.2-106.6l123.3,70.8l1.2,89.9l-157.8-28.7v-12c0,0-0.6-6.3-3.8-8.4
		S869.3,5097.8,869.3,5097.8z"/>
	
		<linearGradient id="Path_4771_1_" gradientUnits="userSpaceOnUse" x1="423.4769" y1="5601.0918" x2="424.4649" y2="5601.2744" gradientTransform="matrix(124.4253 71.837 1.326 -2.2967 -59202.9648 -12513.2139)">
		<stop  offset="0" style="stop-color:#FF0000;stop-opacity:0"/>
		<stop  offset="0.488" style="stop-color:#E20000"/>
		<stop  offset="1" style="stop-color:#FF0000;stop-opacity:0"/>
	</linearGradient>
	<path id="Path_4771" class="st23" d="M915.9,5043.3l123.8,70.7l-0.1,2.4l-123.7-70.8L915.9,5043.3z"/>
	<g id="mask" transform="translate(508.271 4784.538)">
		<g id="XMLID_1712_" transform="translate(278.8 183.5)">
			
				<linearGradient id="XMLID_2_" gradientUnits="userSpaceOnUse" x1="-364.1612" y1="688.298" x2="-363.9752" y2="687.8939" gradientTransform="matrix(164.435 0 0 -131.4865 59895.5273 90548.1484)">
				<stop  offset="0" style="stop-color:#45260F"/>
				<stop  offset="0.689" style="stop-color:#917163"/>
				<stop  offset="1" style="stop-color:#BA9D96"/>
			</linearGradient>
			<path id="XMLID_394_" class="st24" d="M97.7,2.3C97.9,0.8,96.1,0,96.1,0S90,7.2,81.5,16.1C73,24.9,70.1,23.8,54,28.7
				c-12,3.7-23.2,25.8-31,31.7C15.2,63.5-7.5,61-19.6,71.1c-16.1,13.6-24,20.2-32.5,21.3c-4.8,0.6-9.7,0.9-14.6,0.8
				c2.7,5.6,5.8,10.9,9.4,15.8c7.1,10.4,18.4,22.9,31.8,22.4c23.8-0.8,36.2-11.6,44.3-25.4c0.1-0.1,0.2-0.3,0.2-0.4
				c4.1-7.2,6.3-10.8,8-13.3c0.6-0.7,5.3-5.7,8.4-3.4c0.1,0.1,0.1,0.3,0.2,0.4c0.4,1.1,1,2.2,1.9,3c2.3,5.1,7.8,4.4,14.2,2.3
				c8-2.6,10.9-5.8,20.5-15.5C90,61.4,97.7,2.3,97.7,2.3L97.7,2.3z M74.2,50.3C71.2,54.2,63.6,63.7,54.5,69
				c-5.4,3.3-11.8,4.8-18.1,4.3c2.9-3.9,10.7-13.5,19.7-18.7C61.5,51.3,67.9,49.8,74.2,50.3L74.2,50.3z M-10.8,106.7
				c-5.4,3.3-11.8,4.8-18.1,4.3c2.9-3.9,10.6-13.5,19.7-18.7c5.4-3.3,11.8-4.8,18.1-4.3C6,91.9-1.7,101.5-10.8,106.7L-10.8,106.7z"
				/>
			<g id="XMLID_1682_">
				<path id="XMLID_1691_" class="st25" d="M-66.7,93.3c0,0,16.8,36.8,39.6,35.9c23.8-0.8,36.2-11.6,44.3-25.4
					c4.3-7.5,6.5-11.1,8.2-13.7c0.8-0.9,7.5-8.1,10.2-0.6c3.8,10.3,19.8,2.8,35-12.5C86.3,61.2,96.1,13.4,97.8,2.3
					C98,0.8,96.1,0,96.1,0s-6.1,7.2-14.6,16.1C73,24.9,70.1,23.7,54,28.7c-12,3.7-23.2,25.8-31,31.7C15.2,63.5-7.5,61-19.5,71.1
					c-16.1,13.6-24,20.2-32.5,21.3C-56.9,93.1-61.8,93.3-66.7,93.3z M33.4,72.8c0,0,9.4-13.8,21-20.5s21-3.8,21-3.8
					s-9.4,13.8-21,20.5C42.9,75.7,33.4,72.8,33.4,72.8z M-31.8,110.4c0,0,9.4-13.8,21-20.5s21-3.8,21-3.8s-9.4,13.8-21,20.5
					S-31.8,110.4-31.8,110.4z"/>
				<path id="XMLID_1684_" class="st26" d="M83.1,18.4c-8.6,8.8-11.4,7.7-27.5,12.7c-9.8,3-18.8,18-26.1,26.8L29.3,58
					c-0.1,0.1-0.2,0.3-0.3,0.4c-1.3,1.6-2.7,3.1-4.3,4.3c-1.6,0.6-3.4,1-5.1,1.2c-0.6,0.1-1.3,0.2-2,0.2c-1.2,0.2-2.5,0.3-3.8,0.4
					c-10.1,0.9-23.4,1.9-31.7,8.9c-16.1,13.6-24,20.2-32.5,21.3c-4.8,0.6-9.7,0.9-14.6,0.8c0,0,16.8,36.8,39.6,36
					c23.8-0.8,36.2-11.6,44.3-25.4c0.1-0.1,0.2-0.3,0.2-0.4c4.1-7.2,6.3-10.8,8-13.3c0.6-0.7,5.3-5.7,8.4-3.4
					c0.8,0.7,1.5,1.7,1.8,2.7c2.1,5.9,7.8,5.1,14.4,3c8-2.6,10.9-5.8,20.5-15.5C90,61.4,97.7,2.3,97.7,2.3S91.6,9.6,83.1,18.4z
					 M-9.1,109c-11.6,6.7-21,3.8-21,3.8s9.4-13.8,21-20.5s21-3.8,21-3.8S2.5,102.3-9.1,109z M56.1,71.3c-11.6,6.7-21,3.8-21,3.8
					s9.4-13.8,21-20.5s21-3.8,21-3.8S67.7,64.7,56.1,71.3L56.1,71.3z"/>
			</g>
			<path id="XMLID_1773_" class="st27" d="M35.4,89.1c-3.1-2.4-7.7,2.7-8.4,3.4c-1.7,2.5-3.9,6.1-8,13.3c-0.1,0.1-0.2,0.3-0.2,0.4
				c3.2-13.3,0.3-17.8-0.9-30.5c-0.3-3.8-0.4-7.7-0.3-11.5c0.7-0.1,1.3-0.2,2-0.2c1.7-0.2,3.4-0.6,5.1-1.2c1.6-1.3,3-2.8,4.3-4.3
				c0.1-0.1,0.2-0.3,0.3-0.4C29.4,68.7,31.5,79.2,35.4,89.1z"/>
			<path id="XMLID_1685_" class="st28" d="M32.6,85.3c-0.1-0.8-0.3-1.5-0.7-2.2c-0.6-1.5-1.2-3-1.6-4.6c-0.5-1.6-1.2-3.2-2-4.7
				c-0.6-1.3-1.3-2.5-2-3.8c-0.1-0.2-0.2-0.4-0.5-0.4c-0.2,0-0.3,0.2-0.5,0.3c-1,1.4-1.7,3-2,4.7c-0.3,2-0.2,4.1,0.1,6.1
				c0.2,2.3,0.5,4.5,0.6,6.8c0.2,2.1,0.1,4.2,0.3,6.4c0.1,0.2,0.1,0.6,0.4,0.6s0.5-0.2,0.6-0.5c0.3-1,0.7-1.9,1.2-2.7
				c0.9-1.3,2.1-2.3,3.4-3C31.5,87.7,32.7,87.1,32.6,85.3z"/>
		</g>
	</g>
	<path id="Path_4772" class="st29" d="M857.9,5131.4l7.4,4.2v8.9"/>
	<path id="Path_4773" class="st29" d="M863.3,5160.9v9.4l-7.6-4.2"/>
	<path id="Path_4774" class="st29" d="M842.5,5123l-7.7-4.6v10.2"/>
	<path id="Path_4775" class="st29" d="M834.8,5146.7v8.4l6,3.5"/>
</g>
</svg>
