<svg xmlns="http://www.w3.org/2000/svg" xmlns:xlink="http://www.w3.org/1999/xlink" viewBox="0 0 1366 1269.719"><defs><style>.a{fill:url(#a);}.b{opacity:0.32;}.c{fill:url(#b);}.d{fill:url(#c);}.e{fill:url(#d);}.f{fill:url(#e);}.g{fill:url(#f);}.h{fill:url(#g);}.i{fill:url(#h);}.j{fill:url(#i);}.k{fill:url(#j);}.l{fill:url(#k);}.m{fill:url(#l);}.n{fill:url(#m);}.o{fill:url(#n);}.p{fill:url(#o);}.q{fill:url(#p);}.r{fill:url(#q);}.s{fill:url(#r);}.t{fill:url(#s);}.u{fill:url(#t);}.v{fill:url(#u);}.w{fill:url(#v);}.x{fill:url(#x);}.y{fill:url(#y);}.z{fill:url(#z);}.aa{fill:url(#aa);}.ab{fill:url(#ab);}.ac{fill:url(#ac);}.ad{fill:url(#ad);}.ae{fill:url(#ae);}.af{opacity:0.799;}.ag{fill:#00ade5;opacity:0;}.ah{fill:#00b2e6;opacity:0.091;}.ai{fill:#00b7e8;opacity:0.182;}.aj{fill:#2bbeea;opacity:0.273;}.ak{fill:#56c4ec;opacity:0.364;}.al{fill:#73cbee;opacity:0.454;}.am{fill:#8cd2f1;opacity:0.545;}.an{fill:#a4daf3;opacity:0.636;}.ao{fill:#bae2f6;opacity:0.727;}.ap{fill:#d0ebf9;opacity:0.818;}.aq{fill:#e6f4fc;opacity:0.909;}.ar{fill:#fff;}.as{fill:url(#ch);}.at{fill:url(#ci);}.au{fill:url(#cj);}.av{fill:url(#ck);}.aw{fill:#00b4d4;}.ax{fill:url(#cl);}.ay{fill:url(#cm);}.az{fill:url(#cn);}.ba{fill:url(#co);}.bb{fill:url(#cp);}.bc{fill:url(#cq);}.bd{fill:url(#cr);}.be{fill:url(#cs);}.bf{fill:url(#ct);}.bg{fill:url(#cu);}.bh{fill:url(#cv);}.bi{fill:url(#cw);}.bj{fill:#00bad5;}.bk{fill:url(#cx);}.bl{fill:url(#cy);}.bm{fill:url(#cz);}.bn{fill:url(#da);}.bo{fill:url(#db);}.bp{fill:url(#dc);}.bq{fill:url(#dd);}.br{fill:url(#de);}.bs{fill:url(#df);}.bt{fill:url(#dg);}.bu{fill:url(#dh);}.bv{fill:url(#di);}.bw{fill:url(#dj);}.bx{fill:url(#dk);}.by{fill:url(#dl);}.bz{fill:url(#dm);}.ca{fill:url(#dn);}.cb{fill:url(#do);}.cc{fill:url(#dp);}.cd{fill:url(#dq);}.ce{fill:url(#dr);}.cf{fill:url(#ds);}.cg{fill:url(#dt);}.ch{fill:url(#du);}.ci{fill:url(#dv);}.cj{fill:url(#dw);}.ck{fill:url(#dx);}.cl{fill:url(#dy);}.cm{fill:url(#dz);}.cn{fill:url(#ea);}.co{fill:url(#eb);}.cp{fill:url(#ec);}.cq{fill:url(#ed);}.cr{fill:url(#ee);}.cs{fill:url(#ef);}.ct{fill:url(#eg);}.cu{fill:url(#eh);}.cv{fill:url(#ei);}.cw{fill:url(#ej);}.cx{fill:url(#ek);}.cy{fill:url(#el);}.cz{fill:url(#em);}.da{fill:url(#en);}.db{fill:url(#eo);}.dc{fill:url(#ep);}.dd{fill:url(#eq);}.de{fill:url(#er);}.df{fill:url(#es);}.dg{fill:url(#et);}.dh{fill:url(#eu);}.di{fill:url(#ev);}.dj{fill:url(#ew);}.dk{fill:url(#ex);}.dl{fill:url(#ey);}.dm{fill:url(#ez);}.dn{fill:url(#fa);}.do{fill:url(#fb);}.dp{fill:url(#fc);}.dq{fill:url(#fd);}.dr{fill:url(#fe);}.ds{fill:url(#ff);}.dt{fill:url(#fg);}.du{fill:url(#fh);}.dv{fill:url(#fi);}.dw{fill:url(#fj);}.dx{fill:url(#fk);}.dy{fill:url(#fl);}.dz{opacity:0.585;fill:url(#fm);}.ea{fill:url(#mc);}.eb{fill:#0090d2;}.ec{fill:url(#md);}.ed{fill:url(#me);}.ee{fill:url(#mf);}.ef{fill:url(#mg);}.eg{fill:url(#mh);}.eh{fill:url(#mi);}.ei{fill:url(#mj);}</style><linearGradient id="a" x1="0.5" x2="0.5" y2="1" gradientUnits="objectBoundingBox"><stop offset="0" stop-color="#e793ff"/><stop offset="0.433" stop-color="#7b3df5"/><stop offset="0.7" stop-color="#4a7cee"/><stop offset="1" stop-color="#3d56cd"/></linearGradient><linearGradient id="b" x1="0.342" y1="-0.459" x2="0.869" y2="2.75" gradientUnits="objectBoundingBox"><stop offset="0" stop-color="#0068e6"/><stop offset="1" stop-color="#00d7fe"/></linearGradient><linearGradient id="c" x1="0.03" y1="0.219" x2="1.618" y2="1.172" gradientUnits="objectBoundingBox"><stop offset="0" stop-color="#0068e6"/><stop offset="1" stop-color="#00c6fd"/></linearGradient><linearGradient id="d" x1="1.176" y1="-0.029" x2="-0.129" y2="0.992" gradientUnits="objectBoundingBox"><stop offset="0" stop-color="#009def"/><stop offset="0.043" stop-color="#0093eb"/><stop offset="0.28" stop-color="#005fd8"/><stop offset="0.502" stop-color="#0036ca"/><stop offset="0.703" stop-color="#0018bf"/><stop offset="0.876" stop-color="#0006b8"/><stop offset="1" stop-color="#0000b6"/></linearGradient><linearGradient id="e" x1="0.343" y1="-0.458" x2="0.869" y2="2.75" xlink:href="#b"/><linearGradient id="f" x1="-0.293" y1="0.205" x2="2.389" y2="1.203" xlink:href="#c"/><linearGradient id="g" x1="1.721" y1="-0.093" x2="-0.634" y2="1.05" xlink:href="#d"/><linearGradient id="h" x1="0.343" y1="-0.457" x2="0.869" y2="2.748" xlink:href="#b"/><linearGradient id="i" x1="-0.744" y1="0.197" x2="3.465" y2="1.221" xlink:href="#c"/><linearGradient id="j" x1="2.483" y1="-0.129" x2="-1.34" y2="1.083" xlink:href="#d"/><linearGradient id="k" x1="0.343" y1="-0.458" x2="0.869" y2="2.748" xlink:href="#b"/><linearGradient id="l" x1="-0.744" y1="0.197" x2="3.465" y2="1.222" xlink:href="#c"/><linearGradient id="m" x1="2.483" y1="-0.129" x2="-1.34" y2="1.084" xlink:href="#d"/><linearGradient id="n" x1="0.343" y1="-0.458" x2="0.869" y2="2.75" xlink:href="#b"/><linearGradient id="o" x1="-0.293" y1="0.205" x2="2.389" y2="1.203" xlink:href="#c"/><linearGradient id="p" x1="1.721" y1="-0.093" x2="-0.634" y2="1.05" xlink:href="#d"/><linearGradient id="q" x1="0.343" y1="-0.458" x2="0.869" y2="2.748" xlink:href="#b"/><linearGradient id="r" x1="-0.292" y1="0.205" x2="2.389" y2="1.204" xlink:href="#c"/><linearGradient id="s" x1="1.722" y1="-0.093" x2="-0.633" y2="1.05" xlink:href="#d"/><linearGradient id="t" x1="0.343" y1="-0.457" x2="0.869" y2="2.749" xlink:href="#b"/><linearGradient id="u" x1="-0.293" y1="0.205" x2="2.389" y2="1.203" xlink:href="#c"/><linearGradient id="v" x1="1.721" y1="-0.093" x2="-0.634" y2="1.05" xlink:href="#d"/><linearGradient id="x" x1="-0.036" y1="0.214" x2="1.776" y2="1.181" xlink:href="#c"/><linearGradient id="y" x1="1.288" y1="-0.047" x2="-0.231" y2="1.008" xlink:href="#d"/><linearGradient id="z" x1="0.343" y1="-0.457" x2="0.869" y2="2.748" xlink:href="#b"/><linearGradient id="aa" x1="0.031" y1="0.218" x2="1.619" y2="1.171" xlink:href="#c"/><linearGradient id="ab" x1="1.177" y1="-0.029" x2="-0.128" y2="0.991" xlink:href="#d"/><linearGradient id="ac" x1="0.343" y1="-0.457" x2="0.869" y2="2.748" xlink:href="#b"/><linearGradient id="ad" x1="0.03" y1="0.218" x2="1.619" y2="1.171" xlink:href="#c"/><linearGradient id="ae" x1="1.176" y1="-0.029" x2="-0.127" y2="0.991" xlink:href="#d"/><linearGradient id="ch" x1="-0.143" y1="0.187" x2="1.284" y2="0.881" gradientUnits="objectBoundingBox"><stop offset="0" stop-color="#005fb4"/><stop offset="1" stop-color="#0093ff"/></linearGradient><linearGradient id="ci" x1="0.586" y1="0.061" x2="0.532" y2="0.881" xlink:href="#ch"/><linearGradient id="cj" x1="0.5" y1="0" x2="0.5" y2="1" xlink:href="#ch"/><linearGradient id="ck" x1="-0.446" y1="-0.644" x2="1.29" y2="1.454" gradientUnits="objectBoundingBox"><stop offset="0" stop-color="#0069c7"/><stop offset="1" stop-color="#1593ff"/></linearGradient><linearGradient id="cl" x1="-1.095" y1="0.193" x2="4.286" y2="1.228" gradientUnits="objectBoundingBox"><stop offset="0" stop-color="#0099da"/><stop offset="1" stop-color="#00b6df"/></linearGradient><linearGradient id="cm" x1="6.924" y1="-0.214" x2="-4.939" y2="1.147" gradientUnits="objectBoundingBox"><stop offset="0" stop-color="#0099da"/><stop offset="0.125" stop-color="#0089cd"/><stop offset="0.342" stop-color="#006fb9"/><stop offset="0.545" stop-color="#085cab"/><stop offset="0.728" stop-color="#224da1"/><stop offset="0.886" stop-color="#2a429b"/><stop offset="1" stop-color="#2d3f99"/></linearGradient><linearGradient id="cn" x1="0.355" y1="1.284" x2="0.995" y2="-2.931" gradientUnits="objectBoundingBox"><stop offset="0" stop-color="#196bb5"/><stop offset="1" stop-color="#00b6df"/></linearGradient><linearGradient id="co" x1="-1.095" y1="0.193" x2="4.286" y2="1.228" xlink:href="#cl"/><linearGradient id="cp" x1="6.924" y1="-0.214" x2="-4.939" y2="1.148" xlink:href="#cm"/><linearGradient id="cq" x1="0.355" y1="1.285" x2="0.995" y2="-2.929" xlink:href="#cn"/><linearGradient id="cr" x1="-1.095" y1="0.194" x2="4.286" y2="1.228" xlink:href="#cl"/><linearGradient id="cs" x1="6.924" y1="-0.213" x2="-4.939" y2="1.148" xlink:href="#cm"/><linearGradient id="ct" x1="0.355" y1="1.292" x2="0.995" y2="-2.982" xlink:href="#cn"/><linearGradient id="cu" x1="-0.616" y1="0.198" x2="3.156" y2="1.218" xlink:href="#cl"/><linearGradient id="cv" x1="7.107" y1="-0.214" x2="-5.095" y2="1.147" xlink:href="#cm"/><linearGradient id="cw" x1="0.373" y1="1.315" x2="0.979" y2="-3.11" xlink:href="#cn"/><linearGradient id="cx" x1="-1.088" y1="0.194" x2="4.293" y2="1.228" xlink:href="#cl"/><linearGradient id="cy" x1="7.11" y1="-0.213" x2="-5.092" y2="1.148" xlink:href="#cm"/><linearGradient id="cz" x1="0.362" y1="1.292" x2="1.001" y2="-2.982" xlink:href="#cn"/><linearGradient id="da" x1="-0.607" y1="0.198" x2="3.137" y2="1.218" xlink:href="#cl"/><linearGradient id="db" x1="7.096" y1="-0.214" x2="-5.106" y2="1.148" xlink:href="#cm"/><linearGradient id="dc" x1="0.375" y1="1.315" x2="0.976" y2="-3.11" xlink:href="#cn"/><linearGradient id="dd" x1="0.375" y1="1.321" x2="0.976" y2="-3.151" xlink:href="#cn"/><linearGradient id="de" x1="-0.607" y1="0.199" x2="3.137" y2="1.219" xlink:href="#cl"/><linearGradient id="df" x1="7.096" y1="-0.213" x2="-5.106" y2="1.148" xlink:href="#cm"/><linearGradient id="dg" x1="0.375" y1="1.322" x2="0.976" y2="-3.15" xlink:href="#cn"/><linearGradient id="dh" x1="-0.616" y1="0.199" x2="3.156" y2="1.216" xlink:href="#cl"/><linearGradient id="di" x1="7.107" y1="-0.213" x2="-5.095" y2="1.148" xlink:href="#cm"/><linearGradient id="dj" x1="0.373" y1="1.309" x2="0.979" y2="-3.116" xlink:href="#cn"/><linearGradient id="dk" x1="-1.094" y1="0.193" x2="4.287" y2="1.228" xlink:href="#cl"/><linearGradient id="dl" x1="7.096" y1="-0.214" x2="-5.106" y2="1.148" xlink:href="#cm"/><linearGradient id="dm" x1="0.356" y1="1.285" x2="0.996" y2="-2.929" xlink:href="#cn"/><linearGradient id="dn" x1="-1.094" y1="0.194" x2="4.287" y2="1.228" xlink:href="#cl"/><linearGradient id="do" x1="7.096" y1="-0.214" x2="-5.106" y2="1.148" xlink:href="#cm"/><linearGradient id="dp" x1="0.356" y1="1.291" x2="0.996" y2="-2.983" xlink:href="#cn"/><linearGradient id="dq" x1="-1.094" y1="0.194" x2="4.287" y2="1.229" xlink:href="#cl"/><linearGradient id="dr" x1="7.096" y1="-0.213" x2="-5.106" y2="1.148" xlink:href="#cm"/><linearGradient id="ds" x1="0.356" y1="1.294" x2="0.996" y2="-2.98" xlink:href="#cn"/><linearGradient id="dt" x1="-0.615" y1="0.198" x2="3.157" y2="1.218" xlink:href="#cl"/><linearGradient id="du" x1="7.11" y1="-0.214" x2="-5.092" y2="1.148" xlink:href="#cm"/><linearGradient id="dv" x1="0.374" y1="1.316" x2="0.98" y2="-3.109" xlink:href="#cn"/><linearGradient id="dw" x1="-0.615" y1="0.199" x2="3.157" y2="1.219" xlink:href="#cl"/><linearGradient id="dx" x1="7.11" y1="-0.213" x2="-5.092" y2="1.148" xlink:href="#cm"/><linearGradient id="dy" x1="0.374" y1="1.321" x2="0.98" y2="-3.15" xlink:href="#cn"/><linearGradient id="dz" x1="27.312" y1="0.189" x2="32.693" y2="1.224" gradientUnits="objectBoundingBox"><stop offset="0" stop-color="#2f5ba9"/><stop offset="1" stop-color="#0099da"/></linearGradient><linearGradient id="ea" x1="80.031" y1="-0.219" x2="67.829" y2="1.143" gradientUnits="objectBoundingBox"><stop offset="0" stop-color="#196bb5"/><stop offset="1" stop-color="#00b5e9"/></linearGradient><linearGradient id="eb" x1="28.762" y1="1.257" x2="29.402" y2="-2.958" xlink:href="#cn"/><linearGradient id="ec" x1="27.312" y1="0.189" x2="32.693" y2="1.224" xlink:href="#dz"/><linearGradient id="ed" x1="80.031" y1="-0.218" x2="67.829" y2="1.143" xlink:href="#ea"/><linearGradient id="ee" x1="28.762" y1="1.262" x2="29.402" y2="-3.012" xlink:href="#cn"/><linearGradient id="ef" x1="27.312" y1="0.19" x2="32.694" y2="1.224" xlink:href="#dz"/><linearGradient id="eg" x1="77.809" y1="-0.218" x2="65.946" y2="1.144" xlink:href="#ea"/><linearGradient id="eh" x1="28.763" y1="1.265" x2="29.402" y2="-3.009" xlink:href="#cn"/><linearGradient id="ei" x1="16.013" y1="0.194" x2="19.786" y2="1.214" xlink:href="#dz"/><linearGradient id="ej" x1="71.588" y1="-0.219" x2="59.386" y2="1.143" xlink:href="#ea"/><linearGradient id="ek" x1="17.003" y1="1.295" x2="17.609" y2="-3.131" xlink:href="#cn"/><linearGradient id="el" x1="16.014" y1="0.195" x2="19.786" y2="1.213" xlink:href="#dz"/><linearGradient id="em" x1="71.589" y1="-0.217" x2="59.387" y2="1.144" xlink:href="#ea"/><linearGradient id="en" x1="17.003" y1="1.289" x2="17.609" y2="-3.136" xlink:href="#cn"/><linearGradient id="eo" x1="10.222" y1="0.19" x2="15.604" y2="1.224" xlink:href="#dz"/><linearGradient id="ep" x1="37.062" y1="-0.218" x2="24.861" y2="1.144" xlink:href="#ea"/><linearGradient id="eq" x1="11.673" y1="1.265" x2="12.312" y2="-3.009" xlink:href="#cn"/><linearGradient id="er" x1="10.222" y1="0.19" x2="15.604" y2="1.225" xlink:href="#dz"/><linearGradient id="es" x1="36.033" y1="-0.217" x2="24.171" y2="1.144" xlink:href="#ea"/><linearGradient id="et" x1="11.673" y1="1.268" x2="12.312" y2="-3.006" xlink:href="#cn"/><linearGradient id="eu" x1="4.445" y1="0.195" x2="8.217" y2="1.215" xlink:href="#dz"/><linearGradient id="ev" x1="28.619" y1="-0.218" x2="16.417" y2="1.143" xlink:href="#ea"/><linearGradient id="ew" x1="5.434" y1="1.3" x2="6.04" y2="-3.172" xlink:href="#cn"/><linearGradient id="ex" x1="4.445" y1="0.195" x2="8.217" y2="1.215" xlink:href="#dz"/><linearGradient id="ey" x1="28.62" y1="-0.218" x2="16.418" y2="1.144" xlink:href="#ea"/><linearGradient id="ez" x1="5.435" y1="1.302" x2="6.04" y2="-3.169" xlink:href="#cn"/><linearGradient id="fa" x1="4.445" y1="0.195" x2="8.218" y2="1.213" xlink:href="#dz"/><linearGradient id="fb" x1="28.62" y1="-0.217" x2="16.418" y2="1.144" xlink:href="#ea"/><linearGradient id="fc" x1="5.435" y1="1.291" x2="6.041" y2="-3.134" xlink:href="#cn"/><linearGradient id="fd" x1="18.683" y1="0.19" x2="24.064" y2="1.224" xlink:href="#dz"/><linearGradient id="fe" x1="58.334" y1="-0.218" x2="46.132" y2="1.143" xlink:href="#ea"/><linearGradient id="ff" x1="20.133" y1="1.264" x2="20.772" y2="-3.01" xlink:href="#cn"/><linearGradient id="fg" x1="10.102" y1="0.195" x2="13.846" y2="1.215" xlink:href="#dz"/><linearGradient id="fh" x1="49.92" y1="-0.218" x2="37.718" y2="1.144" xlink:href="#ea"/><linearGradient id="fi" x1="11.084" y1="1.301" x2="11.685" y2="-3.171" xlink:href="#cn"/><linearGradient id="fj" x1="10.102" y1="0.195" x2="13.846" y2="1.213" xlink:href="#dz"/><linearGradient id="fk" x1="49.921" y1="-0.217" x2="37.719" y2="1.144" xlink:href="#ea"/><linearGradient id="fl" x1="11.084" y1="1.289" x2="11.685" y2="-3.136" xlink:href="#cn"/><linearGradient id="fm" x1="0.5" x2="0.5" y2="1" gradientUnits="objectBoundingBox"><stop offset="0" stop-color="#fff" stop-opacity="0"/><stop offset="1" stop-color="#fff"/></linearGradient><linearGradient id="mc" x1="0.5" y1="1" x2="0.5" gradientUnits="objectBoundingBox"><stop offset="0" stop-color="#d9d9d9"/><stop offset="1" stop-color="#f4f4f4"/></linearGradient><linearGradient id="md" x1="0.09" y1="0.812" x2="1.273" y2="0.19" gradientUnits="objectBoundingBox"><stop offset="0" stop-color="#0153e2"/><stop offset="0.392" stop-color="#18adf4"/><stop offset="1" stop-color="#1fcbfa"/></linearGradient><linearGradient id="me" x1="0.38" y1="1.383" x2="0.746" y2="-0.536" gradientUnits="objectBoundingBox"><stop offset="0" stop-color="#0153e2"/><stop offset="0.364" stop-color="#0d84ec"/><stop offset="0.852" stop-color="#18adf4"/><stop offset="1" stop-color="#1fcbfa"/></linearGradient><linearGradient id="mf" x1="0.445" y1="0.922" x2="0.903" y2="-0.784" xlink:href="#me"/><linearGradient id="mg" x1="0.285" y1="2.084" x2="0.647" y2="-0.242" xlink:href="#me"/><linearGradient id="mh" x1="0.459" y1="0.707" x2="1.234" y2="-1.246" xlink:href="#me"/><linearGradient id="mi" x1="0.01" y1="3.923" x2="0.555" y2="0.197" xlink:href="#me"/><linearGradient id="mj" x1="0.5" y1="0.53" x2="2.979" y2="-2.383" xlink:href="#me"/></defs><g transform="translate(0 46)"><rect class="a" width="1366" height="1269.719" transform="translate(0 -46)"/><g transform="translate(328.066 -169.011)"><g transform="translate(419.579 514.309)"><g class="b" transform="translate(0 260.216)"><path class="c" d="M69.415,588.872l21.115-12.213L69.415,564.5,48.3,576.659Z" transform="translate(-48.3 -564.5)"/><path class="d" d="M87.2,623.484l21.115-12.159V586.9L87.2,599.113Z" transform="translate(-66.085 -574.741)"/><path class="e" d="M69.415,623.484,48.3,611.326V586.9l21.115,12.213Z" transform="translate(-48.3 -574.741)"/></g><g class="b" transform="translate(184.225 187.373)"><path class="f" d="M439.211,489.736l51.511-29.745L439.211,430.3,387.7,459.991Z" transform="translate(-387.7 -430.3)"/><path class="g" d="M482.6,628.841,534.111,599.1V485L482.6,514.745Z" transform="translate(-431.089 -455.309)"/><path class="h" d="M439.211,628.841,387.7,599.1V485l51.511,29.745Z" transform="translate(-387.7 -455.309)"/></g><g class="b" transform="translate(124.315 154.761)"><path class="i" d="M304.992,123.433l33.192-19.166L304.992,85.1,271.8,104.266Z" transform="translate(-271.8 -85.1)"/><path class="j" d="M366.7,281.225l33.192-19.167V139.4L366.7,158.566Z" transform="translate(-333.508 -120.408)"/><path class="k" d="M304.992,281.225,271.8,262.059V139.4l33.192,19.167Z" transform="translate(-271.8 -120.408)"/></g><g class="b" transform="translate(501.852 117.439)"><path class="l" d="M909.233,242.056l39.533-22.828L909.233,196.4,869.7,219.228Z" transform="translate(-869.7 -196.4)"/><path class="m" d="M964.6,419.578l39.533-22.828V250.7L964.6,273.528Z" transform="translate(-925.067 -228.08)"/><path class="n" d="M909.233,419.578,869.7,396.75V250.7l39.533,22.828Z" transform="translate(-869.7 -228.08)"/></g><g class="b" transform="translate(501.852 311.277)"><path class="o" d="M991.4,513.839l42.5-24.542-42.5-24.5-42.5,24.5Z" transform="translate(-948.9 -464.8)"/><path class="p" d="M1043.8,638.18l42.5-24.542V519.5l-42.5,24.542Z" transform="translate(-1001.299 -495.003)"/><path class="q" d="M991.4,638.18l-42.5-24.542V519.5l42.5,24.542Z" transform="translate(-948.9 -495.003)"/></g><g class="b" transform="translate(277.531 117.439)"><path class="r" d="M606.107,324.111l46.507-26.855L606.107,270.4,559.6,297.255Z" transform="translate(-559.6 -270.4)"/><path class="s" d="M654.5,455.018l46.507-26.855V325.2L654.5,352.055Z" transform="translate(-607.993 -298.345)"/><path class="t" d="M606.107,455.018,559.6,428.162V325.2l46.507,26.855Z" transform="translate(-559.6 -298.345)"/></g><g class="b" transform="translate(49.584 206.099)"><path class="u" d="M158.964,463.566l43.264-24.983L158.964,413.6,115.7,438.583Z" transform="translate(-115.7 -413.6)"/><path class="v" d="M210.6,589.212l43.264-24.983V468.4L210.6,493.383Z" transform="translate(-167.336 -443.417)"/><path class="w" d="M158.964,589.212,115.7,564.229V468.4l43.264,24.983Z" transform="translate(-115.7 -443.417)"/></g><g class="b" transform="translate(382.345 185.202)"><path class="f" d="M804.211,485.736l51.511-29.745L804.211,426.3,752.7,455.991Z" transform="translate(-752.7 -426.3)"/><path class="x" d="M847.6,581.417l51.511-29.745V481L847.6,510.745Z" transform="translate(-796.089 -451.309)"/><path class="y" d="M804.211,581.417,752.7,551.672V481l51.511,29.745Z" transform="translate(-752.7 -451.309)"/></g><g class="b" transform="translate(169.298 361.556)"><path class="z" d="M407.043,805.317l46.843-27.031L407.043,751.2,360.2,778.285Z" transform="translate(-360.2 -751.2)"/><path class="aa" d="M446.5,882.248l46.843-27.086V801.1L446.5,828.131Z" transform="translate(-399.657 -774.014)"/><path class="ab" d="M407.043,882.248,360.2,855.162V801.1l46.843,27.031Z" transform="translate(-360.2 -774.014)"/></g><g class="b" transform="translate(473.501 529.813)"><path class="ac" d="M1144.4,763.417l46.843-27.031L1144.4,709.3l-46.9,27.085Z" transform="translate(-1097.5 -709.3)"/><path class="ad" d="M1183.9,840.348l46.843-27.085V759.2L1183.9,786.231Z" transform="translate(-1137.003 -732.114)"/><path class="ae" d="M1144.4,840.348l-46.9-27.085V759.2l46.9,27.031Z" transform="translate(-1097.5 -732.114)"/></g></g><g transform="translate(-76.487 867.744)"><g class="b" transform="translate(0 249.171)"><path class="c" d="M69.415,588.872l21.115-12.213L69.415,564.5,48.3,576.659Z" transform="translate(-48.3 -564.5)"/><path class="d" d="M87.2,623.484l21.115-12.159V586.9L87.2,599.113Z" transform="translate(-66.085 -574.741)"/><path class="e" d="M69.415,623.484,48.3,611.326V586.9l21.115,12.213Z" transform="translate(-48.3 -574.741)"/></g><g class="b" transform="translate(823.616 138.904)"><path class="f" d="M439.211,489.736l51.511-29.745L439.211,430.3,387.7,459.991Z" transform="translate(-387.7 -430.3)"/><path class="g" d="M482.6,628.841,534.111,599.1V485L482.6,514.745Z" transform="translate(-431.089 -455.309)"/><path class="h" d="M439.211,628.841,387.7,599.1V485l51.511,29.745Z" transform="translate(-387.7 -455.309)"/></g><g class="b" transform="translate(720.56 0)"><path class="l" d="M921.211,255.89l51.511-29.745L921.211,196.4,869.7,226.145Z" transform="translate(-869.7 -196.4)"/><path class="m" d="M964.6,470.749,1016.111,441V250.7L964.6,280.445Z" transform="translate(-913.089 -221.226)"/><path class="n" d="M921.211,470.749,869.7,441V250.7l51.511,29.745Z" transform="translate(-869.7 -221.226)"/></g><g class="b" transform="translate(588.373 124.187)"><path class="o" d="M1000.411,524.236l51.511-29.745L1000.411,464.8,948.9,494.491Z" transform="translate(-948.9 -464.8)"/><path class="p" d="M1043.8,663.341l51.511-29.745V519.5L1043.8,549.245Z" transform="translate(-992.289 -489.809)"/><path class="q" d="M1000.411,663.341,948.9,633.6V519.5l51.511,29.745Z" transform="translate(-948.9 -489.809)"/></g><g class="b" transform="translate(265.588 88.738)"><path class="r" d="M611.111,329.89l51.511-29.745L611.111,270.4,559.6,300.145Z" transform="translate(-559.6 -270.4)"/><path class="s" d="M654.5,468.986l51.511-29.745V325.2L654.5,354.945Z" transform="translate(-602.989 -295.455)"/><path class="t" d="M611.111,468.986,559.6,439.241V325.2l51.511,29.745Z" transform="translate(-559.6 -295.455)"/></g><g class="b" transform="translate(30.214 216.631)"><path class="u" d="M167.211,473.09l51.511-29.745L167.211,413.6,115.7,443.345Z" transform="translate(-115.7 -413.6)"/><path class="v" d="M210.6,612.241,262.111,582.5V468.4L210.6,498.145Z" transform="translate(-159.089 -438.655)"/><path class="w" d="M167.211,612.241,115.7,582.5V468.4l51.511,29.745Z" transform="translate(-115.7 -438.655)"/></g><g class="b" transform="translate(352.884 151.861)"><path class="f" d="M804.211,485.736l51.511-29.745L804.211,426.3,752.7,455.991Z" transform="translate(-752.7 -426.3)"/><path class="x" d="M847.6,581.417l51.511-29.745V481L847.6,510.745Z" transform="translate(-796.089 -451.309)"/><path class="y" d="M804.211,581.417,752.7,551.672V481l51.511,29.745Z" transform="translate(-752.7 -451.309)"/></g><g class="b" transform="translate(240.961 231.869)"><path class="z" d="M407.043,805.317l46.843-27.031L407.043,751.2,360.2,778.285Z" transform="translate(-360.2 -751.2)"/><path class="aa" d="M446.5,882.248l46.843-27.086V801.1L446.5,828.131Z" transform="translate(-399.657 -774.014)"/><path class="ab" d="M407.043,882.248,360.2,855.162V801.1l46.843,27.031Z" transform="translate(-360.2 -774.014)"/></g><g class="b" transform="translate(696.902 252.123)"><path class="ac" d="M1144.4,763.417l46.843-27.031L1144.4,709.3l-46.9,27.085Z" transform="translate(-1097.5 -709.3)"/><path class="ad" d="M1183.9,840.348l46.843-27.085V759.2L1183.9,786.231Z" transform="translate(-1137.003 -732.114)"/><path class="ae" d="M1144.4,840.348l-46.9-27.085V759.2l46.9,27.031Z" transform="translate(-1097.5 -732.114)"/></g></g><g transform="translate(-520 367.011)"><g class="b" transform="translate(231 737.892)"><path class="c" d="M76.286,596.8l27.986-16.187L76.286,564.5,48.3,580.615Z" transform="translate(-48.3 -564.5)"/><path class="d" d="M87.2,635.389l27.986-16.115V586.9L87.2,603.087Z" transform="translate(-59.214 -570.785)"/><path class="e" d="M76.286,635.389,48.3,619.274V586.9l27.986,16.187Z" transform="translate(-48.3 -570.785)"/></g><g class="b" transform="translate(332.557 346.284)"><path class="f" d="M455.973,509.077l68.273-39.424L455.973,430.3,387.7,469.652Z" transform="translate(-387.7 -430.3)"/><path class="g" d="M482.6,675.647l68.273-39.424V485L482.6,524.424Z" transform="translate(-414.327 -445.647)"/><path class="h" d="M455.973,675.647,387.7,636.223V485l68.273,39.424Z" transform="translate(-387.7 -445.647)"/></g><g class="b" transform="translate(212.751 287.762)"><path class="i" d="M308.617,127.62l36.817-21.26L308.617,85.1,271.8,106.36Z" transform="translate(-271.8 -85.1)"/><path class="j" d="M366.7,296.715l36.817-21.26V139.4L366.7,160.66Z" transform="translate(-329.883 -118.334)"/><path class="k" d="M308.617,296.715,271.8,275.455V139.4l36.817,21.26Z" transform="translate(-271.8 -118.334)"/></g><g class="b" transform="translate(662.633 288.076)"><path class="l" d="M909.071,241.87l39.371-22.735L909.071,196.4,869.7,219.135Z" transform="translate(-869.7 -196.4)"/><path class="m" d="M964.6,418.888l39.371-22.735V250.7L964.6,273.435Z" transform="translate(-925.229 -228.173)"/><path class="n" d="M909.071,418.888,869.7,396.153V250.7l39.371,22.735Z" transform="translate(-869.7 -228.173)"/></g><g class="b" transform="translate(796.836 311.359)"><path class="o" d="M998.712,522.275l49.812-28.764L998.712,464.8,948.9,493.511Z" transform="translate(-948.9 -464.8)"/><path class="p" d="M1043.8,658.595l49.812-28.764V519.5L1043.8,548.264Z" transform="translate(-993.988 -490.789)"/><path class="q" d="M998.712,658.595,948.9,629.831V519.5l49.812,28.764Z" transform="translate(-948.9 -490.789)"/></g><g class="b" transform="translate(271.825 375.359)"><path class="r" d="M590.16,305.693l30.56-17.647L590.16,270.4,559.6,288.047Z" transform="translate(-559.6 -270.4)"/><path class="s" d="M654.5,410.5l30.56-17.647V325.2L654.5,342.847Z" transform="translate(-623.94 -307.553)"/><path class="t" d="M590.16,410.5,559.6,392.857V325.2l30.56,17.647Z" transform="translate(-559.6 -307.553)"/></g><g class="b" transform="translate(521.762 298.351)"><path class="f" d="M800.036,480.918l47.336-27.334L800.036,426.3,752.7,453.584Z" transform="translate(-752.7 -426.3)"/><path class="x" d="M847.6,573.278l47.336-27.334V481L847.6,508.334Z" transform="translate(-800.264 -453.716)"/><path class="y" d="M800.036,573.278,752.7,545.943V481l47.336,27.334Z" transform="translate(-752.7 -453.716)"/></g><g class="b" transform="translate(224.388 479.208)"><path class="z" d="M422.286,822.927,484.372,787.1l-62.086-35.9L360.2,787.1Z" transform="translate(-360.2 -751.2)"/><path class="aa" d="M446.5,908.654l62.086-35.9V801.1L446.5,836.927Z" transform="translate(-384.414 -765.201)"/><path class="ab" d="M422.286,908.654l-62.086-35.9V801.1l62.086,35.827Z" transform="translate(-360.2 -765.201)"/></g><g class="b" transform="translate(692.819 449.064)"><path class="ac" d="M1159.658,781.026l62.086-35.827-62.086-35.9L1097.5,745.2Z" transform="translate(-1097.5 -709.3)"/><path class="ad" d="M1183.9,866.754l62.086-35.9V759.2L1183.9,795.027Z" transform="translate(-1121.742 -723.301)"/><path class="ae" d="M1159.658,866.754l-62.158-35.9V759.2l62.158,35.827Z" transform="translate(-1097.5 -723.301)"/></g></g><g transform="translate(-304.999 772.636)"><g class="af" transform="translate(0 236.752)"><path class="ag" d="M110.482,604.928l67.6,39.012a52.414,52.414,0,0,0,52.408,0l67.6-39.012a26.044,26.044,0,0,0,0-45.121l-67.6-39.012a52.414,52.414,0,0,0-52.408,0l-67.6,39.012A26.044,26.044,0,0,0,110.482,604.928Z" transform="translate(-97.45 -513.775)"/><path class="ah" d="M120.139,606.22l64.739,37.386a48.207,48.207,0,0,0,48.26,0l64.739-37.386a23.836,23.836,0,0,0,0-41.31l-64.739-37.386a48.207,48.207,0,0,0-48.26,0L120.139,564.91A23.836,23.836,0,0,0,120.139,606.22Z" transform="translate(-102.174 -516.972)"/><path class="ai" d="M129.7,607.511l61.937,35.761a44,44,0,0,0,44.112,0l61.937-35.761a21.629,21.629,0,0,0,0-37.5l-61.937-35.761a44,44,0,0,0-44.112,0L129.7,570.013A21.629,21.629,0,0,0,129.7,607.511Z" transform="translate(-106.855 -520.17)"/><path class="aj" d="M139.286,608.792l59.078,34.135a40.169,40.169,0,0,0,40.021,0l59.078-34.135a19.469,19.469,0,0,0,0-33.743l-59.078-34.135a40.169,40.169,0,0,0-40.021,0l-59.078,34.135A19.511,19.511,0,0,0,139.286,608.792Z" transform="translate(-111.569 -523.356)"/><path class="ak" d="M148.9,610.127l56.219,32.51a35.961,35.961,0,0,0,35.873,0l56.275-32.454a17.282,17.282,0,0,0,0-29.931L241,547.742a35.961,35.961,0,0,0-35.873,0L148.848,580.2A17.282,17.282,0,0,0,148.9,610.127Z" transform="translate(-116.255 -526.597)"/><path class="al" d="M158.5,611.419l53.417,30.828a31.754,31.754,0,0,0,31.725,0l53.417-30.828a15.1,15.1,0,0,0,0-26.12l-53.417-30.828a31.754,31.754,0,0,0-31.725,0L158.5,585.3A15.1,15.1,0,0,0,158.5,611.419Z" transform="translate(-120.974 -529.794)"/><path class="am" d="M168.124,612.767l50.558,29.2a27.547,27.547,0,0,0,27.577,0l50.558-29.2a12.936,12.936,0,0,0,0-22.364l-50.558-29.2a27.547,27.547,0,0,0-27.577,0l-50.558,29.2A12.894,12.894,0,0,0,168.124,612.767Z" transform="translate(-125.665 -532.992)"/><path class="an" d="M177.714,614.058l47.756,27.577a23.444,23.444,0,0,0,23.485,0l47.756-27.577a10.729,10.729,0,0,0,0-18.553l-47.756-27.577a23.444,23.444,0,0,0-23.485,0l-47.756,27.577A10.729,10.729,0,0,0,177.714,614.058Z" transform="translate(-130.379 -536.189)"/><path class="ao" d="M187.371,615.35l44.9,25.9a19.237,19.237,0,0,0,19.338,0l44.9-25.952a8.521,8.521,0,0,0,0-14.742l-44.9-25.9a19.237,19.237,0,0,0-19.338,0l-44.9,25.952A8.521,8.521,0,0,0,187.371,615.35Z" transform="translate(-135.103 -539.386)"/><path class="ap" d="M196.933,616.674l42.095,24.27a15.3,15.3,0,0,0,15.19,0l42.038-24.27a6.361,6.361,0,0,0,0-10.986l-42.038-24.27a15.3,15.3,0,0,0-15.19,0l-42.038,24.27A6.34,6.34,0,0,0,196.933,616.674Z" transform="translate(-139.789 -542.616)"/><path class="aq" d="M206.585,617.966l39.236,22.645a11.094,11.094,0,0,0,11.042,0L296.1,617.966a4.153,4.153,0,0,0,0-7.175l-39.236-22.645a11.094,11.094,0,0,0-11.042,0l-39.236,22.645A4.153,4.153,0,0,0,206.585,617.966Z" transform="translate(-144.508 -545.814)"/><path class="ar" d="M216.142,619.257l36.377,21.019a6.991,6.991,0,0,0,6.95,0l36.377-21.019a1.946,1.946,0,0,0,0-3.363L259.47,594.875a6.991,6.991,0,0,0-6.95,0l-36.377,21.019A1.946,1.946,0,0,0,216.142,619.257Z" transform="translate(-149.189 -549.011)"/></g><g transform="translate(42.696 120.286)"><path class="as" d="M296.4,495.7l13.452-7.742v20.565l4.548-2.613V485.3l13.452-7.742v20.565l4.935-2.855V474.7l13.452-7.742v20.565l7.4-4.306V330.8L289,368.107l.048,152.421,7.355-4.21Z" transform="translate(-224.403 -293.493)"/><g transform="translate(0 37.307)"><path class="at" d="M162.9,466.963l13.452,7.742v20.613l4.936,2.806V477.559l31.452,18.194v20.565l7.4,4.21L220.1,368.107,155.5,330.8V483.221l7.4,4.306Z" transform="translate(-155.5 -330.8)"/><path class="au" d="M208.8,654.665l7.161-4.161V638.261L208.8,634.1Z" transform="translate(-183.009 -487.341)"/></g><path class="av" d="M155.5,291.007l64.6,37.307,64.646-37.307L220.1,253.7Z" transform="translate(-155.5 -253.7)"/><path class="ar" d="M398.5,361.6l4.258-2.468V338.568l-1.742-.968-2.516,1.452Z" transform="translate(-280.918 -297.003)"/><path class="aw" d="M405.442,359.132l-1.742-.968V337.6l1.742.968Z" transform="translate(-283.602 -297.003)"/><path class="aw" d="M398.5,383.536l4.258-2.468-1.742-.968-2.516,1.5Z" transform="translate(-280.918 -318.938)"/><path class="ax" d="M398.5,447.732l4.258-2.468V424.7l-4.258,2.419Z" transform="translate(-280.918 -341.957)"/><path class="ay" d="M405.442,445.265l-1.742-1.016V425.668l1.742-.968Z" transform="translate(-283.602 -341.957)"/><path class="az" d="M398.5,468.584l4.258-2.468-1.742-1.016-2.516,1.5Z" transform="translate(-280.918 -362.809)"/><path class="ba" d="M398.5,490.233l4.258-2.468V467.2l-4.258,2.468Z" transform="translate(-280.918 -363.893)"/><path class="bb" d="M405.442,487.765l-1.742-1.016V468.168l1.742-.968Z" transform="translate(-283.602 -363.893)"/><path class="bc" d="M398.5,511.084l4.258-2.468-1.742-1.016-2.516,1.5Z" transform="translate(-280.918 -384.744)"/><path class="bd" d="M398.5,575.232l4.258-2.468V552.2l-4.258,2.468Z" transform="translate(-280.918 -407.763)"/><path class="be" d="M405.442,572.765,403.7,571.8V553.168l1.742-.968Z" transform="translate(-283.602 -407.763)"/><path class="bf" d="M398.5,596.135l4.258-2.468-1.742-.968-2.516,1.452Z" transform="translate(-280.918 -428.666)"/><path class="bg" d="M379.5,414.894l6.29-3.629V390.7l-6.29,3.629Z" transform="translate(-271.112 -324.409)"/><path class="bh" d="M390.694,411.265,389,410.249V391.668l1.694-.968Z" transform="translate(-276.015 -324.409)"/><path class="bi" d="M379.5,435.745l6.29-3.629L384.1,431.1l-4.6,2.661Z" transform="translate(-271.112 -345.261)"/><path class="ar" d="M379.5,499.894l6.29-3.629V475.7l-6.29,3.629Z" transform="translate(-271.112 -368.28)"/><path class="aw" d="M390.694,496.265,389,495.3V476.668l1.694-.968Z" transform="translate(-276.015 -368.28)"/><path class="aw" d="M379.5,520.8l6.29-3.629L384.1,516.2l-4.6,2.661Z" transform="translate(-271.112 -389.183)"/><path class="bj" d="M399.61,632.765,392.4,628.6V616.361l7.21-4.161Z" transform="translate(-277.77 -438.731)"/><path class="ar" d="M360.5,383.5l4.258-2.419V360.468l-1.694-.968L360.5,361Z" transform="translate(-261.306 -308.306)"/><path class="aw" d="M367.494,381.081l-1.694-1.016V359.5l1.694.968Z" transform="translate(-264.041 -308.306)"/><path class="aw" d="M360.5,405.436l4.258-2.419L363.065,402l-2.565,1.5Z" transform="translate(-261.306 -330.241)"/><path class="ar" d="M360.5,469.633l4.258-2.468V446.6l-4.258,2.419Z" transform="translate(-261.306 -353.26)"/><path class="aw" d="M367.494,467.165l-1.694-1.016V447.568l1.694-.968Z" transform="translate(-264.041 -353.26)"/><path class="aw" d="M360.5,490.484l4.258-2.468L363.065,487l-2.565,1.5Z" transform="translate(-261.306 -374.112)"/><path class="bk" d="M360.5,554.633l4.258-2.468V531.6l-4.258,2.468Z" transform="translate(-261.306 -397.131)"/><path class="bl" d="M367.494,552.165,365.8,551.2V532.568l1.694-.968Z" transform="translate(-264.041 -397.131)"/><path class="bm" d="M360.5,575.536l4.258-2.468-1.694-.968-2.565,1.452Z" transform="translate(-261.306 -418.034)"/><path class="ar" d="M360.5,597.133l4.258-2.468V574.1l-4.258,2.468Z" transform="translate(-261.306 -419.066)"/><path class="aw" d="M367.494,594.665,365.8,593.7V575.068l1.694-.968Z" transform="translate(-264.041 -419.066)"/><path class="aw" d="M360.5,618.036l4.258-2.468-1.694-.968-2.565,1.452Z" transform="translate(-261.306 -439.969)"/><path class="bn" d="M341.5,436.794l6.339-3.629V412.6l-6.339,3.629Z" transform="translate(-251.499 -335.712)"/><path class="bo" d="M352.794,433.165l-1.694-1.016V413.568l1.694-.968Z" transform="translate(-256.454 -335.712)"/><path class="bp" d="M341.5,457.645l6.339-3.629L346.145,453l-4.645,2.661Z" transform="translate(-251.499 -356.564)"/><path class="ar" d="M341.5,521.794l6.339-3.629V497.6l-6.339,3.629Z" transform="translate(-251.499 -379.583)"/><path class="aw" d="M352.794,518.165,351.1,517.2V498.568l1.694-.968Z" transform="translate(-256.454 -379.583)"/><path class="bq" d="M341.5,542.7l6.339-3.629-1.694-.968-4.645,2.661Z" transform="translate(-251.499 -400.486)"/><path class="br" d="M341.5,564.294l6.339-3.629V540.1l-6.339,3.629Z" transform="translate(-251.499 -401.518)"/><path class="bs" d="M352.794,560.665,351.1,559.7V541.068l1.694-.968Z" transform="translate(-256.454 -401.518)"/><path class="bt" d="M341.5,585.2l6.339-3.629-1.694-.968-4.645,2.661Z" transform="translate(-251.499 -422.421)"/><path class="bu" d="M379.5,584.942l6.29-3.677V560.7l-6.29,3.629Z" transform="translate(-271.112 -412.15)"/><path class="bv" d="M390.694,581.265,389,580.3V561.668l1.694-.968Z" transform="translate(-276.015 -412.15)"/><path class="bw" d="M379.5,605.845l6.29-3.677L384.1,601.2l-4.6,2.661Z" transform="translate(-271.112 -433.053)"/><path class="bj" d="M361.661,654.665,354.5,650.5V638.261l7.161-4.161Z" transform="translate(-258.209 -450.034)"/><path class="ar" d="M323.3,405l4.258-2.419V381.968L325.865,381l-2.565,1.5Z" transform="translate(-242.106 -319.403)"/><path class="aw" d="M330.294,402.581l-1.694-1.016V381l1.694.968Z" transform="translate(-244.841 -319.403)"/><path class="aw" d="M323.3,426.936l4.258-2.419-1.694-1.016L323.3,425Z" transform="translate(-242.106 -341.338)"/><path class="bx" d="M323.3,491.133l4.258-2.468V468.1l-4.258,2.468Z" transform="translate(-242.106 -364.357)"/><path class="by" d="M330.294,488.665l-1.694-1.016V469.068l1.694-.968Z" transform="translate(-244.841 -364.357)"/><path class="bz" d="M323.3,511.984l4.258-2.468-1.694-1.016L323.3,510Z" transform="translate(-242.106 -385.209)"/><path class="ca" d="M323.3,533.633l4.258-2.468V510.6l-4.258,2.468Z" transform="translate(-242.106 -386.292)"/><path class="cb" d="M330.294,531.165,328.6,530.2V511.568l1.694-.968Z" transform="translate(-244.841 -386.292)"/><path class="cc" d="M323.3,554.536l4.258-2.468-1.694-.968-2.565,1.452Z" transform="translate(-242.106 -407.195)"/><path class="cd" d="M323.3,618.632l4.258-2.468V595.6l-4.258,2.468Z" transform="translate(-242.106 -430.163)"/><path class="ce" d="M330.294,616.165,328.6,615.2V596.568l1.694-.968Z" transform="translate(-244.841 -430.163)"/><path class="cf" d="M323.3,639.536l4.258-2.468-1.694-.968-2.565,1.452Z" transform="translate(-242.106 -451.066)"/><path class="cg" d="M304.3,458.294l6.29-3.629V434.1l-6.29,3.629Z" transform="translate(-232.299 -346.809)"/><path class="ch" d="M315.494,454.665l-1.694-1.016V435.068l1.694-.968Z" transform="translate(-237.203 -346.809)"/><path class="ci" d="M304.3,479.145l6.29-3.629L308.9,474.5l-4.6,2.661Z" transform="translate(-232.299 -367.66)"/><path class="cj" d="M304.3,543.294l6.29-3.629V519.1l-6.29,3.629Z" transform="translate(-232.299 -390.68)"/><path class="ck" d="M315.494,539.665,313.8,538.7V520.068l1.694-.968Z" transform="translate(-237.203 -390.68)"/><path class="cl" d="M304.3,564.2l6.29-3.629L308.9,559.6l-4.6,2.661Z" transform="translate(-232.299 -411.583)"/><path class="bj" d="M324.41,676.165,317.2,672V659.761l7.21-4.161Z" transform="translate(-238.957 -461.131)"/><path class="ar" d="M175.058,361.6l-4.258-2.419V338.568l1.694-.968,2.565,1.5Z" transform="translate(-163.397 -297.003)"/><path class="aw" d="M170.8,359.181l1.694-1.016V337.6l-1.694.968Z" transform="translate(-163.397 -297.003)"/><path class="aw" d="M175.058,383.536l-4.258-2.419,1.694-1.016,2.565,1.5Z" transform="translate(-163.397 -318.938)"/><path class="cm" d="M175.058,447.732l-4.258-2.468V424.7l4.258,2.419Z" transform="translate(-163.397 -341.957)"/><path class="cn" d="M170.8,445.265l1.694-1.016V425.668L170.8,424.7Z" transform="translate(-163.397 -341.957)"/><path class="co" d="M175.058,468.584l-4.258-2.468,1.694-1.016,2.565,1.5Z" transform="translate(-163.397 -362.809)"/><path class="cp" d="M175.058,490.233l-4.258-2.468V467.2l4.258,2.468Z" transform="translate(-163.397 -363.893)"/><path class="cq" d="M170.8,487.765l1.694-.968V468.168L170.8,467.2Z" transform="translate(-163.397 -363.893)"/><path class="cr" d="M175.058,511.136l-4.258-2.468,1.694-.968,2.565,1.452Z" transform="translate(-163.397 -384.796)"/><path class="cs" d="M175.058,575.232l-4.258-2.468V552.2l4.258,2.468Z" transform="translate(-163.397 -407.763)"/><path class="ct" d="M170.8,572.765l1.742-.968V553.168L170.8,552.2Z" transform="translate(-163.397 -407.763)"/><path class="cu" d="M175.058,596.135l-4.258-2.468,1.742-.968,2.516,1.452Z" transform="translate(-163.397 -428.666)"/><path class="cv" d="M191.89,414.894l-6.29-3.629V390.7l6.29,3.629Z" transform="translate(-171.035 -324.409)"/><path class="cw" d="M185.6,411.265l1.694-1.016V391.668L185.6,390.7Z" transform="translate(-171.035 -324.409)"/><path class="cx" d="M191.89,435.745l-6.29-3.629,1.694-1.016,4.6,2.661Z" transform="translate(-171.035 -345.261)"/><path class="ar" d="M191.89,499.894l-6.29-3.629V475.7l6.29,3.629Z" transform="translate(-171.035 -368.28)"/><path class="aw" d="M185.6,496.265l1.694-.968V476.668L185.6,475.7Z" transform="translate(-171.035 -368.28)"/><path class="aw" d="M191.89,520.8l-6.29-3.629,1.694-.968,4.6,2.661Z" transform="translate(-171.035 -389.183)"/><path class="bj" d="M170.8,632.765l7.21-4.161V616.361L170.8,612.2Z" transform="translate(-163.397 -438.731)"/><path class="cy" d="M191.89,584.942l-6.29-3.677V560.7l6.29,3.629Z" transform="translate(-171.035 -412.15)"/><path class="cz" d="M185.6,581.265l1.694-.968V561.668L185.6,560.7Z" transform="translate(-171.035 -412.15)"/><path class="da" d="M191.89,605.845l-6.29-3.677,1.694-.968,4.6,2.661Z" transform="translate(-171.035 -433.053)"/><path class="ar" d="M250.258,405.049,246,402.581V382.016L247.694,381l2.565,1.5Z" transform="translate(-202.209 -319.403)"/><path class="aw" d="M246,402.581l1.694-1.016V381L246,382.016Z" transform="translate(-202.209 -319.403)"/><path class="aw" d="M250.258,426.984,246,424.516l1.694-1.016,2.565,1.5Z" transform="translate(-202.209 -341.338)"/><path class="ar" d="M250.258,491.133,246,488.665V468.1l4.258,2.468Z" transform="translate(-202.209 -364.357)"/><path class="aw" d="M246,488.665l1.694-.968V469.068L246,468.1Z" transform="translate(-202.209 -364.357)"/><path class="aw" d="M250.258,512.036,246,509.568l1.694-.968,2.565,1.452Z" transform="translate(-202.209 -385.26)"/><path class="db" d="M250.258,533.633,246,531.165V510.6l4.258,2.468Z" transform="translate(-202.209 -386.292)"/><path class="dc" d="M246,531.165l1.694-.968V511.568L246,510.6Z" transform="translate(-202.209 -386.292)"/><path class="dd" d="M250.258,554.536,246,552.068l1.694-.968,2.565,1.452Z" transform="translate(-202.209 -407.195)"/><path class="de" d="M250.258,618.632,246,616.165V595.6l4.258,2.468Z" transform="translate(-202.209 -430.163)"/><path class="df" d="M246,616.165l1.742-.968-.048-18.629L246,595.6Z" transform="translate(-202.209 -430.163)"/><path class="dg" d="M250.258,639.536,246,637.068l1.742-.968,2.516,1.452Z" transform="translate(-202.209 -451.066)"/><path class="dh" d="M267.09,458.294l-6.29-3.629V434.1l6.29,3.629Z" transform="translate(-209.848 -346.809)"/><path class="di" d="M260.8,454.665l1.694-.968V435.068L260.8,434.1Z" transform="translate(-209.848 -346.809)"/><path class="dj" d="M267.09,479.2l-6.29-3.629,1.694-.968,4.6,2.661Z" transform="translate(-209.848 -367.712)"/><path class="dk" d="M267.09,543.294l-6.29-3.629V519.1l6.29,3.629Z" transform="translate(-209.848 -390.68)"/><path class="dl" d="M260.8,539.665l1.694-.968V520.068L260.8,519.1Z" transform="translate(-209.848 -390.68)"/><path class="dm" d="M267.09,564.2l-6.29-3.629,1.694-.968,4.6,2.661Z" transform="translate(-209.848 -411.583)"/><path class="dn" d="M267.09,628.342l-6.29-3.677V604.1l6.29,3.677Z" transform="translate(-209.848 -434.55)"/><path class="do" d="M260.8,624.665l1.694-.968V605.116L260.8,604.1Z" transform="translate(-209.848 -434.55)"/><path class="dp" d="M267.09,649.245l-6.29-3.678,1.694-.968,4.6,2.661Z" transform="translate(-209.848 -455.453)"/><path class="dq" d="M213.058,554.633l-4.258-2.468V531.6l4.258,2.468Z" transform="translate(-183.009 -397.131)"/><path class="dr" d="M208.8,552.165l1.694-.968V532.568L208.8,531.6Z" transform="translate(-183.009 -397.131)"/><path class="ds" d="M213.058,575.536l-4.258-2.468,1.694-.968,2.565,1.452Z" transform="translate(-183.009 -418.034)"/><path class="dt" d="M229.839,521.794l-6.339-3.629V497.6l6.339,3.629Z" transform="translate(-190.596 -379.583)"/><path class="du" d="M223.5,518.165l1.694-.968V498.568L223.5,497.6Z" transform="translate(-190.596 -379.583)"/><path class="dv" d="M229.839,542.7l-6.339-3.629,1.694-.968,4.645,2.661Z" transform="translate(-190.596 -400.486)"/><path class="ar" d="M229.839,564.294l-6.339-3.629V540.1l6.339,3.629Z" transform="translate(-190.596 -401.518)"/><path class="aw" d="M223.5,560.665l1.694-.968V541.068L223.5,540.1Z" transform="translate(-190.596 -401.518)"/><path class="dw" d="M229.839,606.842l-6.339-3.677V582.6l6.339,3.629Z" transform="translate(-190.596 -423.453)"/><path class="dx" d="M223.5,603.165l1.694-.968V583.568L223.5,582.6Z" transform="translate(-190.596 -423.453)"/><path class="aw" d="M229.839,585.2l-6.339-3.629,1.694-.968,4.645,2.661Z" transform="translate(-190.596 -422.421)"/><path class="dy" d="M229.839,627.745l-6.339-3.677,1.694-.968,4.645,2.661Z" transform="translate(-190.596 -444.357)"/></g><path class="ar" d="M2420.308,846.543l38.05,22.252,39.914-22.252-39.914-23.054Z" transform="translate(-2351.358 -691.353)"/><path class="dz" d="M2434.607,727.852l-38.032-22.167L2374.614,550.41h128.428l-28.084,155.274Z" transform="translate(-2327.774 -550.41)"/></g><g transform="translate(762.247 718.052)"><g class="af" transform="translate(0 189.063)"><path class="ag" d="M107.857,586.567l53.982,31.154a41.856,41.856,0,0,0,41.851,0l53.981-31.154a20.8,20.8,0,0,0,0-36.032L203.69,519.381a41.856,41.856,0,0,0-41.851,0l-53.982,31.154A20.8,20.8,0,0,0,107.857,586.567Z" transform="translate(-97.45 -513.775)"/><path class="ah" d="M117.734,589.064l51.7,29.855a38.5,38.5,0,0,0,38.539,0l51.7-29.855a19.035,19.035,0,0,0,0-32.989l-51.7-29.855a38.5,38.5,0,0,0-38.539,0l-51.7,29.855A19.035,19.035,0,0,0,117.734,589.064Z" transform="translate(-103.388 -517.794)"/><path class="ai" d="M127.511,591.561l49.461,28.557a35.137,35.137,0,0,0,35.227,0l49.461-28.557a17.272,17.272,0,0,0,0-29.945L212.2,533.058a35.137,35.137,0,0,0-35.227,0l-49.461,28.557A17.272,17.272,0,0,0,127.511,591.561Z" transform="translate(-109.271 -521.812)"/><path class="aj" d="M137.33,594.044,184.508,621.3a32.077,32.077,0,0,0,31.959,0l47.178-27.259a15.548,15.548,0,0,0,0-26.946l-47.178-27.259a32.078,32.078,0,0,0-31.959,0L137.33,567.1A15.581,15.581,0,0,0,137.33,594.044Z" transform="translate(-115.196 -525.817)"/><path class="ak" d="M147.159,596.6l44.9,25.961a28.718,28.718,0,0,0,28.647,0l44.94-25.917a13.8,13.8,0,0,0,0-23.9L220.7,546.777a28.718,28.718,0,0,0-28.647,0l-44.94,25.917A13.8,13.8,0,0,0,147.159,596.6Z" transform="translate(-121.085 -529.891)"/><path class="al" d="M156.984,599.093l42.657,24.618a25.358,25.358,0,0,0,25.335,0l42.657-24.618a12.055,12.055,0,0,0,0-20.858l-42.657-24.618a25.357,25.357,0,0,0-25.335,0l-42.657,24.618A12.055,12.055,0,0,0,156.984,599.093Z" transform="translate(-127.017 -533.91)"/><path class="am" d="M166.82,601.634l40.374,23.32a22,22,0,0,0,22.022,0l40.374-23.32a10.331,10.331,0,0,0,0-17.859l-40.374-23.32a22,22,0,0,0-22.022,0l-40.374,23.32A10.3,10.3,0,0,0,166.82,601.634Z" transform="translate(-132.914 -537.928)"/><path class="an" d="M176.638,604.131l38.136,22.022a18.721,18.721,0,0,0,18.755,0l38.136-22.022a8.567,8.567,0,0,0,0-14.816l-38.136-22.022a18.722,18.722,0,0,0-18.755,0l-38.136,22.022A8.567,8.567,0,0,0,176.638,604.131Z" transform="translate(-138.838 -541.947)"/><path class="ao" d="M186.516,606.628l35.853,20.68a15.362,15.362,0,0,0,15.442,0l35.853-20.724a6.8,6.8,0,0,0,0-11.772l-35.853-20.68a15.363,15.363,0,0,0-15.442,0l-35.853,20.724A6.8,6.8,0,0,0,186.516,606.628Z" transform="translate(-144.776 -545.966)"/><path class="ap" d="M196.3,609.166l33.615,19.381a12.22,12.22,0,0,0,12.13,0l33.571-19.381a5.08,5.08,0,0,0,0-8.773l-33.571-19.381a12.22,12.22,0,0,0-12.13,0l-33.571,19.381A5.063,5.063,0,0,0,196.3,609.166Z" transform="translate(-150.666 -550.026)"/><path class="aq" d="M206.17,611.663,237.5,629.746a8.859,8.859,0,0,0,8.818,0l31.333-18.083a3.317,3.317,0,0,0,0-5.729L246.32,587.85a8.859,8.859,0,0,0-8.818,0L206.17,605.933A3.317,3.317,0,0,0,206.17,611.663Z" transform="translate(-156.597 -554.044)"/><path class="ar" d="M215.947,614.159,245,630.945a5.583,5.583,0,0,0,5.55,0l29.05-16.785a1.554,1.554,0,0,0,0-2.686l-29.05-16.785a5.584,5.584,0,0,0-5.55,0l-29.05,16.785A1.554,1.554,0,0,0,215.947,614.159Z" transform="translate(-162.48 -558.063)"/></g><g transform="translate(34.096 96.057)"><path class="as" d="M294.912,462.488l10.742-6.183v16.422l3.632-2.087V454.18L320.029,448V464.42l3.941-2.28V445.718l10.742-6.182v16.422l5.912-3.439V330.8L289,360.592l.039,121.718,5.873-3.362Z" transform="translate(-237.415 -301.008)"/><g transform="translate(0 29.792)"><path class="at" d="M161.412,439.535l10.742,6.182v16.461l3.941,2.241V448l25.117,14.529v16.422l5.912,3.362-.039-121.718L155.5,330.8V452.518l5.912,3.439Z" transform="translate(-155.5 -330.8)"/><path class="au" d="M208.8,650.522l5.719-3.323v-9.776L208.8,634.1Z" transform="translate(-188.204 -516.902)"/></g><path class="av" d="M155.5,283.492l51.585,29.792,51.624-29.792L207.085,253.7Z" transform="translate(-155.5 -253.7)"/><path class="ar" d="M398.5,356.766l3.4-1.971V338.373l-1.391-.773-2.009,1.159Z" transform="translate(-304.603 -305.18)"/><path class="aw" d="M405.091,354.8l-1.391-.773V337.6l1.391.773Z" transform="translate(-307.794 -305.18)"/><path class="aw" d="M398.5,382.843l3.4-1.971-1.391-.773-2.009,1.2Z" transform="translate(-304.603 -331.258)"/><path class="ax" d="M398.5,443.093l3.4-1.971V424.7l-3.4,1.932Z" transform="translate(-304.603 -358.624)"/><path class="ay" d="M405.091,441.122l-1.391-.811V425.473l1.391-.773Z" transform="translate(-307.794 -358.624)"/><path class="az" d="M398.5,467.882l3.4-1.971-1.391-.811-2.009,1.2Z" transform="translate(-304.603 -383.413)"/><path class="ba" d="M398.5,485.593l3.4-1.971V467.2l-3.4,1.971Z" transform="translate(-304.603 -384.702)"/><path class="bb" d="M405.091,483.622l-1.391-.811V467.973l1.391-.773Z" transform="translate(-307.794 -384.702)"/><path class="bc" d="M398.5,510.382l3.4-1.971-1.391-.811-2.009,1.2Z" transform="translate(-304.603 -409.491)"/><path class="bd" d="M398.5,570.593l3.4-1.971V552.2l-3.4,1.971Z" transform="translate(-304.603 -436.857)"/><path class="be" d="M405.091,568.622l-1.391-.773V552.973l1.391-.773Z" transform="translate(-307.794 -436.857)"/><path class="bf" d="M398.5,595.443l3.4-1.971-1.391-.773-2.009,1.159Z" transform="translate(-304.603 -461.708)"/><path class="bg" d="M379.5,410.02l5.023-2.9V390.7l-5.023,2.9Z" transform="translate(-292.945 -337.762)"/><path class="bh" d="M390.352,407.122,389,406.311V391.473l1.352-.773Z" transform="translate(-298.774 -337.762)"/><path class="bi" d="M379.5,434.809l5.023-2.9-1.352-.811-3.671,2.125Z" transform="translate(-292.945 -362.551)"/><path class="ar" d="M379.5,495.02l5.023-2.9V475.7l-5.023,2.9Z" transform="translate(-292.945 -389.917)"/><path class="aw" d="M390.352,492.122,389,491.35V476.473l1.352-.773Z" transform="translate(-298.774 -389.917)"/><path class="aw" d="M379.5,519.871l5.023-2.9-1.352-.773-3.671,2.125Z" transform="translate(-292.945 -414.768)"/><path class="bj" d="M398.158,628.622,392.4,625.3v-9.776l5.757-3.323Z" transform="translate(-300.86 -473.673)"/><path class="ar" d="M360.5,378.666l3.4-1.932V360.273l-1.352-.773-2.048,1.2Z" transform="translate(-281.286 -318.618)"/><path class="aw" d="M367.152,376.734l-1.352-.811V359.5l1.352.773Z" transform="translate(-284.538 -318.618)"/><path class="aw" d="M360.5,404.743l3.4-1.932L362.548,402l-2.048,1.2Z" transform="translate(-281.286 -344.696)"/><path class="ar" d="M360.5,464.993l3.4-1.971V446.6l-3.4,1.932Z" transform="translate(-281.286 -372.062)"/><path class="aw" d="M367.152,463.022l-1.352-.811V447.373l1.352-.773Z" transform="translate(-284.538 -372.062)"/><path class="aw" d="M360.5,489.782l3.4-1.971L362.548,487l-2.048,1.2Z" transform="translate(-281.286 -396.851)"/><path class="bk" d="M360.5,549.993l3.4-1.971V531.6l-3.4,1.971Z" transform="translate(-281.286 -424.217)"/><path class="bl" d="M367.152,548.022l-1.352-.773V532.373l1.352-.773Z" transform="translate(-284.538 -424.217)"/><path class="bm" d="M360.5,574.844l3.4-1.971-1.352-.773-2.048,1.159Z" transform="translate(-281.286 -449.068)"/><path class="ar" d="M360.5,592.493l3.4-1.971V574.1l-3.4,1.971Z" transform="translate(-281.286 -450.295)"/><path class="aw" d="M367.152,590.522l-1.352-.773V574.873l1.352-.773Z" transform="translate(-284.538 -450.295)"/><path class="aw" d="M360.5,617.344l3.4-1.971-1.352-.773-2.048,1.159Z" transform="translate(-281.286 -475.145)"/><path class="bn" d="M341.5,431.92l5.062-2.9V412.6l-5.062,2.9Z" transform="translate(-269.628 -351.2)"/><path class="bo" d="M352.452,429.022l-1.352-.811V413.373l1.352-.773Z" transform="translate(-275.519 -351.2)"/><path class="bp" d="M341.5,456.71l5.062-2.9L345.21,453l-3.71,2.125Z" transform="translate(-269.628 -375.989)"/><path class="ar" d="M341.5,516.92l5.062-2.9V497.6l-5.062,2.9Z" transform="translate(-269.628 -403.355)"/><path class="aw" d="M352.452,514.022l-1.352-.773V498.373l1.352-.773Z" transform="translate(-275.519 -403.355)"/><path class="bq" d="M341.5,541.771l5.062-2.9-1.352-.773-3.71,2.125Z" transform="translate(-269.628 -428.206)"/><path class="br" d="M341.5,559.42l5.062-2.9V540.1L341.5,543Z" transform="translate(-269.628 -429.433)"/><path class="bs" d="M352.452,556.522l-1.352-.773V540.873l1.352-.773Z" transform="translate(-275.519 -429.433)"/><path class="bt" d="M341.5,584.271l5.062-2.9-1.352-.773-3.71,2.125Z" transform="translate(-269.628 -454.283)"/><path class="bu" d="M379.5,580.059l5.023-2.937V560.7l-5.023,2.9Z" transform="translate(-292.945 -442.073)"/><path class="bv" d="M390.352,577.122,389,576.35V561.473l1.352-.773Z" transform="translate(-298.774 -442.073)"/><path class="bw" d="M379.5,604.91l5.023-2.937-1.352-.773-3.671,2.125Z" transform="translate(-292.945 -466.923)"/><path class="bj" d="M360.219,650.522,354.5,647.2v-9.776l5.719-3.323Z" transform="translate(-277.605 -487.11)"/><path class="ar" d="M323.3,400.166l3.4-1.932V381.773L325.348,381l-2.048,1.2Z" transform="translate(-258.461 -331.81)"/><path class="aw" d="M329.952,398.234l-1.352-.811V381l1.352.773Z" transform="translate(-261.713 -331.81)"/><path class="aw" d="M323.3,426.243l3.4-1.932-1.352-.811-2.048,1.2Z" transform="translate(-258.461 -357.888)"/><path class="bx" d="M323.3,486.493l3.4-1.971V468.1l-3.4,1.971Z" transform="translate(-258.461 -385.254)"/><path class="by" d="M329.952,484.522l-1.352-.811V468.873l1.352-.773Z" transform="translate(-261.713 -385.254)"/><path class="bz" d="M323.3,511.282l3.4-1.971-1.352-.811-2.048,1.2Z" transform="translate(-258.461 -410.043)"/><path class="ca" d="M323.3,528.993l3.4-1.971V510.6l-3.4,1.971Z" transform="translate(-258.461 -411.332)"/><path class="cb" d="M329.952,527.022l-1.352-.773V511.373l1.352-.773Z" transform="translate(-261.713 -411.332)"/><path class="cc" d="M323.3,553.843l3.4-1.971-1.352-.773-2.048,1.159Z" transform="translate(-258.461 -436.182)"/><path class="cd" d="M323.3,613.993l3.4-1.971V595.6l-3.4,1.971Z" transform="translate(-258.461 -463.487)"/><path class="ce" d="M329.952,612.022l-1.352-.773V596.373l1.352-.773Z" transform="translate(-261.713 -463.487)"/><path class="cf" d="M323.3,638.844l3.4-1.971-1.352-.773-2.048,1.159Z" transform="translate(-258.461 -488.338)"/><path class="cg" d="M304.3,453.42l5.023-2.9V434.1L304.3,437Z" transform="translate(-246.803 -364.392)"/><path class="ch" d="M315.152,450.522l-1.352-.811V434.873l1.352-.773Z" transform="translate(-252.632 -364.392)"/><path class="ci" d="M304.3,478.21l5.023-2.9-1.352-.811-3.671,2.125Z" transform="translate(-246.803 -389.181)"/><path class="cj" d="M304.3,538.42l5.023-2.9V519.1L304.3,522Z" transform="translate(-246.803 -416.547)"/><path class="ck" d="M315.152,535.522l-1.352-.773V519.873l1.352-.773Z" transform="translate(-252.632 -416.547)"/><path class="cl" d="M304.3,563.271l5.023-2.9-1.352-.773-3.671,2.125Z" transform="translate(-246.803 -441.398)"/><path class="bj" d="M322.957,672.022,317.2,668.7v-9.776l5.757-3.323Z" transform="translate(-254.718 -500.303)"/><path class="ar" d="M174.2,356.766l-3.4-1.932V338.373l1.352-.773,2.048,1.2Z" transform="translate(-164.888 -305.18)"/><path class="aw" d="M170.8,354.834l1.352-.811V337.6l-1.352.773Z" transform="translate(-164.888 -305.18)"/><path class="aw" d="M174.2,382.843l-3.4-1.932,1.352-.811,2.048,1.2Z" transform="translate(-164.888 -331.258)"/><path class="cm" d="M174.2,443.093l-3.4-1.971V424.7l3.4,1.932Z" transform="translate(-164.888 -358.624)"/><path class="cn" d="M170.8,441.122l1.352-.811V425.473L170.8,424.7Z" transform="translate(-164.888 -358.624)"/><path class="co" d="M174.2,467.882l-3.4-1.971,1.352-.811,2.048,1.2Z" transform="translate(-164.888 -383.413)"/><path class="cp" d="M174.2,485.593l-3.4-1.971V467.2l3.4,1.971Z" transform="translate(-164.888 -384.702)"/><path class="cq" d="M170.8,483.622l1.352-.773V467.973L170.8,467.2Z" transform="translate(-164.888 -384.702)"/><path class="cr" d="M174.2,510.443l-3.4-1.971,1.352-.773,2.048,1.159Z" transform="translate(-164.888 -409.552)"/><path class="cs" d="M174.2,570.593l-3.4-1.971V552.2l3.4,1.971Z" transform="translate(-164.888 -436.857)"/><path class="ct" d="M170.8,568.622l1.391-.773V552.973L170.8,552.2Z" transform="translate(-164.888 -436.857)"/><path class="cu" d="M174.2,595.443l-3.4-1.971,1.391-.773,2.009,1.159Z" transform="translate(-164.888 -461.708)"/><path class="cv" d="M190.623,410.02l-5.023-2.9V390.7l5.023,2.9Z" transform="translate(-173.969 -337.762)"/><path class="cw" d="M185.6,407.122l1.352-.811V391.473L185.6,390.7Z" transform="translate(-173.969 -337.762)"/><path class="cx" d="M190.623,434.809l-5.023-2.9,1.352-.811,3.671,2.125Z" transform="translate(-173.969 -362.551)"/><path class="ar" d="M190.623,495.02l-5.023-2.9V475.7l5.023,2.9Z" transform="translate(-173.969 -389.917)"/><path class="aw" d="M185.6,492.122l1.352-.773V476.473L185.6,475.7Z" transform="translate(-173.969 -389.917)"/><path class="aw" d="M190.623,519.871l-5.023-2.9,1.352-.773,3.671,2.125Z" transform="translate(-173.969 -414.768)"/><path class="bj" d="M170.8,628.622l5.757-3.323v-9.776L170.8,612.2Z" transform="translate(-164.888 -473.673)"/><path class="cy" d="M190.623,580.059l-5.023-2.937V560.7l5.023,2.9Z" transform="translate(-173.969 -442.073)"/><path class="cz" d="M185.6,577.122l1.352-.773V561.473L185.6,560.7Z" transform="translate(-173.969 -442.073)"/><path class="da" d="M190.623,604.91l-5.023-2.937,1.352-.773,3.671,2.125Z" transform="translate(-173.969 -466.923)"/><path class="ar" d="M249.4,400.2l-3.4-1.971V381.811l1.352-.811,2.048,1.2Z" transform="translate(-211.03 -331.81)"/><path class="aw" d="M246,398.234l1.352-.811V381l-1.352.811Z" transform="translate(-211.03 -331.81)"/><path class="aw" d="M249.4,426.282l-3.4-1.971,1.352-.811,2.048,1.2Z" transform="translate(-211.03 -357.888)"/><path class="ar" d="M249.4,486.493l-3.4-1.971V468.1l3.4,1.971Z" transform="translate(-211.03 -385.254)"/><path class="aw" d="M246,484.522l1.352-.773V468.873L246,468.1Z" transform="translate(-211.03 -385.254)"/><path class="aw" d="M249.4,511.344l-3.4-1.971,1.352-.773,2.048,1.159Z" transform="translate(-211.03 -410.105)"/><path class="db" d="M249.4,528.993l-3.4-1.971V510.6l3.4,1.971Z" transform="translate(-211.03 -411.332)"/><path class="dc" d="M246,527.022l1.352-.773V511.373L246,510.6Z" transform="translate(-211.03 -411.332)"/><path class="dd" d="M249.4,553.843l-3.4-1.971,1.352-.773,2.048,1.159Z" transform="translate(-211.03 -436.182)"/><path class="de" d="M249.4,613.993l-3.4-1.971V595.6l3.4,1.971Z" transform="translate(-211.03 -463.487)"/><path class="df" d="M246,612.022l1.391-.773-.039-14.877L246,595.6Z" transform="translate(-211.03 -463.487)"/><path class="dg" d="M249.4,638.844l-3.4-1.971,1.391-.773,2.009,1.159Z" transform="translate(-211.03 -488.338)"/><path class="dh" d="M265.823,453.42l-5.023-2.9V434.1l5.023,2.9Z" transform="translate(-220.111 -364.392)"/><path class="di" d="M260.8,450.522l1.352-.773V434.873L260.8,434.1Z" transform="translate(-220.111 -364.392)"/><path class="dj" d="M265.823,478.271l-5.023-2.9,1.352-.773,3.671,2.125Z" transform="translate(-220.111 -389.243)"/><path class="dk" d="M265.823,538.42l-5.023-2.9V519.1l5.023,2.9Z" transform="translate(-220.111 -416.547)"/><path class="dl" d="M260.8,535.522l1.352-.773V519.873L260.8,519.1Z" transform="translate(-220.111 -416.547)"/><path class="dm" d="M265.823,563.271l-5.023-2.9,1.352-.773,3.671,2.125Z" transform="translate(-220.111 -441.398)"/><path class="dn" d="M265.823,623.459l-5.023-2.937V604.1l5.023,2.937Z" transform="translate(-220.111 -468.703)"/><path class="do" d="M260.8,620.522l1.352-.773V604.911L260.8,604.1Z" transform="translate(-220.111 -468.703)"/><path class="dp" d="M265.823,648.31l-5.023-2.937,1.352-.773,3.671,2.125Z" transform="translate(-220.111 -493.553)"/><path class="dq" d="M212.2,549.993l-3.4-1.971V531.6l3.4,1.971Z" transform="translate(-188.204 -424.217)"/><path class="dr" d="M208.8,548.022l1.352-.773V532.373L208.8,531.6Z" transform="translate(-188.204 -424.217)"/><path class="ds" d="M212.2,574.844l-3.4-1.971,1.352-.773,2.048,1.159Z" transform="translate(-188.204 -449.068)"/><path class="dt" d="M228.562,516.92l-5.062-2.9V497.6l5.062,2.9Z" transform="translate(-197.224 -403.355)"/><path class="du" d="M223.5,514.022l1.352-.773V498.373L223.5,497.6Z" transform="translate(-197.224 -403.355)"/><path class="dv" d="M228.562,541.771l-5.062-2.9,1.352-.773,3.71,2.125Z" transform="translate(-197.224 -428.206)"/><path class="ar" d="M228.562,559.42l-5.062-2.9V540.1l5.062,2.9Z" transform="translate(-197.224 -429.433)"/><path class="aw" d="M223.5,556.522l1.352-.773V540.873L223.5,540.1Z" transform="translate(-197.224 -429.433)"/><path class="dw" d="M228.562,601.959l-5.062-2.937V582.6l5.062,2.9Z" transform="translate(-197.224 -455.51)"/><path class="dx" d="M223.5,599.022l1.352-.773V583.373L223.5,582.6Z" transform="translate(-197.224 -455.51)"/><path class="aw" d="M228.562,584.271l-5.062-2.9,1.352-.773,3.71,2.125Z" transform="translate(-197.224 -454.283)"/><path class="dy" d="M228.562,626.81l-5.062-2.937,1.352-.773,3.71,2.125Z" transform="translate(-197.224 -480.361)"/></g><path class="ar" d="M2420.308,841.9l30.386,17.77,31.874-17.77-31.874-18.41Z" transform="translate(-2365.246 -717.969)"/><path class="dz" d="M2422.523,692.109l-30.372-17.7-17.538-124h102.559l-22.427,124Z" transform="translate(-2337.208 -550.41)"/></g><g transform="translate(-63.413 656.221)"><g class="af" transform="translate(0 139.682)"><path class="ag" d="M105.139,567.555l39.882,23.017a30.923,30.923,0,0,0,30.92,0l39.882-23.017a15.366,15.366,0,0,0,0-26.621l-39.882-23.016a30.923,30.923,0,0,0-30.92,0l-39.882,23.016A15.366,15.366,0,0,0,105.139,567.555Z" transform="translate(-97.45 -513.775)"/><path class="ah" d="M115.244,571.3l38.2,22.058a28.442,28.442,0,0,0,28.473,0l38.2-22.058a14.063,14.063,0,0,0,0-24.372l-38.2-22.058a28.441,28.441,0,0,0-28.473,0l-38.2,22.058A14.063,14.063,0,0,0,115.244,571.3Z" transform="translate(-104.645 -518.644)"/><path class="ai" d="M125.249,575.044l36.542,21.1a25.959,25.959,0,0,0,26.026,0l36.542-21.1a12.761,12.761,0,0,0,0-22.124l-36.542-21.1a25.96,25.96,0,0,0-26.026,0l-36.542,21.1A12.761,12.761,0,0,0,125.249,575.044Z" transform="translate(-111.773 -523.513)"/><path class="aj" d="M135.3,578.772l34.856,20.14a23.7,23.7,0,0,0,23.612,0l34.856-20.14a11.487,11.487,0,0,0,0-19.908l-34.856-20.14a23.7,23.7,0,0,0-23.612,0L135.3,558.864A11.512,11.512,0,0,0,135.3,578.772Z" transform="translate(-118.951 -528.366)"/><path class="ak" d="M145.351,582.584l33.169,19.18a21.217,21.217,0,0,0,21.165,0l33.2-19.147a10.2,10.2,0,0,0,0-17.659l-33.2-19.18a21.217,21.217,0,0,0-21.165,0l-33.2,19.147A10.2,10.2,0,0,0,145.351,582.584Z" transform="translate(-126.088 -533.302)"/><path class="al" d="M155.415,586.329l31.516,18.188a18.735,18.735,0,0,0,18.717,0l31.515-18.188a8.906,8.906,0,0,0,0-15.41L205.648,552.73a18.735,18.735,0,0,0-18.717,0l-31.516,18.188A8.906,8.906,0,0,0,155.415,586.329Z" transform="translate(-133.274 -538.171)"/><path class="am" d="M165.47,590.107,195.3,607.336a16.252,16.252,0,0,0,16.27,0L241.4,590.107a7.632,7.632,0,0,0,0-13.195l-29.829-17.229a16.252,16.252,0,0,0-16.27,0L165.47,576.912A7.608,7.608,0,0,0,165.47,590.107Z" transform="translate(-140.419 -543.04)"/><path class="an" d="M175.525,593.852l28.175,16.27a13.832,13.832,0,0,0,13.856,0l28.175-16.27a6.33,6.33,0,0,0,0-10.946l-28.175-16.27a13.832,13.832,0,0,0-13.856,0l-28.175,16.27A6.33,6.33,0,0,0,175.525,593.852Z" transform="translate(-147.597 -547.909)"/><path class="ao" d="M185.63,597.6l26.489,15.278a11.349,11.349,0,0,0,11.409,0l26.489-15.311a5.027,5.027,0,0,0,0-8.7l-26.489-15.278a11.35,11.35,0,0,0-11.409,0L185.63,588.9A5.027,5.027,0,0,0,185.63,597.6Z" transform="translate(-154.792 -552.779)"/><path class="ap" d="M195.643,601.391l24.835,14.319a9.028,9.028,0,0,0,8.962,0l24.8-14.319a3.753,3.753,0,0,0,0-6.482l-24.8-14.319a9.028,9.028,0,0,0-8.962,0l-24.8,14.319A3.741,3.741,0,0,0,195.643,601.391Z" transform="translate(-161.929 -557.698)"/><path class="aq" d="M205.74,605.136l23.149,13.36a6.546,6.546,0,0,0,6.515,0l23.149-13.36a2.451,2.451,0,0,0,0-4.233L235.4,587.543a6.545,6.545,0,0,0-6.515,0L205.74,600.9A2.451,2.451,0,0,0,205.74,605.136Z" transform="translate(-169.116 -562.567)"/><path class="ar" d="M215.745,608.881l21.462,12.4a4.125,4.125,0,0,0,4.1,0l21.462-12.4a1.148,1.148,0,0,0,0-1.984l-21.462-12.4a4.125,4.125,0,0,0-4.1,0l-21.462,12.4A1.148,1.148,0,0,0,215.745,608.881Z" transform="translate(-176.244 -567.436)"/></g><g transform="translate(25.19 70.968)"><path class="as" d="M293.368,428.092l7.936-4.568v12.133l2.684-1.542V421.955l7.936-4.568V429.52l2.912-1.684V415.7l7.936-4.568v12.133l4.368-2.541V330.8L289,352.811l.029,89.927,4.339-2.484Z" transform="translate(-250.888 -308.789)"/><g transform="translate(0 22.011)"><path class="at" d="M159.868,411.135,167.8,415.7v12.162l2.912,1.656V417.387l18.556,10.734v12.133l4.368,2.484-.029-89.927L155.5,330.8v89.927l4.368,2.541Z" transform="translate(-155.5 -330.8)"/><path class="au" d="M208.8,646.233l4.225-2.455v-7.223L208.8,634.1Z" transform="translate(-193.584 -547.513)"/></g><path class="av" d="M155.5,275.711l38.112,22.011,38.14-22.011L193.612,253.7Z" transform="translate(-155.5 -253.7)"/><path class="ar" d="M398.5,351.76l2.512-1.456V338.171l-1.028-.571-1.484.857Z" transform="translate(-329.128 -313.648)"/><path class="aw" d="M404.728,350.3l-1.028-.571V337.6l1.028.571Z" transform="translate(-332.843 -313.648)"/><path class="aw" d="M398.5,382.127l2.512-1.456-1.028-.571-1.484.885Z" transform="translate(-329.128 -344.015)"/><path class="ax" d="M398.5,438.289l2.512-1.456V424.7l-2.512,1.427Z" transform="translate(-329.128 -375.883)"/><path class="ay" d="M404.728,436.833l-1.028-.6V425.271l1.028-.571Z" transform="translate(-332.843 -375.883)"/><path class="az" d="M398.5,467.155l2.512-1.456-1.028-.6-1.484.885Z" transform="translate(-329.128 -404.749)"/><path class="ba" d="M398.5,480.789l2.512-1.456V467.2l-2.512,1.456Z" transform="translate(-329.128 -406.249)"/><path class="bb" d="M404.728,479.333l-1.028-.6V467.771l1.028-.571Z" transform="translate(-332.843 -406.249)"/><path class="bc" d="M398.5,509.655l2.512-1.456-1.028-.6-1.484.885Z" transform="translate(-329.128 -435.116)"/><path class="bd" d="M398.5,565.789l2.512-1.456V552.2l-2.512,1.456Z" transform="translate(-329.128 -466.983)"/><path class="be" d="M404.728,564.333l-1.028-.571V552.771l1.028-.571Z" transform="translate(-332.843 -466.983)"/><path class="bf" d="M398.5,594.727l2.512-1.456-1.028-.571-1.484.856Z" transform="translate(-329.128 -495.921)"/><path class="bg" d="M379.5,404.974l3.711-2.141V390.7l-3.711,2.141Z" transform="translate(-315.552 -351.589)"/><path class="bh" d="M390,402.833l-1-.6V391.271l1-.571Z" transform="translate(-322.34 -351.589)"/><path class="bi" d="M379.5,433.841l3.711-2.141-1-.6-2.712,1.57Z" transform="translate(-315.552 -380.455)"/><path class="ar" d="M379.5,489.974l3.711-2.141V475.7l-3.711,2.141Z" transform="translate(-315.552 -412.323)"/><path class="aw" d="M390,487.833l-1-.571V476.271l1-.571Z" transform="translate(-322.34 -412.323)"/><path class="aw" d="M379.5,518.912l3.711-2.141-1-.571-2.712,1.57Z" transform="translate(-315.552 -441.261)"/><path class="bj" d="M396.654,624.333l-4.254-2.455v-7.223l4.254-2.455Z" transform="translate(-324.769 -509.854)"/><path class="ar" d="M360.5,373.66l2.512-1.427V360.071l-1-.571-1.513.885Z" transform="translate(-301.976 -329.296)"/><path class="aw" d="M366.8,372.233l-1-.6V359.5l1,.571Z" transform="translate(-305.763 -329.296)"/><path class="aw" d="M360.5,404.027l2.512-1.427-1-.6-1.513.885Z" transform="translate(-301.976 -359.663)"/><path class="ar" d="M360.5,460.189l2.512-1.456V446.6l-2.512,1.427Z" transform="translate(-301.976 -391.53)"/><path class="aw" d="M366.8,458.733l-1-.6V447.171l1-.571Z" transform="translate(-305.763 -391.53)"/><path class="aw" d="M360.5,489.055l2.512-1.456-1-.6-1.513.885Z" transform="translate(-301.976 -420.397)"/><path class="bk" d="M360.5,545.189l2.512-1.456V531.6l-2.512,1.456Z" transform="translate(-301.976 -452.264)"/><path class="bl" d="M366.8,543.733l-1-.571V532.171l1-.571Z" transform="translate(-305.763 -452.264)"/><path class="bm" d="M360.5,574.127l2.512-1.456-1-.571-1.513.856Z" transform="translate(-301.976 -481.202)"/><path class="ar" d="M360.5,587.689l2.512-1.456V574.1l-2.512,1.456Z" transform="translate(-301.976 -482.631)"/><path class="aw" d="M366.8,586.233l-1-.571V574.671l1-.571Z" transform="translate(-305.763 -482.631)"/><path class="aw" d="M360.5,616.627l2.512-1.456-1-.571-1.513.856Z" transform="translate(-301.976 -511.569)"/><path class="bn" d="M341.5,426.874l3.74-2.141V412.6l-3.74,2.141Z" transform="translate(-288.4 -367.237)"/><path class="bo" d="M352.1,424.733l-1-.6V413.171l1-.571Z" transform="translate(-295.26 -367.237)"/><path class="bp" d="M341.5,455.741l3.74-2.141-1-.6-2.741,1.57Z" transform="translate(-288.4 -396.103)"/><path class="ar" d="M341.5,511.874l3.74-2.141V497.6l-3.74,2.141Z" transform="translate(-288.4 -427.971)"/><path class="aw" d="M352.1,509.733l-1-.571V498.171l1-.571Z" transform="translate(-295.26 -427.971)"/><path class="bq" d="M341.5,540.812l3.74-2.141-1-.571-2.741,1.57Z" transform="translate(-288.4 -456.909)"/><path class="br" d="M341.5,554.374l3.74-2.141V540.1l-3.74,2.141Z" transform="translate(-288.4 -458.338)"/><path class="bs" d="M352.1,552.233l-1-.571V540.671l1-.571Z" transform="translate(-295.26 -458.338)"/><path class="bt" d="M341.5,583.312l3.74-2.141-1-.571-2.741,1.57Z" transform="translate(-288.4 -487.276)"/><path class="bu" d="M379.5,575l3.711-2.17V560.7l-3.711,2.141Z" transform="translate(-315.552 -473.057)"/><path class="bv" d="M390,572.833l-1-.571V561.271l1-.571Z" transform="translate(-322.34 -473.057)"/><path class="bw" d="M379.5,603.941l3.711-2.17-1-.571-2.712,1.57Z" transform="translate(-315.552 -501.995)"/><path class="bj" d="M358.725,646.233l-4.225-2.455v-7.223l4.225-2.455Z" transform="translate(-297.689 -525.502)"/><path class="ar" d="M323.3,395.16l2.512-1.427V381.571l-1-.571-1.513.885Z" transform="translate(-275.396 -344.658)"/><path class="aw" d="M329.6,393.733l-1-.6V381l1,.571Z" transform="translate(-279.183 -344.658)"/><path class="aw" d="M323.3,425.527l2.512-1.427-1-.6-1.513.885Z" transform="translate(-275.396 -375.025)"/><path class="bx" d="M323.3,481.689l2.512-1.456V468.1l-2.512,1.456Z" transform="translate(-275.396 -406.893)"/><path class="by" d="M329.6,480.233l-1-.6V468.671l1-.571Z" transform="translate(-279.183 -406.893)"/><path class="bz" d="M323.3,510.555l2.512-1.456-1-.6-1.513.885Z" transform="translate(-275.396 -435.759)"/><path class="ca" d="M323.3,524.189l2.512-1.456V510.6l-2.512,1.456Z" transform="translate(-275.396 -437.26)"/><path class="cb" d="M329.6,522.733l-1-.571V511.171l1-.571Z" transform="translate(-279.183 -437.26)"/><path class="cc" d="M323.3,553.127l2.512-1.456-1-.571-1.513.856Z" transform="translate(-275.396 -466.197)"/><path class="cd" d="M323.3,609.189l2.512-1.456V595.6l-2.512,1.456Z" transform="translate(-275.396 -497.993)"/><path class="ce" d="M329.6,607.733l-1-.571V596.171l1-.571Z" transform="translate(-279.183 -497.993)"/><path class="cf" d="M323.3,638.127l2.512-1.456-1-.571-1.513.856Z" transform="translate(-275.396 -526.931)"/><path class="cg" d="M304.3,448.374l3.711-2.141V434.1l-3.711,2.141Z" transform="translate(-261.82 -382.599)"/><path class="ch" d="M314.8,446.233l-1-.6V434.671l1-.571Z" transform="translate(-268.608 -382.599)"/><path class="ci" d="M304.3,477.241l3.711-2.141-1-.6-2.712,1.57Z" transform="translate(-261.82 -411.465)"/><path class="cj" d="M304.3,533.374l3.711-2.141V519.1l-3.711,2.141Z" transform="translate(-261.82 -443.333)"/><path class="ck" d="M314.8,531.233l-1-.571V519.671l1-.571Z" transform="translate(-268.608 -443.333)"/><path class="cl" d="M304.3,562.312l3.711-2.141-1-.571-2.712,1.57Z" transform="translate(-261.82 -472.271)"/><path class="bj" d="M321.454,667.733l-4.254-2.455v-7.223l4.254-2.455Z" transform="translate(-271.037 -540.865)"/><path class="ar" d="M173.312,351.76l-2.512-1.427V338.171l1-.571,1.513.885Z" transform="translate(-166.432 -313.648)"/><path class="aw" d="M170.8,350.333l1-.6V337.6l-1,.571Z" transform="translate(-166.432 -313.648)"/><path class="aw" d="M173.312,382.127,170.8,380.7l1-.6,1.513.885Z" transform="translate(-166.432 -344.015)"/><path class="cm" d="M173.312,438.289l-2.512-1.456V424.7l2.512,1.427Z" transform="translate(-166.432 -375.883)"/><path class="cn" d="M170.8,436.833l1-.6V425.271l-1-.571Z" transform="translate(-166.432 -375.883)"/><path class="co" d="M173.312,467.155,170.8,465.7l1-.6,1.513.885Z" transform="translate(-166.432 -404.749)"/><path class="cp" d="M173.312,480.789l-2.512-1.456V467.2l2.512,1.456Z" transform="translate(-166.432 -406.249)"/><path class="cq" d="M170.8,479.333l1-.571V467.771l-1-.571Z" transform="translate(-166.432 -406.249)"/><path class="cr" d="M173.312,509.727l-2.512-1.456,1-.571,1.513.856Z" transform="translate(-166.432 -435.187)"/><path class="cs" d="M173.312,565.789l-2.512-1.456V552.2l2.512,1.456Z" transform="translate(-166.432 -466.983)"/><path class="ct" d="M170.8,564.333l1.028-.571V552.771L170.8,552.2Z" transform="translate(-166.432 -466.983)"/><path class="cu" d="M173.312,594.727l-2.512-1.456,1.028-.571,1.484.856Z" transform="translate(-166.432 -495.921)"/><path class="cv" d="M189.311,404.974l-3.711-2.141V390.7l3.711,2.141Z" transform="translate(-177.007 -351.589)"/><path class="cw" d="M185.6,402.833l1-.6V391.271l-1-.571Z" transform="translate(-177.007 -351.589)"/><path class="cx" d="M189.311,433.841,185.6,431.7l1-.6,2.712,1.57Z" transform="translate(-177.007 -380.455)"/><path class="ar" d="M189.311,489.974l-3.711-2.141V475.7l3.711,2.141Z" transform="translate(-177.007 -412.323)"/><path class="aw" d="M185.6,487.833l1-.571V476.271l-1-.571Z" transform="translate(-177.007 -412.323)"/><path class="aw" d="M189.311,518.912l-3.711-2.141,1-.571,2.712,1.57Z" transform="translate(-177.007 -441.261)"/><path class="bj" d="M170.8,624.333l4.254-2.455v-7.223L170.8,612.2Z" transform="translate(-166.432 -509.854)"/><path class="cy" d="M189.311,575l-3.711-2.17V560.7l3.711,2.141Z" transform="translate(-177.007 -473.057)"/><path class="cz" d="M185.6,572.833l1-.571V561.271l-1-.571Z" transform="translate(-177.007 -473.057)"/><path class="da" d="M189.311,603.941l-3.711-2.17,1-.571,2.712,1.57Z" transform="translate(-177.007 -501.995)"/><path class="ar" d="M248.512,395.188,246,393.733V381.6l1-.6,1.513.885Z" transform="translate(-220.164 -344.658)"/><path class="aw" d="M246,393.733l1-.6V381l-1,.6Z" transform="translate(-220.164 -344.658)"/><path class="aw" d="M248.512,425.555,246,424.1l1-.6,1.513.885Z" transform="translate(-220.164 -375.025)"/><path class="ar" d="M248.512,481.689,246,480.233V468.1l2.512,1.456Z" transform="translate(-220.164 -406.893)"/><path class="aw" d="M246,480.233l1-.571V468.671l-1-.571Z" transform="translate(-220.164 -406.893)"/><path class="aw" d="M248.512,510.627,246,509.171l1-.571,1.513.856Z" transform="translate(-220.164 -435.83)"/><path class="db" d="M248.512,524.189,246,522.733V510.6l2.512,1.456Z" transform="translate(-220.164 -437.26)"/><path class="dc" d="M246,522.733l1-.571V511.171l-1-.571Z" transform="translate(-220.164 -437.26)"/><path class="dd" d="M248.512,553.127,246,551.671l1-.571,1.513.856Z" transform="translate(-220.164 -466.197)"/><path class="de" d="M248.512,609.189,246,607.733V595.6l2.512,1.456Z" transform="translate(-220.164 -497.993)"/><path class="df" d="M246,607.733l1.028-.571L247,596.171l-1-.571Z" transform="translate(-220.164 -497.993)"/><path class="dg" d="M248.512,638.127,246,636.671l1.028-.571,1.484.856Z" transform="translate(-220.164 -526.931)"/><path class="dh" d="M264.511,448.374l-3.711-2.141V434.1l3.711,2.141Z" transform="translate(-230.739 -382.599)"/><path class="di" d="M260.8,446.233l1-.571V434.671l-1-.571Z" transform="translate(-230.739 -382.599)"/><path class="dj" d="M264.511,477.312l-3.711-2.141,1-.571,2.712,1.57Z" transform="translate(-230.739 -411.537)"/><path class="dk" d="M264.511,533.374l-3.711-2.141V519.1l3.711,2.141Z" transform="translate(-230.739 -443.333)"/><path class="dl" d="M260.8,531.233l1-.571V519.671l-1-.571Z" transform="translate(-230.739 -443.333)"/><path class="dm" d="M264.511,562.312l-3.711-2.141,1-.571,2.712,1.57Z" transform="translate(-230.739 -472.271)"/><path class="dn" d="M264.511,618.4l-3.711-2.17V604.1l3.711,2.17Z" transform="translate(-230.739 -504.067)"/><path class="do" d="M260.8,616.233l1-.571V604.7l-1-.6Z" transform="translate(-230.739 -504.067)"/><path class="dp" d="M264.511,647.341l-3.711-2.17,1-.571,2.712,1.57Z" transform="translate(-230.739 -533.005)"/><path class="dq" d="M211.312,545.189l-2.512-1.456V531.6l2.512,1.456Z" transform="translate(-193.584 -452.264)"/><path class="dr" d="M208.8,543.733l1-.571V532.171l-1-.571Z" transform="translate(-193.584 -452.264)"/><path class="ds" d="M211.312,574.127l-2.512-1.456,1-.571,1.513.856Z" transform="translate(-193.584 -481.202)"/><path class="dt" d="M227.24,511.874l-3.74-2.141V497.6l3.74,2.141Z" transform="translate(-204.087 -427.971)"/><path class="du" d="M223.5,509.733l1-.571V498.171l-1-.571Z" transform="translate(-204.087 -427.971)"/><path class="dv" d="M227.24,540.812l-3.74-2.141,1-.571,2.741,1.57Z" transform="translate(-204.087 -456.909)"/><path class="ar" d="M227.24,554.374l-3.74-2.141V540.1l3.74,2.141Z" transform="translate(-204.087 -458.338)"/><path class="aw" d="M223.5,552.233l1-.571V540.671l-1-.571Z" transform="translate(-204.087 -458.338)"/><path class="dw" d="M227.24,596.9l-3.74-2.17V582.6l3.74,2.141Z" transform="translate(-204.087 -488.705)"/><path class="dx" d="M223.5,594.733l1-.571V583.171l-1-.571Z" transform="translate(-204.087 -488.705)"/><path class="aw" d="M227.24,583.312l-3.74-2.141,1-.571,2.741,1.57Z" transform="translate(-204.087 -487.276)"/><path class="dy" d="M227.24,625.841l-3.74-2.17,1-.571,2.741,1.57Z" transform="translate(-204.087 -517.643)"/></g><path class="ar" d="M2420.308,837.091l22.449,13.128,23.549-13.128-23.549-13.6Z" transform="translate(-2379.628 -745.53)"/><path class="dz" d="M2410.009,655.1l-22.439-13.079-12.957-91.61h75.771l-16.569,91.61Z" transform="translate(-2346.978 -550.41)"/></g><g class="b" transform="translate(1.489 851.557)"><path class="u" d="M169.665,475.925l53.965-31.162L169.665,413.6,115.7,444.762Z" transform="translate(-115.7 -413.6)"/><path class="v" d="M210.6,619.094l53.965-31.162V468.4L210.6,499.562Z" transform="translate(-156.635 -437.238)"/><path class="w" d="M169.665,619.094,115.7,587.931V468.4l53.965,31.162Z" transform="translate(-115.7 -437.238)"/></g><g transform="translate(-536.691 703.577)"><path class="ea" d="M394.436,145.411s-13.892,1.446-15.828-8.211a83.113,83.113,0,0,0-30.185,18.23s-5.552,16.422-11.594,21.019c0,0-9.786,43.225,27.164,52.521C364.019,228.969,396.967,191.554,394.436,145.411Z" transform="translate(-22.401 -13.501)"/><path class="eb" d="M517.828,145.411S504.556,146.857,502,137.2c0,0,1.446,6.275,10.251,3.383C512.277,140.583,517.7,142.184,517.828,145.411Z" transform="translate(-145.793 -13.501)"/><path class="ec" d="M356.207,123.7s-1.807-3.15-6.765-4.7c0,0-18.359,5.681-30.056,19.573a46.778,46.778,0,0,1-12.911,22.206s-10.38,48.286,35.143,54.69c0,0-34.162-5.319-27.164-52.521,0,0,8.624-8.728,11.594-21.019C326.021,141.929,335.085,131.911,356.207,123.7Z" transform="translate(0 0)"/><g transform="translate(323.259 141.663)"><path class="ed" d="M390,271.908c10.845-6.739,20.115-4.648,21.845,5.009a26.764,26.764,0,0,1,.258,4.39,4.918,4.918,0,0,1-.465,1.885c-.413,1.059-.955,2.117-1.446,3.176-.258.542-.568,1.007-1.059,1.11-.491.129-.568-.258-.542-.775a26.438,26.438,0,0,0-.336-8.547c-1.782-6.249-8.082-8.082-15.544-4.39-6.533,3.254-12.084,8.753-16.6,16.345a2.592,2.592,0,0,1-1.059,1.162c-.413.155-.646.026-.646-.387a10.246,10.246,0,0,1,.258-2.479,7.75,7.75,0,0,1,1.059-2.324,49.858,49.858,0,0,1,12.42-12.911C388.7,272.76,389.351,272.373,390,271.908Z" transform="translate(-374.4 -252.172)"/><path class="ee" d="M407.844,308.99c-.336,2.763-.646,5.5-1.033,8.237a8.484,8.484,0,0,1-2.969,4.854c-.62.568-1.136.336-.981-.413.258-1.369.62-2.84.826-4.209a35.5,35.5,0,0,0,.491-9.063c-.542-4.674-4.622-6.481-9.631-4.235-6.765,3.047-12.911,11.181-14.073,18.669-.077.439-.077.8-.155,1.188a1.792,1.792,0,0,1-.723,1.214c-.387.31-.723.336-.878.052a13.472,13.472,0,0,1-1.033-2.582,3.632,3.632,0,0,1,.232-1.807,35.464,35.464,0,0,1,12.859-17.868c8-5.836,15.106-4.88,16.629,2.143.077.284.1.62.155.9.077.981.1,1.988.155,2.969A.2.2,0,0,0,407.844,308.99Z" transform="translate(-376.807 -275.336)"/><path class="ef" d="M397.568,241.829c10.122-6.016,18.178-6.843,24.065-2.195a3.711,3.711,0,0,1,1.239,3.124v2.092a1.713,1.713,0,0,1-.671,1.369c-.491.413-.8.31-.981,0a12.2,12.2,0,0,0-1.446-1.937c-4.261-4.441-10.483-4.8-18.617-.955-5.164,2.427-10.122,6.4-14.847,11.62-.1.155-.258.284-.387.439-.387.439-.723.646-1.033.491-.31-.1-.31-.465-.1-.955a15.341,15.341,0,0,1,4.028-6.145A54.776,54.776,0,0,1,397.568,241.829Z" transform="translate(-381.998 -228.936)"/><path class="eg" d="M416.407,336.538a48.35,48.35,0,0,1-1.937,11.594,4.044,4.044,0,0,1-2.195,2.892,6.274,6.274,0,0,1-.671.387c-.749.439-1.136.155-.826-.775a41.428,41.428,0,0,0,2.246-13.35c0-2.918-2.272-3.77-5.164-1.962-2.84,1.782-5.087,5.5-5.113,8.392a25.819,25.819,0,0,1-1.188,8.056c-.413,1.317-.981,1.782-1.782,1.5-.232-.077-.491-.181-.723-.258-.465-.207-.62-.646-.413-1.42a22.715,22.715,0,0,0,.671-5.706c0-4.209,2.814-9.373,6.946-12.833,4.7-3.9,9.476-3.46,10.019.955C416.381,334.834,416.381,335.686,416.407,336.538Z" transform="translate(-392.316 -298.469)"/><path class="eh" d="M423.98,211.605a39.416,39.416,0,0,1,12.265-4.7,7.126,7.126,0,0,1,6.3,1.782c.258.207.232.62-.1,1.162a1.316,1.316,0,0,1-1.214.723,21.122,21.122,0,0,0-8.263.7,43.929,43.929,0,0,0-14.486,7.23c-.465.31-.8.413-1.033.155a1.056,1.056,0,0,1,.258-1.162,27.094,27.094,0,0,1,5.965-5.732A.693.693,0,0,0,423.98,211.605Z" transform="translate(-406.267 -206.768)"/><path class="ei" d="M425.067,364.127a37.213,37.213,0,0,1-2.246,11.155c-.413,1.136-.723,1.446-1.627,1.627-.413.077-.8.129-1.214.181-.465.026-.62-.31-.387-.9a31.6,31.6,0,0,0,2.04-11.336,3.548,3.548,0,0,1,1.7-2.84c.981-.62,1.678-.284,1.678.775A11.674,11.674,0,0,1,425.067,364.127Z" transform="translate(-407.845 -321.694)"/></g></g><g transform="translate(-326.935 539.129)"><path class="ea" d="M375.484,142.764s-9.413.98-10.725-5.564a56.315,56.315,0,0,0-20.452,12.352s-3.762,11.127-7.856,14.241c0,0-6.631,29.288,18.405,35.586C354.874,199.38,377.2,174.028,375.484,142.764Z" transform="translate(-24.916 -15.016)"/><path class="eb" d="M512.725,142.764s-8.993.98-10.725-5.564c0,0,.98,4.251,6.946,2.292C508.963,139.492,512.637,140.577,512.725,142.764Z" transform="translate(-162.157 -15.016)"/><path class="ec" d="M339.843,122.184A8.139,8.139,0,0,0,335.259,119s-12.439,3.849-20.365,13.262a31.7,31.7,0,0,1-8.748,15.046s-7.033,32.717,23.812,37.056c0,0-23.147-3.6-18.405-35.586a33.908,33.908,0,0,0,7.856-14.242C319.391,134.536,325.532,127.748,339.843,122.184Z" transform="translate(0)"/><g transform="translate(317.519 134.356)"><path class="ed" d="M384.967,270.641c7.348-4.566,13.629-3.149,14.8,3.394a18.133,18.133,0,0,1,.175,2.974,3.332,3.332,0,0,1-.315,1.277c-.28.717-.647,1.435-.98,2.152-.175.367-.385.682-.717.752-.332.087-.385-.175-.367-.525a17.914,17.914,0,0,0-.227-5.791c-1.207-4.234-5.476-5.476-10.532-2.974-4.426,2.2-8.188,5.931-11.25,11.075a1.756,1.756,0,0,1-.717.787c-.28.1-.437.018-.437-.262a6.942,6.942,0,0,1,.175-1.68,5.252,5.252,0,0,1,.717-1.575,33.782,33.782,0,0,1,8.415-8.748C384.093,271.218,384.53,270.955,384.967,270.641Z" transform="translate(-374.4 -257.268)"/><path class="ee" d="M398.107,305.835c-.227,1.872-.437,3.727-.7,5.581A5.748,5.748,0,0,1,395.4,314.7c-.42.385-.77.227-.665-.28.175-.927.42-1.925.56-2.852a24.053,24.053,0,0,0,.332-6.141c-.367-3.167-3.132-4.391-6.526-2.869a18.178,18.178,0,0,0-9.535,12.649c-.052.3-.052.542-.1.8a1.214,1.214,0,0,1-.49.822c-.262.21-.49.227-.595.035a9.131,9.131,0,0,1-.7-1.75,2.461,2.461,0,0,1,.157-1.225,24.03,24.03,0,0,1,8.713-12.107c5.424-3.954,10.235-3.307,11.267,1.452.052.192.07.42.1.612.052.665.07,1.347.1,2.012A.134.134,0,0,0,398.107,305.835Z" transform="translate(-377.077 -283.032)"/><path class="ef" d="M393.4,240.16c6.858-4.077,12.317-4.636,16.306-1.487a2.514,2.514,0,0,1,.84,2.117v1.417a1.161,1.161,0,0,1-.455.927c-.332.28-.542.21-.665,0a8.265,8.265,0,0,0-.98-1.312c-2.887-3.009-7.1-3.254-12.614-.647a32.765,32.765,0,0,0-10.06,7.873c-.07.1-.175.192-.262.3-.262.3-.49.437-.7.332-.21-.07-.21-.315-.07-.647a10.394,10.394,0,0,1,2.729-4.164A37.114,37.114,0,0,1,393.4,240.16Z" transform="translate(-382.851 -231.424)"/><path class="eg" d="M410.65,334.556a32.759,32.759,0,0,1-1.312,7.856,2.74,2.74,0,0,1-1.487,1.96,4.255,4.255,0,0,1-.455.262c-.507.3-.77.1-.56-.525a28.07,28.07,0,0,0,1.522-9.045c0-1.977-1.54-2.554-3.5-1.33a7.684,7.684,0,0,0-3.464,5.686,17.494,17.494,0,0,1-.8,5.459c-.28.892-.665,1.207-1.207,1.015-.157-.052-.332-.122-.49-.175-.315-.14-.42-.437-.28-.962a15.394,15.394,0,0,0,.455-3.867c0-2.852,1.907-6.351,4.706-8.7,3.184-2.642,6.421-2.344,6.788.647C410.633,333.4,410.633,333.979,410.65,334.556Z" transform="translate(-394.327 -308.762)"/><path class="eh" d="M421.845,210.046a26.707,26.707,0,0,1,8.31-3.184,4.828,4.828,0,0,1,4.269,1.207c.175.14.157.42-.07.787a.892.892,0,0,1-.822.49,14.311,14.311,0,0,0-5.6.472,29.765,29.765,0,0,0-9.815,4.9c-.315.21-.542.28-.7.1a.716.716,0,0,1,.175-.787,18.359,18.359,0,0,1,4.042-3.884A.47.47,0,0,0,421.845,210.046Z" transform="translate(-409.843 -206.768)"/><path class="ei" d="M423.268,363.344a25.215,25.215,0,0,1-1.522,7.558c-.28.77-.49.98-1.1,1.1-.28.053-.542.087-.822.122-.315.017-.42-.21-.262-.612a21.412,21.412,0,0,0,1.382-7.681,2.4,2.4,0,0,1,1.155-1.925c.665-.42,1.137-.192,1.137.525A7.913,7.913,0,0,1,423.268,363.344Z" transform="translate(-411.598 -334.593)"/></g></g><g transform="translate(519.102 616.845)"><path class="ea" d="M380.7,143.493s-10.647,1.108-12.131-6.293a63.7,63.7,0,0,0-23.133,13.971s-4.255,12.586-8.885,16.108c0,0-7.5,33.127,20.818,40.251C357.393,207.531,382.644,178.856,380.7,143.493Z" transform="translate(-24.223 -14.598)"/><path class="eb" d="M514.131,143.493S503.959,144.6,502,137.2c0,0,1.108,4.809,7.856,2.592C509.876,139.792,514.032,141.019,514.131,143.493Z" transform="translate(-157.649 -14.598)"/><path class="ec" d="M344.351,122.6a9.206,9.206,0,0,0-5.185-3.6s-14.07,4.354-23.035,15a35.85,35.85,0,0,1-9.895,17.019s-7.955,37.006,26.933,41.913c0,0-26.181-4.077-20.818-40.251a38.353,38.353,0,0,0,8.885-16.108C321.217,136.573,328.163,128.895,344.351,122.6Z"/><g transform="translate(319.1 136.369)"><path class="ed" d="M386.353,270.99c8.311-5.165,15.416-3.562,16.742,3.839a20.511,20.511,0,0,1,.2,3.364,3.769,3.769,0,0,1-.356,1.445c-.317.811-.732,1.623-1.108,2.434-.2.416-.435.772-.811.851-.376.1-.435-.2-.416-.594a20.263,20.263,0,0,0-.257-6.55c-1.365-4.789-6.194-6.194-11.913-3.364-5.007,2.493-9.261,6.709-12.724,12.527a1.987,1.987,0,0,1-.811.891c-.317.119-.495.02-.495-.3a7.854,7.854,0,0,1,.2-1.9,5.94,5.94,0,0,1,.811-1.781,38.21,38.21,0,0,1,9.519-9.895C385.363,271.643,385.858,271.346,386.353,270.99Z" transform="translate(-374.4 -255.864)"/><path class="ee" d="M400.789,306.7c-.257,2.117-.495,4.215-.792,6.313a6.5,6.5,0,0,1-2.276,3.72c-.475.435-.871.257-.752-.317.2-1.049.475-2.177.633-3.226a27.205,27.205,0,0,0,.376-6.946c-.416-3.582-3.542-4.967-7.381-3.245-5.185,2.335-9.895,8.569-10.785,14.308-.059.336-.059.613-.119.91a1.373,1.373,0,0,1-.554.93c-.3.237-.554.257-.673.04a10.326,10.326,0,0,1-.792-1.979,2.783,2.783,0,0,1,.178-1.385,27.179,27.179,0,0,1,9.855-13.694c6.135-4.472,11.577-3.74,12.744,1.642.059.218.079.475.119.693.059.752.079,1.524.119,2.276A.151.151,0,0,0,400.789,306.7Z" transform="translate(-377.003 -280.912)"/><path class="ef" d="M394.548,240.619c7.757-4.611,13.932-5.244,18.443-1.682a2.844,2.844,0,0,1,.95,2.394v1.6a1.313,1.313,0,0,1-.515,1.049c-.376.317-.613.237-.752,0a9.352,9.352,0,0,0-1.108-1.484c-3.265-3.4-8.034-3.681-14.268-.732a37.06,37.06,0,0,0-11.379,8.905c-.079.119-.2.218-.3.336-.3.336-.554.495-.792.376-.237-.079-.237-.356-.079-.732a11.758,11.758,0,0,1,3.087-4.71A41.981,41.981,0,0,1,394.548,240.619Z" transform="translate(-382.616 -230.738)"/><path class="eg" d="M412.236,335.1a37.053,37.053,0,0,1-1.484,8.885,3.1,3.1,0,0,1-1.682,2.216,4.814,4.814,0,0,1-.515.3c-.574.336-.871.119-.633-.594a31.749,31.749,0,0,0,1.722-10.231c0-2.236-1.741-2.889-3.958-1.5a8.691,8.691,0,0,0-3.918,6.431,19.788,19.788,0,0,1-.91,6.174c-.317,1.009-.752,1.365-1.365,1.148-.178-.059-.376-.138-.554-.2-.356-.158-.475-.495-.317-1.088a17.408,17.408,0,0,0,.515-4.373c0-3.226,2.157-7.183,5.323-9.835,3.6-2.988,7.263-2.652,7.678.732C412.216,333.8,412.216,334.449,412.236,335.1Z" transform="translate(-393.773 -305.927)"/><path class="eh" d="M422.433,210.475a30.208,30.208,0,0,1,9.4-3.6,5.461,5.461,0,0,1,4.829,1.365c.2.158.178.475-.079.891a1.009,1.009,0,0,1-.93.554,16.187,16.187,0,0,0-6.333.534,33.666,33.666,0,0,0-11.1,5.541c-.356.237-.613.317-.792.119a.809.809,0,0,1,.2-.891,20.764,20.764,0,0,1,4.571-4.393A.531.531,0,0,0,422.433,210.475Z" transform="translate(-408.858 -206.768)"/><path class="ei" d="M423.764,363.56a28.52,28.52,0,0,1-1.722,8.549c-.317.871-.554,1.108-1.247,1.247-.317.059-.613.1-.93.139-.356.02-.475-.237-.3-.693a24.219,24.219,0,0,0,1.563-8.687,2.719,2.719,0,0,1,1.306-2.177c.752-.475,1.286-.218,1.286.594A8.952,8.952,0,0,1,423.764,363.56Z" transform="translate(-410.564 -331.04)"/></g></g></g></g></svg>