<svg xmlns="http://www.w3.org/2000/svg" xmlns:xlink="http://www.w3.org/1999/xlink" viewBox="0 0 392.766 200">
  <defs>
    <style>
      .cls-1 {
        fill: none;
      }

      .cls-2 {
        opacity: 0.788;
      }

      .cls-3 {
        fill: url(#linear-gradient);
      }

      .cls-4 {
        fill: #e1ecfb;
      }

      .cls-11, .cls-5, .cls-6 {
        fill: #fff;
      }

      .cls-5 {
        opacity: 0.4;
      }

      .cls-7 {
        opacity: 0.7;
        fill: url(#linear-gradient-2);
      }

      .cls-8 {
        fill: url(#linear-gradient-3);
      }

      .cls-9 {
        fill: #d1e0f4;
      }

      .cls-10, .cls-16 {
        stroke: #d8e6f8;
      }

      .cls-10 {
        fill: url(#radial-gradient);
      }

      .cls-11 {
        opacity: 0.25;
      }

      .cls-12 {
        fill: #bfdaff;
      }

      .cls-13 {
        fill: #afd3ff;
      }

      .cls-14 {
        fill: #cde3fd;
      }

      .cls-15 {
        fill: #cee3fd;
      }

      .cls-16 {
        fill: url(#radial-gradient-2);
      }
    </style>
    <linearGradient id="linear-gradient" x1="0.5" x2="0.5" y2="1" gradientUnits="objectBoundingBox">
      <stop offset="0" stop-color="#dbece9"/>
      <stop offset="0.066" stop-color="#deeeec"/>
      <stop offset="0.324" stop-color="#e5f4f2"/>
      <stop offset="0.602" stop-color="#d2e4e6"/>
      <stop offset="1" stop-color="#b2ced4"/>
    </linearGradient>
    <linearGradient id="linear-gradient-2" x1="0.5" x2="0.5" y2="1" gradientUnits="objectBoundingBox">
      <stop offset="0" stop-color="#deecff"/>
      <stop offset="1" stop-color="#c4e0ff"/>
    </linearGradient>
    <linearGradient id="linear-gradient-3" x1="0.5" y1="1" x2="0.5" y2="-0.229" gradientUnits="objectBoundingBox">
      <stop offset="0" stop-color="#e6f7ff"/>
      <stop offset="0.412" stop-color="#bed6e8"/>
      <stop offset="1" stop-color="#c5e4f2"/>
    </linearGradient>
    <radialGradient id="radial-gradient" cx="66.535" cy="35.688" r="91.994" gradientUnits="userSpaceOnUse">
      <stop offset="0" stop-color="#fff"/>
      <stop offset="0.291" stop-color="#e5efff"/>
      <stop offset="0.583" stop-color="#e6f1ff"/>
      <stop offset="1" stop-color="#d5e5ff"/>
    </radialGradient>
    <radialGradient id="radial-gradient-2" cx="79.894" cy="42.854" r="110.466" xlink:href="#radial-gradient"/>
  </defs>
  <g id="bitcoin" transform="translate(-501 -152)">
    <rect id="Rectangle_1" data-name="Rectangle 1" class="cls-1" width="392.766" height="200" transform="translate(501 152)"/>
    <g id="Symbol_1_1" data-name="Symbol 1 – 1" transform="translate(23.083 -335)">
      <g id="Ethereum_token_background" class="cls-2" transform="translate(517.917 505.421)">
        <ellipse id="Ellipse_92" data-name="Ellipse 92" class="cls-3" cx="81.78" cy="81.779" rx="81.78" ry="81.779" transform="translate(0.041 0)"/>
        <ellipse id="Ellipse_93" data-name="Ellipse 93" class="cls-4" cx="81.369" cy="81.369" rx="81.369" ry="81.369" transform="translate(0.452 0.411)"/>
        <path id="Path_4568" data-name="Path 4568" class="cls-5" d="M303.839,426.048A81.763,81.763,0,0,1,222.1,345.5v1.232a81.78,81.78,0,0,0,163.56,0V345.5A81.888,81.888,0,0,1,303.839,426.048Z" transform="translate(-222.018 -264.952)"/>
        <path id="Path_4569" data-name="Path 4569" class="cls-6" d="M303.721,152.379A81.779,81.779,0,0,1,385.46,232.6v-1.519a81.78,81.78,0,0,0-163.56,0V232.6A81.878,81.878,0,0,1,303.721,152.379Z" transform="translate(-221.9 -149.3)"/>
        <path id="Path_4570" data-name="Path 4570" class="cls-7" d="M304.369,150.1A81.394,81.394,0,0,0,223,229.293c8.991,5.337,23.155,1.067,32.433-3.572,7.965-3.654,17.735-2.463,26.316-1.847,21.43,1.847,42.245,11,63.675,5.5,4.27-1.232,10.387-6.733,14.7-3.079a24.013,24.013,0,0,0,25.7,3A81.466,81.466,0,0,0,304.369,150.1Z" transform="translate(-222.548 -149.772)"/>
        <ellipse id="Ellipse_94" data-name="Ellipse 94" class="cls-8" cx="71.352" cy="71.352" rx="71.352" ry="71.352" transform="translate(10.469 10.428)"/>
        <ellipse id="Ellipse_95" data-name="Ellipse 95" class="cls-9" cx="67.862" cy="67.862" rx="67.862" ry="67.862" transform="translate(13.958 13.917)"/>
        <ellipse id="Ellipse_96" data-name="Ellipse 96" class="cls-10" cx="65.112" cy="65.112" rx="65.112" ry="65.112" transform="translate(16.709 16.668)"/>
        <path id="Path_4571" data-name="Path 4571" class="cls-11" d="M327.712,406.291c-35.389,0-64.168-26.849-65.071-61.991,0,.575-.041,1.15-.041,1.724a65.112,65.112,0,0,0,130.224,0c0-.575,0-1.149-.041-1.724C391.879,379.442,363.1,406.291,327.712,406.291Z" transform="translate(-245.891 -264.245)"/>
        <g id="icons8-ethereum-50" transform="translate(51.621 34.515)">
          <path id="Path_2245" data-name="Path 2245" class="cls-12" d="M11,49.36,41.139,2,71.277,49.36,41.139,66.582Z" transform="translate(-11 -2)"/>
          <path id="Path_2246" data-name="Path 2246" class="cls-13" d="M25,2,55.139,49.36,25,66.582Z" transform="translate(5.139 -2)"/>
          <path id="Path_2247" data-name="Path 2247" class="cls-13" d="M11,27,41.139,44.222,71.277,27,41.139,67.9Z" transform="translate(-11 26.819)"/>
          <path id="Path_2248" data-name="Path 2248" class="cls-14" d="M25,44.222,55.139,27,25,67.9Z" transform="translate(5.139 26.819)"/>
          <path id="Path_2249" data-name="Path 2249" class="cls-13" d="M11,30.916,41.139,18,71.277,30.916,41.139,48.138Z" transform="translate(-11 16.444)"/>
          <path id="Path_2250" data-name="Path 2250" class="cls-15" d="M25,18,55.139,30.916,25,48.138Z" transform="translate(5.139 16.444)"/>
        </g>
      </g>
      <g id="bitcoin_token_background" class="cls-2" transform="translate(633.613 489)">
        <ellipse id="Ellipse_92-2" data-name="Ellipse 92" class="cls-3" cx="98.201" cy="98.2" rx="98.201" ry="98.2" transform="translate(0.049 0)"/>
        <ellipse id="Ellipse_93-2" data-name="Ellipse 93" class="cls-4" cx="97.708" cy="97.707" rx="97.708" ry="97.707" transform="translate(0.542 0.493)"/>
        <path id="Path_4568-2" data-name="Path 4568" class="cls-5" d="M320.252,442.221A98.181,98.181,0,0,1,222.1,345.5v1.479a98.2,98.2,0,0,0,196.4,0V345.5A98.331,98.331,0,0,1,320.252,442.221Z" transform="translate(-222.001 -248.778)"/>
        <path id="Path_4569-2" data-name="Path 4569" class="cls-6" d="M320.15,153A98.2,98.2,0,0,1,418.3,249.324V247.5a98.2,98.2,0,0,0-196.4,0v1.824A98.319,98.319,0,0,1,320.15,153Z" transform="translate(-221.9 -149.3)"/>
        <path id="Path_4570-2" data-name="Path 4570" class="cls-7" d="M320.708,150.1A97.737,97.737,0,0,0,223,245.195c10.8,6.409,27.8,1.282,38.945-4.289,9.564-4.387,21.3-2.958,31.6-2.218,25.733,2.218,50.727,13.212,76.461,6.606,5.127-1.479,12.472-8.085,17.649-3.7a28.835,28.835,0,0,0,30.86,3.6A97.824,97.824,0,0,0,320.708,150.1Z" transform="translate(-222.458 -149.706)"/>
        <ellipse id="Ellipse_94-2" data-name="Ellipse 94" class="cls-8" cx="85.679" cy="85.679" rx="85.679" ry="85.679" transform="translate(12.571 12.522)"/>
        <ellipse id="Ellipse_95-2" data-name="Ellipse 95" class="cls-9" cx="81.489" cy="81.489" rx="81.489" ry="81.489" transform="translate(16.761 16.712)"/>
        <ellipse id="Ellipse_96-2" data-name="Ellipse 96" class="cls-16" cx="78.186" cy="78.186" rx="78.186" ry="78.186" transform="translate(20.064 20.015)"/>
        <path id="Path_4571-2" data-name="Path 4571" class="cls-11" d="M340.786,418.739c-42.495,0-77.052-32.241-78.137-74.439,0,.69-.049,1.38-.049,2.07a78.186,78.186,0,0,0,156.372,0c0-.69,0-1.38-.049-2.07C417.838,386.5,383.281,418.739,340.786,418.739Z" transform="translate(-242.536 -248.17)"/>
        <g id="bitcoin-logo" transform="translate(59.53 44.578)">
          <path id="Path_4572" data-name="Path 4572" class="cls-12" d="M140.46,56.358q-3.744-4.841-11.3-6.649,9.62-4.907,8.458-16.657a16.461,16.461,0,0,0-2.357-7.39,14.79,14.79,0,0,0-5.327-5.035,29.322,29.322,0,0,0-7.3-2.906,57.559,57.559,0,0,0-9.039-1.452V0H103.66V15.817q-2.582,0-7.876.129V0H85.842V16.269q-2.131.065-6.262.065l-13.686-.065V26.857h7.166q4.907,0,5.746,4.39V49.776a6.562,6.562,0,0,1,1.033.065H78.8V75.793a3.448,3.448,0,0,1-3.744,3.293H67.9l-2,11.815H78.805q1.227,0,3.551.03t3.486.033v16.462h9.944V91.156q2.711.066,7.876.065v16.2H113.6V90.963A77.292,77.292,0,0,0,123,89.995a38.226,38.226,0,0,0,7.844-2.228,21.168,21.168,0,0,0,6.261-3.777,17.823,17.823,0,0,0,4.165-5.746,24.426,24.426,0,0,0,2.1-8.071Q144.206,61.2,140.46,56.358ZM95.977,27.565q.452,0,2.55-.033t3.486-.065q1.388-.032,3.745.162a35.622,35.622,0,0,1,3.97.516,22.115,22.115,0,0,1,3.55,1.065,9.623,9.623,0,0,1,3.1,1.807,8.966,8.966,0,0,1,1.969,2.712,8.464,8.464,0,0,1,.808,3.776,8.981,8.981,0,0,1-.58,3.293,6.2,6.2,0,0,1-1.742,2.486,17.659,17.659,0,0,1-2.39,1.743,10.94,10.94,0,0,1-3.131,1.194q-1.9.452-3.324.71a27.214,27.214,0,0,1-3.551.355q-2.131.1-3.228.129t-3,0q-1.906-.032-2.228-.033V27.565h0Zm27.148,43.964a9.179,9.179,0,0,1-1.582,2.584,8.966,8.966,0,0,1-2.551,1.935,21.873,21.873,0,0,1-3.066,1.356,24.683,24.683,0,0,1-3.583.9q-2.1.388-3.682.549t-3.776.259q-2.194.095-3.421.1t-3.1-.033q-1.873-.03-2.389-.031V57.327q.516,0,3.067-.065t4.164-.064q1.614,0,4.456.194a38.066,38.066,0,0,1,4.778.579,31.41,31.41,0,0,1,4.228,1.195,12.262,12.262,0,0,1,3.713,1.969,9.689,9.689,0,0,1,2.388,2.97,9.222,9.222,0,0,1,.356,7.425Z" transform="translate(-65.893)"/>
        </g>
        <path id="Subtraction_30" data-name="Subtraction 30" class="cls-13" d="M52.618,88.373h0L43.244,75.537a8.236,8.236,0,0,0,1.679-1.424A9.222,9.222,0,0,0,46.5,71.529a9.223,9.223,0,0,0-.356-7.425,9.739,9.739,0,0,0-2.388-2.97,12.316,12.316,0,0,0-3.713-1.969,31.6,31.6,0,0,0-4.228-1.195,38.3,38.3,0,0,0-4.778-.579c-.382-.026-.752-.05-1.1-.071l-7.222-9.89.568,0c.5,0,.935-.005,1.3-.016.7-.02,1.723-.061,3.228-.129a27.342,27.342,0,0,0,3.551-.355c.941-.171,2.059-.41,3.323-.71a10.974,10.974,0,0,0,3.131-1.194,17.71,17.71,0,0,0,2.39-1.743A6.227,6.227,0,0,0,41.953,40.8a9.023,9.023,0,0,0,.58-3.294,8.5,8.5,0,0,0-.808-3.776,9.011,9.011,0,0,0-1.969-2.712,9.664,9.664,0,0,0-3.1-1.807,22.2,22.2,0,0,0-3.55-1.065,35.735,35.735,0,0,0-3.97-.516c-1.342-.11-2.463-.166-3.333-.166-.143,0-.282,0-.412,0-.9.021-2.044.043-3.486.065-1.392.022-2.25.033-2.55.033V42.827L0,16.32l2.958.014c2.741,0,4.848-.022,6.262-.065V0h9.943V15.946c3.519-.086,6.169-.129,7.875-.129V0H36.98V16.269a57.816,57.816,0,0,1,9.039,1.453,29.44,29.44,0,0,1,7.3,2.906,15.516,15.516,0,0,1,3.011,2.211,14.565,14.565,0,0,1,2.317,2.824,14.91,14.91,0,0,1,1.574,3.412A18.708,18.708,0,0,1,61,33.052a21.96,21.96,0,0,1-.093,5.448,15.184,15.184,0,0,1-1.441,4.592,13.817,13.817,0,0,1-2.788,3.737,17.413,17.413,0,0,1-4.136,2.881,24.036,24.036,0,0,1,6.6,2.566,17.393,17.393,0,0,1,2.586,1.852,15.659,15.659,0,0,1,2.11,2.231,12.93,12.93,0,0,1,1.586,2.68,16.114,16.114,0,0,1,1.013,3.2,22.294,22.294,0,0,1,.439,3.712,32.264,32.264,0,0,1-.134,4.228,28.151,28.151,0,0,1-.75,4.31,21.561,21.561,0,0,1-1.347,3.761,20.005,20.005,0,0,1-1.865,3.18,16.247,16.247,0,0,1-2.3,2.566,18.677,18.677,0,0,1-2.824,2.074,24.422,24.422,0,0,1-3.437,1.7c-.525.213-1.064.417-1.6.606Z" transform="translate(70.258 44.578)"/>
      </g>
    </g>
  </g>
</svg>
