<svg xmlns="http://www.w3.org/2000/svg" viewBox="0 0 1366.5 184.3">
    <defs>
        <style>
            .cls-1{fill:#369cfe}
        </style>
    </defs>
    <path id="Blue_Cut_x5F_out" d="M1350.5 1932H-16v-184.3c.2.1 17.4 5.8 49.5 14.5 18.8 5 38.8 10 59.6 14.8 26 6 53.1 11.7 80.7 17 70.3 13.5 143.9 24.2 218.7 31.9 44.4 4.6 89.8 8.1 134.9 10.5 49.6 2.6 100 4 149.8 4 50.8 0 102.3-1.4 153-4.1 26.8-1.4 53.9-3.3 80.5-5.5 27.6-2.3 55.5-5 83-8.1 28.4-3.2 57.1-6.9 85.3-10.9 29.1-4.2 58.6-8.9 87.5-14 29.8-5.2 59.9-11 89.5-17.3 30.4-6.4 61.1-13.4 91.3-20.8l3.1-.7" class="cls-1" transform="translate(16 -1747.7)"/>
</svg>
