<svg xmlns="http://www.w3.org/2000/svg" viewBox="0 0 1376.5 162.866">
    <defs>
        <style>
            .cls-1{fill:#f6f8fb}
        </style>
    </defs>
    <path id="Buttom_cutout" d="M-1323.927-5585.079h-.106c-90.978 0-191.355-1.479-298.341-4.395-85.577-2.332-175.566-5.585-267.465-9.667-156.474-6.952-265.581-13.992-266.664-14.062l-6.5-134.741c.153.048 17.746 5.578 49.695 13.639 18.83 4.75 38.939 9.454 59.768 13.979 26.029 5.655 53.268 11.047 80.959 16.025 70.468 12.669 144.225 22.764 219.223 30 44.524 4.3 89.988 7.625 135.13 9.888a3010.488 3010.488 0 0 0 150.053 3.75c50.841 0 102.365-1.309 153.142-3.891a3021.992 3021.992 0 0 0 163.623-12.8c28.39-3 57.1-6.461 85.34-10.274 29.1-3.929 58.532-8.35 87.478-13.139a2975.263 2975.263 0 0 0 89.456-16.215c30.408-6 61.116-12.558 91.273-19.5 3.781-.871 7.6-1.748 11.36-2.607v121.453c-107.108 21.599-287.924 32.553-537.424 32.557z" class="cls-1" transform="translate(2163 5747.945)"/>
</svg>
