<svg xmlns="http://www.w3.org/2000/svg" viewBox="0 0 20.811 20.971">
  <defs>
    <style>
      .cls-1 {
        fill: #9f9f9f;
      }
    </style>
  </defs>
  <path id="calendar_icon" class="cls-1" d="M60.818,37.092H57.4V34.51A.309.309,0,0,0,57.1,34.2H56.48a.309.309,0,0,0-.308.308v2.582H47.877V34.51a.309.309,0,0,0-.308-.308h-.616a.309.309,0,0,0-.308.308v2.582H43.089a1.545,1.545,0,0,0-1.541,1.541v15a1.545,1.545,0,0,0,1.541,1.541H60.818a1.545,1.545,0,0,0,1.541-1.541v-15A1.545,1.545,0,0,0,60.818,37.092ZM42.873,38.417a.313.313,0,0,1,.216-.092h3.553v2.4a.309.309,0,0,0,.308.308h.616a.309.309,0,0,0,.308-.308v-2.4h8.295v2.4a.309.309,0,0,0,.308.308h.616a.309.309,0,0,0,.308-.308v-2.4h3.414a.3.3,0,0,1,.216.092.313.313,0,0,1,.092.216v3.774H42.781V38.633A.3.3,0,0,1,42.873,38.417ZM61.034,53.848a.313.313,0,0,1-.216.092H43.089a.3.3,0,0,1-.216-.092.314.314,0,0,1-.092-.216V43.64H61.126v9.992A.3.3,0,0,1,61.034,53.848Z" transform="translate(-41.548 -34.202)"/>
</svg>
