<svg xmlns="http://www.w3.org/2000/svg" xmlns:xlink="http://www.w3.org/1999/xlink" viewBox="0 0 1366.501 754.646"><defs><style>.a{opacity:0.788;}.b{fill:url(#a);}.c{fill:#e1ecfb;}.d,.e,.j{fill:#fff;}.d{opacity:0.4;}.f{opacity:0.7;fill:url(#b);}.g{fill:url(#c);}.h{fill:#d1e0f4;}.i,.o{stroke:#d8e6f8;}.i{fill:url(#d);}.j{opacity:0.25;}.k{fill:#bfdaff;}.l{fill:#afd3ff;}.m{fill:#cde3fd;}.n{fill:#cee3fd;}.o{fill:url(#h);}.p{fill:#f6f8fb;}</style><linearGradient id="a" x1="0.5" x2="0.5" y2="1" gradientUnits="objectBoundingBox"><stop offset="0" stop-color="#dbece9"/><stop offset="0.066" stop-color="#deeeec"/><stop offset="0.324" stop-color="#e5f4f2"/><stop offset="0.602" stop-color="#d2e4e6"/><stop offset="1" stop-color="#b2ced4"/></linearGradient><linearGradient id="b" x1="0.5" x2="0.5" y2="1" gradientUnits="objectBoundingBox"><stop offset="0" stop-color="#deecff"/><stop offset="1" stop-color="#c4e0ff"/></linearGradient><linearGradient id="c" x1="0.5" y1="1" x2="0.5" y2="-0.229" gradientUnits="objectBoundingBox"><stop offset="0" stop-color="#e6f7ff"/><stop offset="0.412" stop-color="#bed6e8"/><stop offset="1" stop-color="#c5e4f2"/></linearGradient><radialGradient id="d" cx="248.262" cy="133.165" r="343.241" gradientUnits="userSpaceOnUse"><stop offset="0" stop-color="#fff"/><stop offset="0.291" stop-color="#e5efff"/><stop offset="0.583" stop-color="#e6f1ff"/><stop offset="1" stop-color="#d5e5ff"/></radialGradient><radialGradient id="h" cx="298.112" cy="159.904" r="412.162" xlink:href="#d"/></defs><g transform="translate(0.001 -9105.781)"><g class="a" transform="translate(-120.9 9017.754)"><circle class="b" cx="305.147" cy="305.147" r="305.147" transform="translate(222.053 149.3)"/><circle class="c" cx="303.615" cy="303.615" r="303.615" transform="translate(223.585 150.832)"/><path class="d" d="M527.094,646.051C360.121,646.051,224.551,511.86,222.1,345.5v4.6c0,168.5,136.642,305.147,305.147,305.147S832.394,518.6,832.394,350.1v-4.6C829.636,511.86,694.067,646.051,527.094,646.051Z" transform="translate(0.106 104.351)"/><path class="e" d="M527.2,160.789c166.513,0,301.93,133.578,304.994,299.326v-5.668c0-168.5-136.642-305.147-305.147-305.147S221.9,285.942,221.9,454.447v5.668C225.27,294.367,360.533,160.789,527.2,160.789Z" transform="translate(0 0)"/><path class="f" d="M526.615,150.1C361.633,150.1,227.289,281.687,223,445.6c33.548,19.914,86.4,3.983,121.017-13.327,29.718-13.634,66.176-9.191,98.192-6.893,79.963,6.893,157.629,41.054,237.592,20.527,15.931-4.6,38.756-25.122,54.841-11.489,28.186,23.438,66.023,25.429,95.894,11.183C826.094,281.687,691.75,150.1,526.615,150.1Z" transform="translate(0.585 0.425)"/><circle class="g" cx="266.238" cy="266.238" r="266.238" transform="translate(260.962 188.209)"/><circle class="h" cx="253.217" cy="253.217" r="253.217" transform="translate(273.983 201.23)"/><circle class="i" cx="242.953" cy="242.953" r="242.953" transform="translate(284.247 211.494)"/><path class="j" d="M505.553,575.611c-132.046,0-239.43-100.184-242.8-231.311,0,2.145-.153,4.289-.153,6.434,0,134.191,108.762,242.953,242.953,242.953S748.507,484.925,748.507,350.734c0-2.145,0-4.289-.153-6.434C744.983,475.427,637.6,575.611,505.553,575.611Z" transform="translate(21.647 103.713)"/><g transform="translate(414.515 278.086)"><path class="k" d="M11,178.718,123.457,2,235.914,178.718,123.457,242.979Z" transform="translate(-11 -2)"/><path class="l" d="M25,2,137.457,178.718,25,242.979Z" transform="translate(87.457 -2)"/><path class="l" d="M11,27,123.457,91.261,235.914,27,123.457,179.62Z" transform="translate(-11 173.816)"/><path class="m" d="M25,91.261,137.457,27,25,179.62Z" transform="translate(87.457 173.816)"/><path class="l" d="M11,66.2,123.457,18,235.914,66.2,123.457,130.457Z" transform="translate(-11 110.522)"/><path class="n" d="M25,18,137.457,66.2,25,130.457Z" transform="translate(87.457 110.522)"/></g></g><g class="a" transform="translate(310.797 8956.481)"><circle class="b" cx="366.419" cy="366.419" r="366.419" transform="translate(222.084 149.3)"/><circle class="c" cx="364.579" cy="364.579" r="364.579" transform="translate(223.923 151.139)"/><path class="d" d="M588.335,706.4c-200.5,0-363.292-161.136-366.235-360.9v5.518c0,202.34,164.079,366.419,366.419,366.419S954.938,553.358,954.938,351.018V345.5C951.627,545.265,788.835,706.4,588.335,706.4Z" transform="translate(0.168 164.701)"/><path class="e" d="M588.5,163.1c199.949,0,362.556,160.4,366.235,359.429v-6.806c0-202.34-164.079-366.419-366.419-366.419S221.9,313.379,221.9,515.719v6.806C225.947,323.5,388.37,163.1,588.5,163.1Z" transform="translate(0 0)"/><path class="f" d="M587.579,150.1C389.47,150.1,228.15,308.109,223,504.93c40.284,23.913,103.745,4.783,145.317-16C404,472.556,447.781,477.89,486.226,480.65c96.019,8.278,189.28,49.3,285.3,24.649,19.13-5.518,46.538-30.167,65.852-13.8,33.846,28.144,79.28,30.535,115.15,13.428C947.192,308.109,785.872,150.1,587.579,150.1Z" transform="translate(0.923 0.672)"/><circle class="g" cx="319.697" cy="319.697" r="319.697" transform="translate(268.806 196.022)"/><circle class="h" cx="304.061" cy="304.061" r="304.061" transform="translate(284.441 211.657)"/><circle class="o" cx="291.737" cy="291.737" r="291.737" transform="translate(296.766 223.982)"/><path class="j" d="M554.337,622.057c-158.561,0-287.506-120.3-291.553-277.757,0,2.575-.184,5.15-.184,7.726,0,161.136,130.6,291.737,291.737,291.737s291.737-130.6,291.737-291.737c0-2.575,0-5.15-.184-7.726C841.844,501.757,712.9,622.057,554.337,622.057Z" transform="translate(34.166 163.693)"/><g transform="translate(378.131 315.637)"><path class="k" d="M344.125,210.289q-13.968-18.063-42.156-24.808,35.9-18.31,31.559-62.155-1.448-15.9-8.8-27.573a55.185,55.185,0,0,0-19.878-18.787,109.411,109.411,0,0,0-27.222-10.842,214.769,214.769,0,0,0-33.726-5.419V0H206.813V59.019q-9.635,0-29.386.482V0h-37.1V60.705q-7.952.242-23.366.243l-51.068-.243v39.507H92.63q18.308,0,21.439,16.38V185.73a24.485,24.485,0,0,1,3.856.243h-3.856v96.835q-1.925,12.283-13.971,12.286H73.363l-7.469,44.084h48.179q4.578,0,13.249.113t13.006.121V400.84h37.105v-60.7q10.115.247,29.386.243V400.84h37.095V339.413a288.4,288.4,0,0,0,35.047-3.612,142.634,142.634,0,0,0,29.269-8.315,78.984,78.984,0,0,0,23.361-14.093,66.5,66.5,0,0,0,15.542-21.439,91.141,91.141,0,0,0,7.822-30.115Q358.1,228.363,344.125,210.289ZM178.148,102.855q1.687,0,9.516-.121t13.009-.243q5.18-.119,13.975.6a132.917,132.917,0,0,1,14.813,1.927,82.519,82.519,0,0,1,13.247,3.974,35.9,35.9,0,0,1,11.561,6.744,33.457,33.457,0,0,1,7.346,10.119,31.583,31.583,0,0,1,3.014,14.09,33.512,33.512,0,0,1-2.165,12.289,23.152,23.152,0,0,1-6.5,9.274,65.889,65.889,0,0,1-8.917,6.505,40.821,40.821,0,0,1-11.682,4.455q-7.1,1.687-12.4,2.649a101.545,101.545,0,0,1-13.249,1.326q-7.952.359-12.046.483t-11.2,0q-7.11-.119-8.312-.121V102.854h0ZM279.447,266.9a34.25,34.25,0,0,1-5.9,9.641,33.457,33.457,0,0,1-9.517,7.222,81.613,81.613,0,0,1-11.44,5.059A92.093,92.093,0,0,1,239.22,292.2q-7.839,1.447-13.739,2.047t-14.09.965q-8.187.354-12.767.359t-11.564-.122q-6.99-.113-8.914-.116V213.9q1.925,0,11.443-.242t15.537-.237q6.022,0,16.626.722a142.038,142.038,0,0,1,17.826,2.162,117.2,117.2,0,0,1,15.777,4.458,45.753,45.753,0,0,1,13.853,7.346A36.153,36.153,0,0,1,278.12,239.2a34.411,34.411,0,0,1,1.327,27.7Z"/></g><path class="l" d="M-1873.088,356.867h0l-34.977-47.9a30.735,30.735,0,0,0,6.266-5.312,34.408,34.408,0,0,0,5.9-9.641,32.047,32.047,0,0,0,2.29-12.287,32.223,32.223,0,0,0-3.618-15.418,36.339,36.339,0,0,0-8.911-11.082,45.953,45.953,0,0,0-13.853-7.346,117.9,117.9,0,0,0-15.777-4.459,142.921,142.921,0,0,0-17.827-2.162c-1.424-.1-2.806-.187-4.108-.264l-26.949-36.9c.68,0,1.393.008,2.121.008,1.858,0,3.489-.02,4.849-.059,2.6-.076,6.43-.229,12.046-.482a102.02,102.02,0,0,0,13.249-1.326c3.511-.637,7.684-1.529,12.4-2.65a40.947,40.947,0,0,0,11.682-4.455,66.088,66.088,0,0,0,8.917-6.505,23.238,23.238,0,0,0,6.5-9.274,33.672,33.672,0,0,0,2.165-12.29,31.731,31.731,0,0,0-3.014-14.09,33.625,33.625,0,0,0-7.346-10.119,36.058,36.058,0,0,0-11.561-6.744,82.839,82.839,0,0,0-13.248-3.974,133.338,133.338,0,0,0-14.812-1.927c-5.007-.412-9.192-.621-12.438-.621-.535,0-1.052.006-1.537.017-3.371.079-7.626.159-13.009.243-5.194.081-8.4.122-9.516.122l0,56.947-72.228-98.907,11.039.052c10.229,0,18.09-.082,23.366-.243V27.118h37.1v59.5c13.13-.32,23.017-.482,29.386-.482V27.118h37.094V87.823a215.729,215.729,0,0,1,33.726,5.42,109.85,109.85,0,0,1,27.222,10.842,57.9,57.9,0,0,1,11.234,8.249,54.351,54.351,0,0,1,8.644,10.538,55.637,55.637,0,0,1,5.873,12.732,69.806,69.806,0,0,1,2.922,14.842,81.937,81.937,0,0,1-.348,20.327,56.655,56.655,0,0,1-5.375,17.135,51.557,51.557,0,0,1-10.4,13.942,64.974,64.974,0,0,1-15.433,10.75,89.686,89.686,0,0,1,24.633,9.574,64.9,64.9,0,0,1,9.65,6.91,58.428,58.428,0,0,1,7.873,8.324,48.248,48.248,0,0,1,5.917,10,60.121,60.121,0,0,1,3.779,11.925,83.181,83.181,0,0,1,1.639,13.85,120.386,120.386,0,0,1-.5,15.776,105.032,105.032,0,0,1-2.8,16.082,80.449,80.449,0,0,1-5.024,14.033,74.646,74.646,0,0,1-6.96,11.867,60.623,60.623,0,0,1-8.582,9.573,69.686,69.686,0,0,1-10.537,7.74,91.13,91.13,0,0,1-12.824,6.353c-1.96.795-3.97,1.556-5.974,2.263Z" transform="translate(2553.476 288.519)"/></g><g transform="translate(-147 5518)"><path class="p" d="M-1293.467-5474.572c-92.254,0-194.853-1.718-304.949-5.107-88.066-2.712-181.1-6.493-276.5-11.238-84.938-4.225-156-8.444-200.661-11.239-48.227-3.018-77.142-5.088-77.42-5.108v-340.68c.153.048,17.745,5.577,49.695,13.639,18.839,4.753,38.948,9.456,59.768,13.979,26.035,5.656,53.274,11.048,80.959,16.025,70.469,12.669,144.226,22.764,219.223,30,44.522,4.3,89.987,7.625,135.131,9.888,49.649,2.489,100.135,3.75,150.053,3.75,50.843,0,102.368-1.309,153.142-3.891,54.465-2.77,109.515-7.078,163.623-12.8,28.388-3,57.1-6.461,85.34-10.274,29.1-3.929,58.531-8.35,87.479-13.139,29.794-4.93,59.891-10.385,89.456-16.215,30.408-6,61.117-12.558,91.273-19.5l.617-.142.742-.171v329.237l-.371.081-.988.214C-888.5-5485.573-1058.612-5474.573-1293.467-5474.572Z" transform="translate(2300 9817)"/></g></g></svg>