<svg xmlns="http://www.w3.org/2000/svg" viewBox="0 0 121.811 177.133">
  <defs>
    <style>
      .cls-1 {
        fill: #fbd636;
      }

      .cls-2 {
        fill: #f2f2f3;
      }

      .cls-3 {
        fill: #bf762a;
      }

      .cls-4 {
        fill: #fee53a;
      }

      .cls-5 {
        fill: #8dab3d;
      }

      .cls-6 {
        fill: #ecc028;
      }

      .cls-7 {
        fill: #f8f07a;
      }

      .cls-8 {
        fill: #dcaf27;
      }

      .cls-9 {
        fill: #944d21;
      }

      .cls-10 {
        fill: #d89f29;
      }

      .cls-11 {
        fill: #d89628;
      }

      .cls-12 {
        fill: #fff;
      }

      .cls-13 {
        fill: #b68e2e;
      }
    </style>
  </defs>
  <g id="data_security" transform="translate(-306.928 -129.271)">
    <g id="Group_1354" data-name="Group 1354" transform="translate(306.928 223.476)">
      <g id="Group_1353" data-name="Group 1353" transform="translate(0)">
        <g id="Group_1351" data-name="Group 1351">
          <path id="XMLID_12310_" class="cls-1" d="M414.28,298v31.533L332,376.685V345.152Z" transform="translate(-324.633 -293.756)"/>
          <path id="Path_4237" data-name="Path 4237" class="cls-2" d="M411.208,310.2v25.108L341.6,375.387V350.279Z" transform="translate(-328.574 -298.766)"/>
          <path id="XMLID_12309_" class="cls-3" d="M326.809,406.576l-7.309-4.244V370.8l7.309,4.244Z" transform="translate(-319.5 -323.648)"/>
          <path id="XMLID_12308_" class="cls-4" d="M326.809,342.2l-7.309-4.244L401.78,290.8l7.367,4.244Z" transform="translate(-319.5 -290.8)"/>
        </g>
        <g id="Group_1352" data-name="Group 1352" transform="translate(20.098 18.095)">
          <path id="Path_4238" data-name="Path 4238" class="cls-5" d="M362.087,381.849v6.189l-2.122,1.238v-5.481c0-1.415-.707-1.827-1.945-1.12a4.948,4.948,0,0,0-2.3,4.185v4.892l-2.122,1.238V379.138l2.122-1.238v5.717a6.887,6.887,0,0,1,3.124-3.772C360.909,378.725,362.087,379.491,362.087,381.849Z" transform="translate(-353.6 -344.658)"/>
          <path id="Path_4239" data-name="Path 4239" class="cls-5" d="M376.453,379.779a8.648,8.648,0,0,1-2.181,2c-1.415.825-2.534.53-2.534-1.532v-4.892l-1.238.707V374.3l1.238-.707v-2.711L373.8,369.7v2.711L376.276,371v1.768l-2.475,1.415v4.479c0,.943.354,1.061.884.766a5,5,0,0,0,1.238-1.12Z" transform="translate(-360.539 -341.291)"/>
          <path id="Path_4240" data-name="Path 4240" class="cls-5" d="M387.853,373.179a8.647,8.647,0,0,1-2.181,2c-1.415.825-2.534.53-2.534-1.532v-4.892l-1.238.707V367.7l1.238-.707v-2.711L385.2,363.1v2.711l2.475-1.415v1.768l-2.475,1.415v4.479c0,.943.354,1.061.884.707a5,5,0,0,0,1.238-1.12Z" transform="translate(-365.22 -338.581)"/>
          <path id="Path_4241" data-name="Path 4241" class="cls-5" d="M404.036,359.966a8.588,8.588,0,0,1-4.067,7.367c-1.3.766-2.3.707-2.947,0v5.187l-2.122,1.238V360.2l2.122-1.238v1.65a6.883,6.883,0,0,1,2.888-3.419C402.385,355.84,404.036,356.9,404.036,359.966Zm-2.122,1.12c0-1.768-1-2.417-2.417-1.591a5.311,5.311,0,0,0-2.417,4.421c0,1.768,1,2.417,2.417,1.591A5.311,5.311,0,0,0,401.914,361.086Z" transform="translate(-370.558 -335.919)"/>
          <path id="Path_4242" data-name="Path 4242" class="cls-5" d="M415.4,350.494c-.648.413-1.179.943-1.179,1.532,0,1.65,4.6-1.827,4.6,1.709,0,2-1.591,3.89-3.418,4.951a4.212,4.212,0,0,1-3.6.648l.707-2.122a3.652,3.652,0,0,0,2.947-.471,2.209,2.209,0,0,0,1.3-1.65c0-1.827-4.479,1.768-4.479-1.768a6.086,6.086,0,0,1,3.242-4.892,4.879,4.879,0,0,1,3.183-.766l-.766,2.181A4.926,4.926,0,0,0,415.4,350.494Z" transform="translate(-377.497 -332.223)"/>
          <path id="Path_4243" data-name="Path 4243" class="cls-5" d="M427.94,347.618a2.433,2.433,0,0,1-1.12,2c-.648.354-1.12.059-1.12-.707a2.331,2.331,0,0,1,1.12-1.945C427.468,346.557,427.94,346.852,427.94,347.618Zm0,5.54a2.433,2.433,0,0,1-1.12,2c-.648.354-1.12.059-1.12-.707a2.331,2.331,0,0,1,1.12-1.945C427.468,352.1,427.94,352.392,427.94,353.159Z" transform="translate(-383.204 -331.881)"/>
          <path id="Path_4244" data-name="Path 4244" class="cls-5" d="M437,326.8l-5.128,20.216-1.768,1.061,5.128-20.216Z" transform="translate(-385.011 -323.676)"/>
          <path id="Path_4245" data-name="Path 4245" class="cls-5" d="M446.3,321.5l-5.128,20.216-1.768,1.061,5.128-20.216Z" transform="translate(-388.83 -321.5)"/>
        </g>
      </g>
    </g>
    <g id="XMLID_461_" transform="translate(310.8 129.271)">
      <g id="XMLID_470_" transform="translate(0 27.011)">
        <path id="Path_4246" data-name="Path 4246" class="cls-3" d="M370.152,175.5v38.782a50.77,50.77,0,0,1-15.914,36.955c-.295.295-.589.589-.943.884a158.067,158.067,0,0,1-16.208,9.43c-2.24.825,4.892,8.605,2.652,8.605-3.242,0-15.8-8.193-18.566-9.666a19.385,19.385,0,0,1-10.373-17.21V209.8l26.287-15.148,4.538-2.593,11.729-6.778Z" transform="translate(-310.8 -175.264)"/>
        <path id="Path_4247" data-name="Path 4247" class="cls-6" d="M394.152,189v38.782a50.77,50.77,0,0,1-15.914,36.955c-.295.295-.589.589-.943.884a158.064,158.064,0,0,1-16.208,9.43,19.251,19.251,0,0,1-15.914-1.061,19.385,19.385,0,0,1-10.373-17.21V223.3l26.287-15.148,4.538-2.593,11.729-6.778Z" transform="translate(-320.654 -180.807)"/>
        <path id="Path_4248" data-name="Path 4248" class="cls-1" d="M401.42,189v13.261c-1.238,8.311-5.658,35.187-13.556,55.993-.825,2.24-1.591,4.362-2.358,6.483,0,.059-.059.059-.059.118l-.825.766a158.06,158.06,0,0,1-16.208,9.43,19.251,19.251,0,0,1-15.914-1.061,12.342,12.342,0,0,0,.471-1.356c9.43-24.873,13.91-58.527,13.91-58.527s2.063-3.3,6.012-8.605l11.729-6.778Z" transform="translate(-327.922 -180.807)"/>
        <path id="XMLID_481_" class="cls-7" d="M334.8,260.376l1.473-35.423s19.863-7.839,24.4-9.843a99.765,99.765,0,0,0,17.092-10.02C382.423,201.554,394.152,189,394.152,189L334.8,223.3Z" transform="translate(-320.654 -180.807)"/>
        <path id="XMLID_480_" class="cls-4" d="M384.357,183.293,367.5,198.5a143.292,143.292,0,0,1-16.267,9.371L324.945,217.6l-9.195-5.364-4.951-2.888,3.949-3.536L327.657,194.2c3.3-2.181,6.719-4.244,10.314-6.248,1.945-1.061,3.89-2.122,5.953-3.124l8.9-3.3,17.328-6.424Z" transform="translate(-310.8 -175.1)"/>
      </g>
      <g id="XMLID_462_">
        <path id="XMLID_469_" class="cls-8" d="M327.951,227.1l-.825,6.483H315.751L310.8,230.7l3.89-3.6Z" transform="translate(-310.8 -169.44)"/>
        <path id="XMLID_468_" class="cls-8" d="M389.317,185.9l-.825,6.424H356.9c1.945-1.061,3.89-2.122,5.953-3.124l8.9-3.3h17.564Z" transform="translate(-329.729 -152.523)"/>
        <path id="XMLID_467_" class="cls-6" d="M381.282,165.981v-16.5a19.974,19.974,0,0,0-10.02-17.387,19.686,19.686,0,0,0-20.04,0l-2.063,1.179A42.5,42.5,0,0,0,328,169.93v20.157h0a2.944,2.944,0,0,0,1.709,2.358,8.99,8.99,0,0,0,8.134,0,2.789,2.789,0,0,0,1.65-2.358h0V169.871a30.937,30.937,0,0,1,15.383-26.7l2.063-1.179a8.518,8.518,0,0,1,8.546,0,8.4,8.4,0,0,1,4.3,7.426v16.562h0a2.944,2.944,0,0,0,1.709,2.358,8.99,8.99,0,0,0,8.134,0A2.721,2.721,0,0,0,381.282,165.981Z" transform="translate(-317.862 -129.304)"/>
        <g id="XMLID_464_" transform="translate(10.079)">
          <path id="XMLID_466_" class="cls-3" d="M331.319,190.055h0V169.839a42.5,42.5,0,0,1,21.159-36.661L354.541,132a20.511,20.511,0,0,1,8.31-2.652A19.8,19.8,0,0,0,351.122,132l-2.063,1.179A42.5,42.5,0,0,0,327.9,169.839V190h0a2.944,2.944,0,0,0,1.709,2.358,8.7,8.7,0,0,0,1.709.707Z" transform="translate(-327.9 -129.271)"/>
          <path id="XMLID_465_" class="cls-3" d="M399.282,163.169c0-11.14-8.546-12.79-7.721-12.318a8.4,8.4,0,0,1,4.3,7.426v16.562h0a2.944,2.944,0,0,0,1.709,2.358,6.017,6.017,0,0,0,1.709.648V163.169Z" transform="translate(-354.016 -138.103)"/>
        </g>
        <path id="XMLID_463_" class="cls-7" d="M397.389,156.23s-1.3-15.619-10.2-19.568a20.6,20.6,0,0,0-17.093,0,17.287,17.287,0,0,1,15.737-3.3C395.385,136.9,397.389,145.326,397.389,156.23Z" transform="translate(-335.149 -130.692)"/>
      </g>
    </g>
    <path id="Path_4249" data-name="Path 4249" class="cls-7" d="M396.944,233.9v39.372L380.5,282.82V243.448Z" transform="translate(-28.619 -42.961)"/>
    <path id="Path_4250" data-name="Path 4250" class="cls-9" d="M396.05,244.1v31.356l-8.723,5.01-1.827,1.12V250.171l4.3-2.475,4.656-2.711Z" transform="translate(-30.672 -47.149)"/>
    <path id="Path_4251" data-name="Path 4251" class="cls-10" d="M462.64,277.079c-6.307-3.654-11.965-3.536-15.619-.471a8.82,8.82,0,0,0-1.827,2.063,14.911,14.911,0,0,0-.766,1.3,5.954,5.954,0,0,0-.413.884c-.059.177-.118.295-.177.472a11.7,11.7,0,0,0-.53,1.532,17.91,17.91,0,0,0-.589,3.183h0c-.059.707-.118,1.473-.118,2.24v.236a29.26,29.26,0,0,0,.766,6.66c.118.589.295,1.179.413,1.768a4.342,4.342,0,0,0,.236.825c.236.707.471,1.415.707,2.181l.53,1.415c.118.236.177.53.295.766q.8,1.945,1.768,3.89a48.02,48.02,0,0,0,6.542,9.666c.707.825,1.415,1.532,2.181,2.3.472.471.884.884,1.356,1.3a30.224,30.224,0,0,0,5.364,3.89c.059,0,.059.059.118.059h.059c4.715,2.711,9.077,3.3,12.5,2.063,4.538-1.591,7.426-6.365,7.426-13.615C482.738,298.946,473.72,283.445,462.64,277.079Zm11.965,32.24a1.766,1.766,0,0,1-.236.589,2.058,2.058,0,0,1-.354.53,1.563,1.563,0,0,1-.354.295c-.059.059-.177.177-.236.177-.059.059-.177.118-.236.177a3.03,3.03,0,0,1-1.768.413,1.057,1.057,0,0,1-.295.413c-.059.059-.118.177-.177.236a2.431,2.431,0,0,1-.766.589,1.766,1.766,0,0,1-.589.236,1.093,1.093,0,0,1-.413.118,2.418,2.418,0,0,1-.648.059,3.626,3.626,0,0,1-.766-.059h-.059a6.065,6.065,0,0,1-2-.766l-.059-.059h-.059c-.295-.177-.53-.354-.825-.53l-.059-.059a7.4,7.4,0,0,1-1.415-1.3c-.354-.354-.648-.766-.943-1.12a1.792,1.792,0,0,1-.295-.413,11.339,11.339,0,0,1-1.061-1.827h0a16.023,16.023,0,0,1-.648-1.474c0-.059-.059-.118-.059-.177v-.059l-.177-.53a15.811,15.811,0,0,1-.413-1.591,3.36,3.36,0,0,1-.059-.766h0c0-.236-.059-.472-.059-.707a5.135,5.135,0,0,1,.53-2.475,1.289,1.289,0,0,1,.177-.295,2.559,2.559,0,0,1,.236-.413l.118-.118c.118-.118.177-.236.295-.295a.058.058,0,0,1,.059-.059,1.479,1.479,0,0,1,.413-.236h0a3.263,3.263,0,0,1,1.532-.354h.177a2.657,2.657,0,0,1,1.238-1.3.447.447,0,0,1,.236-.118c.118-.059.236-.059.354-.118s.295-.059.413-.118a2.417,2.417,0,0,1,.648-.059,3.27,3.27,0,0,1,1,.177,5.857,5.857,0,0,1,1.709.707,11.882,11.882,0,0,1,2.829,2.417h0l1.061,1.415h0a3.342,3.342,0,0,1,.471.766,13.425,13.425,0,0,1,1.827,5.894v.177a6.575,6.575,0,0,1-.177,1.591c.059.059,0,.236-.118.413Z" transform="translate(-54.117 -59.558)"/>
    <path id="Path_4252" data-name="Path 4252" class="cls-6" d="M436.924,285.591v18.036l-2.593-1.532h-.059l-1.768-1-.884-.53-.118-.118-.648-.354-1-.589-4.244-2.417-.059-.059-1.709-1-.884-.472-.059-.059-.648-.354-1.12-.648-.413-.236-2.947-1.709-2.24-1.3-.177-.118-4.833-2.77-3.89-6.837-3.89,2.358-4.3-2.475-3.89-6.9-3.89,2.417-3.831-2.24-.413-.236-.413-.707V258.42l1.886-1.12,2.77,1.591,24.873,14.322,2.593,1.532,1.886,1.12,1.179.589.648.413.236.118v.059l1.768,1h.059l.766.471,1,.589,5.128,2.947h0l.707.413,1.061.589.059.059.766.413,1,.589Z" transform="translate(-30.877 -52.569)"/>
    <path id="Path_4253" data-name="Path 4253" class="cls-4" d="M436.924,285.591v3.536l-.471-.295-.766-.413-1-.589L431.5,286l-2-1.179h0l-1.768-1-.707-.413-1.061-.589-5.128-2.947-.059-.059-.943-.53-.413-.236h0L417,277.634l-1.473-.884-24.873-14.322L386,259.717v-1.3l1.886-1.12,2.77,1.591,24.873,14.322,2.593,1.532,1.886,1.12,1.179.589.648.413.236.118v.059l1.768,1h.059l.766.471,1,.589,5.128,2.947h0l.707.413,1.061.589.059.059.766.413,1,.589Z" transform="translate(-30.877 -52.569)"/>
    <path id="Path_4254" data-name="Path 4254" class="cls-10" d="M440.3,283.591l-.354.236-1.709.943L435.7,283.3l-1-.589-.766-.413-.059-.059-1.061-.589-.707-.413h0l-5.128-2.947-1-.589-.766-.471h-.059l-1.768-1v-.059l-.236-.118-.648-.413-1.179-.589-1.886-1.12-2.593-1.532L391.97,258.07l-2.77-1.591,2.063-1.179.707.413,25.344,14.617,3.242,1.827.177.118,1.3.766,1.768,1,.118.059.236.177.766.413.53.295.059.059,1.709,1h.059l3.536,2.063,1,.589.766.413,1.061.589.53.354h0l1.768,1H436l3.536,2.063Z" transform="translate(-32.191 -51.748)"/>
    <path id="Path_4255" data-name="Path 4255" class="cls-6" d="M436.1,303.933l15.973,9.254V290.495L436.1,281.3Z" transform="translate(-51.449 -62.423)"/>
    <path id="XMLID_482_" class="cls-10" d="M439.518,282.383l2.063-1.179-3.418-2-2.063,1.238Z" transform="translate(-51.449 -61.561)"/>
    <path id="Path_4256" data-name="Path 4256" class="cls-4" d="M416.531,283.612v2.77l-.177-.118-.825-.413-24.873-14.381L386,268.819V265.4l4.656,2.77,24.873,14.853Z" transform="translate(-30.877 -55.895)"/>
    <path id="Path_4257" data-name="Path 4257" class="cls-11" d="M416.531,282.282v1.886l-.118-.059-.884-.53L390.656,269.2,386,266.486V264.6l4.656,2.711,24.873,14.381Z" transform="translate(-30.877 -55.566)"/>
    <path id="Path_4258" data-name="Path 4258" class="cls-4" d="M457.539,279.98c-4.774-2.77-9.195-3.36-12.613-2.181a9.381,9.381,0,0,0-3.477,2.181,6.619,6.619,0,0,0-1.061,1.179,1.79,1.79,0,0,0-.295.413,9.38,9.38,0,0,0-.766,1.3v.059a14.017,14.017,0,0,0-1.12,2.888,11.907,11.907,0,0,0-.471,2.593v.059c-.059.295-.059.589-.118.884a17.844,17.844,0,0,0-.118,1.827v.236a32.1,32.1,0,0,0,1.415,9.254v.059c.354,1.179.766,2.358,1.179,3.477h0c3.418,9.018,9.961,17.446,17.505,21.808,6.307,3.654,11.965,3.536,15.678.413,2.77-2.358,4.421-6.424,4.421-11.847C477.638,301.847,468.62,286.346,457.539,279.98ZM468.856,313.4a2.431,2.431,0,0,1-.766.589,1.765,1.765,0,0,1-.589.236,1.093,1.093,0,0,1-.413.118,2.417,2.417,0,0,1-.648.059,3.624,3.624,0,0,1-.766-.059h-.059a6.065,6.065,0,0,1-2-.766l-.059-.059h-.059c-.295-.177-.53-.354-.825-.53l-.059-.059a7.4,7.4,0,0,1-1.415-1.3,13.632,13.632,0,0,1-1.179-1.415l-.118-.177a11.339,11.339,0,0,1-1.061-1.827h0a16.031,16.031,0,0,1-.648-1.473c0-.059-.059-.118-.059-.177V306.5c-.059-.177-.118-.295-.177-.472a13.512,13.512,0,0,1-.413-1.65,4.553,4.553,0,0,1-.118-.884,2,2,0,0,1-.059-.589,5.385,5.385,0,0,1,.53-2.534c.059-.118.118-.177.177-.295a1.058,1.058,0,0,1,.295-.413c.059-.059.059-.118.118-.118h0c.118-.118.177-.236.295-.295h0l.059-.059a1.476,1.476,0,0,1,.413-.236h0a3.263,3.263,0,0,1,1.532-.354h.177a4.425,4.425,0,0,1,1.827.472,2.752,2.752,0,0,1,.589.295h0c.059,0,.059.059.118.059a9.6,9.6,0,0,1,1,.648,6.305,6.305,0,0,1,.943.825c.295.295.589.589.884.943a11.053,11.053,0,0,1,1.061,1.415,14.067,14.067,0,0,1,1.945,4.42,9.548,9.548,0,0,1,.177,1.179,6.492,6.492,0,0,1,.118,1.061v.118a4.464,4.464,0,0,1-.059.884,1,1,0,0,1-.059.413l-.177.707c0,.059-.059.118-.059.177h0c0,.118-.059.177-.118.295a.447.447,0,0,1-.118.236,1.057,1.057,0,0,1-.295.413C468.974,313.281,468.915,313.34,468.856,313.4Z" transform="translate(-52.023 -60.75)"/>
    <path id="Path_4259" data-name="Path 4259" class="cls-6" d="M477.67,311.765h0c-.059-.354-.059-.648-.118-.943s-.118-.648-.177-.943a6.22,6.22,0,0,0-.295-1.12,7.848,7.848,0,0,0-.295-1.12,1.388,1.388,0,0,1-.118-.472v-.059c-.059-.236-.118-.413-.177-.648-.118-.354-.236-.766-.354-1.12s-.295-.766-.413-1.12h0c-.118-.354-.295-.707-.413-1.061l-.354-.884c-.118-.236-.236-.53-.354-.766a53.753,53.753,0,0,0-3.419-5.953h0c-.059-.059-.059-.118-.118-.177-.295-.413-.589-.825-.884-1.179,0-.059-.059-.059-.059-.118h0a5.95,5.95,0,0,0-.766-.943c-.53-.648-1-1.238-1.532-1.827-.177-.177-.295-.354-.471-.53a10.888,10.888,0,0,0-.825-.825l-.295-.295-.648-.648c-.177-.118-.295-.295-.471-.413l-1.061-.884c-.059,0-.059-.059-.118-.059h0a20.874,20.874,0,0,0-3.124-2.122,19.847,19.847,0,0,0-2.24-1.12.206.206,0,0,1-.118-.059,3.6,3.6,0,0,0-.707-.295h-.059c-.236-.059-.413-.177-.648-.236-.059-.059-.118-.059-.236-.059h0a.058.058,0,0,1-.059-.059c-.236-.059-.53-.118-.766-.177-.059,0-.177-.059-.236-.059-.236-.059-.413-.059-.589-.118a2.959,2.959,0,0,0-.707-.118h-.177a6.763,6.763,0,0,0-2.181,0c-.236,0-.413.059-.648.059-.177,0-.295.059-.471.059h-.059a1.72,1.72,0,0,1-.53.118,7.913,7.913,0,0,0-1.768.707,6.312,6.312,0,0,0-1.061,1.12c-.118.118-.177.236-.295.354l-.118.118h0a.058.058,0,0,0-.059.059c-.059.059-.118.118-.118.177-.059.059-.059.118-.118.118-.118.177-.236.413-.354.589-.059.059-.059.118-.118.236a4.077,4.077,0,0,0-.177.472,2.874,2.874,0,0,0-.177.413v.059c-.118.354-.295.648-.413,1.061,0,.059-.059.177-.059.236-.118.354-.177.766-.295,1.179v.118a2.957,2.957,0,0,0-.118.707,5.157,5.157,0,0,0-.118.943c0,.236-.059.472-.059.707,0,.354-.059.707-.059,1.12v.471a30.426,30.426,0,0,0,.295,3.949h0c.118.589.236,1.179.354,1.827v.059c.177.707.354,1.473.53,2.181.059.236.177.53.236.766h0a3.815,3.815,0,0,0,.236.766c.177.53.354,1.061.53,1.532.059.236.177.413.236.648,0,.059.059.118.059.177v.059c.53,1.238,1.061,2.475,1.709,3.654a38.28,38.28,0,0,0,4.008,6.189.058.058,0,0,0,.059.059,1.284,1.284,0,0,0,.236.295,6.786,6.786,0,0,0,.825,1c.354.413.707.766,1.061,1.12a31.814,31.814,0,0,0,2.476,2.417h0c.471.413.943.825,1.415,1.179a.058.058,0,0,0,.059.059,23.633,23.633,0,0,0,2.947,2c.118.059.295.177.413.236.354.177.648.354,1,.53a3.6,3.6,0,0,0,.707.295l.884.354c.413.177.884.295,1.238.413h.059c.236.059.413.118.648.177a2.957,2.957,0,0,0,.707.118c.177.059.354.059.53.118a3.624,3.624,0,0,0,.766.059h.059c.177,0,.354.059.471,0h.707a1.3,1.3,0,0,0,.472-.059h.177a1.632,1.632,0,0,0,.53-.059,7.94,7.94,0,0,0,2.888-.943c.118-.059.177-.177.295-.295.177-.118.295-.295.472-.413h0c.059,0,.059-.059.118-.059h0c.059-.059.118-.177.177-.236h0a3.238,3.238,0,0,1,.413-.53,6.207,6.207,0,0,0,1-1.709.058.058,0,0,0,.059-.059c0-.059.059-.118.059-.177.118-.177.177-.413.295-.589.059-.118.059-.177.118-.295a.183.183,0,0,1,.059-.118.852.852,0,0,0,.118-.413c.059-.118.059-.295.118-.413s.059-.295.118-.413a.217.217,0,0,1,.059-.177c0-.118.059-.177.059-.295v-.059c.059-.177.059-.354.118-.53a5.194,5.194,0,0,0,.118-1,16.305,16.305,0,0,0,.177-2.475A17.663,17.663,0,0,1,477.67,311.765Z" transform="translate(-55.062 -63.183)"/>
    <path id="Path_4260" data-name="Path 4260" class="cls-10" d="M473.043,326.353c-3.183,2.711-8.075,2.829-13.556-.354-6.483-3.772-12.142-11.081-15.148-18.861a32.51,32.51,0,0,1-1.061-3.124A29.658,29.658,0,0,1,442.1,296a15.318,15.318,0,0,1,1.591-7.367,6.938,6.938,0,0,1,.648-1.12,8.106,8.106,0,0,1,2.947-2.711,10.868,10.868,0,0,0-1.532,1.709,6.944,6.944,0,0,0-.648,1.12A16.034,16.034,0,0,0,443.515,295a29.657,29.657,0,0,0,1.179,8.016,32.51,32.51,0,0,0,1.061,3.124c2.947,7.78,8.605,15.089,15.148,18.861C465.617,327.767,469.861,328.121,473.043,326.353Z" transform="translate(-53.912 -63.86)"/>
    <path id="Path_4261" data-name="Path 4261" class="cls-10" d="M471.2,314.62c0-4.833,3.418-6.837,7.662-4.362,4.244,2.417,7.662,8.369,7.662,13.2s-3.418,6.837-7.662,4.362C474.677,325.406,471.2,319.453,471.2,314.62Z" transform="translate(-65.861 -73.877)"/>
    <path id="Path_4262" data-name="Path 4262" class="cls-4" d="M469,315.72c0-4.833,3.418-6.837,7.662-4.362,4.244,2.417,7.662,8.369,7.662,13.2s-3.419,6.837-7.662,4.362C472.418,326.506,469,320.553,469,315.72Z" transform="translate(-64.957 -74.329)"/>
    <path id="Path_4263" data-name="Path 4263" class="cls-10" d="M483.288,327.685c-1,1.827-3.124,2.3-5.6.884A13.523,13.523,0,0,1,471.5,317.96c0-2.829,1.474-4.421,3.536-4.362a5.88,5.88,0,0,0-.589,2.652,13.523,13.523,0,0,0,6.189,10.609A5.707,5.707,0,0,0,483.288,327.685Z" transform="translate(-65.984 -75.685)"/>
    <path id="Path_4264" data-name="Path 4264" class="cls-12" d="M485.971,325.034a5.2,5.2,0,0,1-.589,2.652,6.268,6.268,0,0,1-2.593-.825,13.523,13.523,0,0,1-6.189-10.609,5.2,5.2,0,0,1,.589-2.652,5.5,5.5,0,0,1,2.593.825A13.523,13.523,0,0,1,485.971,325.034Z" transform="translate(-68.078 -75.686)"/>
    <path id="Path_4265" data-name="Path 4265" class="cls-10" d="M415.352,297.947l-4.833-2.77-3.89-6.837-3.89,2.358-4.3-2.475-3.89-6.9-3.89,2.417-3.831-2.24-.413-.236L386,280.56V273.9l4.656,2.711,19.273,11.081Z" transform="translate(-30.877 -59.385)"/>
    <path id="Path_4266" data-name="Path 4266" class="cls-13" d="M388.211,279.22V265.193l1.65-2.358-1.65-4.067v-7.132l4.892-2.888-1.12-.648-6.483,3.713v25.049l.648,1.179Z" transform="translate(-30.672 -48.791)"/>
    <path id="XMLID_479_" class="cls-10" d="M378.981,242.586l-2.181-1.238,16.5-9.548,2.122,1.238Z" transform="translate(-27.1 -42.098)"/>
    <path id="XMLID_483_" class="cls-3" d="M378.981,249.238,376.8,248v39.372l2.181,1.238Z" transform="translate(-27.1 -48.75)"/>
  </g>
</svg>
