<svg xmlns="http://www.w3.org/2000/svg" xmlns:xlink="http://www.w3.org/1999/xlink" viewBox="0 0 1366 836.324"><defs><style>.a{fill:url(#a);}.b{opacity:0.32;}.c{fill:url(#b);}.d{fill:url(#c);}.e{fill:url(#d);}.f{fill:url(#e);}.g{fill:url(#f);}.h{fill:url(#g);}.i{fill:url(#h);}.j{fill:url(#i);}.k{fill:url(#j);}.l{fill:url(#k);}.m{fill:url(#l);}.n{fill:url(#m);}.o{fill:url(#n);}.p{fill:url(#o);}.q{fill:url(#p);}.r{fill:url(#q);}.s{fill:url(#r);}.t{fill:url(#s);}.u{fill:url(#t);}.v{fill:url(#u);}.w{fill:url(#v);}.x{fill:url(#x);}.y{fill:url(#y);}.z{fill:url(#z);}.aa{fill:url(#aa);}.ab{fill:url(#ab);}.ac{fill:url(#bd);}.ad{fill:url(#be);}.ae{fill:url(#bf);}</style><linearGradient id="a" x1="0.5" x2="0.5" y2="1" gradientUnits="objectBoundingBox"><stop offset="0" stop-color="#389cff"/><stop offset="0.626" stop-color="#00a3fa"/><stop offset="1" stop-color="#2478ff"/></linearGradient><linearGradient id="b" x1="0.342" y1="-0.459" x2="0.869" y2="2.75" gradientUnits="objectBoundingBox"><stop offset="0" stop-color="#0068e6"/><stop offset="1" stop-color="#00d7fe"/></linearGradient><linearGradient id="c" x1="0.03" y1="0.219" x2="1.618" y2="1.172" gradientUnits="objectBoundingBox"><stop offset="0" stop-color="#0068e6"/><stop offset="1" stop-color="#00c6fd"/></linearGradient><linearGradient id="d" x1="1.176" y1="-0.029" x2="-0.129" y2="0.992" gradientUnits="objectBoundingBox"><stop offset="0" stop-color="#009def"/><stop offset="0.043" stop-color="#0093eb"/><stop offset="0.28" stop-color="#005fd8"/><stop offset="0.502" stop-color="#0036ca"/><stop offset="0.703" stop-color="#0018bf"/><stop offset="0.876" stop-color="#0006b8"/><stop offset="1" stop-color="#0000b6"/></linearGradient><linearGradient id="e" x1="0.343" y1="-0.458" x2="0.869" y2="2.75" xlink:href="#b"/><linearGradient id="f" x1="-0.293" y1="0.205" x2="2.389" y2="1.203" xlink:href="#c"/><linearGradient id="g" x1="1.721" y1="-0.093" x2="-0.634" y2="1.05" xlink:href="#d"/><linearGradient id="h" x1="0.343" y1="-0.457" x2="0.869" y2="2.748" xlink:href="#b"/><linearGradient id="i" x1="-0.744" y1="0.197" x2="3.465" y2="1.221" xlink:href="#c"/><linearGradient id="j" x1="2.483" y1="-0.129" x2="-1.34" y2="1.083" xlink:href="#d"/><linearGradient id="k" x1="0.343" y1="-0.458" x2="0.869" y2="2.748" xlink:href="#b"/><linearGradient id="l" x1="-0.744" y1="0.197" x2="3.465" y2="1.222" xlink:href="#c"/><linearGradient id="m" x1="2.483" y1="-0.129" x2="-1.34" y2="1.084" xlink:href="#d"/><linearGradient id="n" x1="0.343" y1="-0.458" x2="0.869" y2="2.75" xlink:href="#b"/><linearGradient id="o" x1="-0.293" y1="0.205" x2="2.389" y2="1.203" xlink:href="#c"/><linearGradient id="p" x1="1.721" y1="-0.093" x2="-0.634" y2="1.05" xlink:href="#d"/><linearGradient id="q" x1="0.343" y1="-0.458" x2="0.869" y2="2.748" xlink:href="#b"/><linearGradient id="r" x1="-0.292" y1="0.205" x2="2.389" y2="1.204" xlink:href="#c"/><linearGradient id="s" x1="1.722" y1="-0.093" x2="-0.633" y2="1.05" xlink:href="#d"/><linearGradient id="t" x1="0.343" y1="-0.457" x2="0.869" y2="2.749" xlink:href="#b"/><linearGradient id="u" x1="-0.293" y1="0.205" x2="2.389" y2="1.203" xlink:href="#c"/><linearGradient id="v" x1="1.721" y1="-0.093" x2="-0.634" y2="1.05" xlink:href="#d"/><linearGradient id="x" x1="-0.036" y1="0.214" x2="1.776" y2="1.181" xlink:href="#c"/><linearGradient id="y" x1="1.288" y1="-0.047" x2="-0.231" y2="1.008" xlink:href="#d"/><linearGradient id="z" x1="0.343" y1="-0.457" x2="0.869" y2="2.748" xlink:href="#b"/><linearGradient id="aa" x1="0.031" y1="0.218" x2="1.619" y2="1.171" xlink:href="#c"/><linearGradient id="ab" x1="1.177" y1="-0.029" x2="-0.128" y2="0.991" xlink:href="#d"/><linearGradient id="bd" x1="0.343" y1="-0.457" x2="0.869" y2="2.748" xlink:href="#b"/><linearGradient id="be" x1="0.03" y1="0.218" x2="1.619" y2="1.171" xlink:href="#c"/><linearGradient id="bf" x1="1.176" y1="-0.029" x2="-0.127" y2="0.991" xlink:href="#d"/></defs><g transform="translate(-6097 2495.918)"><rect class="a" width="1366" height="836.324" transform="translate(6097 -2495.918)"/><g transform="translate(6430.066 -2790.011)"><g transform="translate(419.579 514.309)"><g class="b" transform="translate(0 260.216)"><path class="c" d="M69.415,588.872l21.115-12.213L69.415,564.5,48.3,576.659Z" transform="translate(-48.3 -564.5)"/><path class="d" d="M87.2,623.484l21.115-12.159V586.9L87.2,599.113Z" transform="translate(-66.085 -574.741)"/><path class="e" d="M69.415,623.484,48.3,611.326V586.9l21.115,12.213Z" transform="translate(-48.3 -574.741)"/></g><g class="b" transform="translate(184.225 187.373)"><path class="f" d="M439.211,489.736l51.511-29.745L439.211,430.3,387.7,459.991Z" transform="translate(-387.7 -430.3)"/><path class="g" d="M482.6,628.841,534.111,599.1V485L482.6,514.745Z" transform="translate(-431.089 -455.309)"/><path class="h" d="M439.211,628.841,387.7,599.1V485l51.511,29.745Z" transform="translate(-387.7 -455.309)"/></g><g class="b" transform="translate(124.315 154.761)"><path class="i" d="M304.992,123.433l33.192-19.166L304.992,85.1,271.8,104.266Z" transform="translate(-271.8 -85.1)"/><path class="j" d="M366.7,281.225l33.192-19.167V139.4L366.7,158.566Z" transform="translate(-333.508 -120.408)"/><path class="k" d="M304.992,281.225,271.8,262.059V139.4l33.192,19.167Z" transform="translate(-271.8 -120.408)"/></g><g class="b" transform="translate(501.852 117.439)"><path class="l" d="M909.233,242.056l39.533-22.828L909.233,196.4,869.7,219.228Z" transform="translate(-869.7 -196.4)"/><path class="m" d="M964.6,419.578l39.533-22.828V250.7L964.6,273.528Z" transform="translate(-925.067 -228.08)"/><path class="n" d="M909.233,419.578,869.7,396.75V250.7l39.533,22.828Z" transform="translate(-869.7 -228.08)"/></g><g class="b" transform="translate(501.852 311.277)"><path class="o" d="M991.4,513.839l42.5-24.542-42.5-24.5-42.5,24.5Z" transform="translate(-948.9 -464.8)"/><path class="p" d="M1043.8,638.18l42.5-24.542V519.5l-42.5,24.542Z" transform="translate(-1001.299 -495.003)"/><path class="q" d="M991.4,638.18l-42.5-24.542V519.5l42.5,24.542Z" transform="translate(-948.9 -495.003)"/></g><g class="b" transform="translate(277.531 117.439)"><path class="r" d="M606.107,324.111l46.507-26.855L606.107,270.4,559.6,297.255Z" transform="translate(-559.6 -270.4)"/><path class="s" d="M654.5,455.018l46.507-26.855V325.2L654.5,352.055Z" transform="translate(-607.993 -298.345)"/><path class="t" d="M606.107,455.018,559.6,428.162V325.2l46.507,26.855Z" transform="translate(-559.6 -298.345)"/></g><g class="b" transform="translate(49.584 206.099)"><path class="u" d="M158.964,463.566l43.264-24.983L158.964,413.6,115.7,438.583Z" transform="translate(-115.7 -413.6)"/><path class="v" d="M210.6,589.212l43.264-24.983V468.4L210.6,493.383Z" transform="translate(-167.336 -443.417)"/><path class="w" d="M158.964,589.212,115.7,564.229V468.4l43.264,24.983Z" transform="translate(-115.7 -443.417)"/></g><g class="b" transform="translate(382.345 185.202)"><path class="f" d="M804.211,485.736l51.511-29.745L804.211,426.3,752.7,455.991Z" transform="translate(-752.7 -426.3)"/><path class="x" d="M847.6,581.417l51.511-29.745V481L847.6,510.745Z" transform="translate(-796.089 -451.309)"/><path class="y" d="M804.211,581.417,752.7,551.672V481l51.511,29.745Z" transform="translate(-752.7 -451.309)"/></g><g class="b" transform="translate(169.298 361.556)"><path class="z" d="M407.043,805.317l46.843-27.031L407.043,751.2,360.2,778.285Z" transform="translate(-360.2 -751.2)"/><path class="aa" d="M446.5,882.248l46.843-27.086V801.1L446.5,828.131Z" transform="translate(-399.657 -774.014)"/><path class="ab" d="M407.043,882.248,360.2,855.162V801.1l46.843,27.031Z" transform="translate(-360.2 -774.014)"/></g></g><g transform="translate(-76.487 867.744)"><g class="b" transform="translate(720.56 0)"><path class="l" d="M921.211,255.89l51.511-29.745L921.211,196.4,869.7,226.145Z" transform="translate(-869.7 -196.4)"/><path class="m" d="M964.6,470.749,1016.111,441V250.7L964.6,280.445Z" transform="translate(-913.089 -221.226)"/><path class="n" d="M921.211,470.749,869.7,441V250.7l51.511,29.745Z" transform="translate(-869.7 -221.226)"/></g><g class="b" transform="translate(265.588 88.738)"><path class="r" d="M611.111,329.89l51.511-29.745L611.111,270.4,559.6,300.145Z" transform="translate(-559.6 -270.4)"/><path class="s" d="M654.5,468.986l51.511-29.745V325.2L654.5,354.945Z" transform="translate(-602.989 -295.455)"/><path class="t" d="M611.111,468.986,559.6,439.241V325.2l51.511,29.745Z" transform="translate(-559.6 -295.455)"/></g></g><g transform="translate(-520 367.011)"><g class="b" transform="translate(332.557 346.284)"><path class="f" d="M455.973,509.077l68.273-39.424L455.973,430.3,387.7,469.652Z" transform="translate(-387.7 -430.3)"/><path class="g" d="M482.6,675.647l68.273-39.424V485L482.6,524.424Z" transform="translate(-414.327 -445.647)"/><path class="h" d="M455.973,675.647,387.7,636.223V485l68.273,39.424Z" transform="translate(-387.7 -445.647)"/></g><g class="b" transform="translate(212.751 287.762)"><path class="i" d="M308.617,127.62l36.817-21.26L308.617,85.1,271.8,106.36Z" transform="translate(-271.8 -85.1)"/><path class="j" d="M366.7,296.715l36.817-21.26V139.4L366.7,160.66Z" transform="translate(-329.883 -118.334)"/><path class="k" d="M308.617,296.715,271.8,275.455V139.4l36.817,21.26Z" transform="translate(-271.8 -118.334)"/></g><g class="b" transform="translate(662.633 288.076)"><path class="l" d="M909.071,241.87l39.371-22.735L909.071,196.4,869.7,219.135Z" transform="translate(-869.7 -196.4)"/><path class="m" d="M964.6,418.888l39.371-22.735V250.7L964.6,273.435Z" transform="translate(-925.229 -228.173)"/><path class="n" d="M909.071,418.888,869.7,396.153V250.7l39.371,22.735Z" transform="translate(-869.7 -228.173)"/></g><g class="b" transform="translate(796.836 311.359)"><path class="o" d="M998.712,522.275l49.812-28.764L998.712,464.8,948.9,493.511Z" transform="translate(-948.9 -464.8)"/><path class="p" d="M1043.8,658.595l49.812-28.764V519.5L1043.8,548.264Z" transform="translate(-993.988 -490.789)"/><path class="q" d="M998.712,658.595,948.9,629.831V519.5l49.812,28.764Z" transform="translate(-948.9 -490.789)"/></g><g class="b" transform="translate(271.825 375.359)"><path class="r" d="M590.16,305.693l30.56-17.647L590.16,270.4,559.6,288.047Z" transform="translate(-559.6 -270.4)"/><path class="s" d="M654.5,410.5l30.56-17.647V325.2L654.5,342.847Z" transform="translate(-623.94 -307.553)"/><path class="t" d="M590.16,410.5,559.6,392.857V325.2l30.56,17.647Z" transform="translate(-559.6 -307.553)"/></g><g class="b" transform="translate(521.762 298.351)"><path class="f" d="M800.036,480.918l47.336-27.334L800.036,426.3,752.7,453.584Z" transform="translate(-752.7 -426.3)"/><path class="x" d="M847.6,573.278l47.336-27.334V481L847.6,508.334Z" transform="translate(-800.264 -453.716)"/><path class="y" d="M800.036,573.278,752.7,545.943V481l47.336,27.334Z" transform="translate(-752.7 -453.716)"/></g><g class="b" transform="translate(224.388 479.208)"><path class="z" d="M422.286,822.927,484.372,787.1l-62.086-35.9L360.2,787.1Z" transform="translate(-360.2 -751.2)"/><path class="aa" d="M446.5,908.654l62.086-35.9V801.1L446.5,836.927Z" transform="translate(-384.414 -765.201)"/><path class="ab" d="M422.286,908.654l-62.086-35.9V801.1l62.086,35.827Z" transform="translate(-360.2 -765.201)"/></g><g class="b" transform="translate(692.819 449.064)"><path class="ac" d="M1159.658,781.026l62.086-35.827-62.086-35.9L1097.5,745.2Z" transform="translate(-1097.5 -709.3)"/><path class="ad" d="M1183.9,866.754l62.086-35.9V759.2L1183.9,795.027Z" transform="translate(-1121.742 -723.301)"/><path class="ae" d="M1159.658,866.754l-62.158-35.9V759.2l62.158,35.827Z" transform="translate(-1097.5 -723.301)"/></g></g><g class="b" transform="translate(1.489 851.557)"><path class="u" d="M169.665,475.925l53.965-31.162L169.665,413.6,115.7,444.762Z" transform="translate(-115.7 -413.6)"/><path class="v" d="M210.6,619.094l53.965-31.162V468.4L210.6,499.562Z" transform="translate(-156.635 -437.238)"/><path class="w" d="M169.665,619.094,115.7,587.931V468.4l53.965,31.162Z" transform="translate(-115.7 -437.238)"/></g></g></g></svg>