<svg xmlns="http://www.w3.org/2000/svg" viewBox="0 0 1367.281 177.406">
  <defs>
    <style>
      .cls-1 {
        fill: #f6f8fb;
      }
    </style>
  </defs>
  <path id="document_bottom_cutout" class="cls-1" d="M-934.86-2483.539H-2300v-177.406c.154.049,17.808,5.594,49.7,13.639,18.834,4.752,38.943,9.455,59.768,13.979,26.029,5.655,53.268,11.047,80.959,16.025,70.473,12.67,144.23,22.765,219.224,30,44.533,4.3,90,7.626,135.13,9.888,49.653,2.489,100.138,3.751,150.053,3.751,50.843,0,102.367-1.309,153.141-3.891,54.457-2.769,109.508-7.076,163.622-12.8,28.374-3,57.087-6.459,85.34-10.274,29.112-3.931,58.544-8.351,87.478-13.138,29.782-4.927,59.879-10.383,89.456-16.215,30.415-6,61.124-12.56,91.273-19.5l.767-.177.445-.1.148-.034v165.3h.781C-934.126-2483.866-934.853-2483.542-934.86-2483.539Z" transform="translate(2300 2660.946)"/>
</svg>
