<svg xmlns="http://www.w3.org/2000/svg" xmlns:xlink="http://www.w3.org/1999/xlink" viewBox="0 0 1367.281 444.117"><defs><style>.a{fill:url(#a);}.b{fill:url(#b);}.c{fill:url(#c);}.d{fill:#f6f8fb;}</style><linearGradient id="a" x1="0.5" x2="0.754" y2="0.753" gradientUnits="objectBoundingBox"><stop offset="0" stop-color="#ff615f"/><stop offset="1" stop-color="#ff4152"/></linearGradient><linearGradient id="b" x1="-0.744" y1="0.197" x2="3.465" y2="1.221" gradientUnits="objectBoundingBox"><stop offset="0" stop-color="#ff344d"/><stop offset="1" stop-color="#ffb881"/></linearGradient><linearGradient id="c" x1="0.5" x2="0.5" y2="1" gradientUnits="objectBoundingBox"><stop offset="0" stop-color="#ff9031"/><stop offset="0.522" stop-color="#ff4d55"/><stop offset="1" stop-color="#fa055f"/></linearGradient></defs><g transform="translate(0 -4101.344)"><g transform="translate(683.078 4238.344)"><g transform="translate(238 -51)"><path class="a" d="M329.845,152.136l58.045-33.518L329.845,85.1,271.8,118.618Z" transform="translate(-271.8 -85.1)"/><path class="b" d="M366.7,387.422,424.745,353.9V139.4L366.7,172.918Z" transform="translate(-308.655 -106.188)"/><path class="c" d="M329.845,387.422,271.8,353.9V139.4l58.045,33.518Z" transform="translate(-271.8 -106.188)"/></g><g transform="translate(123.231 51.389)"><path class="a" d="M445.194,496.639l57.494-33.2L445.194,430.3,387.7,463.439Z" transform="translate(-387.7 -430.3)"/><path class="b" d="M482.6,645.546l57.494-33.2V485L482.6,518.2Z" transform="translate(-425.106 -451.861)"/><path class="c" d="M445.194,645.546l-57.494-33.2V485l57.494,33.2Z" transform="translate(-387.7 -451.861)"/></g><g transform="translate(0)"><path class="a" d="M329.845,152.136l58.045-33.518L329.845,85.1,271.8,118.618Z" transform="translate(-271.8 -85.1)"/><path class="b" d="M366.7,387.422,424.745,353.9V139.4L366.7,172.918Z" transform="translate(-308.655 -106.188)"/><path class="c" d="M329.845,387.422,271.8,353.9V139.4l58.045,33.518Z" transform="translate(-271.8 -106.188)"/></g><g transform="translate(571.697 -30.942)"><path class="a" d="M913.006,246.415l43.306-25.007L913.006,196.4,869.7,221.407Z" transform="translate(-869.7 -196.4)"/><path class="b" d="M964.6,435.7l43.306-25.007V250.7L964.6,275.707Z" transform="translate(-921.294 -225.921)"/><path class="c" d="M913.006,435.7,869.7,410.692V250.7l43.306,25.007Z" transform="translate(-869.7 -225.921)"/></g><g transform="translate(480.315 86.669)"><path class="a" d="M1003.691,528.02l54.791-31.639L1003.691,464.8,948.9,496.381Z" transform="translate(-948.9 -464.8)"/><path class="b" d="M1043.8,672.5l54.791-31.639V519.5L1043.8,551.139Z" transform="translate(-989.009 -487.919)"/><path class="c" d="M1003.691,672.5,948.9,640.859V519.5l54.791,31.639Z" transform="translate(-948.9 -487.919)"/></g><g transform="translate(404.745 49.361)"><path class="a" d="M804.767,486.378l52.068-30.066L804.767,426.3,752.7,456.311Z" transform="translate(-752.7 -426.3)"/><path class="b" d="M847.6,582.5l52.067-30.066V481L847.6,511.066Z" transform="translate(-795.533 -450.989)"/><path class="c" d="M804.767,582.5,752.7,552.435V481l52.067,30.066Z" transform="translate(-752.7 -450.989)"/></g><g transform="translate(336.901 115.139)"><path class="a" d="M1165.871,788.2l68.292-39.409L1165.871,709.3,1097.5,748.787Z" transform="translate(-1097.5 -709.3)"/><path class="b" d="M1183.9,877.5l68.292-39.487V759.2L1183.9,798.608Z" transform="translate(-1115.529 -719.712)"/><path class="c" d="M1165.871,877.5,1097.5,838.017V759.2l68.371,39.408Z" transform="translate(-1097.5 -719.712)"/></g></g><g transform="translate(-20.922 4238.344)"><g transform="translate(253 -137)"><path class="a" d="M329.845,152.136l58.045-33.518L329.845,85.1,271.8,118.618Z" transform="translate(-271.8 -85.1)"/><path class="b" d="M366.7,387.422,424.745,353.9V139.4L366.7,172.918Z" transform="translate(-308.655 -106.188)"/><path class="c" d="M329.845,387.422,271.8,353.9V139.4l58.045,33.518Z" transform="translate(-271.8 -106.188)"/></g><g transform="translate(311.231 47.389)"><path class="a" d="M445.194,496.639l57.494-33.2L445.194,430.3,387.7,463.439Z" transform="translate(-387.7 -430.3)"/><path class="b" d="M482.6,645.546l57.494-33.2V485L482.6,518.2Z" transform="translate(-425.106 -451.861)"/><path class="c" d="M445.194,645.546l-57.494-33.2V485l57.494,33.2Z" transform="translate(-387.7 -451.861)"/></g><g transform="translate(41.647 47.295)"><path class="a" d="M428.492,830.1l68.292-39.408L428.492,751.2,360.2,790.688Z" transform="translate(-360.2 -751.2)"/><path class="b" d="M446.5,919.4l68.292-39.488V801.1L446.5,840.508Z" transform="translate(-378.208 -761.612)"/><path class="c" d="M428.492,919.4,360.2,879.917V801.1l68.292,39.408Z" transform="translate(-360.2 -761.612)"/></g><g transform="translate(131 22)"><path class="a" d="M329.845,152.136l58.045-33.518L329.845,85.1,271.8,118.618Z" transform="translate(-271.8 -85.1)"/><path class="b" d="M366.7,387.422,424.745,353.9V139.4L366.7,172.918Z" transform="translate(-308.655 -106.188)"/><path class="c" d="M329.845,387.422,271.8,353.9V139.4l58.045,33.518Z" transform="translate(-271.8 -106.188)"/></g><g transform="translate(610.697 1.058)"><path class="a" d="M913.006,246.415l43.306-25.007L913.006,196.4,869.7,221.407Z" transform="translate(-869.7 -196.4)"/><path class="b" d="M964.6,435.7l43.306-25.007V250.7L964.6,275.707Z" transform="translate(-921.294 -225.921)"/><path class="c" d="M913.006,435.7,869.7,410.692V250.7l43.306,25.007Z" transform="translate(-869.7 -225.921)"/></g><g transform="translate(237.825 113.167)"><path class="a" d="M593.214,309.221l33.614-19.411L593.214,270.4,559.6,289.811Z" transform="translate(-559.6 -270.4)"/><path class="b" d="M654.5,419.03l33.614-19.411V325.2L654.5,344.611Z" transform="translate(-620.886 -305.789)"/><path class="c" d="M593.214,419.03,559.6,399.619V325.2l33.614,19.411Z" transform="translate(-559.6 -305.789)"/></g><g transform="translate(500.745 12.361)"><path class="a" d="M804.767,486.378l52.068-30.066L804.767,426.3,752.7,456.311Z" transform="translate(-752.7 -426.3)"/><path class="b" d="M847.6,582.5l52.067-30.066V481L847.6,511.066Z" transform="translate(-795.533 -450.989)"/><path class="c" d="M804.767,582.5,752.7,552.435V481l52.067,30.066Z" transform="translate(-752.7 -450.989)"/></g><g transform="translate(401.901 113.139)"><path class="a" d="M1165.871,788.2l68.292-39.409L1165.871,709.3,1097.5,748.787Z" transform="translate(-1097.5 -709.3)"/><path class="b" d="M1183.9,877.5l68.292-39.487V759.2L1183.9,798.608Z" transform="translate(-1115.529 -719.712)"/><path class="c" d="M1165.871,877.5,1097.5,838.017V759.2l68.371,39.408Z" transform="translate(-1097.5 -719.712)"/></g></g><path class="d" d="M-934.86-2483.539H-2300v-177.406c.154.049,17.808,5.594,49.7,13.639,18.834,4.752,38.943,9.455,59.768,13.979,26.029,5.655,53.268,11.047,80.959,16.025,70.473,12.67,144.23,22.765,219.224,30,44.533,4.3,90,7.626,135.13,9.888,49.653,2.489,100.138,3.751,150.053,3.751,50.843,0,102.367-1.309,153.141-3.891,54.457-2.769,109.508-7.076,163.622-12.8,28.374-3,57.087-6.459,85.34-10.274,29.112-3.931,58.544-8.351,87.478-13.138,29.782-4.927,59.879-10.383,89.456-16.215,30.415-6,61.124-12.56,91.273-19.5l.767-.177.445-.1.148-.034v165.3h.781C-934.126-2483.866-934.853-2483.542-934.86-2483.539Z" transform="translate(2300 7029)"/></g></svg>