<svg xmlns="http://www.w3.org/2000/svg" xmlns:xlink="http://www.w3.org/1999/xlink" viewBox="0 0 182.94 168.236">
  <defs>
    <style>
      .cls-1 {
        fill: url(#radial-gradient);
      }

      .cls-2 {
        fill: #fff;
      }

      .cls-3 {
        opacity: 0.132;
      }

      .cls-4 {
        fill: #8fa210;
      }

      .cls-5 {
        fill: #b7cc2b;
      }

      .cls-6 {
        fill: #e6e6e5;
      }

      .cls-7, .cls-8 {
        stroke: none;
      }

      .cls-8 {
        fill: #46b1fa;
      }
    </style>
    <radialGradient id="radial-gradient" cx="0.5" cy="0.5" r="0.5" gradientUnits="objectBoundingBox">
      <stop offset="0" stop-color="#fff" stop-opacity="0.424"/>
      <stop offset="0.675" stop-color="#fff" stop-opacity="0.463"/>
      <stop offset="1" stop-color="#fff"/>
    </radialGradient>
  </defs>
  <g id="Encryption" transform="translate(-471.893 -459.196)">
    <g id="Path_2752" data-name="Path 2752" class="cls-1" transform="translate(285.193 376.696)">
      <path class="cls-7" d="M 307.4607543945312 247.7360382080078 L 248.8793029785156 247.7360382080078 C 239.3550872802734 247.7360382080078 227.3119049072266 240.7785339355469 222.5809020996094 232.5431671142578 L 222.5792236328125 232.5402221679688 L 222.5775146484375 232.5372772216797 L 193.2868041992188 181.8161926269531 C 192.1338348388672 179.8239288330078 191.2365417480469 177.4744262695312 190.6184844970703 174.83056640625 C 190.009033203125 172.2236480712891 189.7000427246094 169.4605407714844 189.7000427246094 166.6180114746094 C 189.7000427246094 163.7754516601562 190.009033203125 161.0123596191406 190.6184844970703 158.4054260253906 C 191.2365417480469 155.7615661621094 192.1338348388672 153.4120941162109 193.2854156494141 151.4222412109375 L 222.5775146484375 100.6987228393555 C 223.7287292480469 98.70954132080078 225.3179626464844 96.75827789306641 227.2997283935547 94.90156555175781 C 229.2538299560547 93.07074737548828 231.4915924072266 91.42174530029297 233.9508819580078 90.00038146972656 C 236.4103851318359 88.57884979248047 238.9544677734375 87.46419525146484 241.5124359130859 86.68732452392578 C 244.1066131591797 85.89948272705078 246.585205078125 85.50001525878906 248.8793029785156 85.50001525878906 L 307.4607543945312 85.50001525878906 C 316.9849853515625 85.50001525878906 329.0281677246094 92.45748138427734 333.7591247558594 100.6928253173828 L 333.7605590820312 100.6953506469727 L 333.7620239257812 100.6978530883789 L 363.052734375 151.4580383300781 C 364.2062072753906 153.451171875 365.1034851074219 155.8006744384766 365.7215576171875 158.4445343017578 C 366.3310241699219 161.0514526367188 366.6400146484375 163.8145599365234 366.6400146484375 166.6571197509766 C 366.6400146484375 169.4996490478516 366.3310241699219 172.2627410888672 365.7215576171875 174.8696746826172 C 365.1034851074219 177.5135345458984 364.2062072753906 179.863037109375 363.0546264648438 181.8528747558594 L 333.7630004882812 232.5364074707031 C 332.611328125 234.5264587402344 331.0220947265625 236.4777221679688 329.0403442382812 238.3344573974609 C 327.0862121582031 240.1652679443359 324.8484497070312 241.8142700195312 322.38916015625 243.2356414794922 C 319.9296569824219 244.6571655273438 317.3855895996094 245.7718505859375 314.8276062011719 246.5486907958984 C 312.2334289550781 247.3365631103516 309.7548522949219 247.7360382080078 307.4607543945312 247.7360382080078 Z"/>
      <path class="cls-8" d="M 307.4607543945312 244.7360382080078 C 315.86474609375 244.7360382080078 326.9425964355469 238.3323669433594 331.1655883789062 231.0352783203125 L 360.4580993652344 180.3502197265625 C 364.6795654296875 173.0557403564453 364.6795654296875 160.2584533691406 360.4543151855469 152.9574584960938 L 331.1578369140625 102.1872177124023 C 326.9691467285156 94.89589691162109 315.895751953125 88.50001525878906 307.4607543945312 88.50001525878906 L 248.8793029785156 88.50001525878906 C 240.475341796875 88.50001525878906 229.3974609375 94.90365600585938 225.1754608154297 102.1989822387695 L 195.8819274902344 152.9249267578125 C 191.6604614257812 160.2193603515625 191.6604614257812 173.0166625976562 195.8847198486328 180.31591796875 L 225.1822204589844 231.0487823486328 C 229.3708953857422 238.3401336669922 240.4442749023438 244.7360382080078 248.8793029785156 244.7360382080078 L 307.4607543945312 244.7360382080078 M 307.4607543945312 250.7360382080078 L 248.8793029785156 250.7360382080078 C 238.2814178466797 250.7360382080078 225.2589874267578 243.2275390625 219.9795989990234 234.0375366210938 L 190.6888732910156 183.3164520263672 C 185.3703918457031 174.1264190673828 185.3703918457031 159.1095733642578 190.6888732910156 149.9195709228516 L 219.9795989990234 99.19845581054688 C 225.298095703125 90.00845336914062 238.2814178466797 82.50001525878906 248.8793029785156 82.50001525878906 L 307.4607543945312 82.50001525878906 C 318.0586242675781 82.50001525878906 331.0810546875 90.00845336914062 336.3604431152344 99.19845581054688 L 365.6511535644531 149.9586639404297 C 370.9696350097656 159.1486511230469 370.9696350097656 174.1655426025391 365.6511535644531 183.3555755615234 L 336.3604431152344 234.0375366210938 C 331.0419921875 243.2275390625 318.0586242675781 250.7360382080078 307.4607543945312 250.7360382080078 Z"/>
    </g>
    <path id="Path_2809" data-name="Path 2809" class="cls-2" d="M228.282,195.007c-7.087,0-15.8-5.021-19.327-11.167l-19.588-33.92c-3.557-6.146-3.557-16.188,0-22.334l19.588-33.92c3.557-6.146,12.239-11.167,19.327-11.167h39.176c7.087,0,15.8,5.021,19.327,11.167l19.588,33.946c3.557,6.146,3.557,16.188,0,22.334L286.785,183.84c-3.557,6.146-12.239,11.167-19.327,11.167Z" transform="translate(315.493 404.56)"/>
    <g id="green_lock" transform="translate(531.18 502.235)">
      <path id="Path_993" data-name="Path 993" class="cls-3" d="M229.044,492.366c-1.035-.439-1.438-.965-1.017-1.6,2.929-4.368,17.769-4.385,24.961-4.456,9.051-.088,18.454-.3,26.681.667,3.438.4,11.209.719,12.647,2.175,3.806,3.807-20.752,5.122-24.751,5.227C260.952,494.524,234.92,494.857,229.044,492.366Z" transform="translate(-227.862 -411.325)"/>
      <g id="Group_440" data-name="Group 440" transform="translate(0.683 0)">
        <path id="Path_994" data-name="Path 994" class="cls-4" d="M289.947,292.046H240.69a6.5,6.5,0,0,1-6.49-6.49V247h62.237v38.556A6.487,6.487,0,0,1,289.947,292.046Z" transform="translate(-233.771 -214.057)"/>
        <path id="Path_995" data-name="Path 995" class="cls-5" d="M308.995,287.889h-45.2a6.5,6.5,0,0,1-6.49-6.49V247h58.185v34.381A6.5,6.5,0,0,1,308.995,287.889Z" transform="translate(-252.819 -214.057)"/>
        <g id="Group_433" data-name="Group 433" transform="translate(0 32.654)">
          <path id="Path_996" data-name="Path 996" class="cls-4" d="M288.106,290.5H239.832a12.6,12.6,0,0,1-1.824-.07,6.442,6.442,0,0,1-5.368-6.35c-.088-5.929,0-11.858,0-17.787V245.521c-.193.105-.4.211-.6.316h61.272a3.382,3.382,0,0,0,.842,0c.035-.018.07,0,.105,0-.088-.035-.158-.053-.246-.088v36.626c0,.632.018,1.263,0,1.894a6.18,6.18,0,0,1-5.911,6.227c-.263,0-.912.4-.351.4a7.28,7.28,0,0,0,6.332-3.719,7.441,7.441,0,0,0,.754-3.631v-38.03c0-.088-.211-.088-.246-.088H240.043c-2.508,0-5.069-.175-7.578,0h-.105c-.158,0-.6.088-.6.316v17.7c0,6.841-.018,13.7,0,20.541a6.756,6.756,0,0,0,6.859,6.894c1.894.018,3.789,0,5.7,0h25.049c6.034,0,12.068.07,18.085,0h.3C288.019,290.9,288.668,290.5,288.106,290.5Z" transform="translate(-231.755 -245.356)"/>
        </g>
        <path id="Path_997" data-name="Path 997" class="cls-4" d="M280.9,60.8h0a27.811,27.811,0,0,0-27.8,27.8v4.666h8.016V88.814A19.786,19.786,0,0,1,280.9,69.027h0A19.786,19.786,0,0,1,300.69,88.814v4.456h8.016V88.6A27.8,27.8,0,0,0,280.9,60.8Z" transform="translate(-249.356 -60.519)"/>
        <path id="Path_998" data-name="Path 998" class="cls-5" d="M297.7,60.8h0c-15.349,0-27.8,11.595-27.8,25.909v1.07a3.257,3.257,0,0,0,3.263,3.263h1.807V86.884c0-10.174,11.805-18.436,22.734-18.436h0c10.928,0,19.787,8.262,19.787,18.436v1.175a2.98,2.98,0,0,0,2.982,2.982h2.087v-4.35C322.559,72.395,307.333,60.8,297.7,60.8Z" transform="translate(-263.209 -60.519)"/>
        <g id="Group_434" data-name="Group 434" transform="translate(3.301)">
          <path id="Path_999" data-name="Path 999" class="cls-4" d="M278.977,59.2a28.674,28.674,0,0,0-18.91,7.139,28.154,28.154,0,0,0-9.332,18.155c-.246,2.473-.14,4.982-.14,7.473a.241.241,0,0,0,.263.228h8.016c.158,0,.579-.07.579-.316,0-3.578-.158-7.122.965-10.577a19.466,19.466,0,0,1,9.876-11.4,19.248,19.248,0,0,1,15.261-.684,19.719,19.719,0,0,1,10.893,10.3,20.087,20.087,0,0,1,1.719,8.034v4.42a.241.241,0,0,0,.263.228h8.016c.158,0,.579-.07.579-.316,0-1.912.053-3.806-.017-5.719a27.476,27.476,0,0,0-2.4-10.367,28.151,28.151,0,0,0-14.121-14.138A28.48,28.48,0,0,0,278.977,59.2c-.368,0-.877.544-.316.544A27.564,27.564,0,0,1,306.1,84.933c.211,2.333.105,4.7.105,7.034l.579-.316h-8.016c.088.07.175.158.263.228,0-3.929.14-7.771-1.281-11.525a20.124,20.124,0,0,0-10.42-11.121,20.57,20.57,0,0,0-26.628,9.4,19.959,19.959,0,0,0-2.087,8.753c-.018,1.526,0,3.052,0,4.578l.579-.316h-8.016c.088.07.175.158.263.228,0-1.807-.035-3.6.018-5.4a27.439,27.439,0,0,1,15.875-24.242,26.934,26.934,0,0,1,11.332-2.491C279.029,59.744,279.555,59.2,278.977,59.2Z" transform="translate(-250.572 -59.2)"/>
        </g>
        <g id="Group_435" data-name="Group 435" transform="translate(24.907 40.756)">
          <path id="XMLID_8_" class="cls-6" d="M399.464,399.7H387.4l2.891-13.783a5.681,5.681,0,0,1-2.891-4.96,5.559,5.559,0,1,1,11.116,0,8.52,8.52,0,0,1-1.919,4.96Z" transform="translate(-386.796 -374.966)"/>
          <path id="XMLID_1_" class="cls-2" d="M408.022,400.9H398.8l2.891-13.783a5.681,5.681,0,0,1-2.891-4.96,5.285,5.285,0,0,1,5.558-5.259,7.45,7.45,0,0,1,2.692,5.259,8.521,8.521,0,0,1-1.919,4.96Z" transform="translate(-395.354 -376.167)"/>
          <g id="XMLID_21_">
            <path id="Path_1000" data-name="Path 1000" class="cls-4" d="M397.868,398.3H385.8a2.666,2.666,0,0,0,.4.349c.972-4.586,1.919-9.2,2.891-13.784a.269.269,0,0,0-.15-.274c-3.564-2.144-3.739-7.976.449-9.571a4.871,4.871,0,0,1,5.434,1.545,5.732,5.732,0,0,1,.823,5.733,12.713,12.713,0,0,1-1.246,2.293.829.829,0,0,0-.2.6,11.226,11.226,0,0,0,.374,1.82c.473,2.268.947,4.511,1.421,6.78.349,1.695.7,3.39,1.072,5.085.1.523,1.321.2,1.2-.324-.648-3.141-1.321-6.256-1.969-9.4-.174-.872-.374-1.745-.548-2.642a6.05,6.05,0,0,1-.324-1.6c.025-.274,0,.025.05-.1.249-.648.822-1.246,1.122-1.894a6.952,6.952,0,0,0,.573-4.312c-1.2-5.683-9.222-6.256-11.615-1.146a6.064,6.064,0,0,0-.424,3.913,5.526,5.526,0,0,0,2.293,3.49c.548.274.424.149.3.847-.15.748-.3,1.5-.474,2.243-.748,3.614-1.5,7.2-2.268,10.817-.05.2.224.349.4.349h12.064C397.993,399.119,398.691,398.3,397.868,398.3Z" transform="translate(-384.976 -373.96)"/>
          </g>
        </g>
      </g>
    </g>
  </g>
</svg>
