<svg xmlns="http://www.w3.org/2000/svg" xmlns:xlink="http://www.w3.org/1999/xlink" viewBox="0 0 182.936 168.232">
  <defs>
    <style>
      .cls-1 {
        fill: url(#radial-gradient);
      }

      .cls-2 {
        fill: #fff;
      }

      .cls-3 {
        fill: #55bcfb;
      }

      .cls-4 {
        fill: #0996f5;
      }

      .cls-5 {
        fill: #0074c3;
      }

      .cls-6, .cls-7 {
        stroke: none;
      }

      .cls-7 {
        fill: #46b1fa;
      }
    </style>
    <radialGradient id="radial-gradient" cx="0.5" cy="0.5" r="0.5" gradientUnits="objectBoundingBox">
      <stop offset="0" stop-color="#fff" stop-opacity="0.424"/>
      <stop offset="0.675" stop-color="#fff" stop-opacity="0.463"/>
      <stop offset="1" stop-color="#fff"/>
    </radialGradient>
  </defs>
  <g id="Ethereum" transform="translate(-1144.114 -602.675)">
    <g id="Path_2753" data-name="Path 2753" class="cls-1" transform="translate(957.413 520.175)">
      <path class="cls-6" d="M 307.4577026367188 247.7317962646484 L 248.8777313232422 247.7317962646484 C 239.3537750244141 247.7317962646484 227.3109130859375 240.7745056152344 222.5800628662109 232.5393524169922 L 222.5783843994141 232.5364074707031 L 222.5766754150391 232.5334625244141 L 193.2866973876953 181.8136749267578 C 192.1337738037109 179.8214569091797 191.2365112304688 177.4720306396484 190.6184387207031 174.8282470703125 C 190.0090179443359 172.2214050292969 189.7000122070312 169.4583587646484 189.7000122070312 166.6159057617188 C 189.7000122070312 163.7734375 190.0090179443359 161.0103759765625 190.6184387207031 158.4035339355469 C 191.2365112304688 155.7597503662109 192.1337738037109 153.4103240966797 193.2853088378906 151.4205322265625 L 222.5766754150391 100.6983032226562 C 223.7278289794922 98.70916748046875 225.3170471191406 96.75795745849609 227.2987518310547 94.90127563476562 C 229.2528076171875 93.07051086425781 231.4905090332031 91.42156219482422 233.9497222900391 90.00022125244141 C 236.4091644287109 88.57875061035156 238.9531707763672 87.46411895751953 241.5110626220703 86.68727111816406 C 244.1051788330078 85.89945983886719 246.5836791992188 85.49998474121094 248.8777313232422 85.49998474121094 L 307.4577026367188 85.49998474121094 C 316.9816589355469 85.49998474121094 329.0245361328125 92.457275390625 333.75537109375 100.6924057006836 L 333.7568054199219 100.6949310302734 L 333.7582397460938 100.6974334716797 L 363.0482482910156 151.4563598632812 C 364.20166015625 153.4494323730469 365.0989379882812 155.7988586425781 365.7169799804688 158.4426422119141 C 366.326416015625 161.0494842529297 366.6354064941406 163.8125305175781 366.6354064941406 166.6550140380859 C 366.6354064941406 169.4974517822266 366.326416015625 172.2605133056641 365.7169799804688 174.8673553466797 C 365.0989379882812 177.5111389160156 364.20166015625 179.8605651855469 363.0501403808594 181.8503723144531 L 333.7592468261719 232.5325927734375 C 332.6076049804688 234.5225830078125 331.0184020996094 236.4738006591797 329.0367126464844 238.3304901123047 C 327.0826416015625 240.1612548828125 324.8449401855469 241.8101959228516 322.3857116699219 243.2315368652344 C 319.92626953125 244.6530151367188 317.3822631835938 245.7676696777344 314.8243713378906 246.5445098876953 C 312.2302551269531 247.3323211669922 309.7517395019531 247.7317962646484 307.4577026367188 247.7317962646484 Z"/>
      <path class="cls-7" d="M 307.4577026367188 244.7317810058594 C 315.8614501953125 244.7317810058594 326.9389953613281 238.3283538818359 331.1618041992188 231.0314636230469 L 360.45361328125 180.3477020263672 C 364.6749267578125 173.0534362792969 364.6749267578125 160.2565460205078 360.4497985839844 152.9557647705078 L 331.154052734375 102.1867904663086 C 326.9655151367188 94.89569854736328 315.8924560546875 88.49999237060547 307.4577026367188 88.49999237060547 L 248.8777313232422 88.49999237060547 C 240.4739837646484 88.49999237060547 229.3964538574219 94.90343475341797 225.1746063232422 102.1985549926758 L 195.8818359375 152.9232025146484 C 191.6604919433594 160.2174377441406 191.6604919433594 173.0143432617188 195.8846435546875 180.3133697509766 L 225.1813659667969 231.0449676513672 C 229.3699035644531 238.3360748291016 240.4429626464844 244.7317810058594 248.8777313232422 244.7317810058594 L 307.4577026367188 244.7317810058594 M 307.4577026367188 250.7317810058594 L 248.8777313232422 250.7317810058594 C 238.2801361083984 250.7317810058594 225.2579956054688 243.2234954833984 219.978759765625 234.0337219238281 L 190.6887817382812 183.3139038085938 C 185.3704376220703 174.1241455078125 185.3704376220703 159.1076354980469 190.6887817382812 149.9178466796875 L 219.978759765625 99.19802093505859 C 225.2971038818359 90.00825500488281 238.2801361083984 82.49999237060547 248.8777313232422 82.49999237060547 L 307.4577026367188 82.49999237060547 C 318.0552978515625 82.49999237060547 331.0774230957031 90.00825500488281 336.3566589355469 99.19802093505859 L 365.6466674804688 149.9569702148438 C 370.9649963378906 159.1467590332031 370.9649963378906 174.1632232666016 365.6466674804688 183.35302734375 L 336.3566589355469 234.0337219238281 C 331.0383605957031 243.2234954833984 318.0552978515625 250.7317810058594 307.4577026367188 250.7317810058594 Z"/>
    </g>
    <path id="Path_2808" data-name="Path 2808" class="cls-2" d="M228.282,195.007c-7.087,0-15.8-5.021-19.327-11.167l-19.588-33.92c-3.557-6.146-3.557-16.188,0-22.334l19.588-33.92c3.557-6.146,12.239-11.167,19.327-11.167h39.176c7.087,0,15.8,5.021,19.327,11.167l19.588,33.946c3.557,6.146,3.557,16.188,0,22.334L286.785,183.84c-3.557,6.146-12.239,11.167-19.327,11.167Z" transform="translate(987.493 547.56)"/>
    <g id="icons8-ethereum-50" transform="translate(1205.943 638.703)">
      <path id="Path_2245" data-name="Path 2245" class="cls-3" d="M11,47.926,40.226,2,69.451,47.926l-29.226,16.7Z" transform="translate(-11 -2)"/>
      <path id="Path_2246" data-name="Path 2246" class="cls-4" d="M25,2,54.226,47.926,25,64.626Z" transform="translate(4.226 -2)"/>
      <path id="Path_2247" data-name="Path 2247" class="cls-3" d="M11,27,40.226,43.7,69.451,27,40.226,66.663Z" transform="translate(-11 25.189)"/>
      <path id="Path_2248" data-name="Path 2248" class="cls-4" d="M25,43.7,54.226,27,25,66.663Z" transform="translate(4.226 25.189)"/>
      <path id="Path_2249" data-name="Path 2249" class="cls-4" d="M11,30.525,40.226,18,69.451,30.525l-29.226,16.7Z" transform="translate(-11 15.401)"/>
      <path id="Path_2250" data-name="Path 2250" class="cls-5" d="M25,18,54.226,30.525,25,47.226Z" transform="translate(4.226 15.401)"/>
    </g>
  </g>
</svg>
