<svg xmlns="http://www.w3.org/2000/svg" viewBox="0 0 121.969 104.092">
    <defs>
        <style>
            .cls-1{fill:#a3b8ca}.cls-2{fill:none;stroke:#a391f0;stroke-width:4px}
        </style>
    </defs>
    <g id="Expensive_icon" transform="translate(-722.665 -2726.187)">
        <path id="noun_losses_201052" d="M71.441 71.687c-9.609 0-19.217 3.255-19.217 9.454v29.446c0 6.2 9.764 9.454 19.217 9.454 9.609 0 19.217-3.255 19.217-9.454V81.141c0-6.199-9.608-9.454-19.217-9.454zm14.568 38.9c0 1.7-5.579 4.8-14.568 4.8s-14.568-3.1-14.568-4.8v-3.409c3.719 2.015 9.144 3.1 14.568 3.1s10.848-1.085 14.568-3.1zm0-9.919c0 1.7-5.579 4.8-14.568 4.8s-14.568-3.1-14.568-4.8v-3.41c3.719 2.015 9.144 3.1 14.568 3.1s10.848-1.085 14.568-3.1zm0-9.764c0 1.7-5.579 4.8-14.568 4.8s-14.568-3.1-14.568-4.8v-3.409c3.719 2.015 9.144 3.1 14.568 3.1s10.848-1.085 14.568-3.1zm-14.568-4.959c-9.144 0-14.568-3.1-14.568-4.8s5.579-4.8 14.568-4.8 14.568 3.1 14.568 4.8-5.424 4.8-14.568 4.8zM113.75 52c-9.609 0-19.217 3.255-19.217 9.454v48.973c0 6.2 9.764 9.454 19.217 9.454 9.609 0 19.217-3.255 19.217-9.454V61.459c.155-6.2-9.609-9.459-19.217-9.459zm14.723 58.426c0 1.7-5.579 4.8-14.568 4.8-9.144 0-14.568-3.1-14.568-4.8v-3.409c3.719 2.015 9.144 3.1 14.568 3.1s10.848-1.085 14.568-3.1zm0-9.764c0 1.7-5.579 4.8-14.568 4.8-9.144 0-14.568-3.1-14.568-4.8v-3.41c3.719 2.015 9.144 3.1 14.568 3.1s10.848-1.085 14.568-3.1zm0-9.919c0 1.7-5.579 4.8-14.568 4.8-9.144 0-14.568-3.1-14.568-4.8V87.34c3.719 2.015 9.144 3.1 14.568 3.1s10.848-1.085 14.568-3.1zm0-9.764c0 1.7-5.579 4.8-14.568 4.8-9.144 0-14.568-3.1-14.568-4.8v-3.41c3.719 2.015 9.144 3.1 14.568 3.1s10.848-1.085 14.568-3.1zm0-9.764c0 1.7-5.579 4.8-14.568 4.8-9.144 0-14.568-3.1-14.568-4.8v-3.402c3.719 2.015 9.144 3.1 14.568 3.1s10.848-1.085 14.568-3.1zm-14.723-4.952c-9.144 0-14.568-3.1-14.568-4.8s5.579-4.8 14.568-4.8c9.144 0 14.568 3.1 14.568 4.8s-5.424 4.8-14.568 4.8zm-64.316 34.4c0-6.2-9.764-9.454-19.217-9.454S11 94.469 11 100.668v9.764c0 6.2 9.764 9.454 19.217 9.454s19.217-3.255 19.217-9.454v-9.764zm-4.649 9.919c0 1.7-5.579 4.8-14.568 4.8-9.144 0-14.568-3.1-14.568-4.8v-3.409c3.719 2.015 9.144 3.1 14.568 3.1s10.848-1.085 14.568-3.1v3.409zm-14.723-5.114c-9.144 0-14.568-3.1-14.568-4.8s5.579-4.8 14.568-4.8 14.568 3.1 14.568 4.8c.155 1.705-5.424 4.804-14.568 4.804z" class="cls-1" transform="translate(711.664 2710.239)"/>
        <g id="Group_3252" data-name="Group 3252" transform="translate(2 36)">
            <path id="Path_5585" d="M5121.89 2788.767l45.649-16.937 12.276-23.061 35.375-14" class="cls-2" data-name="Path 5585" transform="translate(-4393 -37)"/>
            <path id="Path_5587" d="M18.964 3.6L2.835-.371" class="cls-2" data-name="Path 5587" transform="translate(805.5 2692.5)"/>
            <path id="Path_5586" d="M5222.53 2731.146l-5.04 16.2" class="cls-2" data-name="Path 5586" transform="translate(-4398 -37)"/>
        </g>
    </g>
</svg>
