<svg xmlns="http://www.w3.org/2000/svg" viewBox="0 0 30.624 30.626">
  <defs>
    <style>
      .cls-1 {
        fill: #fff;
      }
    </style>
  </defs>
  <path id="facebook_icon" class="cls-1" d="M16.358,30.626H1.69A1.692,1.692,0,0,1,0,28.935V1.69A1.692,1.692,0,0,1,1.69,0H28.935a1.692,1.692,0,0,1,1.689,1.69V28.935a1.692,1.692,0,0,1-1.689,1.69h-7.8V18.765h3.981l.6-4.621H21.13V11.192c0-1.351.39-2.25,2.291-2.25h2.448V4.808A32.535,32.535,0,0,0,22.3,4.625c-3.667,0-5.944,2.341-5.944,6.11v3.408H12.367v4.621h3.991v11.86Z"/>
</svg>
