<svg xmlns="http://www.w3.org/2000/svg" viewBox="0 0 21.995 21.995"><defs><style>.a{fill:#e2c7ff;}</style></defs><g transform="translate(76.564 -60.586)"><path class="a" d="M11.748,21.995H1.214A1.213,1.213,0,0,1,0,20.781V1.214A1.215,1.215,0,0,1,1.214,0H20.781a1.215,1.215,0,0,1,1.213,1.214V20.781a1.213,1.213,0,0,1-1.213,1.214H15.176V13.478h2.859l.428-3.32H15.176V8.039a1.741,1.741,0,0,1,.306-1.168,1.114,1.114,0,0,1,.5-.33,2.557,2.557,0,0,1,.838-.117l1.758,0V3.454a23.235,23.235,0,0,0-2.561-.132,4.269,4.269,0,0,0-3.085,1.129,3.747,3.747,0,0,0-.874,1.374,5.409,5.409,0,0,0-.311,1.885v2.447H8.882v3.32h2.866v8.517Z" transform="translate(-76.564 60.587)"/></g></svg>