<svg xmlns="http://www.w3.org/2000/svg" xmlns:xlink="http://www.w3.org/1999/xlink" viewBox="0 0 401.811 413.012">
  <defs>
    <style>
      .cls-1 {
        fill: #efefef;
      }

      .cls-2 {
        fill: #fff200;
      }

      .cls-3 {
        fill: #ddd;
      }

      .cls-4 {
        fill: #9c9c95;
      }

      .cls-5 {
        fill: #d5d5d5;
      }

      .cls-6 {
        fill: #c6c5ba;
      }

      .cls-7 {
        fill: #f2f0df;
      }

      .cls-8 {
        fill: #dbdacd;
      }

      .cls-9 {
        fill: #fffded;
      }

      .cls-10 {
        fill: #222220;
      }

      .cls-11 {
        fill: #aaa;
      }

      .cls-12 {
        fill: #b0b1a7;
      }

      .cls-13 {
        fill: #ccc;
      }

      .cls-14 {
        fill: #898982;
      }

      .cls-15 {
        fill: #61615c;
      }

      .cls-16 {
        fill: #0262a3;
      }

      .cls-17 {
        fill: #0074c3;
      }

      .cls-18 {
        fill: #0996f5;
      }

      .cls-19 {
        fill: #adc0d9;
      }

      .cls-20 {
        fill: #647a91;
      }

      .cls-21 {
        fill: #91abc6;
      }

      .cls-22 {
        fill: #b9e2ff;
      }

      .cls-23 {
        fill: #f0852d;
      }

      .cls-24 {
        fill: #6cc3ff;
      }

      .cls-25 {
        fill: #2eaaff;
      }

      .cls-26 {
        fill: #9dd7ff;
      }

      .cls-27 {
        fill: #79c9ff;
      }

      .cls-28 {
        fill: #4db7ff;
      }

      .cls-29 {
        fill: #19a2ff;
      }

      .cls-30 {
        fill: #0390f0;
      }

      .cls-31 {
        fill: #d3d3d3;
      }

      .cls-32 {
        fill: #e6e6e6;
      }

      .cls-33 {
        fill: #f7f7f7;
      }

      .cls-34 {
        fill: #b0b0b0;
      }

      .cls-35 {
        fill: #fff;
      }

      .cls-36 {
        fill: url(#linear-gradient);
      }

      .cls-37 {
        fill: #0090d2;
      }

      .cls-38 {
        fill: url(#linear-gradient-2);
      }

      .cls-39 {
        fill: url(#linear-gradient-3);
      }

      .cls-40 {
        fill: url(#linear-gradient-4);
      }

      .cls-41 {
        fill: url(#linear-gradient-5);
      }

      .cls-42 {
        fill: url(#linear-gradient-6);
      }

      .cls-43 {
        fill: url(#linear-gradient-7);
      }

      .cls-44 {
        fill: url(#linear-gradient-8);
      }
    </style>
    <linearGradient id="linear-gradient" x1="0.5" y1="1" x2="0.5" gradientUnits="objectBoundingBox">
      <stop offset="0" stop-color="#d9d9d9"/>
      <stop offset="1" stop-color="#f4f4f4"/>
    </linearGradient>
    <linearGradient id="linear-gradient-2" x1="0.09" y1="0.812" x2="1.273" y2="0.19" gradientUnits="objectBoundingBox">
      <stop offset="0" stop-color="#0153e2"/>
      <stop offset="0.392" stop-color="#18adf4"/>
      <stop offset="1" stop-color="#1fcbfa"/>
    </linearGradient>
    <linearGradient id="linear-gradient-3" x1="0.38" y1="1.383" x2="0.746" y2="-0.536" gradientUnits="objectBoundingBox">
      <stop offset="0" stop-color="#0153e2"/>
      <stop offset="0.364" stop-color="#0d84ec"/>
      <stop offset="0.852" stop-color="#18adf4"/>
      <stop offset="1" stop-color="#1fcbfa"/>
    </linearGradient>
    <linearGradient id="linear-gradient-4" x1="0.445" y1="0.922" x2="0.903" y2="-0.784" xlink:href="#linear-gradient-3"/>
    <linearGradient id="linear-gradient-5" x1="0.285" y1="2.084" x2="0.647" y2="-0.242" xlink:href="#linear-gradient-3"/>
    <linearGradient id="linear-gradient-6" x1="0.459" y1="0.707" x2="1.234" y2="-1.246" xlink:href="#linear-gradient-3"/>
    <linearGradient id="linear-gradient-7" x1="0.01" y1="3.923" x2="0.555" y2="0.197" xlink:href="#linear-gradient-3"/>
    <linearGradient id="linear-gradient-8" x1="0.5" y1="0.53" x2="2.979" y2="-2.383" xlink:href="#linear-gradient-3"/>
  </defs>
  <g id="Financial_institutions_illustration" transform="translate(-208.558 -2042.162)">
    <g id="bank_institutations" transform="translate(217.99 2042.162)">
      <g id="Group_752" data-name="Group 752" transform="translate(64.618 142.54)">
        <path id="Path_2262" data-name="Path 2262" class="cls-1" d="M502.5,1026.312,655.446,938l152.946,88.312-152.946,88.3Z" transform="translate(-502.5 -938)"/>
      </g>
      <g id="Group_753" data-name="Group 753" transform="translate(133.42 182.258)">
        <path id="Path_2263" data-name="Path 2263" class="cls-2" d="M925,1230.493l84.143-48.594,84.159,48.594-84.159,48.577Z" transform="translate(-925 -1181.9)"/>
      </g>
      <g id="Group_754" data-name="Group 754" transform="translate(64.683 231.047)">
        <path id="Path_2264" data-name="Path 2264" class="cls-3" d="M502.9,1481.5l152.9,88.019v11.073l-152.9-88.214Z" transform="translate(-502.9 -1481.5)"/>
      </g>
      <g id="Group_755" data-name="Group 755" transform="translate(53.593 248.586)">
        <path id="Path_2265" data-name="Path 2265" class="cls-3" d="M434.8,1589.2l164.182,93.914-.261,11.855-163.922-94.7Z" transform="translate(-434.8 -1589.2)"/>
      </g>
      <g id="Group_756" data-name="Group 756" transform="translate(42.519 265.799)">
        <path id="Path_2266" data-name="Path 2266" class="cls-3" d="M366.8,1694.9l175.044,99.711.179,12.653L366.8,1705.99Z" transform="translate(-366.8 -1694.9)"/>
      </g>
      <g id="Group_757" data-name="Group 757" transform="translate(53.593 241.925)">
        <path id="Path_2267" data-name="Path 2267" class="cls-1" d="M434.8,1554.7l11.09-6.4,152.9,88.214.2,12.36Z" transform="translate(-434.8 -1548.3)"/>
      </g>
      <g id="Group_758" data-name="Group 758" transform="translate(42.519 259.513)">
        <path id="Path_2268" data-name="Path 2268" class="cls-1" d="M366.8,1662.684l11.074-6.384,175.288,100.965-11.09,6.4Z" transform="translate(-366.8 -1656.3)"/>
      </g>
      <g id="Group_759" data-name="Group 759" transform="translate(217.563 171.983)">
        <path id="Path_2269" data-name="Path 2269" class="cls-4" d="M1441.7,1226.246v-58.4l84.973-49.049v58.869Z" transform="translate(-1441.7 -1118.8)"/>
      </g>
      <g id="Group_760" data-name="Group 760" transform="translate(132.606 172.178)">
        <path id="Path_2270" data-name="Path 2270" class="cls-5" d="M920,1178.934V1120l85.087,49.066v58.4Z" transform="translate(-920 -1120)"/>
      </g>
      <g id="Group_813" data-name="Group 813" transform="translate(200.579 144.706)">
        <g id="Group_771" data-name="Group 771" transform="translate(0 68.624)">
          <g id="Group_761" data-name="Group 761" transform="translate(0 70.708)">
            <path id="Path_2271" data-name="Path 2271" class="cls-6" d="M1337.4,1816.785l17.115-9.885,16.871,9.885-16.985,9.673Z" transform="translate(-1337.4 -1806.9)"/>
          </g>
          <g id="Group_764" data-name="Group 764" transform="translate(0 80.479)">
            <g id="Group_762" data-name="Group 762" transform="translate(16.985)">
              <path id="Path_2272" data-name="Path 2272" class="cls-4" d="M1458.7,1866.9v6.074l-17,9.673v-5.96Z" transform="translate(-1441.7 -1866.9)"/>
            </g>
            <g id="Group_763" data-name="Group 763" transform="translate(0 0.098)">
              <path id="Path_2273" data-name="Path 2273" class="cls-7" d="M1337.4,1867.5v5.977l16.985,9.673v-5.96Z" transform="translate(-1337.4 -1867.5)"/>
            </g>
          </g>
          <g id="Group_766" data-name="Group 766" transform="translate(7.865 75.887)">
            <g id="Group_765" data-name="Group 765">
              <path id="Path_2274" data-name="Path 2274" class="cls-4" d="M1390.26,1847.9l-4.56-4.592,4.56-4.609h9.136l4.56,4.609-4.56,4.592Z" transform="translate(-1385.7 -1838.7)"/>
            </g>
          </g>
          <g id="Group_770" data-name="Group 770" transform="translate(7.817)">
            <g id="Group_767" data-name="Group 767" transform="translate(4.527 0.081)">
              <rect id="Rectangle_55" data-name="Rectangle 55" class="cls-8" width="9.185" height="85.022"/>
            </g>
            <g id="Group_768" data-name="Group 768" transform="translate(13.712 0.081)">
              <path id="Path_2275" data-name="Path 2275" class="cls-4" d="M1469.6,1458.206l4.641-4.544V1373.2H1469.6Z" transform="translate(-1469.6 -1373.2)"/>
            </g>
            <g id="Group_769" data-name="Group 769">
              <path id="Path_2276" data-name="Path 2276" class="cls-9" d="M1385.449,1453.2l4.478,4.592V1372.7H1385.4Z" transform="translate(-1385.4 -1372.7)"/>
            </g>
          </g>
        </g>
        <g id="Group_781" data-name="Group 781" transform="translate(29.736 51.476)">
          <g id="Group_772" data-name="Group 772" transform="translate(0 70.708)">
            <path id="Path_2277" data-name="Path 2277" class="cls-6" d="M1520,1711.469l17.115-9.869,16.871,9.869L1537,1721.158Z" transform="translate(-1520 -1701.6)"/>
          </g>
          <g id="Group_775" data-name="Group 775" transform="translate(0 80.479)">
            <g id="Group_773" data-name="Group 773" transform="translate(17.001)">
              <path id="Path_2278" data-name="Path 2278" class="cls-4" d="M1641.385,1761.6v6.058l-16.985,9.689v-5.96Z" transform="translate(-1624.4 -1761.6)"/>
            </g>
            <g id="Group_774" data-name="Group 774" transform="translate(0 0.098)">
              <path id="Path_2279" data-name="Path 2279" class="cls-7" d="M1520,1762.2v5.96l17,9.689v-5.96Z" transform="translate(-1520 -1762.2)"/>
            </g>
          </g>
          <g id="Group_776" data-name="Group 776" transform="translate(7.866 75.887)">
            <path id="Path_2280" data-name="Path 2280" class="cls-4" d="M1572.86,1742.6l-4.56-4.609,4.56-4.592H1582l4.56,4.592L1582,1742.6Z" transform="translate(-1568.3 -1733.4)"/>
          </g>
          <g id="Group_780" data-name="Group 780" transform="translate(7.817)">
            <g id="Group_777" data-name="Group 777" transform="translate(4.527 0.065)">
              <rect id="Rectangle_56" data-name="Rectangle 56" class="cls-8" width="9.185" height="85.022"/>
            </g>
            <g id="Group_778" data-name="Group 778" transform="translate(13.712 0.065)">
              <path id="Path_2281" data-name="Path 2281" class="cls-4" d="M1652.2,1352.822l4.641-4.56V1267.8H1652.2Z" transform="translate(-1652.2 -1267.8)"/>
            </g>
            <g id="Group_779" data-name="Group 779">
              <path id="Path_2282" data-name="Path 2282" class="cls-7" d="M1568.049,1347.9l4.478,4.592V1267.4H1568Z" transform="translate(-1568 -1267.4)"/>
            </g>
          </g>
        </g>
        <g id="Group_791" data-name="Group 791" transform="translate(59.472 34.312)">
          <g id="Group_782" data-name="Group 782" transform="translate(0 70.708)">
            <path id="Path_2283" data-name="Path 2283" class="cls-6" d="M1702.6,1606.085l17.115-9.885,16.871,9.885-16.985,9.673Z" transform="translate(-1702.6 -1596.2)"/>
          </g>
          <g id="Group_785" data-name="Group 785" transform="translate(0 80.479)">
            <g id="Group_783" data-name="Group 783" transform="translate(17.001)">
              <path id="Path_2284" data-name="Path 2284" class="cls-4" d="M1823.985,1656.2v6.074L1807,1671.947v-5.96Z" transform="translate(-1807 -1656.2)"/>
            </g>
            <g id="Group_784" data-name="Group 784" transform="translate(0 0.098)">
              <path id="Path_2285" data-name="Path 2285" class="cls-7" d="M1702.6,1656.8v5.976l17,9.673v-5.96Z" transform="translate(-1702.6 -1656.8)"/>
            </g>
          </g>
          <g id="Group_786" data-name="Group 786" transform="translate(7.866 75.887)">
            <path id="Path_2286" data-name="Path 2286" class="cls-4" d="M1755.476,1637.2l-4.576-4.592,4.576-4.608h9.12l4.576,4.608-4.576,4.592Z" transform="translate(-1750.9 -1628)"/>
          </g>
          <g id="Group_790" data-name="Group 790" transform="translate(7.817)">
            <g id="Group_787" data-name="Group 787" transform="translate(4.527 0.081)">
              <rect id="Rectangle_57" data-name="Rectangle 57" class="cls-8" width="9.185" height="85.022"/>
            </g>
            <g id="Group_788" data-name="Group 788" transform="translate(13.712 0.081)">
              <path id="Path_2287" data-name="Path 2287" class="cls-4" d="M1834.8,1247.506l4.641-4.543V1162.5H1834.8Z" transform="translate(-1834.8 -1162.5)"/>
            </g>
            <g id="Group_789" data-name="Group 789">
              <path id="Path_2288" data-name="Path 2288" class="cls-7" d="M1750.649,1242.5l4.478,4.592V1162H1750.6Z" transform="translate(-1750.6 -1162)"/>
            </g>
          </g>
        </g>
        <g id="Group_801" data-name="Group 801" transform="translate(89.208 17.164)">
          <g id="Group_792" data-name="Group 792" transform="translate(0.016 70.708)">
            <path id="Path_2289" data-name="Path 2289" class="cls-6" d="M1885.3,1500.768l17.1-9.868,16.887,9.868-17,9.689Z" transform="translate(-1885.3 -1490.9)"/>
          </g>
          <g id="Group_795" data-name="Group 795" transform="translate(0 80.479)">
            <g id="Group_793" data-name="Group 793" transform="translate(17.001)">
              <path id="Path_2290" data-name="Path 2290" class="cls-4" d="M2006.6,1550.9v6.058l-17,9.689v-5.96Z" transform="translate(-1989.6 -1550.9)"/>
            </g>
            <g id="Group_794" data-name="Group 794" transform="translate(0 0.098)">
              <path id="Path_2291" data-name="Path 2291" class="cls-7" d="M1885.2,1551.5v5.96l17,9.689v-5.96Z" transform="translate(-1885.2 -1551.5)"/>
            </g>
          </g>
          <g id="Group_796" data-name="Group 796" transform="translate(7.866 75.887)">
            <path id="Path_2292" data-name="Path 2292" class="cls-4" d="M1938.076,1531.9l-4.576-4.609,4.576-4.592h9.12l4.576,4.592-4.576,4.609Z" transform="translate(-1933.5 -1522.7)"/>
          </g>
          <g id="Group_800" data-name="Group 800" transform="translate(7.817)">
            <g id="Group_797" data-name="Group 797" transform="translate(4.543 0.065)">
              <rect id="Rectangle_58" data-name="Rectangle 58" class="cls-8" width="9.185" height="85.022"/>
            </g>
            <g id="Group_798" data-name="Group 798" transform="translate(13.712 0.065)">
              <path id="Path_2293" data-name="Path 2293" class="cls-4" d="M2017.4,1142.122l4.657-4.56V1057.1H2017.4Z" transform="translate(-2017.4 -1057.1)"/>
            </g>
            <g id="Group_799" data-name="Group 799">
              <path id="Path_2294" data-name="Path 2294" class="cls-7" d="M1933.265,1137.2l4.478,4.592V1056.7H1933.2Z" transform="translate(-1933.2 -1056.7)"/>
            </g>
          </g>
        </g>
        <g id="Group_812" data-name="Group 812" transform="translate(118.96)">
          <g id="Group_802" data-name="Group 802" transform="translate(0 70.708)">
            <path id="Path_2295" data-name="Path 2295" class="cls-6" d="M2067.9,1395.385l17.1-9.885,16.887,9.885-17,9.673Z" transform="translate(-2067.9 -1385.5)"/>
          </g>
          <g id="Group_805" data-name="Group 805" transform="translate(0 80.479)">
            <g id="Group_803" data-name="Group 803" transform="translate(16.985)">
              <path id="Path_2296" data-name="Path 2296" class="cls-4" d="M2189.2,1445.5v6.074l-17,9.673V1455.3Z" transform="translate(-2172.2 -1445.5)"/>
            </g>
            <g id="Group_804" data-name="Group 804" transform="translate(0 0.098)">
              <path id="Path_2297" data-name="Path 2297" class="cls-7" d="M2067.9,1446.1v5.976l16.985,9.673v-5.944Z" transform="translate(-2067.9 -1446.1)"/>
            </g>
          </g>
          <g id="Group_807" data-name="Group 807" transform="translate(7.866 75.887)">
            <g id="Group_806" data-name="Group 806">
              <path id="Path_2298" data-name="Path 2298" class="cls-4" d="M2120.76,1426.5l-4.56-4.592,4.56-4.609h9.136l4.56,4.609-4.56,4.592Z" transform="translate(-2116.2 -1417.3)"/>
            </g>
          </g>
          <g id="Group_811" data-name="Group 811" transform="translate(7.8)">
            <g id="Group_808" data-name="Group 808" transform="translate(4.543 0.081)">
              <rect id="Rectangle_59" data-name="Rectangle 59" class="cls-8" width="9.185" height="85.022"/>
            </g>
            <g id="Group_809" data-name="Group 809" transform="translate(13.728 0.081)">
              <path id="Path_2299" data-name="Path 2299" class="cls-4" d="M2200.1,1036.806l4.641-4.544V951.8H2200.1Z" transform="translate(-2200.1 -951.8)"/>
            </g>
            <g id="Group_810" data-name="Group 810">
              <path id="Path_2300" data-name="Path 2300" class="cls-7" d="M2115.865,1031.8l4.478,4.592V951.3H2115.8Z" transform="translate(-2115.8 -951.3)"/>
            </g>
          </g>
        </g>
      </g>
      <g id="Group_814" data-name="Group 814" transform="translate(217.563 0)">
        <path id="Path_2301" data-name="Path 2301" class="cls-10" d="M1441.7,88.072l152.946,88.3L1518.108,62.7Z" transform="translate(-1441.7 -62.7)"/>
      </g>
      <g id="Group_819" data-name="Group 819" transform="translate(157.196 197.794)">
        <g id="Group_815" data-name="Group 815" transform="translate(0.831 0)">
          <path id="Path_2302" data-name="Path 2302" class="cls-11" d="M1097.384,1338.123V1289.6l-21.284-12.3v49.147Z" transform="translate(-1076.1 -1277.3)"/>
        </g>
        <g id="Group_818" data-name="Group 818" transform="translate(0 0)">
          <g id="Group_816" data-name="Group 816" transform="translate(0.831)">
            <path id="Path_2303" data-name="Path 2303" class="cls-12" d="M1076.1,1277.3l3.745,2.215V1324.2l-3.745,2.247Z" transform="translate(-1076.1 -1277.3)"/>
          </g>
          <g id="Group_817" data-name="Group 817" transform="translate(0 46.9)">
            <path id="Path_2304" data-name="Path 2304" class="cls-9" d="M1071,1567.336l4.576-2.036,17.734,9.95v5.342Z" transform="translate(-1071 -1565.3)"/>
          </g>
        </g>
      </g>
      <g id="Group_825" data-name="Group 825" transform="translate(217.515 231.08)">
        <g id="Group_820" data-name="Group 820" transform="translate(0.016)">
          <path id="Path_2305" data-name="Path 2305" class="cls-13" d="M1594.185,1481.7,1441.5,1569.719V1581l152.685-88.214Z" transform="translate(-1441.5 -1481.7)"/>
        </g>
        <g id="Group_821" data-name="Group 821" transform="translate(0 17.75)">
          <path id="Path_2306" data-name="Path 2306" class="cls-13" d="M1605.175,1590.7l-163.726,93.669-.049,11.432,163.775-94.028Z" transform="translate(-1441.4 -1590.7)"/>
        </g>
        <g id="Group_822" data-name="Group 822" transform="translate(0 34.963)">
          <path id="Path_2307" data-name="Path 2307" class="cls-13" d="M1616.265,1696.4,1441.4,1797.267l.016,11.253,174.849-101.03Z" transform="translate(-1441.4 -1696.4)"/>
        </g>
        <g id="Group_823" data-name="Group 823" transform="translate(0.016 11.09)">
          <path id="Path_2308" data-name="Path 2308" class="cls-3" d="M1605.259,1556.2l-11.074-6.4-152.636,87.97-.049,12.36Z" transform="translate(-1441.5 -1549.8)"/>
        </g>
        <g id="Group_824" data-name="Group 824" transform="translate(0 28.466)">
          <path id="Path_2309" data-name="Path 2309" class="cls-3" d="M1616.265,1663.1l-11.09-6.6L1441.4,1750.886v12.979Z" transform="translate(-1441.4 -1656.5)"/>
        </g>
      </g>
      <g id="Group_836" data-name="Group 836" transform="translate(81.537 144.641)">
        <g id="Group_826" data-name="Group 826" transform="translate(0 70.708)">
          <path id="Path_2310" data-name="Path 2310" class="cls-6" d="M606.4,1394.968l17.115-9.869,16.887,9.869-17,9.689Z" transform="translate(-606.4 -1385.1)"/>
        </g>
        <g id="Group_829" data-name="Group 829" transform="translate(0 80.479)">
          <g id="Group_827" data-name="Group 827" transform="translate(17.001)">
            <path id="Path_2311" data-name="Path 2311" class="cls-4" d="M727.785,1445.1v6.058l-16.985,9.689v-5.96Z" transform="translate(-710.8 -1445.1)"/>
          </g>
          <g id="Group_828" data-name="Group 828" transform="translate(0 0.098)">
            <path id="Path_2312" data-name="Path 2312" class="cls-7" d="M606.4,1445.7v5.96l17,9.689v-5.96Z" transform="translate(-606.4 -1445.7)"/>
          </g>
        </g>
        <g id="Group_831" data-name="Group 831" transform="translate(7.866 75.887)">
          <g id="Group_830" data-name="Group 830">
            <path id="Path_2313" data-name="Path 2313" class="cls-4" d="M659.276,1426.1l-4.576-4.609,4.576-4.592H668.4l4.576,4.592L668.4,1426.1Z" transform="translate(-654.7 -1416.9)"/>
          </g>
        </g>
        <g id="Group_835" data-name="Group 835" transform="translate(7.817)">
          <g id="Group_832" data-name="Group 832" transform="translate(4.543 0.065)">
            <rect id="Rectangle_60" data-name="Rectangle 60" class="cls-8" width="9.185" height="85.022"/>
          </g>
          <g id="Group_833" data-name="Group 833" transform="translate(13.712 0.065)">
            <path id="Path_2314" data-name="Path 2314" class="cls-4" d="M738.6,1036.322l4.657-4.56V951.3H738.6Z" transform="translate(-738.6 -951.3)"/>
          </g>
          <g id="Group_834" data-name="Group 834">
            <path id="Path_2315" data-name="Path 2315" class="cls-9" d="M654.465,1031.4l4.478,4.592V950.9H654.4Z" transform="translate(-654.4 -950.9)"/>
          </g>
        </g>
      </g>
      <g id="Group_846" data-name="Group 846" transform="translate(111.306 161.805)">
        <g id="Group_837" data-name="Group 837" transform="translate(0 70.708)">
          <path id="Path_2316" data-name="Path 2316" class="cls-6" d="M789.2,1500.385l17.1-9.885,16.887,9.885-17,9.673Z" transform="translate(-789.2 -1490.5)"/>
        </g>
        <g id="Group_840" data-name="Group 840" transform="translate(0 80.479)">
          <g id="Group_838" data-name="Group 838" transform="translate(16.985)">
            <path id="Path_2317" data-name="Path 2317" class="cls-4" d="M910.5,1550.5v6.074l-17,9.673V1560.3Z" transform="translate(-893.5 -1550.5)"/>
          </g>
          <g id="Group_839" data-name="Group 839" transform="translate(0 0.098)">
            <path id="Path_2318" data-name="Path 2318" class="cls-7" d="M789.2,1551.1v5.977l16.985,9.673v-5.944Z" transform="translate(-789.2 -1551.1)"/>
          </g>
        </g>
        <g id="Group_841" data-name="Group 841" transform="translate(7.866 75.887)">
          <path id="Path_2319" data-name="Path 2319" class="cls-4" d="M842.06,1531.5l-4.56-4.592,4.56-4.609H851.2l4.56,4.609-4.56,4.592Z" transform="translate(-837.5 -1522.3)"/>
        </g>
        <g id="Group_845" data-name="Group 845" transform="translate(7.817 0)">
          <g id="Group_842" data-name="Group 842" transform="translate(4.527 0.081)">
            <rect id="Rectangle_61" data-name="Rectangle 61" class="cls-8" width="9.185" height="85.022"/>
          </g>
          <g id="Group_843" data-name="Group 843" transform="translate(13.712 0.081)">
            <path id="Path_2320" data-name="Path 2320" class="cls-4" d="M921.4,1141.822l4.641-4.56V1056.8H921.4Z" transform="translate(-921.4 -1056.8)"/>
          </g>
          <g id="Group_844" data-name="Group 844">
            <path id="Path_2321" data-name="Path 2321" class="cls-9" d="M837.249,1136.8l4.478,4.609v-85.1H837.2Z" transform="translate(-837.2 -1056.3)"/>
          </g>
        </g>
      </g>
      <g id="Group_856" data-name="Group 856" transform="translate(170.826 196.165)">
        <g id="Group_847" data-name="Group 847" transform="translate(0 70.708)">
          <path id="Path_2322" data-name="Path 2322" class="cls-6" d="M1154.7,1711.369l17.1-9.869,16.887,9.869-17,9.689Z" transform="translate(-1154.7 -1701.5)"/>
        </g>
        <g id="Group_850" data-name="Group 850" transform="translate(0 80.479)">
          <g id="Group_848" data-name="Group 848" transform="translate(16.985)">
            <path id="Path_2323" data-name="Path 2323" class="cls-4" d="M1276,1761.5v6.058l-17,9.689v-5.96Z" transform="translate(-1259 -1761.5)"/>
          </g>
          <g id="Group_849" data-name="Group 849" transform="translate(0 0.098)">
            <path id="Path_2324" data-name="Path 2324" class="cls-7" d="M1154.7,1762.1v5.96l16.985,9.689v-5.96Z" transform="translate(-1154.7 -1762.1)"/>
          </g>
        </g>
        <g id="Group_851" data-name="Group 851" transform="translate(7.849 75.87)">
          <path id="Path_2325" data-name="Path 2325" class="cls-4" d="M1207.476,1742.417l-4.576-4.608,4.576-4.609h9.136l4.56,4.609-4.56,4.608Z" transform="translate(-1202.9 -1733.2)"/>
        </g>
        <g id="Group_855" data-name="Group 855" transform="translate(7.8 0)">
          <g id="Group_852" data-name="Group 852" transform="translate(4.543 0.065)">
            <rect id="Rectangle_62" data-name="Rectangle 62" class="cls-8" width="9.185" height="85.022"/>
          </g>
          <g id="Group_853" data-name="Group 853" transform="translate(13.712 0.065)">
            <path id="Path_2326" data-name="Path 2326" class="cls-4" d="M1286.8,1352.722l4.657-4.56V1267.7H1286.8Z" transform="translate(-1286.8 -1267.7)"/>
          </g>
          <g id="Group_854" data-name="Group 854">
            <path id="Path_2327" data-name="Path 2327" class="cls-9" d="M1202.665,1347.8l4.478,4.592V1267.3H1202.6Z" transform="translate(-1202.6 -1267.3)"/>
          </g>
        </g>
      </g>
      <g id="Group_857" data-name="Group 857" transform="translate(64.829 44.685)">
        <path id="Path_2328" data-name="Path 2328" class="cls-14" d="M503.8,425.4l152.946-88.3,152.946,88.3L656.746,513.707Z" transform="translate(-503.8 -337.1)"/>
      </g>
      <g id="Group_858" data-name="Group 858" transform="translate(64.829 25.16)">
        <path id="Path_2329" data-name="Path 2329" class="cls-15" d="M503.8,305.5l152.946-88.3,152.946,88.3L656.746,393.807Z" transform="translate(-503.8 -217.2)"/>
      </g>
      <g id="Group_859" data-name="Group 859" transform="translate(64.829 113.455)">
        <path id="Path_2330" data-name="Path 2330" class="cls-3" d="M656.746,847.712v19.525l-76.473-44.164L503.8,778.925V759.4l76.473,44.164Z" transform="translate(-503.8 -759.4)"/>
      </g>
      <g id="Group_860" data-name="Group 860" transform="translate(217.775 113.455)">
        <path id="Path_2331" data-name="Path 2331" class="cls-16" d="M1443,847.712v19.525l152.946-88.312V759.4Z" transform="translate(-1443 -759.4)"/>
      </g>
      <g id="Group_861" data-name="Group 861" transform="translate(64.829 88.1)">
        <path id="Path_2332" data-name="Path 2332" class="cls-3" d="M503.8,629.055l152.946,88.312L580.208,603.7Z" transform="translate(-503.8 -603.7)"/>
      </g>
      <g id="Group_862" data-name="Group 862" transform="translate(141.237 0)">
        <path id="Path_2333" data-name="Path 2333" class="cls-17" d="M973,150.8l152.734-88.1,76.538,113.667-152.734,88.1Z" transform="translate(-973 -62.7)"/>
      </g>
      <g id="Group_863" data-name="Group 863" transform="translate(64.829 0)">
        <path id="Path_2334" data-name="Path 2334" class="cls-18" d="M503.8,176.155,580.208,150.8,732.942,62.7,656.534,88.072Z" transform="translate(-503.8 -62.7)"/>
      </g>
      <g id="Group_864" data-name="Group 864" transform="translate(81.228 103.375)">
        <path id="Path_2335" data-name="Path 2335" class="cls-5" d="M664.4,697.5l59.048,88.23L604.5,716.814Z" transform="translate(-604.5 -697.5)"/>
      </g>
      <g id="Group_867" data-name="Group 867" transform="translate(124.112 109.702)">
        <g id="Group_865" data-name="Group 865" transform="translate(0 0)">
          <ellipse id="Ellipse_53" data-name="Ellipse 53" class="cls-6" cx="8.207" cy="14.559" rx="8.207" ry="14.559" transform="matrix(0.866, -0.5, 0.5, 0.866, 0, 8.207)"/>
        </g>
        <g id="Group_866" data-name="Group 866" transform="translate(4.178 3.477)">
          <path id="Path_2336" data-name="Path 2336" class="cls-9" d="M899.636,773.382c-2.768-5.358-4.022-12.653-1.417-15.682a4.733,4.733,0,0,0-1.824.6c-3.925,2.264-3.859,9.755.163,16.724s10.471,10.764,14.4,8.5a4.486,4.486,0,0,0,1.238-1.042C906.476,782.762,902.258,778.463,899.636,773.382Z" transform="translate(-893.496 -757.7)"/>
        </g>
      </g>
      <g id="Group_868" data-name="Group 868" transform="translate(77.597 120.067)">
        <path id="Path_2337" data-name="Path 2337" class="cls-1" d="M593.958,800l102.4,58.951,13.06,17.017L582.2,803.452Z" transform="translate(-582.2 -800)"/>
      </g>
      <g id="Group_872" data-name="Group 872" transform="translate(106.404 133.42)">
        <g id="Group_869" data-name="Group 869" transform="translate(0)">
          <path id="Path_2338" data-name="Path 2338" class="cls-19" d="M759.1,883.433,761.836,882l56.833,32.716-2.947,1.808Z" transform="translate(-759.1 -882)"/>
        </g>
        <g id="Group_870" data-name="Group 870" transform="translate(56.622 32.716)">
          <path id="Path_2339" data-name="Path 2339" class="cls-20" d="M1106.8,1084.708l2.947-1.808.082,19.053-3.029,1.84Z" transform="translate(-1106.8 -1082.9)"/>
        </g>
        <g id="Group_871" data-name="Group 871" transform="translate(0 1.433)">
          <path id="Path_2340" data-name="Path 2340" class="cls-21" d="M759.1,890.8l56.622,33.09v19.4l-56.622-32.7Z" transform="translate(-759.1 -890.8)"/>
        </g>
      </g>
      <g id="Group_873" data-name="Group 873" transform="translate(111.827 142.54)">
        <path id="Path_2341" data-name="Path 2341" class="cls-9" d="M792.4,938l6.058,3.5a6.828,6.828,0,0,1,2.329,2.1,4.289,4.289,0,0,1,.814,2.329,1.3,1.3,0,0,1-.586,1.254,1.581,1.581,0,0,1-1.124.049,6.952,6.952,0,0,1,1.661,1.889,4.035,4.035,0,0,1,.537,1.97,1.92,1.92,0,0,1-.375,1.254,1.257,1.257,0,0,1-1.042.423,3.2,3.2,0,0,1-1.238-.375,13.927,13.927,0,0,1-1.449-.7l-5.586-3.224Zm3.273,5.993,1.417.814c.5.293.863.407,1.059.342s.293-.26.293-.586a1.5,1.5,0,0,0-.293-.879,2.957,2.957,0,0,0-1.026-.847l-1.433-.83v1.987Zm0,4.12,1.645.961q.831.489,1.173.391c.228-.065.342-.261.342-.6a1.642,1.642,0,0,0-.342-.945,3.829,3.829,0,0,0-1.189-.977L795.657,946v2.117Z" transform="translate(-792.4 -938)"/>
        <path id="Path_2342" data-name="Path 2342" class="cls-9" d="M861.791,998.6l-3.68-2.117-.5,1.433-3.306-1.905,3.941-8.208,3.534,2.036,3.941,12.751-3.387-1.954Zm-.668-2.654-1.156-4.429-1.14,3.11Z" transform="translate(-844.22 -979.69)"/>
        <path id="Path_2343" data-name="Path 2343" class="cls-9" d="M930.9,1017.9l3.029,1.742,3.941,8.077v-5.8l3.061,1.759v10.487l-3.061-1.759-3.925-8.028v5.749l-3.045-1.759Z" transform="translate(-908.346 -1004.889)"/>
        <path id="Path_2344" data-name="Path 2344" class="cls-9" d="M1005.616,1061.2l3.241,1.873v3.957l3.387-2,4.316,2.491-3.827,1.742,3.99,8.843-3.99-2.3-2.215-5.586-1.677.782v2.557l-3.241-1.873V1061.2Z" transform="translate(-970.881 -1041.137)"/>
      </g>
      <g id="Group_874" data-name="Group 874" transform="translate(89.354 118.618)">
        <path id="Path_2345" data-name="Path 2345" class="cls-1" d="M654.4,792.549l4.543-1.449,93.865,54.44,3.99,5.96Z" transform="translate(-654.4 -791.1)"/>
      </g>
      <g id="Group_887" data-name="Group 887" transform="translate(280.634 314.962)">
        <g id="Group_875" data-name="Group 875" transform="translate(0 39.507)">
          <path id="Path_2346" data-name="Path 2346" class="cls-22" d="M1829,2249.187l17,9.9,17-9.82-17-9.869Z" transform="translate(-1829 -2239.4)"/>
        </g>
        <g id="Group_876" data-name="Group 876" transform="translate(0 58.918)">
          <path id="Path_2347" data-name="Path 2347" class="cls-23" d="M1829,2368.387l17,9.885,17-9.8-17-9.868Z" transform="translate(-1829 -2358.6)"/>
        </g>
        <g id="Group_877" data-name="Group 877" transform="translate(33.905 19.998)">
          <path id="Path_2348" data-name="Path 2348" class="cls-24" d="M2037.2,2129.387l16.985,9.885,17-9.8-17-9.868Z" transform="translate(-2037.2 -2119.6)"/>
        </g>
        <g id="Group_878" data-name="Group 878" transform="translate(33.905 58.918)">
          <path id="Path_2349" data-name="Path 2349" class="cls-23" d="M2037.2,2368.387l16.985,9.885,17-9.8-17-9.868Z" transform="translate(-2037.2 -2358.6)"/>
        </g>
        <g id="Group_879" data-name="Group 879" transform="translate(67.989)">
          <path id="Path_2350" data-name="Path 2350" class="cls-25" d="M2246.5,2006.587l16.985,9.885,17-9.8-17-9.869Z" transform="translate(-2246.5 -1996.8)"/>
        </g>
        <g id="Group_881" data-name="Group 881" transform="translate(0 49.294)">
          <path id="Path_2352" data-name="Path 2352" class="cls-26" d="M1829,2299.5v19.411l17,9.885v-19.672Z" transform="translate(-1829 -2299.5)"/>
        </g>
        <g id="Group_882" data-name="Group 882" transform="translate(17.001 49.375)">
          <path id="Path_2353" data-name="Path 2353" class="cls-27" d="M1950.4,2300v19.33l-17,9.885v-19.672Z" transform="translate(-1933.4 -2300)"/>
        </g>
        <g id="Group_883" data-name="Group 883" transform="translate(33.905 29.459)">
          <path id="Path_2354" data-name="Path 2354" class="cls-28" d="M2037.2,2177.7v39.246l16.985,9.885v-39.1Z" transform="translate(-2037.2 -2177.7)"/>
        </g>
        <g id="Group_884" data-name="Group 884" transform="translate(50.89 29.54)">
          <path id="Path_2355" data-name="Path 2355" class="cls-29" d="M2158.5,2178.2l.1,39.165-17.1,9.885v-39.311Z" transform="translate(-2141.5 -2178.2)"/>
        </g>
        <g id="Group_885" data-name="Group 885" transform="translate(67.989 9.787)">
          <path id="Path_2356" data-name="Path 2356" class="cls-30" d="M2246.5,2056.9l16.594,8.761V2125.7l-16.594-9.885Z" transform="translate(-2246.5 -2056.9)"/>
        </g>
        <g id="Group_886" data-name="Group 886" transform="translate(85.104 9.999)">
          <path id="Path_2357" data-name="Path 2357" class="cls-17" d="M2368.194,2058.2l-16.594,8.745V2127l16.594-9.885Z" transform="translate(-2351.6 -2058.2)"/>
        </g>
      </g>
      <g id="Group_891" data-name="Group 891" transform="translate(6.107 322.046)">
        <g id="Group_888" data-name="Group 888" transform="translate(0 5.439)">
          <path id="Path_2358" data-name="Path 2358" class="cls-31" d="M143.2,2108.7l40.419,23.336,60.612-35L203.812,2073.7Z" transform="translate(-143.2 -2073.7)"/>
        </g>
        <g id="Group_889" data-name="Group 889" transform="translate(0 2.72)">
          <path id="Path_2359" data-name="Path 2359" class="cls-32" d="M143.2,2092l40.419,23.336,60.612-35L203.812,2057Z" transform="translate(-143.2 -2057)"/>
        </g>
        <g id="Group_890" data-name="Group 890" transform="translate(0)">
          <path id="Path_2360" data-name="Path 2360" class="cls-33" d="M143.2,2075.3l40.419,23.336,60.612-35L203.812,2040.3Z" transform="translate(-143.2 -2040.3)"/>
        </g>
      </g>
      <g id="Group_892" data-name="Group 892" transform="translate(24.72 138.534)">
        <path id="Path_2361" data-name="Path 2361" class="cls-34" d="M258.135,964.615H257.5v-.147h.635Zm0-2.654H257.5v-2.508h.635Zm0-5.016H257.5v-2.508h.635Zm0-5.016H257.5v-2.508h.635Zm.016-5.032h-.635V944.39h.635Zm50.906-4.446-2.182-1.238.309-.554,2.182,1.238Zm-50.906-.57h-.635v-2.508h.635Zm46.542-1.905-2.182-1.238.309-.554L305,939.423Zm-4.381-2.475-2.182-1.238.309-.554,2.182,1.238Zm-42.161-.635h-.635v-2.508h.635Zm37.8-1.84-2.182-1.238.309-.554,2.182,1.238Zm-4.364-2.492L289.4,931.3l.309-.554,2.182,1.238Zm-33.432-.7h-.635v-2.508h.635Zm29.068-1.775-2.182-1.238.309-.554,2.182,1.238Zm-4.364-2.475-2.182-1.238.309-.554,2.182,1.238Zm-24.688-.765h-.635v-2.508h.635Zm20.323-1.71-2.182-1.238.309-.554,2.182,1.238Zm-4.381-2.475-2.182-1.238.309-.554,2.182,1.238Zm-15.943-.847h-.635v-2.508h.635Zm11.578-1.645-2.182-1.238.309-.554,2.182,1.238Zm-4.364-2.475-2.182-1.238.309-.554,2.182,1.238Zm-7.214-.9h-.635v-2.508h.635Zm2.85-1.58-2.182-1.238.309-.554,2.182,1.238Z" transform="translate(-257.5 -913.4)"/>
      </g>
      <g id="Group_893" data-name="Group 893" transform="translate(87.4 376.551)">
        <path id="Path_2362" data-name="Path 2362" class="cls-34" d="M682.493,2411.461l-1.14-.668.309-.537.831.472,1.026-.6.309.538Zm-3.322-1.921L677,2408.286l.309-.538L679.48,2409Zm6.84-.114-.309-.537,2.182-1.254.309.537Zm-11.187-2.394-2.166-1.254.309-.538,2.166,1.254Zm15.535-.114-.309-.537,2.182-1.254.309.537Zm-19.884-2.41-2.166-1.254.31-.537,2.166,1.254Zm24.232-.114-.31-.537,2.182-1.254.309.537ZM666.127,2402l-2.166-1.254.309-.537,2.166,1.254Zm32.928-.114-.309-.538,2.182-1.254.309.537Zm-37.276-2.394-2.166-1.254.309-.538,2.166,1.254Zm41.624-.114-.309-.538,2.182-1.254.309.538Zm-45.972-2.41-2.166-1.253.309-.538,2.166,1.254Zm50.32-.1-.309-.537,2.182-1.254.309.538Zm-54.668-2.41-2.166-1.254.309-.537,2.166,1.254Zm59.016-.1-.309-.537,2.182-1.254.309.537Zm-63.364-2.41-2.166-1.254.309-.537,2.166,1.254Zm67.712-.1-.309-.538,2.182-1.254.309.538Zm-72.06-2.427-1.987-1.156.309-.537,1.987,1.156Zm76.408-.1-.309-.538,2.182-1.254.309.538Zm4.348-2.508-.309-.538,2.182-1.254.309.537Zm4.348-2.508-.309-.537,2.182-1.254.309.537Zm4.348-2.508-.309-.537,2.182-1.254.309.538Zm4.348-2.508-.309-.537,2.182-1.254.309.538Zm4.348-2.508-.309-.537,2.182-1.254.309.537Z" transform="translate(-642.4 -2375)"/>
      </g>
      <g id="Group_894" data-name="Group 894" transform="translate(0 287.294)">
        <path id="Path_2363" data-name="Path 2363" class="cls-34" d="M116.692,1856.1l-2.2-1.2.309-.554,2.2,1.205Zm-4.4-2.426-2.2-1.221.309-.554,2.2,1.221Zm-4.4-2.427-2.2-1.221.309-.554,2.2,1.221Zm-.765-2.459-.309-.537,2.182-1.254.309.537Zm4.348-2.508-.309-.537,2.182-1.254.309.537Zm4.348-2.524-.309-.537,2.182-1.254.309.537Zm4.348-2.508-.309-.537,2.182-1.254.309.538Zm4.348-2.508-.309-.537,2.182-1.254.309.537Zm4.348-2.508-.309-.537,2.182-1.254.309.537Zm4.348-2.508-.309-.537,2.182-1.254.309.537Zm4.348-2.508-.309-.537,2.182-1.254.309.537Zm4.348-2.524-.309-.538,2.182-1.254.309.537Z" transform="translate(-105.7 -1826.9)"/>
      </g>
      <g id="Group_895" data-name="Group 895" transform="translate(246.273 371.828)">
        <path id="Path_2364" data-name="Path 2364" class="cls-34" d="M1687.389,2386.565l-.326-.537,2.15-1.286.326.537Zm-2.475-.244-2.166-1.286.326-.537,2.166,1.286Zm6.775-2.345-.326-.537,2.15-1.286.326.538Zm-11.09-.228-2.166-1.286.326-.538,2.166,1.287Zm15.405-2.361-.326-.537,2.15-1.287.326.537Zm-19.721-.2-2.166-1.287.326-.538,2.166,1.287Zm24.02-2.394-.326-.538,2.15-1.287.326.538Zm-28.335-.179-2.166-1.286.326-.538,2.166,1.287Zm32.635-2.41-.326-.537,2.15-1.286.326.537Zm-36.95-.146-2.166-1.286.326-.538,2.166,1.287Zm41.249-2.443-.326-.537,2.15-1.287.326.538Zm-45.565-.13-2.166-1.287.326-.537,2.166,1.286Zm49.88-2.459-.326-.537,2.15-1.287.326.537Zm-54.2-.1-2.166-1.286.326-.537,2.166,1.286Zm58.495-2.491-.326-.538,2.15-1.286.326.537Zm-62.81-.082-2.166-1.286.326-.538,2.166,1.286Zm-4.332-2.573-2.166-1.286.326-.538,2.166,1.287Zm-4.315-2.556-2.166-1.287.326-.538,2.166,1.287Zm-4.316-2.573-2.166-1.286.326-.538,2.166,1.287Zm-4.315-2.557-2.166-1.286.326-.538,2.166,1.287Zm-4.316-2.573-2.166-1.287.326-.537,2.166,1.286Zm-4.315-2.573-2.166-1.287.326-.537,2.166,1.287Zm-4.315-2.557-2.166-1.287.326-.537,2.166,1.286Zm-4.316-2.573-2.166-1.286.326-.537,2.166,1.287Z" transform="translate(-1618 -2346)"/>
      </g>
      <g id="Group_896" data-name="Group 896" transform="translate(91.259 340.578)">
        <path id="Path_2365" data-name="Path 2365" class="cls-35" d="M673.9,2154.1l.212,9.233-8.012-4.723Z" transform="translate(-666.1 -2154.1)"/>
      </g>
    </g>
    <g id="isometric_sheild" transform="translate(-96.898 2095.094)">
      <path id="Path_4940" data-name="Path 4940" class="cls-36" d="M395.7,145.588s-14.191,1.477-16.17-8.388A84.906,84.906,0,0,0,348.7,155.823s-5.671,16.776-11.844,21.472c0,0-10,44.157,27.75,53.653C364.63,230.948,398.289,192.726,395.7,145.588Z" transform="translate(-22.233 -13.399)"/>
      <path id="Path_4941" data-name="Path 4941" class="cls-37" d="M518.17,145.588S504.611,147.065,502,137.2c0,0,1.477,6.41,10.472,3.456C512.5,140.656,518.038,142.291,518.17,145.588Z" transform="translate(-144.699 -13.399)"/>
      <path id="Path_4942" data-name="Path 4942" class="cls-38" d="M357.3,123.8s-1.846-3.218-6.911-4.8c0,0-18.755,5.8-30.7,19.995A47.786,47.786,0,0,1,306.5,161.68s-10.6,49.327,35.9,55.869c0,0-34.9-5.434-27.75-53.653,0,0,8.81-8.916,11.844-21.472C326.465,142.424,335.724,132.189,357.3,123.8Z" transform="translate(0)"/>
      <g id="Group_1720" data-name="Group 1720" transform="translate(323.642 142.152)">
        <path id="Path_4943" data-name="Path 4943" class="cls-39" d="M390.332,271.993c11.079-6.885,20.549-4.748,22.316,5.117a27.342,27.342,0,0,1,.264,4.484,5.024,5.024,0,0,1-.475,1.926c-.422,1.082-.976,2.163-1.477,3.245-.264.554-.58,1.029-1.082,1.134-.5.132-.58-.264-.554-.791a27.008,27.008,0,0,0-.343-8.731c-1.82-6.384-8.256-8.256-15.88-4.484-6.674,3.324-12.345,8.942-16.961,16.7a2.648,2.648,0,0,1-1.081,1.187c-.422.158-.659.026-.659-.4a10.467,10.467,0,0,1,.264-2.532,7.918,7.918,0,0,1,1.082-2.374,50.932,50.932,0,0,1,12.688-13.189C389.013,272.863,389.673,272.467,390.332,271.993Z" transform="translate(-374.4 -251.831)"/>
        <path id="Path_4944" data-name="Path 4944" class="cls-40" d="M408.5,309.2c-.343,2.822-.659,5.619-1.055,8.415a8.667,8.667,0,0,1-3.033,4.959c-.633.58-1.161.343-1-.422.264-1.4.633-2.9.844-4.3a36.265,36.265,0,0,0,.5-9.259c-.554-4.774-4.722-6.621-9.839-4.326-6.911,3.113-13.189,11.422-14.376,19.071-.079.448-.079.818-.158,1.213a1.831,1.831,0,0,1-.739,1.24c-.4.317-.739.343-.9.053a13.761,13.761,0,0,1-1.055-2.638,3.71,3.71,0,0,1,.237-1.846,36.229,36.229,0,0,1,13.136-18.254c8.177-5.961,15.431-4.985,16.987,2.189.079.29.106.633.158.923.079,1,.106,2.031.158,3.033A.2.2,0,0,0,408.5,309.2Z" transform="translate(-376.789 -274.822)"/>
        <path id="Path_4945" data-name="Path 4945" class="cls-41" d="M397.847,241.94c10.34-6.146,18.57-6.99,24.584-2.242a3.791,3.791,0,0,1,1.266,3.192v2.137a1.75,1.75,0,0,1-.686,1.4c-.5.422-.818.317-1,0a12.459,12.459,0,0,0-1.477-1.978c-4.352-4.537-10.71-4.906-19.019-.976-5.276,2.48-10.34,6.542-15.167,11.87-.105.158-.264.29-.4.448-.4.448-.739.659-1.055.5-.317-.105-.317-.475-.105-.976a15.672,15.672,0,0,1,4.115-6.278A55.955,55.955,0,0,1,397.847,241.94Z" transform="translate(-381.941 -228.769)"/>
        <path id="Path_4946" data-name="Path 4946" class="cls-42" d="M416.792,336.671a49.391,49.391,0,0,1-1.978,11.844,4.131,4.131,0,0,1-2.242,2.954,6.416,6.416,0,0,1-.686.4c-.765.448-1.161.158-.844-.791a42.321,42.321,0,0,0,2.295-13.637c0-2.981-2.321-3.851-5.276-2-2.9,1.82-5.2,5.619-5.223,8.573a26.376,26.376,0,0,1-1.213,8.23c-.422,1.345-1,1.82-1.82,1.53-.237-.079-.5-.185-.739-.264-.475-.211-.633-.659-.422-1.451a23.206,23.206,0,0,0,.686-5.83c0-4.3,2.875-9.575,7.1-13.11,4.8-3.983,9.681-3.535,10.235.976C416.766,334.93,416.766,335.8,416.792,336.671Z" transform="translate(-392.181 -297.781)"/>
        <path id="Path_4947" data-name="Path 4947" class="cls-43" d="M424.123,211.709a40.265,40.265,0,0,1,12.53-4.8,7.279,7.279,0,0,1,6.436,1.82c.264.211.237.633-.106,1.187a1.345,1.345,0,0,1-1.24.739,21.577,21.577,0,0,0-8.441.712,44.876,44.876,0,0,0-14.8,7.386c-.475.317-.818.422-1.055.158a1.079,1.079,0,0,1,.264-1.187,27.678,27.678,0,0,1,6.093-5.856A.708.708,0,0,0,424.123,211.709Z" transform="translate(-406.027 -206.768)"/>
        <path id="Path_4948" data-name="Path 4948" class="cls-44" d="M425.188,364.179a38.016,38.016,0,0,1-2.295,11.4c-.422,1.161-.739,1.477-1.662,1.662-.422.079-.818.132-1.24.185-.475.026-.633-.317-.4-.923a32.283,32.283,0,0,0,2.084-11.58,3.624,3.624,0,0,1,1.741-2.9c1-.633,1.715-.29,1.715.791A11.923,11.923,0,0,1,425.188,364.179Z" transform="translate(-407.594 -320.832)"/>
      </g>
    </g>
  </g>
</svg>
