<svg xmlns="http://www.w3.org/2000/svg" xmlns:xlink="http://www.w3.org/1999/xlink" viewBox="0 0 1366 721.327"><defs><style>.a{fill:url(#a);}.b{opacity:0.32;}.c{fill:url(#b);}.d{fill:url(#c);}.e{fill:url(#d);}.f{fill:url(#e);}.g{fill:url(#f);}.h{fill:url(#g);}.i{fill:url(#h);}.j{fill:url(#i);}.k{fill:url(#j);}.l{fill:url(#k);}.m{fill:url(#l);}.n{fill:url(#m);}.o{fill:url(#n);}.p{fill:url(#o);}.q{fill:url(#p);}.r{fill:url(#q);}.s{fill:url(#r);}.t{fill:url(#s);}.u{fill:url(#ag);}.v{fill:url(#ah);}.w{fill:url(#ai);}.x{fill:url(#aj);}.y{fill:url(#ak);}.z{fill:url(#al);}.aa{fill:url(#am);}.ab{fill:url(#an);}</style><linearGradient id="a" x1="0.5" x2="0.5" y2="1" gradientUnits="objectBoundingBox"><stop offset="0" stop-color="#00a3fa"/><stop offset="0.399" stop-color="#3381ff"/><stop offset="1" stop-color="#3d56cd"/></linearGradient><linearGradient id="b" x1="0.342" y1="-0.459" x2="0.869" y2="2.75" gradientUnits="objectBoundingBox"><stop offset="0" stop-color="#0068e6"/><stop offset="1" stop-color="#00d7fe"/></linearGradient><linearGradient id="c" x1="0.03" y1="0.219" x2="1.618" y2="1.172" gradientUnits="objectBoundingBox"><stop offset="0" stop-color="#0068e6"/><stop offset="1" stop-color="#00c6fd"/></linearGradient><linearGradient id="d" x1="1.176" y1="-0.029" x2="-0.129" y2="0.992" gradientUnits="objectBoundingBox"><stop offset="0" stop-color="#009def"/><stop offset="0.043" stop-color="#0093eb"/><stop offset="0.28" stop-color="#005fd8"/><stop offset="0.502" stop-color="#0036ca"/><stop offset="0.703" stop-color="#0018bf"/><stop offset="0.876" stop-color="#0006b8"/><stop offset="1" stop-color="#0000b6"/></linearGradient><linearGradient id="e" x1="0.343" y1="-0.458" x2="0.869" y2="2.75" xlink:href="#b"/><linearGradient id="f" x1="-0.293" y1="0.205" x2="2.389" y2="1.203" xlink:href="#c"/><linearGradient id="g" x1="1.721" y1="-0.093" x2="-0.634" y2="1.05" xlink:href="#d"/><linearGradient id="h" x1="0.343" y1="-0.458" x2="0.869" y2="2.748" xlink:href="#b"/><linearGradient id="i" x1="-0.744" y1="0.197" x2="3.465" y2="1.222" xlink:href="#c"/><linearGradient id="j" x1="2.483" y1="-0.129" x2="-1.34" y2="1.084" xlink:href="#d"/><linearGradient id="k" x1="0.343" y1="-0.458" x2="0.869" y2="2.75" xlink:href="#b"/><linearGradient id="l" x1="-0.293" y1="0.205" x2="2.389" y2="1.203" xlink:href="#c"/><linearGradient id="m" x1="1.721" y1="-0.093" x2="-0.634" y2="1.05" xlink:href="#d"/><linearGradient id="n" x1="0.343" y1="-0.458" x2="0.869" y2="2.748" xlink:href="#b"/><linearGradient id="o" x1="-0.292" y1="0.205" x2="2.389" y2="1.204" xlink:href="#c"/><linearGradient id="p" x1="1.722" y1="-0.093" x2="-0.633" y2="1.05" xlink:href="#d"/><linearGradient id="q" x1="0.343" y1="-0.457" x2="0.869" y2="2.749" xlink:href="#b"/><linearGradient id="r" x1="-0.293" y1="0.205" x2="2.389" y2="1.203" xlink:href="#c"/><linearGradient id="s" x1="1.721" y1="-0.093" x2="-0.634" y2="1.05" xlink:href="#d"/><linearGradient id="ag" x1="-0.036" y1="0.214" x2="1.776" y2="1.181" xlink:href="#c"/><linearGradient id="ah" x1="1.288" y1="-0.047" x2="-0.231" y2="1.008" xlink:href="#d"/><linearGradient id="ai" x1="0.343" y1="-0.457" x2="0.869" y2="2.748" xlink:href="#b"/><linearGradient id="aj" x1="0.031" y1="0.218" x2="1.619" y2="1.171" xlink:href="#c"/><linearGradient id="ak" x1="1.177" y1="-0.029" x2="-0.128" y2="0.991" xlink:href="#d"/><linearGradient id="al" x1="0.343" y1="-0.457" x2="0.869" y2="2.748" xlink:href="#b"/><linearGradient id="am" x1="0.03" y1="0.218" x2="1.619" y2="1.171" xlink:href="#c"/><linearGradient id="an" x1="1.176" y1="-0.029" x2="-0.127" y2="0.991" xlink:href="#d"/></defs><g transform="translate(-5494 2635.756)"><rect class="a" width="1366" height="721.327" transform="translate(5494 -2635.756)"/><g transform="translate(5847.612 -2874.012)"><g transform="translate(412.524 631.748)"><g class="b" transform="translate(0 142.777)"><path class="c" d="M69.415,588.872l21.115-12.213L69.415,564.5,48.3,576.659Z" transform="translate(-48.3 -564.5)"/><path class="d" d="M87.2,623.484l21.115-12.159V586.9L87.2,599.113Z" transform="translate(-66.085 -574.741)"/><path class="e" d="M69.415,623.484,48.3,611.326V586.9l21.115,12.213Z" transform="translate(-48.3 -574.741)"/></g><g class="b" transform="translate(190.225 104.934)"><path class="f" d="M439.211,489.736l51.511-29.745L439.211,430.3,387.7,459.991Z" transform="translate(-387.7 -430.3)"/><path class="g" d="M482.6,628.841,534.111,599.1V485L482.6,514.745Z" transform="translate(-431.089 -455.309)"/><path class="h" d="M439.211,628.841,387.7,599.1V485l51.511,29.745Z" transform="translate(-387.7 -455.309)"/></g><g class="b" transform="translate(330.852 118)"><path class="i" d="M909.233,242.056l39.533-22.828L909.233,196.4,869.7,219.228Z" transform="translate(-869.7 -196.4)"/><path class="j" d="M964.6,419.578l39.533-22.828V250.7L964.6,273.528Z" transform="translate(-925.067 -228.08)"/><path class="k" d="M909.233,419.578,869.7,396.75V250.7l39.533,22.828Z" transform="translate(-869.7 -228.08)"/></g><g class="b" transform="translate(496.842 147.661)"><path class="l" d="M1000.411,524.236l51.511-29.745L1000.411,464.8,948.9,494.491Z" transform="translate(-948.9 -464.8)"/><path class="m" d="M1043.8,663.341l51.511-29.745V519.5L1043.8,549.245Z" transform="translate(-992.289 -489.809)"/><path class="n" d="M1000.411,663.341,948.9,633.6V519.5l51.511,29.745Z" transform="translate(-948.9 -489.809)"/></g><g class="b" transform="translate(277.531)"><path class="o" d="M606.107,324.111l46.507-26.855L606.107,270.4,559.6,297.255Z" transform="translate(-559.6 -270.4)"/><path class="p" d="M654.5,455.018l46.507-26.855V325.2L654.5,352.055Z" transform="translate(-607.993 -298.345)"/><path class="q" d="M606.107,455.018,559.6,428.162V325.2l46.507,26.855Z" transform="translate(-559.6 -298.345)"/></g><g class="b" transform="translate(76.584 59.661)"><path class="r" d="M158.964,463.566l43.264-24.983L158.964,413.6,115.7,438.583Z" transform="translate(-115.7 -413.6)"/><path class="s" d="M210.6,589.212l43.264-24.983V468.4L210.6,493.383Z" transform="translate(-167.336 -443.417)"/><path class="t" d="M158.964,589.212,115.7,564.229V468.4l43.264,24.983Z" transform="translate(-115.7 -443.417)"/></g></g><g transform="translate(-353.612 630.087)"><g class="b" transform="translate(166.168 83.208)"><path class="f" d="M455.973,509.077l68.273-39.424L455.973,430.3,387.7,469.652Z" transform="translate(-387.7 -430.3)"/><path class="g" d="M482.6,675.647l68.273-39.424V485L482.6,524.424Z" transform="translate(-414.327 -445.647)"/><path class="h" d="M455.973,675.647,387.7,636.223V485l68.273,39.424Z" transform="translate(-387.7 -445.647)"/></g><g class="b" transform="translate(502.245)"><path class="i" d="M909.071,241.87l39.371-22.735L909.071,196.4,869.7,219.135Z" transform="translate(-869.7 -196.4)"/><path class="j" d="M964.6,418.888l39.371-22.735V250.7L964.6,273.435Z" transform="translate(-925.229 -228.173)"/><path class="k" d="M909.071,418.888,869.7,396.153V250.7l39.371,22.735Z" transform="translate(-869.7 -228.173)"/></g><g class="b" transform="translate(630.448 48.283)"><path class="l" d="M998.712,522.275l49.812-28.764L998.712,464.8,948.9,493.511Z" transform="translate(-948.9 -464.8)"/><path class="m" d="M1043.8,658.595l49.812-28.764V519.5L1043.8,548.264Z" transform="translate(-993.988 -490.789)"/><path class="n" d="M998.712,658.595,948.9,629.831V519.5l49.812,28.764Z" transform="translate(-948.9 -490.789)"/></g><g class="b" transform="translate(105.436 83.283)"><path class="o" d="M590.16,305.693l30.56-17.647L590.16,270.4,559.6,288.047Z" transform="translate(-559.6 -270.4)"/><path class="p" d="M654.5,410.5l30.56-17.647V325.2L654.5,342.847Z" transform="translate(-623.94 -307.553)"/><path class="q" d="M590.16,410.5,559.6,392.857V325.2l30.56,17.647Z" transform="translate(-559.6 -307.553)"/></g><g class="b" transform="translate(355.374 35.276)"><path class="f" d="M800.036,480.918l47.336-27.334L800.036,426.3,752.7,453.584Z" transform="translate(-752.7 -426.3)"/><path class="u" d="M847.6,573.278l47.336-27.334V481L847.6,508.334Z" transform="translate(-800.264 -453.716)"/><path class="v" d="M800.036,573.278,752.7,545.943V481l47.336,27.334Z" transform="translate(-752.7 -453.716)"/></g><g class="b" transform="translate(0 170.132)"><path class="w" d="M422.286,822.927,484.372,787.1l-62.086-35.9L360.2,787.1Z" transform="translate(-360.2 -751.2)"/><path class="x" d="M446.5,908.654l62.086-35.9V801.1L446.5,836.927Z" transform="translate(-384.414 -765.201)"/><path class="y" d="M422.286,908.654l-62.086-35.9V801.1l62.086,35.827Z" transform="translate(-360.2 -765.201)"/></g><g class="b" transform="translate(526.431 185.989)"><path class="z" d="M1159.658,781.026l62.086-35.827-62.086-35.9L1097.5,745.2Z" transform="translate(-1097.5 -709.3)"/><path class="aa" d="M1183.9,866.754l62.086-35.9V759.2L1183.9,795.027Z" transform="translate(-1121.742 -723.301)"/><path class="ab" d="M1159.658,866.754l-62.158-35.9V759.2l62.158,35.827Z" transform="translate(-1097.5 -723.301)"/></g></g><g class="b" transform="translate(51.219 767.557)"><path class="r" d="M169.665,475.925l53.965-31.162L169.665,413.6,115.7,444.762Z" transform="translate(-115.7 -413.6)"/><path class="s" d="M210.6,619.094l53.965-31.162V468.4L210.6,499.562Z" transform="translate(-156.635 -437.238)"/><path class="t" d="M169.665,619.094,115.7,587.931V468.4l53.965,31.162Z" transform="translate(-115.7 -437.238)"/></g></g></g></svg>