<svg xmlns="http://www.w3.org/2000/svg" xmlns:xlink="http://www.w3.org/1999/xlink" viewBox="0 0 1366 724.583"><defs><style>.a{fill:url(#a);}.b{opacity:0.32;}.c{fill:url(#b);}.d{fill:url(#c);}.e{fill:url(#d);}.f{fill:url(#e);}.g{fill:url(#f);}.h{fill:url(#g);}.i{fill:url(#h);}.j{fill:url(#i);}.k{fill:url(#j);}.l{fill:url(#k);}.m{fill:url(#l);}.n{fill:url(#m);}.o{fill:url(#n);}.p{fill:url(#o);}.q{fill:url(#p);}.r{fill:url(#q);}.s{fill:url(#r);}.t{fill:url(#s);}.u{fill:url(#t);}.v{fill:url(#u);}.w{fill:url(#v);}.x{fill:url(#x);}.y{fill:url(#y);}.z{fill:url(#z);}.aa{fill:url(#aa);}.ab{fill:url(#ab);}.ac{fill:url(#ba);}.ad{fill:url(#bb);}.ae{fill:url(#bc);}.af{fill:url(#bd);}.ag{fill:url(#be);}.ah{fill:url(#bf);}.ai{fill:#fff;}.aj{fill:#00b4d4;}.ak{fill:url(#bg);}.al{fill:url(#bh);}.am{fill:url(#bi);}.an{fill:url(#bj);}.ao{fill:url(#bk);}.ap{fill:url(#bl);}.aq{fill:url(#bm);}.ar{fill:url(#bn);}.as{fill:url(#bo);}.at{fill:url(#bp);}.au{fill:url(#bq);}.av{fill:url(#br);}.aw{fill:url(#bs);}.ax{fill:url(#bt);}.ay{fill:url(#bu);}.az{fill:url(#bv);}.ba{fill:url(#bw);}.bb{fill:url(#bx);}.bc{fill:url(#by);}.bd{fill:url(#bz);}.be{fill:url(#ca);}.bf{fill:url(#cb);}.bg{fill:url(#cc);}.bh{fill:url(#cd);}.bi{fill:url(#ce);}.bj{fill:url(#cf);}.bk{fill:url(#cg);}.bl{fill:url(#ch);}.bm{fill:url(#ci);}.bn{fill:url(#cj);}.bo{opacity:0.585;fill:url(#ck);}.bp{opacity:0.799;}.bq{fill:#00ade5;opacity:0;}.br{fill:#00b2e6;opacity:0.091;}.bs{fill:#00b7e8;opacity:0.182;}.bt{fill:#2bbeea;opacity:0.273;}.bu{fill:#56c4ec;opacity:0.364;}.bv{fill:#73cbee;opacity:0.454;}.bw{fill:#8cd2f1;opacity:0.545;}.bx{fill:#a4daf3;opacity:0.636;}.by{fill:#bae2f6;opacity:0.727;}.bz{fill:#d0ebf9;opacity:0.818;}.ca{fill:#e6f4fc;opacity:0.909;}.cb{fill:url(#cn);}.cc{fill:url(#cv);}.cd{fill:url(#cw);}.ce{fill:url(#cx);}.cf{fill:#00bad5;}.cg{fill:url(#db);}.ch{fill:url(#dc);}.ci{fill:url(#dd);}.cj{fill:url(#dh);}.ck{fill:url(#di);}.cl{fill:url(#dj);}.cm{fill:url(#dk);}.cn{fill:url(#dl);}.co{fill:url(#dm);}.cp{fill:url(#dn);}.cq{fill:url(#dr);}.cr{fill:url(#ds);}.cs{fill:url(#dt);}.ct{fill:url(#du);}.cu{fill:url(#dv);}.cv{fill:url(#dw);}.cw{fill:url(#ea);}.cx{fill:url(#eb);}.cy{fill:url(#ec);}.cz{fill:url(#ej);}.da{fill:url(#ek);}.db{fill:url(#el);}.dc{fill:url(#ep);}.dd{fill:url(#eq);}.de{fill:url(#er);}.df{fill:url(#es);}.dg{fill:url(#et);}.dh{fill:url(#eu);}.di{fill:url(#ev);}.dj{fill:url(#ew);}.dk{fill:url(#ex);}.dl{fill:url(#fb);}.dm{fill:url(#fc);}.dn{fill:url(#fd);}.do{fill:url(#fe);}.dp{fill:url(#ff);}.dq{fill:url(#fg);}.dr{fill:url(#fh);}.ds{fill:url(#fi);}.dt{fill:url(#fj);}.du{fill:url(#fk);}.dv{fill:url(#fl);}.dw{fill:url(#fm);}.dx{fill:url(#fn);}.dy{fill:url(#fo);}.dz{fill:url(#fp);}.ea{fill:url(#ja);}.eb{fill:#0090d2;}.ec{fill:url(#jb);}.ed{fill:url(#jc);}.ee{fill:url(#jd);}.ef{fill:url(#je);}.eg{fill:url(#jf);}.eh{fill:url(#jg);}.ei{fill:url(#jh);}</style><linearGradient id="a" x1="0.5" x2="0.5" y2="1" gradientUnits="objectBoundingBox"><stop offset="0" stop-color="#e793ff"/><stop offset="0.433" stop-color="#7b3df5"/><stop offset="0.7" stop-color="#4a7cee"/><stop offset="1" stop-color="#3d56cd"/></linearGradient><linearGradient id="b" x1="0.342" y1="-0.459" x2="0.869" y2="2.75" gradientUnits="objectBoundingBox"><stop offset="0" stop-color="#0068e6"/><stop offset="1" stop-color="#00d7fe"/></linearGradient><linearGradient id="c" x1="0.03" y1="0.219" x2="1.618" y2="1.172" gradientUnits="objectBoundingBox"><stop offset="0" stop-color="#0068e6"/><stop offset="1" stop-color="#00c6fd"/></linearGradient><linearGradient id="d" x1="1.176" y1="-0.029" x2="-0.129" y2="0.992" gradientUnits="objectBoundingBox"><stop offset="0" stop-color="#009def"/><stop offset="0.043" stop-color="#0093eb"/><stop offset="0.28" stop-color="#005fd8"/><stop offset="0.502" stop-color="#0036ca"/><stop offset="0.703" stop-color="#0018bf"/><stop offset="0.876" stop-color="#0006b8"/><stop offset="1" stop-color="#0000b6"/></linearGradient><linearGradient id="e" x1="0.343" y1="-0.458" x2="0.869" y2="2.75" xlink:href="#b"/><linearGradient id="f" x1="-0.293" y1="0.205" x2="2.389" y2="1.203" xlink:href="#c"/><linearGradient id="g" x1="1.721" y1="-0.093" x2="-0.634" y2="1.05" xlink:href="#d"/><linearGradient id="h" x1="0.343" y1="-0.457" x2="0.869" y2="2.748" xlink:href="#b"/><linearGradient id="i" x1="-0.744" y1="0.197" x2="3.465" y2="1.221" xlink:href="#c"/><linearGradient id="j" x1="2.483" y1="-0.129" x2="-1.34" y2="1.083" xlink:href="#d"/><linearGradient id="k" x1="0.343" y1="-0.458" x2="0.869" y2="2.748" xlink:href="#b"/><linearGradient id="l" x1="-0.744" y1="0.197" x2="3.465" y2="1.222" xlink:href="#c"/><linearGradient id="m" x1="2.483" y1="-0.129" x2="-1.34" y2="1.084" xlink:href="#d"/><linearGradient id="n" x1="0.343" y1="-0.458" x2="0.869" y2="2.75" xlink:href="#b"/><linearGradient id="o" x1="-0.293" y1="0.205" x2="2.389" y2="1.203" xlink:href="#c"/><linearGradient id="p" x1="1.721" y1="-0.093" x2="-0.634" y2="1.05" xlink:href="#d"/><linearGradient id="q" x1="0.343" y1="-0.458" x2="0.869" y2="2.748" xlink:href="#b"/><linearGradient id="r" x1="-0.292" y1="0.205" x2="2.389" y2="1.204" xlink:href="#c"/><linearGradient id="s" x1="1.722" y1="-0.093" x2="-0.633" y2="1.05" xlink:href="#d"/><linearGradient id="t" x1="0.343" y1="-0.457" x2="0.869" y2="2.749" xlink:href="#b"/><linearGradient id="u" x1="-0.293" y1="0.205" x2="2.389" y2="1.203" xlink:href="#c"/><linearGradient id="v" x1="1.721" y1="-0.093" x2="-0.634" y2="1.05" xlink:href="#d"/><linearGradient id="x" x1="-0.036" y1="0.214" x2="1.776" y2="1.181" xlink:href="#c"/><linearGradient id="y" x1="1.288" y1="-0.047" x2="-0.231" y2="1.008" xlink:href="#d"/><linearGradient id="z" x1="0.343" y1="-0.457" x2="0.869" y2="2.748" xlink:href="#b"/><linearGradient id="aa" x1="0.031" y1="0.218" x2="1.619" y2="1.171" xlink:href="#c"/><linearGradient id="ab" x1="1.177" y1="-0.029" x2="-0.128" y2="0.991" xlink:href="#d"/><linearGradient id="ba" x1="0.343" y1="-0.457" x2="0.869" y2="2.748" xlink:href="#b"/><linearGradient id="bb" x1="0.03" y1="0.218" x2="1.619" y2="1.171" xlink:href="#c"/><linearGradient id="bc" x1="1.176" y1="-0.029" x2="-0.127" y2="0.991" xlink:href="#d"/><linearGradient id="bd" x1="-0.143" y1="0.187" x2="1.284" y2="0.881" gradientUnits="objectBoundingBox"><stop offset="0" stop-color="#005fb4"/><stop offset="1" stop-color="#0093ff"/></linearGradient><linearGradient id="be" x1="0.586" y1="0.061" x2="0.532" y2="0.881" xlink:href="#bd"/><linearGradient id="bf" x1="-0.446" y1="-0.644" x2="1.29" y2="1.454" gradientUnits="objectBoundingBox"><stop offset="0" stop-color="#0069c7"/><stop offset="1" stop-color="#1593ff"/></linearGradient><linearGradient id="bg" x1="-1.095" y1="0.193" x2="4.286" y2="1.228" gradientUnits="objectBoundingBox"><stop offset="0" stop-color="#0099da"/><stop offset="1" stop-color="#00b6df"/></linearGradient><linearGradient id="bh" x1="6.924" y1="-0.214" x2="-4.939" y2="1.147" gradientUnits="objectBoundingBox"><stop offset="0" stop-color="#0099da"/><stop offset="0.125" stop-color="#0089cd"/><stop offset="0.342" stop-color="#006fb9"/><stop offset="0.545" stop-color="#085cab"/><stop offset="0.728" stop-color="#224da1"/><stop offset="0.886" stop-color="#2a429b"/><stop offset="1" stop-color="#2d3f99"/></linearGradient><linearGradient id="bi" x1="0.355" y1="1.284" x2="0.995" y2="-2.931" gradientUnits="objectBoundingBox"><stop offset="0" stop-color="#196bb5"/><stop offset="1" stop-color="#00b6df"/></linearGradient><linearGradient id="bj" x1="-1.095" y1="0.193" x2="4.286" y2="1.228" xlink:href="#bg"/><linearGradient id="bk" x1="6.924" y1="-0.214" x2="-4.939" y2="1.148" xlink:href="#bh"/><linearGradient id="bl" x1="0.355" y1="1.285" x2="0.995" y2="-2.929" xlink:href="#bi"/><linearGradient id="bm" x1="-0.616" y1="0.198" x2="3.156" y2="1.218" xlink:href="#bg"/><linearGradient id="bn" x1="7.107" y1="-0.214" x2="-5.095" y2="1.147" xlink:href="#bh"/><linearGradient id="bo" x1="0.373" y1="1.315" x2="0.979" y2="-3.11" xlink:href="#bi"/><linearGradient id="bp" x1="-0.607" y1="0.198" x2="3.137" y2="1.218" xlink:href="#bg"/><linearGradient id="bq" x1="7.096" y1="-0.214" x2="-5.106" y2="1.148" xlink:href="#bh"/><linearGradient id="br" x1="0.375" y1="1.315" x2="0.976" y2="-3.11" xlink:href="#bi"/><linearGradient id="bs" x1="-1.094" y1="0.193" x2="4.287" y2="1.228" xlink:href="#bg"/><linearGradient id="bt" x1="7.096" y1="-0.214" x2="-5.106" y2="1.148" xlink:href="#bh"/><linearGradient id="bu" x1="0.356" y1="1.285" x2="0.996" y2="-2.929" xlink:href="#bi"/><linearGradient id="bv" x1="-0.615" y1="0.198" x2="3.157" y2="1.218" xlink:href="#bg"/><linearGradient id="bw" x1="7.11" y1="-0.214" x2="-5.092" y2="1.148" xlink:href="#bh"/><linearGradient id="bx" x1="0.374" y1="1.316" x2="0.98" y2="-3.109" xlink:href="#bi"/><linearGradient id="by" x1="27.312" y1="0.189" x2="32.693" y2="1.224" gradientUnits="objectBoundingBox"><stop offset="0" stop-color="#2f5ba9"/><stop offset="1" stop-color="#0099da"/></linearGradient><linearGradient id="bz" x1="80.031" y1="-0.219" x2="67.829" y2="1.143" gradientUnits="objectBoundingBox"><stop offset="0" stop-color="#196bb5"/><stop offset="1" stop-color="#00b5e9"/></linearGradient><linearGradient id="ca" x1="28.762" y1="1.257" x2="29.402" y2="-2.958" xlink:href="#bi"/><linearGradient id="cb" x1="27.312" y1="0.189" x2="32.693" y2="1.224" xlink:href="#by"/><linearGradient id="cc" x1="80.031" y1="-0.218" x2="67.829" y2="1.143" xlink:href="#bz"/><linearGradient id="cd" x1="28.762" y1="1.262" x2="29.402" y2="-3.012" xlink:href="#bi"/><linearGradient id="ce" x1="16.013" y1="0.194" x2="19.786" y2="1.214" xlink:href="#by"/><linearGradient id="cf" x1="71.588" y1="-0.219" x2="59.386" y2="1.143" xlink:href="#bz"/><linearGradient id="cg" x1="17.003" y1="1.295" x2="17.609" y2="-3.131" xlink:href="#bi"/><linearGradient id="ch" x1="4.445" y1="0.195" x2="8.217" y2="1.215" xlink:href="#by"/><linearGradient id="ci" x1="28.619" y1="-0.218" x2="16.417" y2="1.143" xlink:href="#bz"/><linearGradient id="cj" x1="5.434" y1="1.3" x2="6.04" y2="-3.172" xlink:href="#bi"/><linearGradient id="ck" x1="0.5" x2="0.5" y2="1" gradientUnits="objectBoundingBox"><stop offset="0" stop-color="#fff" stop-opacity="0"/><stop offset="1" stop-color="#fff"/></linearGradient><linearGradient id="cn" x1="0.5" y1="0" x2="0.5" y2="1" xlink:href="#bd"/><linearGradient id="cv" x1="-1.095" y1="0.194" x2="4.286" y2="1.228" xlink:href="#bg"/><linearGradient id="cw" x1="6.924" y1="-0.213" x2="-4.939" y2="1.148" xlink:href="#bh"/><linearGradient id="cx" x1="0.355" y1="1.292" x2="0.995" y2="-2.982" xlink:href="#bi"/><linearGradient id="db" x1="-1.088" y1="0.194" x2="4.293" y2="1.228" xlink:href="#bg"/><linearGradient id="dc" x1="7.11" y1="-0.213" x2="-5.092" y2="1.148" xlink:href="#bh"/><linearGradient id="dd" x1="0.362" y1="1.292" x2="1.001" y2="-2.982" xlink:href="#bi"/><linearGradient id="dh" x1="0.375" y1="1.321" x2="0.976" y2="-3.151" xlink:href="#bi"/><linearGradient id="di" x1="-0.607" y1="0.199" x2="3.137" y2="1.219" xlink:href="#bg"/><linearGradient id="dj" x1="7.096" y1="-0.213" x2="-5.106" y2="1.148" xlink:href="#bh"/><linearGradient id="dk" x1="0.375" y1="1.322" x2="0.976" y2="-3.15" xlink:href="#bi"/><linearGradient id="dl" x1="-0.616" y1="0.199" x2="3.156" y2="1.216" xlink:href="#bg"/><linearGradient id="dm" x1="7.107" y1="-0.213" x2="-5.095" y2="1.148" xlink:href="#bh"/><linearGradient id="dn" x1="0.373" y1="1.309" x2="0.979" y2="-3.116" xlink:href="#bi"/><linearGradient id="dr" x1="-1.094" y1="0.194" x2="4.287" y2="1.228" xlink:href="#bg"/><linearGradient id="ds" x1="7.096" y1="-0.214" x2="-5.106" y2="1.148" xlink:href="#bh"/><linearGradient id="dt" x1="0.356" y1="1.291" x2="0.996" y2="-2.983" xlink:href="#bi"/><linearGradient id="du" x1="-1.094" y1="0.194" x2="4.287" y2="1.229" xlink:href="#bg"/><linearGradient id="dv" x1="7.096" y1="-0.213" x2="-5.106" y2="1.148" xlink:href="#bh"/><linearGradient id="dw" x1="0.356" y1="1.294" x2="0.996" y2="-2.98" xlink:href="#bi"/><linearGradient id="ea" x1="-0.615" y1="0.199" x2="3.157" y2="1.219" xlink:href="#bg"/><linearGradient id="eb" x1="7.11" y1="-0.213" x2="-5.092" y2="1.148" xlink:href="#bh"/><linearGradient id="ec" x1="0.374" y1="1.321" x2="0.98" y2="-3.15" xlink:href="#bi"/><linearGradient id="ej" x1="27.312" y1="0.19" x2="32.694" y2="1.224" xlink:href="#by"/><linearGradient id="ek" x1="77.809" y1="-0.218" x2="65.946" y2="1.144" xlink:href="#bz"/><linearGradient id="el" x1="28.763" y1="1.265" x2="29.402" y2="-3.009" xlink:href="#bi"/><linearGradient id="ep" x1="16.014" y1="0.195" x2="19.786" y2="1.213" xlink:href="#by"/><linearGradient id="eq" x1="71.589" y1="-0.217" x2="59.387" y2="1.144" xlink:href="#bz"/><linearGradient id="er" x1="17.003" y1="1.289" x2="17.609" y2="-3.136" xlink:href="#bi"/><linearGradient id="es" x1="10.222" y1="0.19" x2="15.604" y2="1.224" xlink:href="#by"/><linearGradient id="et" x1="37.062" y1="-0.218" x2="24.861" y2="1.144" xlink:href="#bz"/><linearGradient id="eu" x1="11.673" y1="1.265" x2="12.312" y2="-3.009" xlink:href="#bi"/><linearGradient id="ev" x1="10.222" y1="0.19" x2="15.604" y2="1.225" xlink:href="#by"/><linearGradient id="ew" x1="36.033" y1="-0.217" x2="24.171" y2="1.144" xlink:href="#bz"/><linearGradient id="ex" x1="11.673" y1="1.268" x2="12.312" y2="-3.006" xlink:href="#bi"/><linearGradient id="fb" x1="4.445" y1="0.195" x2="8.217" y2="1.215" xlink:href="#by"/><linearGradient id="fc" x1="28.62" y1="-0.218" x2="16.418" y2="1.144" xlink:href="#bz"/><linearGradient id="fd" x1="5.435" y1="1.302" x2="6.04" y2="-3.169" xlink:href="#bi"/><linearGradient id="fe" x1="4.445" y1="0.195" x2="8.218" y2="1.213" xlink:href="#by"/><linearGradient id="ff" x1="28.62" y1="-0.217" x2="16.418" y2="1.144" xlink:href="#bz"/><linearGradient id="fg" x1="5.435" y1="1.291" x2="6.041" y2="-3.134" xlink:href="#bi"/><linearGradient id="fh" x1="18.683" y1="0.19" x2="24.064" y2="1.224" xlink:href="#by"/><linearGradient id="fi" x1="58.334" y1="-0.218" x2="46.132" y2="1.143" xlink:href="#bz"/><linearGradient id="fj" x1="20.133" y1="1.264" x2="20.772" y2="-3.01" xlink:href="#bi"/><linearGradient id="fk" x1="10.102" y1="0.195" x2="13.846" y2="1.215" xlink:href="#by"/><linearGradient id="fl" x1="49.92" y1="-0.218" x2="37.718" y2="1.144" xlink:href="#bz"/><linearGradient id="fm" x1="11.084" y1="1.301" x2="11.685" y2="-3.171" xlink:href="#bi"/><linearGradient id="fn" x1="10.102" y1="0.195" x2="13.846" y2="1.213" xlink:href="#by"/><linearGradient id="fo" x1="49.921" y1="-0.217" x2="37.719" y2="1.144" xlink:href="#bz"/><linearGradient id="fp" x1="11.084" y1="1.289" x2="11.685" y2="-3.136" xlink:href="#bi"/><linearGradient id="ja" x1="0.5" y1="1" x2="0.5" gradientUnits="objectBoundingBox"><stop offset="0" stop-color="#d9d9d9"/><stop offset="1" stop-color="#f4f4f4"/></linearGradient><linearGradient id="jb" x1="0.09" y1="0.812" x2="1.273" y2="0.19" gradientUnits="objectBoundingBox"><stop offset="0" stop-color="#0153e2"/><stop offset="0.392" stop-color="#18adf4"/><stop offset="1" stop-color="#1fcbfa"/></linearGradient><linearGradient id="jc" x1="0.38" y1="1.383" x2="0.746" y2="-0.536" gradientUnits="objectBoundingBox"><stop offset="0" stop-color="#0153e2"/><stop offset="0.364" stop-color="#0d84ec"/><stop offset="0.852" stop-color="#18adf4"/><stop offset="1" stop-color="#1fcbfa"/></linearGradient><linearGradient id="jd" x1="0.445" y1="0.922" x2="0.903" y2="-0.784" xlink:href="#jc"/><linearGradient id="je" x1="0.285" y1="2.084" x2="0.647" y2="-0.242" xlink:href="#jc"/><linearGradient id="jf" x1="0.459" y1="0.707" x2="1.234" y2="-1.246" xlink:href="#jc"/><linearGradient id="jg" x1="0.01" y1="3.923" x2="0.555" y2="0.197" xlink:href="#jc"/><linearGradient id="jh" x1="0.5" y1="0.53" x2="2.979" y2="-2.383" xlink:href="#jc"/></defs><g transform="translate(0 -100)"><rect class="a" width="1366" height="721.327" transform="translate(0 100)"/><g transform="translate(332.066 -138.257)"><g transform="translate(419.579 514.309)"><g class="b" transform="translate(0 260.216)"><path class="c" d="M69.415,588.872l21.115-12.213L69.415,564.5,48.3,576.659Z" transform="translate(-48.3 -564.5)"/><path class="d" d="M87.2,623.484l21.115-12.159V586.9L87.2,599.113Z" transform="translate(-66.085 -574.741)"/><path class="e" d="M69.415,623.484,48.3,611.326V586.9l21.115,12.213Z" transform="translate(-48.3 -574.741)"/></g><g class="b" transform="translate(184.225 187.373)"><path class="f" d="M439.211,489.736l51.511-29.745L439.211,430.3,387.7,459.991Z" transform="translate(-387.7 -430.3)"/><path class="g" d="M482.6,628.841,534.111,599.1V485L482.6,514.745Z" transform="translate(-431.089 -455.309)"/><path class="h" d="M439.211,628.841,387.7,599.1V485l51.511,29.745Z" transform="translate(-387.7 -455.309)"/></g><g class="b" transform="translate(124.315 154.761)"><path class="i" d="M304.992,123.433l33.192-19.166L304.992,85.1,271.8,104.266Z" transform="translate(-271.8 -85.1)"/><path class="j" d="M366.7,281.225l33.192-19.167V139.4L366.7,158.566Z" transform="translate(-333.508 -120.408)"/><path class="k" d="M304.992,281.225,271.8,262.059V139.4l33.192,19.167Z" transform="translate(-271.8 -120.408)"/></g><g class="b" transform="translate(330.852 235.439)"><path class="l" d="M909.233,242.056l39.533-22.828L909.233,196.4,869.7,219.228Z" transform="translate(-869.7 -196.4)"/><path class="m" d="M964.6,419.578l39.533-22.828V250.7L964.6,273.528Z" transform="translate(-925.067 -228.08)"/><path class="n" d="M909.233,419.578,869.7,396.75V250.7l39.533,22.828Z" transform="translate(-869.7 -228.08)"/></g><g class="b" transform="translate(496.842 265.099)"><path class="o" d="M1000.411,524.236l51.511-29.745L1000.411,464.8,948.9,494.491Z" transform="translate(-948.9 -464.8)"/><path class="p" d="M1043.8,663.341l51.511-29.745V519.5L1043.8,549.245Z" transform="translate(-992.289 -489.809)"/><path class="q" d="M1000.411,663.341,948.9,633.6V519.5l51.511,29.745Z" transform="translate(-948.9 -489.809)"/></g><g class="b" transform="translate(277.531 117.439)"><path class="r" d="M606.107,324.111l46.507-26.855L606.107,270.4,559.6,297.255Z" transform="translate(-559.6 -270.4)"/><path class="s" d="M654.5,455.018l46.507-26.855V325.2L654.5,352.055Z" transform="translate(-607.993 -298.345)"/><path class="t" d="M606.107,455.018,559.6,428.162V325.2l46.507,26.855Z" transform="translate(-559.6 -298.345)"/></g><g class="b" transform="translate(49.584 206.099)"><path class="u" d="M158.964,463.566l43.264-24.983L158.964,413.6,115.7,438.583Z" transform="translate(-115.7 -413.6)"/><path class="v" d="M210.6,589.212l43.264-24.983V468.4L210.6,493.383Z" transform="translate(-167.336 -443.417)"/><path class="w" d="M158.964,589.212,115.7,564.229V468.4l43.264,24.983Z" transform="translate(-115.7 -443.417)"/></g><g class="b" transform="translate(382.345 185.202)"><path class="f" d="M804.211,485.736l51.511-29.745L804.211,426.3,752.7,455.991Z" transform="translate(-752.7 -426.3)"/><path class="x" d="M847.6,581.417l51.511-29.745V481L847.6,510.745Z" transform="translate(-796.089 -451.309)"/><path class="y" d="M804.211,581.417,752.7,551.672V481l51.511,29.745Z" transform="translate(-752.7 -451.309)"/></g><g class="b" transform="translate(224.298 330.556)"><path class="z" d="M407.043,805.317l46.843-27.031L407.043,751.2,360.2,778.285Z" transform="translate(-360.2 -751.2)"/><path class="aa" d="M446.5,882.248l46.843-27.086V801.1L446.5,828.131Z" transform="translate(-399.657 -774.014)"/><path class="ab" d="M407.043,882.248,360.2,855.162V801.1l46.843,27.031Z" transform="translate(-360.2 -774.014)"/></g></g><g transform="translate(-76.487 803.744)"><g class="b" transform="translate(603.56 -104)"><path class="l" d="M921.211,255.89l51.511-29.745L921.211,196.4,869.7,226.145Z" transform="translate(-869.7 -196.4)"/><path class="m" d="M964.6,470.749,1016.111,441V250.7L964.6,280.445Z" transform="translate(-913.089 -221.226)"/><path class="n" d="M921.211,470.749,869.7,441V250.7l51.511,29.745Z" transform="translate(-869.7 -221.226)"/></g></g><g transform="translate(-520 367.011)"><g class="b" transform="translate(332.557 346.284)"><path class="f" d="M455.973,509.077l68.273-39.424L455.973,430.3,387.7,469.652Z" transform="translate(-387.7 -430.3)"/><path class="g" d="M482.6,675.647l68.273-39.424V485L482.6,524.424Z" transform="translate(-414.327 -445.647)"/><path class="h" d="M455.973,675.647,387.7,636.223V485l68.273,39.424Z" transform="translate(-387.7 -445.647)"/></g><g class="b" transform="translate(196.797 287.114)"><path class="i" d="M324.57,146.044l52.77-30.472L324.57,85.1,271.8,115.572Z" transform="translate(-271.8 -85.1)"/><path class="j" d="M366.7,364.883l52.77-30.472V139.4L366.7,169.872Z" transform="translate(-313.93 -109.206)"/><path class="k" d="M324.57,364.883,271.8,334.411V139.4l52.77,30.472Z" transform="translate(-271.8 -109.206)"/></g><g class="b" transform="translate(662.633 288.076)"><path class="l" d="M909.071,241.87l39.371-22.735L909.071,196.4,869.7,219.135Z" transform="translate(-869.7 -196.4)"/><path class="m" d="M964.6,418.888l39.371-22.735V250.7L964.6,273.435Z" transform="translate(-925.229 -228.173)"/><path class="n" d="M909.071,418.888,869.7,396.153V250.7l39.371,22.735Z" transform="translate(-869.7 -228.173)"/></g><g class="b" transform="translate(796.836 311.359)"><path class="o" d="M998.712,522.275l49.812-28.764L998.712,464.8,948.9,493.511Z" transform="translate(-948.9 -464.8)"/><path class="p" d="M1043.8,658.595l49.812-28.764V519.5L1043.8,548.264Z" transform="translate(-993.988 -490.789)"/><path class="q" d="M998.712,658.595,948.9,629.831V519.5l49.812,28.764Z" transform="translate(-948.9 -490.789)"/></g><g class="b" transform="translate(271.825 346.359)"><path class="r" d="M590.16,305.693l30.56-17.647L590.16,270.4,559.6,288.047Z" transform="translate(-559.6 -270.4)"/><path class="s" d="M654.5,410.5l30.56-17.647V325.2L654.5,342.847Z" transform="translate(-623.94 -307.553)"/><path class="t" d="M590.16,410.5,559.6,392.857V325.2l30.56,17.647Z" transform="translate(-559.6 -307.553)"/></g><g class="b" transform="translate(521.762 298.351)"><path class="f" d="M800.036,480.918l47.336-27.334L800.036,426.3,752.7,453.584Z" transform="translate(-752.7 -426.3)"/><path class="x" d="M847.6,573.278l47.336-27.334V481L847.6,508.334Z" transform="translate(-800.264 -453.716)"/><path class="y" d="M800.036,573.278,752.7,545.943V481l47.336,27.334Z" transform="translate(-752.7 -453.716)"/></g><g class="b" transform="translate(224.388 448.208)"><path class="z" d="M422.286,822.927,484.372,787.1l-62.086-35.9L360.2,787.1Z" transform="translate(-360.2 -751.2)"/><path class="aa" d="M446.5,908.654l62.086-35.9V801.1L446.5,836.927Z" transform="translate(-384.414 -765.201)"/><path class="ab" d="M422.286,908.654l-62.086-35.9V801.1l62.086,35.827Z" transform="translate(-360.2 -765.201)"/></g><g class="b" transform="translate(692.819 449.064)"><path class="ac" d="M1159.658,781.026l62.086-35.827-62.086-35.9L1097.5,745.2Z" transform="translate(-1097.5 -709.3)"/><path class="ad" d="M1183.9,866.754l62.086-35.9V759.2L1183.9,795.027Z" transform="translate(-1121.742 -723.301)"/><path class="ae" d="M1159.658,866.754l-62.158-35.9V759.2l62.158,35.827Z" transform="translate(-1097.5 -723.301)"/></g></g><g transform="translate(822.247 755.052)"><path class="af" d="M340.624,408.758V330.8L289,360.592v48.166Z" transform="translate(-203.319 -204.951)"/><g transform="translate(34.096 125.849)"><path class="ag" d="M207.085,409.039V360.592L155.5,330.8v78.239Z" transform="translate(-155.5 -330.8)"/></g><path class="ah" d="M155.5,283.492l51.585,29.792,51.624-29.792L207.085,253.7Z" transform="translate(-121.404 -157.643)"/><path class="ai" d="M398.5,356.766l3.4-1.971V338.373l-1.391-.773-2.009,1.159Z" transform="translate(-270.507 -209.123)"/><path class="aj" d="M405.091,354.8l-1.391-.773V337.6l1.391.773Z" transform="translate(-273.698 -209.123)"/><path class="aj" d="M398.5,382.843l3.4-1.971-1.391-.773-2.009,1.2Z" transform="translate(-270.507 -235.201)"/><path class="ak" d="M398.5,443.093l3.4-1.971V424.7l-3.4,1.932Z" transform="translate(-270.507 -262.567)"/><path class="al" d="M405.091,441.122l-1.391-.811V425.473l1.391-.773Z" transform="translate(-273.698 -262.567)"/><path class="am" d="M398.5,467.882l3.4-1.971-1.391-.811-2.009,1.2Z" transform="translate(-270.507 -287.356)"/><path class="an" d="M398.5,485.593l3.4-1.971V467.2l-3.4,1.971Z" transform="translate(-270.507 -288.645)"/><path class="ao" d="M405.091,483.622l-1.391-.811V467.973l1.391-.773Z" transform="translate(-273.698 -288.645)"/><path class="ap" d="M398.5,510.382l3.4-1.971-1.391-.811-2.009,1.2Z" transform="translate(-270.507 -313.434)"/><path class="aq" d="M379.5,410.02l5.023-2.9V390.7l-5.023,2.9Z" transform="translate(-258.849 -241.705)"/><path class="ar" d="M390.352,407.122,389,406.311V391.473l1.352-.773Z" transform="translate(-264.678 -241.705)"/><path class="as" d="M379.5,434.809l5.023-2.9-1.352-.811-3.671,2.125Z" transform="translate(-258.849 -266.494)"/><path class="ai" d="M379.5,495.02l5.023-2.9V475.7l-5.023,2.9Z" transform="translate(-258.849 -293.86)"/><path class="aj" d="M390.352,492.122,389,491.35V476.473l1.352-.773Z" transform="translate(-264.678 -293.86)"/><path class="aj" d="M379.5,519.871l5.023-2.9-1.352-.773-3.671,2.125Z" transform="translate(-258.849 -318.711)"/><path class="ai" d="M360.5,378.666l3.4-1.932V360.273l-1.352-.773-2.048,1.2Z" transform="translate(-247.191 -222.561)"/><path class="aj" d="M367.152,376.734l-1.352-.811V359.5l1.352.773Z" transform="translate(-250.443 -222.561)"/><path class="aj" d="M360.5,404.743l3.4-1.932L362.548,402l-2.048,1.2Z" transform="translate(-247.191 -248.639)"/><path class="ai" d="M360.5,464.993l3.4-1.971V446.6l-3.4,1.932Z" transform="translate(-247.191 -276.005)"/><path class="aj" d="M367.152,463.022l-1.352-.811V447.373l1.352-.773Z" transform="translate(-250.443 -276.005)"/><path class="aj" d="M360.5,489.782l3.4-1.971L362.548,487l-2.048,1.2Z" transform="translate(-247.191 -300.794)"/><path class="at" d="M341.5,431.92l5.062-2.9V412.6l-5.062,2.9Z" transform="translate(-235.533 -255.143)"/><path class="au" d="M352.452,429.022l-1.352-.811V413.373l1.352-.773Z" transform="translate(-241.423 -255.143)"/><path class="av" d="M341.5,456.71l5.062-2.9L345.21,453l-3.71,2.125Z" transform="translate(-235.533 -279.932)"/><path class="ai" d="M323.3,400.166l3.4-1.932V381.773L325.348,381l-2.048,1.2Z" transform="translate(-224.365 -235.753)"/><path class="aj" d="M329.952,398.234l-1.352-.811V381l1.352.773Z" transform="translate(-227.617 -235.753)"/><path class="aj" d="M323.3,426.243l3.4-1.932-1.352-.811-2.048,1.2Z" transform="translate(-224.365 -261.831)"/><path class="aw" d="M323.3,486.493l3.4-1.971V468.1l-3.4,1.971Z" transform="translate(-224.365 -289.197)"/><path class="ax" d="M329.952,484.522l-1.352-.811V468.873l1.352-.773Z" transform="translate(-227.617 -289.197)"/><path class="ay" d="M323.3,511.282l3.4-1.971-1.352-.811-2.048,1.2Z" transform="translate(-224.365 -313.986)"/><path class="az" d="M304.3,453.42l5.023-2.9V434.1L304.3,437Z" transform="translate(-212.707 -268.335)"/><path class="ba" d="M315.152,450.522l-1.352-.811V434.873l1.352-.773Z" transform="translate(-218.536 -268.335)"/><path class="bb" d="M304.3,478.21l5.023-2.9-1.352-.811-3.671,2.125Z" transform="translate(-212.707 -293.124)"/><path class="ai" d="M174.2,356.766l-3.4-1.932V338.373l1.352-.773,2.048,1.2Z" transform="translate(-130.792 -209.123)"/><path class="aj" d="M170.8,354.834l1.352-.811V337.6l-1.352.773Z" transform="translate(-130.792 -209.123)"/><path class="aj" d="M174.2,382.843l-3.4-1.932,1.352-.811,2.048,1.2Z" transform="translate(-130.792 -235.201)"/><path class="bc" d="M174.2,443.093l-3.4-1.971V424.7l3.4,1.932Z" transform="translate(-130.792 -262.567)"/><path class="bd" d="M170.8,441.122l1.352-.811V425.473L170.8,424.7Z" transform="translate(-130.792 -262.567)"/><path class="be" d="M174.2,467.882l-3.4-1.971,1.352-.811,2.048,1.2Z" transform="translate(-130.792 -287.356)"/><path class="bf" d="M174.2,485.593l-3.4-1.971V467.2l3.4,1.971Z" transform="translate(-130.792 -288.645)"/><path class="bg" d="M170.8,483.622l1.352-.773V467.973L170.8,467.2Z" transform="translate(-130.792 -288.645)"/><path class="bh" d="M174.2,510.443l-3.4-1.971,1.352-.773,2.048,1.159Z" transform="translate(-130.792 -313.495)"/><path class="bi" d="M190.623,410.02l-5.023-2.9V390.7l5.023,2.9Z" transform="translate(-139.873 -241.705)"/><path class="bj" d="M185.6,407.122l1.352-.811V391.473L185.6,390.7Z" transform="translate(-139.873 -241.705)"/><path class="bk" d="M190.623,434.809l-5.023-2.9,1.352-.811,3.671,2.125Z" transform="translate(-139.873 -266.494)"/><path class="ai" d="M190.623,495.02l-5.023-2.9V475.7l5.023,2.9Z" transform="translate(-139.873 -293.86)"/><path class="aj" d="M185.6,492.122l1.352-.773V476.473L185.6,475.7Z" transform="translate(-139.873 -293.86)"/><path class="aj" d="M190.623,519.871l-5.023-2.9,1.352-.773,3.671,2.125Z" transform="translate(-139.873 -318.711)"/><path class="ai" d="M249.4,400.2l-3.4-1.971V381.811l1.352-.811,2.048,1.2Z" transform="translate(-176.934 -235.753)"/><path class="aj" d="M246,398.234l1.352-.811V381l-1.352.811Z" transform="translate(-176.934 -235.753)"/><path class="aj" d="M249.4,426.282l-3.4-1.971,1.352-.811,2.048,1.2Z" transform="translate(-176.934 -261.831)"/><path class="ai" d="M249.4,486.493l-3.4-1.971V468.1l3.4,1.971Z" transform="translate(-176.934 -289.197)"/><path class="aj" d="M246,484.522l1.352-.773V468.873L246,468.1Z" transform="translate(-176.934 -289.197)"/><path class="aj" d="M249.4,511.344l-3.4-1.971,1.352-.773,2.048,1.159Z" transform="translate(-176.934 -314.048)"/><path class="bl" d="M265.823,453.42l-5.023-2.9V434.1l5.023,2.9Z" transform="translate(-186.016 -268.335)"/><path class="bm" d="M260.8,450.522l1.352-.773V434.873L260.8,434.1Z" transform="translate(-186.016 -268.335)"/><path class="bn" d="M265.823,478.271l-5.023-2.9,1.352-.773,3.671,2.125Z" transform="translate(-186.016 -293.186)"/><path class="ai" d="M2420.308,841.9l30.386,17.77,31.874-17.77-31.874-18.41Z" transform="translate(-2365.246 -717.969)"/><path class="bo" d="M2422.523,692.109l-30.372-17.7-17.538-124h102.559l-22.427,124Z" transform="translate(-2337.208 -550.41)"/></g><g transform="translate(-63.413 656.221)"><g class="bp" transform="translate(0 139.682)"><path class="bq" d="M105.139,567.555l39.882,23.017a30.923,30.923,0,0,0,30.92,0l39.882-23.017a15.366,15.366,0,0,0,0-26.621l-39.882-23.016a30.923,30.923,0,0,0-30.92,0l-39.882,23.016A15.366,15.366,0,0,0,105.139,567.555Z" transform="translate(-97.45 -513.775)"/><path class="br" d="M115.244,571.3l38.2,22.058a28.442,28.442,0,0,0,28.473,0l38.2-22.058a14.063,14.063,0,0,0,0-24.372l-38.2-22.058a28.441,28.441,0,0,0-28.473,0l-38.2,22.058A14.063,14.063,0,0,0,115.244,571.3Z" transform="translate(-104.645 -518.644)"/><path class="bs" d="M125.249,575.044l36.542,21.1a25.959,25.959,0,0,0,26.026,0l36.542-21.1a12.761,12.761,0,0,0,0-22.124l-36.542-21.1a25.96,25.96,0,0,0-26.026,0l-36.542,21.1A12.761,12.761,0,0,0,125.249,575.044Z" transform="translate(-111.773 -523.513)"/><path class="bt" d="M135.3,578.772l34.856,20.14a23.7,23.7,0,0,0,23.612,0l34.856-20.14a11.487,11.487,0,0,0,0-19.908l-34.856-20.14a23.7,23.7,0,0,0-23.612,0L135.3,558.864A11.512,11.512,0,0,0,135.3,578.772Z" transform="translate(-118.951 -528.366)"/><path class="bu" d="M145.351,582.584l33.169,19.18a21.217,21.217,0,0,0,21.165,0l33.2-19.147a10.2,10.2,0,0,0,0-17.659l-33.2-19.18a21.217,21.217,0,0,0-21.165,0l-33.2,19.147A10.2,10.2,0,0,0,145.351,582.584Z" transform="translate(-126.088 -533.302)"/><path class="bv" d="M155.415,586.329l31.516,18.188a18.735,18.735,0,0,0,18.717,0l31.515-18.188a8.906,8.906,0,0,0,0-15.41L205.648,552.73a18.735,18.735,0,0,0-18.717,0l-31.516,18.188A8.906,8.906,0,0,0,155.415,586.329Z" transform="translate(-133.274 -538.171)"/><path class="bw" d="M165.47,590.107,195.3,607.336a16.252,16.252,0,0,0,16.27,0L241.4,590.107a7.632,7.632,0,0,0,0-13.195l-29.829-17.229a16.252,16.252,0,0,0-16.27,0L165.47,576.912A7.608,7.608,0,0,0,165.47,590.107Z" transform="translate(-140.419 -543.04)"/><path class="bx" d="M175.525,593.852l28.175,16.27a13.832,13.832,0,0,0,13.856,0l28.175-16.27a6.33,6.33,0,0,0,0-10.946l-28.175-16.27a13.832,13.832,0,0,0-13.856,0l-28.175,16.27A6.33,6.33,0,0,0,175.525,593.852Z" transform="translate(-147.597 -547.909)"/><path class="by" d="M185.63,597.6l26.489,15.278a11.349,11.349,0,0,0,11.409,0l26.489-15.311a5.027,5.027,0,0,0,0-8.7l-26.489-15.278a11.35,11.35,0,0,0-11.409,0L185.63,588.9A5.027,5.027,0,0,0,185.63,597.6Z" transform="translate(-154.792 -552.779)"/><path class="bz" d="M195.643,601.391l24.835,14.319a9.028,9.028,0,0,0,8.962,0l24.8-14.319a3.753,3.753,0,0,0,0-6.482l-24.8-14.319a9.028,9.028,0,0,0-8.962,0l-24.8,14.319A3.741,3.741,0,0,0,195.643,601.391Z" transform="translate(-161.929 -557.698)"/><path class="ca" d="M205.74,605.136l23.149,13.36a6.546,6.546,0,0,0,6.515,0l23.149-13.36a2.451,2.451,0,0,0,0-4.233L235.4,587.543a6.545,6.545,0,0,0-6.515,0L205.74,600.9A2.451,2.451,0,0,0,205.74,605.136Z" transform="translate(-169.116 -562.567)"/><path class="ai" d="M215.745,608.881l21.462,12.4a4.125,4.125,0,0,0,4.1,0l21.462-12.4a1.148,1.148,0,0,0,0-1.984l-21.462-12.4a4.125,4.125,0,0,0-4.1,0l-21.462,12.4A1.148,1.148,0,0,0,215.745,608.881Z" transform="translate(-176.244 -567.436)"/></g><g transform="translate(25.19 70.968)"><path class="af" d="M293.368,428.092l7.936-4.568v12.133l2.684-1.542V421.955l7.936-4.568V429.52l2.912-1.684V415.7l7.936-4.568v12.133l4.368-2.541V330.8L289,352.811l.029,89.927,4.339-2.484Z" transform="translate(-250.888 -308.789)"/><g transform="translate(0 22.011)"><path class="ag" d="M159.868,411.135,167.8,415.7v12.162l2.912,1.656V417.387l18.556,10.734v12.133l4.368,2.484-.029-89.927L155.5,330.8v89.927l4.368,2.541Z" transform="translate(-155.5 -330.8)"/><path class="cb" d="M208.8,646.233l4.225-2.455v-7.223L208.8,634.1Z" transform="translate(-193.584 -547.513)"/></g><path class="ah" d="M155.5,275.711l38.112,22.011,38.14-22.011L193.612,253.7Z" transform="translate(-155.5 -253.7)"/><path class="ai" d="M398.5,351.76l2.512-1.456V338.171l-1.028-.571-1.484.857Z" transform="translate(-329.128 -313.648)"/><path class="aj" d="M404.728,350.3l-1.028-.571V337.6l1.028.571Z" transform="translate(-332.843 -313.648)"/><path class="aj" d="M398.5,382.127l2.512-1.456-1.028-.571-1.484.885Z" transform="translate(-329.128 -344.015)"/><path class="ak" d="M398.5,438.289l2.512-1.456V424.7l-2.512,1.427Z" transform="translate(-329.128 -375.883)"/><path class="al" d="M404.728,436.833l-1.028-.6V425.271l1.028-.571Z" transform="translate(-332.843 -375.883)"/><path class="am" d="M398.5,467.155l2.512-1.456-1.028-.6-1.484.885Z" transform="translate(-329.128 -404.749)"/><path class="an" d="M398.5,480.789l2.512-1.456V467.2l-2.512,1.456Z" transform="translate(-329.128 -406.249)"/><path class="ao" d="M404.728,479.333l-1.028-.6V467.771l1.028-.571Z" transform="translate(-332.843 -406.249)"/><path class="ap" d="M398.5,509.655l2.512-1.456-1.028-.6-1.484.885Z" transform="translate(-329.128 -435.116)"/><path class="cc" d="M398.5,565.789l2.512-1.456V552.2l-2.512,1.456Z" transform="translate(-329.128 -466.983)"/><path class="cd" d="M404.728,564.333l-1.028-.571V552.771l1.028-.571Z" transform="translate(-332.843 -466.983)"/><path class="ce" d="M398.5,594.727l2.512-1.456-1.028-.571-1.484.856Z" transform="translate(-329.128 -495.921)"/><path class="aq" d="M379.5,404.974l3.711-2.141V390.7l-3.711,2.141Z" transform="translate(-315.552 -351.589)"/><path class="ar" d="M390,402.833l-1-.6V391.271l1-.571Z" transform="translate(-322.34 -351.589)"/><path class="as" d="M379.5,433.841l3.711-2.141-1-.6-2.712,1.57Z" transform="translate(-315.552 -380.455)"/><path class="ai" d="M379.5,489.974l3.711-2.141V475.7l-3.711,2.141Z" transform="translate(-315.552 -412.323)"/><path class="aj" d="M390,487.833l-1-.571V476.271l1-.571Z" transform="translate(-322.34 -412.323)"/><path class="aj" d="M379.5,518.912l3.711-2.141-1-.571-2.712,1.57Z" transform="translate(-315.552 -441.261)"/><path class="cf" d="M396.654,624.333l-4.254-2.455v-7.223l4.254-2.455Z" transform="translate(-324.769 -509.854)"/><path class="ai" d="M360.5,373.66l2.512-1.427V360.071l-1-.571-1.513.885Z" transform="translate(-301.976 -329.296)"/><path class="aj" d="M366.8,372.233l-1-.6V359.5l1,.571Z" transform="translate(-305.763 -329.296)"/><path class="aj" d="M360.5,404.027l2.512-1.427-1-.6-1.513.885Z" transform="translate(-301.976 -359.663)"/><path class="ai" d="M360.5,460.189l2.512-1.456V446.6l-2.512,1.427Z" transform="translate(-301.976 -391.53)"/><path class="aj" d="M366.8,458.733l-1-.6V447.171l1-.571Z" transform="translate(-305.763 -391.53)"/><path class="aj" d="M360.5,489.055l2.512-1.456-1-.6-1.513.885Z" transform="translate(-301.976 -420.397)"/><path class="cg" d="M360.5,545.189l2.512-1.456V531.6l-2.512,1.456Z" transform="translate(-301.976 -452.264)"/><path class="ch" d="M366.8,543.733l-1-.571V532.171l1-.571Z" transform="translate(-305.763 -452.264)"/><path class="ci" d="M360.5,574.127l2.512-1.456-1-.571-1.513.856Z" transform="translate(-301.976 -481.202)"/><path class="ai" d="M360.5,587.689l2.512-1.456V574.1l-2.512,1.456Z" transform="translate(-301.976 -482.631)"/><path class="aj" d="M366.8,586.233l-1-.571V574.671l1-.571Z" transform="translate(-305.763 -482.631)"/><path class="aj" d="M360.5,616.627l2.512-1.456-1-.571-1.513.856Z" transform="translate(-301.976 -511.569)"/><path class="at" d="M341.5,426.874l3.74-2.141V412.6l-3.74,2.141Z" transform="translate(-288.4 -367.237)"/><path class="au" d="M352.1,424.733l-1-.6V413.171l1-.571Z" transform="translate(-295.26 -367.237)"/><path class="av" d="M341.5,455.741l3.74-2.141-1-.6-2.741,1.57Z" transform="translate(-288.4 -396.103)"/><path class="ai" d="M341.5,511.874l3.74-2.141V497.6l-3.74,2.141Z" transform="translate(-288.4 -427.971)"/><path class="aj" d="M352.1,509.733l-1-.571V498.171l1-.571Z" transform="translate(-295.26 -427.971)"/><path class="cj" d="M341.5,540.812l3.74-2.141-1-.571-2.741,1.57Z" transform="translate(-288.4 -456.909)"/><path class="ck" d="M341.5,554.374l3.74-2.141V540.1l-3.74,2.141Z" transform="translate(-288.4 -458.338)"/><path class="cl" d="M352.1,552.233l-1-.571V540.671l1-.571Z" transform="translate(-295.26 -458.338)"/><path class="cm" d="M341.5,583.312l3.74-2.141-1-.571-2.741,1.57Z" transform="translate(-288.4 -487.276)"/><path class="cn" d="M379.5,575l3.711-2.17V560.7l-3.711,2.141Z" transform="translate(-315.552 -473.057)"/><path class="co" d="M390,572.833l-1-.571V561.271l1-.571Z" transform="translate(-322.34 -473.057)"/><path class="cp" d="M379.5,603.941l3.711-2.17-1-.571-2.712,1.57Z" transform="translate(-315.552 -501.995)"/><path class="cf" d="M358.725,646.233l-4.225-2.455v-7.223l4.225-2.455Z" transform="translate(-297.689 -525.502)"/><path class="ai" d="M323.3,395.16l2.512-1.427V381.571l-1-.571-1.513.885Z" transform="translate(-275.396 -344.658)"/><path class="aj" d="M329.6,393.733l-1-.6V381l1,.571Z" transform="translate(-279.183 -344.658)"/><path class="aj" d="M323.3,425.527l2.512-1.427-1-.6-1.513.885Z" transform="translate(-275.396 -375.025)"/><path class="aw" d="M323.3,481.689l2.512-1.456V468.1l-2.512,1.456Z" transform="translate(-275.396 -406.893)"/><path class="ax" d="M329.6,480.233l-1-.6V468.671l1-.571Z" transform="translate(-279.183 -406.893)"/><path class="ay" d="M323.3,510.555l2.512-1.456-1-.6-1.513.885Z" transform="translate(-275.396 -435.759)"/><path class="cq" d="M323.3,524.189l2.512-1.456V510.6l-2.512,1.456Z" transform="translate(-275.396 -437.26)"/><path class="cr" d="M329.6,522.733l-1-.571V511.171l1-.571Z" transform="translate(-279.183 -437.26)"/><path class="cs" d="M323.3,553.127l2.512-1.456-1-.571-1.513.856Z" transform="translate(-275.396 -466.197)"/><path class="ct" d="M323.3,609.189l2.512-1.456V595.6l-2.512,1.456Z" transform="translate(-275.396 -497.993)"/><path class="cu" d="M329.6,607.733l-1-.571V596.171l1-.571Z" transform="translate(-279.183 -497.993)"/><path class="cv" d="M323.3,638.127l2.512-1.456-1-.571-1.513.856Z" transform="translate(-275.396 -526.931)"/><path class="az" d="M304.3,448.374l3.711-2.141V434.1l-3.711,2.141Z" transform="translate(-261.82 -382.599)"/><path class="ba" d="M314.8,446.233l-1-.6V434.671l1-.571Z" transform="translate(-268.608 -382.599)"/><path class="bb" d="M304.3,477.241l3.711-2.141-1-.6-2.712,1.57Z" transform="translate(-261.82 -411.465)"/><path class="cw" d="M304.3,533.374l3.711-2.141V519.1l-3.711,2.141Z" transform="translate(-261.82 -443.333)"/><path class="cx" d="M314.8,531.233l-1-.571V519.671l1-.571Z" transform="translate(-268.608 -443.333)"/><path class="cy" d="M304.3,562.312l3.711-2.141-1-.571-2.712,1.57Z" transform="translate(-261.82 -472.271)"/><path class="cf" d="M321.454,667.733l-4.254-2.455v-7.223l4.254-2.455Z" transform="translate(-271.037 -540.865)"/><path class="ai" d="M173.312,351.76l-2.512-1.427V338.171l1-.571,1.513.885Z" transform="translate(-166.432 -313.648)"/><path class="aj" d="M170.8,350.333l1-.6V337.6l-1,.571Z" transform="translate(-166.432 -313.648)"/><path class="aj" d="M173.312,382.127,170.8,380.7l1-.6,1.513.885Z" transform="translate(-166.432 -344.015)"/><path class="bc" d="M173.312,438.289l-2.512-1.456V424.7l2.512,1.427Z" transform="translate(-166.432 -375.883)"/><path class="bd" d="M170.8,436.833l1-.6V425.271l-1-.571Z" transform="translate(-166.432 -375.883)"/><path class="be" d="M173.312,467.155,170.8,465.7l1-.6,1.513.885Z" transform="translate(-166.432 -404.749)"/><path class="bf" d="M173.312,480.789l-2.512-1.456V467.2l2.512,1.456Z" transform="translate(-166.432 -406.249)"/><path class="bg" d="M170.8,479.333l1-.571V467.771l-1-.571Z" transform="translate(-166.432 -406.249)"/><path class="bh" d="M173.312,509.727l-2.512-1.456,1-.571,1.513.856Z" transform="translate(-166.432 -435.187)"/><path class="cz" d="M173.312,565.789l-2.512-1.456V552.2l2.512,1.456Z" transform="translate(-166.432 -466.983)"/><path class="da" d="M170.8,564.333l1.028-.571V552.771L170.8,552.2Z" transform="translate(-166.432 -466.983)"/><path class="db" d="M173.312,594.727l-2.512-1.456,1.028-.571,1.484.856Z" transform="translate(-166.432 -495.921)"/><path class="bi" d="M189.311,404.974l-3.711-2.141V390.7l3.711,2.141Z" transform="translate(-177.007 -351.589)"/><path class="bj" d="M185.6,402.833l1-.6V391.271l-1-.571Z" transform="translate(-177.007 -351.589)"/><path class="bk" d="M189.311,433.841,185.6,431.7l1-.6,2.712,1.57Z" transform="translate(-177.007 -380.455)"/><path class="ai" d="M189.311,489.974l-3.711-2.141V475.7l3.711,2.141Z" transform="translate(-177.007 -412.323)"/><path class="aj" d="M185.6,487.833l1-.571V476.271l-1-.571Z" transform="translate(-177.007 -412.323)"/><path class="aj" d="M189.311,518.912l-3.711-2.141,1-.571,2.712,1.57Z" transform="translate(-177.007 -441.261)"/><path class="cf" d="M170.8,624.333l4.254-2.455v-7.223L170.8,612.2Z" transform="translate(-166.432 -509.854)"/><path class="dc" d="M189.311,575l-3.711-2.17V560.7l3.711,2.141Z" transform="translate(-177.007 -473.057)"/><path class="dd" d="M185.6,572.833l1-.571V561.271l-1-.571Z" transform="translate(-177.007 -473.057)"/><path class="de" d="M189.311,603.941l-3.711-2.17,1-.571,2.712,1.57Z" transform="translate(-177.007 -501.995)"/><path class="ai" d="M248.512,395.188,246,393.733V381.6l1-.6,1.513.885Z" transform="translate(-220.164 -344.658)"/><path class="aj" d="M246,393.733l1-.6V381l-1,.6Z" transform="translate(-220.164 -344.658)"/><path class="aj" d="M248.512,425.555,246,424.1l1-.6,1.513.885Z" transform="translate(-220.164 -375.025)"/><path class="ai" d="M248.512,481.689,246,480.233V468.1l2.512,1.456Z" transform="translate(-220.164 -406.893)"/><path class="aj" d="M246,480.233l1-.571V468.671l-1-.571Z" transform="translate(-220.164 -406.893)"/><path class="aj" d="M248.512,510.627,246,509.171l1-.571,1.513.856Z" transform="translate(-220.164 -435.83)"/><path class="df" d="M248.512,524.189,246,522.733V510.6l2.512,1.456Z" transform="translate(-220.164 -437.26)"/><path class="dg" d="M246,522.733l1-.571V511.171l-1-.571Z" transform="translate(-220.164 -437.26)"/><path class="dh" d="M248.512,553.127,246,551.671l1-.571,1.513.856Z" transform="translate(-220.164 -466.197)"/><path class="di" d="M248.512,609.189,246,607.733V595.6l2.512,1.456Z" transform="translate(-220.164 -497.993)"/><path class="dj" d="M246,607.733l1.028-.571L247,596.171l-1-.571Z" transform="translate(-220.164 -497.993)"/><path class="dk" d="M248.512,638.127,246,636.671l1.028-.571,1.484.856Z" transform="translate(-220.164 -526.931)"/><path class="bl" d="M264.511,448.374l-3.711-2.141V434.1l3.711,2.141Z" transform="translate(-230.739 -382.599)"/><path class="bm" d="M260.8,446.233l1-.571V434.671l-1-.571Z" transform="translate(-230.739 -382.599)"/><path class="bn" d="M264.511,477.312l-3.711-2.141,1-.571,2.712,1.57Z" transform="translate(-230.739 -411.537)"/><path class="dl" d="M264.511,533.374l-3.711-2.141V519.1l3.711,2.141Z" transform="translate(-230.739 -443.333)"/><path class="dm" d="M260.8,531.233l1-.571V519.671l-1-.571Z" transform="translate(-230.739 -443.333)"/><path class="dn" d="M264.511,562.312l-3.711-2.141,1-.571,2.712,1.57Z" transform="translate(-230.739 -472.271)"/><path class="do" d="M264.511,618.4l-3.711-2.17V604.1l3.711,2.17Z" transform="translate(-230.739 -504.067)"/><path class="dp" d="M260.8,616.233l1-.571V604.7l-1-.6Z" transform="translate(-230.739 -504.067)"/><path class="dq" d="M264.511,647.341l-3.711-2.17,1-.571,2.712,1.57Z" transform="translate(-230.739 -533.005)"/><path class="dr" d="M211.312,545.189l-2.512-1.456V531.6l2.512,1.456Z" transform="translate(-193.584 -452.264)"/><path class="ds" d="M208.8,543.733l1-.571V532.171l-1-.571Z" transform="translate(-193.584 -452.264)"/><path class="dt" d="M211.312,574.127l-2.512-1.456,1-.571,1.513.856Z" transform="translate(-193.584 -481.202)"/><path class="du" d="M227.24,511.874l-3.74-2.141V497.6l3.74,2.141Z" transform="translate(-204.087 -427.971)"/><path class="dv" d="M223.5,509.733l1-.571V498.171l-1-.571Z" transform="translate(-204.087 -427.971)"/><path class="dw" d="M227.24,540.812l-3.74-2.141,1-.571,2.741,1.57Z" transform="translate(-204.087 -456.909)"/><path class="ai" d="M227.24,554.374l-3.74-2.141V540.1l3.74,2.141Z" transform="translate(-204.087 -458.338)"/><path class="aj" d="M223.5,552.233l1-.571V540.671l-1-.571Z" transform="translate(-204.087 -458.338)"/><path class="dx" d="M227.24,596.9l-3.74-2.17V582.6l3.74,2.141Z" transform="translate(-204.087 -488.705)"/><path class="dy" d="M223.5,594.733l1-.571V583.171l-1-.571Z" transform="translate(-204.087 -488.705)"/><path class="aj" d="M227.24,583.312l-3.74-2.141,1-.571,2.741,1.57Z" transform="translate(-204.087 -487.276)"/><path class="dz" d="M227.24,625.841l-3.74-2.17,1-.571,2.741,1.57Z" transform="translate(-204.087 -517.643)"/></g><path class="ai" d="M2420.308,837.091l22.449,13.128,23.549-13.128-23.549-13.6Z" transform="translate(-2379.628 -745.53)"/><path class="bo" d="M2410.009,655.1l-22.439-13.079-12.957-91.61h75.771l-16.569,91.61Z" transform="translate(-2346.978 -550.41)"/></g><g transform="translate(352.587 742.221)"><g class="bp" transform="translate(0 139.682)"><path class="bq" d="M105.139,567.555l39.882,23.017a30.923,30.923,0,0,0,30.92,0l39.882-23.017a15.366,15.366,0,0,0,0-26.621l-39.882-23.016a30.923,30.923,0,0,0-30.92,0l-39.882,23.016A15.366,15.366,0,0,0,105.139,567.555Z" transform="translate(-97.45 -513.775)"/><path class="br" d="M115.244,571.3l38.2,22.058a28.442,28.442,0,0,0,28.473,0l38.2-22.058a14.063,14.063,0,0,0,0-24.372l-38.2-22.058a28.441,28.441,0,0,0-28.473,0l-38.2,22.058A14.063,14.063,0,0,0,115.244,571.3Z" transform="translate(-104.645 -518.644)"/><path class="bs" d="M125.249,575.044l36.542,21.1a25.959,25.959,0,0,0,26.026,0l36.542-21.1a12.761,12.761,0,0,0,0-22.124l-36.542-21.1a25.96,25.96,0,0,0-26.026,0l-36.542,21.1A12.761,12.761,0,0,0,125.249,575.044Z" transform="translate(-111.773 -523.513)"/><path class="bt" d="M135.3,578.772l34.856,20.14a23.7,23.7,0,0,0,23.612,0l34.856-20.14a11.487,11.487,0,0,0,0-19.908l-34.856-20.14a23.7,23.7,0,0,0-23.612,0L135.3,558.864A11.512,11.512,0,0,0,135.3,578.772Z" transform="translate(-118.951 -528.366)"/><path class="bu" d="M145.351,582.584l33.169,19.18a21.217,21.217,0,0,0,21.165,0l33.2-19.147a10.2,10.2,0,0,0,0-17.659l-33.2-19.18a21.217,21.217,0,0,0-21.165,0l-33.2,19.147A10.2,10.2,0,0,0,145.351,582.584Z" transform="translate(-126.088 -533.302)"/><path class="bv" d="M155.415,586.329l31.516,18.188a18.735,18.735,0,0,0,18.717,0l31.515-18.188a8.906,8.906,0,0,0,0-15.41L205.648,552.73a18.735,18.735,0,0,0-18.717,0l-31.516,18.188A8.906,8.906,0,0,0,155.415,586.329Z" transform="translate(-133.274 -538.171)"/><path class="bw" d="M165.47,590.107,195.3,607.336a16.252,16.252,0,0,0,16.27,0L241.4,590.107a7.632,7.632,0,0,0,0-13.195l-29.829-17.229a16.252,16.252,0,0,0-16.27,0L165.47,576.912A7.608,7.608,0,0,0,165.47,590.107Z" transform="translate(-140.419 -543.04)"/><path class="bx" d="M175.525,593.852l28.175,16.27a13.832,13.832,0,0,0,13.856,0l28.175-16.27a6.33,6.33,0,0,0,0-10.946l-28.175-16.27a13.832,13.832,0,0,0-13.856,0l-28.175,16.27A6.33,6.33,0,0,0,175.525,593.852Z" transform="translate(-147.597 -547.909)"/><path class="by" d="M185.63,597.6l26.489,15.278a11.349,11.349,0,0,0,11.409,0l26.489-15.311a5.027,5.027,0,0,0,0-8.7l-26.489-15.278a11.35,11.35,0,0,0-11.409,0L185.63,588.9A5.027,5.027,0,0,0,185.63,597.6Z" transform="translate(-154.792 -552.779)"/><path class="bz" d="M195.643,601.391l24.835,14.319a9.028,9.028,0,0,0,8.962,0l24.8-14.319a3.753,3.753,0,0,0,0-6.482l-24.8-14.319a9.028,9.028,0,0,0-8.962,0l-24.8,14.319A3.741,3.741,0,0,0,195.643,601.391Z" transform="translate(-161.929 -557.698)"/><path class="ca" d="M205.74,605.136l23.149,13.36a6.546,6.546,0,0,0,6.515,0l23.149-13.36a2.451,2.451,0,0,0,0-4.233L235.4,587.543a6.545,6.545,0,0,0-6.515,0L205.74,600.9A2.451,2.451,0,0,0,205.74,605.136Z" transform="translate(-169.116 -562.567)"/><path class="ai" d="M215.745,608.881l21.462,12.4a4.125,4.125,0,0,0,4.1,0l21.462-12.4a1.148,1.148,0,0,0,0-1.984l-21.462-12.4a4.125,4.125,0,0,0-4.1,0l-21.462,12.4A1.148,1.148,0,0,0,215.745,608.881Z" transform="translate(-176.244 -567.436)"/></g><g transform="translate(25.19 70.968)"><path class="af" d="M293.368,428.092l7.936-4.568v12.133l2.684-1.542V421.955l7.936-4.568V429.52l2.912-1.684V415.7l7.936-4.568v12.133l4.368-2.541V330.8L289,352.811l.029,89.927,4.339-2.484Z" transform="translate(-250.888 -308.789)"/><g transform="translate(0 22.011)"><path class="ag" d="M159.868,411.135,167.8,415.7v12.162l2.912,1.656V417.387l18.556,10.734v12.133l4.368,2.484-.029-89.927L155.5,330.8v89.927l4.368,2.541Z" transform="translate(-155.5 -330.8)"/><path class="cb" d="M208.8,646.233l4.225-2.455v-7.223L208.8,634.1Z" transform="translate(-193.584 -547.513)"/></g><path class="ah" d="M155.5,275.711l38.112,22.011,38.14-22.011L193.612,253.7Z" transform="translate(-155.5 -253.7)"/><path class="ai" d="M398.5,351.76l2.512-1.456V338.171l-1.028-.571-1.484.857Z" transform="translate(-329.128 -313.648)"/><path class="aj" d="M404.728,350.3l-1.028-.571V337.6l1.028.571Z" transform="translate(-332.843 -313.648)"/><path class="aj" d="M398.5,382.127l2.512-1.456-1.028-.571-1.484.885Z" transform="translate(-329.128 -344.015)"/><path class="ak" d="M398.5,438.289l2.512-1.456V424.7l-2.512,1.427Z" transform="translate(-329.128 -375.883)"/><path class="al" d="M404.728,436.833l-1.028-.6V425.271l1.028-.571Z" transform="translate(-332.843 -375.883)"/><path class="am" d="M398.5,467.155l2.512-1.456-1.028-.6-1.484.885Z" transform="translate(-329.128 -404.749)"/><path class="an" d="M398.5,480.789l2.512-1.456V467.2l-2.512,1.456Z" transform="translate(-329.128 -406.249)"/><path class="ao" d="M404.728,479.333l-1.028-.6V467.771l1.028-.571Z" transform="translate(-332.843 -406.249)"/><path class="ap" d="M398.5,509.655l2.512-1.456-1.028-.6-1.484.885Z" transform="translate(-329.128 -435.116)"/><path class="cc" d="M398.5,565.789l2.512-1.456V552.2l-2.512,1.456Z" transform="translate(-329.128 -466.983)"/><path class="cd" d="M404.728,564.333l-1.028-.571V552.771l1.028-.571Z" transform="translate(-332.843 -466.983)"/><path class="ce" d="M398.5,594.727l2.512-1.456-1.028-.571-1.484.856Z" transform="translate(-329.128 -495.921)"/><path class="aq" d="M379.5,404.974l3.711-2.141V390.7l-3.711,2.141Z" transform="translate(-315.552 -351.589)"/><path class="ar" d="M390,402.833l-1-.6V391.271l1-.571Z" transform="translate(-322.34 -351.589)"/><path class="as" d="M379.5,433.841l3.711-2.141-1-.6-2.712,1.57Z" transform="translate(-315.552 -380.455)"/><path class="ai" d="M379.5,489.974l3.711-2.141V475.7l-3.711,2.141Z" transform="translate(-315.552 -412.323)"/><path class="aj" d="M390,487.833l-1-.571V476.271l1-.571Z" transform="translate(-322.34 -412.323)"/><path class="aj" d="M379.5,518.912l3.711-2.141-1-.571-2.712,1.57Z" transform="translate(-315.552 -441.261)"/><path class="cf" d="M396.654,624.333l-4.254-2.455v-7.223l4.254-2.455Z" transform="translate(-324.769 -509.854)"/><path class="ai" d="M360.5,373.66l2.512-1.427V360.071l-1-.571-1.513.885Z" transform="translate(-301.976 -329.296)"/><path class="aj" d="M366.8,372.233l-1-.6V359.5l1,.571Z" transform="translate(-305.763 -329.296)"/><path class="aj" d="M360.5,404.027l2.512-1.427-1-.6-1.513.885Z" transform="translate(-301.976 -359.663)"/><path class="ai" d="M360.5,460.189l2.512-1.456V446.6l-2.512,1.427Z" transform="translate(-301.976 -391.53)"/><path class="aj" d="M366.8,458.733l-1-.6V447.171l1-.571Z" transform="translate(-305.763 -391.53)"/><path class="aj" d="M360.5,489.055l2.512-1.456-1-.6-1.513.885Z" transform="translate(-301.976 -420.397)"/><path class="cg" d="M360.5,545.189l2.512-1.456V531.6l-2.512,1.456Z" transform="translate(-301.976 -452.264)"/><path class="ch" d="M366.8,543.733l-1-.571V532.171l1-.571Z" transform="translate(-305.763 -452.264)"/><path class="ci" d="M360.5,574.127l2.512-1.456-1-.571-1.513.856Z" transform="translate(-301.976 -481.202)"/><path class="ai" d="M360.5,587.689l2.512-1.456V574.1l-2.512,1.456Z" transform="translate(-301.976 -482.631)"/><path class="aj" d="M366.8,586.233l-1-.571V574.671l1-.571Z" transform="translate(-305.763 -482.631)"/><path class="aj" d="M360.5,616.627l2.512-1.456-1-.571-1.513.856Z" transform="translate(-301.976 -511.569)"/><path class="at" d="M341.5,426.874l3.74-2.141V412.6l-3.74,2.141Z" transform="translate(-288.4 -367.237)"/><path class="au" d="M352.1,424.733l-1-.6V413.171l1-.571Z" transform="translate(-295.26 -367.237)"/><path class="av" d="M341.5,455.741l3.74-2.141-1-.6-2.741,1.57Z" transform="translate(-288.4 -396.103)"/><path class="ai" d="M341.5,511.874l3.74-2.141V497.6l-3.74,2.141Z" transform="translate(-288.4 -427.971)"/><path class="aj" d="M352.1,509.733l-1-.571V498.171l1-.571Z" transform="translate(-295.26 -427.971)"/><path class="cj" d="M341.5,540.812l3.74-2.141-1-.571-2.741,1.57Z" transform="translate(-288.4 -456.909)"/><path class="ck" d="M341.5,554.374l3.74-2.141V540.1l-3.74,2.141Z" transform="translate(-288.4 -458.338)"/><path class="cl" d="M352.1,552.233l-1-.571V540.671l1-.571Z" transform="translate(-295.26 -458.338)"/><path class="cm" d="M341.5,583.312l3.74-2.141-1-.571-2.741,1.57Z" transform="translate(-288.4 -487.276)"/><path class="cn" d="M379.5,575l3.711-2.17V560.7l-3.711,2.141Z" transform="translate(-315.552 -473.057)"/><path class="co" d="M390,572.833l-1-.571V561.271l1-.571Z" transform="translate(-322.34 -473.057)"/><path class="cp" d="M379.5,603.941l3.711-2.17-1-.571-2.712,1.57Z" transform="translate(-315.552 -501.995)"/><path class="cf" d="M358.725,646.233l-4.225-2.455v-7.223l4.225-2.455Z" transform="translate(-297.689 -525.502)"/><path class="ai" d="M323.3,395.16l2.512-1.427V381.571l-1-.571-1.513.885Z" transform="translate(-275.396 -344.658)"/><path class="aj" d="M329.6,393.733l-1-.6V381l1,.571Z" transform="translate(-279.183 -344.658)"/><path class="aj" d="M323.3,425.527l2.512-1.427-1-.6-1.513.885Z" transform="translate(-275.396 -375.025)"/><path class="aw" d="M323.3,481.689l2.512-1.456V468.1l-2.512,1.456Z" transform="translate(-275.396 -406.893)"/><path class="ax" d="M329.6,480.233l-1-.6V468.671l1-.571Z" transform="translate(-279.183 -406.893)"/><path class="ay" d="M323.3,510.555l2.512-1.456-1-.6-1.513.885Z" transform="translate(-275.396 -435.759)"/><path class="cq" d="M323.3,524.189l2.512-1.456V510.6l-2.512,1.456Z" transform="translate(-275.396 -437.26)"/><path class="cr" d="M329.6,522.733l-1-.571V511.171l1-.571Z" transform="translate(-279.183 -437.26)"/><path class="cs" d="M323.3,553.127l2.512-1.456-1-.571-1.513.856Z" transform="translate(-275.396 -466.197)"/><path class="ct" d="M323.3,609.189l2.512-1.456V595.6l-2.512,1.456Z" transform="translate(-275.396 -497.993)"/><path class="cu" d="M329.6,607.733l-1-.571V596.171l1-.571Z" transform="translate(-279.183 -497.993)"/><path class="cv" d="M323.3,638.127l2.512-1.456-1-.571-1.513.856Z" transform="translate(-275.396 -526.931)"/><path class="az" d="M304.3,448.374l3.711-2.141V434.1l-3.711,2.141Z" transform="translate(-261.82 -382.599)"/><path class="ba" d="M314.8,446.233l-1-.6V434.671l1-.571Z" transform="translate(-268.608 -382.599)"/><path class="bb" d="M304.3,477.241l3.711-2.141-1-.6-2.712,1.57Z" transform="translate(-261.82 -411.465)"/><path class="cw" d="M304.3,533.374l3.711-2.141V519.1l-3.711,2.141Z" transform="translate(-261.82 -443.333)"/><path class="cx" d="M314.8,531.233l-1-.571V519.671l1-.571Z" transform="translate(-268.608 -443.333)"/><path class="cy" d="M304.3,562.312l3.711-2.141-1-.571-2.712,1.57Z" transform="translate(-261.82 -472.271)"/><path class="cf" d="M321.454,667.733l-4.254-2.455v-7.223l4.254-2.455Z" transform="translate(-271.037 -540.865)"/><path class="ai" d="M173.312,351.76l-2.512-1.427V338.171l1-.571,1.513.885Z" transform="translate(-166.432 -313.648)"/><path class="aj" d="M170.8,350.333l1-.6V337.6l-1,.571Z" transform="translate(-166.432 -313.648)"/><path class="aj" d="M173.312,382.127,170.8,380.7l1-.6,1.513.885Z" transform="translate(-166.432 -344.015)"/><path class="bc" d="M173.312,438.289l-2.512-1.456V424.7l2.512,1.427Z" transform="translate(-166.432 -375.883)"/><path class="bd" d="M170.8,436.833l1-.6V425.271l-1-.571Z" transform="translate(-166.432 -375.883)"/><path class="be" d="M173.312,467.155,170.8,465.7l1-.6,1.513.885Z" transform="translate(-166.432 -404.749)"/><path class="bf" d="M173.312,480.789l-2.512-1.456V467.2l2.512,1.456Z" transform="translate(-166.432 -406.249)"/><path class="bg" d="M170.8,479.333l1-.571V467.771l-1-.571Z" transform="translate(-166.432 -406.249)"/><path class="bh" d="M173.312,509.727l-2.512-1.456,1-.571,1.513.856Z" transform="translate(-166.432 -435.187)"/><path class="cz" d="M173.312,565.789l-2.512-1.456V552.2l2.512,1.456Z" transform="translate(-166.432 -466.983)"/><path class="da" d="M170.8,564.333l1.028-.571V552.771L170.8,552.2Z" transform="translate(-166.432 -466.983)"/><path class="db" d="M173.312,594.727l-2.512-1.456,1.028-.571,1.484.856Z" transform="translate(-166.432 -495.921)"/><path class="bi" d="M189.311,404.974l-3.711-2.141V390.7l3.711,2.141Z" transform="translate(-177.007 -351.589)"/><path class="bj" d="M185.6,402.833l1-.6V391.271l-1-.571Z" transform="translate(-177.007 -351.589)"/><path class="bk" d="M189.311,433.841,185.6,431.7l1-.6,2.712,1.57Z" transform="translate(-177.007 -380.455)"/><path class="ai" d="M189.311,489.974l-3.711-2.141V475.7l3.711,2.141Z" transform="translate(-177.007 -412.323)"/><path class="aj" d="M185.6,487.833l1-.571V476.271l-1-.571Z" transform="translate(-177.007 -412.323)"/><path class="aj" d="M189.311,518.912l-3.711-2.141,1-.571,2.712,1.57Z" transform="translate(-177.007 -441.261)"/><path class="cf" d="M170.8,624.333l4.254-2.455v-7.223L170.8,612.2Z" transform="translate(-166.432 -509.854)"/><path class="dc" d="M189.311,575l-3.711-2.17V560.7l3.711,2.141Z" transform="translate(-177.007 -473.057)"/><path class="dd" d="M185.6,572.833l1-.571V561.271l-1-.571Z" transform="translate(-177.007 -473.057)"/><path class="de" d="M189.311,603.941l-3.711-2.17,1-.571,2.712,1.57Z" transform="translate(-177.007 -501.995)"/><path class="ai" d="M248.512,395.188,246,393.733V381.6l1-.6,1.513.885Z" transform="translate(-220.164 -344.658)"/><path class="aj" d="M246,393.733l1-.6V381l-1,.6Z" transform="translate(-220.164 -344.658)"/><path class="aj" d="M248.512,425.555,246,424.1l1-.6,1.513.885Z" transform="translate(-220.164 -375.025)"/><path class="ai" d="M248.512,481.689,246,480.233V468.1l2.512,1.456Z" transform="translate(-220.164 -406.893)"/><path class="aj" d="M246,480.233l1-.571V468.671l-1-.571Z" transform="translate(-220.164 -406.893)"/><path class="aj" d="M248.512,510.627,246,509.171l1-.571,1.513.856Z" transform="translate(-220.164 -435.83)"/><path class="df" d="M248.512,524.189,246,522.733V510.6l2.512,1.456Z" transform="translate(-220.164 -437.26)"/><path class="dg" d="M246,522.733l1-.571V511.171l-1-.571Z" transform="translate(-220.164 -437.26)"/><path class="dh" d="M248.512,553.127,246,551.671l1-.571,1.513.856Z" transform="translate(-220.164 -466.197)"/><path class="di" d="M248.512,609.189,246,607.733V595.6l2.512,1.456Z" transform="translate(-220.164 -497.993)"/><path class="dj" d="M246,607.733l1.028-.571L247,596.171l-1-.571Z" transform="translate(-220.164 -497.993)"/><path class="dk" d="M248.512,638.127,246,636.671l1.028-.571,1.484.856Z" transform="translate(-220.164 -526.931)"/><path class="bl" d="M264.511,448.374l-3.711-2.141V434.1l3.711,2.141Z" transform="translate(-230.739 -382.599)"/><path class="bm" d="M260.8,446.233l1-.571V434.671l-1-.571Z" transform="translate(-230.739 -382.599)"/><path class="bn" d="M264.511,477.312l-3.711-2.141,1-.571,2.712,1.57Z" transform="translate(-230.739 -411.537)"/><path class="dl" d="M264.511,533.374l-3.711-2.141V519.1l3.711,2.141Z" transform="translate(-230.739 -443.333)"/><path class="dm" d="M260.8,531.233l1-.571V519.671l-1-.571Z" transform="translate(-230.739 -443.333)"/><path class="dn" d="M264.511,562.312l-3.711-2.141,1-.571,2.712,1.57Z" transform="translate(-230.739 -472.271)"/><path class="do" d="M264.511,618.4l-3.711-2.17V604.1l3.711,2.17Z" transform="translate(-230.739 -504.067)"/><path class="dp" d="M260.8,616.233l1-.571V604.7l-1-.6Z" transform="translate(-230.739 -504.067)"/><path class="dq" d="M264.511,647.341l-3.711-2.17,1-.571,2.712,1.57Z" transform="translate(-230.739 -533.005)"/><path class="dr" d="M211.312,545.189l-2.512-1.456V531.6l2.512,1.456Z" transform="translate(-193.584 -452.264)"/><path class="ds" d="M208.8,543.733l1-.571V532.171l-1-.571Z" transform="translate(-193.584 -452.264)"/><path class="dt" d="M211.312,574.127l-2.512-1.456,1-.571,1.513.856Z" transform="translate(-193.584 -481.202)"/><path class="du" d="M227.24,511.874l-3.74-2.141V497.6l3.74,2.141Z" transform="translate(-204.087 -427.971)"/><path class="dv" d="M223.5,509.733l1-.571V498.171l-1-.571Z" transform="translate(-204.087 -427.971)"/><path class="dw" d="M227.24,540.812l-3.74-2.141,1-.571,2.741,1.57Z" transform="translate(-204.087 -456.909)"/><path class="ai" d="M227.24,554.374l-3.74-2.141V540.1l3.74,2.141Z" transform="translate(-204.087 -458.338)"/><path class="aj" d="M223.5,552.233l1-.571V540.671l-1-.571Z" transform="translate(-204.087 -458.338)"/><path class="dx" d="M227.24,596.9l-3.74-2.17V582.6l3.74,2.141Z" transform="translate(-204.087 -488.705)"/><path class="dy" d="M223.5,594.733l1-.571V583.171l-1-.571Z" transform="translate(-204.087 -488.705)"/><path class="aj" d="M227.24,583.312l-3.74-2.141,1-.571,2.741,1.57Z" transform="translate(-204.087 -487.276)"/><path class="dz" d="M227.24,625.841l-3.74-2.17,1-.571,2.741,1.57Z" transform="translate(-204.087 -517.643)"/></g><path class="ai" d="M2420.308,837.091l22.449,13.128,23.549-13.128-23.549-13.6Z" transform="translate(-2379.628 -745.53)"/><path class="bo" d="M2410.009,655.1l-22.439-13.079-12.957-91.61h75.771l-16.569,91.61Z" transform="translate(-2346.978 -550.41)"/></g><g class="b" transform="translate(53.489 767.557)"><path class="u" d="M169.665,475.925l53.965-31.162L169.665,413.6,115.7,444.762Z" transform="translate(-115.7 -413.6)"/><path class="v" d="M210.6,619.094l53.965-31.162V468.4L210.6,499.562Z" transform="translate(-156.635 -437.238)"/><path class="w" d="M169.665,619.094,115.7,587.931V468.4l53.965,31.162Z" transform="translate(-115.7 -437.238)"/></g><g transform="translate(-326.935 539.129)"><path class="ea" d="M375.484,142.764s-9.413.98-10.725-5.564a56.315,56.315,0,0,0-20.452,12.352s-3.762,11.127-7.856,14.241c0,0-6.631,29.288,18.405,35.586C354.874,199.38,377.2,174.028,375.484,142.764Z" transform="translate(-24.916 -15.016)"/><path class="eb" d="M512.725,142.764s-8.993.98-10.725-5.564c0,0,.98,4.251,6.946,2.292C508.963,139.492,512.637,140.577,512.725,142.764Z" transform="translate(-162.157 -15.016)"/><path class="ec" d="M339.843,122.184A8.139,8.139,0,0,0,335.259,119s-12.439,3.849-20.365,13.262a31.7,31.7,0,0,1-8.748,15.046s-7.033,32.717,23.812,37.056c0,0-23.147-3.6-18.405-35.586a33.908,33.908,0,0,0,7.856-14.242C319.391,134.536,325.532,127.748,339.843,122.184Z" transform="translate(0)"/><g transform="translate(317.519 134.356)"><path class="ed" d="M384.967,270.641c7.348-4.566,13.629-3.149,14.8,3.394a18.133,18.133,0,0,1,.175,2.974,3.332,3.332,0,0,1-.315,1.277c-.28.717-.647,1.435-.98,2.152-.175.367-.385.682-.717.752-.332.087-.385-.175-.367-.525a17.914,17.914,0,0,0-.227-5.791c-1.207-4.234-5.476-5.476-10.532-2.974-4.426,2.2-8.188,5.931-11.25,11.075a1.756,1.756,0,0,1-.717.787c-.28.1-.437.018-.437-.262a6.942,6.942,0,0,1,.175-1.68,5.252,5.252,0,0,1,.717-1.575,33.782,33.782,0,0,1,8.415-8.748C384.093,271.218,384.53,270.955,384.967,270.641Z" transform="translate(-374.4 -257.268)"/><path class="ee" d="M398.107,305.835c-.227,1.872-.437,3.727-.7,5.581A5.748,5.748,0,0,1,395.4,314.7c-.42.385-.77.227-.665-.28.175-.927.42-1.925.56-2.852a24.053,24.053,0,0,0,.332-6.141c-.367-3.167-3.132-4.391-6.526-2.869a18.178,18.178,0,0,0-9.535,12.649c-.052.3-.052.542-.1.8a1.214,1.214,0,0,1-.49.822c-.262.21-.49.227-.595.035a9.131,9.131,0,0,1-.7-1.75,2.461,2.461,0,0,1,.157-1.225,24.03,24.03,0,0,1,8.713-12.107c5.424-3.954,10.235-3.307,11.267,1.452.052.192.07.42.1.612.052.665.07,1.347.1,2.012A.134.134,0,0,0,398.107,305.835Z" transform="translate(-377.077 -283.032)"/><path class="ef" d="M393.4,240.16c6.858-4.077,12.317-4.636,16.306-1.487a2.514,2.514,0,0,1,.84,2.117v1.417a1.161,1.161,0,0,1-.455.927c-.332.28-.542.21-.665,0a8.265,8.265,0,0,0-.98-1.312c-2.887-3.009-7.1-3.254-12.614-.647a32.765,32.765,0,0,0-10.06,7.873c-.07.1-.175.192-.262.3-.262.3-.49.437-.7.332-.21-.07-.21-.315-.07-.647a10.394,10.394,0,0,1,2.729-4.164A37.114,37.114,0,0,1,393.4,240.16Z" transform="translate(-382.851 -231.424)"/><path class="eg" d="M410.65,334.556a32.759,32.759,0,0,1-1.312,7.856,2.74,2.74,0,0,1-1.487,1.96,4.255,4.255,0,0,1-.455.262c-.507.3-.77.1-.56-.525a28.07,28.07,0,0,0,1.522-9.045c0-1.977-1.54-2.554-3.5-1.33a7.684,7.684,0,0,0-3.464,5.686,17.494,17.494,0,0,1-.8,5.459c-.28.892-.665,1.207-1.207,1.015-.157-.052-.332-.122-.49-.175-.315-.14-.42-.437-.28-.962a15.394,15.394,0,0,0,.455-3.867c0-2.852,1.907-6.351,4.706-8.7,3.184-2.642,6.421-2.344,6.788.647C410.633,333.4,410.633,333.979,410.65,334.556Z" transform="translate(-394.327 -308.762)"/><path class="eh" d="M421.845,210.046a26.707,26.707,0,0,1,8.31-3.184,4.828,4.828,0,0,1,4.269,1.207c.175.14.157.42-.07.787a.892.892,0,0,1-.822.49,14.311,14.311,0,0,0-5.6.472,29.765,29.765,0,0,0-9.815,4.9c-.315.21-.542.28-.7.1a.716.716,0,0,1,.175-.787,18.359,18.359,0,0,1,4.042-3.884A.47.47,0,0,0,421.845,210.046Z" transform="translate(-409.843 -206.768)"/><path class="ei" d="M423.268,363.344a25.215,25.215,0,0,1-1.522,7.558c-.28.77-.49.98-1.1,1.1-.28.053-.542.087-.822.122-.315.017-.42-.21-.262-.612a21.412,21.412,0,0,0,1.382-7.681,2.4,2.4,0,0,1,1.155-1.925c.665-.42,1.137-.192,1.137.525A7.913,7.913,0,0,1,423.268,363.344Z" transform="translate(-411.598 -334.593)"/></g></g><g transform="translate(91.065 621.129)"><path class="ea" d="M375.484,142.764s-9.413.98-10.725-5.564a56.315,56.315,0,0,0-20.452,12.352s-3.762,11.127-7.856,14.241c0,0-6.631,29.288,18.405,35.586C354.874,199.38,377.2,174.028,375.484,142.764Z" transform="translate(-24.916 -15.016)"/><path class="eb" d="M512.725,142.764s-8.993.98-10.725-5.564c0,0,.98,4.251,6.946,2.292C508.963,139.492,512.637,140.577,512.725,142.764Z" transform="translate(-162.157 -15.016)"/><path class="ec" d="M339.843,122.184A8.139,8.139,0,0,0,335.259,119s-12.439,3.849-20.365,13.262a31.7,31.7,0,0,1-8.748,15.046s-7.033,32.717,23.812,37.056c0,0-23.147-3.6-18.405-35.586a33.908,33.908,0,0,0,7.856-14.242C319.391,134.536,325.532,127.748,339.843,122.184Z" transform="translate(0)"/><g transform="translate(317.519 134.356)"><path class="ed" d="M384.967,270.641c7.348-4.566,13.629-3.149,14.8,3.394a18.133,18.133,0,0,1,.175,2.974,3.332,3.332,0,0,1-.315,1.277c-.28.717-.647,1.435-.98,2.152-.175.367-.385.682-.717.752-.332.087-.385-.175-.367-.525a17.914,17.914,0,0,0-.227-5.791c-1.207-4.234-5.476-5.476-10.532-2.974-4.426,2.2-8.188,5.931-11.25,11.075a1.756,1.756,0,0,1-.717.787c-.28.1-.437.018-.437-.262a6.942,6.942,0,0,1,.175-1.68,5.252,5.252,0,0,1,.717-1.575,33.782,33.782,0,0,1,8.415-8.748C384.093,271.218,384.53,270.955,384.967,270.641Z" transform="translate(-374.4 -257.268)"/><path class="ee" d="M398.107,305.835c-.227,1.872-.437,3.727-.7,5.581A5.748,5.748,0,0,1,395.4,314.7c-.42.385-.77.227-.665-.28.175-.927.42-1.925.56-2.852a24.053,24.053,0,0,0,.332-6.141c-.367-3.167-3.132-4.391-6.526-2.869a18.178,18.178,0,0,0-9.535,12.649c-.052.3-.052.542-.1.8a1.214,1.214,0,0,1-.49.822c-.262.21-.49.227-.595.035a9.131,9.131,0,0,1-.7-1.75,2.461,2.461,0,0,1,.157-1.225,24.03,24.03,0,0,1,8.713-12.107c5.424-3.954,10.235-3.307,11.267,1.452.052.192.07.42.1.612.052.665.07,1.347.1,2.012A.134.134,0,0,0,398.107,305.835Z" transform="translate(-377.077 -283.032)"/><path class="ef" d="M393.4,240.16c6.858-4.077,12.317-4.636,16.306-1.487a2.514,2.514,0,0,1,.84,2.117v1.417a1.161,1.161,0,0,1-.455.927c-.332.28-.542.21-.665,0a8.265,8.265,0,0,0-.98-1.312c-2.887-3.009-7.1-3.254-12.614-.647a32.765,32.765,0,0,0-10.06,7.873c-.07.1-.175.192-.262.3-.262.3-.49.437-.7.332-.21-.07-.21-.315-.07-.647a10.394,10.394,0,0,1,2.729-4.164A37.114,37.114,0,0,1,393.4,240.16Z" transform="translate(-382.851 -231.424)"/><path class="eg" d="M410.65,334.556a32.759,32.759,0,0,1-1.312,7.856,2.74,2.74,0,0,1-1.487,1.96,4.255,4.255,0,0,1-.455.262c-.507.3-.77.1-.56-.525a28.07,28.07,0,0,0,1.522-9.045c0-1.977-1.54-2.554-3.5-1.33a7.684,7.684,0,0,0-3.464,5.686,17.494,17.494,0,0,1-.8,5.459c-.28.892-.665,1.207-1.207,1.015-.157-.052-.332-.122-.49-.175-.315-.14-.42-.437-.28-.962a15.394,15.394,0,0,0,.455-3.867c0-2.852,1.907-6.351,4.706-8.7,3.184-2.642,6.421-2.344,6.788.647C410.633,333.4,410.633,333.979,410.65,334.556Z" transform="translate(-394.327 -308.762)"/><path class="eh" d="M421.845,210.046a26.707,26.707,0,0,1,8.31-3.184,4.828,4.828,0,0,1,4.269,1.207c.175.14.157.42-.07.787a.892.892,0,0,1-.822.49,14.311,14.311,0,0,0-5.6.472,29.765,29.765,0,0,0-9.815,4.9c-.315.21-.542.28-.7.1a.716.716,0,0,1,.175-.787,18.359,18.359,0,0,1,4.042-3.884A.47.47,0,0,0,421.845,210.046Z" transform="translate(-409.843 -206.768)"/><path class="ei" d="M423.268,363.344a25.215,25.215,0,0,1-1.522,7.558c-.28.77-.49.98-1.1,1.1-.28.053-.542.087-.822.122-.315.017-.42-.21-.262-.612a21.412,21.412,0,0,0,1.382-7.681,2.4,2.4,0,0,1,1.155-1.925c.665-.42,1.137-.192,1.137.525A7.913,7.913,0,0,1,423.268,363.344Z" transform="translate(-411.598 -334.593)"/></g></g><g transform="translate(576.102 660.845)"><path class="ea" d="M380.7,143.493s-10.647,1.108-12.131-6.293a63.7,63.7,0,0,0-23.133,13.971s-4.255,12.586-8.885,16.108c0,0-7.5,33.127,20.818,40.251C357.393,207.531,382.644,178.856,380.7,143.493Z" transform="translate(-24.223 -14.598)"/><path class="eb" d="M514.131,143.493S503.959,144.6,502,137.2c0,0,1.108,4.809,7.856,2.592C509.876,139.792,514.032,141.019,514.131,143.493Z" transform="translate(-157.649 -14.598)"/><path class="ec" d="M344.351,122.6a9.206,9.206,0,0,0-5.185-3.6s-14.07,4.354-23.035,15a35.85,35.85,0,0,1-9.895,17.019s-7.955,37.006,26.933,41.913c0,0-26.181-4.077-20.818-40.251a38.353,38.353,0,0,0,8.885-16.108C321.217,136.573,328.163,128.895,344.351,122.6Z"/><g transform="translate(319.1 136.369)"><path class="ed" d="M386.353,270.99c8.311-5.165,15.416-3.562,16.742,3.839a20.511,20.511,0,0,1,.2,3.364,3.769,3.769,0,0,1-.356,1.445c-.317.811-.732,1.623-1.108,2.434-.2.416-.435.772-.811.851-.376.1-.435-.2-.416-.594a20.263,20.263,0,0,0-.257-6.55c-1.365-4.789-6.194-6.194-11.913-3.364-5.007,2.493-9.261,6.709-12.724,12.527a1.987,1.987,0,0,1-.811.891c-.317.119-.495.02-.495-.3a7.854,7.854,0,0,1,.2-1.9,5.94,5.94,0,0,1,.811-1.781,38.21,38.21,0,0,1,9.519-9.895C385.363,271.643,385.858,271.346,386.353,270.99Z" transform="translate(-374.4 -255.864)"/><path class="ee" d="M400.789,306.7c-.257,2.117-.495,4.215-.792,6.313a6.5,6.5,0,0,1-2.276,3.72c-.475.435-.871.257-.752-.317.2-1.049.475-2.177.633-3.226a27.205,27.205,0,0,0,.376-6.946c-.416-3.582-3.542-4.967-7.381-3.245-5.185,2.335-9.895,8.569-10.785,14.308-.059.336-.059.613-.119.91a1.373,1.373,0,0,1-.554.93c-.3.237-.554.257-.673.04a10.326,10.326,0,0,1-.792-1.979,2.783,2.783,0,0,1,.178-1.385,27.179,27.179,0,0,1,9.855-13.694c6.135-4.472,11.577-3.74,12.744,1.642.059.218.079.475.119.693.059.752.079,1.524.119,2.276A.151.151,0,0,0,400.789,306.7Z" transform="translate(-377.003 -280.912)"/><path class="ef" d="M394.548,240.619c7.757-4.611,13.932-5.244,18.443-1.682a2.844,2.844,0,0,1,.95,2.394v1.6a1.313,1.313,0,0,1-.515,1.049c-.376.317-.613.237-.752,0a9.352,9.352,0,0,0-1.108-1.484c-3.265-3.4-8.034-3.681-14.268-.732a37.06,37.06,0,0,0-11.379,8.905c-.079.119-.2.218-.3.336-.3.336-.554.495-.792.376-.237-.079-.237-.356-.079-.732a11.758,11.758,0,0,1,3.087-4.71A41.981,41.981,0,0,1,394.548,240.619Z" transform="translate(-382.616 -230.738)"/><path class="eg" d="M412.236,335.1a37.053,37.053,0,0,1-1.484,8.885,3.1,3.1,0,0,1-1.682,2.216,4.814,4.814,0,0,1-.515.3c-.574.336-.871.119-.633-.594a31.749,31.749,0,0,0,1.722-10.231c0-2.236-1.741-2.889-3.958-1.5a8.691,8.691,0,0,0-3.918,6.431,19.788,19.788,0,0,1-.91,6.174c-.317,1.009-.752,1.365-1.365,1.148-.178-.059-.376-.138-.554-.2-.356-.158-.475-.495-.317-1.088a17.408,17.408,0,0,0,.515-4.373c0-3.226,2.157-7.183,5.323-9.835,3.6-2.988,7.263-2.652,7.678.732C412.216,333.8,412.216,334.449,412.236,335.1Z" transform="translate(-393.773 -305.927)"/><path class="eh" d="M422.433,210.475a30.208,30.208,0,0,1,9.4-3.6,5.461,5.461,0,0,1,4.829,1.365c.2.158.178.475-.079.891a1.009,1.009,0,0,1-.93.554,16.187,16.187,0,0,0-6.333.534,33.666,33.666,0,0,0-11.1,5.541c-.356.237-.613.317-.792.119a.809.809,0,0,1,.2-.891,20.764,20.764,0,0,1,4.571-4.393A.531.531,0,0,0,422.433,210.475Z" transform="translate(-408.858 -206.768)"/><path class="ei" d="M423.764,363.56a28.52,28.52,0,0,1-1.722,8.549c-.317.871-.554,1.108-1.247,1.247-.317.059-.613.1-.93.139-.356.02-.475-.237-.3-.693a24.219,24.219,0,0,0,1.563-8.687,2.719,2.719,0,0,1,1.306-2.177c.752-.475,1.286-.218,1.286.594A8.952,8.952,0,0,1,423.764,363.56Z" transform="translate(-410.564 -331.04)"/></g></g><g transform="translate(-246.753 755.052)"><g transform="translate(28.29 47.365)"><path class="af" d="M363.841,443.817V330.8L289,373.99v69.827Z" transform="translate(-214.215 -287.61)"/><g transform="translate(0 43.19)"><path class="ag" d="M230.285,444.225V373.99L155.5,330.8V444.225Z" transform="translate(-155.5 -330.8)"/></g><path class="ah" d="M155.5,296.89l74.785,43.19,74.841-43.19L230.285,253.7Z" transform="translate(-155.5 -253.7)"/><path class="ai" d="M398.5,365.385l4.93-2.857V338.72l-2.017-1.12-2.913,1.681Z" transform="translate(-262.375 -290.601)"/><path class="aj" d="M405.717,362.528l-2.017-1.12V337.6l2.017,1.12Z" transform="translate(-264.662 -290.601)"/><path class="aj" d="M398.5,384.077l4.93-2.857-2.017-1.12-2.913,1.737Z" transform="translate(-262.375 -309.293)"/><path class="ak" d="M398.5,451.365l4.93-2.857V424.7l-4.93,2.8Z" transform="translate(-262.375 -328.909)"/><path class="al" d="M405.717,448.508l-2.017-1.176V425.82l2.017-1.12Z" transform="translate(-264.662 -328.909)"/><path class="am" d="M398.5,469.133l4.93-2.857-2.017-1.176-2.913,1.737Z" transform="translate(-262.375 -346.677)"/><path class="an" d="M398.5,493.865l4.93-2.857V467.2l-4.93,2.857Z" transform="translate(-262.375 -347.601)"/><path class="ao" d="M405.717,491.008l-2.017-1.176V468.32l2.017-1.12Z" transform="translate(-264.662 -347.601)"/><path class="ap" d="M398.5,511.633l4.93-2.857-2.017-1.176-2.913,1.737Z" transform="translate(-262.375 -365.369)"/><path class="aq" d="M379.5,418.709l7.282-4.2V390.7l-7.282,4.2Z" transform="translate(-254.019 -313.955)"/><path class="ar" d="M390.961,414.508,389,413.331V391.82l1.961-1.12Z" transform="translate(-258.197 -313.955)"/><path class="as" d="M379.5,436.478l7.282-4.2-1.961-1.176-5.322,3.081Z" transform="translate(-254.019 -331.723)"/><path class="ai" d="M379.5,503.709l7.282-4.2V475.7l-7.282,4.2Z" transform="translate(-254.019 -351.339)"/><path class="aj" d="M390.961,499.508,389,498.387V476.82l1.961-1.12Z" transform="translate(-258.197 -351.339)"/><path class="aj" d="M379.5,521.522l7.282-4.2-1.961-1.12-5.322,3.081Z" transform="translate(-254.019 -369.152)"/><path class="ai" d="M360.5,387.285l4.93-2.8V360.62l-1.961-1.12-2.969,1.736Z" transform="translate(-245.662 -300.233)"/><path class="aj" d="M367.761,384.484l-1.961-1.176V359.5l1.961,1.12Z" transform="translate(-247.993 -300.233)"/><path class="aj" d="M360.5,405.977l4.93-2.8L363.469,402l-2.969,1.737Z" transform="translate(-245.662 -318.925)"/><path class="ai" d="M360.5,473.265l4.93-2.857V446.6l-4.93,2.8Z" transform="translate(-245.662 -338.54)"/><path class="aj" d="M367.761,470.408l-1.961-1.176V447.72l1.961-1.12Z" transform="translate(-247.993 -338.54)"/><path class="aj" d="M360.5,491.033l4.93-2.857L363.469,487l-2.969,1.737Z" transform="translate(-245.662 -356.309)"/><path class="at" d="M341.5,440.609l7.338-4.2V412.6l-7.338,4.2Z" transform="translate(-237.306 -323.587)"/><path class="au" d="M353.061,436.408l-1.961-1.176V413.72l1.961-1.12Z" transform="translate(-241.528 -323.587)"/><path class="av" d="M341.5,458.378l7.338-4.2L346.878,453l-5.378,3.081Z" transform="translate(-237.306 -341.355)"/><path class="ai" d="M323.3,408.785l4.93-2.8V382.12L326.269,381l-2.969,1.737Z" transform="translate(-229.301 -309.689)"/><path class="aj" d="M330.561,405.984l-1.961-1.176V381l1.961,1.12Z" transform="translate(-231.632 -309.689)"/><path class="aj" d="M323.3,427.477l4.93-2.8-1.961-1.176-2.969,1.737Z" transform="translate(-229.301 -328.381)"/><path class="aw" d="M323.3,494.765l4.93-2.857V468.1l-4.93,2.857Z" transform="translate(-229.301 -347.997)"/><path class="ax" d="M330.561,491.908l-1.961-1.176V469.22l1.961-1.12Z" transform="translate(-231.632 -347.997)"/><path class="ay" d="M323.3,512.533l4.93-2.857-1.961-1.176-2.969,1.737Z" transform="translate(-229.301 -365.765)"/><path class="az" d="M304.3,462.109l7.282-4.2V434.1l-7.282,4.2Z" transform="translate(-220.945 -333.043)"/><path class="ba" d="M315.761,457.908l-1.961-1.176V435.22l1.961-1.12Z" transform="translate(-225.123 -333.043)"/><path class="bb" d="M304.3,479.878l7.282-4.2-1.961-1.176-5.322,3.081Z" transform="translate(-220.945 -350.811)"/><path class="ai" d="M175.73,365.385l-4.93-2.8V338.72l1.961-1.12,2.969,1.737Z" transform="translate(-162.229 -290.601)"/><path class="aj" d="M170.8,362.584l1.961-1.176V337.6l-1.961,1.12Z" transform="translate(-162.229 -290.601)"/><path class="aj" d="M175.73,384.077l-4.93-2.8,1.961-1.176,2.969,1.737Z" transform="translate(-162.229 -309.293)"/><path class="bc" d="M175.73,451.365l-4.93-2.857V424.7l4.93,2.8Z" transform="translate(-162.229 -328.909)"/><path class="bd" d="M170.8,448.508l1.961-1.176V425.82L170.8,424.7Z" transform="translate(-162.229 -328.909)"/><path class="be" d="M175.73,469.133l-4.93-2.857,1.961-1.176,2.969,1.737Z" transform="translate(-162.229 -346.677)"/><path class="bf" d="M175.73,493.865l-4.93-2.857V467.2l4.93,2.857Z" transform="translate(-162.229 -347.601)"/><path class="bg" d="M170.8,491.008l1.961-1.12V468.32L170.8,467.2Z" transform="translate(-162.229 -347.601)"/><path class="bh" d="M175.73,511.677l-4.93-2.857,1.961-1.12,2.969,1.681Z" transform="translate(-162.229 -365.413)"/><path class="bi" d="M192.882,418.709l-7.282-4.2V390.7l7.282,4.2Z" transform="translate(-168.738 -313.955)"/><path class="bj" d="M185.6,414.508l1.961-1.176V391.82L185.6,390.7Z" transform="translate(-168.738 -313.955)"/><path class="bk" d="M192.882,436.478l-7.282-4.2,1.961-1.176,5.322,3.081Z" transform="translate(-168.738 -331.723)"/><path class="ai" d="M192.882,503.709l-7.282-4.2V475.7l7.282,4.2Z" transform="translate(-168.738 -351.339)"/><path class="aj" d="M185.6,499.508l1.961-1.12V476.82L185.6,475.7Z" transform="translate(-168.738 -351.339)"/><path class="aj" d="M192.882,521.522l-7.282-4.2,1.961-1.12,5.322,3.081Z" transform="translate(-168.738 -369.152)"/><path class="ai" d="M250.93,408.841,246,405.984V382.176L247.961,381l2.969,1.737Z" transform="translate(-195.303 -309.689)"/><path class="aj" d="M246,405.984l1.961-1.176V381L246,382.176Z" transform="translate(-195.303 -309.689)"/><path class="aj" d="M250.93,427.533,246,424.676l1.961-1.176,2.969,1.737Z" transform="translate(-195.303 -328.381)"/><path class="ai" d="M250.93,494.765,246,491.908V468.1l4.93,2.857Z" transform="translate(-195.303 -347.997)"/><path class="aj" d="M246,491.908l1.961-1.12V469.22L246,468.1Z" transform="translate(-195.303 -347.997)"/><path class="aj" d="M250.93,512.577,246,509.72l1.961-1.12,2.969,1.681Z" transform="translate(-195.303 -365.809)"/><path class="bl" d="M268.082,462.109l-7.282-4.2V434.1l7.282,4.2Z" transform="translate(-201.813 -333.043)"/><path class="bm" d="M260.8,457.908l1.961-1.12V435.22L260.8,434.1Z" transform="translate(-201.813 -333.043)"/><path class="bn" d="M268.082,479.922l-7.282-4.2,1.961-1.12,5.322,3.081Z" transform="translate(-201.813 -350.855)"/></g><path class="ai" d="M2420.308,850.178l44.051,25.761,46.209-25.761-46.209-26.689Z" transform="translate(-2361.623 -762.406)"/><path class="bo" d="M2444.069,755.835l-44.031-25.663L2374.613,550.41h148.682l-32.512,179.761Z" transform="translate(-2341.526 -642.302)"/></g><g transform="translate(-485.553 575.547)"><path class="ea" d="M403,146.608s-15.917,1.657-18.136-9.408a95.229,95.229,0,0,0-34.585,20.887S343.923,176.9,337,182.169c0,0-11.213,49.525,31.124,60.176C368.153,242.345,405.9,199.477,403,146.608Z" transform="translate(-21.265 -12.815)"/><path class="eb" d="M520.136,146.608S504.929,148.265,502,137.2c0,0,1.657,7.189,11.745,3.876C513.775,141.076,519.988,142.91,520.136,146.608Z" transform="translate(-138.396 -12.815)"/><path class="ec" d="M363.6,124.384s-2.071-3.609-7.751-5.384c0,0-21.035,6.509-34.437,22.426a53.6,53.6,0,0,1-14.793,25.443s-11.893,55.324,40.265,62.661c0,0-39.141-6.095-31.123-60.176,0,0,9.881-10,13.284-24.082C329.019,145.272,339.4,133.793,363.6,124.384Z" transform="translate(0 0)"/><g transform="translate(325.853 144.966)"><path class="ed" d="M392.269,272.481c12.426-7.722,23.047-5.325,25.029,5.74a30.661,30.661,0,0,1,.3,5.029,5.634,5.634,0,0,1-.533,2.16c-.473,1.213-1.095,2.426-1.657,3.639-.3.621-.651,1.154-1.213,1.272-.562.148-.651-.3-.621-.887.266-3.521.385-6.953-.385-9.793-2.041-7.16-9.26-9.26-17.81-5.029-7.485,3.728-13.846,10.029-19.023,18.727a2.97,2.97,0,0,1-1.213,1.331c-.473.177-.74.03-.74-.444a11.742,11.742,0,0,1,.3-2.84,8.881,8.881,0,0,1,1.213-2.663,57.125,57.125,0,0,1,14.23-14.793C390.79,273.457,391.53,273.013,392.269,272.481Z" transform="translate(-374.4 -249.868)"/><path class="ee" d="M412.246,310.416c-.385,3.166-.74,6.3-1.183,9.438-.266,2.13-1.686,3.935-3.4,5.562-.71.651-1.3.385-1.124-.473.3-1.568.71-3.254.947-4.822a40.671,40.671,0,0,0,.562-10.384c-.621-5.355-5.3-7.426-11.035-4.852-7.751,3.491-14.793,12.81-16.124,21.39-.089.5-.089.917-.177,1.361a2.054,2.054,0,0,1-.828,1.39c-.444.355-.828.385-1.006.059a15.432,15.432,0,0,1-1.183-2.958,4.161,4.161,0,0,1,.266-2.071,40.634,40.634,0,0,1,14.733-20.473c9.171-6.686,17.307-5.592,19.053,2.456.089.326.118.71.177,1.036.089,1.124.118,2.278.178,3.4A.226.226,0,0,0,412.246,310.416Z" transform="translate(-376.685 -271.857)"/><path class="ef" d="M399.452,242.583c11.6-6.893,20.828-7.84,27.573-2.515a4.252,4.252,0,0,1,1.42,3.58v2.4a1.963,1.963,0,0,1-.769,1.568c-.562.473-.917.355-1.124,0a13.985,13.985,0,0,0-1.657-2.219c-4.882-5.089-12.012-5.5-21.331-1.095-5.917,2.781-11.6,7.337-17.011,13.313-.118.178-.3.325-.444.5-.444.5-.828.74-1.183.562-.355-.118-.355-.533-.118-1.095a17.577,17.577,0,0,1,4.615-7.041A62.762,62.762,0,0,1,399.452,242.583Z" transform="translate(-381.612 -227.811)"/><path class="eg" d="M419.01,337.434a55.4,55.4,0,0,1-2.219,13.284,4.633,4.633,0,0,1-2.515,3.314,7.189,7.189,0,0,1-.769.444c-.858.5-1.3.177-.947-.888a47.466,47.466,0,0,0,2.574-15.3c0-3.343-2.6-4.319-5.917-2.248-3.254,2.041-5.828,6.3-5.858,9.615A29.582,29.582,0,0,1,402,354.89c-.473,1.509-1.124,2.041-2.041,1.716-.266-.089-.562-.207-.828-.3-.533-.237-.71-.74-.473-1.627a26.024,26.024,0,0,0,.769-6.538c0-4.822,3.225-10.739,7.958-14.7,5.385-4.467,10.858-3.964,11.479,1.095C418.98,335.482,418.98,336.458,419.01,337.434Z" transform="translate(-391.407 -293.817)"/><path class="eh" d="M424.945,212.31A45.162,45.162,0,0,1,439,206.926a8.164,8.164,0,0,1,7.219,2.041c.3.237.266.71-.118,1.331a1.508,1.508,0,0,1-1.391.828,24.2,24.2,0,0,0-9.467.8,50.332,50.332,0,0,0-16.6,8.284c-.533.355-.917.473-1.183.177a1.21,1.21,0,0,1,.3-1.331c2.13-2.515,4.29-5,6.834-6.568A.794.794,0,0,0,424.945,212.31Z" transform="translate(-404.65 -206.768)"/><path class="ei" d="M425.881,364.481a42.638,42.638,0,0,1-2.574,12.781c-.473,1.3-.828,1.657-1.864,1.864-.473.089-.917.148-1.391.207-.533.03-.71-.355-.444-1.035a36.208,36.208,0,0,0,2.337-12.988,4.065,4.065,0,0,1,1.953-3.254c1.124-.71,1.923-.325,1.923.888A13.38,13.38,0,0,1,425.881,364.481Z" transform="translate(-406.148 -315.863)"/></g></g></g></g></svg>