<svg xmlns="http://www.w3.org/2000/svg" viewBox="0 0 22.39 21.838"><defs><style>.a{fill:#e2c7ff;}</style></defs><path class="a" d="M11.195,0A11.2,11.2,0,0,0,7.656,21.818c.559.1.74-.243.74-.538V19.2c-3.114.677-3.762-1.321-3.762-1.321A2.965,2.965,0,0,0,3.39,16.236c-1.016-.7.077-.68.077-.68A2.35,2.35,0,0,1,5.183,16.71a2.383,2.383,0,0,0,3.258.93,2.375,2.375,0,0,1,.711-1.5c-2.486-.285-5.1-1.244-5.1-5.533a4.333,4.333,0,0,1,1.153-3,4.027,4.027,0,0,1,.109-2.963s.94-.3,3.08,1.147a10.611,10.611,0,0,1,5.606,0c2.137-1.448,3.076-1.147,3.076-1.147a4.023,4.023,0,0,1,.11,2.963,4.321,4.321,0,0,1,1.152,3c0,4.3-2.619,5.247-5.111,5.524a2.676,2.676,0,0,1,.768,2.073v3.072c0,.3.179.647.747.537A11.2,11.2,0,0,0,11.195,0Z"/></svg>