<svg xmlns="http://www.w3.org/2000/svg" viewBox="0 0 31.174 30.406">
  <defs>
    <style>
      .cls-1 {
        fill: #fff;
      }
    </style>
  </defs>
  <path id="github_icon" class="cls-1" d="M15.587,0A15.589,15.589,0,0,0,10.66,30.378c.778.144,1.03-.339,1.03-.749v-2.9c-4.336.943-5.239-1.839-5.239-1.839A4.128,4.128,0,0,0,4.72,22.607c-1.415-.968.108-.947.108-.947a3.272,3.272,0,0,1,2.389,1.607,3.318,3.318,0,0,0,4.536,1.3,3.307,3.307,0,0,1,.99-2.083c-3.462-.4-7.1-1.733-7.1-7.7A6.033,6.033,0,0,1,7.247,10.59,5.607,5.607,0,0,1,7.4,6.465s1.309-.418,4.288,1.6a14.774,14.774,0,0,1,7.805,0c2.976-2.016,4.283-1.6,4.283-1.6a5.6,5.6,0,0,1,.153,4.125,6.017,6.017,0,0,1,1.6,4.184c0,5.987-3.646,7.305-7.117,7.691a3.726,3.726,0,0,1,1.069,2.886v4.277c0,.414.249.9,1.04.748A15.59,15.59,0,0,0,15.587,0Z"/>
</svg>
