<svg xmlns="http://www.w3.org/2000/svg" xmlns:xlink="http://www.w3.org/1999/xlink" viewBox="0 0 182.94 168.236">
  <defs>
    <style>
      .cls-1 {
        fill: url(#radial-gradient);
      }

      .cls-2 {
        fill: #fff;
      }

      .cls-3 {
        fill: url(#linear-gradient);
      }

      .cls-4, .cls-5 {
        stroke: none;
      }

      .cls-5 {
        fill: #46b1fa;
      }
    </style>
    <radialGradient id="radial-gradient" cx="0.5" cy="0.5" r="0.5" gradientUnits="objectBoundingBox">
      <stop offset="0" stop-color="#fff" stop-opacity="0.424"/>
      <stop offset="0.675" stop-color="#fff" stop-opacity="0.463"/>
      <stop offset="1" stop-color="#fff"/>
    </radialGradient>
    <linearGradient id="linear-gradient" x1="0.5" x2="0.5" y2="1.255" gradientUnits="objectBoundingBox">
      <stop offset="0" stop-color="#b067f9"/>
      <stop offset="1" stop-color="#e280ff"/>
    </linearGradient>
  </defs>
  <g id="ID" transform="translate(-471.893 -459.196)">
    <g id="Path_2752" data-name="Path 2752" class="cls-1" transform="translate(285.193 376.696)">
      <path class="cls-4" d="M 307.4607543945312 247.7360382080078 L 248.8793029785156 247.7360382080078 C 239.3550872802734 247.7360382080078 227.3119049072266 240.7785339355469 222.5809020996094 232.5431671142578 L 222.5792236328125 232.5402221679688 L 222.5775146484375 232.5372772216797 L 193.2868041992188 181.8161926269531 C 192.1338348388672 179.8239288330078 191.2365417480469 177.4744262695312 190.6184844970703 174.83056640625 C 190.009033203125 172.2236480712891 189.7000427246094 169.4605407714844 189.7000427246094 166.6180114746094 C 189.7000427246094 163.7754516601562 190.009033203125 161.0123596191406 190.6184844970703 158.4054260253906 C 191.2365417480469 155.7615661621094 192.1338348388672 153.4120941162109 193.2854156494141 151.4222412109375 L 222.5775146484375 100.6987228393555 C 223.7287292480469 98.70954132080078 225.3179626464844 96.75827789306641 227.2997283935547 94.90156555175781 C 229.2538299560547 93.07074737548828 231.4915924072266 91.42174530029297 233.9508819580078 90.00038146972656 C 236.4103851318359 88.57884979248047 238.9544677734375 87.46419525146484 241.5124359130859 86.68732452392578 C 244.1066131591797 85.89948272705078 246.585205078125 85.50001525878906 248.8793029785156 85.50001525878906 L 307.4607543945312 85.50001525878906 C 316.9849853515625 85.50001525878906 329.0281677246094 92.45748138427734 333.7591247558594 100.6928253173828 L 333.7605590820312 100.6953506469727 L 333.7620239257812 100.6978530883789 L 363.052734375 151.4580383300781 C 364.2062072753906 153.451171875 365.1034851074219 155.8006744384766 365.7215576171875 158.4445343017578 C 366.3310241699219 161.0514526367188 366.6400146484375 163.8145599365234 366.6400146484375 166.6571197509766 C 366.6400146484375 169.4996490478516 366.3310241699219 172.2627410888672 365.7215576171875 174.8696746826172 C 365.1034851074219 177.5135345458984 364.2062072753906 179.863037109375 363.0546264648438 181.8528747558594 L 333.7630004882812 232.5364074707031 C 332.611328125 234.5264587402344 331.0220947265625 236.4777221679688 329.0403442382812 238.3344573974609 C 327.0862121582031 240.1652679443359 324.8484497070312 241.8142700195312 322.38916015625 243.2356414794922 C 319.9296569824219 244.6571655273438 317.3855895996094 245.7718505859375 314.8276062011719 246.5486907958984 C 312.2334289550781 247.3365631103516 309.7548522949219 247.7360382080078 307.4607543945312 247.7360382080078 Z"/>
      <path class="cls-5" d="M 307.4607543945312 244.7360382080078 C 315.86474609375 244.7360382080078 326.9425964355469 238.3323669433594 331.1655883789062 231.0352783203125 L 360.4580993652344 180.3502197265625 C 364.6795654296875 173.0557403564453 364.6795654296875 160.2584533691406 360.4543151855469 152.9574584960938 L 331.1578369140625 102.1872177124023 C 326.9691467285156 94.89589691162109 315.895751953125 88.50001525878906 307.4607543945312 88.50001525878906 L 248.8793029785156 88.50001525878906 C 240.475341796875 88.50001525878906 229.3974609375 94.90365600585938 225.1754608154297 102.1989822387695 L 195.8819274902344 152.9249267578125 C 191.6604614257812 160.2193603515625 191.6604614257812 173.0166625976562 195.8847198486328 180.31591796875 L 225.1822204589844 231.0487823486328 C 229.3708953857422 238.3401336669922 240.4442749023438 244.7360382080078 248.8793029785156 244.7360382080078 L 307.4607543945312 244.7360382080078 M 307.4607543945312 250.7360382080078 L 248.8793029785156 250.7360382080078 C 238.2814178466797 250.7360382080078 225.2589874267578 243.2275390625 219.9795989990234 234.0375366210938 L 190.6888732910156 183.3164520263672 C 185.3703918457031 174.1264190673828 185.3703918457031 159.1095733642578 190.6888732910156 149.9195709228516 L 219.9795989990234 99.19845581054688 C 225.298095703125 90.00845336914062 238.2814178466797 82.50001525878906 248.8793029785156 82.50001525878906 L 307.4607543945312 82.50001525878906 C 318.0586242675781 82.50001525878906 331.0810546875 90.00845336914062 336.3604431152344 99.19845581054688 L 365.6511535644531 149.9586639404297 C 370.9696350097656 159.1486511230469 370.9696350097656 174.1655426025391 365.6511535644531 183.3555755615234 L 336.3604431152344 234.0375366210938 C 331.0419921875 243.2275390625 318.0586242675781 250.7360382080078 307.4607543945312 250.7360382080078 Z"/>
    </g>
    <path id="Path_2754" data-name="Path 2754" class="cls-2" d="M228.282,195.007c-7.087,0-15.8-5.021-19.327-11.167l-19.588-33.92c-3.557-6.146-3.557-16.188,0-22.334l19.588-33.92c3.557-6.146,12.239-11.167,19.327-11.167h39.176c7.087,0,15.8,5.021,19.327,11.167l19.588,33.946c3.557,6.146,3.557,16.188,0,22.334L286.785,183.84c-3.557,6.146-12.239,11.167-19.327,11.167Z" transform="translate(315.493 404.56)"/>
    <g id="identity_icon" transform="translate(-423.857 -1334)">
      <g id="noun_1375598_cc" transform="translate(944.505 1838.008)">
        <path id="Path_1124" data-name="Path 1124" class="cls-3" d="M5.843,47.868h.245a2.042,2.042,0,0,0,1.789-2.3,33.991,33.991,0,0,1,67.511-8,2.056,2.056,0,0,0,4.085-.482A38.077,38.077,0,1,0,3.85,46.079a2.042,2.042,0,0,0,1.993,1.789Z" transform="translate(0 0)"/>
        <path id="Path_1125" data-name="Path 1125" class="cls-3" d="M41.251,86.992a2.042,2.042,0,0,0,2.737-.915,64.839,64.839,0,0,0,6.356-36.664,2.056,2.056,0,0,0-4.085.482A60.763,60.763,0,0,1,40.3,84.255a2.042,2.042,0,0,0,.948,2.737Z" transform="translate(-6.685 -8.072)"/>
        <path id="Path_1126" data-name="Path 1126" class="cls-3" d="M79.876,73.315a2.042,2.042,0,0,0,2.4-1.634A92.027,92.027,0,0,0,83.43,42.607a29.066,29.066,0,0,0-5.473-13.79,2.042,2.042,0,1,0-3.268,2.451A24.982,24.982,0,0,1,79.4,43.162a87.95,87.95,0,0,1-1.1,27.775A2.042,2.042,0,0,0,79.876,73.315Z" transform="translate(-12.943 -4.484)"/>
        <path id="Path_1127" data-name="Path 1127" class="cls-3" d="M13.11,66.542a2.042,2.042,0,0,0,2.663-1.119,38.11,38.11,0,0,0,2.557-18.879A24.982,24.982,0,0,1,54.823,21.522a2.043,2.043,0,0,0,1.912-3.611,29.066,29.066,0,0,0-42.48,29.115,34.017,34.017,0,0,1-2.287,16.853,2.042,2.042,0,0,0,1.144,2.663Z" transform="translate(-1.508 -2.017)"/>
        <path id="Path_1128" data-name="Path 1128" class="cls-3" d="M50.492,85.369a2.042,2.042,0,0,0,2.68-1.062,74.087,74.087,0,0,0,5.482-37.963A11.053,11.053,0,1,0,36.7,48.951a52.651,52.651,0,0,1,.335,7.851,2.043,2.043,0,1,0,4.085.131,56.662,56.662,0,0,0-.359-8.463A6.968,6.968,0,1,1,54.6,46.835a70,70,0,0,1-5.18,35.839,2.042,2.042,0,0,0,1.07,2.7Z" transform="translate(-6.049 -6.058)"/>
        <path id="Path_1129" data-name="Path 1129" class="cls-3" d="M30.5,89.019A2.042,2.042,0,0,0,33.26,88.2,56.041,56.041,0,0,0,38,76.1a2.044,2.044,0,1,0-3.954-1.037,51.965,51.965,0,0,1-4.4,11.225,2.042,2.042,0,0,0,.85,2.737Z" transform="translate(-4.731 -12.82)"/>
        <path id="Path_1130" data-name="Path 1130" class="cls-3" d="M64.292,43.794a2.042,2.042,0,0,0,2.018,1.732h.27a2.042,2.042,0,0,0,1.765-2.271A20.08,20.08,0,0,0,42.088,26.581a2.047,2.047,0,0,0,1.307,3.88A15.987,15.987,0,0,1,64.308,43.77Z" transform="translate(-6.795 -4.038)"/>
        <path id="Path_1131" data-name="Path 1131" class="cls-3" d="M66.561,86.926a2.042,2.042,0,0,0,2.549-1.307,82.567,82.567,0,0,0,4.215-23.691,2.043,2.043,0,1,0-4.085-.123,78.474,78.474,0,0,1-4,22.547,2.042,2.042,0,0,0,1.323,2.573Z" transform="translate(-11.27 -10.311)"/>
        <path id="Path_1132" data-name="Path 1132" class="cls-3" d="M21.141,77.33a2.042,2.042,0,0,0,2.753-.882,46.851,46.851,0,0,0,4.9-27.089A16,16,0,0,1,31.246,38.78a2.042,2.042,0,0,0-3.423-2.222,20.088,20.088,0,0,0-3.1,13.275,42.774,42.774,0,0,1-4.46,24.736,2.042,2.042,0,0,0,.882,2.761Z" transform="translate(-3.011 -5.894)"/>
      </g>
    </g>
  </g>
</svg>
