<svg xmlns="http://www.w3.org/2000/svg" viewBox="0 0 108 106.367">
    <defs>
        <style>
            .cls-1{fill:#a3b8ca}.cls-2{fill:#a391f0}
        </style>
    </defs>
    <g id="ID_data_protection" transform="translate(-152 -2430)">
        <path id="Subtraction_37" d="M-4272 106.367h-108V101.3h32.518v-5.06H-4380v-5.068h45.184V81.045h-37.984l-5.068-60.784h5.068V10.13h5.064V0h30.39l5.065 10.13h50.653v10.131h5.063l-5.063 60.784h-37.989v10.127H-4272v5.067h-34.959v5.06H-4272v5.066zm-70.414-10.128v5.06h30.39v-5.06h-12.665v-15.2h-5.063v15.2zm-29.953-70.915l4.222 50.652h81.85l4.221-50.652zm4.626-10.129v5.065h81.04V15.2h-48.713l-1.4-2.8-3.666-7.331h-22.2V15.2z" class="cls-1" data-name="Subtraction 37" transform="translate(4532 2430)"/>
        <g id="noun_Lock_1223610" transform="translate(60 2659.939)">
            <path id="Path_5578" d="M38.228 21.378v-6.043a9.273 9.273 0 1 0-18.546 0v6.043c-3.1.209-5.744.43-5.744 2.708v15.6c0 2.322 2.746 2.507 5.926 2.72 2.406.162 5.634.25 9.091.25s6.685-.089 9.091-.25c3.18-.214 5.926-.4 5.926-2.72v-15.6c-.001-2.278-2.643-2.499-5.744-2.708zm-9.273-11.343a5.306 5.306 0 0 1 5.3 5.3v5.856c-1.64-.049-3.434-.076-5.3-.076s-3.659.027-5.3.076v-5.856a5.306 5.306 0 0 1 5.3-5.3zM40 38.238a102.536 102.536 0 0 1-11.043.443 102.535 102.535 0 0 1-11.043-.443V25.532a102.53 102.53 0 0 1 11.043-.443A102.53 102.53 0 0 1 40 25.532z" class="cls-2" data-name="Path 5578" transform="translate(116 -204)"/>
        </g>
    </g>
</svg>
