<svg xmlns="http://www.w3.org/2000/svg" xmlns:xlink="http://www.w3.org/1999/xlink" viewBox="0 0 266.121 225.192">
  <defs>
    <style>
      .cls-1 {
        opacity: 0.08;
      }

      .cls-2, .cls-3, .cls-34, .cls-6, .cls-8 {
        fill: #fff;
      }

      .cls-2 {
        opacity: 0.3;
      }

      .cls-15, .cls-3 {
        opacity: 0.5;
      }

      .cls-4 {
        fill: #c2c1c1;
      }

      .cls-5 {
        fill: #f4f4f4;
      }

      .cls-16, .cls-6 {
        opacity: 0.2;
      }

      .cls-7 {
        fill: #a8aaad;
      }

      .cls-9 {
        fill: #2e393c;
      }

      .cls-10 {
        fill: #1b466c;
      }

      .cls-11 {
        clip-path: url(#clip-path);
      }

      .cls-12 {
        fill: #cde2f5;
      }

      .cls-13, .cls-15, .cls-16 {
        fill: #d88f69;
      }

      .cls-14 {
        fill: #f2aa83;
      }

      .cls-17 {
        fill: #56341a;
      }

      .cls-18 {
        fill: #d5dce0;
      }

      .cls-19 {
        fill: #b62025;
      }

      .cls-20 {
        fill: #e2e8ec;
      }

      .cls-21 {
        fill: #20404b;
      }

      .cls-22 {
        fill: url(#linear-gradient);
      }

      .cls-23 {
        fill: #e0e0e0;
      }

      .cls-24 {
        fill: #1a1a1a;
      }

      .cls-25 {
        fill: #868686;
      }

      .cls-26 {
        fill: url(#linear-gradient-2);
      }

      .cls-27 {
        fill: #d5dee8;
      }

      .cls-28 {
        fill: #c6c5c5;
      }

      .cls-29 {
        fill: #98bee5;
      }

      .cls-30 {
        fill: #4c4c4d;
      }

      .cls-31 {
        fill: #94c43d;
      }

      .cls-32 {
        fill: #b1c2d2;
      }

      .cls-33 {
        fill: #bcd0e1;
      }

      .cls-34 {
        opacity: 0.32;
      }

      .cls-35 {
        fill: url(#linear-gradient-3);
      }

      .cls-36 {
        clip-path: url(#clip-path-3);
      }
    </style>
    <clipPath id="clip-path">
      <path id="Path_4905" data-name="Path 4905" d="M335.25,302.748a.924.924,0,0,1,0,1.746l-35.188,20.344a3.329,3.329,0,0,1-3.012,0L251.3,298.426a.924.924,0,0,1,0-1.746l35.188-20.344a3.329,3.329,0,0,1,3.012,0Z" transform="translate(-250.675 -275.975)"/>
    </clipPath>
    <linearGradient id="linear-gradient" x1="0.552" y1="0.151" x2="0.38" y2="1" gradientUnits="objectBoundingBox">
      <stop offset="0" stop-color="#00baff"/>
      <stop offset="0.606" stop-color="#82deff" stop-opacity="0.302"/>
      <stop offset="1" stop-color="#baedff" stop-opacity="0"/>
    </linearGradient>
    <linearGradient id="linear-gradient-2" x1="-5.759" y1="0.5" x2="-4.759" y2="0.5" gradientUnits="objectBoundingBox">
      <stop offset="0" stop-color="#b4b4b4"/>
      <stop offset="0.041" stop-color="#bdbdbd"/>
      <stop offset="0.619" stop-color="#bdbdbd"/>
      <stop offset="0.625" stop-color="#c2c2c2"/>
      <stop offset="0.648" stop-color="#d0d0d0"/>
      <stop offset="0.666" stop-color="#d6d5d5"/>
      <stop offset="0.707" stop-color="#f1f0f0"/>
      <stop offset="0.977" stop-color="#f1f0f0"/>
      <stop offset="1" stop-color="#fff"/>
    </linearGradient>
    <linearGradient id="linear-gradient-3" x1="0.004" y1="0.619" x2="0.992" y2="0.436" gradientUnits="objectBoundingBox">
      <stop offset="0" stop-color="red" stop-opacity="0"/>
      <stop offset="0.488" stop-color="#e20000"/>
      <stop offset="1" stop-color="red" stop-opacity="0"/>
    </linearGradient>
    <clipPath id="clip-path-3">
      <path id="Path_4905-2" data-name="Path 4905" d="M359.033,310.276a1.184,1.184,0,0,1,0,2.237L313.95,338.579a4.266,4.266,0,0,1-3.859,0l-58.619-33.84a1.184,1.184,0,0,1,0-2.237l45.083-26.065a4.266,4.266,0,0,1,3.859,0Z" transform="translate(-250.675 -275.975)"/>
    </clipPath>
  </defs>
  <g id="Integrated_Video_ID_illustration" transform="translate(-845.329 -3667.094)">
    <path id="Path_4937" data-name="Path 4937" class="cls-1" d="M851.817,3862.977l78.3,47.833s6.482,4.176,12.9,0,116.906-69.541,116.906-69.541l-90.884-45.661Z" transform="translate(-6.465 -20.381)"/>
    <g id="identity_card" transform="translate(845.329 3761.661)">
      <path id="Path_4813" data-name="Path 4813" class="cls-2" d="M397.892,204.846l-74.087-42.741a10.171,10.171,0,0,0-9.124,0L197.591,229.687c-2.488,1.441-2.488,3.8,0,5.283l74.087,42.741a10.171,10.171,0,0,0,9.124,0l117.089-67.582C400.38,208.644,400.38,206.287,397.892,204.846Z" transform="translate(-195.703 -161.025)"/>
      <path id="Path_4814" data-name="Path 4814" class="cls-3" d="M397.864,270.977,280.774,338.6a10.171,10.171,0,0,1-9.124,0l-74.087-43.134a3.744,3.744,0,0,1-1.746-1.877c-.437,1.179.131,2.488,1.746,3.405l74.087,43.09a10.171,10.171,0,0,0,9.124,0l117.089-67.582c1.572-.917,2.183-2.227,1.746-3.405A3.744,3.744,0,0,1,397.864,270.977Z" transform="translate(-195.675 -221.917)"/>
      <g id="Group_1700" data-name="Group 1700" transform="translate(10.118 5.228)">
        <g id="Group_1699" data-name="Group 1699" transform="translate(0 0.568)">
          <path id="Path_4815" data-name="Path 4815" class="cls-4" d="M402.932,214.29a.7.7,0,0,1,0,1.31L290.383,280.562a2.59,2.59,0,0,1-2.27,0l-68.8-39.728a.7.7,0,0,1,0-1.31l112.549-64.962a2.59,2.59,0,0,1,2.27,0Z" transform="translate(-218.85 -174.3)"/>
        </g>
        <path id="Path_4816" data-name="Path 4816" class="cls-5" d="M402.988,212.99l-68.8-39.728a2.59,2.59,0,0,0-2.27,0L219.408,238.224a.7.7,0,0,0,0,1.31l68.8,39.728a2.591,2.591,0,0,0,2.27,0L403.032,214.3C403.643,213.907,403.643,213.34,402.988,212.99Z" transform="translate(-218.906 -173)"/>
      </g>
      <path id="Path_4817" data-name="Path 4817" class="cls-6" d="M197.591,304.709c-2.488,1.441-2.488,3.8,0,5.283l74.087,42.7a10.171,10.171,0,0,0,9.124,0L349.519,313c-52.564-13.054-107.31-15.105-133.548-18.9Z" transform="translate(-195.703 -236.003)"/>
      <g id="Group_1716" data-name="Group 1716" transform="translate(24.012 16.44)">
        <g id="Group_1713" data-name="Group 1713">
          <g id="Group_1703" data-name="Group 1703" transform="translate(58.25 8.303)">
            <path id="Path_4818" data-name="Path 4818" class="cls-7" d="M438.366,218.006l-53.7,31.04-.568-.349,53.742-31Z" transform="translate(-384.1 -217.7)"/>
            <path id="Path_4819" data-name="Path 4819" class="cls-7" d="M493.866,250.006l-53.742,31.041-.524-.306L493.342,249.7Z" transform="translate(-415.37 -235.73)"/>
            <path id="Path_4820" data-name="Path 4820" class="cls-7" d="M466.11,234.006l-53.742,31.04-.568-.306,53.742-31.04Z" transform="translate(-399.707 -226.715)"/>
          </g>
          <g id="Group_1707" data-name="Group 1707" transform="translate(78.158)">
            <path id="Path_4821" data-name="Path 4821" class="cls-8" d="M519.2,262.4,463.315,294.66l-7.815-4.5L511.382,257.9Z" transform="translate(-444.236 -232.046)"/>
            <g id="Group_1704" data-name="Group 1704" transform="translate(12.966 42.531)">
              <path id="Path_4822" data-name="Path 4822" class="cls-9" d="M465.818,334.885l.349-.175L459.749,331l-.349.175Z" transform="translate(-459.4 -315.763)"/>
              <path id="Path_4823" data-name="Path 4823" class="cls-9" d="M475.318,329.429l.349-.218-6.461-3.711-.306.218Z" transform="translate(-464.753 -312.665)"/>
              <path id="Path_4824" data-name="Path 4824" class="cls-9" d="M485.418,323.586l.349-.175-6.418-3.711-.349.175Z" transform="translate(-470.443 -309.397)"/>
              <path id="Path_4825" data-name="Path 4825" class="cls-9" d="M492.118,319.686l.349-.175-6.418-3.711-.349.175Z" transform="translate(-474.218 -307.199)"/>
              <path id="Path_4826" data-name="Path 4826" class="cls-9" d="M481.418,325.885l.349-.218L475.349,322l-.349.175Z" transform="translate(-468.189 -310.693)"/>
              <path id="Path_4827" data-name="Path 4827" class="cls-9" d="M470.918,331.591l.829-.48-6.461-3.711-.786.48Z" transform="translate(-462.273 -313.735)"/>
              <path id="Path_4828" data-name="Path 4828" class="cls-9" d="M479.118,326.891l.786-.48-6.418-3.711-.786.48Z" transform="translate(-466.894 -311.087)"/>
              <path id="Path_4829" data-name="Path 4829" class="cls-9" d="M488.861,321.247l.786-.437-6.418-3.711-.829.437Z" transform="translate(-472.359 -307.932)"/>
              <path id="Path_4830" data-name="Path 4830" class="cls-9" d="M467.318,334.1l.218-.087-6.418-3.711-.218.087Z" transform="translate(-460.245 -315.369)"/>
              <path id="Path_4831" data-name="Path 4831" class="cls-9" d="M468.318,333.542l.218-.131-6.418-3.711-.218.131Z" transform="translate(-460.809 -315.031)"/>
              <path id="Path_4832" data-name="Path 4832" class="cls-9" d="M477.918,328l.218-.087-6.418-3.711-.218.087Z" transform="translate(-466.217 -311.932)"/>
              <path id="Path_4833" data-name="Path 4833" class="cls-9" d="M491.061,320.4l.218-.087-6.461-3.711-.218.131Z" transform="translate(-473.598 -307.65)"/>
              <path id="Path_4834" data-name="Path 4834" class="cls-9" d="M493.518,319.042l.218-.131-6.461-3.711-.175.131Z" transform="translate(-475.007 -306.861)"/>
              <path id="Path_4835" data-name="Path 4835" class="cls-9" d="M473.118,330.742l.218-.131-6.418-3.711-.218.131Z" transform="translate(-463.513 -313.454)"/>
              <path id="Path_4836" data-name="Path 4836" class="cls-9" d="M483.518,324.742l.218-.131-6.461-3.711-.175.131Z" transform="translate(-469.373 -310.073)"/>
              <path id="Path_4837" data-name="Path 4837" class="cls-9" d="M484.418,324.242l.218-.131-6.418-3.711-.218.131Z" transform="translate(-469.88 -309.791)"/>
              <path id="Path_4838" data-name="Path 4838" class="cls-9" d="M486.818,322.842l.218-.131L480.618,319l-.218.131Z" transform="translate(-471.232 -309.002)"/>
              <path id="Path_4839" data-name="Path 4839" class="cls-9" d="M474.118,330.242l.218-.131-6.418-3.711-.218.131Z" transform="translate(-464.076 -313.172)"/>
              <path id="Path_4840" data-name="Path 4840" class="cls-9" d="M495.518,317.786l.349-.218-6.461-3.667-.306.175Z" transform="translate(-476.134 -306.129)"/>
              <path id="Path_4841" data-name="Path 4841" class="cls-9" d="M519.918,303.629l.349-.218-6.418-3.711-.349.218Z" transform="translate(-489.881 -298.128)"/>
              <path id="Path_4842" data-name="Path 4842" class="cls-9" d="M509.818,309.486l.349-.175-6.418-3.711-.349.175Z" transform="translate(-484.191 -301.453)"/>
              <path id="Path_4843" data-name="Path 4843" class="cls-9" d="M503.061,313.385l.306-.175-6.418-3.711-.349.175Z" transform="translate(-480.359 -303.65)"/>
              <path id="Path_4844" data-name="Path 4844" class="cls-9" d="M513.718,307.229l.349-.218-6.418-3.711-.349.218Z" transform="translate(-486.388 -300.157)"/>
              <path id="Path_4845" data-name="Path 4845" class="cls-9" d="M500.718,314.729l.349-.218-6.418-3.711-.349.218Z" transform="translate(-479.064 -304.382)"/>
              <path id="Path_4846" data-name="Path 4846" class="cls-9" d="M523.218,301.391l.786-.48-6.418-3.711-.786.48Z" transform="translate(-491.741 -296.72)"/>
              <path id="Path_4847" data-name="Path 4847" class="cls-9" d="M515.018,306.091l.829-.48-6.418-3.711-.829.48Z" transform="translate(-487.121 -299.368)"/>
              <path id="Path_4848" data-name="Path 4848" class="cls-9" d="M505.261,311.747l.786-.437-6.418-3.711-.829.48Z" transform="translate(-481.599 -302.579)"/>
              <path id="Path_4849" data-name="Path 4849" class="cls-9" d="M497.018,317l.218-.087-6.461-3.711-.175.087Z" transform="translate(-476.979 -305.735)"/>
              <path id="Path_4850" data-name="Path 4850" class="cls-9" d="M497.918,316.442l.218-.131-6.418-3.711-.218.131Z" transform="translate(-477.486 -305.397)"/>
              <path id="Path_4851" data-name="Path 4851" class="cls-9" d="M517.561,305.1l.218-.087-6.461-3.711-.218.087Z" transform="translate(-488.529 -299.03)"/>
              <path id="Path_4852" data-name="Path 4852" class="cls-9" d="M504.418,312.7l.218-.087-6.418-3.711-.218.087Z" transform="translate(-481.148 -303.312)"/>
              <path id="Path_4853" data-name="Path 4853" class="cls-9" d="M502.018,314.1l.218-.131-6.418-3.667-.218.087Z" transform="translate(-479.796 -304.101)"/>
              <path id="Path_4854" data-name="Path 4854" class="cls-9" d="M499.661,315.442l.218-.131-6.461-3.711-.218.131Z" transform="translate(-478.444 -304.833)"/>
              <path id="Path_4855" data-name="Path 4855" class="cls-9" d="M522.418,302.342l.218-.131-6.418-3.711-.218.131Z" transform="translate(-491.29 -297.452)"/>
              <path id="Path_4856" data-name="Path 4856" class="cls-9" d="M512.018,308.342l.218-.131-6.418-3.711-.218.131Z" transform="translate(-485.43 -300.833)"/>
              <path id="Path_4857" data-name="Path 4857" class="cls-9" d="M511.018,308.842l.218-.131L504.818,305l-.218.131Z" transform="translate(-484.867 -301.115)"/>
              <path id="Path_4858" data-name="Path 4858" class="cls-9" d="M508.618,310.242l.218-.131-6.418-3.711-.218.131Z" transform="translate(-483.515 -301.903)"/>
              <path id="Path_4859" data-name="Path 4859" class="cls-9" d="M521.418,302.9l.218-.087-6.418-3.711-.218.087Z" transform="translate(-490.726 -297.79)"/>
              <path id="Path_4860" data-name="Path 4860" class="cls-9" d="M520.1,296.231l6.418,3.711.218-.131-6.418-3.711Z" transform="translate(-493.6 -296.1)"/>
              <path id="Path_4861" data-name="Path 4861" class="cls-9" d="M525.518,300.542l.218-.131-6.418-3.711-.218.131Z" transform="translate(-493.036 -296.438)"/>
            </g>
            <g id="Group_1705" data-name="Group 1705" transform="translate(40.252 26.77)">
              <path id="Path_4862" data-name="Path 4862" class="cls-9" d="M528.361,298.785l.306-.175-6.418-3.711-.349.175Z" transform="translate(-521.9 -279.664)"/>
              <path id="Path_4863" data-name="Path 4863" class="cls-9" d="M537.818,293.329l.349-.218-6.418-3.711-.349.218Z" transform="translate(-527.253 -276.565)"/>
              <path id="Path_4864" data-name="Path 4864" class="cls-9" d="M547.918,287.485l.349-.175-6.418-3.711-.349.175Z" transform="translate(-532.943 -273.297)"/>
              <path id="Path_4865" data-name="Path 4865" class="cls-9" d="M554.618,283.585l.349-.175-6.418-3.711-.349.175Z" transform="translate(-536.718 -271.099)"/>
              <path id="Path_4866" data-name="Path 4866" class="cls-9" d="M543.961,289.785l.306-.175-6.418-3.711-.349.175Z" transform="translate(-530.689 -274.593)"/>
              <path id="Path_4867" data-name="Path 4867" class="cls-9" d="M533.418,295.491l.829-.48-6.418-3.711-.829.48Z" transform="translate(-524.773 -277.635)"/>
              <path id="Path_4868" data-name="Path 4868" class="cls-9" d="M541.618,290.791l.786-.48-6.418-3.711-.786.48Z" transform="translate(-529.394 -274.987)"/>
              <path id="Path_4869" data-name="Path 4869" class="cls-9" d="M551.418,285.147l.786-.437L545.786,281l-.786.437Z" transform="translate(-534.915 -271.832)"/>
              <path id="Path_4870" data-name="Path 4870" class="cls-9" d="M529.818,298.042l.218-.131-6.418-3.711-.218.131Z" transform="translate(-522.745 -279.269)"/>
              <path id="Path_4871" data-name="Path 4871" class="cls-9" d="M530.818,297.442l.218-.131-6.418-3.711-.218.131Z" transform="translate(-523.309 -278.931)"/>
              <path id="Path_4872" data-name="Path 4872" class="cls-9" d="M540.418,291.942l.218-.131-6.418-3.711-.218.131Z" transform="translate(-528.717 -275.832)"/>
              <path id="Path_4873" data-name="Path 4873" class="cls-9" d="M553.618,284.342l.218-.131-6.418-3.711-.218.131Z" transform="translate(-536.155 -271.55)"/>
              <path id="Path_4874" data-name="Path 4874" class="cls-9" d="M556.018,282.942l.218-.131-6.418-3.711-.218.131Z" transform="translate(-537.507 -270.761)"/>
              <path id="Path_4875" data-name="Path 4875" class="cls-9" d="M535.618,294.7l.218-.131-6.418-3.667-.218.087Z" transform="translate(-526.013 -277.41)"/>
              <path id="Path_4876" data-name="Path 4876" class="cls-9" d="M546.018,288.7l.218-.087-6.418-3.711-.218.087Z" transform="translate(-531.873 -274.029)"/>
              <path id="Path_4877" data-name="Path 4877" class="cls-9" d="M546.918,288.142l.218-.131-6.418-3.711-.218.131Z" transform="translate(-532.38 -273.691)"/>
              <path id="Path_4878" data-name="Path 4878" class="cls-9" d="M549.318,286.742l.218-.131-6.418-3.711-.218.131Z" transform="translate(-533.732 -272.902)"/>
              <path id="Path_4879" data-name="Path 4879" class="cls-9" d="M536.618,294.142l.218-.131-6.418-3.711-.218.131Z" transform="translate(-526.576 -277.072)"/>
              <path id="Path_4880" data-name="Path 4880" class="cls-9" d="M558.018,281.685l.349-.175-6.418-3.711-.349.175Z" transform="translate(-538.634 -270.029)"/>
              <path id="Path_4881" data-name="Path 4881" class="cls-9" d="M582.418,267.586l.349-.175-6.418-3.711-.349.175Z" transform="translate(-552.381 -262.085)"/>
              <path id="Path_4882" data-name="Path 4882" class="cls-9" d="M572.318,273.385l.349-.175-6.418-3.711-.349.175Z" transform="translate(-546.691 -265.353)"/>
              <path id="Path_4883" data-name="Path 4883" class="cls-9" d="M565.618,277.285l.349-.175-6.461-3.711-.306.175Z" transform="translate(-542.916 -267.55)"/>
              <path id="Path_4884" data-name="Path 4884" class="cls-9" d="M576.218,271.129l.349-.218-6.418-3.711-.349.218Z" transform="translate(-548.888 -264.057)"/>
              <path id="Path_4885" data-name="Path 4885" class="cls-9" d="M563.218,278.629l.349-.218-6.418-3.711-.349.218Z" transform="translate(-541.563 -268.282)"/>
              <path id="Path_4886" data-name="Path 4886" class="cls-9" d="M585.718,265.291l.829-.48-6.461-3.711-.786.48Z" transform="translate(-554.241 -260.62)"/>
              <path id="Path_4887" data-name="Path 4887" class="cls-9" d="M577.561,269.991l.786-.48-6.418-3.711-.83.48Z" transform="translate(-549.62 -263.268)"/>
              <path id="Path_4888" data-name="Path 4888" class="cls-9" d="M567.818,275.691l.786-.48-6.418-3.711-.786.48Z" transform="translate(-544.155 -266.479)"/>
              <path id="Path_4889" data-name="Path 4889" class="cls-9" d="M559.518,280.9l.218-.087-6.418-3.711-.218.131Z" transform="translate(-539.479 -269.635)"/>
              <path id="Path_4890" data-name="Path 4890" class="cls-9" d="M560.418,280.342l.218-.131-6.418-3.711-.218.131Z" transform="translate(-539.986 -269.297)"/>
              <path id="Path_4891" data-name="Path 4891" class="cls-9" d="M580.118,269.042l.218-.131-6.418-3.711-.218.131Z" transform="translate(-551.085 -262.93)"/>
              <path id="Path_4892" data-name="Path 4892" class="cls-9" d="M566.918,276.6l.218-.087-6.418-3.711-.218.131Z" transform="translate(-543.648 -267.212)"/>
              <path id="Path_4893" data-name="Path 4893" class="cls-9" d="M564.518,278l.218-.087-6.418-3.711-.218.087Z" transform="translate(-542.296 -268.001)"/>
              <path id="Path_4894" data-name="Path 4894" class="cls-9" d="M562.218,279.342l.218-.131-6.418-3.711-.218.131Z" transform="translate(-541 -268.733)"/>
              <path id="Path_4895" data-name="Path 4895" class="cls-9" d="M584.918,266.242l.218-.131-6.418-3.711-.218.131Z" transform="translate(-553.79 -261.352)"/>
              <path id="Path_4896" data-name="Path 4896" class="cls-9" d="M574.518,272.242l.218-.131-6.418-3.711-.218.131Z" transform="translate(-547.93 -264.733)"/>
              <path id="Path_4897" data-name="Path 4897" class="cls-9" d="M573.518,272.742l.218-.131-6.418-3.711-.218.131Z" transform="translate(-547.367 -265.015)"/>
              <path id="Path_4898" data-name="Path 4898" class="cls-9" d="M571.118,274.142l.218-.131-6.418-3.711-.218.131Z" transform="translate(-546.015 -265.803)"/>
              <path id="Path_4899" data-name="Path 4899" class="cls-9" d="M583.918,266.8l.218-.087L577.718,263l-.218.087Z" transform="translate(-553.226 -261.69)"/>
              <path id="Path_4900" data-name="Path 4900" class="cls-9" d="M582.6,260.131l6.418,3.711.218-.131L582.818,260Z" transform="translate(-556.1 -260)"/>
              <path id="Path_4901" data-name="Path 4901" class="cls-9" d="M588.018,264.442l.218-.131-6.418-3.711-.218.131Z" transform="translate(-555.536 -260.338)"/>
            </g>
            <g id="Group_1706" data-name="Group 1706">
              <path id="Path_4902" data-name="Path 4902" class="cls-10" d="M429.7,211.9l2.4-1.4,12.18,7.029-2.4,1.4Z" transform="translate(-429.7 -205.34)"/>
              <path id="Path_4903" data-name="Path 4903" class="cls-10" d="M440.5,202.531a5.454,5.454,0,0,1,.742-.524c.306-.175.568-.393.917-.568.306-.175.611-.393.917-.568s.568-.349.829-.48a12.746,12.746,0,0,1,3.231-1.353,11.035,11.035,0,0,1,3.143-.349,12.121,12.121,0,0,1,3.012.524,14.861,14.861,0,0,1,2.838,1.266,8.75,8.75,0,0,1,2.052,1.572,3.387,3.387,0,0,1,1,1.79,2.709,2.709,0,0,1-.48,1.921,6.824,6.824,0,0,1-2.4,2.008c-.175.087-.437.262-.742.437s-.655.349-1,.524-.7.349-1,.524-.568.262-.742.349Zm5.719-1.048c-.262.131-.524.306-.742.437a5.172,5.172,0,0,0-.524.349l8.164,4.715a.675.675,0,0,0,.262-.131,1.768,1.768,0,0,0,.393-.218c.131-.087.262-.131.393-.218.131-.044.218-.131.262-.131a3.21,3.21,0,0,0,1.31-1.179,1.415,1.415,0,0,0,.131-1.179,2.358,2.358,0,0,0-.829-1.091,7.584,7.584,0,0,0-1.441-1,13.123,13.123,0,0,0-1.572-.742,6.32,6.32,0,0,0-1.79-.437,7.444,7.444,0,0,0-1.965.044A6.889,6.889,0,0,0,446.219,201.483Z" transform="translate(-435.785 -198.681)"/>
            </g>
          </g>
          <g id="Group_1711" data-name="Group 1711" transform="translate(0 33.745)">
            <g id="Group_1708" data-name="Group 1708" class="cls-11">
              <path id="Path_4904" data-name="Path 4904" class="cls-12" d="M335.666,303.015l-38.244,22.091L248.7,296.947,286.9,274.9Z" transform="translate(-249.562 -275.369)"/>
            </g>
            <g id="Group_1710" data-name="Group 1710" class="cls-11">
              <g id="Group_1709" data-name="Group 1709" transform="translate(16.018 9.037)">
                <path id="Path_4906" data-name="Path 4906" class="cls-13" d="M364.693,331.494c-2.707-.175-10.172-5.894-10.172-5.894L337.8,335.248s9.867,4.322,10.172,5.894c0,0,8.208.7,12.617-1.746C364.955,337.038,364.693,331.494,364.693,331.494Z" transform="translate(-315.782 -312.972)"/>
                <path id="Path_4907" data-name="Path 4907" class="cls-14" d="M312.9,339.52a4.825,4.825,0,0,0-2.488-.175c-.873.393-.7,1.4,2.314,2.532a27.086,27.086,0,0,0,4.759,1.31c.829.262,2.532.349,1.79-.917Z" transform="translate(-300.091 -320.649)"/>
                <path id="Path_4908" data-name="Path 4908" class="cls-15" d="M312.9,339.52a4.825,4.825,0,0,0-2.488-.175c-.873.393-.7,1.4,2.314,2.532a27.086,27.086,0,0,0,4.759,1.31c.829.262,2.532.349,1.79-.917Z" transform="translate(-300.091 -320.649)"/>
                <path id="Path_4909" data-name="Path 4909" class="cls-15" d="M312.9,339.52a4.825,4.825,0,0,0-2.488-.175c-.873.393-.7,1.4,2.314,2.532a27.086,27.086,0,0,0,4.759,1.31c.829.262,2.532.349,1.79-.917Z" transform="translate(-300.091 -320.649)"/>
                <path id="Path_4910" data-name="Path 4910" class="cls-14" d="M361.258,311.517s-.917-.917-.262-1.441c.655-.48,2.4-.393,4.409,1.353a8.741,8.741,0,0,1,2.27,2.75c.437.48.611,1.484-1.572,1Z" transform="translate(-328.718 -304.084)"/>
                <path id="Path_4911" data-name="Path 4911" class="cls-14" d="M297.1,302.228a22.85,22.85,0,0,1,15.236-2.139,21.014,21.014,0,0,1,8.819,4.06c1.222.829,3.143,2.183,4.5,3.318s4.191,2.881,5.5,4.409c1.31,1.484.7,2.619.218,4.278a8.4,8.4,0,0,1-3.187,3.973,22.593,22.593,0,0,1-6.9,1.834c-2.881.262-4.8.611-7.422-.131-2.576-.742-5.632-2.4-7.64-3.187s-4.366-1.877-5.763-2.576-4.977-2.008-7.029-5.108C291.38,307.947,293.344,304.367,297.1,302.228Z" transform="translate(-290.317 -298.331)"/>
                <path id="Path_4912" data-name="Path 4912" class="cls-15" d="M334.5,340.863h0a18.172,18.172,0,0,1-12.879-1.659c-1.877-1-4.759-.873-6.985-1.135s-6.985-2.969-6.985-2.969l-.655.262c.611.306,1.179.524,1.528.742,1.4.7,3.8,1.79,5.763,2.576,2.008.786,5.021,2.4,7.64,3.187,2.619.742,4.54.393,7.422.131A23.649,23.649,0,0,0,334.5,340.863Z" transform="translate(-298.428 -318.324)"/>
                <path id="Path_4913" data-name="Path 4913" class="cls-16" d="M365.793,320.823c.437-1.659,1.091-2.794-.218-4.278s-4.147-3.231-5.5-4.409a51.174,51.174,0,0,0-4.5-3.318c-.349-.218-.742-.524-1.31-.917l-.568.48s4.671,2.75,5.152,4.016c.437,1.266.262,2.925,1.965,4.017s5.5,3.885,2.881,7.422c-.044.044-.087.131-.131.175A7.075,7.075,0,0,0,365.793,320.823Z" transform="translate(-324.74 -302.999)"/>
                <path id="Path_4914" data-name="Path 4914" class="cls-15" d="M319.447,317.121a5.163,5.163,0,0,1-2.008-.306c-.568-.349-2.707-1.965-4.5-3.056-1.79-1.135-2.227-.786-4.191-.262a46.909,46.909,0,0,0-6.549,2.532c-.917.437-3.012-1.441-4.191-2.663a26,26,0,0,0,7.334-2.532,14.6,14.6,0,0,0,7.509-7.334l-16.983,8.906.524.393-2.1.524c2.052,3.056,5.632,4.366,7.029,5.064s3.8,1.79,5.763,2.576c2.008.786,5.021,2.4,7.64,3.187,2.619.742,4.54.393,7.422.131a22.592,22.592,0,0,0,6.9-1.834c-2.227-1.266-7.291-3.973-7.291-3.973Z" transform="translate(-291.273 -300.52)"/>
                <path id="Path_4915" data-name="Path 4915" class="cls-17" d="M314.928,300.091c-2.052-1.7-10.74-6.68-21.872-.131-11.351,6.418-2.707,11.438.218,12.617,1.834.742,3.842,2.707,4.54,2.707a1.939,1.939,0,0,1,1.135-.044c.524.175,2.1.873,2.1.873s-3.274-2.314-4.191-3.056a23.852,23.852,0,0,0-2.619-2.008c-1.615-1.091-2.227-2.052-1.659-3.274s5.545-2.75,7.029-3.405l1.091-.655c1.135-.873,3.8-3.711,5.937-4.06a8.838,8.838,0,0,1,5.675.96c1.877.917,2.227,1,3.493,1.528s5.326,2.445,5.326,2.445a15.858,15.858,0,0,1-1.484-1.222c-.306-.306.044-.655.044-.655C319.644,302.318,316.238,301.139,314.928,300.091Z" transform="translate(-287.366 -296.675)"/>
                <path id="Path_4916" data-name="Path 4916" class="cls-17" d="M306.383,302.627,296.56,308.3l-.96,3.493c18.773-4.5,18.336-11.395,18.336-11.395Z" transform="translate(-292.005 -298.774)"/>
              </g>
              <path id="Path_4917" data-name="Path 4917" class="cls-18" d="M375.975,335.2l-6.9,8.208L355.5,347.031l11.482,6.636,20.475-11.831Z" transform="translate(-309.736 -309.344)"/>
              <path id="Path_4918" data-name="Path 4918" class="cls-19" d="M381.6,355.764l7.16.611,1.091,1.266,3.1-1.79-1.877-.786-1.048-4.366-6.2,1.4Z" transform="translate(-324.441 -318.077)"/>
              <path id="Path_4919" data-name="Path 4919" class="cls-20" d="M367.093,353.9l-15.193.48.786,4.278,15.411.437Z" transform="translate(-307.708 -319.88)"/>
              <path id="Path_4920" data-name="Path 4920" class="cls-20" d="M386.6,342.675l.829-8.775,7.422.437.7,8.906Z" transform="translate(-327.259 -308.611)"/>
              <path id="Path_4921" data-name="Path 4921" class="cls-21" d="M335.1,365.609l11.045,6.374,11.526-6.636c-10-2.576-15.5-7.247-15.5-7.247Z" transform="translate(-298.242 -322.246)"/>
              <path id="Path_4922" data-name="Path 4922" class="cls-21" d="M416.8,331.074,405.754,324.7,392.7,328.76s8.077,3.143,12.53,8.95Z" transform="translate(-330.695 -303.428)"/>
            </g>
          </g>
          <g id="Group_1712" data-name="Group 1712" transform="translate(54.234 20.527)">
            <path id="Path_4924" data-name="Path 4924" class="cls-7" d="M379.091,273.418l-1.353-.262-.044.044,1.048.437,2.969,1.7-1.048.611-5.763-3.318.829-.48,5.239.524,1.31.262.044-.044-1-.437-3.012-1.746,1.048-.611,5.763,3.318-.829.48Z" transform="translate(-374.9 -259.448)"/>
            <path id="Path_4925" data-name="Path 4925" class="cls-7" d="M396.463,267.957l-1.746,1,.829,1-1.135.655-3.711-4.54.83-.48,7.815,2.139-1.179.7Zm-2.358.349,1.222-.7-1.7-.48-1.091-.437-.044.044.742.611Z" transform="translate(-383.802 -256.912)"/>
            <path id="Path_4926" data-name="Path 4926" class="cls-7" d="M405.86,257.227l-1-.742-.044.044.568.742.917,1.921-.349.218-3.449-.48-1.266-.306-.044.044,1.31.567,2.969,1.7-1.048.611-5.719-3.318,1-.611,4.147.611.917.218h.044l-.437-.524-1.135-2.357,1-.568,5.719,3.318-1.135.655Z" transform="translate(-388.31 -250.94)"/>
            <path id="Path_4927" data-name="Path 4927" class="cls-7" d="M413.6,251.065l3.405-1.965,1,.568-2.27,1.31,1.353.786,2.052-1.179,1,.568-2.052,1.179,1.4.829,2.314-1.353,1,.568-3.449,1.965Z" transform="translate(-396.705 -247.616)"/>
            <path id="Path_4928" data-name="Path 4928" class="cls-7" d="M411.181,290.194a1.394,1.394,0,0,0-.611-.131,6.138,6.138,0,0,0-.786.087c-.262.044-.568.131-.917.218a7.4,7.4,0,0,1-.96.175,3.867,3.867,0,0,1-1,0,3.065,3.065,0,0,1-1-.349,1.625,1.625,0,0,1-.568-.48.787.787,0,0,1-.131-.524,1.1,1.1,0,0,1,.306-.524,3.22,3.22,0,0,1,.7-.524,7.671,7.671,0,0,1,1.048-.48,5.367,5.367,0,0,1,.96-.262l.568.742c-.175.044-.437.087-.742.175a3.151,3.151,0,0,0-.873.393.825.825,0,0,0-.437.437c-.044.131.044.262.218.349a1.268,1.268,0,0,0,.611.131,6.132,6.132,0,0,0,.786-.087,6.975,6.975,0,0,0,.917-.218,6.862,6.862,0,0,1,1-.175,3.865,3.865,0,0,1,1,0,2.549,2.549,0,0,1,.96.349,2.137,2.137,0,0,1,.655.524.7.7,0,0,1,.131.568,1.013,1.013,0,0,1-.349.568,3.648,3.648,0,0,1-.742.568,7.264,7.264,0,0,1-1.179.568,8.239,8.239,0,0,1-.917.262l-.611-.742a1.35,1.35,0,0,0,.349-.087c.131-.044.262-.087.437-.131a3.32,3.32,0,0,0,.48-.175,1.367,1.367,0,0,0,.437-.218,1.53,1.53,0,0,0,.611-.524A.646.646,0,0,0,411.181,290.194Z" transform="translate(-391.972 -269.195)"/>
            <path id="Path_4929" data-name="Path 4929" class="cls-7" d="M416.7,280.911l1.048-.611,3.711,2.139a2.738,2.738,0,0,1,.829.655,1.04,1.04,0,0,1,.262.611.943.943,0,0,1-.262.611,3.261,3.261,0,0,1-.7.568,3.858,3.858,0,0,1-4.147.087l-3.842-2.227,1.135-.655,3.624,2.1c.218.131.437.218.611.306a1.387,1.387,0,0,0,.568.087,1.108,1.108,0,0,0,.524-.087,2.669,2.669,0,0,0,.524-.218c.349-.218.48-.393.437-.611s-.262-.437-.7-.655Z" transform="translate(-396.705 -265.195)"/>
            <path id="Path_4930" data-name="Path 4930" class="cls-7" d="M425.5,276.917a2.423,2.423,0,0,1,.349-.262l.393-.262.393-.262a4.029,4.029,0,0,1,.349-.218,3.153,3.153,0,0,1,.873-.393,6.169,6.169,0,0,1,.96-.262,3.86,3.86,0,0,1,1,0,2.548,2.548,0,0,1,.96.349,1.655,1.655,0,0,1,.83.829.886.886,0,0,1-.262.873l.655-.087,3.493.524-1.31.742-3.536-.524-.7.262,2.357,1.353-1.135.655Zm2.576-.48c-.131.087-.218.131-.349.218-.087.087-.175.131-.218.175l1.659.961.48-.262c.306-.175.48-.349.524-.568.044-.175-.087-.393-.437-.568a1.779,1.779,0,0,0-.786-.218A1.574,1.574,0,0,0,428.076,276.436Z" transform="translate(-403.409 -262.335)"/>
            <path id="Path_4931" data-name="Path 4931" class="cls-7" d="M440.691,269.918l-1.353-.262-.044.044,1.048.437,2.969,1.7-1.048.611-5.763-3.318.829-.48,5.239.524,1.31.262.044-.044-1-.437-3.012-1.746,1.048-.611,5.763,3.318-.829.48Z" transform="translate(-409.607 -257.476)"/>
            <path id="Path_4932" data-name="Path 4932" class="cls-7" d="M458.163,264.557l-1.746,1,.829,1-1.135.655-3.711-4.54.829-.48,7.815,2.139-1.179.7Zm-2.357.306,1.222-.7-1.7-.48-1.091-.437-.044.044.742.611Z" transform="translate(-418.565 -254.997)"/>
            <path id="Path_4933" data-name="Path 4933" class="cls-7" d="M467.46,253.727l-1-.742-.044.044.568.742.917,1.921-.349.218-3.449-.48-1.266-.306-.044.044,1.31.568,2.969,1.7-1.048.611-5.719-3.318,1-.611,4.147.611.917.218h.044l-.437-.524-1.135-2.358,1-.568,5.719,3.318-1.135.655Z" transform="translate(-423.017 -248.968)"/>
            <path id="Path_4934" data-name="Path 4934" class="cls-7" d="M475.2,247.665l3.405-1.965,1,.568-2.27,1.31,1.353.786,2.052-1.179,1,.568-2.052,1.179,1.4.83,2.314-1.353,1,.568-3.449,1.965Z" transform="translate(-431.411 -245.7)"/>
          </g>
        </g>
      </g>
    </g>
    <path id="Path_4935" data-name="Path 4935" class="cls-22" d="M3242.1,5663.559l85.706,131.766-115.249,66.04-70.276-41.021,94-154.252Z" transform="translate(-2287.123 -1987.562)"/>
    <g id="mobile_app_phone" transform="translate(886.027 3667.094)">
      <g id="Group_1257" data-name="Group 1257" transform="translate(0 0)">
        <path id="Path_3892" data-name="Path 3892" class="cls-23" d="M287.086,171.866h0V161.032l-10.485.7-3.728-.7L149.854,89.97c-5.475-3.145-13.747-3.495-18.523-.815l-58.6,33.9-10.834-2.1v11.184h0c0,2.1,1.514,4.31,4.543,6.058l132.805,76.654c5.475,3.145,13.747,3.495,18.523.815l66.4-38.327C286.5,175.944,287.436,173.847,287.086,171.866Z" transform="translate(-61.78 -76.086)"/>
        <g id="Group_1254" data-name="Group 1254" transform="translate(203.055 98.301)">
          <path id="Path_3893" data-name="Path 3893" class="cls-24" d="M237.614,170.494a1.58,1.58,0,0,1-.815,1.281c-.466.233-.7,0-.7-.466a1.58,1.58,0,0,1,.815-1.281C237.265,169.795,237.614,170.028,237.614,170.494Zm1.98-2.1a1.58,1.58,0,0,0-.815,1.281c0,.466.233.7.7.466a1.58,1.58,0,0,0,.815-1.281C240.294,168.4,240.061,168.164,239.595,168.4Zm2.679-1.514a1.58,1.58,0,0,0-.815,1.281c0,.466.233.7.7.466a1.58,1.58,0,0,0,.815-1.281C243.09,166.882,242.74,166.649,242.274,166.882Zm2.8-1.631a1.58,1.58,0,0,0-.815,1.281c0,.466.233.7.7.466a1.58,1.58,0,0,0,.816-1.281C245.769,165.251,245.42,165.018,245.07,165.251Zm2.679-1.514a1.58,1.58,0,0,0-.815,1.281c0,.466.233.7.7.466a1.58,1.58,0,0,0,.815-1.281C248.565,163.737,248.216,163.5,247.75,163.737Zm2.8-1.631a1.58,1.58,0,0,0-.815,1.281c0,.466.233.7.7.466a1.58,1.58,0,0,0,.815-1.281C251.244,162.106,250.895,161.989,250.545,162.106Z" transform="translate(-236.1 -162.064)"/>
          <g id="Group_1253" data-name="Group 1253" transform="translate(0 0.042)">
            <path id="Path_3894" data-name="Path 3894" class="cls-25" d="M241.848,166.1v.233a1.58,1.58,0,0,1-.815,1.281.407.407,0,0,0-.233.117c.117.349.35.466.7.233a1.58,1.58,0,0,0,.815-1.281A.533.533,0,0,0,241.848,166.1Z" transform="translate(-235.325 -161.44)"/>
            <path id="Path_3895" data-name="Path 3895" class="cls-25" d="M239.448,167.5v.233a1.58,1.58,0,0,1-.815,1.281.407.407,0,0,0-.233.117c.117.349.349.466.7.233a1.58,1.58,0,0,0,.815-1.281C239.914,167.621,239.8,167.388,239.448,167.5Z" transform="translate(-235.721 -161.213)"/>
            <path id="Path_3896" data-name="Path 3896" class="cls-25" d="M237.148,168.8v.233a1.58,1.58,0,0,1-.815,1.281.407.407,0,0,0-.233.117c.117.349.349.466.7.233a1.58,1.58,0,0,0,.815-1.281A.533.533,0,0,0,237.148,168.8Z" transform="translate(-236.1 -160.995)"/>
            <path id="Path_3897" data-name="Path 3897" class="cls-25" d="M248.848,162.1v.233a1.58,1.58,0,0,1-.815,1.281.407.407,0,0,0-.233.117c.117.349.35.466.7.233a1.58,1.58,0,0,0,.815-1.281C249.314,162.216,249.2,162.1,248.848,162.1Z" transform="translate(-234.17 -162.1)"/>
            <path id="Path_3898" data-name="Path 3898" class="cls-25" d="M244.148,164.8v.233a1.58,1.58,0,0,1-.815,1.281.407.407,0,0,0-.233.117c.117.349.349.466.7.233a1.58,1.58,0,0,0,.815-1.281C244.614,164.921,244.5,164.688,244.148,164.8Z" transform="translate(-234.945 -161.659)"/>
            <path id="Path_3899" data-name="Path 3899" class="cls-25" d="M246.548,163.4v.233a1.58,1.58,0,0,1-.815,1.281.407.407,0,0,0-.233.117c.117.349.35.466.7.233a1.58,1.58,0,0,0,.815-1.281A.533.533,0,0,0,246.548,163.4Z" transform="translate(-234.549 -161.886)"/>
          </g>
        </g>
        <path id="Path_3907" data-name="Path 3907" class="cls-26" d="M66.328,130.044,199.133,206.7c5.475,3.145,13.746,3.495,18.523.815l66.4-38.327a6.1,6.1,0,0,0,3.145-3.844v-1.631h0v-2.679l-10.485.7-3.728-.7L149.972,89.97c-5.475-3.145-13.746-3.495-18.523-.815l-58.714,33.9-10.834-2.1v2.912h0C61.784,126.084,63.3,128.3,66.328,130.044Z" transform="translate(-61.781 -76.086)"/>
        <path id="Path_3908" data-name="Path 3908" class="cls-27" d="M65.9,124.545l126.514,73.043v-3.145L65.9,121.4Z" transform="translate(-61.12 -70.471)"/>
        <path id="Path_3909" data-name="Path 3909" class="cls-27" d="M131.348,79.567l-66.4,38.327c-4.66,2.679-4.077,7.572,1.281,10.718l132.805,76.654c5.475,3.145,13.746,3.495,18.523.815l66.4-38.327c4.66-2.679,4.077-7.572-1.281-10.718L149.871,80.382C144.4,77.12,136.125,76.771,131.348,79.567Z" transform="translate(-61.797 -77.682)"/>
        <path id="Path_3910" data-name="Path 3910" class="cls-28" d="M270.931,156.834,138.126,80.18A18.05,18.05,0,0,0,133,78.2a17.6,17.6,0,0,1,3.378,1.514l132.805,76.654c5.475,3.145,6.058,7.922,1.281,10.718l-66.4,38.327c-3.378,1.98-8.621,2.33-13.281,1.165,5.126,1.631,11.3,1.514,15.028-.7l66.4-38.327C276.989,164.873,276.406,159.98,270.931,156.834Z" transform="translate(-50.052 -77.597)"/>
        <path id="Path_3911" data-name="Path 3911" class="cls-29" d="M65.9,128.249c.116.117,126.4,73.043,126.4,73.043l83.527-48.229L149.194,79.9c-.117-.117.466.233.233.116Z" transform="translate(-61.12 -77.32)"/>
        <path id="Path_3912" data-name="Path 3912" class="cls-30" d="M77.024,110.237a4.933,4.933,0,0,0,4.427,0c1.165-.7,1.281-1.864,0-2.563a4.933,4.933,0,0,0-4.427,0A1.377,1.377,0,0,0,77.024,110.237Z" transform="translate(-59.43 -72.821)"/>
        <path id="Path_3913" data-name="Path 3913" class="cls-31" d="M83.587,106.6a3.456,3.456,0,0,0,3.029,0,.93.93,0,0,0,0-1.747,3.456,3.456,0,0,0-3.029,0A.93.93,0,0,0,83.587,106.6Z" transform="translate(-58.304 -73.258)"/>
        <path id="Path_3914" data-name="Path 3914" class="cls-32" d="M215.244,174.43l15.61-8.97c1.98-1.165,1.747-3.029-.582-4.31h0a8.694,8.694,0,0,0-7.572-.349l-15.61,8.97c-1.98,1.165-1.747,3.029.582,4.31h0A7.983,7.983,0,0,0,215.244,174.43Z" transform="translate(-38.051 -64.088)"/>
        <path id="Path_3915" data-name="Path 3915" class="cls-33" d="M207.187,171.767l15.61-8.97c1.98-1.165,5.359-.932,7.572.349a4.472,4.472,0,0,1,1.514,1.4c.7-1.048.116-2.446-1.514-3.495a8.694,8.694,0,0,0-7.572-.35l-15.61,8.97a2.051,2.051,0,0,0-1.048,2.912A11.278,11.278,0,0,1,207.187,171.767Z" transform="translate(-38.032 -64.105)"/>
      </g>
      <g id="Group_1258" data-name="Group 1258" transform="translate(185.348 110.205)">
        <path id="Path_3916" data-name="Path 3916" class="cls-25" d="M231.618,173.468a3.587,3.587,0,0,1-.35,1.514,3.172,3.172,0,0,1-.932,1.165l-8.038,4.66c-.815.466-1.4,0-1.4-1.048v-.349a4.437,4.437,0,0,1,.349-1.165,3.172,3.172,0,0,1,.932-1.165l7.572-4.31.466-.233C231.035,171.953,231.618,172.419,231.618,173.468Z" transform="translate(-220.9 -172.282)"/>
        <path id="Path_3917" data-name="Path 3917" class="cls-24" d="M229.754,172.6a4.438,4.438,0,0,1-.349,1.165,3.171,3.171,0,0,1-.932,1.165l-7.572,4.31a4.438,4.438,0,0,1,.35-1.165,3.172,3.172,0,0,1,.932-1.165Z" transform="translate(-220.9 -172.23)"/>
      </g>
      <path id="Path_3918" data-name="Path 3918" class="cls-34" d="M194.179,195.748l-2.33,1.4-51.608-29.823-35.531-20.5L66.5,124.686,103.2,103.6Z" transform="translate(-61.021 -73.407)"/>
      <path id="Path_3919" data-name="Path 3919" class="cls-29" d="M66.5,124.13l125.349,72.344v-2.33L66.5,121.8Z" transform="translate(-61.021 -70.405)"/>
    </g>
    <path id="Path_4936" data-name="Path 4936" class="cls-35" d="M0,.551,119.051,0l.9,1.8L.96,2.214Z" transform="translate(889.663 3846.362) rotate(-30)"/>
    <g id="Group_1717" data-name="Group 1717" transform="translate(919.981 3685.531)">
      <g id="Group_1708-2" data-name="Group 1708" class="cls-36">
        <path id="Path_4904-2" data-name="Path 4904" class="cls-12" d="M360.12,310.921l-49,28.3L248.7,303.146,297.642,274.9Z" transform="translate(-249.805 -275.501)"/>
      </g>
      <g id="Group_1710-2" data-name="Group 1710" class="cls-36">
        <g id="Group_1709-2" data-name="Group 1709" transform="translate(20.522 11.578)">
          <path id="Path_4906-2" data-name="Path 4906" class="cls-13" d="M372.255,333.151c-3.468-.224-13.033-7.551-13.033-7.551L337.8,337.961s12.641,5.537,13.033,7.551c0,0,10.516.895,16.165-2.237C372.591,340.255,372.255,333.151,372.255,333.151Z" transform="translate(-309.59 -309.421)"/>
          <path id="Path_4907-2" data-name="Path 4907" class="cls-14" d="M313.726,339.6a6.181,6.181,0,0,0-3.188-.224c-1.119.5-.895,1.79,2.964,3.244a34.716,34.716,0,0,0,6.1,1.678c1.063.336,3.244.447,2.293-1.175Z" transform="translate(-297.318 -315.425)"/>
          <path id="Path_4908-2" data-name="Path 4908" class="cls-15" d="M313.726,339.6a6.181,6.181,0,0,0-3.188-.224c-1.119.5-.895,1.79,2.964,3.244a34.716,34.716,0,0,0,6.1,1.678c1.063.336,3.244.447,2.293-1.175Z" transform="translate(-297.318 -315.425)"/>
          <path id="Path_4909-2" data-name="Path 4909" class="cls-15" d="M313.726,339.6a6.181,6.181,0,0,0-3.188-.224c-1.119.5-.895,1.79,2.964,3.244a34.716,34.716,0,0,0,6.1,1.678c1.063.336,3.244.447,2.293-1.175Z" transform="translate(-297.318 -315.425)"/>
          <path id="Path_4910-2" data-name="Path 4910" class="cls-14" d="M361.4,311.992s-1.175-1.175-.336-1.846c.839-.615,3.076-.5,5.649,1.734a11.2,11.2,0,0,1,2.909,3.524c.559.615.783,1.9-2.014,1.286Z" transform="translate(-319.708 -302.47)"/>
          <path id="Path_4911-2" data-name="Path 4911" class="cls-14" d="M298.363,302.962c4.81-2.8,12.7-4.251,19.521-2.741a26.922,26.922,0,0,1,11.3,5.2c1.566,1.063,4.027,2.8,5.761,4.251s5.37,3.692,7.048,5.649c1.678,1.9.895,3.356.28,5.481-.559,2.126-3.02,4.475-4.083,5.09a28.946,28.946,0,0,1-8.838,2.349c-3.692.336-6.153.783-9.509-.168-3.3-.951-7.215-3.076-9.788-4.083s-5.593-2.405-7.383-3.3-6.376-2.573-9.005-6.544C291.035,310.29,293.552,305.7,298.363,302.962Z" transform="translate(-289.674 -297.97)"/>
          <path id="Path_4912-2" data-name="Path 4912" class="cls-15" d="M342.238,342.483h0a23.282,23.282,0,0,1-16.5-2.125c-2.405-1.286-6.1-1.119-8.949-1.454s-8.949-3.8-8.949-3.8l-.839.336c.783.392,1.51.671,1.958.951,1.79.895,4.866,2.293,7.383,3.3,2.573,1.007,6.432,3.076,9.788,4.083,3.356.951,5.817.5,9.509.168A30.3,30.3,0,0,0,342.238,342.483Z" transform="translate(-296.018 -313.607)"/>
          <path id="Path_4913-2" data-name="Path 4913" class="cls-16" d="M369.194,324.456c.559-2.125,1.4-3.58-.28-5.482s-5.314-4.139-7.048-5.649a65.568,65.568,0,0,0-5.761-4.251c-.447-.28-.951-.671-1.678-1.175l-.727.615s5.985,3.524,6.6,5.146c.559,1.622.336,3.748,2.517,5.146s7.048,4.978,3.692,9.509c-.056.056-.112.168-.168.224A9.064,9.064,0,0,0,369.194,324.456Z" transform="translate(-316.597 -301.621)"/>
          <path id="Path_4914-2" data-name="Path 4914" class="cls-15" d="M326.518,320.951a6.615,6.615,0,0,1-2.573-.392c-.727-.447-3.468-2.517-5.761-3.915-2.293-1.454-2.853-1.007-5.37-.336a60.09,60.09,0,0,0-8.39,3.244c-1.175.559-3.859-1.846-5.37-3.412,1.342-.168,4.307-.839,9.4-3.244,7.5-3.524,9.621-9.4,9.621-9.4l-21.758,11.41.671.5-2.685.671c2.629,3.915,7.215,5.593,9.005,6.488s4.866,2.293,7.383,3.3c2.573,1.007,6.432,3.076,9.788,4.083,3.356.951,5.817.5,9.509.168a28.944,28.944,0,0,0,8.837-2.349c-2.853-1.622-9.341-5.09-9.341-5.09Z" transform="translate(-290.421 -299.682)"/>
          <path id="Path_4915-2" data-name="Path 4915" class="cls-17" d="M322.679,301.052c-2.629-2.181-13.76-8.558-28.023-.168-14.543,8.222-3.468,14.655.28,16.165,2.349.951,4.922,3.468,5.817,3.468a2.485,2.485,0,0,1,1.454-.056c.671.224,2.685,1.119,2.685,1.119s-4.2-2.964-5.37-3.915a30.56,30.56,0,0,0-3.356-2.573c-2.07-1.4-2.853-2.629-2.125-4.2s7.1-3.524,9.005-4.363l1.4-.839c1.454-1.119,4.866-4.754,7.607-5.2a11.323,11.323,0,0,1,7.271,1.231c2.405,1.175,2.853,1.286,4.475,1.958s6.824,3.132,6.824,3.132a20.313,20.313,0,0,1-1.9-1.566c-.392-.392.056-.839.056-.839C328.72,303.9,324.357,302.394,322.679,301.052Z" transform="translate(-287.366 -296.675)"/>
          <path id="Path_4916-2" data-name="Path 4916" class="cls-17" d="M309.416,303.253l-12.585,7.271L295.6,315c24.051-5.761,23.492-14.6,23.492-14.6Z" transform="translate(-290.994 -298.316)"/>
        </g>
        <path id="Path_4917-2" data-name="Path 4917" class="cls-18" d="M381.733,335.2,372.9,345.716l-17.4,4.642,14.711,8.5L396.443,343.7Z" transform="translate(-296.868 -302.073)"/>
        <path id="Path_4918-2" data-name="Path 4918" class="cls-19" d="M381.6,357.188l9.173.783,1.4,1.622,3.971-2.293-2.405-1.007L392.4,350.7l-7.943,1.79Z" transform="translate(-308.369 -308.903)"/>
        <path id="Path_4919-2" data-name="Path 4919" class="cls-20" d="M371.365,353.9l-19.465.615L352.907,360l19.745.559Z" transform="translate(-295.281 -310.314)"/>
        <path id="Path_4920-2" data-name="Path 4920" class="cls-20" d="M386.6,345.143l1.063-11.243,9.509.559.895,11.41Z" transform="translate(-310.572 -301.5)"/>
        <path id="Path_4921-2" data-name="Path 4921" class="cls-21" d="M335.1,367.721l14.151,8.166,14.767-8.5c-12.809-3.3-19.856-9.285-19.856-9.285Z" transform="translate(-287.878 -312.164)"/>
        <path id="Path_4922-2" data-name="Path 4922" class="cls-21" d="M423.575,332.866,409.424,324.7,392.7,329.9s10.348,4.027,16.053,11.466Z" transform="translate(-313.26 -297.446)"/>
      </g>
    </g>
  </g>
</svg>
