<?xml version="1.0" encoding="utf-8"?>
<!-- Generator: Adobe Illustrator 22.1.0, SVG Export Plug-In . SVG Version: 6.00 Build 0)  -->
<svg version="1.1" id="Layer_1" xmlns="http://www.w3.org/2000/svg" xmlns:xlink="http://www.w3.org/1999/xlink" x="0px" y="0px"
	 viewBox="0 0 383 337.8" style="enable-background:new 0 0 383 337.8;" xml:space="preserve">
<style type="text/css">
	.st0{fill:url(#Path_2925_1_);}
	.st1{fill:#FF5A75;}
	.st2{fill:#FBA284;}
	.st3{opacity:0.65;clip-path:url(#SVGID_2_);}
	.st4{opacity:0.3;enable-background:new    ;}
	.st5{opacity:0.3;fill:#FFFFFF;enable-background:new    ;}
	.st6{opacity:0.5;fill:#FFFFFF;enable-background:new    ;}
	.st7{fill:#C2C1C1;}
	.st8{fill:#F4F4F4;}
	.st9{opacity:0.2;fill:#FFFFFF;enable-background:new    ;}
	.st10{fill:#A8AAAD;}
	.st11{fill:#FFFFFF;}
	.st12{fill:#2E393C;}
	.st13{fill:#1B466C;}
	.st14{clip-path:url(#SVGID_4_);}
	.st15{fill:#CDE2F5;}
	.st16{clip-path:url(#SVGID_6_);}
	.st17{fill:#D88F69;}
	.st18{fill:#F2AA83;}
	.st19{opacity:0.5;fill:#D88F69;enable-background:new    ;}
	.st20{opacity:0.2;fill:#D88F69;enable-background:new    ;}
	.st21{fill:#56341A;}
	.st22{fill:#D5DCE0;}
	.st23{fill:#B62025;}
	.st24{fill:#E2E8EC;}
	.st25{fill:#20404B;}
	.st26{fill:url(#Path_4935_1_);}
	.st27{fill:#E0E0E0;}
	.st28{fill:#1A1A1A;}
	.st29{fill:#868686;}
	.st30{fill:url(#Path_3907_1_);}
	.st31{fill:#D5DEE8;}
	.st32{fill:#C6C5C5;}
	.st33{fill:#98BEE5;}
	.st34{fill:#4C4C4D;}
	.st35{fill:#94C43D;}
	.st36{fill:#B1C2D2;}
	.st37{fill:#BCD0E1;}
	.st38{opacity:0.32;fill:#FFFFFF;enable-background:new    ;}
	.st39{fill:url(#Path_4936_1_);}
	.st40{clip-path:url(#SVGID_8_);}
	.st41{clip-path:url(#SVGID_10_);}
</style>
<g id="Integrated_Video_ID" transform="translate(-743 -3667.094)">
	<g id="Group_1157" transform="translate(743 3726.802)">
		
			<linearGradient id="Path_2925_1_" gradientUnits="userSpaceOnUse" x1="-297.3227" y1="623.8353" x2="-297.3227" y2="622.8353" gradientTransform="matrix(374.2139 0 0 -216.2441 111451.6797 134946.5781)">
			<stop  offset="0" style="stop-color:#FFBF88"/>
			<stop  offset="0.719" style="stop-color:#F7797F"/>
			<stop  offset="1" style="stop-color:#FF649D"/>
		</linearGradient>
		<path id="Path_2925" class="st0" d="M2.3,152.8l187-107l187.3,107L189.3,262.1L2.3,152.8z"/>
		<path id="Path_2926" class="st1" d="M2.3,165.7v-13.5l186.8,109.5v13.2L2.3,165.7z"/>
		<path id="Path_2927" class="st2" d="M376.5,164.5v-11.6L188.7,261.5v13.3L376.5,164.5z"/>
		<g>
			<defs>
				<path id="SVGID_1_" d="M468.7,147.6l-3.8-8l0,0l-12.6-2l-3.4-7.2l0,0l-12.6-1.9l-3.4-7.2l-12.6-2l-3.4-7.2l0,0l-12.6-2l-3.4-7.2
					l0,0l-12.6-2l-3.4-7.2l-12.6-1.9l-3.4-7.3l0,0l-12.6-2l-3.4-7.2l-12.6-2l-3.4-7.2l-12.6-1.9l-3.4-7.2l0,0l-12.6-2l-3.4-7.2
					l-12.6-2l-3.4-7.2l-12.6-2l-3.4-7.2l-12.6-2l-3.4-7.2l-12.6-2l-3.4-7.2l-12.6-2l-3.4-7.2L211.4,0l-9.1,5.2l-12.6-1.9l-10.1,5.9
					l3.4,7.2l-8.2,4.8l-12.6-2L152.1,25l3.4,7.2l-8.2,4.8l-12.6-2l-10.1,5.9l3.4,7.2l-8.2,4.8l-12.6-2l-10.1,5.9l3.4,7.2l-8.2,4.8
					l-12.6-2l-10.1,5.9l3.4,7.2L65,84.5l-12.6-2l-10.1,5.9l3.4,7.2l-8.2,4.8l-12.6-2l-10.1,5.9l3.4,7.2l-8.2,4.8l-12.6-2l-10.1,5.9
					l3.4,7.2l-8.2,4.8l-12.6-2L-40,136l3.4,7.2l-8.2,4.8l-12.6-2l-10.1,5.8l3.8,8l12.6,2l3.4,7.2l0,0l12.6,2l3.4,7.2l12.6,1.9
					l3.4,7.2l12.6,2l3.4,7.3l0,0l12.6,2l3.4,7.2l0,0l12.6,2l3.4,7.2l12.6,2l3.4,7.3l12.6,2l3.4,7.2l12.6,2l3.4,7.2l12.6,2l3.4,7.2
					l12.6,2l3.4,7.2l12.6,2l3.4,7.2l12.6,2l3.4,7.2l12.6,2l3.4,7.2l12.6,2l3.4,7.2l12.6,2l3.4,7.2l13.9,2.2l6.7-3.9l3.4-2l-3.4-7.2
					l8.2-4.8l12.6,2l7.2-4.3l2.9-1.7l-3.4-7.2l8.2-4.8l12.8,2.6l10.1-5.9l-3.4-7.2l8.2-4.8l12.6,2l10.1-5.9l-3.4-7.2l8.2-4.8l12.6,2
					l7.2-4.1l2.9-1.7l-3.4-7.2l8.2-4.8l12.6,2l0.5-0.2l9.6-5.6l-3.4-7.2l8.2-4.8l12.6,2l3.8-2.2l6.3-3.7l-3.4-7.2l8.2-4.8l12.6,2
					l10.1-5.9l-3.4-7.2l8.2-4.8l12.6,2l5.9-3.4l4.3-2.4l-3.4-7.2l8.2-4.8l12.6,2l10.1-5.9l-3.4-7.2L468.7,147.6z M463,140.6l3,6.5
					l-8.2,4.8l-11.2-1.7l-3-6.5l8.2-4.8L463,140.6z M384.3,185.4l-2.9,1.7l-11.2-1.7l-3-6.5l8.2-4.8l5.6,0.9l5.6,0.9l1.5,3.3
					l1.5,3.3L384.3,185.4z M354,203.1l-5.6-0.9l-5.6-0.9l-1.5-3.3l-1.5-3.3l8.2-4.8l11.2,1.7l3,6.5l-2.7,1.6L354,203.1z M42.6,109.2
					l5.6,0.9l5.6,0.9l1.5,3.3l1.5,3.3l-2.9,1.7l-5.2,3l-11.2-1.7l-3-6.5L42.6,109.2z M97.5,77.2l5.6,0.9l5.6,0.9l1.5,3.3l1.5,3.3
					l-8.2,4.8l-11.2-1.7l-3-6.5L97.5,77.2z M116.7,66.1l8.2-4.8l11.2,1.7l3,6.5l-4.8,2.8l-3.4,2l-5.6-0.9l-5.6-0.9l-1.5-3.3
					L116.7,66.1z M138.3,62.7l8.2-4.8l11.2,1.7l3,6.5l-8.2,4.8L147,70l-5.6-0.9l-1.5-3.3L138.3,62.7z M152.2,45.4l5.6,0.9l5.6,0.9
					l1.5,3.3l1.5,3.3l-5.1,3l-2.9,1.7l-11.2-1.7l-3-6.5L152.2,45.4z M179.7,29.4l5.6,0.9l5.6,0.9l1.5,3.3l1.5,3.3l-8.2,4.8
					l-11.2-1.7l-3-6.5L179.7,29.4z M207.1,13.5l5.6,0.9l5.6,0.9l1.5,3.3l1.5,3.3l-5.5,3.2l-2.7,1.6l-11.2-1.7l-3-6.5L207.1,13.5z
					 M234.2,24.5l1.5,3.3l1.5,3.3l-1.7,1l-6.5,3.8l-11.2-1.7l-3-6.5l8.2-4.8l5.6,0.9L234.2,24.5z M250.2,33.7l0.4,0.9l2.6,5.6
					l-2.4,1.3l-5.7,3.3l-11.2-1.7l-3-6.5l8.2-4.8l5.6,0.9L250.2,33.7z M266,42.8l1.5,3.3l1.5,3.3l-8.2,4.8l-11.2-1.7l-3-6.5l8.2-4.8
					l5.6,0.9L266,42.8z M282,52.1l1.5,3.3l1.5,3.3l-1.8,1l-6.3,3.7l-11.2-1.7l-3-6.5l8.2-4.8l5.6,0.9L282,52.1z M298,61.2l0.2,0.5
					l2.8,6l-2,1.1l-6.2,3.5l-11.2-1.7l-3-6.5l8.2-4.8l1.6,0.2L298,61.2z M313.8,70.5l1.5,3.3l1.5,3.3l-1.8,1l-6.3,3.7l-11-1.8
					l-3-6.5l8.2-4.8l5.6,0.9L313.8,70.5z M329.8,79.6l1.5,3.2l1.5,3.3l-8.2,4.8l-11.2-1.7l-3-6.5l8.2-4.8l1.6,0.2L329.8,79.6z
					 M345.7,88.8l1.5,3.2l1.5,3.3l-2.4,1.3l-5.7,3.3l-11.2-1.7l-3-6.5l8.2-4.8l5.6,0.9L345.7,88.8z M361.6,98.1l1.5,3.2l1.5,3.3
					l-5.5,3.2l-2.7,1.6l-11.2-1.7l-3-6.5l8.2-4.8l5.6,0.9L361.6,98.1z M377.6,107.2l1.5,3.3l1.5,3.3l-8.2,4.8l-11.2-1.7l-3-6.5
					l8.2-4.8l5.6,0.9L377.6,107.2z M393.5,116.5l1.5,3.3l1.5,3.3l-1.7,1l-6.5,3.8l-11.2-1.7l-3-6.5l8.2-4.8l5.6,0.9L393.5,116.5z
					 M409.4,125.6l1.5,3.3l1.5,3.3l-8,4.6l-0.1,0.1l-11.2-1.7l-3-6.5l8.2-4.8l5.6,0.9L409.4,125.6z M425.4,134.8l1.5,3.3l1.5,3.3
					l-6.8,3.9l-1.3,0.7l-11.2-1.7l-3-6.5l8.2-4.8l5.6,0.9L425.4,134.8z M398,158.9l-5.1,3l-11.2-1.7l-3-6.5l8.2-4.8l5.6,0.9l5.6,0.9
					l0,0l1.5,3.3l1.5,3.2L398,158.9z M179.3,276.9l-11.2-1.7l-3-6.5l8.2-4.8l5.6,0.9l5.6,0.9l1.5,3.3l1.5,3.3l-3.9,2.3L179.3,276.9z
					 M147.5,258.4l-11.2-1.7l-3-6.5l8.2-4.8l5.6,0.9l5.6,0.9l1.5,3.3l1.5,3.3l-7.2,4.1L147.5,258.4z M131.5,249.3l-11.2-1.7l-3-6.5
					l8.2-4.8l9.6,1.5l1.6,0.2l1.5,3.3l1.5,3.3l-6.8,3.9L131.5,249.3z M115.5,240l-11.2-1.7l-3-6.5l8.2-4.8l5.6,0.9l5.6,0.9l1.5,3.2
					l1.5,3.3l-6.8,3.9L115.5,240z M67.7,212.5l-11.2-1.7l-3-6.5l8.2-4.8l10.2,1.6l1,0.1l1.5,3.3l1.5,3.3l-3.5,2.1L67.7,212.5z
					 M51.8,203.2l-11.2-1.7l-3-6.5l8.2-4.8l5.6,0.9L57,192l2.6,5.6l0.4,0.9l-3.9,2.3L51.8,203.2z M4,175.6l-11.2-1.7l-3-6.5l8.2-4.8
					l5.6,0.9l5.6,0.9l1.5,3.3l1.5,3.3l-6.2,3.7L4,175.6z M58.6,118.3l5.6,0.9l5.6,0.9l1.5,3.3l1.5,3.3l-8.2,4.8l-11.2-1.7l-3-6.5
					L58.6,118.3z M72.1,119.7l8.2-4.8l11.2,1.7l3,6.5l-8.2,4.8l-5.6-0.9l-5.6-0.9l-1.5-3.3L72.1,119.7z M83.6,94.5l8.2-4.8l11.2,1.7
					l3,6.5l-8.2,4.8l-5.6-0.9l-5.6-0.9l-1.5-3.3L83.6,94.5z M113.3,86.5l5.6,0.9l5.6,0.9l0,0l1.5,3.3l1.5,3.3l-8.2,4.8l-11.2-1.7
					l-3-6.5L113.3,86.5z M126.9,87.8l8.2-4.8l5.6,0.9l5.6,0.9l0,0l1.5,3.3l1.5,3.3l-4.4,2.6l-3.8,2.2l-5.6-0.9l-5.6-0.9l-1.5-3.3
					L126.9,87.8z M132.6,75.3l8.2-4.8l11.2,1.7l3,6.5l-2.7,1.6l-5.5,3.2l-5.6-0.9l-5.6-0.9l-1.5-3.3L132.6,75.3z M154.3,71.8
					l8.2-4.8l11.2,1.7l3,6.5l-8.2,4.8l-5.6-0.9l-5.6-0.9l-1.5-3.3L154.3,71.8z M165.8,46.7l8.2-4.8l11.2,1.7l3,6.5l-8.2,4.8h-0.1
					l-11-1.7L165.8,46.7L165.8,46.7z M195.6,38.7l5.6,0.9l5.6,0.9l0,0l1.5,3.3l1.5,3.3l-4.8,2.8l-3.4,2L190.4,50l-3-6.5L195.6,38.7z
					 M209.2,40l8.2-4.8l11.2,1.7l3,6.5l-8.2,4.8l-5.6-0.9l-5.6-0.9l-1.5-3.3L209.2,40z M382.1,149.8l-5.1,3l-11.2-1.7l-3-6.5
					l8.2-4.8l5.6,0.9l5.6,0.9l0,0l1.5,3.3l1.5,3.3L382.1,149.8z M352.5,167l-2.9,1.7l-11.2-1.7l-3-6.5l8.2-4.8l5.6,0.9l5.6,0.9
					l1.5,3.3l1.5,3.3L352.5,167z M322.1,184.7l-5.6-0.9l-5.6-0.9l-1.5-3.3l-1.5-3.3l8.2-4.8l11.2,1.7l3,6.5l-2.7,1.6L322.1,184.7z
					 M105.4,218.3l-11.2-1.7l-3-6.5l8.2-4.8l1.6,0.2l9.6,1.5l1.5,3.2l1.5,3.3l-4,2.3L105.4,218.3z M74.5,127.5l5.6,0.9l5.6,0.9
					l0.5,0.9l2.6,5.6l-7.4,4.4l-0.7,0.4l-11.2-1.7l-3-6.5L74.5,127.5z M99.5,103.8l8.2-4.8l11.2,1.7l3,6.5l-0.2,0.1l-7.9,4.6
					l-5.6-0.9l-5.6-0.9l-1.5-3.3L99.5,103.8z M129.3,95.6l5.6,0.9l5.6,0.9l0,0l0.1,0.1l2.9,6.3l-8.2,4.8l-11.2-1.7l-3-6.5
					L129.3,95.6z M148.6,84.4l8.2-4.8l11.2,1.7l3,6.5l-4.3,2.4l-3.9,2.3l-9.6-1.5l-1.6-0.2l-1.5-3.3L148.6,84.4z M181.7,56l8.2-4.8
					l11.2,1.7l3,6.5l-1.8,1.1l-6.3,3.7h-0.1l-11-1.7L181.7,56L181.7,56z M211.5,47.8l5.6,0.9l5.6,0.9l0,0l0.1,0.1l2.9,6.3l-3.3,2
					l-4.9,2.8L206.4,59l-3-6.5L211.5,47.8z M233.2,44.5l11.2,1.7l3,6.5l-8.2,4.8l-5.6-0.9l-5.6-0.9l-1.5-3.2l-1.5-3.3L233.2,44.5z
					 M257,67.6l8.2-4.8l11.2,1.7l3,6.5l-8.2,4.8l-1.6-0.2L260,74l-1.5-3.2L257,67.6z M288.8,86l8.2-4.8l11.2,1.7l3,6.5l-8.2,4.8
					l-1.6-0.2l-9.6-1.5l-1.5-3.2L288.8,86z M318.3,104.8L318.3,104.8l1.5,3.3l1.5,3.3l-8.2,4.8l-11.2-1.7l-3-6.5l8.2-4.8l5.6,0.9
					L318.3,104.8L318.3,104.8z M334.2,113.9L334.2,113.9l1.5,3.3l1.5,3.3l-5.7,3.4l-2.3,1.3l-11.2-1.7l-3-6.5l8.2-4.8l5.6,0.9
					L334.2,113.9L334.2,113.9z M350.2,123.2L350.2,123.2l1.5,3.3l1.5,3.3l-4.3,2.4l-3.9,2.2l-11.2-1.7l-3-6.5l8.2-4.8l5.6,0.9
					L350.2,123.2z M366.1,132.3L366.1,132.3l1.5,3.3l1.5,3.3l-3.7,2.2l-4.5,2.6l-11.2-1.7l-3-6.5l8.2-4.8l5.6,0.9L366.1,132.3z
					 M344.1,154.4l-2.9-6.3v-0.1l8.2-4.8l11.2,1.7l3,6.5l-8.2,4.8h-0.1L344.1,154.4z M229.3,220l-5.5,3.2l-11.2-1.7l-3-6.5l8.2-4.8
					l5.6,0.9l5.6,0.9l1.5,3.3l1.5,3.3L229.3,220z M169.1,255l-11.2-1.7l-3-6.5l8.2-4.8l5.6,0.9l5.6,0.9l1.5,3.3l1.5,3.3l-6.8,3.9
					L169.1,255z M137.2,236.7L126,235l-3-6.5l8.2-4.8l5.6,0.9l5.6,0.9l1.5,3.2l1.5,3.3l-6.8,3.9L137.2,236.7z M73.6,199.9l-11.2-1.7
					l-3-6.5l8.2-4.8l1.6,0.2l9.6,1.5l0.2,0.5l2.8,6l-3.5,2.1L73.6,199.9z M90.4,136.7l5.6,0.9l5.6,0.9l1.5,3.3l1.5,3.3l-8.2,4.8
					l-11.2-1.7l-3-6.5L90.4,136.7z M123.6,108.2l11.2,1.7l3,6.5l-2.7,1.6l-5.5,3.2l-5.6-0.9l-5.6-0.9l-1.5-3.2l-1.5-3.3L123.6,108.2
					z M164.5,93.7l8.2-4.8l11.2,1.7l3,6.5l-8.2,4.8l-5.6-0.9l-5.6-0.9l-1.5-3.2L164.5,93.7z M190.2,76.7L178.9,75l-3-6.5l8.2-4.8
					l5.6,0.9l5.6,0.9l0.5,0.9l2.6,5.6l-5.7,3.3L190.2,76.7z M259.3,75.5h0.2l10.9,1.7l3,6.5l-4.5,2.6l-3.7,2.1l-11.2-1.7l-3-6.5
					L259.3,75.5z M339.3,147h-0.1l-11-1.7l-2.9-6.3v-0.1l8.2-4.8l11.2,1.7l3,6.5l-5,2.9L339.3,147z M290.3,175.4l-5.9,3.4l-5.6-0.9
					l-5.6-0.9l-1.5-3.3l-1.5-3.3l8.2-4.8l5.6,0.9l5.6,0.9l0,0l1.5,3.2l1.5,3.3L290.3,175.4z M95.1,196.5l-11.2-1.7l-3-6.5l8.2-4.8
					l11.2,1.7l3,6.5L95.1,196.5z M84.7,149.3l11.2,1.7l3,6.5l-8.2,4.8l-11.2-1.7l-3-6.5L84.7,149.3z M119.9,147.2l8.2-4.8l11.2,1.7
					l3,6.5l-8.2,4.8h-0.2l-10.9-1.7l-1.5-3.2L119.9,147.2z M158.8,106.2l8.2-4.8l5.6,0.9l5.6,0.9l1.5,3.2l1.5,3.2l-2.2,1.2l-6,3.4
					l-5.6-0.9l-5.6-0.9l-1.5-3.2L158.8,106.2z M180.4,102.8l8.2-4.8l11.2,1.7l3,6.5l-6.2,3.7l-1.8,1.1l-5.6-0.9l-5.6-0.9l-1.5-3.2
					L180.4,102.8z M202.1,99.5l8.2-4.8l11.2,1.7l3,6.5l-8.2,4.8l-1.6-0.2l-9.6-1.5l-1.5-3.2L202.1,99.5z M206.1,85.9l-11.2-1.7
					l-3-6.5l8.2-4.8l5.6,0.9l5.6,0.9l1.5,3.3l1.5,3.2l-4.4,2.6L206.1,85.9z M213.6,74.4l8.2-4.8l11.2,1.7l3,6.5l-7.7,4.5l-0.5,0.2
					l-2.9-0.5l-8.3-1.3L213.6,74.4L213.6,74.4z M267.7,96.2l-8.2,4.8l-2.9-0.5l-8.3-1.3l-2-4.1l-1.1-2.3l8.2-4.8l11.2,1.7
					L267.7,96.2z M326.6,135.9l-3.3,2h-0.1l-11-1.7l-2-4l-1.1-2.4l8.2-4.8l11.2,1.7l3,6.5L326.6,135.9z M304.7,139.4l-2.9,1.7
					l-11.2-1.7l-3-6.5l8.2-4.8l5.6,0.9l5.6,0.9l1.5,3.2l1.5,3.3L304.7,139.4z M275,165.9l-6.5,3.8l-5.6-0.9l-5.6-0.9l-0.4-0.9
					l-2.6-5.6l8.2-4.8l10.9,1.7h0.2l1.5,3.3l1.5,3.3L275,165.9z M148.7,211.5l-11.2-1.7l-3-6.5l8.2-4.8l11.2,1.7l3,6.5l-4,2.3
					L148.7,211.5z M89.8,182.2l-3-6.5l8.2-4.8l11.2,1.7l3,6.5l-8.2,4.8L89.8,182.2z M133.4,156.8l0.2,0.5l2.8,6l-1.7,1l-6.5,3.8
					l-11.2-1.7l-3-6.5l8.2-4.8l1.6,0.2L133.4,156.8z M147.3,131.4l8.2-4.8l11.2,1.7l3,6.5l-5.4,3.2l-2.7,1.6l-1.6-0.2l-9.6-1.5
					l-1.5-3.2L147.3,131.4z M174.7,115.4l8.2-4.8l5.6,0.9l5.6,0.9l2.9,6.3l0.1,0.1l-4.4,2.6l-3.8,2.2l-1.6-0.2l-9.6-1.5l-1.5-3.2
					L174.7,115.4z M218.1,108.7l8.2-4.8l11.2,1.7l3,6.5l-8.2,4.8l-5.6-0.9l-5.6-0.9l-0.2-0.5L218.1,108.7z M216,82.2l5.6,0.9
					l5.6,0.9l1.5,3.3l1.5,3.3l-8.2,4.8l-11.2-1.7l-3-6.5L216,82.2z M243.1,93.1l0.2,0.5l2.8,6l-8.2,4.8l-11.2-1.7l-3-6.5l8.2-4.8
					l1.6,0.2L243.1,93.1z M259.1,102.3l1.5,3.3l1.5,3.3l-2.3,1.3l-5.9,3.4l-11.2-1.7l-3.1-6.5l8.2-4.8l5.6,0.9L259.1,102.3z
					 M274.9,111.5l1.5,3.2l1.5,3.3l-8.2,4.8l-11.2-1.7l-3-6.5l8.2-4.8l1.6,0.2L274.9,111.5z M290.9,120.7l1.5,3.2l1.5,3.3l-1.8,1.1
					l-6.3,3.7l-11.2-1.7l-3.1-6.5l8.2-4.8l5.6,0.9L290.9,120.7z M257.5,157.6l-4.8,2.8l-5.6-0.9l-5.6-0.9l-1.5-3.3l-1.5-3.3l8.2-4.8
					l5.6,0.9l5.6,0.9l0,0l1.5,3.2l1.5,3.3L257.5,157.6z M182.3,192l-6.2,3.7l-11.2-1.7l-3-6.5l8.2-4.8l5.6,0.9l5.6,0.9l1.5,3.2
					l1.5,3.3L182.3,192z M154.4,198.9l-11.2-1.7l-3-6.5l8.2-4.8l11.2,1.7l3,6.5L154.4,198.9z M122.6,180.6l-11.2-1.7l-3-6.5l8.2-4.8
					l11.2,1.7l3,6.5L122.6,180.6z M138.2,164.3l5.6,0.9l5.6,0.9l1.5,3.3l1.5,3.3l-8.2,4.8l-11.2-1.7l-3-6.5L138.2,164.3z
					 M151.7,165.6l8.2-4.8l11.2,1.7l3,6.5l-8.3,4.8h-0.2l-10.9-1.7l-1.5-3.2L151.7,165.6z M198.8,119.9l11.2,1.7l1.5,3.2l1.5,3.2
					l-1.3,0.9l-6.8,3.9l-5.6-0.9l-5.6-0.9l-0.2-0.5l-2.8-6L198.8,119.9z M212.3,121.2l8.2-4.8l11.2,1.7l3,6.5l-6.6,3.9l-1.6,0.9
					l-5.6-0.9l-5.6-0.9l-1.5-3.2L212.3,121.2z M233.9,117.8l8.2-4.8l11.2,1.7l3,6.5l-8.2,4.8l-1.6-0.2l-9.6-1.5l-1.5-3.2
					L233.9,117.8z M236.6,151.2l-5.6-0.9l-5.6-0.9l-1.5-3.3l-1.5-3.3l8.2-4.8l5.6,0.9l5.6,0.9l1.5,3.2l1.5,3.3l-1.3,0.7L236.6,151.2
					z M176.5,168.8l-3-6.5l8.2-4.8l11.2,1.7l3,6.5l-8.2,4.8L176.5,168.8z M179.2,149.8l8.2-4.8l11.2,1.7l3,6.5l-5.1,2.9l-3,1.7
					l-1.6-0.2l-9.6-1.5l-1.5-3.2L179.2,149.8z M214.7,129l5.6,0.9l5.6,0.9l2.9,6.3l0.1,0.1l-7.7,4.5l-0.4,0.2l-1.6-0.2l-9.6-1.5
					l-1.5-3.2l-1.5-3.3L214.7,129z M204.2,134.2l1.5,3.2l1.5,3.2l-8.2,4.8l-11.2-1.7l-3-6.5l8.2-4.8l5.6,0.9L204.2,134.2z
					 M209.3,167.1l-5.6-0.9l-5.6-0.9l-1.5-3.3l-1.5-3.3l8.2-4.8l11.2,1.7l3,6.5l-0.5,0.2L209.3,167.1z M215,154.5l-11.2-1.7l-3-6.5
					l8.2-4.8h0.2l10.9,1.7l1.5,3.2l1.5,3.3L215,154.5z M242.5,138.7l-5.6-0.9l-5.6-0.9l-2.6-5.6l-0.4-0.9l8.2-4.8l11.2,1.7l3,6.5
					L242.5,138.7z M188.2,125l3,6.5l-8.2,4.8l-11.2-1.7l-3-6.5l8.2-4.8h0.2L188.2,125z M171.4,135.7l11.2,1.7l3,6.5l-1.7,1l-6.5,3.8
					l-5.6-0.9l-5.6-0.9l-0.2-0.5l-2.8-6L171.4,135.7z M165.6,148.3l11.2,1.7l3,6.5l-7.7,4.4l-0.5,0.2l-11.2-1.7l-3-6.5L165.6,148.3z
					 M168.3,181.7l-8.2,4.8l-11.2-1.7l-3-6.5l8.2-4.8l1.6,0.2l9.6,1.5l1.5,3.2L168.3,181.7z M181.9,183.1l-5.6-0.9l-5.6-0.9
					l-1.5-3.2l-1.5-3.2l8.2-4.8l11.2,1.7l3,6.5L181.9,183.1z M192.3,177.9l-3-6.5l8.2-4.8l11.2,1.7l3,6.5l-4,2.3l-4,2.3L192.3,177.9
					z M225.2,176.4l-5.6-0.9l-5.6-0.9l-1.5-3.3l-1.5-3.3l8.2-4.8l11.2,1.7l3,6.5L225.2,176.4z M230.9,163.8l-11.2-1.7l-3-6.5
					l8.2-4.8l5.6,0.9l5.6,0.9l1.5,3.2l1.5,3.3L230.9,163.8z M258.3,147.8l-5.6-0.9l-5.6-0.9l-1.5-3.3l-1.5-3.3l8.2-4.8l11.2,1.7
					l3,6.5l-4.8,2.8L258.3,147.8z M264.1,135.3l-5.6-0.9l-5.6-0.9l-1.5-3.3l-1.5-3.2l8.2-4.8l11.2,1.7l3.1,6.5L264.1,135.3z
					 M204.5,107.3l11.2,1.7l3.1,6.5l-4.4,2.6l-3.7,2.2l-10.2-1.6l-1-0.1l-2.6-5.6l-0.4-0.9L204.5,107.3z M172.3,115.7l1.5,3.2
					l1.5,3.2l-8.2,4.8l-11.2-1.7l-3-6.5l8.2-4.8l5.6,0.9L172.3,115.7z M149.7,139.2l11.2,1.7l3,6.5l-6.1,3.5l-2,1.2l-11.2-1.7
					l-3-6.5L149.7,139.2z M143.9,151.7l11.2,1.7l3,6.5l-8.2,4.8l-5.6-0.9l-5.6-0.9l-3-6.5L143.9,151.7z M100.6,158.4l11.2,1.7l3,6.5
					l-8.2,4.8l-11.2-1.7l-3-6.5L100.6,158.4z M110.8,180.3L122,182l3,6.5l-8.2,4.8l-11.2-1.7l-3-6.5L110.8,180.3z M127.3,188.1
					l-3-6.5l8.2-4.8l11.2,1.7l3,6.5l-8.2,4.8L127.3,188.1z M153.4,219.1l-3-6.5l8.2-4.8l11.2,1.7l3,6.5l-4,2.3l-4,2.3L153.4,219.1z
					 M170.4,208.2l-11.2-1.7l-3-6.5l8.2-4.8l11.2,1.7l3,6.5L170.4,208.2z M192.1,204.8l-11.2-1.7l-3-6.5l8.2-4.8l5.6,0.9l5.6,0.9
					l1.5,3.2l1.5,3.3L192.1,204.8z M197.8,192.2l-5.6-0.9l-5.6-0.9l-1.5-3.2l-1.5-3.2l8.2-4.8l11.2,1.7l3,6.5L197.8,192.2z
					 M219.4,188.9l-11.2-1.7l-3-6.5l8.2-4.8l11.2,1.7l3,6.5l-4,2.3L219.4,188.9z M241.1,185.5l-5.6-0.9l-5.6-0.9l-0.4-0.9l-2.6-5.6
					l8.2-4.8l11.1,1.7l3,6.5l-0.4,0.2L241.1,185.5z M235.8,171.2l-3-6.5l8.2-4.8l5.6,0.9l5.6,0.9l0,0l1.5,3.2l1.5,3.3l-8.2,4.8
					L235.8,171.2z M274.3,157l-5.6-0.9l-5.6-0.9l-1.5-3.3l-1.5-3.3l8.2-4.8l11.2,1.7l3,6.5l-2.7,1.6L274.3,157z M280,144.4l-5.6-0.9
					l-5.6-0.9l-1.5-3.3l-1.5-3.3l8.2-4.8l11.2,1.7l3,6.5L280,144.4z M310.5,126.7l-3.2,1.8h-0.1l-11-1.7l-2.2-4.8l-0.7-1.7l8.2-4.8
					l11.2,1.7l3,6.5L310.5,126.7z M291.5,119.3h-0.1l-11-1.7l-2.3-4.8l-0.7-1.7l8.2-4.8l11.2,1.7l3,6.5L291.5,119.3z M278.7,108.3
					l-3,1.8h-0.1l-11.1-1.7l-2.9-6.3V102l8.2-4.8l11.2,1.7l3,6.5L278.7,108.3z M243.7,91.7L243.7,91.7L232.5,90l-2.9-6.3v-0.1
					l8.2-4.8l11.2,1.7l3,6.5L243.7,91.7z M139.5,117.5l11.2,1.7l3,6.5l-8.2,4.8l-5.6-0.9l-5.6-0.9l-1.5-3.2l-1.5-3.3L139.5,117.5z
					 M133.8,130l11.2,1.7l3,6.5l-7.7,4.4l-0.5,0.2l-11.2-1.7l-3-6.5L133.8,130z M117.5,147.6l1.5,3.3l1.5,3.3l-8.2,4.8l-11.2-1.7
					l-3-6.5l8.2-4.8l5.6,0.9L117.5,147.6z M78.9,161.8l11.2,1.7l3,6.5l-4,2.3l-4,2.3l-11.2-1.7l-3-6.5L78.9,161.8z M73.2,174.4
					l11.2,1.7l3,6.5l-8.2,4.8l-11.2-1.7l-3-6.5L73.2,174.4z M121.6,200.6l-3-6.5l8.2-4.8l11.2,1.7l3,6.5l-8.2,4.8L121.6,200.6z
					 M137,211.2l11.2,1.7l3,6.5l-8.2,4.8l-11.2-1.7l-3-6.5L137,211.2z M158.9,233.3l-11.2-1.7l-3-6.5l8.2-4.8l11.2,1.7l3,6.5
					L158.9,233.3z M169.4,228.2l-3-6.5l8.2-4.8l11.2,1.7l3,6.5l-4,2.3l-4.3,2.4L169.4,228.2z M186.4,217.3l-11.2-1.7l-3-6.5l8.2-4.8
					l11.2,1.7l3,6.5L186.4,217.3z M208,214l-11.2-1.7l-3-6.5l8.2-4.8l5.6,0.9l5.6,0.9l1.5,3.3l1.5,3.3l-1.5,0.9L208,214z
					 M213.7,201.5l-5.6-0.9l-5.6-0.9l-0.1-0.1l-2.9-6.3l8.2-4.8l11.2,1.7l3,6.5L213.7,201.5z M235.4,198.1l-11.2-1.7l-3.1-6.5
					l8.2-4.8l11.2,1.7l3,6.5l-4,2.3L235.4,198.1z M245.3,194.4l11.2,1.7l3,6.5l-8.2,4.8l-11.2-1.7l-3-6.5L245.3,194.4z M257.1,194.8
					l-5.6-0.9l-5.6-0.9l-1.5-3.3l-1.5-3.3l8.2-4.8l11.2,1.7l3,6.5l-5.2,3L257.1,194.8z M262.8,182.1l-11.2-1.7l-3-6.5l8.2-4.8
					l5.6,0.9l5.6,0.9l1.5,3.3l1.5,3.3L262.8,182.1z M290.2,166.2l-5.6-0.9l-5.6-0.9l-1.5-3.3l-1.5-3.3l8.2-4.8l11.2,1.7l3,6.5
					l-4.8,2.8L290.2,166.2z M296,153.7l-5.6-0.9l-5.6-0.9l-0.5-0.9l-2.6-5.6l8.2-4.8l11.2,1.7l3,6.5L296,153.7z M317.6,150.3
					l-11.2-1.7l-3-6.5l8.2-4.8l5.6,0.9l5.6,0.9l1.5,3.3l1.5,3.3l-3.8,2.2L317.6,150.3z M205.8,60.4l11.2,1.7l3,6.5l-6.5,3.8l-1.6,1
					l-2.9-0.5l-8.3-1.3l-2.9-6.3V65L205.8,60.4z M194.3,85.5l11.2,1.7l3,6.5l-8.2,4.8l-5.6-0.9l-5.6-0.9l-1.5-3.2l-1.5-3.3
					L194.3,85.5z M158,109.8l1.5,3.2l-8.2,4.8L140,116l-3-6.5l8.2-4.8l5.6,0.9l5.6,0.9L158,109.8z M117.8,120.7l11.2,1.7l3,6.5
					l-2,1.2l-6.1,3.5l-11.2-1.7l-3-6.5L117.8,120.7z M112.1,133.3l11.2,1.7l3,6.5l-8.2,4.8l-5.6-0.9l-5.6-0.9l-1.5-3.2l-1.5-3.3
					L112.1,133.3z M82.9,148.3l-8.2,4.8l-11.2-1.7l-3-6.5l8.2-4.8l11.2,1.7L82.9,148.3z M62.9,152.6l11.2,1.7l3,6.5l-4,2.3l-4,2.3
					l-11.2-1.7l-3-6.5L62.9,152.6z M57.2,165.1l11.2,1.7l3,6.5l-8.2,4.8l-11.2-1.7l-3-6.5L57.2,165.1z M35.6,168.6l5.6,0.9l5.6,0.9
					l1.5,3.3l1.5,3.3l-8.2,4.8l-11.2-1.7l-3-6.5L35.6,168.6z M51.5,177.7l5.6,0.9l5.6,0.9l1.5,3.3l1.5,3.3l-8.2,4.8L46.2,189l-3-6.5
					L51.5,177.7z M111.1,205.8L99.9,204l-3-6.5l8.2-4.8l11.2,1.7l3,6.5L111.1,205.8z M121,202l11.2,1.7l3,6.5l-8.2,4.8l-11.2-1.7
					l-3-6.5L121,202z M147.1,233l5.6,0.9l5.6,0.9l1.5,3.3l1.5,3.3l-8.2,4.8l-11.2-1.7l-3-6.5L147.1,233z M174.8,242.5l-11.2-1.7
					l-3-6.5l8.2-4.8l11.2,1.7l3,6.5L174.8,242.5z M185.3,237.5l-3-6.5l8.2-4.8l11.2,1.7l3,6.5l-4,2.3l-4,2.3L185.3,237.5z
					 M202.2,226.6l-11.2-1.7l-3-6.5l8.2-4.8l11.2,1.7l3,6.5L202.2,226.6z M229.7,210.6l-5.6-0.9l-5.6-0.9l-1.5-3.3l-1.5-3.3l8.2-4.8
					l11.2,1.7l3,6.5L229.7,210.6z M273,203.9l-5.6-0.9l-5.6-0.9l-1.5-3.3l-1.5-3.3l8.2-4.8l11.2,1.7l3,6.5l-1.8,1L273,203.9z
					 M278.7,191.4l-11.2-1.7l-3-6.5l8.2-4.8l5.6,0.9l5.6,0.9l1.5,3.3l1.5,3.3L278.7,191.4z M287.7,183.1l-1.5-3.3l8.2-4.8l5.6,0.9
					l5.6,0.9l1.5,3.3l1.5,3.3l-8.2,4.8l-5.6-0.9l-5.6-0.9L287.7,183.1z M306.1,175.4l-5.6-0.9l-5.6-0.9l-1.5-3.3l-1.5-3.3l8.2-4.8
					l11.2,1.7l3,6.5l-2.7,1.6L306.1,175.4z M311.9,162.8l-5.6-0.9l-5.6-0.9l-1.5-3.3l-1.5-3.3l8.2-4.8l11.2,1.7l3,6.5L311.9,162.8z
					 M322.4,157.7l-3-6.5l8.2-4.8l5.6,0.9l5.6,0.9l1.5,3.3l1.5,3.3l-5.1,3l-2.9,1.7L322.4,157.7z M305.4,102.1l-8.2,4.8l-11.2-1.7
					l-3-6.5l8.2-4.8h0.2l10.9,1.7l1.5,3.2L305.4,102.1z M286.4,86.4l1.5,3.2l1.5,3.2l-4.5,2.6l-3.7,2.1l-11.2-1.7l-3-6.5l8.2-4.8
					l5.6,0.9L286.4,86.4z M256.1,71.2l1.5,3.2l-6.5,3.8l-1.7,1l-11.2-1.7l-3-6.5l8.2-4.8l5.6,0.9l5.6,0.9L256.1,71.2z M233.6,70
					l-11.2-1.7l-3-6.5l8.2-4.8l5.6,0.9l5.6,0.9l1.5,3.2l1.5,3.2L233.6,70z M178.3,76.3l11.2,1.7l3,6.5l-8.2,4.8l-5.6-0.9l-5.6-0.9
					l-1.5-3.2l-1.5-3.3L178.3,76.3z M151,92.3l5.6,0.9l5.6,0.9l1.5,3.2l1.5,3.2l-8.2,4.8l-5.6-0.9l-5.6-0.9l-1.5-3.2l-1.5-3.3
					L151,92.3z M101.8,111.6l11.2,1.7l3,6.5l-0.4,0.2l-7.8,4.5l-11.2-1.7l-3-6.5L101.8,111.6z M96.1,124.2l11.2,1.7l3,6.5l-8.2,4.8
					l-5.6-0.9l-5.6-0.9l-1.5-3.2l-1.5-3.3L96.1,124.2z M47.1,143.4l11.2,1.7l3.1,6.5l-8.2,4.8L42,154.7l-3-6.5L47.1,143.4z
					 M41.4,156l11.2,1.7l3,6.5l-8.2,4.8l-11.2-1.7l-3-6.5L41.4,156z M19.6,159.4l5.6,0.9l5.6,0.9l0.4,0.9l2.6,5.6l-3.5,2.1l-4.6,2.7
					l-11.2-1.7l-3-6.5L19.6,159.4z M89.4,209.1l-11.2-1.7l-3-6.5l8.2-4.8l5.6,0.9l5.6,0.9l1.5,3.3l1.5,3.3l-3.5,2.1L89.4,209.1z
					 M115.3,214.5l5.6,0.9l5.6,0.9l1.5,3.2l1.5,3.3l-7.2,4.1l-1,0.6l-11.2-1.7l-3-6.5L115.3,214.5z M186.4,263.4l-1.3,0.7l-11.2-1.7
					l-3-6.5l8.2-4.8l5.6,0.9l5.6,0.9l1.5,3.3l1.5,3.3L186.4,263.4z M190.8,251.7l-11.2-1.7l-3-6.5l8.2-4.8l11.2,1.7l3,6.5
					L190.8,251.7z M201.3,246.6l-3-6.5l8.2-4.8l11.2,1.7l3,6.5l-4,2.3l-4,2.3L201.3,246.6z M218.2,235.8l-11.2-1.7l-3-6.5l8.2-4.8
					l11.2,1.7l3,6.5L218.2,235.8z M239.8,232.5l-11.2-1.7l-3-6.5l8.2-4.8l5.6,0.9l5.6,0.9l1.5,3.3l1.5,3.3L239.8,232.5z
					 M245.6,219.9l-5.6-0.9l-5.6-0.9l-1.5-3.3l-1.5-3.3l8.2-4.8l11.2,1.7l3,6.5L245.6,219.9z M267.2,216.5l-11.2-1.7l-3-6.5l8.2-4.8
					l11.2,1.7l3,6.5l-1.5,0.9L267.2,216.5z M276.3,208.2l-1.5-3.3l8.2-4.8l11.2,1.7l3,6.5l-8.2,4.8l-5.6-0.9l-5.6-0.9L276.3,208.2z
					 M294.7,200.5l-11.2-1.7l-3-6.5l8.2-4.8l5.6,0.9l5.6,0.9l1.5,3.3l1.5,3.3L294.7,200.5z M327.9,172.1l-5.6-0.9l-5.6-0.9l-1.5-3.3
					l-1.5-3.3l8.2-4.8l11.2,1.7l3,6.5L327.9,172.1z M382.6,140.1l-5.6-0.9l-5.6-0.9l-1.5-3.3l-1.5-3.3l8.2-4.8l11.2,1.7l3,6.5
					L382.6,140.1z M374.8,126.2l-8.2,4.8l-5.6-0.9l-5.6-0.9L354,126l-1.5-3.3l8.2-4.8l11.2,1.7L374.8,126.2z M359,117.1l-8.2,4.8
					l-5.6-0.9l-5.6-0.9l-0.5-0.9l-2.6-5.6l8.2-4.8l11.2,1.7L359,117.1z M343,107.8l-8.2,4.8l-5.6-0.9l-5.6-0.9l-1.5-3.3l-1.5-3.3
					l8.2-4.8l11.2,1.7L343,107.8z M327,98.7l-8.2,4.8l-5.6-0.9l-5.6-0.9l-1.5-3.3l-1.5-3.3l8.2-4.8l11.2,1.7L327,98.7z M295.2,80.3
					L287,85l-5.6-0.9l-5.6-0.9l-0.2-0.5l-2.8-6l8.2-4.8l11.2,1.7L295.2,80.3z M263.3,61.8l-8.2,4.8l-5.6-0.9l-5.6-0.9l-1.5-3.2
					l-1.5-3.3l8.2-4.8l11.2,1.7L263.3,61.8z M168.2,54.6l5.6,0.9l5.6,0.9l1.5,3.3l1.5,3.3l-8.2,4.8L162.9,66l-3-6.5L168.2,54.6z
					 M86,102.3l11.2,1.7l3,6.5l-4,2.3l-4,2.3L81,113.4l-3-6.5L86,102.3z M52.8,130.9l11.2,1.7l3,6.5l-8.2,4.8l-11.2-1.7l-3-6.5
					L52.8,130.9z M31.1,134.3l11.2,1.7l3,6.5l-8.2,4.8L26,145.5l-3-6.5L31.1,134.3z M25.4,146.8l11.2,1.7l3,6.5l-8.2,4.8l-11.2-1.7
					l-3-6.5L25.4,146.8z M3.7,150.1l5.6,0.9l5.6,0.9l1.5,3.3l1.5,3.3l-6.8,3.9l-1.3,0.7l-11.2-1.7l-3-6.5L3.7,150.1z M13.9,172
					l5.6,0.9l5.6,0.9l1.5,3.3l1.5,3.3l-8.2,4.8l-11.2-1.7l-3-6.5L13.9,172z M29.9,181.1l5.6,0.9l5.6,0.9l1.5,3.3l1.5,3.3l-8.2,4.8
					l-11.2-1.7l-3-6.5L29.9,181.1z M77.6,208.7l5.6,0.9l5.6,0.9l2.6,5.6l0.4,1l-8.2,4.8L72.3,220l-3-6.5L77.6,208.7z M157.3,254.7
					l5.6,0.9l5.6,0.9l1.5,3.3l1.5,3.3l-8.2,4.8l-11.2-1.7l-3-6.5L157.3,254.7z M202,273l-1,0.6l-11.2-1.7l-3-6.5l8.2-4.8l5.6,0.9
					l5.6,0.9l1.5,3.3l1.5,3.3L202,273z M206.7,260.9l-11.2-1.7l-3-6.5l8.2-4.8l11.2,1.7l3,6.5L206.7,260.9z M228.3,257.6l-11.2-1.7
					l-3-6.5l8.2-4.8l11.2,1.7l3,6.5l-6,3.4L228.3,257.6z M234.1,245l-11.2-1.7l-3-6.5l8.2-4.8l11.2,1.7l3,6.5L234.1,245z
					 M255.8,241.6l-11.2-1.7l-3-6.5l8.2-4.8l5.6,0.9l5.6,0.9l1.5,3.3l1.5,3.3L255.8,241.6z M261.5,229l-5.6-0.9l-5.6-0.9l-1.5-3.3
					l-1.5-3.3l8.2-4.8l11.2,1.7l3,6.5L261.5,229z M272,223.9l-3-6.5l8.2-4.8l11.2,1.7l3,6.5l-4,2.3l-4,2.3L272,223.9z M293.7,220.6
					l-1.5-3.3l-1.5-3.3l8.2-4.8l11.2,1.7l3,6.5l-8.2,4.8l-5.6-0.9L293.7,220.6z M310.7,209.8l-11.2-1.7l-3-6.5l8.2-4.8l5.6,0.9
					l5.6,0.9l1.5,3.3l1.5,3.3L310.7,209.8z M316.4,197.2l-5.6-0.9l-5.6-0.9l-1.5-3.3l-1.5-3.3l8.2-4.8l5.6,0.9l5.6,0.9l1.5,3.3
					l1.5,3.3l-1.3,0.7L316.4,197.2z M325.3,188.8l-1.5-3.3l8.2-4.8l11.2,1.7l3,6.5l-8.2,4.8l-5.6-0.9l-5.6-0.7L325.3,188.8z
					 M343.7,181.2l-5.6-0.9l-5.6-0.9l-1.5-3.3l-1.5-3.3l8.2-4.8l11.2,1.7l3,6.5L343.7,181.2z M354.2,176.1l-3-6.5l8.2-4.8l5.6,0.9
					l5.6,0.9l1.5,3.3l1.5,3.3l-8.2,4.8L354.2,176.1z M371.1,165.4H371l-11-1.7l-2.9-6.3v-0.1l8.2-4.8l11.2,1.7l3,6.5L371.1,165.4z
					 M398.6,149.4l-5.6-0.9l-5.6-0.9l-1.5-3.3l-1.5-3.3l8.2-4.8l11.2,1.7l3,6.5L398.6,149.4z M201.4,26.1l11.2,1.7l3,6.5l-8.2,4.8
					l-5.6-0.9l-5.6-0.9l-1.5-3.3l-1.5-3.3L201.4,26.1z M119,73.9l5.6,0.9l5.6,0.9l0,0l1.5,3.3l1.5,3.3l-3.3,2l-4.8,2.8l-5.6-1
					l-5.6-0.9l-1.5-3.3l-1.5-3.2L119,73.9z M70,93.2l11.2,1.7l3,6.5l-8.2,4.8l-11.2-1.7l-3-6.5L70,93.2z M64.3,105.7l11.2,1.7l3,6.5
					l-8.2,4.8l-5.6-0.9l-5.6-0.9l-1.5-3.3l-1.5-3.3L64.3,105.7z M36.8,121.7l11.2,1.7l3,6.5l-8.2,4.8l-11.2-1.7l-3-6.5L36.8,121.7z
					 M15.1,125l11.2,1.7l3,6.5l-8.2,4.8L10,136.2l-3-6.5L15.1,125z M9.4,137.6l11.2,1.7l3,6.5l-8.2,4.8l-11.2-1.7l-3-6.5L9.4,137.6z
					 M-12.2,141l5.6,0.9l5.6,0.9l1.5,3.3l1.5,3.3l-5,2.9l-3.2,1.8l-11.2-1.7l-3-6.5L-12.2,141z M-17.9,153.6l5.6,0.9l5.6,0.9
					l1.5,3.3l1.5,3.3l-6.8,3.9l-1.3,0.7l-11.2-1.7l-3-6.5L-17.9,153.6z M93.6,218l5.6,0.9l5.6,0.9l1.5,3.2l1.5,3.3l-7.2,4.1l-1,0.6
					l-11.2-1.7l-3-6.5L93.6,218z M195.2,286l-11.2-1.7l-3-6.5l8.2-4.8l5.6,0.9l5.6,0.9l1.5,3.3l1.5,3.3l-0.4,0.2L195.2,286z
					 M218.2,281.9l-1.3,0.7l-11.2-1.7l-3-6.5l8.2-4.8l5.6,0.9l5.6,0.9l1.5,3.3l1.5,3.3L218.2,281.9z M222.6,270.2l-11.2-1.7l-3-6.5
					l8.2-4.8l11.2,1.7l3,6.5L222.6,270.2z M233.1,265l-3-6.5l8.2-4.8l11.2,1.7l3,6.5l-8.2,4.8L233.1,265z M250,254.2l-11.2-1.7
					l-3-6.5l8.2-4.8l11.2,1.7l3,6.5L250,254.2z M271.7,250.8l-11.2-1.7l-3-6.5l8.2-4.8l5.6,0.9l5.6,0.9l1.5,3.3l1.5,3.3L271.7,250.8
					z M277.5,238.2l-5.6-0.9l-5.6-0.9l-1.5-3.3l-1.5-3.3l8.2-4.8l11.2,1.7l3,6.5L277.5,238.2z M299.2,234.9l-11.2-1.7l-3-6.5
					l8.2-4.8l11.2,1.7l3,6.5l-4,2.3L299.2,234.9z M326.5,218.9l-11.2-1.7l-3-6.5l8.2-4.8l5.6,0.9l5.6,0.9l1.5,3.3l1.5,3.3
					L326.5,218.9z M332.2,206.4l-5.6-0.9l-5.6-0.9l-1.5-3.3l-1.5-3.3l8.2-4.8l5.6,0.9l5.6,0.9l1.5,3.3l1.5,3.3l-2.7,1.6L332.2,206.4
					z M359.7,190.5l-5.6-0.9l-5.6-0.9l-1.5-3.3l-1.5-3.3l8.2-4.8l11.2,1.7l3,6.5L359.7,190.5z M387.1,174.5H387l-11-1.7l-2.9-6.3
					v-0.1l8.2-4.8l11.2,1.7l3,6.5l-5,2.9L387.1,174.5z M408.7,171.1l-11.2-1.7l-3-6.5l8.2-4.8l5.6,0.9l5.6,0.9l0,0l1.5,3.3l1.5,3.3
					L408.7,171.1z M414.6,158.6l-5.6-0.9l-5.6-0.9l-1.5-3.3l-1.5-3.3l8.2-4.8l11.2,1.7l3,6.5L414.6,158.6z M436.2,155.3l-11.2-1.7
					L422,147l8.2-4.8l5.6,0.9l5.6,0.9l1.5,3.3l1.5,3.3l-1.7,1L436.2,155.3z M447,131.5l3,6.5l-8.2,4.8l-11.2-1.7l-3-6.5l8.2-4.8
					L447,131.5z M431.2,122.3l3,6.5l-8.2,4.8l-11.2-1.7l-3-6.5l8.2-4.8L431.2,122.3z M415.2,113.1l3,6.5l-8.2,4.8l-11.2-1.7l-3-6.5
					l8.2-4.8L415.2,113.1z M399.2,103.9l3,6.5l-8.2,4.8l-11.2-1.7l-3-6.5l8.2-4.8L399.2,103.9z M383.4,94.6l3,6.5l-8.2,4.8
					l-11.2-1.7l-3-6.5l8.2-4.8L383.4,94.6z M367.4,85.5l3,6.5l-8.2,4.8L351,95l-3-6.5l8.2-4.8L367.4,85.5z M351.4,76.2l3,6.5
					l-8.2,4.8L335,85.7l-3-6.5l8.2-4.8L351.4,76.2z M335.5,67.1l3,6.5l-8.2,4.8l-11.2-1.7l-3-6.5l8.2-4.8L335.5,67.1z M319.6,57.9
					l3,6.5l-8.2,4.8l-11.2-1.7l-3-6.5l8.2-4.8L319.6,57.9z M303.7,48.7l3,6.5l-8.2,4.8l-11.2-1.7l-3-6.5l8.2-4.8L303.7,48.7z
					 M287.7,39.5l3,6.5l-8.2,4.8L271.4,49l-3-6.5l8.2-4.8L287.7,39.5z M271.7,30.2l3,6.5l-8.2,4.8l-11.2-1.7l-3-6.5l8.2-4.8
					L271.7,30.2z M255.9,21.1l3,6.5l-8.2,4.8l-11.2-1.7l-3-6.5l8.2-4.8L255.9,21.1z M239.9,12l3,6.5l-8.2,4.8l-11.2-1.7l-3-6.5
					l8.2-4.8L239.9,12z M212.8,1l11.2,1.7l3,6.5l-8.2,4.8l-11.2-1.7l-3-6.5L212.8,1z M183,9l8.2-4.8L202.3,6l1.5,3.3l1.5,3.3
					l-1.5,0.9l-6.7,3.9l-11.2-1.7L183,9z M185.4,16.8l11.2,1.7l3,6.5l-8.2,4.8l-5.6-0.9l-5.6-0.9l-1.5-3.3l-1.5-3.3L185.4,16.8z
					 M155.6,25l8.2-4.8L175,22l1.5,3.3l1.5,3.3l-3,1.7l-5.1,3l-11.2-1.7L155.6,25z M158,32.8l11.2,1.7l3,6.5l-8.2,4.8h-0.1L153,44
					l-2.9-6.3v-0.1L158,32.8z M128.2,41l8.2-4.8l11.2,1.7l1.5,3.3l1.5,3.3l-5.1,3l-2.9,1.7l-11.2-1.7L128.2,41z M130.6,48.8
					l11.2,1.7l3,6.5l-8.2,4.8l-5.6-0.9l-5.6-0.9l-1.5-3.3l-1.5-3.3L130.6,48.8z M100.7,56.8l8.2-4.8l11.2,1.7l3,6.5l-2.7,1.6L115,65
					l-5.6-0.9l-5.6-0.9L100.7,56.8z M103.2,64.6l5.6,0.9l5.6,0.9l1.5,3.3l1.5,3.3l-5.7,3.4l-2.3,1.3l-5.6-0.9L98.1,76l-1.5-3.3
					l-1.5-3.3L103.2,64.6z M73.3,72.8l8.2-4.8l11.2,1.7l1.5,3.3l1.5,3.3l-8.2,4.8l-11.2-1.7L73.3,72.8z M75.7,80.6L87,82.3l3,6.5
					l-8.2,4.8l-5.6-0.9l-5.6-0.9l-1.5-3.3l-1.5-3.3L75.7,80.6z M46,88.7l8.2-4.8l11.2,1.7l3,6.5l-4,2.3l-4,2.3L49.2,95L46,88.7z
					 M48.3,96.6l11.2,1.7l3,6.5l-8.2,4.8l-5.6-0.9l-5.6-0.9l-1.5-3.3l-1.5-3.3L48.3,96.6z M18.5,104.6l8.2-4.8l11.2,1.7l1.5,3.3
					l1.5,3.3l-8.2,4.8l-11.2-1.7L18.5,104.6z M21,112.5l11.2,1.7l3,6.5l-8.2,4.8l-11.2-1.7l-3-6.5L21,112.5z M-8.9,120.6l8.2-4.8
					l11.2,1.7l3,6.5l-8.2,4.8l-11.2-1.7L-8.9,120.6z M-6.5,128.4l11.2,1.7l3,6.5l-8.2,4.8l-11.2-1.7l-3-6.5L-6.5,128.4z
					 M-36.3,136.5l8.2-4.8l11.2,1.7l1.5,3.3l1.5,3.3l-6.8,3.9l-1.3,0.7l-11.2-1.7L-36.3,136.5z M-33.9,144.3l5.6,0.9l5.6,0.9
					l1.5,3.3l1.5,3.3l-3.9,2.3l-4.3,2.4l-11.1-1.8l-3-6.5L-33.9,144.3z M-60.7,158.9l-3-6.5l8.2-4.8l11.2,1.7l1.5,3.3l1.5,3.3
					l-8.2,4.8L-60.7,158.9z M-44.8,168.1l-3-6.5l8.2-4.8l5.6,0.9l5.6,0.9l1.5,3.3l1.5,3.3l-8.2,4.8L-44.8,168.1z M-28.8,177.3
					l-3-6.5l8.2-4.8l5.6,0.9l5.6,0.9l1.5,3.3l1.5,3.3l-8.2,4.8L-28.8,177.3z M-16,180l8.2-4.8l5.6,0.9l5.6,0.9l0.5,0.9l2.6,5.6
					l-0.7,0.5l-7.4,4.3l-11.2-1.7L-16,180z M0,189.2l8.2-4.8l5.6,0.9l5.6,0.9l1.5,3.3l1.5,3.3l-4,2.3l-4,2.3l-11.2-1.7L0,189.2z
					 M19,204.9l-3-6.5l8.2-4.8l5.6,0.9l5.6,0.9l1.5,3.3l1.5,3.3l-8.2,4.8L19,204.9z M31.8,207.6l8.2-4.8l1.6,0.2l9.6,1.5l0.2,0.5
					l2.8,6l-1.2,0.7l-7,4L34.9,214L31.8,207.6z M50.9,223.3l-3-6.5l8.2-4.8l5.6,0.9l5.6,0.9l1.5,3.3l1.5,3.3l-8.2,4.8L50.9,223.3z
					 M63.8,226l8.2-4.8l1.6,0.2l9.6,1.5l1.5,3.2l1.5,3.3l-0.4,0.2l-7.8,4.5l-11.2-1.7L63.8,226z M93.9,243.4l-11.2-1.7l-3-6.5
					l8.2-4.8l5.6,0.9l5.6,0.9l1.5,3.2l1.5,3.3l-6.5,3.8L93.9,243.4z M95.6,244.4l8.2-4.8l5.6,0.9l5.6,0.9l1.5,3.2l1.5,3.3l-0.7,0.5
					l-7.4,4.3l-11.2-1.7L95.6,244.4z M114.5,260l-3-6.5l8.2-4.8l5.6,0.9l5.6,0.9l1.5,3.3l1.5,3.3l-8.2,4.8L114.5,260z M127.5,262.8
					l8.2-4.8l5.6,0.9l5.6,0.9l1.5,3.3l1.5,3.3l-4,2.3l-4,2.3l-11.2-1.7L127.5,262.8z M143.4,272l8.2-4.8l5.6,0.9l5.6,0.9l1.5,3.3
					l1.5,3.3L165,276l-7.4,4.3l-11.2-1.7L143.4,272z M162.3,287.7l-3-6.5l8.2-4.8l5.6,0.9l5.6,0.9l1.5,3.3l1.5,3.3l-8.2,4.8
					L162.3,287.7z M178.3,296.9l-3-6.5l8.2-4.8l5.6,0.9l5.6,0.9l1.5,3.3l1.5,3.3l-8.2,4.8L178.3,296.9z M213.6,303.1l-8.2,4.8
					l-11.2-1.7l-3-6.5l8.2-4.8l5.6,0.9l5.6,0.9L213.6,303.1z M211.1,295.3l-11.2-1.7l-3-6.5l8.2-4.8l5.6,0.9l5.6,0.9l1.5,3.3
					l1.5,3.3L211.1,295.3z M241,287.1l-8.2,4.8l-11.2-1.7l-3-6.5l8.2-4.8l5.6,0.9l5.6,0.9L241,287.1z M238.6,279.3l-11.2-1.7l-3-6.5
					l8.2-4.8l11.2,1.7l3,6.5L238.6,279.3z M268.3,271.2l-8.2,4.8l-11.2-1.7l-3-6.5l8.2-4.8l11.2,1.7L268.3,271.2z M266,263.3
					l-11.2-1.7l-3-6.5l8.2-4.8l11.2,1.7l3,6.5L266,263.3z M295.8,255.3l-8.2,4.8l-11.2-1.7l-3-6.5l8.2-4.8l5.6,0.9l5.6,0.9
					L295.8,255.3z M293.3,247.5l-5.6-0.9l-5.6-0.9l-1.5-3.3l-1.5-3.3l8.2-4.8l11.2,1.7l3,6.5L293.3,247.5z M323.2,239.3L315,244
					l-11.2-1.7l-3-6.5l8.2-4.8l11.2,1.7L323.2,239.3z M320.8,231.5l-5.6-0.9l-5.6-0.9l-1.5-3.3l-1.5-3.3l8.2-4.8l11.2,1.7l3,6.5
					L320.8,231.5z M350.7,223.4l-8.2,4.8l-11.1-1.7l-3-6.5l8.2-4.8l5.6,0.9l5.6,0.9L350.7,223.4z M348.2,215.6l-5.6-0.9l-5.6-0.9
					l-1.5-3.3l-1.5-3.3l8.2-4.8l5.6,0.9l5.6,0.9l1.5,3.3l1.5,3.3L348.2,215.6z M378,207.5l-8.2,4.8l-11.2-1.7l-1.5-3.3l-1.5-3.3
					l8.2-4.8l11.2,1.7L378,207.5z M375.7,199.7l-5.6-0.9l-5.6-0.9l-1.5-3.3l-1.5-3.3l8.2-4.8l11.2,1.7l3,6.5L375.7,199.7z
					 M405.4,191.6l-8.2,4.8l-11.2-1.7l-3-6.5l8.2-4.8l5.6,0.9l5.6,0.9L405.4,191.6z M403,183.7h-0.1l-11-1.7l-2.9-6.3v-0.1l8.2-4.8
					l11.2,1.7l3,6.5L403,183.7z M432.9,175.6l-8.2,4.8l-11.2-1.7l-3-6.5l8.2-4.8l5.6,0.9l5.6,0.9L432.9,175.6z M430.4,167.8
					l-5.6-0.9l-5.6-0.9l-1.5-3.3l-1.5-3.3l8.2-4.8l11.2,1.7l3,6.5L430.4,167.8z M460.3,159.7l-8.2,4.8l-11.2-1.7l-3.1-6.5l8.2-4.8
					l5.6,0.9l5.6,0.9L460.3,159.7z"/>
			</defs>
			<clipPath id="SVGID_2_">
				<use xlink:href="#SVGID_1_"  style="overflow:visible;"/>
			</clipPath>
			<g id="Mask_Group_23" transform="translate(0 0)" class="st3">
				<path id="Path_2928" class="st2" d="M1.1,152.8l187-107l187.3,107L188,262.1L1.1,152.8z"/>
			</g>
		</g>
	</g>
	<path id="Path_4937" class="st4" d="M789.4,3877.3l93.8,57.3c0,0,7.8,5,15.5,0s140-83.3,140-83.3l-108.9-54.7L789.4,3877.3z"/>
	<g id="identity_card" transform="translate(661.114 3619.334)">
		<path id="Path_4813" class="st5" d="M370.4,213.5l-88.7-51.2c-3.4-1.7-7.5-1.7-10.9,0l-140.2,80.9c-3,1.7-3,4.5,0,6.3l88.7,51.2
			c3.4,1.7,7.5,1.7,10.9,0l140.2-80.9C373.4,218.1,373.4,215.2,370.4,213.5z"/>
		<path id="Path_4814" class="st6" d="M370.4,219.8l-140.2,81c-3.4,1.7-7.5,1.7-10.9,0l-88.7-51.7c-0.9-0.5-1.7-1.3-2.1-2.2
			c-0.5,1.4,0.2,3,2.1,4.1l88.7,51.6c3.4,1.7,7.5,1.7,10.9,0l140.2-80.9c1.9-1.1,2.6-2.7,2.1-4.1
			C372.1,218.5,371.3,219.3,370.4,219.8z"/>
		<g id="Group_1700" transform="translate(207.793 167.287)">
			<g id="Group_1699" transform="translate(0 0.68)">
				<path id="Path_4815" class="st7" d="M153,47.9c0.4,0.2,0.7,0.6,0.5,1.1c-0.1,0.2-0.3,0.4-0.5,0.5L18.2,127.3
					c-0.9,0.4-1.9,0.4-2.7,0l-82.4-47.6c-0.4-0.2-0.7-0.6-0.5-1.1c0.1-0.2,0.3-0.4,0.5-0.5L67.9,0.3c0.9-0.4,1.9-0.4,2.7,0L153,47.9
					z"/>
			</g>
			<path id="Path_4816" class="st8" d="M153,47.9L70.6,0.3c-0.9-0.4-1.9-0.4-2.7,0L-66.8,78.1c-0.4,0.2-0.7,0.6-0.5,1.1
				c0.1,0.2,0.3,0.4,0.5,0.5l82.4,47.6c0.9,0.4,1.9,0.4,2.7,0l134.8-77.8C153.8,49,153.8,48.3,153,47.9z"/>
		</g>
		<path id="Path_4817" class="st9" d="M130.5,243.3c-3,1.7-3,4.5,0,6.3l88.7,51.1c3.4,1.7,7.5,1.7,10.9,0l82.3-47.5
			c-63-15.6-128.5-18.1-160-22.6L130.5,243.3z"/>
		<g id="Group_1716" transform="translate(224.434 180.715)">
			<g id="Group_1713">
				<g id="Group_1703" transform="translate(69.767 9.945)">
					<path id="Path_4818" class="st10" d="M-2.4,0.4l-64.3,37.2l-0.7-0.4L-3.1,0L-2.4,0.4z"/>
					<path id="Path_4819" class="st10" d="M26.6,17.1l-64.4,37.2l-0.6-0.4L26,16.7L26.6,17.1z"/>
					<path id="Path_4820" class="st10" d="M12.1,8.7l-64.4,37.2l-0.7-0.4L11.4,8.4L12.1,8.7z"/>
				</g>
				<g id="Group_1707" transform="translate(93.612)">
					<path id="Path_4821" class="st11" d="M22.3,36.4L-44.6,75l-9.4-5.4L13,31L22.3,36.4z"/>
					<g id="Group_1704" transform="translate(15.53 50.94)">
						<path id="Path_4822" class="st12" d="M-59.8,22.9l0.4-0.2l-7.7-4.4l-0.4,0.2L-59.8,22.9z"/>
						<path id="Path_4823" class="st12" d="M-54.8,20.1l0.4-0.3l-7.7-4.4l-0.4,0.3L-54.8,20.1z"/>
						<path id="Path_4824" class="st12" d="M-49.5,17l0.4-0.2l-7.7-4.4l-0.4,0.2L-49.5,17z"/>
						<path id="Path_4825" class="st12" d="M-46,15l0.4-0.2l-7.7-4.4l-0.4,0.2L-46,15z"/>
						<path id="Path_4826" class="st12" d="M-51.6,18.2l0.4-0.3l-7.7-4.4l-0.4,0.2L-51.6,18.2z"/>
						<path id="Path_4827" class="st12" d="M-57.1,21.4l1-0.6l-7.7-4.4l-0.9,0.6L-57.1,21.4z"/>
						<path id="Path_4828" class="st12" d="M-52.8,18.9l0.9-0.6l-7.7-4.4l-0.9,0.6L-52.8,18.9z"/>
						<path id="Path_4829" class="st12" d="M-47.7,15.9l0.9-0.5l-7.7-4.4l-1,0.5L-47.7,15.9z"/>
						<path id="Path_4830" class="st12" d="M-59,22.4l0.3-0.1l-7.7-4.4l-0.3,0.1L-59,22.4z"/>
						<path id="Path_4831" class="st12" d="M-58.4,22.2l0.3-0.2l-7.7-4.4l-0.3,0.2L-58.4,22.2z"/>
						<path id="Path_4832" class="st12" d="M-53.4,19.2l0.3-0.1l-7.7-4.4l-0.3,0.1L-53.4,19.2z"/>
						<path id="Path_4833" class="st12" d="M-46.5,15.3l0.3-0.1l-7.7-4.4l-0.3,0.2L-46.5,15.3z"/>
						<path id="Path_4834" class="st12" d="M-45.3,14.6l0.3-0.2l-7.7-4.4l-0.2,0.2L-45.3,14.6z"/>
						<path id="Path_4835" class="st12" d="M-55.9,20.7l0.3-0.2l-7.7-4.4l-0.3,0.2L-55.9,20.7z"/>
						<path id="Path_4836" class="st12" d="M-50.5,17.6l0.3-0.2L-58,13l-0.2,0.2L-50.5,17.6z"/>
						<path id="Path_4837" class="st12" d="M-50,17.3l0.3-0.2l-7.7-4.4l-0.3,0.2L-50,17.3z"/>
						<path id="Path_4838" class="st12" d="M-48.8,16.6l0.3-0.2l-7.7-4.4l-0.3,0.2L-48.8,16.6z"/>
						<path id="Path_4839" class="st12" d="M-55.4,20.4l0.3-0.2l-7.7-4.4l-0.3,0.2L-55.4,20.4z"/>
						<path id="Path_4840" class="st12" d="M-44.2,14l0.4-0.3l-7.7-4.4l-0.4,0.2L-44.2,14z"/>
						<path id="Path_4841" class="st12" d="M-31.5,6.6l0.4-0.3l-7.7-4.4l-0.4,0.3L-31.5,6.6z"/>
						<path id="Path_4842" class="st12" d="M-36.7,9.6l0.4-0.2L-44,5l-0.4,0.2L-36.7,9.6z"/>
						<path id="Path_4843" class="st12" d="M-40.2,11.7l0.4-0.2L-47.6,7L-48,7.2L-40.2,11.7z"/>
						<path id="Path_4844" class="st12" d="M-34.7,8.5l0.4-0.3L-42,3.8L-42.4,4L-34.7,8.5z"/>
						<path id="Path_4845" class="st12" d="M-41.5,12.4l0.4-0.3l-7.7-4.4l-0.4,0.3L-41.5,12.4z"/>
						<path id="Path_4846" class="st12" d="M-29.7,5.6l0.9-0.6l-7.7-4.4l-0.9,0.6L-29.7,5.6z"/>
						<path id="Path_4847" class="st12" d="M-34,8.1l1-0.6L-40.7,3l-1,0.6L-34,8.1z"/>
						<path id="Path_4848" class="st12" d="M-39.1,11l0.9-0.5L-45.8,6l-1,0.6L-39.1,11z"/>
						<path id="Path_4849" class="st12" d="M-43.4,13.5l0.3-0.1l-7.7-4.4L-51.1,9L-43.4,13.5z"/>
						<path id="Path_4850" class="st12" d="M-43,13.2l0.3-0.2l-7.7-4.4l-0.3,0.2L-43,13.2z"/>
						<path id="Path_4851" class="st12" d="M-32.7,7.3l0.3-0.1l-7.7-4.4l-0.3,0.1L-32.7,7.3z"/>
						<path id="Path_4852" class="st12" d="M-39.6,11.2l0.3-0.1L-47,6.7l-0.3,0.1L-39.6,11.2z"/>
						<path id="Path_4853" class="st12" d="M-40.8,12l0.3-0.2l-7.7-4.4l-0.3,0.1L-40.8,12z"/>
						<path id="Path_4854" class="st12" d="M-42,12.7l0.3-0.2l-7.7-4.4l-0.3,0.2L-42,12.7z"/>
						<path id="Path_4855" class="st12" d="M-30.2,5.9l0.3-0.2l-7.7-4.4l-0.3,0.2L-30.2,5.9z"/>
						<path id="Path_4856" class="st12" d="M-35.6,9l0.3-0.2L-43,4.4l-0.3,0.2L-35.6,9z"/>
						<path id="Path_4857" class="st12" d="M-36.1,9.3l0.3-0.2l-7.7-4.4l-0.3,0.2L-36.1,9.3z"/>
						<path id="Path_4858" class="st12" d="M-37.4,10l0.3-0.2l-7.7-4.4l-0.3,0.2L-37.4,10z"/>
						<path id="Path_4859" class="st12" d="M-30.7,6.1l0.3-0.1l-7.7-4.4l-0.3,0.1L-30.7,6.1z"/>
						<path id="Path_4860" class="st12" d="M-35.7,0.2l7.7,4.4l0.3-0.2L-35.4,0L-35.7,0.2z"/>
						<path id="Path_4861" class="st12" d="M-28.5,4.9l0.3-0.2L-36,0.3l-0.3,0.2L-28.5,4.9z"/>
					</g>
					<g id="Group_1705" transform="translate(48.211 32.063)">
						<path id="Path_4862" class="st12" d="M-59.7,22.9l0.4-0.2l-7.7-4.4l-0.4,0.2L-59.7,22.9z"/>
						<path id="Path_4863" class="st12" d="M-54.8,20.1l0.4-0.3l-7.7-4.4l-0.4,0.3L-54.8,20.1z"/>
						<path id="Path_4864" class="st12" d="M-49.5,17l0.4-0.2l-7.7-4.4l-0.4,0.2L-49.5,17z"/>
						<path id="Path_4865" class="st12" d="M-46,15l0.4-0.2l-7.7-4.4l-0.4,0.2L-46,15z"/>
						<path id="Path_4866" class="st12" d="M-51.5,18.2l0.4-0.2l-7.7-4.4l-0.4,0.2L-51.5,18.2z"/>
						<path id="Path_4867" class="st12" d="M-57.1,21.4l1-0.6l-7.7-4.4l-1,0.6L-57.1,21.4z"/>
						<path id="Path_4868" class="st12" d="M-52.8,18.9l0.9-0.6l-7.7-4.4l-0.9,0.6L-52.8,18.9z"/>
						<path id="Path_4869" class="st12" d="M-47.7,15.9l0.9-0.5l-7.7-4.4l-0.9,0.5L-47.7,15.9z"/>
						<path id="Path_4870" class="st12" d="M-59,22.5l0.3-0.2l-7.7-4.4l-0.3,0.2L-59,22.5z"/>
						<path id="Path_4871" class="st12" d="M-58.4,22.2l0.3-0.2l-7.7-4.4l-0.3,0.2L-58.4,22.2z"/>
						<path id="Path_4872" class="st12" d="M-53.4,19.3l0.3-0.2l-7.7-4.4l-0.3,0.2L-53.4,19.3z"/>
						<path id="Path_4873" class="st12" d="M-46.5,15.3l0.3-0.2l-7.7-4.4l-0.3,0.2L-46.5,15.3z"/>
						<path id="Path_4874" class="st12" d="M-45.3,14.6l0.3-0.2l-7.7-4.4l-0.3,0.2L-45.3,14.6z"/>
						<path id="Path_4875" class="st12" d="M-55.9,20.7l0.3-0.2l-7.7-4.4l-0.3,0.1L-55.9,20.7z"/>
						<path id="Path_4876" class="st12" d="M-50.5,17.6l0.3-0.1l-7.7-4.4l-0.3,0.1L-50.5,17.6z"/>
						<path id="Path_4877" class="st12" d="M-50,17.3l0.3-0.2l-7.7-4.4l-0.3,0.2L-50,17.3z"/>
						<path id="Path_4878" class="st12" d="M-48.8,16.6l0.3-0.2l-7.7-4.4l-0.3,0.2L-48.8,16.6z"/>
						<path id="Path_4879" class="st12" d="M-55.4,20.4l0.3-0.2l-7.7-4.4l-0.3,0.2L-55.4,20.4z"/>
						<path id="Path_4880" class="st12" d="M-44.2,14l0.4-0.2l-7.7-4.4l-0.4,0.2L-44.2,14z"/>
						<path id="Path_4881" class="st12" d="M-31.5,6.6l0.4-0.2l-7.7-4.4l-0.4,0.2L-31.5,6.6z"/>
						<path id="Path_4882" class="st12" d="M-36.7,9.6l0.4-0.2L-44,5l-0.4,0.2L-36.7,9.6z"/>
						<path id="Path_4883" class="st12" d="M-40.2,11.7l0.4-0.2L-47.6,7l-0.4,0.2L-40.2,11.7z"/>
						<path id="Path_4884" class="st12" d="M-34.7,8.5l0.4-0.3L-42,3.8L-42.4,4L-34.7,8.5z"/>
						<path id="Path_4885" class="st12" d="M-41.5,12.4l0.4-0.3l-7.7-4.4l-0.4,0.3L-41.5,12.4z"/>
						<path id="Path_4886" class="st12" d="M-29.7,5.6l1-0.6l-7.7-4.4l-0.9,0.6L-29.7,5.6z"/>
						<path id="Path_4887" class="st12" d="M-34,8.1l0.9-0.6L-40.7,3l-1,0.6L-34,8.1z"/>
						<path id="Path_4888" class="st12" d="M-39.1,11l0.9-0.6L-45.8,6l-0.9,0.6L-39.1,11z"/>
						<path id="Path_4889" class="st12" d="M-43.4,13.5l0.3-0.1l-7.7-4.4l-0.3,0.2L-43.4,13.5z"/>
						<path id="Path_4890" class="st12" d="M-43,13.2l0.3-0.2l-7.7-4.4l-0.3,0.2L-43,13.2z"/>
						<path id="Path_4891" class="st12" d="M-32.7,7.3l0.3-0.2l-7.7-4.4l-0.3,0.2L-32.7,7.3z"/>
						<path id="Path_4892" class="st12" d="M-39.6,11.2l0.3-0.1L-47,6.7l-0.3,0.2L-39.6,11.2z"/>
						<path id="Path_4893" class="st12" d="M-40.8,12l0.3-0.1l-7.7-4.4l-0.3,0.1L-40.8,12z"/>
						<path id="Path_4894" class="st12" d="M-42,12.7l0.3-0.2l-7.7-4.4l-0.3,0.2L-42,12.7z"/>
						<path id="Path_4895" class="st12" d="M-30.2,5.9l0.3-0.2l-7.7-4.4l-0.3,0.2L-30.2,5.9z"/>
						<path id="Path_4896" class="st12" d="M-35.6,9l0.3-0.2L-43,4.4l-0.3,0.2L-35.6,9z"/>
						<path id="Path_4897" class="st12" d="M-36.1,9.3l0.3-0.2l-7.7-4.4l-0.3,0.2L-36.1,9.3z"/>
						<path id="Path_4898" class="st12" d="M-37.4,10l0.3-0.2l-7.7-4.4l-0.3,0.2L-37.4,10z"/>
						<path id="Path_4899" class="st12" d="M-30.7,6.1l0.3-0.1l-7.7-4.4l-0.3,0.1L-30.7,6.1z"/>
						<path id="Path_4900" class="st12" d="M-35.7,0.2l7.7,4.4l0.3-0.2L-35.4,0L-35.7,0.2z"/>
						<path id="Path_4901" class="st12" d="M-28.5,4.9l0.3-0.2L-36,0.3l-0.3,0.2L-28.5,4.9z"/>
					</g>
					<g id="Group_1706">
						<path id="Path_4902" class="st13" d="M-67.4,7.9l2.9-1.7l14.6,8.4l-2.9,1.7L-67.4,7.9z"/>
						<path id="Path_4903" class="st13" d="M-61.8,4.6c0.3-0.2,0.6-0.4,0.9-0.6c0.4-0.2,0.7-0.5,1.1-0.7c0.4-0.2,0.7-0.5,1.1-0.7
							s0.7-0.4,1-0.6c1.2-0.7,2.5-1.3,3.9-1.6c1.2-0.3,2.5-0.5,3.8-0.4c1.2,0.1,2.4,0.3,3.6,0.6c1.2,0.4,2.3,0.9,3.4,1.5
							c0.9,0.5,1.7,1.1,2.5,1.9c0.6,0.6,1,1.3,1.2,2.1c0.1,0.8-0.1,1.6-0.6,2.3c-0.8,1-1.7,1.8-2.9,2.4c-0.2,0.1-0.5,0.3-0.9,0.5
							s-0.8,0.4-1.2,0.6s-0.8,0.4-1.2,0.6s-0.7,0.3-0.9,0.4L-61.8,4.6z M-54.9,3.4c-0.3,0.2-0.6,0.4-0.9,0.5
							C-56,4-56.3,4.1-56.5,4.3l9.8,5.6c0.1,0,0.2-0.1,0.3-0.2c0.2-0.1,0.3-0.2,0.5-0.3c0.2-0.1,0.3-0.2,0.5-0.3
							c0.2-0.1,0.3-0.2,0.3-0.2c0.6-0.3,1.2-0.8,1.6-1.4c0.3-0.4,0.3-0.9,0.2-1.4c-0.2-0.5-0.5-1-1-1.3c-0.5-0.5-1.1-0.9-1.7-1.2
							c-0.6-0.3-1.2-0.6-1.9-0.9c-0.7-0.3-1.4-0.5-2.1-0.5c-0.8-0.1-1.6-0.1-2.4,0.1C-53.3,2.6-54.2,2.9-54.9,3.4z"/>
					</g>
				</g>
				<g id="Group_1711" transform="translate(0 40.417)">
					<g>
						<defs>
							<path id="SVGID_3_" d="M33.9,32.1c0.6,0.2,0.9,0.8,0.7,1.4c-0.1,0.3-0.4,0.6-0.7,0.7L-8.3,58.5c-1.1,0.6-2.5,0.6-3.6,0
								l-54.8-31.6c-0.6-0.2-0.9-0.8-0.7-1.4c0.1-0.3,0.4-0.6,0.7-0.7l42.1-24.4c1.1-0.6,2.5-0.6,3.6,0L33.9,32.1z"/>
						</defs>
						<clipPath id="SVGID_4_">
							<use xlink:href="#SVGID_3_"  style="overflow:visible;"/>
						</clipPath>
						<g id="Group_1708" class="st14">
							<path id="Path_4904" class="st15" d="M35.7,33.1l-45.8,26.5l-58.4-33.7l45.8-26.4L35.7,33.1z"/>
						</g>
					</g>
					<g>
						<defs>
							<path id="SVGID_5_" d="M33.9,32.1c0.6,0.2,0.9,0.8,0.7,1.4c-0.1,0.3-0.4,0.6-0.7,0.7L-8.3,58.5c-1.1,0.6-2.5,0.6-3.6,0
								l-54.8-31.6c-0.6-0.2-0.9-0.8-0.7-1.4c0.1-0.3,0.4-0.6,0.7-0.7l42.1-24.4c1.1-0.6,2.5-0.6,3.6,0L33.9,32.1z"/>
						</defs>
						<clipPath id="SVGID_6_">
							<use xlink:href="#SVGID_5_"  style="overflow:visible;"/>
						</clipPath>
						<g id="Group_1710" class="st16">
							<g id="Group_1709" transform="translate(19.185 10.824)">
								<path id="Path_4906" class="st17" d="M-8.9,22.2C-12.1,22-21,15.1-21,15.1l-20,11.6c0,0,11.8,5.2,12.2,7.1
									c0,0,9.8,0.8,15.1-2.1C-8.5,28.8-8.9,22.2-8.9,22.2z"/>
								<path id="Path_4907" class="st18" d="M-52.1,22.6c-1-0.3-2-0.4-3-0.2c-1,0.5-0.8,1.7,2.8,3c1.8,0.7,3.8,1.2,5.7,1.6
									c1,0.3,3,0.4,2.1-1.1L-52.1,22.6z"/>
								<path id="Path_4908" class="st19" d="M-52.1,22.6c-1-0.3-2-0.4-3-0.2c-1,0.5-0.8,1.7,2.8,3c1.8,0.7,3.8,1.2,5.7,1.6
									c1,0.3,3,0.4,2.1-1.1L-52.1,22.6z"/>
								<path id="Path_4909" class="st19" d="M-52.1,22.6c-1-0.3-2-0.4-3-0.2c-1,0.5-0.8,1.7,2.8,3c1.8,0.7,3.8,1.2,5.7,1.6
									c1,0.3,3,0.4,2.1-1.1L-52.1,22.6z"/>
								<path id="Path_4910" class="st18" d="M-28.5,8.9c0,0-1.1-1.1-0.3-1.7c0.8-0.6,2.9-0.5,5.3,1.6c1.1,0.9,2,2,2.7,3.3
									c0.5,0.6,0.7,1.8-1.9,1.2L-28.5,8.9z"/>
								<path id="Path_4911" class="st18" d="M-59.3,4.7c5.6-2.9,12.1-3.8,18.2-2.6c3.9,0.8,7.5,2.4,10.6,4.9c1.5,1,3.8,2.6,5.4,4
									s5,3.5,6.6,5.3c1.6,1.8,0.8,3.1,0.3,5.1c-0.7,1.9-2.1,3.6-3.8,4.8c-2.6,1.2-5.4,1.9-8.3,2.2c-3.5,0.3-5.8,0.7-8.9-0.2
									c-3.1-0.9-6.7-2.9-9.2-3.8s-5.2-2.2-6.9-3.1s-6-2.4-8.4-6.1C-66.2,11.5-63.8,7.2-59.3,4.7z"/>
								<path id="Path_4912" class="st19" d="M-24.2,27L-24.2,27c-5.2,1.3-10.7,0.6-15.4-2c-2.2-1.2-5.7-1-8.4-1.4s-8.4-3.6-8.4-3.6
									l-0.8,0.3c0.7,0.4,1.4,0.6,1.8,0.9c1.7,0.8,4.5,2.1,6.9,3.1c2.4,0.9,6,2.9,9.2,3.8c3.1,0.9,5.4,0.5,8.9,0.2
									C-28.3,28.1-26.2,27.7-24.2,27z"/>
								<path id="Path_4913" class="st20" d="M-18.3,21.3c0.5-2,1.3-3.3-0.3-5.1s-5-3.9-6.6-5.3c-1.7-1.4-3.5-2.7-5.4-4
									c-0.4-0.3-0.9-0.6-1.6-1.1l-0.7,0.6c0,0,5.6,3.3,6.2,4.8c0.5,1.5,0.3,3.5,2.4,4.8s6.6,4.7,3.5,8.9c-0.1,0.1-0.1,0.2-0.2,0.2
									C-19.7,24.2-18.8,22.8-18.3,21.3z"/>
								<path id="Path_4914" class="st19" d="M-33.7,19.9c-0.8,0-1.6-0.1-2.4-0.4c-0.7-0.4-3.2-2.4-5.4-3.7c-2.1-1.4-2.7-0.9-5-0.3
									c-2.7,0.8-5.3,1.8-7.8,3c-1.1,0.5-3.6-1.7-5-3.2c1.3-0.2,4-0.8,8.8-3c7-3.3,9-8.8,9-8.8l-20.3,10.7l0.6,0.5l-2.5,0.6
									c2.5,3.7,6.7,5.2,8.4,6.1s4.5,2.1,6.9,3.1c2.4,0.9,6,2.9,9.2,3.8c3.1,0.9,5.4,0.5,8.9,0.2c2.9-0.3,5.6-1,8.3-2.2
									c-2.7-1.5-8.7-4.8-8.7-4.8L-33.7,19.9z"/>
								<path id="Path_4915" class="st21" d="M-34.4,4.1c-2.5-2-12.9-8-26.2-0.2c-13.6,7.7-3.2,13.7,0.3,15.1
									c2.2,0.9,4.6,3.2,5.4,3.2c0.4-0.2,0.9-0.2,1.4-0.1c0.6,0.2,2.5,1,2.5,1s-3.9-2.8-5-3.7c-1-0.9-2-1.7-3.1-2.4
									c-1.9-1.3-2.7-2.5-2-3.9s6.6-3.3,8.4-4.1l1.3-0.8c1.4-1,4.5-4.4,7.1-4.9c2.3-0.4,4.7,0,6.8,1.1c2.2,1.1,2.7,1.2,4.2,1.8
									S-27,9.5-27,9.5C-27.6,9-28.2,8.5-28.8,8c-0.4-0.4,0.1-0.8,0.1-0.8C-28.8,6.8-32.9,5.3-34.4,4.1z"/>
								<path id="Path_4916" class="st21" d="M-50.2,4.6L-62,11.4l-1.1,4.2c22.5-5.4,22-13.6,22-13.6L-50.2,4.6z"/>
							</g>
							<path id="Path_4917" class="st22" d="M11.9,31l-8.3,9.8l-16.3,4.3l13.8,7.9l24.5-14.2L11.9,31z"/>
							<path id="Path_4918" class="st23" d="M1,45.1l8.6,0.7l1.3,1.5l3.7-2.1l-2.2-0.9l-1.3-5.2l-7.4,1.7L1,45.1z"/>
							<path id="Path_4919" class="st24" d="M3.7,40.7l-18.2,0.6l0.9,5.1L4.9,47L3.7,40.7z"/>
							<path id="Path_4920" class="st24" d="M3.6,40.8l1-10.5l8.9,0.5l0.8,10.7L3.6,40.8z"/>
							<path id="Path_4921" class="st25" d="M-23.3,51.9l13.2,7.6l13.8-7.9c-12-3.1-18.6-8.7-18.6-8.7L-23.3,51.9z"/>
							<path id="Path_4922" class="st25" d="M35.7,33.1l-13.2-7.6L6.8,30.3c0,0,9.7,3.8,15,10.7L35.7,33.1z"/>
						</g>
					</g>
				</g>
				<g id="Group_1712" transform="translate(64.957 24.586)">
					<path id="Path_4924" class="st10" d="M-62.4,16.7l-1.6-0.3l-0.1,0.1l1.3,0.5l3.6,2l-1.3,0.7l-6.9-4l1-0.6l6.3,0.6l1.6,0.3
						l0.1-0.1l-1.2-0.5l-3.6-2.1l1.3-0.7l6.9,4l-1,0.6L-62.4,16.7z"/>
					<path id="Path_4925" class="st10" d="M-52.3,13.2l-2.1,1.2l1,1.2l-1.4,0.8l-4.4-5.4l1-0.6l9.4,2.6l-1.4,0.8L-52.3,13.2z
						 M-55.1,13.6l1.5-0.8l-2-0.6l-1.3-0.5l-0.1,0.1l0.9,0.7L-55.1,13.6z"/>
					<path id="Path_4926" class="st10" d="M-46.4,7.5l-1.2-0.9l-0.1,0.1l0.7,0.9l1.1,2.3l-0.4,0.3l-4.1-0.6L-52,9.2L-52,9.3l1.6,0.7
						l3.6,2l-1.3,0.7l-6.9-4l1.2-0.7l5,0.7l1.1,0.3h0.1l-0.5-0.6l-1.4-2.8l1.2-0.7l6.9,4l-1.4,0.8L-46.4,7.5z"/>
					<path id="Path_4927" class="st10" d="M-47.2,4.1l4.1-2.4l1.2,0.7L-44.6,4L-43,5l2.5-1.4l1.2,0.7l-2.5,1.4l1.7,1l2.8-1.6
						l1.2,0.7l-4.1,2.4L-47.2,4.1z"/>
					<path id="Path_4928" class="st10" d="M-44.4,25.2c-0.2-0.1-0.5-0.2-0.7-0.2c-0.3,0-0.6,0-0.9,0.1c-0.3,0.1-0.7,0.2-1.1,0.3
						c-0.4,0.1-0.8,0.2-1.1,0.2c-0.4,0.1-0.8,0.1-1.2,0c-0.4-0.1-0.8-0.2-1.2-0.4c-0.3-0.1-0.5-0.3-0.7-0.6
						c-0.1-0.2-0.2-0.4-0.2-0.6c0.1-0.2,0.2-0.5,0.4-0.6c0.2-0.2,0.5-0.5,0.8-0.6c0.4-0.2,0.8-0.4,1.3-0.6c0.4-0.1,0.8-0.2,1.1-0.3
						l0.7,0.9c-0.2,0.1-0.5,0.1-0.9,0.2c-0.4,0.1-0.7,0.3-1,0.5c-0.2,0.1-0.4,0.3-0.5,0.5c-0.1,0.2,0.1,0.3,0.3,0.4
						c0.2,0.1,0.5,0.2,0.7,0.2c0.3,0,0.6,0,0.9-0.1c0.4-0.1,0.7-0.1,1.1-0.3c0.4-0.1,0.8-0.2,1.2-0.2c0.4-0.1,0.8-0.1,1.2,0
						c0.4,0.1,0.8,0.2,1.1,0.4c0.3,0.2,0.6,0.4,0.8,0.6c0.1,0.2,0.2,0.4,0.2,0.7c-0.1,0.3-0.2,0.5-0.4,0.7c-0.3,0.3-0.6,0.5-0.9,0.7
						c-0.4,0.3-0.9,0.5-1.4,0.7c-0.4,0.1-0.7,0.2-1.1,0.3l-0.7-0.9c0.1,0,0.3,0,0.4-0.1c0.2-0.1,0.3-0.1,0.5-0.2
						c0.2-0.1,0.4-0.1,0.6-0.2c0.2-0.1,0.4-0.1,0.5-0.3c0.3-0.1,0.5-0.4,0.7-0.6C-44.1,25.5-44.2,25.3-44.4,25.2z"/>
					<path id="Path_4929" class="st10" d="M-43.5,18.8l1.3-0.7l4.4,2.6c0.4,0.2,0.7,0.5,1,0.8c0.2,0.2,0.3,0.5,0.3,0.7
						c0,0.3-0.1,0.5-0.3,0.7c-0.2,0.3-0.5,0.5-0.8,0.7c-1.5,1-3.4,1-5,0.1l-4.6-2.7l1.4-0.8l4.3,2.5c0.3,0.2,0.5,0.3,0.7,0.4
						c0.2,0.1,0.4,0.1,0.7,0.1c0.2,0,0.4,0,0.6-0.1c0.2-0.1,0.4-0.2,0.6-0.3c0.4-0.3,0.6-0.5,0.5-0.7s-0.3-0.5-0.8-0.8L-43.5,18.8z"
						/>
					<path id="Path_4930" class="st10" d="M-41,17.5c0.1-0.1,0.3-0.2,0.4-0.3l0.5-0.3l0.5-0.3c0.1-0.1,0.3-0.2,0.4-0.3
						c0.3-0.2,0.7-0.4,1-0.5c0.4-0.1,0.8-0.2,1.1-0.3c0.4-0.1,0.8-0.1,1.2,0c0.4,0.1,0.8,0.2,1.1,0.4c0.4,0.2,0.8,0.6,1,1
						c0.1,0.4,0,0.8-0.3,1l0.8-0.1l4.2,0.6l-1.6,0.9l-4.2-0.6l-0.8,0.3l2.8,1.6l-1.4,0.8L-41,17.5z M-37.9,16.9
						c-0.2,0.1-0.3,0.2-0.4,0.3c-0.1,0.1-0.2,0.2-0.3,0.2l2,1.1l0.6-0.3c0.4-0.2,0.6-0.4,0.6-0.7c0.1-0.2-0.1-0.5-0.5-0.7
						c-0.3-0.2-0.6-0.2-0.9-0.3C-37.2,16.6-37.6,16.7-37.9,16.9z"/>
					<path id="Path_4931" class="st10" d="M-30.2,14.9l-1.6-0.3l-0.1,0.1l1.3,0.5l3.6,2l-1.3,0.7l-6.9-4l1-0.6L-28,14l1.6,0.3
						l0.1-0.1l-1.2-0.5l-3.6-2.1l1.3-0.7l6.9,4l-1,0.6L-30.2,14.9z"/>
					<path id="Path_4932" class="st10" d="M-20,11.5l-2.1,1.2l1,1.2l-1.4,0.8l-4.4-5.4l1-0.6l9.4,2.6L-18,12L-20,11.5z M-22.8,11.8
						l1.5-0.8l-2-0.6l-1.3-0.5l-0.1,0.1l0.9,0.7L-22.8,11.8z"/>
					<path id="Path_4933" class="st10" d="M-14.2,5.7l-1.2-0.9l-0.1,0.1l0.7,0.9l1.1,2.3l-0.4,0.3l-4.1-0.6l-1.5-0.4l-0.1,0.1
						l1.6,0.7l3.6,2l-1.3,0.7l-6.9-4l1.2-0.7l5,0.7l1.1,0.3h0.1L-16,6.5l-1.4-2.8l1.2-0.7l6.9,4l-1.4,0.8L-14.2,5.7z"/>
					<path id="Path_4934" class="st10" d="M-15,2.4l4.1-2.4l1.2,0.7l-2.7,1.6l1.6,0.9l2.5-1.4l1.2,0.7l-2.5,1.4l1.7,1l2.8-1.6
						L-4,3.9l-4.1,2.4L-15,2.4z"/>
				</g>
			</g>
		</g>
	</g>
	
		<linearGradient id="Path_4935_1_" gradientUnits="userSpaceOnUse" x1="446.2142" y1="4350.6006" x2="446.0422" y2="4349.752" gradientTransform="matrix(222.2068 0 0 -236.9189 -98214.1406 1034456.25)">
		<stop  offset="0" style="stop-color:#00BAFF"/>
		<stop  offset="0.606" style="stop-color:#82DEFF;stop-opacity:0.302"/>
		<stop  offset="1" style="stop-color:#BAEDFF;stop-opacity:0"/>
	</linearGradient>
	<path id="Path_4935" class="st26" d="M920.7,3677.8l102.7,157.8l-138,79.1l-84.2-49.1l112.6-184.8L920.7,3677.8z"/>
	<g id="mobile_app_phone" transform="translate(905.535 3667.094)">
		<g id="Group_1257" transform="translate(0 0)">
			<path id="Path_3892" class="st27" d="M202.4,114.7L202.4,114.7v-13l-12.6,0.8l-4.5-0.8L38,16.6c-6.6-3.8-16.5-4.2-22.2-1
				l-70.2,40.6l-13-2.5v13.4l0,0c0,2.5,1.8,5.2,5.4,7.3l159.1,91.8c6.6,3.8,16.5,4.2,22.2,1l79.5-45.9
				C201.7,119.6,202.8,117.1,202.4,114.7z"/>
			<g id="Group_1254" transform="translate(243.204 117.737)">
				<path id="Path_3893" class="st28" d="M-65.6,10.1c0,0.6-0.4,1.2-1,1.5c-0.6,0.3-0.8,0-0.8-0.6c0-0.6,0.4-1.2,1-1.5
					C-66,9.3-65.6,9.5-65.6,10.1z M-63.3,7.6c-0.6,0.3-0.9,0.9-1,1.5c0,0.6,0.3,0.8,0.8,0.6c0.6-0.3,0.9-0.9,1-1.5
					C-62.4,7.6-62.7,7.3-63.3,7.6L-63.3,7.6z M-60,5.8c-0.6,0.3-0.9,0.9-1,1.5c0,0.6,0.3,0.8,0.8,0.6c0.6-0.3,0.9-0.9,1-1.5
					C-59.1,5.8-59.5,5.5-60,5.8L-60,5.8z M-56.7,3.8c-0.6,0.3-0.9,0.9-1,1.5c0,0.6,0.3,0.8,0.8,0.6c0.6-0.3,0.9-0.9,1-1.5
					C-55.9,3.8-56.3,3.5-56.7,3.8L-56.7,3.8z M-53.5,2c-0.6,0.3-0.9,0.9-1,1.5c0,0.6,0.3,0.8,0.8,0.6c0.6-0.3,0.9-0.9,1-1.5
					C-52.5,2-52.9,1.7-53.5,2L-53.5,2z M-50.1,0.1c-0.6,0.3-0.9,0.9-1,1.5c0,0.6,0.3,0.8,0.8,0.6c0.6-0.3,0.9-0.9,1-1.5
					C-49.3,0.1-49.7-0.1-50.1,0.1L-50.1,0.1z"/>
				<g id="Group_1253" transform="translate(0 0.05)">
					<path id="Path_3894" class="st29" d="M-59.6,5.6v0.3c0,0.6-0.4,1.2-1,1.5c-0.1,0-0.2,0.1-0.3,0.1c0.1,0.4,0.4,0.6,0.8,0.3
						c0.6-0.3,0.9-0.9,1-1.5C-59,5.9-59.3,5.6-59.6,5.6z"/>
					<path id="Path_3895" class="st29" d="M-63,7.5v0.3c0,0.6-0.4,1.2-1,1.5c-0.1,0-0.2,0.1-0.3,0.1c0.1,0.4,0.4,0.6,0.8,0.3
						c0.6-0.3,0.9-0.9,1-1.5C-62.4,7.7-62.6,7.4-63,7.5z"/>
					<path id="Path_3896" class="st29" d="M-66.2,9.3v0.3c0,0.6-0.4,1.2-1,1.5c-0.1,0-0.2,0.1-0.3,0.1c0.1,0.4,0.4,0.6,0.8,0.3
						c0.6-0.3,0.9-0.9,1-1.5C-65.6,9.7-65.8,9.4-66.2,9.3z"/>
					<path id="Path_3897" class="st29" d="M-49.9,0v0.3c0,0.6-0.4,1.2-1,1.5c-0.1,0-0.2,0.1-0.3,0.1c0.1,0.4,0.4,0.6,0.8,0.3
						c0.6-0.3,0.9-0.9,1-1.5C-49.3,0.1-49.4,0-49.9,0z"/>
					<path id="Path_3898" class="st29" d="M-56.4,3.8V4c0,0.6-0.4,1.2-1,1.5c-0.1,0-0.2,0.1-0.3,0.1c0.1,0.4,0.4,0.6,0.8,0.3
						c0.6-0.3,0.9-0.9,1-1.5C-55.9,3.9-56,3.6-56.4,3.8z"/>
					<path id="Path_3899" class="st29" d="M-53.1,1.8v0.3c0,0.6-0.4,1.2-1,1.5c-0.1,0-0.2,0.1-0.3,0.1c0.1,0.4,0.4,0.6,0.8,0.3
						c0.6-0.3,0.9-0.9,1-1.5C-52.5,2.2-52.7,1.9-53.1,1.8z"/>
				</g>
			</g>
			
				<linearGradient id="Path_3907_1_" gradientUnits="userSpaceOnUse" x1="-465.8779" y1="682.3436" x2="-464.8779" y2="682.3436" gradientTransform="matrix(269.8592 0 0 -146.0743 124100.0156 99759.3984)">
				<stop  offset="0" style="stop-color:#B4B4B4"/>
				<stop  offset="4.100000e-02" style="stop-color:#BDBDBD"/>
				<stop  offset="0.619" style="stop-color:#BDBDBD"/>
				<stop  offset="0.625" style="stop-color:#C2C2C2"/>
				<stop  offset="0.648" style="stop-color:#D0D0D0"/>
				<stop  offset="0.666" style="stop-color:#D6D5D5"/>
				<stop  offset="0.707" style="stop-color:#F1F0F0"/>
				<stop  offset="0.977" style="stop-color:#F1F0F0"/>
				<stop  offset="1" style="stop-color:#FFFFFF"/>
			</linearGradient>
			<path id="Path_3907" class="st30" d="M-62,64.6l159.1,91.8c6.6,3.8,16.5,4.2,22.2,1l79.5-45.9c1.9-0.9,3.2-2.6,3.8-4.6v-2l0,0
				v-3.2l-12.6,0.8l-4.5-0.8L38.2,16.6c-6.6-3.8-16.5-4.2-22.2-1l-70.3,40.6l-13-2.5v3.5l0,0C-67.4,59.9-65.6,62.5-62,64.6z"/>
			<path id="Path_3908" class="st31" d="M-61.7,64.8l151.5,87.5v-3.8L-61.7,61V64.8z"/>
			<path id="Path_3909" class="st31" d="M15.9,2.3l-79.5,45.9c-5.6,3.2-4.9,9.1,1.5,12.8l159.1,91.8c6.6,3.8,16.5,4.2,22.2,1
				l79.5-45.9c5.6-3.2,4.9-9.1-1.5-12.8L38,3.2C31.5-0.7,21.6-1.1,15.9,2.3z"/>
			<path id="Path_3910" class="st32" d="M197.1,94.9L38,3.1c-1.9-1.1-4-1.9-6.1-2.4c1.4,0.5,2.8,1.1,4,1.8L195,94.3
				c6.6,3.8,7.3,9.5,1.5,12.8L117,153.1c-4,2.4-10.3,2.8-15.9,1.4c6.1,2,13.5,1.8,18-0.8l79.5-45.9
				C204.4,104.5,203.7,98.7,197.1,94.9z"/>
			<path id="Path_3911" class="st33" d="M-61.7,61c0.1,0.1,151.4,87.5,151.4,87.5l100-57.8L38,3.1c-0.1-0.1,0.6,0.3,0.3,0.1
				L-61.7,61z"/>
			<path id="Path_3912" class="st34" d="M-46.4,44.8c1.7,0.8,3.6,0.8,5.3,0c1.4-0.8,1.5-2.2,0-3.1c-1.7-0.8-3.6-0.8-5.3,0
				c-0.8,0.3-1.3,1.3-0.9,2.1C-47.1,44.3-46.8,44.6-46.4,44.8z"/>
			<path id="Path_3913" class="st35" d="M-37.2,39.9c1.1,0.6,2.5,0.6,3.6,0c0.6-0.2,0.9-0.9,0.7-1.4c-0.1-0.3-0.4-0.6-0.7-0.7
				c-1.1-0.6-2.5-0.6-3.6,0c-0.6,0.2-0.9,0.9-0.7,1.4C-37.7,39.6-37.5,39.8-37.2,39.9z"/>
			<path id="Path_3914" class="st36" d="M144.8,132.2l18.7-10.7c2.4-1.4,2.1-3.6-0.7-5.2l0,0c-2.8-1.5-6.1-1.7-9.1-0.4L135,126.6
				c-2.4,1.4-2.1,3.6,0.7,5.2l0,0C138.4,133.4,142.4,133.6,144.8,132.2z"/>
			<path id="Path_3915" class="st37" d="M135.2,129l18.7-10.7c2.4-1.4,6.4-1.1,9.1,0.4c0.7,0.4,1.3,1,1.8,1.7
				c0.8-1.3,0.1-2.9-1.8-4.2c-2.8-1.5-6.1-1.7-9.1-0.4l-18.7,10.7c-1.5,0.8-2,2.2-1.3,3.5C134.3,129.6,134.7,129.3,135.2,129z"/>
		</g>
		<g id="Group_1258" transform="translate(221.996 131.995)">
			<path id="Path_3916" class="st29" d="M-54.6,1.4c0,0.6-0.1,1.2-0.4,1.8c-0.3,0.5-0.6,1-1.1,1.4l-9.6,5.6c-1,0.6-1.7,0-1.7-1.3
				V8.5c0.1-0.5,0.2-1,0.4-1.4c0.3-0.5,0.6-1,1.1-1.4l9.1-5.2l0.6-0.3C-55.3-0.4-54.6,0.2-54.6,1.4z"/>
			<path id="Path_3917" class="st28" d="M-56.8,0.4c-0.1,0.5-0.2,1-0.4,1.4c-0.3,0.5-0.6,1-1.1,1.4l-9.1,5.2c0.1-0.5,0.2-1,0.4-1.4
				c0.3-0.5,0.6-1,1.1-1.4L-56.8,0.4z"/>
		</g>
		<path id="Path_3918" class="st38" d="M92,146.5l-2.8,1.7l-61.8-35.7l-42.6-24.6l-45.8-26.5l44-25.3L92,146.5z"/>
		<path id="Path_3919" class="st33" d="M-60.9,64.3L89.3,151v-2.8L-60.9,61.6V64.3z"/>
	</g>
	
		<linearGradient id="Path_4936_1_" gradientUnits="userSpaceOnUse" x1="444.8554" y1="4205.084" x2="445.8434" y2="4205.2671" gradientTransform="matrix(124.4253 -71.837 -1.326 -2.2967 -48932.2031 45498.1172)">
		<stop  offset="0" style="stop-color:#FF0000;stop-opacity:0"/>
		<stop  offset="0.488" style="stop-color:#E20000"/>
		<stop  offset="1" style="stop-color:#FF0000;stop-opacity:0"/>
	</linearGradient>
	<path id="Path_4936" class="st39" d="M842.8,3882.4l123.2-71.9l2,1.3l-123.2,71.7L842.8,3882.4z"/>
	<g id="Group_1717" transform="translate(946.201 3689.177)">
		<g>
			<defs>
				<path id="SVGID_7_" d="M62.3,41.1c0.7,0.3,1.1,1.1,0.9,1.8c-0.1,0.4-0.5,0.7-0.9,0.9L8.3,75c-1.5,0.7-3.2,0.7-4.6,0l-70.2-40.5
					c-0.7-0.3-1.1-1.1-0.9-1.8c0.1-0.4,0.5-0.7,0.9-0.9l54-31.2c1.5-0.7,3.2-0.7,4.6,0L62.3,41.1z"/>
			</defs>
			<clipPath id="SVGID_8_">
				<use xlink:href="#SVGID_7_"  style="overflow:visible;"/>
			</clipPath>
			<g id="Group_1708-2" class="st40">
				<path id="Path_4904-2" class="st15" d="M64.7,42.4L6,76.3l-74.8-43.2l58.6-33.8L64.7,42.4z"/>
			</g>
		</g>
		<g>
			<defs>
				<path id="SVGID_9_" d="M62.3,41.1c0.7,0.3,1.1,1.1,0.9,1.8c-0.1,0.4-0.5,0.7-0.9,0.9L8.3,75c-1.5,0.7-3.2,0.7-4.6,0l-70.2-40.5
					c-0.7-0.3-1.1-1.1-0.9-1.8c0.1-0.4,0.5-0.7,0.9-0.9l54-31.2c1.5-0.7,3.2-0.7,4.6,0L62.3,41.1z"/>
			</defs>
			<clipPath id="SVGID_10_">
				<use xlink:href="#SVGID_9_"  style="overflow:visible;"/>
			</clipPath>
			<g id="Group_1710-2" class="st41">
				<g id="Group_1709-2" transform="translate(24.58 13.867)">
					<path id="Path_4906-2" class="st17" d="M7.6,28.4c-4.2-0.3-15.6-9-15.6-9l-25.7,14.8c0,0,15.1,6.6,15.6,9
						c0,0,12.6,1.1,19.4-2.7C8,36.9,7.6,28.4,7.6,28.4z"/>
					<path id="Path_4907-2" class="st18" d="M-47.8,29c0,0-2.5-0.8-3.8-0.3c-1.3,0.6-1.1,2.1,3.6,3.9c2.4,0.9,4.8,1.6,7.3,2
						c1.3,0.4,3.9,0.5,2.7-1.4L-47.8,29z"/>
					<path id="Path_4908-2" class="st19" d="M-47.8,29c0,0-2.5-0.8-3.8-0.3c-1.3,0.6-1.1,2.1,3.6,3.9c2.4,0.9,4.8,1.6,7.3,2
						c1.3,0.4,3.9,0.5,2.7-1.4L-47.8,29z"/>
					<path id="Path_4909-2" class="st19" d="M-47.8,29c0,0-2.5-0.8-3.8-0.3c-1.3,0.6-1.1,2.1,3.6,3.9c2.4,0.9,4.8,1.6,7.3,2
						c1.3,0.4,3.9,0.5,2.7-1.4L-47.8,29z"/>
					<path id="Path_4910-2" class="st18" d="M-17.5,11.4c0,0-1.4-1.4-0.4-2.2c1-0.7,3.7-0.6,6.8,2.1s2.8,3.5,3.5,4.2
						c0.7,0.7,0.9,2.3-2.4,1.5L-17.5,11.4z"/>
					<path id="Path_4911-2" class="st18" d="M-57,6c5.8-3.4,15.2-5.1,23.4-3.3c4.9,1,9.6,3.1,13.5,6.2c1.9,1.3,4.8,3.4,6.9,5.1
						s6.4,4.4,8.4,6.8c2,2.3,1.1,4,0.3,6.6c-0.7,2.5-3.6,5.4-4.9,6.1c-3.4,1.5-6.9,2.4-10.6,2.8c-4.4,0.4-7.4,0.9-11.4-0.2
						c-4-1.1-8.6-3.7-11.7-4.9s-6.7-2.9-8.8-4s-7.6-3.1-10.8-7.8C-65.8,14.8-62.8,9.3-57,6z"/>
					<path id="Path_4912-2" class="st19" d="M-12.1,34.6L-12.1,34.6c-6.7,1.6-13.7,0.7-19.8-2.5c-2.9-1.5-7.3-1.3-10.7-1.7
						s-10.7-4.6-10.7-4.6l-1,0.4c0.9,0.5,1.8,0.8,2.3,1.1c2.1,1.1,5.8,2.7,8.8,4c3.1,1.2,7.7,3.7,11.7,4.9c4,1.1,7,0.6,11.4,0.2
						C-17.3,36-14.6,35.5-12.1,34.6z"/>
					<path id="Path_4913-2" class="st20" d="M-4.4,27.4c0.7-2.5,1.7-4.3-0.3-6.6s-6.4-5-8.4-6.8c-2.2-1.8-4.5-3.5-6.9-5.1
						c-0.5-0.3-1.1-0.8-2-1.4L-23,8.3c0,0,7.2,4.2,7.9,6.2c0.7,1.9,0.4,4.5,3,6.2s8.4,6,4.4,11.4c-0.1,0.1-0.1,0.2-0.2,0.3
						C-6.3,31-5.1,29.3-4.4,27.4z"/>
					<path id="Path_4914-2" class="st19" d="M-24.2,25.5c-1,0-2.1-0.1-3.1-0.5c-0.9-0.5-4.2-3-6.9-4.7c-2.7-1.7-3.4-1.2-6.4-0.4
						c-3.4,1-6.8,2.3-10,3.9c-1.4,0.7-4.6-2.2-6.4-4.1c1.6-0.2,5.2-1,11.3-3.9c9-4.2,11.5-11.3,11.5-11.3l-26.1,13.7l0.8,0.6
						l-3.2,0.8c3.1,4.7,8.6,6.7,10.8,7.8s5.8,2.7,8.8,4c3.1,1.2,7.7,3.7,11.7,4.9c4,1.1,7,0.6,11.4,0.2c3.7-0.4,7.2-1.3,10.6-2.8
						c-3.4-1.9-11.2-6.1-11.2-6.1L-24.2,25.5z"/>
					<path id="Path_4915-2" class="st21" d="M-25.1,5.2C-28.3,2.6-41.6-5-58.7,5c-17.4,9.8-4.2,17.6,0.3,19.4c2.8,1.1,5.9,4.2,7,4.2
						c0.6-0.2,1.2-0.2,1.7-0.1c0.8,0.3,3.2,1.3,3.2,1.3s-5-3.6-6.4-4.7c-1.3-1.1-2.6-2.1-4-3.1c-2.5-1.7-3.4-3.1-2.5-5
						s8.5-4.2,10.8-5.2l1.7-1c1.7-1.3,5.8-5.7,9.1-6.2c3-0.5,6.1,0,8.7,1.5c2.9,1.4,3.4,1.5,5.4,2.3s8.2,3.8,8.2,3.8
						c-0.8-0.6-1.6-1.2-2.3-1.9c-0.5-0.5,0.1-1,0.1-1C-17.9,8.7-23.1,6.9-25.1,5.2z"/>
					<path id="Path_4916-2" class="st21" d="M-45.4,5.9l-15.1,8.7l-1.5,5.4c28.8-6.9,28.1-17.5,28.1-17.5L-45.4,5.9z"/>
				</g>
				<path id="Path_4917-2" class="st22" d="M34.2,39.7L23.6,52.3L2.8,57.8L20.4,68l31.4-18.2L34.2,39.7z"/>
				<path id="Path_4918-2" class="st23" d="M20.3,57.8l11,0.9l1.7,1.9l4.8-2.7l-2.9-1.2l-1.6-6.7l-9.5,2.1L20.3,57.8z"/>
				<path id="Path_4919-2" class="st24" d="M23.7,52.2L0.4,52.9l1.2,6.6l23.6,0.7L23.7,52.2z"/>
				<path id="Path_4920-2" class="st24" d="M23.6,52.3l1.3-13.5l11.4,0.7l1.1,13.7L23.6,52.3z"/>
				<path id="Path_4921-2" class="st25" d="M-10.9,66.5l16.9,9.8l17.7-10.2C8.4,62.2,0,55,0,55L-10.9,66.5z"/>
				<path id="Path_4922-2" class="st25" d="M64.7,42.4l-16.9-9.8l-20,6.2c0,0,12.4,4.8,19.2,13.7L64.7,42.4z"/>
			</g>
		</g>
	</g>
</g>
</svg>
