<svg xmlns="http://www.w3.org/2000/svg" xmlns:xlink="http://www.w3.org/1999/xlink" viewBox="0 0 68.876 82.127"><defs><style>.a{fill:url(#a);}.b{fill:#dcdcdc;}.c{fill:url(#b);}</style><linearGradient id="a" x1="0.49" y1="0.992" x2="0.506" y2="0.005" gradientUnits="objectBoundingBox"><stop offset="0" stop-color="#eeeff0"/><stop offset="1" stop-color="#f8f8f8"/></linearGradient><linearGradient id="b" x1="0.233" y1="1" x2="0.5" y2="-0.385" gradientUnits="objectBoundingBox"><stop offset="0" stop-color="#0151e1"/><stop offset="0.358" stop-color="#0973e8"/><stop offset="0.724" stop-color="#1abaf7"/><stop offset="1" stop-color="#1dc5f9"/></linearGradient></defs><g transform="translate(-295.667 -163.6)"><path class="a" d="M364.517,206.182c-.036-1.477-.083-3-.083-4.514h.036V190.352c0-3.716,0-7.516.036-11.28a8.7,8.7,0,0,0-6.956-8.993c-4.276-1.036-8.671-2.12-12.912-3.2l-1.882-.476c-3.2-.8-6.515-1.644-9.755-2.442a11.757,11.757,0,0,0-5.753,0c-3.6.881-7.158,1.763-10.47,2.6-4.121,1.036-9.231,2.323-14.115,3.478a8.787,8.787,0,0,0-6.992,9.076l.036,4.038c.036,7.754.083,15.758-.036,23.632a32.525,32.525,0,0,0,7.718,21.714c5.634,6.837,12.959,12.078,23.036,16.473a9.5,9.5,0,0,0,3.681.762,10.2,10.2,0,0,0,3.835-.762,61.835,61.835,0,0,0,20.8-14C361.551,223.739,364.874,215.378,364.517,206.182Z" transform="translate(0 0)"/><path class="b" d="M619.652,206.182c-.036-1.477-.083-3-.083-4.514h.036V190.352c0-3.716,0-7.516.036-11.28a8.7,8.7,0,0,0-6.956-8.993c-4.276-1.036-8.671-2.12-12.912-3.2l-1.882-.476c-3.2-.8-6.515-1.644-9.755-2.442a11.345,11.345,0,0,0-2.835-.357v82.079a9.644,9.644,0,0,0,3.716-.762,61.836,61.836,0,0,0,20.8-14C616.686,223.739,620.009,215.378,619.652,206.182Z" transform="translate(-255.134 0)"/><g transform="translate(307.81 176.035)"><path class="c" d="M421.114,396.2a24.283,24.283,0,0,1,23.862,20.383,33.614,33.614,0,0,1,.284,4.972,3.731,3.731,0,0,1-.494,1.74c-.457.864-1.036,1.653-1.579,2.48-.284.419-.617.7-1.16.494s-.617-.666-.58-1.2a31.13,31.13,0,0,0-.37-9.562A20.56,20.56,0,0,0,424.1,400.1a20.08,20.08,0,0,0-18.137,6.5c-.333.333-.617.666-1.16.543a.847.847,0,0,1-.7-.864,10.007,10.007,0,0,1,.284-2.529,4.036,4.036,0,0,1,1.16-1.826,23.579,23.579,0,0,1,13.547-5.639C419.708,396.249,420.411,396.249,421.114,396.2Z" transform="translate(-404.1 -381.345)"/><path class="c" d="M444.638,475.087c-.37,2.776-.7,5.552-1.123,8.279-.247,1.863-1.616,2.739-3.233,3.27a.882.882,0,0,1-1.073-1.123c.284-1.32.666-2.69.913-4.022a35.45,35.45,0,0,0,.543-9.562,13.079,13.079,0,0,0-25.886-.407c-.086.419-.086.827-.16,1.2a.884.884,0,0,1-.79.827.809.809,0,0,1-.95-.543,27.715,27.715,0,0,1-1.123-3.516A3.153,3.153,0,0,1,412,467.66c2.6-6.256,7.243-10.019,14.041-10.722a16.642,16.642,0,0,1,18.137,13.671,9.054,9.054,0,0,1,.16,1.073c.086,1.123.123,2.233.16,3.356A.183.183,0,0,0,444.638,475.087Z" transform="translate(-410.769 -434.507)"/><path class="c" d="M441.528,335.5c11.055.333,19.84,4.923,26.256,14a7.16,7.16,0,0,1,1.37,4.269v2.283a.927.927,0,0,1-.74,1.036c-.543.123-.864-.21-1.073-.666a29.456,29.456,0,0,0-1.579-3.109,27.566,27.566,0,0,0-20.333-13.745,27.113,27.113,0,0,0-16.188,2.566c-.123.086-.284.123-.419.21a.841.841,0,0,1-1.123-.16.877.877,0,0,1-.123-1.123,7.051,7.051,0,0,1,4.392-3.973A30.985,30.985,0,0,1,441.528,335.5Z" transform="translate(-424.55 -328.134)"/><path class="c" d="M478.51,527.988a39.3,39.3,0,0,1-2.11,11.351c-.494,1.407-.95,1.7-2.406,1.653a4.955,4.955,0,0,1-.74-.037.937.937,0,0,1-.913-1.407,32.963,32.963,0,0,0,2.443-13.042,5.614,5.614,0,1,0-11.228,0,21.74,21.74,0,0,1-1.283,8c-.456,1.16-1.073,1.283-1.949.419l-.79-.79a1.773,1.773,0,0,1-.456-1.826,20.574,20.574,0,0,0,.74-5.762,9.3,9.3,0,0,1,18.507-1.407A24.213,24.213,0,0,1,478.51,527.988Z" transform="translate(-452.218 -487.321)"/><path class="c" d="M509.144,275.837a38.3,38.3,0,0,1,13.375,3.233,16.336,16.336,0,0,1,6.872,6.255.859.859,0,0,1-.123,1.2.957.957,0,0,1-1.32-.037,34.058,34.058,0,0,0-9.032-4.886,35.357,35.357,0,0,0-15.818-1.986,1.051,1.051,0,0,1-1.123-.543A.774.774,0,0,1,502.26,278c2.023-1.123,4.1-2.2,6.5-2.2A1.385,1.385,0,0,0,509.144,275.837Z" transform="translate(-489.81 -275.8)"/><path class="c" d="M513.267,581.271a27.57,27.57,0,0,1-2.443,10.648c-.456.95-.79,1.073-1.777.666-.457-.21-.864-.42-1.32-.617a.891.891,0,0,1-.42-1.246,24.451,24.451,0,0,0,2.233-10.981,1.811,1.811,0,0,1,1.863-1.949,1.835,1.835,0,0,1,1.826,1.987C513.267,580.284,513.267,580.777,513.267,581.271Z" transform="translate(-494.476 -540.53)"/></g></g></svg>