<svg xmlns="http://www.w3.org/2000/svg" xmlns:xlink="http://www.w3.org/1999/xlink" viewBox="0 0 240.075 82.127"><defs><style>.a{fill:#fff;}.b{fill:url(#a);}.c{fill:#dcdcdc;}.d{fill:url(#b);}</style><linearGradient id="a" x1="0.49" y1="0.992" x2="0.506" y2="0.005" gradientUnits="objectBoundingBox"><stop offset="0" stop-color="#eeeff0"/><stop offset="1" stop-color="#f8f8f8"/></linearGradient><linearGradient id="b" x1="0.233" y1="1" x2="0.5" y2="-0.385" gradientUnits="objectBoundingBox"><stop offset="0" stop-color="#0151e1"/><stop offset="0.358" stop-color="#0973e8"/><stop offset="0.724" stop-color="#1abaf7"/><stop offset="1" stop-color="#1dc5f9"/></linearGradient></defs><g transform="translate(81.114 1.176)"><g transform="translate(15 17.802)"><path class="a" d="M246.5,372.386a.127.127,0,0,1,.035-.1c.83-2.109,2.7-2.524,4.91-2.386,2.282.138,3.388,1.072,3.423,3.112.069,3.043.035,6.12.035,9.162v.519c.553.173.553.173,1.106.38h0q5.446-5.757,10.891-11.444c1.59-1.694,6.258-2.455,8.3-1.245a2.1,2.1,0,0,1,.761,1.9,4.408,4.408,0,0,1-1.314,1.936c-3.872,3.941-7.779,7.814-11.79,11.825a.315.315,0,0,0,0,.415q5.29,5.809,10.58,11.548a31.989,31.989,0,0,1,2.835,3.319c1.176,1.729.415,2.87-1.8,3.043-3.423.311-6.154-.346-8.332-3.146-3.25-4.149-6.915-8.021-10.614-12.239a.319.319,0,0,0-.553.138,7.129,7.129,0,0,0-.069.726v10.407c0,2.662-.622,3.665-2.489,4.011-2.9.553-4.7-.138-5.843-2.351a.208.208,0,0,1-.035-.138V372.386Z" transform="translate(-246.5 -367.926)"/><path class="a" d="M593.654,415.836a34.8,34.8,0,0,1-3.872-.657c-5.981-1.66-9.3-5.428-10.372-10.926a13.518,13.518,0,0,1,8.16-15.247,18.034,18.034,0,0,1,15.87.761,14.371,14.371,0,0,1,3.7,3.388c.968,1.106,1.487,2.42.173,3.665-1.141,1.072-3.976,1.106-5.29.173a7.4,7.4,0,0,1-1.106-.968,8.15,8.15,0,0,0-8.471-2.109A6.847,6.847,0,0,0,587.327,400a12.138,12.138,0,0,0,.311,4.6,6.459,6.459,0,0,0,5.29,5.013c2.939.588,5.67.1,7.676-2.074a4.826,4.826,0,0,1,5.325-1.556c1.867.553,2.524,1.763,1.66,3.388-2.074,3.942-5.843,5.67-10.407,6.258-.622.069-1.245.173-1.9.242C594.864,415.836,594.1,415.836,593.654,415.836Z" transform="translate(-464.137 -379.533)"/><path class="a" d="M379.527,393.729c5.981-6.12,13.934-5.5,17.771,1.383.173-.138.38-.207.449-.38,2.835-4.771,9.266-6.016,14.418-4.564a7.6,7.6,0,0,1,5.6,5.809,26.814,26.814,0,0,1,.83,5.981c.138,3.942.069,7.883.035,11.825-.035,2.628-1.106,3.527-4.011,3.527-2.87,0-4.011-.968-4.011-3.527-.035-3.561,0-7.157-.035-10.718a16.9,16.9,0,0,0-.277-2.939c-.622-3.25-2.282-4.529-5.67-4.426-3.25.1-5.186,1.59-5.428,4.737-.277,3.976-.207,7.987-.311,11.963v1.383c-.069,2.628-1.072,3.527-4.011,3.492-2.87,0-3.976-.968-4.011-3.561-.035-3.561,0-7.157-.035-10.718a18.184,18.184,0,0,0-.277-3.077c-.519-2.973-1.936-4.184-4.875-4.253-3.181-.1-5.186,1.176-5.774,4.045a29.991,29.991,0,0,0-.449,5.567c-.069,2.835,0,5.7-.035,8.54-.035,2.559-1.141,3.492-4.08,3.457-2.8,0-3.872-.933-3.872-3.457-.035-6.638,0-13.277,0-19.915,0-2.835.83-3.7,3.457-3.8C378.282,389.995,379.216,390.686,379.527,393.729Z" transform="translate(-328.253 -380.832)"/><path class="a" d="M516.384,382.275V368c0-2.662,1.106-3.6,4.114-3.6,2.8.035,3.872,1,3.872,3.63V396.9c0,1.314-.138,2.593-1.625,3.181a5.294,5.294,0,0,1-5.082-.242,3.6,3.6,0,0,1-1.245-2.662C516.349,392.233,516.384,387.254,516.384,382.275Z" transform="translate(-423.067 -364.4)"/><g transform="translate(31.14 1.763)"><path class="a" d="M341.73,369.535c1.59.484,3.181.9,3.769,2.559a3.5,3.5,0,0,1-2.593,4.564c-2.731.761-5.428-.207-6.12-2.282-.726-2.178.38-3.872,2.939-4.6a4.508,4.508,0,0,0,.588-.277C340.831,369.535,341.281,369.535,341.73,369.535Z" transform="translate(-336.567 -369.5)"/><path class="a" d="M338.229,411.667c0-3.008-.035-5.981,0-8.989.035-2.247,1.176-3.077,4.08-3.077,2.662,0,3.872.934,3.872,3.146.035,5.981,0,11.963,0,17.979,0,1.141-.173,2.489-1.729,2.731a12.506,12.506,0,0,1-4.944-.207c-.691-.173-1.21-1.521-1.245-2.317C338.126,417.821,338.229,414.744,338.229,411.667Z" transform="translate(-337.63 -389.193)"/></g><g transform="translate(104.093 1.763)"><path class="a" d="M552.73,369.535c1.59.484,3.181.9,3.769,2.559a3.5,3.5,0,0,1-2.593,4.564c-2.731.761-5.428-.207-6.12-2.282-.726-2.178.38-3.872,2.939-4.6a4.5,4.5,0,0,0,.588-.277C551.831,369.535,552.281,369.535,552.73,369.535Z" transform="translate(-547.567 -369.5)"/><path class="a" d="M549.229,411.667c0-3.008-.035-5.981,0-8.989.035-2.247,1.176-3.077,4.08-3.077,2.662,0,3.872.934,3.872,3.146.035,5.981,0,11.963,0,17.979,0,1.141-.173,2.489-1.729,2.731a12.505,12.505,0,0,1-4.944-.207c-.692-.173-1.21-1.521-1.245-2.317C549.126,417.821,549.229,414.744,549.229,411.667Z" transform="translate(-548.63 -389.193)"/></g></g><g transform="translate(-376.781 -164.776)"><path class="b" d="M364.517,206.182c-.036-1.477-.083-3-.083-4.514h.036V190.352c0-3.716,0-7.516.036-11.28a8.7,8.7,0,0,0-6.956-8.993c-4.276-1.036-8.671-2.12-12.912-3.2l-1.882-.476c-3.2-.8-6.515-1.644-9.755-2.442a11.757,11.757,0,0,0-5.753,0c-3.6.881-7.158,1.763-10.47,2.6-4.121,1.036-9.231,2.323-14.115,3.478a8.787,8.787,0,0,0-6.992,9.076l.036,4.038c.036,7.754.083,15.758-.036,23.632a32.525,32.525,0,0,0,7.718,21.714c5.634,6.837,12.959,12.078,23.036,16.473a9.5,9.5,0,0,0,3.681.762,10.2,10.2,0,0,0,3.835-.762,61.835,61.835,0,0,0,20.8-14C361.551,223.739,364.874,215.378,364.517,206.182Z" transform="translate(0 0)"/><path class="c" d="M619.652,206.182c-.036-1.477-.083-3-.083-4.514h.036V190.352c0-3.716,0-7.516.036-11.28a8.7,8.7,0,0,0-6.956-8.993c-4.276-1.036-8.671-2.12-12.912-3.2l-1.882-.476c-3.2-.8-6.515-1.644-9.755-2.442a11.345,11.345,0,0,0-2.835-.357v82.079a9.644,9.644,0,0,0,3.716-.762,61.836,61.836,0,0,0,20.8-14C616.686,223.739,620.009,215.378,619.652,206.182Z" transform="translate(-255.134 0)"/><g transform="translate(307.81 176.035)"><path class="d" d="M421.114,396.2a24.283,24.283,0,0,1,23.862,20.383,33.614,33.614,0,0,1,.284,4.972,3.731,3.731,0,0,1-.494,1.74c-.457.864-1.036,1.653-1.579,2.48-.284.419-.617.7-1.16.494s-.617-.666-.58-1.2a31.13,31.13,0,0,0-.37-9.562A20.56,20.56,0,0,0,424.1,400.1a20.08,20.08,0,0,0-18.137,6.5c-.333.333-.617.666-1.16.543a.847.847,0,0,1-.7-.864,10.007,10.007,0,0,1,.284-2.529,4.036,4.036,0,0,1,1.16-1.826,23.579,23.579,0,0,1,13.547-5.639C419.708,396.249,420.411,396.249,421.114,396.2Z" transform="translate(-404.1 -381.345)"/><path class="d" d="M444.638,475.087c-.37,2.776-.7,5.552-1.123,8.279-.247,1.863-1.616,2.739-3.233,3.27a.882.882,0,0,1-1.073-1.123c.284-1.32.666-2.69.913-4.022a35.45,35.45,0,0,0,.543-9.562,13.079,13.079,0,0,0-25.886-.407c-.086.419-.086.827-.16,1.2a.884.884,0,0,1-.79.827.809.809,0,0,1-.95-.543,27.715,27.715,0,0,1-1.123-3.516A3.153,3.153,0,0,1,412,467.66c2.6-6.256,7.243-10.019,14.041-10.722a16.642,16.642,0,0,1,18.137,13.671,9.054,9.054,0,0,1,.16,1.073c.086,1.123.123,2.233.16,3.356A.183.183,0,0,0,444.638,475.087Z" transform="translate(-410.769 -434.507)"/><path class="d" d="M441.528,335.5c11.055.333,19.84,4.923,26.256,14a7.16,7.16,0,0,1,1.37,4.269v2.283a.927.927,0,0,1-.74,1.036c-.543.123-.864-.21-1.073-.666a29.456,29.456,0,0,0-1.579-3.109,27.566,27.566,0,0,0-20.333-13.745,27.113,27.113,0,0,0-16.188,2.566c-.123.086-.284.123-.419.21a.841.841,0,0,1-1.123-.16.877.877,0,0,1-.123-1.123,7.051,7.051,0,0,1,4.392-3.973A30.985,30.985,0,0,1,441.528,335.5Z" transform="translate(-424.55 -328.134)"/><path class="d" d="M478.51,527.988a39.3,39.3,0,0,1-2.11,11.351c-.494,1.407-.95,1.7-2.406,1.653a4.955,4.955,0,0,1-.74-.037.937.937,0,0,1-.913-1.407,32.963,32.963,0,0,0,2.443-13.042,5.614,5.614,0,1,0-11.228,0,21.74,21.74,0,0,1-1.283,8c-.456,1.16-1.073,1.283-1.949.419l-.79-.79a1.773,1.773,0,0,1-.456-1.826,20.574,20.574,0,0,0,.74-5.762,9.3,9.3,0,0,1,18.507-1.407A24.213,24.213,0,0,1,478.51,527.988Z" transform="translate(-452.218 -487.321)"/><path class="d" d="M509.144,275.837a38.3,38.3,0,0,1,13.375,3.233,16.336,16.336,0,0,1,6.872,6.255.859.859,0,0,1-.123,1.2.957.957,0,0,1-1.32-.037,34.058,34.058,0,0,0-9.032-4.886,35.357,35.357,0,0,0-15.818-1.986,1.051,1.051,0,0,1-1.123-.543A.774.774,0,0,1,502.26,278c2.023-1.123,4.1-2.2,6.5-2.2A1.385,1.385,0,0,0,509.144,275.837Z" transform="translate(-489.81 -275.8)"/><path class="d" d="M513.267,581.271a27.57,27.57,0,0,1-2.443,10.648c-.456.95-.79,1.073-1.777.666-.457-.21-.864-.42-1.32-.617a.891.891,0,0,1-.42-1.246,24.451,24.451,0,0,0,2.233-10.981,1.811,1.811,0,0,1,1.863-1.949,1.835,1.835,0,0,1,1.826,1.987C513.267,580.284,513.267,580.777,513.267,581.271Z" transform="translate(-494.476 -540.53)"/></g></g></g></svg>