<svg xmlns="http://www.w3.org/2000/svg" xmlns:xlink="http://www.w3.org/1999/xlink" viewBox="0 0 167.067 54.317"><defs><style>.a{fill:#fff;}.b{fill:url(#a);}.c{fill:#dcdcdc;}.d{fill:url(#b);}</style><linearGradient id="a" x1="0.49" y1="0.992" x2="0.506" y2="0.005" gradientUnits="objectBoundingBox"><stop offset="0" stop-color="#eeeff0"/><stop offset="1" stop-color="#f8f8f8"/></linearGradient><linearGradient id="b" x1="0.233" y1="1" x2="0.5" y2="-0.385" gradientUnits="objectBoundingBox"><stop offset="0" stop-color="#0151e1"/><stop offset="0.358" stop-color="#0973e8"/><stop offset="0.724" stop-color="#1abaf7"/><stop offset="1" stop-color="#1dc5f9"/></linearGradient></defs><g transform="translate(-46.349 -12515.592)"><g transform="translate(110.007 12529.688)"><path class="a" d="M246.5,371.654a.091.091,0,0,1,.025-.074c.6-1.515,1.937-1.813,3.527-1.714,1.639.1,2.434.77,2.459,2.235.05,2.185.025,4.4.025,6.581v.372c.4.124.4.124.795.273h0q3.912-4.135,7.823-8.22c1.142-1.217,4.5-1.763,5.961-.894a1.506,1.506,0,0,1,.546,1.366,3.167,3.167,0,0,1-.944,1.391c-2.782,2.831-5.588,5.613-8.469,8.494a.226.226,0,0,0,0,.3q3.8,4.172,7.6,8.295a22.979,22.979,0,0,1,2.036,2.384c.844,1.242.3,2.061-1.291,2.186-2.459.224-4.421-.248-5.985-2.26-2.335-2.98-4.967-5.762-7.624-8.792a.229.229,0,0,0-.4.1,5.12,5.12,0,0,0-.05.522v7.475c0,1.912-.447,2.633-1.788,2.881-2.086.4-3.378-.1-4.2-1.689a.149.149,0,0,1-.025-.1v-21.11Z" transform="translate(-246.5 -368.451)"/><path class="a" d="M589.568,407.863a25,25,0,0,1-2.782-.472c-4.3-1.192-6.681-3.9-7.451-7.848a9.71,9.71,0,0,1,5.861-10.952,12.954,12.954,0,0,1,11.4.546,10.322,10.322,0,0,1,2.657,2.434c.7.795,1.068,1.738.124,2.633a3.607,3.607,0,0,1-3.8.124,5.317,5.317,0,0,1-.795-.7,5.854,5.854,0,0,0-6.085-1.515,4.918,4.918,0,0,0-3.676,4.371,8.72,8.72,0,0,0,.224,3.3,4.64,4.64,0,0,0,3.8,3.6,5.586,5.586,0,0,0,5.513-1.49,3.466,3.466,0,0,1,3.825-1.118c1.341.4,1.813,1.267,1.192,2.434-1.49,2.831-4.2,4.073-7.475,4.5-.447.05-.894.124-1.366.174C590.438,407.863,589.891,407.863,589.568,407.863Z" transform="translate(-496.535 -381.786)"/><path class="a" d="M377.253,392.542c4.3-4.4,10.009-3.949,12.765.993.124-.1.273-.149.323-.273,2.036-3.427,6.656-4.321,10.356-3.278a5.459,5.459,0,0,1,4.023,4.172,19.262,19.262,0,0,1,.6,4.3c.1,2.831.05,5.662.025,8.494-.025,1.887-.795,2.533-2.881,2.533-2.061,0-2.881-.7-2.881-2.533-.025-2.558,0-5.141-.025-7.7a12.141,12.141,0,0,0-.2-2.111c-.447-2.335-1.639-3.253-4.073-3.179-2.334.075-3.725,1.142-3.9,3.4-.2,2.856-.149,5.737-.224,8.593v.993c-.05,1.887-.77,2.533-2.881,2.508-2.061,0-2.856-.7-2.881-2.558-.025-2.558,0-5.141-.025-7.7a13.06,13.06,0,0,0-.2-2.21c-.372-2.136-1.391-3.005-3.5-3.055-2.285-.074-3.725.844-4.148,2.906a21.548,21.548,0,0,0-.323,4c-.05,2.036,0,4.1-.025,6.134-.025,1.838-.82,2.508-2.931,2.484-2.012,0-2.781-.671-2.781-2.484-.025-4.768,0-9.537,0-14.305,0-2.037.6-2.657,2.484-2.732C376.359,389.86,377.03,390.357,377.253,392.542Z" transform="translate(-340.422 -383.279)"/><path class="a" d="M516.381,377.24V366.983c0-1.912.795-2.583,2.955-2.583,2.012.025,2.782.72,2.782,2.608v20.738c0,.944-.1,1.863-1.167,2.285a3.8,3.8,0,0,1-3.651-.174,2.588,2.588,0,0,1-.894-1.912C516.356,384.392,516.381,380.816,516.381,377.24Z" transform="translate(-449.351 -364.4)"/><g transform="translate(22.368 1.267)"><path class="a" d="M340.276,369.525c1.142.348,2.285.646,2.707,1.838a2.511,2.511,0,0,1-1.863,3.278c-1.962.546-3.9-.149-4.4-1.639-.522-1.565.273-2.782,2.111-3.3a3.238,3.238,0,0,0,.422-.2C339.63,369.525,339.953,369.525,340.276,369.525Z" transform="translate(-336.567 -369.5)"/><path class="a" d="M338.219,408.267c0-2.161-.025-4.3,0-6.457.025-1.614.844-2.21,2.931-2.21,1.912,0,2.782.671,2.782,2.26.025,4.3,0,8.593,0,12.914,0,.82-.124,1.788-1.242,1.962a8.983,8.983,0,0,1-3.551-.149c-.5-.124-.869-1.093-.894-1.664C338.144,412.688,338.219,410.478,338.219,408.267Z" transform="translate(-337.788 -392.124)"/></g><g transform="translate(74.771 1.267)"><path class="a" d="M551.276,369.525c1.142.348,2.285.646,2.707,1.838a2.511,2.511,0,0,1-1.863,3.278c-1.962.546-3.9-.149-4.4-1.639-.522-1.565.273-2.782,2.111-3.3a3.231,3.231,0,0,0,.422-.2C550.63,369.525,550.953,369.525,551.276,369.525Z" transform="translate(-547.567 -369.5)"/><path class="a" d="M549.219,408.267c0-2.161-.025-4.3,0-6.457.025-1.614.844-2.21,2.931-2.21,1.912,0,2.782.671,2.782,2.26.025,4.3,0,8.593,0,12.914,0,.82-.124,1.788-1.242,1.962a8.983,8.983,0,0,1-3.551-.149c-.5-.124-.869-1.093-.894-1.664C549.144,412.688,549.219,410.478,549.219,408.267Z" transform="translate(-548.789 -392.124)"/></g></g><g transform="translate(-249.318 12351.992)"><path class="b" d="M341.2,191.763c-.024-.977-.055-1.985-.055-2.986h.024v-7.484c0-2.458,0-4.971.024-7.46a5.752,5.752,0,0,0-4.6-5.948c-2.828-.685-5.735-1.4-8.539-2.119l-1.245-.315c-2.119-.528-4.309-1.087-6.452-1.615a7.775,7.775,0,0,0-3.8,0c-2.379.583-4.734,1.166-6.924,1.717-2.726.685-6.105,1.536-9.335,2.3a5.811,5.811,0,0,0-4.624,6l.024,2.671c.024,5.128.055,10.422-.024,15.629a21.511,21.511,0,0,0,5.1,14.361c3.726,4.522,8.571,7.988,15.235,10.895a6.286,6.286,0,0,0,2.434.5,6.744,6.744,0,0,0,2.537-.5,40.9,40.9,0,0,0,13.754-9.256A22.084,22.084,0,0,0,341.2,191.763Z"/><path class="c" d="M608.019,191.763c-.024-.977-.055-1.985-.055-2.986h.024v-7.484c0-2.458,0-4.971.024-7.46a5.752,5.752,0,0,0-4.6-5.948c-2.828-.685-5.735-1.4-8.539-2.119l-1.245-.315c-2.119-.528-4.309-1.087-6.452-1.615a7.5,7.5,0,0,0-1.875-.236v54.285a6.378,6.378,0,0,0,2.458-.5,40.9,40.9,0,0,0,13.754-9.256A21.857,21.857,0,0,0,608.019,191.763Z" transform="translate(-266.817)"/><g transform="translate(303.698 171.824)"><path class="d" d="M415.353,396.2a16.06,16.06,0,0,1,15.782,13.481,22.23,22.23,0,0,1,.188,3.289A2.468,2.468,0,0,1,431,414.12c-.3.571-.685,1.093-1.044,1.64-.188.277-.408.465-.767.326s-.408-.441-.384-.792a20.59,20.59,0,0,0-.245-6.324,13.6,13.6,0,0,0-11.228-10.192,13.281,13.281,0,0,0-12,4.3c-.22.22-.408.441-.767.359a.56.56,0,0,1-.465-.571,6.615,6.615,0,0,1,.188-1.673,2.669,2.669,0,0,1,.767-1.208,15.594,15.594,0,0,1,8.96-3.729C414.423,396.233,414.888,396.233,415.353,396.2Z" transform="translate(-404.1 -386.375)"/><path class="d" d="M433.487,468.91c-.245,1.836-.465,3.672-.743,5.475a2.676,2.676,0,0,1-2.138,2.162.583.583,0,0,1-.71-.743c.188-.873.441-1.779.6-2.66a23.446,23.446,0,0,0,.359-6.324,8.65,8.65,0,0,0-17.12-.269c-.057.277-.057.547-.106.792a.585.585,0,0,1-.522.547.535.535,0,0,1-.628-.359,18.331,18.331,0,0,1-.743-2.326A2.085,2.085,0,0,1,411.9,464a10.751,10.751,0,0,1,9.286-7.091,11.006,11.006,0,0,1,12,9.042,5.989,5.989,0,0,1,.106.71c.057.743.082,1.477.106,2.22A.121.121,0,0,0,433.487,468.91Z" transform="translate(-411.087 -442.071)"/><path class="d" d="M436.753,335.5a20.943,20.943,0,0,1,17.365,9.262,4.736,4.736,0,0,1,.906,2.823v1.51a.613.613,0,0,1-.49.685c-.359.082-.571-.139-.71-.441a19.474,19.474,0,0,0-1.044-2.056,18.232,18.232,0,0,0-13.448-9.09,17.932,17.932,0,0,0-10.706,1.7c-.082.057-.188.082-.277.139a.556.556,0,0,1-.743-.106.58.58,0,0,1-.082-.743,4.663,4.663,0,0,1,2.905-2.628A20.494,20.494,0,0,1,436.753,335.5Z" transform="translate(-425.525 -330.628)"/><path class="d" d="M471.9,524.3a25.992,25.992,0,0,1-1.4,7.507c-.326.93-.628,1.126-1.591,1.094a3.273,3.273,0,0,1-.49-.025.62.62,0,0,1-.6-.93,21.8,21.8,0,0,0,1.616-8.625,3.713,3.713,0,1,0-7.426,0,14.378,14.378,0,0,1-.849,5.288c-.3.767-.71.849-1.289.277l-.522-.522a1.173,1.173,0,0,1-.3-1.208,13.606,13.606,0,0,0,.49-3.811,6.149,6.149,0,0,1,12.24-.93A16.01,16.01,0,0,1,471.9,524.3Z" transform="translate(-454.511 -497.402)"/><path class="d" d="M506.682,275.824a25.33,25.33,0,0,1,8.846,2.138,10.8,10.8,0,0,1,4.545,4.137.568.568,0,0,1-.082.792.633.633,0,0,1-.873-.025,22.527,22.527,0,0,0-5.973-3.231,23.384,23.384,0,0,0-10.461-1.314.7.7,0,0,1-.743-.359.512.512,0,0,1,.188-.71,8.9,8.9,0,0,1,4.3-1.453A.917.917,0,0,0,506.682,275.824Z" transform="translate(-493.895 -275.8)"/><path class="d" d="M511.211,580.092a18.232,18.232,0,0,1-1.616,7.042c-.3.628-.522.71-1.175.441-.3-.139-.571-.277-.873-.408a.589.589,0,0,1-.277-.824,16.172,16.172,0,0,0,1.477-7.263,1.2,1.2,0,0,1,1.232-1.289,1.213,1.213,0,0,1,1.208,1.314C511.211,579.439,511.211,579.766,511.211,580.092Z" transform="translate(-498.783 -553.147)"/></g></g></g></svg>