<svg xmlns="http://www.w3.org/2000/svg" xmlns:xlink="http://www.w3.org/1999/xlink" viewBox="0 0 68.876 82.128"><defs><style>.a{fill:url(#a);}.b{fill:#0581f0;}.c{fill:url(#b);}</style><linearGradient id="a" x1="0.49" y1="0.992" x2="0.506" y2="0.005" gradientUnits="objectBoundingBox"><stop offset="0" stop-color="#277dd8"/><stop offset="1" stop-color="#2bc1fa"/></linearGradient><linearGradient id="b" x1="0.563" y1="0.5" x2="0.583" y2="-0.421" gradientUnits="objectBoundingBox"><stop offset="0" stop-color="#fff"/><stop offset="1" stop-color="#d5d5d5"/></linearGradient></defs><g transform="translate(18.646 -216.61)"><g transform="translate(-1142.633 53.496)"><path class="a" d="M1193.518,206.182c-.036-1.477-.083-3-.083-4.514h.036V190.353c0-3.716,0-7.516.036-11.28a8.7,8.7,0,0,0-6.956-8.993c-4.276-1.036-8.671-2.12-12.912-3.2l-1.882-.476c-3.2-.8-6.515-1.644-9.755-2.442a11.758,11.758,0,0,0-5.753,0c-3.6.881-7.159,1.763-10.47,2.6-4.121,1.036-9.231,2.323-14.115,3.478a8.787,8.787,0,0,0-6.992,9.076l.036,4.038c.036,7.754.083,15.758-.036,23.632a32.525,32.525,0,0,0,7.718,21.714c5.634,6.837,12.959,12.078,23.036,16.473a9.5,9.5,0,0,0,3.681.762,10.2,10.2,0,0,0,3.835-.762,61.837,61.837,0,0,0,20.8-14C1190.552,223.74,1193.875,215.378,1193.518,206.182Z" transform="translate(-0.679 -0.486)"/><path class="b" d="M1448.652,206.182c-.036-1.477-.083-3-.083-4.514h.036V190.353c0-3.716,0-7.516.036-11.28a8.7,8.7,0,0,0-6.956-8.993c-4.276-1.036-8.671-2.12-12.912-3.2l-1.882-.476c-3.2-.8-6.515-1.644-9.755-2.442a11.344,11.344,0,0,0-2.835-.357v82.08a9.645,9.645,0,0,0,3.716-.762,61.837,61.837,0,0,0,20.8-14C1445.686,223.74,1449.009,215.378,1448.652,206.182Z" transform="translate(-255.813 -0.486)"/><g transform="translate(1136.904 176.478)"><path class="c" d="M1249.526,396.2a23.442,23.442,0,0,1,23.036,19.677,32.452,32.452,0,0,1,.274,4.8,3.6,3.6,0,0,1-.476,1.679c-.441.834-1,1.6-1.525,2.394-.274.4-.6.679-1.12.476s-.6-.643-.56-1.155a30.051,30.051,0,0,0-.357-9.231,19.848,19.848,0,0,0-16.39-14.877,19.385,19.385,0,0,0-17.509,6.277c-.322.322-.6.643-1.12.524a.818.818,0,0,1-.679-.834,9.662,9.662,0,0,1,.274-2.442,3.9,3.9,0,0,1,1.12-1.763,22.762,22.762,0,0,1,13.078-5.443C1248.168,396.248,1248.847,396.248,1249.526,396.2Z" transform="translate(-1233.1 -381.859)"/><path class="c" d="M1272.5,474.456c-.357,2.68-.679,5.36-1.084,7.992-.238,1.8-1.56,2.644-3.121,3.156a.851.851,0,0,1-1.036-1.084c.274-1.275.643-2.6.881-3.883a34.225,34.225,0,0,0,.524-9.231,12.627,12.627,0,0,0-24.99-.393c-.083.4-.083.8-.155,1.155a.853.853,0,0,1-.762.8.781.781,0,0,1-.917-.524,26.768,26.768,0,0,1-1.084-3.395,3.043,3.043,0,0,1,.238-1.763c2.513-6.039,6.992-9.672,13.555-10.351a16.066,16.066,0,0,1,17.51,13.2,8.727,8.727,0,0,1,.155,1.036c.083,1.084.119,2.156.155,3.24A.177.177,0,0,0,1272.5,474.456Z" transform="translate(-1239.802 -435.28)"/><path class="c" d="M1270.039,335.5c10.672.322,19.153,4.753,25.347,13.519a6.912,6.912,0,0,1,1.322,4.121v2.2a.9.9,0,0,1-.715,1c-.524.119-.834-.2-1.036-.643a28.412,28.412,0,0,0-1.525-3,26.611,26.611,0,0,0-19.63-13.269,26.175,26.175,0,0,0-15.627,2.478c-.119.083-.274.119-.4.2a.812.812,0,0,1-1.084-.155.847.847,0,0,1-.119-1.084,6.806,6.806,0,0,1,4.24-3.835A29.918,29.918,0,0,1,1270.039,335.5Z" transform="translate(-1253.65 -328.389)"/><path class="c" d="M1306.835,527.611a37.941,37.941,0,0,1-2.037,10.958c-.476,1.358-.917,1.644-2.323,1.6a4.793,4.793,0,0,1-.715-.036.9.9,0,0,1-.881-1.358,31.825,31.825,0,0,0,2.358-12.59,5.42,5.42,0,1,0-10.839,0,20.991,20.991,0,0,1-1.239,7.718c-.441,1.12-1.036,1.239-1.882.4l-.762-.762a1.712,1.712,0,0,1-.441-1.763,19.857,19.857,0,0,0,.715-5.562,8.976,8.976,0,0,1,17.867-1.358A23.353,23.353,0,0,1,1306.835,527.611Z" transform="translate(-1281.452 -488.352)"/><path class="c" d="M1337.893,275.836a36.973,36.973,0,0,1,12.912,3.121,15.77,15.77,0,0,1,6.635,6.039.829.829,0,0,1-.119,1.155.924.924,0,0,1-1.274-.036,32.884,32.884,0,0,0-8.719-4.717,34.134,34.134,0,0,0-15.27-1.918,1.015,1.015,0,0,1-1.084-.524.747.747,0,0,1,.274-1.036,12.993,12.993,0,0,1,6.277-2.12A1.34,1.34,0,0,0,1337.893,275.836Z" transform="translate(-1319.228 -275.8)"/><path class="c" d="M1342.057,581.15a26.615,26.615,0,0,1-2.358,10.279c-.441.917-.762,1.036-1.715.643-.441-.2-.834-.4-1.275-.6a.86.86,0,0,1-.4-1.2,23.6,23.6,0,0,0,2.156-10.6,1.749,1.749,0,0,1,1.8-1.882,1.771,1.771,0,0,1,1.763,1.918C1342.057,580.2,1342.057,580.674,1342.057,581.15Z" transform="translate(-1323.916 -541.82)"/></g></g></g></svg>