<svg xmlns="http://www.w3.org/2000/svg" viewBox="0 0 248.357 144.626">
  <defs>
    <style>
      .cls-1 {
        fill: #fff;
      }

      .cls-1, .cls-2 {
        fill-rule: evenodd;
      }

      .cls-2 {
        fill: #006bbf;
      }
    </style>
  </defs>
  <g id="Koop_fintech_hub_logo" transform="translate(-250.001 -147.333)">
    <g id="koop--master--wh" transform="translate(250.001 147.333)">
      <g id="koop-blu" transform="translate(0 0)">
        <g id="Group_3236" data-name="Group 3236">
          <path id="Fill-1" class="cls-1" d="M403.3,85.763a20.651,20.651,0,0,0,5.973-15.01A20.133,20.133,0,0,0,403.3,55.876a20.977,20.977,0,0,0-29.6,0,20.549,20.549,0,0,0-5.842,14.877,21.085,21.085,0,0,0,5.842,15.01,21.308,21.308,0,0,0,29.6,0Zm11.15-40.249a33.816,33.816,0,0,1,10.619,25.239,33.817,33.817,0,0,1-10.619,25.239,38.1,38.1,0,0,1-46.6,4.162v18.6a7.9,7.9,0,1,1-15.808,0V99.6c.065-.061.135-.114.2-.176A38.414,38.414,0,0,0,364.3,70.753a38.843,38.843,0,0,0-5.63-20.642,36.387,36.387,0,0,1,4-4.6,37.868,37.868,0,0,1,51.768,0Z" transform="translate(-176.71 -18.376)"/>
          <path id="Fill-3" class="cls-1" d="M53.6,76.02,33.061,49.953l16.692-18.6A7.459,7.459,0,0,0,49.5,20.821L48.48,19.9a7.447,7.447,0,0,0-10.49.879L15.808,45.5V8.557A7.221,7.221,0,0,0,8.589,1.333H7.219A7.221,7.221,0,0,0,0,8.557V81.619a7.221,7.221,0,0,0,7.219,7.224h1.37a7.221,7.221,0,0,0,7.219-7.224V69.182L22.343,61.9,41.188,85.815A7.447,7.447,0,0,0,51.6,87.363l1.076-.849A7.459,7.459,0,0,0,53.6,76.02" transform="translate(-0.001 -1.333)"/>
          <path id="Fill-5" class="cls-1" d="M155.918,85.763a20.65,20.65,0,0,0,5.972-15.01,20.133,20.133,0,0,0-5.972-14.877,20.977,20.977,0,0,0-29.6,0,20.549,20.549,0,0,0-5.842,14.877,21.085,21.085,0,0,0,5.842,15.01,21.308,21.308,0,0,0,29.6,0M104.68,70.753A33.819,33.819,0,0,1,115.3,45.514a35.956,35.956,0,0,1,25.885-10.228,35.955,35.955,0,0,1,25.884,10.228,33.816,33.816,0,0,1,10.619,25.239,33.817,33.817,0,0,1-10.619,25.239,35.958,35.958,0,0,1-25.884,10.227A35.958,35.958,0,0,1,115.3,95.991,33.82,33.82,0,0,1,104.68,70.753" transform="translate(-52.545 -18.376)"/>
          <path id="Fill-7" class="cls-1" d="M293.369,45.637a35.6,35.6,0,0,0-23.058-10.106V50.074A19.3,19.3,0,0,1,282.219,56a20.133,20.133,0,0,1,5.973,14.877,20.651,20.651,0,0,1-5.973,15.01,21.308,21.308,0,0,1-29.6,0,22.807,22.807,0,0,1-2.531-3.234,37.6,37.6,0,0,1-7.767,14.094,37.834,37.834,0,0,0,51.049-.632,33.817,33.817,0,0,0,10.619-25.239,33.816,33.816,0,0,0-10.619-25.239" transform="translate(-121.635 -18.499)"/>
          <path id="Fill-9" class="cls-2" d="M265.217,35.478a35.633,35.633,0,0,0-22.9,9.5A37.6,37.6,0,0,1,250.1,59.114a21.409,21.409,0,0,1,2.52-3.142,19.357,19.357,0,0,1,12.6-6.007Z" transform="translate(-121.634 -18.472)"/>
        </g>
      </g>
      <g id="the.fintech.hub" transform="translate(0.641 116.502)">
        <path id="the" class="cls-2" d="M1.288,31.52V27.81H4.041V22.256H9.148V27.81h3.205V31.52H9.148V42.044a2.387,2.387,0,0,0,.308,1.526,3.364,3.364,0,0,0,1.883.3q.235,0,.5-.009t.516-.027v3.892l-2.445.091q-3.658.128-5-1.279a3.83,3.83,0,0,1-.869-2.759V31.52Zm25.255-4.4a8.362,8.362,0,0,1,3.323.639,5.82,5.82,0,0,1,2.454,1.955,5.218,5.218,0,0,1,1,2.293A28.485,28.485,0,0,1,33.5,35.85V47.544h-5.27V35.43a5.368,5.368,0,0,0-.543-2.595A2.722,2.722,0,0,0,25,31.446,3.676,3.676,0,0,0,21.9,32.826a6.354,6.354,0,0,0-1.059,3.937v10.78H15.7V20.7h5.143v9.519a6.349,6.349,0,0,1,2.6-2.421A7.29,7.29,0,0,1,26.543,27.116Zm19.551,4.275a3.49,3.49,0,0,0-2.78,1.133,5.681,5.681,0,0,0-1.241,3.07H50.1a4.554,4.554,0,0,0-1.241-3.134A3.833,3.833,0,0,0,46.094,31.392Zm0-4.294a10.267,10.267,0,0,1,4.437.932,7.8,7.8,0,0,1,3.26,2.942,10.092,10.092,0,0,1,1.5,4.111,26.785,26.785,0,0,1,.163,3.947H41.947q.109,3,1.865,4.2a4.365,4.365,0,0,0,2.572.749,3.681,3.681,0,0,0,2.59-.914,4.339,4.339,0,0,0,.96-1.37H55.2a6.628,6.628,0,0,1-1.829,3.6,8.922,8.922,0,0,1-7.1,2.905,9.957,9.957,0,0,1-6.646-2.448Q36.75,43.3,36.75,37.787q0-5.171,2.6-7.93A8.846,8.846,0,0,1,46.094,27.1Z" transform="translate(-1.288 -20.077)"/>
        <path id="fintech" class="cls-2" d="M126.981,29.4V27.53h2.93V24.461a6.378,6.378,0,0,1,.927-3.667,3.551,3.551,0,0,1,3.152-1.347q.519,0,.964.037t.89.112v2.058a5.516,5.516,0,0,0-1.335-.187,2.407,2.407,0,0,0-1.335.318,1.861,1.861,0,0,0-.7.842,3.829,3.829,0,0,0-.278,1.179q-.056.655-.056,1.328V27.53h3.635V29.4h-3.635V46.913h-2.225V29.4ZM140.3,46.913V27.53h2.225V46.913ZM142.632,23.3h-2.448v-3.33h2.448Zm7.3,23.612h-2.225V27.53h2.225v2.694a14.163,14.163,0,0,1,2.763-2.32,6.313,6.313,0,0,1,3.431-.9,8.691,8.691,0,0,1,3.3.617,5.644,5.644,0,0,1,2.559,2.152,4.851,4.851,0,0,1,.835,2.152,19.7,19.7,0,0,1,.13,2.3V46.913h-2.225V34.265a5.81,5.81,0,0,0-1.15-3.929,4.857,4.857,0,0,0-3.82-1.31,5.378,5.378,0,0,0-1.891.318,5.936,5.936,0,0,0-1.539.842,5.626,5.626,0,0,0-1.91,2.619,7.19,7.19,0,0,0-.408,1.8q-.074.861-.074,1.871Zm25.138.075q-.408.075-1.076.262a5.491,5.491,0,0,1-1.484.187,3.516,3.516,0,0,1-2.541-.842,4.124,4.124,0,0,1-.872-3.012V29.4h-2.707V27.53H169.1V22.141h2.225V27.53h3.6V29.4h-3.6V42.685q0,.711.037,1.235a2.085,2.085,0,0,0,.223.861,1.066,1.066,0,0,0,.575.486,3.161,3.161,0,0,0,1.094.15,5.7,5.7,0,0,0,.909-.075q.464-.075.909-.187ZM192.53,35.874a8.97,8.97,0,0,0-.389-2.676,6.27,6.27,0,0,0-1.15-2.17,5.478,5.478,0,0,0-1.91-1.459,6.1,6.1,0,0,0-2.633-.543,5.81,5.81,0,0,0-2.615.561,6.019,6.019,0,0,0-1.929,1.5,7.543,7.543,0,0,0-1.28,2.17,10.138,10.138,0,0,0-.63,2.619Zm-12.536,1.871a10.606,10.606,0,0,0,.408,2.975,7.211,7.211,0,0,0,1.205,2.432,5.847,5.847,0,0,0,2.021,1.646,6.176,6.176,0,0,0,2.819.617,6.1,6.1,0,0,0,3.746-1.16,5.592,5.592,0,0,0,2.077-3.293h2.485a12.145,12.145,0,0,1-1.076,2.563,7.9,7.9,0,0,1-1.669,2.058,7.2,7.2,0,0,1-2.374,1.366,9.537,9.537,0,0,1-3.19.486,9.242,9.242,0,0,1-3.968-.786,7.494,7.494,0,0,1-2.745-2.152,9.111,9.111,0,0,1-1.595-3.218,14.712,14.712,0,0,1-.519-3.985,12.8,12.8,0,0,1,.612-4,10.224,10.224,0,0,1,1.743-3.274,8.113,8.113,0,0,1,2.763-2.208,8.278,8.278,0,0,1,3.709-.8,7.63,7.63,0,0,1,6.231,2.75q2.262,2.75,2.225,7.989Zm32.853-4.116a6.529,6.529,0,0,0-2.04-3.386,5.51,5.51,0,0,0-3.672-1.216,5.736,5.736,0,0,0-2.93.711,5.952,5.952,0,0,0-2,1.89,8.554,8.554,0,0,0-1.15,2.657,12.18,12.18,0,0,0-.371,2.975,12.711,12.711,0,0,0,.352,2.994,8.039,8.039,0,0,0,1.131,2.619,5.844,5.844,0,0,0,2,1.852,5.94,5.94,0,0,0,2.967.692,5.651,5.651,0,0,0,3.987-1.385,6.458,6.458,0,0,0,1.91-3.817h2.374a11.344,11.344,0,0,1-.946,2.937,7.748,7.748,0,0,1-1.669,2.283,7.161,7.161,0,0,1-2.429,1.478,10.317,10.317,0,0,1-7.2-.262,7.493,7.493,0,0,1-2.745-2.152,9.1,9.1,0,0,1-1.595-3.237,14.916,14.916,0,0,1-.519-4,12.991,12.991,0,0,1,.575-3.873,10.129,10.129,0,0,1,1.688-3.274,8.042,8.042,0,0,1,6.565-3.106,8.514,8.514,0,0,1,5.4,1.609,7.489,7.489,0,0,1,2.578,5.014Zm7,13.284V19.971h2.225V30.224a14.163,14.163,0,0,1,2.763-2.32,6.313,6.313,0,0,1,3.431-.9,8.691,8.691,0,0,1,3.3.617,5.644,5.644,0,0,1,2.559,2.152,4.852,4.852,0,0,1,.835,2.152,19.711,19.711,0,0,1,.13,2.3V46.913h-2.225V34.265a5.81,5.81,0,0,0-1.15-3.929,4.857,4.857,0,0,0-3.82-1.31,5.378,5.378,0,0,0-1.891.318,5.936,5.936,0,0,0-1.539.842,5.626,5.626,0,0,0-1.91,2.619,7.19,7.19,0,0,0-.408,1.8q-.074.861-.074,1.871v10.44Z" transform="translate(-64.381 -19.447)"/>
        <path id="hub" class="cls-2" d="M378.371,27.061a8.362,8.362,0,0,1,3.323.639,5.82,5.82,0,0,1,2.454,1.955,5.217,5.217,0,0,1,1,2.293,28.479,28.479,0,0,1,.181,3.846V47.488h-5.27V35.374a5.368,5.368,0,0,0-.543-2.595,2.722,2.722,0,0,0-2.68-1.389,3.676,3.676,0,0,0-3.106,1.379,6.354,6.354,0,0,0-1.059,3.937v10.78h-5.143V20.648h5.143v9.519a6.349,6.349,0,0,1,2.6-2.421A7.29,7.29,0,0,1,378.371,27.061Zm16.907.512v12a6.335,6.335,0,0,0,.4,2.558,2.753,2.753,0,0,0,2.771,1.517,3.618,3.618,0,0,0,3.622-2.156,7.867,7.867,0,0,0,.507-3.088V27.573h5.234V47.488h-5.016V44.674q-.072.091-.362.548a3.658,3.658,0,0,1-.688.8,7.178,7.178,0,0,1-2.345,1.5,7.928,7.928,0,0,1-2.653.4q-4.383,0-5.9-3.179a12.261,12.261,0,0,1-.851-5.171v-12Zm28.171-.439a7.286,7.286,0,0,1,6.094,2.832,11.568,11.568,0,0,1,2.2,7.309,12.933,12.933,0,0,1-2.173,7.692,7.812,7.812,0,0,1-10,2.065,7.889,7.889,0,0,1-1.92-2.046v2.5H412.6v-26.9h5.143v9.574a7.56,7.56,0,0,1,2.155-2.119A6.357,6.357,0,0,1,423.449,27.134Zm-1.322,16.59a3.534,3.534,0,0,0,3.1-1.626,7.475,7.475,0,0,0,1.1-4.275,9.716,9.716,0,0,0-.543-3.508,3.785,3.785,0,0,0-3.8-2.631,3.84,3.84,0,0,0-3.857,2.576,9.748,9.748,0,0,0-.543,3.545,7.475,7.475,0,0,0,1.123,4.239A3.834,3.834,0,0,0,422.127,43.724Z" transform="translate(-185.123 -20.022)"/>
      </g>
    </g>
  </g>
</svg>
