<svg xmlns="http://www.w3.org/2000/svg" viewBox="0 0 32.316 32.316"><defs><style>.a{fill:#fff;}</style></defs><g transform="translate(-255.893 -2185)"><path class="a" d="M29.932,0H2.39A2.352,2.352,0,0,0,0,2.315V30A2.353,2.353,0,0,0,2.39,32.316H29.932A2.352,2.352,0,0,0,32.318,30V2.315A2.351,2.351,0,0,0,29.932,0ZM9.8,27.051H4.917V12.461H9.8ZM7.358,10.467H7.326a2.529,2.529,0,1,1,.064-5.041,2.53,2.53,0,1,1-.031,5.041ZM27.4,27.051H22.519V19.245c0-1.962-.707-3.3-2.472-3.3a2.667,2.667,0,0,0-2.5,1.775A3.261,3.261,0,0,0,17.38,18.9v8.15H12.5s.064-13.222,0-14.59H17.38v2.069a4.847,4.847,0,0,1,4.4-2.412c3.213,0,5.622,2.084,5.622,6.568v8.366ZM17.349,14.575c.008-.014.02-.03.032-.046v.046Z" transform="translate(255.891 2185)"/></g></svg>