<svg xmlns="http://www.w3.org/2000/svg" viewBox="0 0 29.952 29.952">
  <defs>
    <style>
      .cls-1 {
        fill: #fff;
      }
    </style>
  </defs>
  <path id="linkedin_icon" class="cls-1" d="M27.742,0H2.215A2.18,2.18,0,0,0,0,2.146V27.805a2.181,2.181,0,0,0,2.213,2.147H27.742a2.18,2.18,0,0,0,2.212-2.147V2.146A2.179,2.179,0,0,0,27.742,0ZM9.083,25.072H4.557V11.549H9.083ZM6.82,9.7H6.79a2.344,2.344,0,1,1,.059-4.673A2.345,2.345,0,1,1,6.82,9.7ZM25.4,25.072H20.872V17.837c0-1.818-.655-3.059-2.292-3.059a2.472,2.472,0,0,0-2.321,1.645,3.022,3.022,0,0,0-.151,1.1v7.553H11.585s.059-12.255,0-13.523h4.524v1.917a4.492,4.492,0,0,1,4.076-2.235c2.978,0,5.21,1.932,5.21,6.087v7.754ZM16.08,13.509c.008-.013.019-.028.029-.043v.043Z" transform="translate(-0.002)"/>
</svg>
