<svg xmlns="http://www.w3.org/2000/svg" viewBox="0 0 15.353 20.15">
  <defs>
    <style>
      .cls-1 {
        fill: none;
      }

      .cls-2 {
        fill: #9f9f9f;
      }
    </style>
  </defs>
  <g id="location_icon" transform="translate(-24.4 -12.7)">
    <path id="Path_5565" data-name="Path 5565" class="cls-1" d="M28.4,23.177c0,4.678,5.008,9.685,6.477,11.065,1.469-1.379,6.477-6.447,6.477-11.065a6.477,6.477,0,1,0-12.954,0Zm10.135-.03a3.658,3.658,0,1,1-3.658-3.688A3.654,3.654,0,0,1,38.535,23.147Z" transform="translate(-2.801 -2.801)"/>
    <path id="Path_5566" data-name="Path 5566" class="cls-1" d="M41.8,32.459A2.459,2.459,0,1,0,44.259,30,2.47,2.47,0,0,0,41.8,32.459Z" transform="translate(-12.183 -12.112)"/>
    <path id="Path_5568" data-name="Path 5568" class="cls-2" d="M24.4,20.376c0,2.549,1.229,5.4,3.658,8.486A30.126,30.126,0,0,0,31.687,32.7a.582.582,0,0,0,.78,0,31.708,31.708,0,0,0,3.628-3.868c2.429-3.089,3.658-5.937,3.658-8.456a7.676,7.676,0,1,0-15.353,0Zm14.153,0c0,4.618-5.008,9.685-6.477,11.065C30.607,30.092,25.6,25.054,25.6,20.376a6.477,6.477,0,1,1,12.954,0Z" transform="translate(0)"/>
    <path id="Path_5569" data-name="Path 5569" class="cls-2" d="M37.8,29.588A3.658,3.658,0,1,0,41.458,25.9,3.654,3.654,0,0,0,37.8,29.588Zm6.117,0a2.459,2.459,0,1,1-2.459-2.459A2.47,2.47,0,0,1,43.917,29.588Z" transform="translate(-9.382 -9.242)"/>
  </g>
</svg>
