<?xml version="1.0" encoding="UTF-8" standalone="no"?>
<!-- Created with Inkscape (http://www.inkscape.org/) -->

<svg
   xmlns:dc="http://purl.org/dc/elements/1.1/"
   xmlns:cc="http://creativecommons.org/ns#"
   xmlns:rdf="http://www.w3.org/1999/02/22-rdf-syntax-ns#"
   xmlns:svg="http://www.w3.org/2000/svg"
   xmlns="http://www.w3.org/2000/svg"
   xmlns:sodipodi="http://sodipodi.sourceforge.net/DTD/sodipodi-0.dtd"
   xmlns:inkscape="http://www.inkscape.org/namespaces/inkscape"
   width="65.276917mm"
   height="35.53751mm"
   viewBox="0 0 65.276917 35.53751"
   version="1.1"
   id="svg8"
   inkscape:version="0.92.3 (2405546, 2018-03-11)"
   sodipodi:docname="logo.svg">
  <defs
     id="defs2">
    <style
       id="style3795">
            .cls-1{fill:#fff}.cls-2{fill:#e6ebf0}.cls-3{fill:#1474d1}.cls-4{filter:url(#Path_5)}
        </style>
    <filter
       filterUnits="userSpaceOnUse"
       y="0"
       x="0"
       height="134.315"
       width="122.331"
       id="Path_5">
      <feOffset
         id="feOffset3797" />
      <feGaussianBlur
         id="feGaussianBlur3799"
         stdDeviation="10"
         result="blur" />
      <feFlood
         id="feFlood3801"
         flood-opacity=".161" />
      <feComposite
         result="result1"
         id="feComposite3803"
         operator="in"
         in2="blur" />
      <feComposite
         id="feComposite3805"
         in2="result1"
         in="SourceGraphic" />
    </filter>
  </defs>
  <sodipodi:namedview
     id="base"
     pagecolor="#ffffff"
     bordercolor="#666666"
     borderopacity="1.0"
     inkscape:pageopacity="0.0"
     inkscape:pageshadow="2"
     inkscape:zoom="1.979899"
     inkscape:cx="134.78654"
     inkscape:cy="67.157507"
     inkscape:document-units="mm"
     inkscape:current-layer="layer1"
     showgrid="false"
     inkscape:window-width="1920"
     inkscape:window-height="1017"
     inkscape:window-x="-8"
     inkscape:window-y="-8"
     inkscape:window-maximized="1" />
  <metadata
     id="metadata5">
    <rdf:RDF>
      <cc:Work
         rdf:about="">
        <dc:format>image/svg+xml</dc:format>
        <dc:type
           rdf:resource="http://purl.org/dc/dcmitype/StillImage" />
        <dc:title></dc:title>
      </cc:Work>
    </rdf:RDF>
  </metadata>
  <g
     inkscape:label="Layer 1"
     inkscape:groupmode="layer"
     id="layer1"
     transform="translate(-70.171061,-131.06458)">
    <g
       transform="matrix(0.26458333,0,0,0.26458333,100.95295,137.86199)"
       id="LOGO">
      <g
         transform="translate(-2.893,24.81)"
         id="kimlic_text_logo">
        <path
           transform="translate(-246.5,-368.064)"
           data-name="Path 13"
           class="cls-1"
           d="m 246.5,372.193 a 0.118,0.118 0 0 1 0.032,-0.1 c 0.768,-1.952 2.5,-2.336 4.545,-2.208 2.112,0.128 3.137,0.992 3.169,2.881 0.064,2.816 0.032,5.665 0.032,8.481 v 0.48 c 0.512,0.16 0.512,0.16 1.024,0.352 q 5.041,-5.329 10.082,-10.594 c 1.472,-1.568 5.793,-2.272 7.681,-1.152 a 1.94,1.94 0 0 1 0.7,1.76 4.081,4.081 0 0 1 -1.216,1.792 c -3.585,3.649 -7.2,7.233 -10.914,10.946 a 0.291,0.291 0 0 0 0,0.384 q 4.9,5.377 9.794,10.69 a 29.618,29.618 0 0 1 2.624,3.073 c 1.088,1.6 0.384,2.656 -1.664,2.816 -3.169,0.288 -5.7,-0.32 -7.713,-2.913 -3.009,-3.841 -6.4,-7.425 -9.826,-11.33 a 0.3,0.3 0 0 0 -0.512,0.128 6.6,6.6 0 0 0 -0.064,0.672 v 9.634 c 0,2.464 -0.576,3.393 -2.3,3.713 -2.689,0.512 -4.353,-0.128 -5.409,-2.176 a 0.192,0.192 0 0 1 -0.032,-0.128 v -27.2 z"
           id="Path_13"
           inkscape:connector-curvature="0"
           style="fill:#ffffff" />
        <path
           transform="translate(-472.683,-380.127)"
           data-name="Path 14"
           class="cls-1"
           d="m 592.576,413.733 a 32.211,32.211 0 0 1 -3.585,-0.608 c -5.537,-1.536 -8.609,-5.025 -9.6,-10.114 a 12.514,12.514 0 0 1 7.553,-14.114 16.694,16.694 0 0 1 14.691,0.7 13.3,13.3 0 0 1 3.425,3.137 c 0.9,1.024 1.376,2.24 0.16,3.393 -1.056,0.992 -3.681,1.024 -4.9,0.16 a 6.852,6.852 0 0 1 -1.024,-0.9 7.544,7.544 0 0 0 -7.841,-1.952 6.339,6.339 0 0 0 -4.737,5.633 11.234,11.234 0 0 0 0.288,4.257 5.979,5.979 0 0 0 4.9,4.641 c 2.721,0.544 5.249,0.1 7.105,-1.92 a 4.467,4.467 0 0 1 4.929,-1.44 c 1.728,0.512 2.336,1.632 1.536,3.137 -1.92,3.649 -5.409,5.249 -9.634,5.793 -0.576,0.064 -1.152,0.16 -1.76,0.224 -0.382,-0.027 -1.09,-0.027 -1.506,-0.027 z"
           id="Path_14"
           inkscape:connector-curvature="0"
           style="fill:#ffffff" />
        <path
           transform="translate(-331.463,-381.478)"
           data-name="Path 15"
           class="cls-1"
           d="m 378.927,393.416 c 5.537,-5.665 12.9,-5.089 16.451,1.28 0.16,-0.128 0.352,-0.192 0.416,-0.352 2.624,-4.417 8.577,-5.569 13.346,-4.225 a 7.035,7.035 0 0 1 5.185,5.377 24.82,24.82 0 0 1 0.768,5.537 c 0.128,3.649 0.064,7.3 0.032,10.946 -0.032,2.432 -1.024,3.265 -3.713,3.265 -2.656,0 -3.713,-0.9 -3.713,-3.265 -0.032,-3.3 0,-6.625 -0.032,-9.922 a 15.65,15.65 0 0 0 -0.256,-2.721 c -0.576,-3.008 -2.112,-4.193 -5.249,-4.1 -3.009,0.1 -4.8,1.472 -5.025,4.385 -0.256,3.681 -0.192,7.393 -0.288,11.074 v 1.28 c -0.064,2.432 -0.992,3.265 -3.713,3.233 -2.656,0 -3.681,-0.9 -3.713,-3.3 -0.032,-3.3 0,-6.625 -0.032,-9.922 a 16.833,16.833 0 0 0 -0.256,-2.848 c -0.48,-2.753 -1.792,-3.873 -4.513,-3.937 -2.944,-0.1 -4.8,1.088 -5.345,3.745 a 27.761,27.761 0 0 0 -0.416,5.153 c -0.064,2.624 0,5.281 -0.032,7.905 -0.032,2.368 -1.056,3.233 -3.777,3.2 -2.592,0 -3.585,-0.864 -3.585,-3.2 -0.032,-6.145 0,-12.29 0,-18.435 0,-2.625 0.768,-3.425 3.2,-3.521 3.108,-0.089 3.972,0.552 4.26,3.368 z"
           id="Path_15"
           inkscape:connector-curvature="0"
           style="fill:#ffffff" />
        <path
           transform="translate(-430,-364.4)"
           data-name="Path 16"
           class="cls-1"
           d="m 516.383,380.947 v -13.218 c 0,-2.464 1.024,-3.329 3.809,-3.329 2.593,0.032 3.585,0.928 3.585,3.361 v 26.725 c 0,1.216 -0.128,2.4 -1.5,2.945 a 4.9,4.9 0 0 1 -4.7,-0.224 3.335,3.335 0 0 1 -1.152,-2.464 c -0.074,-4.579 -0.042,-9.187 -0.042,-13.796 z"
           id="Path_16"
           inkscape:connector-curvature="0"
           style="fill:#ffffff" />
        <g
           transform="translate(28.827,1.632)"
           data-name="Group 2"
           id="Group_2">
          <path
             transform="translate(-336.567,-369.5)"
             data-name="Path 17"
             class="cls-1"
             d="m 341.346,369.532 c 1.472,0.448 2.944,0.832 3.489,2.368 a 3.236,3.236 0 0 1 -2.4,4.225 c -2.528,0.7 -5.025,-0.192 -5.665,-2.112 -0.672,-2.016 0.352,-3.585 2.72,-4.257 a 4.177,4.177 0 0 0 0.544,-0.256 c 0.48,0.032 0.896,0.032 1.312,0.032 z"
             id="Path_17"
             inkscape:connector-curvature="0"
             style="fill:#ffffff" />
          <path
             transform="translate(-337.672,-389.966)"
             data-name="Path 18"
             class="cls-1"
             d="m 338.227,410.77 c 0,-2.785 -0.032,-5.537 0,-8.322 0.032,-2.08 1.088,-2.849 3.777,-2.849 2.464,0 3.585,0.864 3.585,2.913 0.032,5.537 0,11.074 0,16.643 0,1.056 -0.16,2.3 -1.6,2.528 a 11.576,11.576 0 0 1 -4.577,-0.192 c -0.64,-0.16 -1.12,-1.408 -1.152,-2.144 -0.129,-2.88 -0.033,-5.729 -0.033,-8.577 z"
             id="Path_18"
             inkscape:connector-curvature="0"
             style="fill:#ffffff" />
        </g>
        <g
           transform="translate(96.358,1.632)"
           data-name="Group 3"
           id="Group_3">
          <path
             transform="translate(-547.567,-369.5)"
             data-name="Path 19"
             class="cls-1"
             d="m 552.347,369.532 c 1.472,0.448 2.945,0.832 3.489,2.368 a 3.236,3.236 0 0 1 -2.4,4.225 c -2.528,0.7 -5.025,-0.192 -5.665,-2.112 -0.672,-2.016 0.352,-3.585 2.721,-4.257 a 4.173,4.173 0 0 0 0.544,-0.256 c 0.478,0.032 0.895,0.032 1.311,0.032 z"
             id="Path_19"
             inkscape:connector-curvature="0"
             style="fill:#ffffff" />
          <path
             transform="translate(-548.672,-389.966)"
             data-name="Path 20"
             class="cls-1"
             d="m 549.227,410.77 c 0,-2.785 -0.032,-5.537 0,-8.322 0.032,-2.08 1.088,-2.849 3.777,-2.849 2.464,0 3.585,0.864 3.585,2.913 0.032,5.537 0,11.074 0,16.643 0,1.056 -0.16,2.3 -1.6,2.528 a 11.575,11.575 0 0 1 -4.577,-0.192 c -0.64,-0.16 -1.12,-1.408 -1.152,-2.144 -0.129,-2.88 -0.033,-5.729 -0.033,-8.577 z"
             id="Path_20"
             inkscape:connector-curvature="0"
             style="fill:#ffffff" />
        </g>
      </g>
      <g
         transform="translate(-86.341,4.309)"
         id="kimlic_shield_logo">
        <g
           id="g3822"
           transform="translate(-30,-30)"
           class="cls-4"
           style="filter:url(#Path_5)">
          <path
             transform="translate(-147.59,-95.2)"
             data-name="Path 5"
             class="cls-1"
             d="m 239.9,163.732 a 152.205,152.205 0 0 1 -0.072,-4.088 h 0.036 V 149.4 c 0,-3.365 0,-6.8 0.036,-10.2 a 7.875,7.875 0 0 0 -6.3,-8.141 1133.37,1133.37 0 0 1 -11.686,-2.894 l -1.7,-0.434 c -2.894,-0.724 -5.9,-1.483 -8.828,-2.207 a 10.582,10.582 0 0 0 -5.21,0 c -3.256,0.8 -6.476,1.592 -9.479,2.352 -3.727,0.941 -8.358,2.1 -12.772,3.148 a 7.956,7.956 0 0 0 -6.332,8.213 l 0.036,3.654 c 0.036,7.019 0.072,14.255 -0.036,21.383 a 29.427,29.427 0 0 0 6.983,19.646 c 5.1,6.187 11.723,10.927 20.84,14.906 a 8.557,8.557 0 0 0 3.329,0.687 9.433,9.433 0 0 0 3.473,-0.687 56.058,56.058 0 0 0 18.814,-12.663 c 6.187,-6.547 9.19,-14.109 8.868,-22.431 z"
             id="Path_5-2"
             inkscape:connector-curvature="0"
             style="fill:#ffffff" />
        </g>
        <path
           transform="translate(-232.672,-125.2)"
           data-name="Path 6"
           class="cls-2"
           d="m 294.979,163.732 a 152.205,152.205 0 0 1 -0.072,-4.088 h 0.036 V 149.4 c 0,-3.365 0,-6.8 0.036,-10.2 a 7.875,7.875 0 0 0 -6.3,-8.141 1133.37,1133.37 0 0 1 -11.686,-2.894 l -1.7,-0.434 c -2.894,-0.724 -5.9,-1.483 -8.828,-2.207 a 10.2,10.2 0 0 0 -2.569,-0.326 v 74.279 a 8.877,8.877 0 0 0 3.365,-0.687 56.057,56.057 0 0 0 18.814,-12.663 c 6.225,-6.511 9.225,-14.073 8.904,-22.395 z"
           id="Path_6"
           inkscape:connector-curvature="0"
           style="fill:#e6ebf0" />
        <g
           transform="translate(11.69,12.084)"
           data-name="Group 1"
           id="Group_1">
          <path
             transform="translate(-209.9,-181.511)"
             data-name="Path 7"
             class="cls-3"
             d="m 224.77,194.5 a 21.2,21.2 0 0 1 20.84,17.8 29.131,29.131 0 0 1 0.253,4.342 3.209,3.209 0 0 1 -0.434,1.52 c -0.4,0.76 -0.9,1.447 -1.375,2.171 -0.253,0.362 -0.543,0.615 -1.013,0.434 -0.47,-0.181 -0.543,-0.579 -0.507,-1.049 a 27.035,27.035 0 0 0 -0.326,-8.358 17.94,17.94 0 0 0 -14.833,-13.46 17.55,17.55 0 0 0 -15.847,5.68 c -0.29,0.289 -0.543,0.579 -1.013,0.47 a 0.74,0.74 0 0 1 -0.615,-0.76 8.786,8.786 0 0 1 0.253,-2.207 3.542,3.542 0 0 1 1.013,-1.592 20.618,20.618 0 0 1 11.834,-4.919 c 0.54,-0.036 1.155,-0.036 1.77,-0.072 z"
             id="Path_7"
             inkscape:connector-curvature="0"
             style="fill:#1474d1" />
          <path
             transform="translate(-211.357,-193.047)"
             data-name="Path 8"
             class="cls-3"
             d="m 240.952,228.5 c -0.326,2.424 -0.615,4.848 -0.977,7.236 -0.217,1.628 -1.411,2.388 -2.822,2.858 a 0.772,0.772 0 0 1 -0.941,-0.977 c 0.253,-1.158 0.579,-2.352 0.8,-3.51 a 30.77,30.77 0 0 0 0.47,-8.358 11.426,11.426 0 0 0 -22.613,-0.362 c -0.072,0.362 -0.072,0.724 -0.145,1.049 a 0.774,0.774 0 0 1 -0.687,0.724 0.719,0.719 0 0 1 -0.832,-0.47 23.343,23.343 0 0 1 -0.977,-3.075 2.726,2.726 0 0 1 0.217,-1.592 c 2.279,-5.463 6.332,-8.756 12.265,-9.371 a 14.54,14.54 0 0 1 15.847,11.94 c 0.072,0.326 0.109,0.651 0.145,0.941 0.072,0.977 0.109,1.954 0.145,2.931 a 0.133,0.133 0 0 0 0.105,0.036 z"
             id="Path_8"
             inkscape:connector-curvature="0"
             style="fill:#1474d1" />
          <path
             transform="translate(-214.339,-169.96)"
             data-name="Path 9"
             class="cls-3"
             d="m 229.173,176.4 c 9.66,0.289 17.33,4.305 22.939,12.229 a 6.268,6.268 0 0 1 1.194,3.727 v 1.99 a 0.809,0.809 0 0 1 -0.651,0.9 c -0.47,0.109 -0.76,-0.181 -0.941,-0.579 a 27.254,27.254 0 0 0 -1.375,-2.714 24.126,24.126 0 0 0 -17.765,-12.012 23.64,23.64 0 0 0 -14.147,2.243 c -0.109,0.072 -0.253,0.109 -0.362,0.181 a 0.731,0.731 0 0 1 -0.977,-0.145 0.766,0.766 0 0 1 -0.109,-0.977 6.188,6.188 0 0 1 3.835,-3.473 27.887,27.887 0 0 1 8.359,-1.37 z"
             id="Path_9"
             inkscape:connector-curvature="0"
             style="fill:#1474d1" />
          <path
             transform="translate(-220.36,-204.474)"
             data-name="Path 10"
             class="cls-3"
             d="m 243.334,240 a 34.078,34.078 0 0 1 -1.845,9.913 c -0.434,1.23 -0.832,1.484 -2.1,1.447 a 3.933,3.933 0 0 1 -0.651,-0.036 0.82,0.82 0 0 1 -0.8,-1.23 28.736,28.736 0 0 0 2.135,-11.4 4.9025,4.9025 0 1 0 -9.805,0 19.1,19.1 0 0 1 -1.122,6.983 c -0.4,1.013 -0.941,1.122 -1.7,0.362 l -0.687,-0.687 a 1.539,1.539 0 0 1 -0.4,-1.592 18.106,18.106 0 0 0 0.651,-5.029 8.125,8.125 0 0 1 16.173,-1.23 c 0.117,0.838 0.117,1.67 0.151,2.499 z"
             id="Path_10"
             inkscape:connector-curvature="0"
             style="fill:#1474d1" />
          <path
             transform="translate(-228.509,-158.6)"
             data-name="Path 11"
             class="cls-3"
             d="m 245.406,158.636 a 33.737,33.737 0 0 1 11.686,2.822 14.355,14.355 0 0 1 6.006,5.463 0.748,0.748 0 0 1 -0.109,1.049 0.841,0.841 0 0 1 -1.158,-0.036 29.743,29.743 0 0 0 -7.887,-4.269 30.932,30.932 0 0 0 -13.821,-1.737 0.9,0.9 0 0 1 -0.977,-0.47 0.681,0.681 0 0 1 0.253,-0.941 11.828,11.828 0 0 1 5.68,-1.918 1,1 0 0 0 0.327,0.037 z"
             id="Path_11"
             inkscape:connector-curvature="0"
             style="fill:#1474d1" />
          <path
             transform="translate(-229.508,-216.035)"
             data-name="Path 12"
             class="cls-3"
             d="m 245.934,251.637 a 24.246,24.246 0 0 1 -2.135,9.3 c -0.4,0.832 -0.687,0.941 -1.556,0.579 -0.4,-0.181 -0.76,-0.362 -1.158,-0.543 a 0.773,0.773 0 0 1 -0.362,-1.085 21.4,21.4 0 0 0 1.954,-9.588 1.577,1.577 0 0 1 1.628,-1.7 1.6,1.6 0 0 1 1.592,1.737 c 0.037,0.431 0.037,0.863 0.037,1.3 z"
             id="Path_12"
             inkscape:connector-curvature="0"
             style="fill:#1474d1" />
        </g>
      </g>
    </g>
  </g>
</svg>
