<svg xmlns="http://www.w3.org/2000/svg" xmlns:xlink="http://www.w3.org/1999/xlink" viewBox="0 0 1048 300">
  <defs>
    <style>
      .cls-1, .cls-2, .cls-4, .cls-6, .cls-8 {
        fill: #fff;
      }

      .cls-1 {
        font-size: 64px;
      }

      .cls-1, .cls-9 {
        font-family: Muli-ExtraBold, Muli;
        font-weight: 800;
      }

      .cls-1, .cls-2, .cls-8, .cls-9 {
        letter-spacing: -0.05em;
      }

      .cls-2 {
        font-size: 32px;
      }

      .cls-2, .cls-6, .cls-8 {
        font-family: Muli-SemiBold, Muli;
        font-weight: 600;
      }

      .cls-3 {
        fill: url(#linear-gradient);
      }

      .cls-5 {
        fill: #ffba4f;
      }

      .cls-6 {
        font-size: 18px;
        letter-spacing: -0.025em;
      }

      .cls-7 {
        fill: #ff902c;
        stroke: #fff;
        stroke-width: 5px;
      }

      .cls-8 {
        font-size: 54px;
      }

      .cls-9 {
        fill: #0069d5;
        font-size: 48px;
      }

      .cls-10 {
        font-size: 28px;
      }

      .cls-11 {
        stroke: none;
      }

      .cls-12 {
        fill: none;
      }

      .cls-13 {
        filter: url(#white_border_bar);
      }

      .cls-14 {
        filter: url(#_5.7_B_);
      }
    </style>
    <filter id="_5.7_B_" x="383" y="164" width="226" height="94" filterUnits="userSpaceOnUse">
      <feOffset dy="3" input="SourceAlpha"/>
      <feGaussianBlur stdDeviation="3" result="blur"/>
      <feFlood flood-opacity="0.161"/>
      <feComposite operator="in" in2="blur"/>
      <feComposite in="SourceGraphic"/>
    </filter>
    <linearGradient id="linear-gradient" x1="0.5" y1="0.287" x2="0.5" y2="1" gradientUnits="objectBoundingBox">
      <stop offset="0" stop-color="#0071f4"/>
      <stop offset="0.571" stop-color="#0082f6"/>
      <stop offset="1" stop-color="#00a2fa"/>
    </linearGradient>
    <filter id="white_border_bar" x="0" y="104" width="1016" height="38" filterUnits="userSpaceOnUse">
      <feOffset dy="3" input="SourceAlpha"/>
      <feGaussianBlur stdDeviation="3" result="blur-2"/>
      <feFlood flood-opacity="0.161"/>
      <feComposite operator="in" in2="blur-2"/>
      <feComposite in="SourceGraphic"/>
    </filter>
  </defs>
  <g id="Group_1" data-name="Group 1" transform="translate(-268 -377)">
    <g class="cls-14" transform="matrix(1, 0, 0, 1, 268, 377)">
      <text id="_5.7_B_2" data-name="$ 5.7 B " class="cls-1" transform="translate(392 172)"><tspan x="0" y="51">$ 5.7 B </tspan></text>
    </g>
    <text id="Current_market_size_" data-name="Current market size
" class="cls-2" transform="translate(630 630)"><tspan x="0" y="26">Current market size</tspan></text>
    <path id="Blue_Graph" class="cls-3" d="M-3416.235,3594.25H-4393V3592c.747-.03,100.964-4.067,205.855-8.643,176.264-7.689,233.419-11.1,250.328-12.605,18.352-1.635,54.777-3.475,111.356-5.625,47.658-1.811,99.178-3.446,140.575-4.76l.134,0h.008c34.63-1.1,59.65-1.893,65.988-2.275a157.125,157.125,0,0,0,20.833-3.256c7.169-1.494,15.6-3.482,25.055-5.911,16.076-4.129,29.771-8.164,29.905-8.2,1.15-.187,115.11-18.691,126.728-18.787h.021c.075,0,.146,0,.215.008v70.821c-.144.934-.23,1.464-.235,1.491h0Z" transform="translate(4686.5 -3104)"/>
    <g class="cls-13" transform="matrix(1, 0, 0, 1, 268, 377)">
      <rect id="white_border_bar-2" data-name="white_border_bar" class="cls-4" width="998" height="20" rx="9" transform="translate(9 110)"/>
    </g>
    <rect id="yellow_bar" class="cls-5" width="987" height="10" rx="5" transform="translate(283 492)"/>
    <text id="Digital_Identity_Market_2015_Expected_Market_size_2022" data-name="Digital Identity Market 2015                                                                                                                          Expected Market size 2022" class="cls-6" transform="translate(285 522)"><tspan x="0" y="14" xml:space="preserve">Digital Identity Market 2015                                                                                                                          Expected Market size 2022</tspan></text>
    <g id="starting_point" class="cls-7" transform="translate(280 488)">
      <circle class="cls-11" cx="8.5" cy="8.5" r="8.5"/>
      <circle class="cls-12" cx="8.5" cy="8.5" r="11"/>
    </g>
    <g id="end_point" class="cls-7" transform="translate(1255 488)">
      <circle class="cls-11" cx="8.5" cy="8.5" r="8.5"/>
      <circle class="cls-12" cx="8.5" cy="8.5" r="11"/>
    </g>
    <text id="_4.6_B_" data-name="$ 4.6 B " class="cls-8" transform="translate(277 387)"><tspan x="0" y="43">$ 4.6 B </tspan></text>
    <text id="CAGR" class="cls-9" transform="translate(649 377)"><tspan x="29.909" y="38">+ 13,7 % </tspan><tspan class="cls-10"><tspan x="89.5" y="74">CAGR</tspan></tspan></text>
    <text id="_24_5_B_" data-name="$ 24,5 B " class="cls-8" transform="translate(1084 387)"><tspan x="0" y="43">$ 24,5 B </tspan></text>
  </g>
</svg>
