<svg xmlns="http://www.w3.org/2000/svg" viewBox="0 0 31.596 25.083">
  <defs>
    <style>
      .cls-1 {
        fill: #fff;
        fill-rule: evenodd;
      }
    </style>
  </defs>
  <path id="medium_icon" class="cls-1" d="M3.747,8.117a1.222,1.222,0,0,0-.4-1.032L.4,3.531V3h9.16l7.08,15.528L22.863,3H31.6v.531L29.073,5.949a.739.739,0,0,0-.28.708v17.77a.738.738,0,0,0,.28.707l2.463,2.418v.531H19.146v-.531L21.7,25.075c.25-.25.25-.324.25-.707V10.005l-7.095,18.02H13.9L5.635,10.005V22.083a1.667,1.667,0,0,0,.457,1.385L9.41,27.493v.532H0v-.532l3.319-4.026a1.6,1.6,0,0,0,.428-1.385V8.117Z" transform="translate(0 -3)"/>
</svg>
