<svg xmlns="http://www.w3.org/2000/svg" viewBox="0 0 22.692 18.015"><defs><style>.a{fill:#e2c7ff;fill-rule:evenodd;}</style></defs><path class="a" d="M2.691,6.675A.878.878,0,0,0,2.4,5.934L.286,3.381V3H6.865L11.95,14.152,16.421,3h6.272v.381L20.881,5.118a.531.531,0,0,0-.2.509V18.389a.53.53,0,0,0,.2.508l1.769,1.737v.381h-8.9v-.381l1.833-1.779c.18-.18.18-.233.18-.508V8.031l-5.1,12.942H9.98L4.047,8.031v8.674a1.2,1.2,0,0,0,.328.995l2.384,2.891v.382H0v-.382L2.384,17.7a1.152,1.152,0,0,0,.307-.995V6.675Z" transform="translate(0 -3)"/></svg>