<svg xmlns="http://www.w3.org/2000/svg" viewBox="0 0 151.932 124.24">
  <defs>
    <style>
      .cls-1 {
        fill: #fff4e7;
      }

      .cls-2 {
        fill: #83a263;
      }

      .cls-3 {
        fill: #6abe84;
      }

      .cls-4 {
        fill: #bedc8f;
      }

      .cls-5 {
        fill: #ffe2bf;
      }

      .cls-6 {
        fill: #e7ccad;
      }

      .cls-7 {
        fill: #c0aa90;
      }

      .cls-8 {
        fill: #feda48;
      }

      .cls-9 {
        fill: #e6e6e5;
      }

      .cls-10 {
        fill: #fee582;
      }

      .cls-11 {
        fill: #f3f3f3;
      }

      .cls-12 {
        fill: #4a4a4a;
        opacity: 0.383;
      }
    </style>
  </defs>
  <g id="money" transform="translate(-546.237 -1690.614)">
    <g id="money-2" data-name="money" transform="translate(546.237 1690.614)">
      <g id="Group_1427" data-name="Group 1427" transform="translate(0 0)">
        <g id="Group_1372" data-name="Group 1372" transform="translate(0 43.866) rotate(-8)">
          <g id="Group_1370" data-name="Group 1370" transform="translate(0 0)">
            <g id="Group_1367" data-name="Group 1367" transform="translate(0 0)">
              <path id="Path_4267" data-name="Path 4267" class="cls-1" d="M92.409,73.83,0,20.486,35.448,0l92.409,53.392Z"/>
              <path id="Path_4268" data-name="Path 4268" class="cls-2" d="M0,19.117,33.2,0l89.769,51.827-33.2,19.117Z" transform="translate(2.445 1.467)"/>
              <path id="Path_4269" data-name="Path 4269" class="cls-1" d="M108.3,49.969,86.493,62.535,0,12.615,21.807,0Z" transform="translate(9.632 5.574)"/>
              <path id="Path_4270" data-name="Path 4270" class="cls-2" d="M9.241,1.315,4.987,3.76,0,.875C2.347-.445,6.454-.25,9.241,1.315Z" transform="translate(91.138 64.349)"/>
              <path id="Path_4271" data-name="Path 4271" class="cls-2" d="M6.549,2.885,2.295,5.329C-.443,3.716-.785,1.369,1.561,0Z" transform="translate(111.383 52.659)"/>
              <path id="Path_4272" data-name="Path 4272" class="cls-2" d="M5.427,5.574,0,2.445,4.254,0a4.546,4.546,0,0,0,.489.244C7.481,1.809,7.774,4.2,5.427,5.574Z" transform="translate(9.583 15.744)"/>
              <path id="Path_4273" data-name="Path 4273" class="cls-2" d="M9.681,3.129C7.334,4.5,3.178,4.3.44,2.738L0,2.445,4.254,0Z" transform="translate(27.185 5.574)"/>
              <g id="Group_1355" data-name="Group 1355" transform="translate(26.744 15.927)">
                <path id="Path_4274" data-name="Path 4274" class="cls-2" d="M2.739,7.444C-.537,5.537-.928,2.7,1.858,1.088s7.725-1.418,11,.489,3.667,4.743.88,6.356S6.014,9.351,2.739,7.444Z" transform="translate(0 0)"/>
                <path id="Path_4275" data-name="Path 4275" class="cls-3" d="M10.678,6.172c-2.2,1.271-6.014,1.076-8.556-.391S-.714,2.114,1.437.843c2.2-1.271,6.014-1.076,8.556.391C12.585,2.7,12.878,4.9,10.678,6.172Z" transform="translate(1.742 1.027)"/>
              </g>
              <g id="Group_1356" data-name="Group 1356" transform="translate(80.625 47.023)">
                <path id="Path_4276" data-name="Path 4276" class="cls-2" d="M2.739,7.444C-.537,5.537-.928,2.7,1.858,1.088s7.725-1.418,11,.489,3.667,4.743.88,6.356C10.953,9.6,6.014,9.351,2.739,7.444Z" transform="translate(0 0)"/>
                <path id="Path_4277" data-name="Path 4277" class="cls-3" d="M10.678,6.172c-2.2,1.271-6.014,1.076-8.556-.391S-.714,2.114,1.437.843c2.2-1.271,6.014-1.076,8.556.391S12.878,4.9,10.678,6.172Z" transform="translate(1.742 1.027)"/>
              </g>
              <path id="Path_4278" data-name="Path 4278" class="cls-2" d="M25.015,14.447c-6.258,3.618-15.744,3.96-21.269.782C-1.73,12.051-1.143,6.575,5.115,2.957S20.859-1,26.384,2.175C31.86,5.353,31.274,10.829,25.015,14.447Z" transform="translate(48.717 28.139)"/>
              <path id="Path_4279" data-name="Path 4279" class="cls-1" d="M3.15,13.557C-1.592,10.819-.908,5.929,4.715,2.7S18.748-.916,23.49,1.822s4.058,7.627-1.565,10.854C16.352,15.9,7.942,16.295,3.15,13.557Z" transform="translate(50.437 29.176)"/>
              <path id="Path_4280" data-name="Path 4280" class="cls-2" d="M2.561,11.932C-1.449,9.585-.666,5.38,4.321,2.5S16.642-.829,20.651,1.469c4.009,2.347,3.227,6.552-1.76,9.437C13.9,13.839,6.57,14.279,2.561,11.932Z" transform="translate(52.2 30.116)"/>
              <path id="Path_4281" data-name="Path 4281" class="cls-2" d="M18.629,11.441,0,.685,1.125,0,19.753,10.757Z" transform="translate(34.666 10.512)"/>
              <path id="Path_4282" data-name="Path 4282" class="cls-2" d="M20.731,12.615,0,.685,1.125,0,21.856,11.979Z" transform="translate(85.515 40.337)"/>
              <path id="Path_4283" data-name="Path 4283" class="cls-2" d="M20.731,12.615,0,.636,1.125,0,21.855,11.93Z" transform="translate(70.163 49.236)"/>
              <path id="Path_4284" data-name="Path 4284" class="cls-2" d="M17.015,10.365,0,.538.929,0,17.944,9.828Z" transform="translate(86.2 42.489)"/>
              <path id="Path_4285" data-name="Path 4285" class="cls-2" d="M11.881,7.383,0,.489.929,0,12.81,6.845Z" transform="translate(91.774 42.244)"/>
              <path id="Path_4286" data-name="Path 4286" class="cls-2" d="M11.832,7.09,0,.244.44,0,12.272,6.845Z" transform="translate(66.251 48.6)"/>
              <path id="Path_4287" data-name="Path 4287" class="cls-2" d="M7.823,4.792,0,.244.44,0,8.263,4.547Z" transform="translate(67.229 50.165)"/>
              <path id="Path_4288" data-name="Path 4288" class="cls-2" d="M13.935,8.508,0,.44.733,0,14.717,8.067Z" transform="translate(20.095 20.144)"/>
              <path id="Path_4289" data-name="Path 4289" class="cls-2" d="M8.019,4.987,0,.391.587,0,8.605,4.645Z" transform="translate(24.3 21.367)"/>
              <path id="Path_4290" data-name="Path 4290" class="cls-2" d="M6.8,4.6,0,.636,1.125,0l6.8,3.912Z" transform="translate(33.199 11.392)"/>
              <g id="Group_1358" data-name="Group 1358" transform="translate(76.079 44.2)">
                <g id="Group_1357" data-name="Group 1357" transform="translate(0 0)">
                  <path id="Path_4291" data-name="Path 4291" class="cls-4" d="M8.312,1.222A7.049,7.049,0,0,1,6.21.538L7.138,0a4.379,4.379,0,0,0,3.423.391l.929.538L1.32,6.8,0,6.014Z"/>
                  <path id="Path_4292" data-name="Path 4292" class="cls-4" d="M6.423.685a5.125,5.125,0,0,1,5.281.1c1.858,1.076,1.76,2.151.2,3.08L6.668,6.894a5.213,5.213,0,0,1-5.329-.1C-.471,5.721-.373,4.645,1.192,3.716ZM2.414,4.5c-.929.538-1.027,1.125-.049,1.662A2.677,2.677,0,0,0,5.25,6.112l5.378-3.129c.929-.538,1.027-1.125.049-1.662a2.78,2.78,0,0,0-2.885.049Z" transform="translate(4.529 2.738)"/>
                  <path id="Path_4293" data-name="Path 4293" class="cls-4" d="M6.423.684a5.125,5.125,0,0,1,5.281.1c1.858,1.076,1.76,2.151.2,3.08L6.668,6.894a5.213,5.213,0,0,1-5.329-.1C-.471,5.721-.373,4.645,1.192,3.716ZM2.414,4.5c-.929.538-1.027,1.125-.049,1.662A2.677,2.677,0,0,0,5.25,6.112l5.378-3.129c.929-.538,1.027-1.125.049-1.662a2.78,2.78,0,0,0-2.885.049Z" transform="translate(11.178 6.601)"/>
                </g>
              </g>
              <g id="Group_1360" data-name="Group 1360" transform="translate(74.661 58.037)">
                <g id="Group_1359" data-name="Group 1359" transform="translate(0 0)">
                  <path id="Path_4294" data-name="Path 4294" class="cls-4" d="M5.232.782a5.984,5.984,0,0,1-1.32-.44L4.5,0A2.87,2.87,0,0,0,6.65.244l.587.342L.831,4.3,0,3.814Z"/>
                  <path id="Path_4295" data-name="Path 4295" class="cls-4" d="M4.132.434A3.246,3.246,0,0,1,7.456.483c1.173.685,1.125,1.369.1,1.956L4.229,4.346A3.335,3.335,0,0,1,.856,4.3C-.318,3.612-.22,2.928.758,2.341ZM1.638,2.879c-.587.342-.636.685-.049,1.076a1.835,1.835,0,0,0,1.809,0L6.772,2c.587-.342.636-.685.049-1.076a1.929,1.929,0,0,0-1.858,0Z" transform="translate(2.763 1.717)"/>
                  <path id="Path_4296" data-name="Path 4296" class="cls-4" d="M4.132.434A3.246,3.246,0,0,1,7.456.483c1.173.685,1.125,1.369.1,1.956L4.229,4.346A3.335,3.335,0,0,1,.856,4.3C-.318,3.612-.22,2.928.758,2.341ZM1.589,2.83C1,3.172.953,3.514,1.54,3.906a1.835,1.835,0,0,0,1.809,0L6.723,1.95c.587-.342.636-.684.049-1.076a1.929,1.929,0,0,0-1.858,0Z" transform="translate(6.967 4.162)"/>
                </g>
              </g>
              <g id="Group_1362" data-name="Group 1362" transform="translate(103.655 43.907)">
                <g id="Group_1361" data-name="Group 1361" transform="translate(0 0)">
                  <path id="Path_4297" data-name="Path 4297" class="cls-4" d="M4.254.636A4.575,4.575,0,0,1,3.178.293L3.667,0a2.1,2.1,0,0,0,1.76.2l.489.293L.684,3.52,0,3.129Z" transform="translate(0 0)"/>
                  <path id="Path_4298" data-name="Path 4298" class="cls-4" d="M3.282.342A2.741,2.741,0,0,1,6.02.391c.929.538.88,1.125.1,1.565L3.429,3.52A2.742,2.742,0,0,1,.691,3.471c-.929-.538-.88-1.125-.1-1.565ZM1.229,2.3c-.489.293-.538.587-.049.88a1.434,1.434,0,0,0,1.467,0L5.385,1.565c.489-.293.538-.587.049-.88a1.434,1.434,0,0,0-1.467,0Z" transform="translate(2.292 1.418)"/>
                  <path id="Path_4299" data-name="Path 4299" class="cls-4" d="M3.282.342A2.741,2.741,0,0,1,6.02.391c.929.538.88,1.125.1,1.565L3.429,3.52A2.741,2.741,0,0,1,.691,3.471c-.929-.538-.88-1.125-.1-1.565ZM1.229,2.3c-.489.293-.538.587-.049.88a1.433,1.433,0,0,0,1.467,0L5.385,1.565c.489-.293.538-.587.049-.88a1.434,1.434,0,0,0-1.467,0Z" transform="translate(5.714 3.423)"/>
                </g>
              </g>
              <g id="Group_1364" data-name="Group 1364" transform="translate(39.213 6.698)">
                <g id="Group_1363" data-name="Group 1363" transform="translate(0 0)">
                  <path id="Path_4300" data-name="Path 4300" class="cls-4" d="M4.254.636A4.573,4.573,0,0,1,3.178.293L3.667,0a2.1,2.1,0,0,0,1.76.2l.489.293L.685,3.52,0,3.129Z" transform="translate(0)"/>
                  <path id="Path_4301" data-name="Path 4301" class="cls-4" d="M3.282.342A2.741,2.741,0,0,1,6.02.391c.929.538.88,1.125.1,1.565L3.429,3.52A2.741,2.741,0,0,1,.691,3.471c-.929-.538-.88-1.125-.1-1.565ZM1.229,2.3c-.489.293-.538.587-.049.88a1.434,1.434,0,0,0,1.467,0L5.385,1.565c.489-.293.538-.587.049-.88a1.434,1.434,0,0,0-1.467,0Z" transform="translate(2.292 1.418)"/>
                  <path id="Path_4302" data-name="Path 4302" class="cls-4" d="M3.282.342A2.741,2.741,0,0,1,6.02.391c.929.538.88,1.125.1,1.565L3.429,3.52A2.742,2.742,0,0,1,.691,3.471c-.929-.538-.88-1.125-.1-1.565ZM1.229,2.3c-.489.293-.538.587-.049.88a1.434,1.434,0,0,0,1.467,0L5.385,1.565c.489-.293.538-.587.049-.88a1.434,1.434,0,0,0-1.467,0Z" transform="translate(5.714 3.423)"/>
                </g>
              </g>
              <g id="Group_1366" data-name="Group 1366" transform="translate(12.81 22.296)">
                <g id="Group_1365" data-name="Group 1365" transform="translate(0 0)">
                  <path id="Path_4303" data-name="Path 4303" class="cls-4" d="M5.232.782a6.974,6.974,0,0,1-1.32-.44L4.5,0A2.87,2.87,0,0,0,6.65.244l.587.342L.831,4.3,0,3.814Z" transform="translate(0)"/>
                  <path id="Path_4304" data-name="Path 4304" class="cls-4" d="M4.083.434A3.246,3.246,0,0,1,7.407.483c1.173.685,1.125,1.369.147,1.956L4.229,4.346A3.335,3.335,0,0,1,.856,4.3C-.318,3.612-.22,2.928.758,2.341ZM1.54,2.83c-.587.342-.636.685-.049,1.076a1.835,1.835,0,0,0,1.809,0L6.674,1.95c.587-.342.636-.685.049-1.076a1.835,1.835,0,0,0-1.809,0Z" transform="translate(2.811 1.766)"/>
                  <path id="Path_4305" data-name="Path 4305" class="cls-4" d="M4.083.434A3.246,3.246,0,0,1,7.407.483c1.173.685,1.125,1.369.147,1.956L4.229,4.346A3.335,3.335,0,0,1,.856,4.3C-.318,3.612-.22,2.928.758,2.341ZM1.54,2.879c-.587.342-.636.685-.049,1.076a1.835,1.835,0,0,0,1.809,0L6.674,2c.587-.342.636-.685.049-1.076a1.835,1.835,0,0,0-1.809,0Z" transform="translate(7.016 4.162)"/>
                </g>
              </g>
            </g>
            <path id="Path_4306" data-name="Path 4306" class="cls-5" d="M92.409,60.677V53.343L0,0V7.334Z" transform="translate(0 20.486)"/>
            <g id="Group_1368" data-name="Group 1368" transform="translate(0 21.269)">
              <path id="Path_4307" data-name="Path 4307" class="cls-6" d="M92.409,53.636v-.293L0,0V.244Z" transform="translate(0)"/>
              <path id="Path_4308" data-name="Path 4308" class="cls-6" d="M92.409,53.636v-.293L0,0V.244Z" transform="translate(0 0.929)"/>
              <path id="Path_4309" data-name="Path 4309" class="cls-6" d="M92.409,53.636v-.293L0,0V.244Z" transform="translate(0 1.858)"/>
              <path id="Path_4310" data-name="Path 4310" class="cls-6" d="M92.409,53.636v-.293L0,0V.244Z" transform="translate(0 2.787)"/>
              <path id="Path_4311" data-name="Path 4311" class="cls-6" d="M92.409,53.636v-.244L0,0V.293Z" transform="translate(0 3.716)"/>
              <path id="Path_4312" data-name="Path 4312" class="cls-6" d="M92.409,53.636v-.244L0,0V.293Z" transform="translate(0 4.645)"/>
              <path id="Path_4313" data-name="Path 4313" class="cls-6" d="M92.409,53.636v-.244L0,0V.293Z" transform="translate(0 5.574)"/>
            </g>
            <path id="Path_4314" data-name="Path 4314" class="cls-6" d="M35.448,0V7.334L0,27.772V20.438Z" transform="translate(92.409 53.392)"/>
            <g id="Group_1369" data-name="Group 1369" transform="translate(92.458 54.174)">
              <path id="Path_4315" data-name="Path 4315" class="cls-7" d="M35.4,0V.293L0,20.731v-.293Z" transform="translate(0 0)"/>
              <path id="Path_4316" data-name="Path 4316" class="cls-7" d="M35.4,0V.293L0,20.731v-.293Z" transform="translate(0 0.929)"/>
              <path id="Path_4317" data-name="Path 4317" class="cls-7" d="M35.4,0V.293L0,20.731v-.293Z" transform="translate(0 1.858)"/>
              <path id="Path_4318" data-name="Path 4318" class="cls-7" d="M35.4,0V.293L0,20.731v-.244Z" transform="translate(0 2.787)"/>
              <path id="Path_4319" data-name="Path 4319" class="cls-7" d="M35.4,0V.293L0,20.731v-.244Z" transform="translate(0 3.716)"/>
              <path id="Path_4320" data-name="Path 4320" class="cls-7" d="M35.4,0V.293L0,20.731v-.293Z" transform="translate(0 4.645)"/>
              <path id="Path_4321" data-name="Path 4321" class="cls-7" d="M35.4,0V.244L0,20.682v-.244Z" transform="translate(0 5.623)"/>
            </g>
          </g>
          <g id="Group_1371" data-name="Group 1371" transform="translate(37.257 21.66)">
            <path id="Path_4322" data-name="Path 4322" class="cls-8" d="M0,7.285,17.308,17.308V10.023L0,0Z" transform="translate(0 20.389)"/>
            <path id="Path_4323" data-name="Path 4323" class="cls-9" d="M0,7.285V0L11.2,6.454v7.334Z" transform="translate(3.031 22.149)"/>
            <path id="Path_4324" data-name="Path 4324" class="cls-10" d="M17.308,30.363l35.546-20.34L35.546,0,0,20.389Z" transform="translate(0 0)"/>
            <path id="Path_4325" data-name="Path 4325" class="cls-11" d="M0,20.438,35.546,0l11.2,6.454L11.2,26.892Z" transform="translate(3.031 1.711)"/>
          </g>
        </g>
        <g id="Group_1390" data-name="Group 1390" transform="translate(13.924 28.56)">
          <g id="Group_1388" data-name="Group 1388">
            <g id="Group_1385" data-name="Group 1385">
              <path id="Path_4326" data-name="Path 4326" class="cls-1" d="M265.709,235.83,173.3,182.438,208.748,162l92.409,53.343Z" transform="translate(-173.3 -162)"/>
              <path id="Path_4327" data-name="Path 4327" class="cls-2" d="M178.3,184.017,211.5,164.9l89.769,51.827-33.2,19.166Z" transform="translate(-175.855 -163.482)"/>
              <path id="Path_4328" data-name="Path 4328" class="cls-1" d="M301.349,223.269l-21.855,12.615L193,185.915,214.807,173.3Z" transform="translate(-183.368 -167.775)"/>
              <path id="Path_4329" data-name="Path 4329" class="cls-2" d="M368.941,294.826l-4.254,2.445-4.987-2.885C362.047,293.065,366.154,293.261,368.941,294.826Z" transform="translate(-268.562 -229.21)"/>
              <path id="Path_4330" data-name="Path 4330" class="cls-2" d="M407.755,272.485l-4.254,2.445c-2.738-1.613-3.08-3.96-.733-5.329Z" transform="translate(-289.774 -216.99)"/>
              <path id="Path_4331" data-name="Path 4331" class="cls-2" d="M198.427,199.674,193,196.545l4.254-2.445a4.545,4.545,0,0,0,.489.244C200.432,195.958,200.774,198.3,198.427,199.674Z" transform="translate(-183.368 -178.405)"/>
              <path id="Path_4332" data-name="Path 4332" class="cls-2" d="M238.581,176.429c-2.347,1.369-6.5,1.173-9.241-.391l-.44-.293,4.254-2.445Z" transform="translate(-201.715 -167.775)"/>
              <g id="Group_1373" data-name="Group 1373" transform="translate(26.744 15.878)">
                <path id="Path_4333" data-name="Path 4333" class="cls-2" d="M230.738,201.919c-3.276-1.907-3.667-4.743-.88-6.356s7.725-1.418,11,.489,3.667,4.743.88,6.356C238.952,204.07,234.013,203.826,230.738,201.919Z" transform="translate(-227.999 -194.475)"/>
                <path id="Path_4334" data-name="Path 4334" class="cls-3" d="M242.239,202.748c-2.2,1.271-6.014,1.076-8.556-.391s-2.836-3.667-.685-4.938c2.2-1.271,6.014-1.076,8.556.391C244.146,199.277,244.439,201.477,242.239,202.748Z" transform="translate(-229.819 -195.548)"/>
              </g>
              <g id="Group_1374" data-name="Group 1374" transform="translate(80.625 47.023)">
                <path id="Path_4335" data-name="Path 4335" class="cls-2" d="M340.938,265.619c-3.276-1.907-3.667-4.743-.88-6.356s7.725-1.418,11,.489,3.667,4.743.88,6.356S344.213,267.477,340.938,265.619Z" transform="translate(-338.199 -258.174)"/>
                <path id="Path_4336" data-name="Path 4336" class="cls-3" d="M352.539,266.348c-2.2,1.271-6.014,1.076-8.556-.391s-2.836-3.667-.685-4.938c2.2-1.271,6.014-1.076,8.556.391S354.69,265.077,352.539,266.348Z" transform="translate(-340.07 -259.197)"/>
              </g>
              <path id="Path_4337" data-name="Path 4337" class="cls-2" d="M297.953,233.9c-6.258,3.618-15.744,3.96-21.269.782-5.476-3.178-4.889-8.654,1.369-12.272s15.744-3.96,21.269-.782C304.8,224.8,304.211,230.33,297.953,233.9Z" transform="translate(-224.221 -191.361)"/>
              <path id="Path_4338" data-name="Path 4338" class="cls-1" d="M279.707,235.13c-4.743-2.738-4.058-7.627,1.565-10.854s14.033-3.618,18.775-.88,4.058,7.627-1.565,10.854S284.45,237.868,279.707,235.13Z" transform="translate(-226.071 -192.446)"/>
              <path id="Path_4339" data-name="Path 4339" class="cls-2" d="M282.623,235.528c-4.009-2.347-3.227-6.552,1.76-9.437s12.321-3.325,16.33-1.027c4.009,2.347,3.227,6.552-1.76,9.437S286.633,237.826,282.623,235.528Z" transform="translate(-227.862 -193.479)"/>
              <path id="Path_4340" data-name="Path 4340" class="cls-2" d="M262.828,194.892,244.2,184.136l1.125-.636,18.629,10.708Z" transform="translate(-209.534 -172.988)"/>
              <path id="Path_4341" data-name="Path 4341" class="cls-2" d="M368.982,257.115,348.3,245.136l1.125-.636,20.682,11.93Z" transform="translate(-262.736 -204.163)"/>
              <path id="Path_4342" data-name="Path 4342" class="cls-2" d="M337.582,275.215,316.9,263.236l1.125-.636,20.682,11.979Z" transform="translate(-246.689 -213.413)"/>
              <path id="Path_4343" data-name="Path 4343" class="cls-2" d="M366.615,259.165,349.6,249.338l.929-.538,17.015,9.828Z" transform="translate(-263.4 -206.36)"/>
              <path id="Path_4344" data-name="Path 4344" class="cls-2" d="M372.93,255.683,361,248.838l.929-.538,11.93,6.845Z" transform="translate(-269.226 -206.105)"/>
              <path id="Path_4345" data-name="Path 4345" class="cls-2" d="M320.632,268.39,308.8,261.544l.44-.244,11.832,6.845Z" transform="translate(-242.549 -212.748)"/>
              <path id="Path_4346" data-name="Path 4346" class="cls-2" d="M318.672,269.292l-7.872-4.5.44-.293,7.823,4.547Z" transform="translate(-243.571 -214.384)"/>
              <path id="Path_4347" data-name="Path 4347" class="cls-2" d="M228.335,211.608,214.4,203.54l.782-.44,13.935,8.067Z" transform="translate(-194.305 -183.005)"/>
              <path id="Path_4348" data-name="Path 4348" class="cls-2" d="M231.019,210.687,223,206.042l.636-.342,8.019,4.6Z" transform="translate(-198.7 -184.333)"/>
              <path id="Path_4349" data-name="Path 4349" class="cls-2" d="M248,189.8l-6.8-3.912,1.125-.685,6.8,3.911Z" transform="translate(-208.001 -173.857)"/>
              <g id="Group_1376" data-name="Group 1376" transform="translate(76.079 44.151)">
                <g id="Group_1375" data-name="Group 1375">
                  <path id="Path_4350" data-name="Path 4350" class="cls-4" d="M337.212,253.522a7.048,7.048,0,0,1-2.1-.684l.929-.538a4.362,4.362,0,0,0,3.423.391l.929.538L330.22,259.1l-1.32-.782Z" transform="translate(-328.9 -252.3)"/>
                  <path id="Path_4351" data-name="Path 4351" class="cls-4" d="M344.586,258.584a5.125,5.125,0,0,1,5.281.1c1.858,1.076,1.76,2.151.2,3.08l-5.232,3.031a5.213,5.213,0,0,1-5.329-.1c-1.809-1.076-1.711-2.151-.147-3.08Zm-4.009,3.863c-.929.538-1.027,1.125-.049,1.662a2.677,2.677,0,0,0,2.885-.049l5.378-3.129c.929-.538,1.027-1.125.049-1.662a2.78,2.78,0,0,0-2.885.049Z" transform="translate(-333.634 -255.162)"/>
                  <path id="Path_4352" data-name="Path 4352" class="cls-4" d="M358.186,266.485a5.125,5.125,0,0,1,5.281.1c1.858,1.076,1.76,2.151.2,3.08l-5.232,3.031a5.213,5.213,0,0,1-5.329-.1c-1.809-1.076-1.711-2.151-.147-3.08Zm-4.009,3.814c-.929.538-1.027,1.125-.049,1.662a2.677,2.677,0,0,0,2.885-.049l5.378-3.129c.929-.538,1.027-1.125.049-1.662a2.78,2.78,0,0,0-2.885.049Z" transform="translate(-340.584 -259.199)"/>
                </g>
              </g>
              <g id="Group_1378" data-name="Group 1378" transform="translate(74.71 57.988)">
                <g id="Group_1377" data-name="Group 1377">
                  <path id="Path_4353" data-name="Path 4353" class="cls-4" d="M331.332,281.382a6.975,6.975,0,0,1-1.32-.44l.587-.342a2.87,2.87,0,0,0,2.151.244l.587.342-6.405,3.716-.831-.489Z" transform="translate(-326.1 -280.6)"/>
                  <path id="Path_4354" data-name="Path 4354" class="cls-4" d="M335.833,284.646a3.246,3.246,0,0,1,3.325.049c1.173.685,1.125,1.369.147,1.956l-3.325,1.907a3.334,3.334,0,0,1-3.374-.049c-1.173-.685-1.076-1.369-.1-1.956Zm-2.494,2.4c-.587.342-.636.685-.049,1.076a1.835,1.835,0,0,0,1.809,0l3.374-1.956c.587-.342.636-.684.049-1.076a1.836,1.836,0,0,0-1.809,0Z" transform="translate(-328.987 -282.446)"/>
                  <path id="Path_4355" data-name="Path 4355" class="cls-4" d="M344.433,289.546a3.246,3.246,0,0,1,3.325.049c1.173.684,1.125,1.369.147,1.956l-3.325,1.907a3.335,3.335,0,0,1-3.374-.049c-1.173-.685-1.076-1.369-.1-1.956Zm-2.494,2.445c-.587.342-.636.684-.049,1.076a1.835,1.835,0,0,0,1.809,0l3.374-1.956c.587-.342.636-.685.049-1.076a1.835,1.835,0,0,0-1.809,0Z" transform="translate(-333.383 -284.95)"/>
                </g>
              </g>
              <g id="Group_1380" data-name="Group 1380" transform="translate(103.655 43.858)">
                <g id="Group_1379" data-name="Group 1379">
                  <path id="Path_4356" data-name="Path 4356" class="cls-4" d="M389.554,252.336a4.574,4.574,0,0,1-1.076-.342l.489-.293a2.1,2.1,0,0,0,1.76.2l.489.293-5.232,3.031-.685-.391Z" transform="translate(-385.3 -251.7)"/>
                  <path id="Path_4357" data-name="Path 4357" class="cls-4" d="M393.369,254.942a2.741,2.741,0,0,1,2.738.049c.929.538.88,1.125.1,1.565l-2.689,1.565a2.742,2.742,0,0,1-2.738-.049c-.929-.538-.88-1.125-.1-1.565Zm-2.054,2c-.489.293-.538.587-.049.831a1.434,1.434,0,0,0,1.467,0l2.738-1.613c.489-.293.538-.587.049-.88a1.434,1.434,0,0,0-1.467,0Z" transform="translate(-387.747 -253.182)"/>
                  <path id="Path_4358" data-name="Path 4358" class="cls-4" d="M400.269,259.042a2.741,2.741,0,0,1,2.738.049c.929.538.88,1.125.1,1.565l-2.689,1.565a2.742,2.742,0,0,1-2.738-.049c-.929-.538-.88-1.125-.1-1.565ZM398.216,261c-.489.293-.538.587-.049.88a1.434,1.434,0,0,0,1.467,0l2.738-1.613c.489-.293.538-.587.049-.88a1.434,1.434,0,0,0-1.467,0Z" transform="translate(-391.273 -255.277)"/>
                </g>
              </g>
              <g id="Group_1382" data-name="Group 1382" transform="translate(39.213 6.65)">
                <g id="Group_1381" data-name="Group 1381">
                  <path id="Path_4359" data-name="Path 4359" class="cls-4" d="M257.754,176.236a4.574,4.574,0,0,1-1.076-.342l.489-.293a2.1,2.1,0,0,0,1.76.2l.489.293-5.232,3.031-.684-.391Z" transform="translate(-253.5 -175.6)"/>
                  <path id="Path_4360" data-name="Path 4360" class="cls-4" d="M261.469,178.842a2.741,2.741,0,0,1,2.738.049c.929.538.88,1.125.1,1.565l-2.689,1.565a2.742,2.742,0,0,1-2.738-.049c-.929-.538-.88-1.125-.1-1.565Zm-2.053,2c-.489.293-.538.587-.049.831a1.434,1.434,0,0,0,1.467,0l2.738-1.613c.489-.293.538-.587.049-.88a1.434,1.434,0,0,0-1.467,0Z" transform="translate(-255.895 -177.082)"/>
                  <path id="Path_4361" data-name="Path 4361" class="cls-4" d="M268.469,182.942a2.741,2.741,0,0,1,2.738.049c.929.538.88,1.125.1,1.565l-2.689,1.565a2.742,2.742,0,0,1-2.738-.049c-.929-.538-.88-1.125-.1-1.565Zm-2.054,1.956c-.489.293-.538.587-.049.88a1.434,1.434,0,0,0,1.467,0l2.738-1.614c.489-.293.538-.587.049-.88a1.434,1.434,0,0,0-1.467,0Z" transform="translate(-259.473 -179.177)"/>
                </g>
              </g>
              <g id="Group_1384" data-name="Group 1384" transform="translate(12.859 22.296)">
                <g id="Group_1383" data-name="Group 1383">
                  <path id="Path_4362" data-name="Path 4362" class="cls-4" d="M204.832,208.382a6.974,6.974,0,0,1-1.32-.44l.587-.342a2.87,2.87,0,0,0,2.151.244l.587.342-6.405,3.716-.831-.489Z" transform="translate(-199.6 -207.6)"/>
                  <path id="Path_4363" data-name="Path 4363" class="cls-4" d="M209.333,211.546a3.246,3.246,0,0,1,3.325.049c1.173.684,1.125,1.369.147,1.956l-3.325,1.907a3.335,3.335,0,0,1-3.374-.049c-1.173-.684-1.076-1.369-.1-1.956Zm-2.494,2.445c-.587.342-.636.684-.049,1.076a1.835,1.835,0,0,0,1.809,0l3.374-1.956c.587-.342.636-.685.049-1.076a1.836,1.836,0,0,0-1.809,0Z" transform="translate(-202.488 -209.395)"/>
                  <path id="Path_4364" data-name="Path 4364" class="cls-4" d="M217.933,216.546a3.246,3.246,0,0,1,3.325.049c1.173.685,1.125,1.369.147,1.956l-3.325,1.907a3.334,3.334,0,0,1-3.374-.049c-1.173-.684-1.076-1.369-.1-1.956Zm-2.542,2.4c-.587.342-.636.684-.049,1.076a1.835,1.835,0,0,0,1.809,0l3.374-1.956c.587-.342.636-.685.049-1.076a1.836,1.836,0,0,0-1.809,0Z" transform="translate(-206.883 -211.95)"/>
                </g>
              </g>
            </g>
            <path id="Path_4365" data-name="Path 4365" class="cls-5" d="M265.709,264.477v-7.285L173.3,203.8v7.334Z" transform="translate(-173.3 -183.362)"/>
            <g id="Group_1386" data-name="Group 1386" transform="translate(0 21.22)">
              <path id="Path_4366" data-name="Path 4366" class="cls-6" d="M265.709,259.036v-.244L173.3,205.4v.293Z" transform="translate(-173.3 -205.4)"/>
              <path id="Path_4367" data-name="Path 4367" class="cls-6" d="M265.709,260.936v-.244L173.3,207.3v.293Z" transform="translate(-173.3 -206.371)"/>
              <path id="Path_4368" data-name="Path 4368" class="cls-6" d="M265.709,262.836v-.244L173.3,209.2v.293Z" transform="translate(-173.3 -207.342)"/>
              <path id="Path_4369" data-name="Path 4369" class="cls-6" d="M265.709,264.736v-.244L173.3,211.1v.293Z" transform="translate(-173.3 -208.313)"/>
              <path id="Path_4370" data-name="Path 4370" class="cls-6" d="M265.709,266.637v-.245L173.3,213v.293Z" transform="translate(-173.3 -209.284)"/>
              <path id="Path_4371" data-name="Path 4371" class="cls-6" d="M265.709,268.536v-.244L173.3,214.9v.293Z" transform="translate(-173.3 -210.255)"/>
              <path id="Path_4372" data-name="Path 4372" class="cls-6" d="M265.709,270.436v-.244L173.3,216.8v.293Z" transform="translate(-173.3 -211.226)"/>
            </g>
            <path id="Path_4373" data-name="Path 4373" class="cls-6" d="M397.748,271.1v7.334L362.3,298.872v-7.285Z" transform="translate(-269.891 -217.757)"/>
            <g id="Group_1387" data-name="Group 1387" transform="translate(92.458 54.125)">
              <path id="Path_4374" data-name="Path 4374" class="cls-7" d="M397.8,272.7v.293l-35.4,20.438v-.293Z" transform="translate(-362.4 -272.7)"/>
              <path id="Path_4375" data-name="Path 4375" class="cls-7" d="M397.8,274.7v.244l-35.4,20.438v-.244Z" transform="translate(-362.4 -273.722)"/>
              <path id="Path_4376" data-name="Path 4376" class="cls-7" d="M397.8,276.6v.244l-35.4,20.438v-.245Z" transform="translate(-362.4 -274.693)"/>
              <path id="Path_4377" data-name="Path 4377" class="cls-7" d="M397.8,278.4v.293l-35.4,20.438v-.244Z" transform="translate(-362.4 -275.613)"/>
              <path id="Path_4378" data-name="Path 4378" class="cls-7" d="M397.8,280.4v.245l-35.4,20.438v-.244Z" transform="translate(-362.4 -276.635)"/>
              <path id="Path_4379" data-name="Path 4379" class="cls-7" d="M397.8,282.3v.244l-35.4,20.438v-.244Z" transform="translate(-362.4 -277.606)"/>
              <path id="Path_4380" data-name="Path 4380" class="cls-7" d="M397.8,284.2v.244l-35.4,20.438v-.244Z" transform="translate(-362.4 -278.577)"/>
            </g>
          </g>
          <g id="Group_1389" data-name="Group 1389" transform="translate(37.257 21.611)">
            <path id="Path_4381" data-name="Path 4381" class="cls-8" d="M249.5,255.185l17.308,10.023v-7.285L249.5,247.9Z" transform="translate(-249.5 -227.511)"/>
            <path id="Path_4382" data-name="Path 4382" class="cls-9" d="M255.7,258.834V251.5l11.246,6.454v7.334Z" transform="translate(-252.669 -229.351)"/>
            <path id="Path_4383" data-name="Path 4383" class="cls-10" d="M266.808,236.612,302.4,216.223,285.046,206.2,249.5,226.589Z" transform="translate(-249.5 -206.2)"/>
            <path id="Path_4384" data-name="Path 4384" class="cls-11" d="M255.7,230.138,291.246,209.7l11.2,6.454-35.5,20.438Z" transform="translate(-252.669 -207.989)"/>
          </g>
        </g>
        <path id="Path_4385" data-name="Path 4385" class="cls-12" d="M346.7,273.062l19.02,1.907,24.056-13.886L373.152,251.5Z" transform="translate(-247.994 -179.18)"/>
        <g id="Group_1408" data-name="Group 1408" transform="translate(6.297 12.767)">
          <g id="Group_1406" data-name="Group 1406">
            <g id="Group_1403" data-name="Group 1403">
              <path id="Path_4386" data-name="Path 4386" class="cls-1" d="M250.109,203.53,157.7,150.138,193.148,129.7l92.409,53.343Z" transform="translate(-157.7 -129.7)"/>
              <path id="Path_4387" data-name="Path 4387" class="cls-2" d="M162.7,151.766,195.9,132.6l89.769,51.827-33.2,19.166Z" transform="translate(-160.255 -131.182)"/>
              <path id="Path_4388" data-name="Path 4388" class="cls-1" d="M285.7,190.969l-21.807,12.615L177.4,153.615,199.207,141Z" transform="translate(-167.768 -135.475)"/>
              <path id="Path_4389" data-name="Path 4389" class="cls-2" d="M353.341,262.526l-4.254,2.445-4.987-2.885C346.447,260.765,350.554,260.961,353.341,262.526Z" transform="translate(-252.962 -196.91)"/>
              <path id="Path_4390" data-name="Path 4390" class="cls-2" d="M392.055,240.185l-4.254,2.445c-2.738-1.613-3.08-3.96-.733-5.329Z" transform="translate(-274.123 -184.69)"/>
              <path id="Path_4391" data-name="Path 4391" class="cls-2" d="M182.727,167.374l-5.427-3.129,4.254-2.445a4.532,4.532,0,0,0,.489.244C184.781,163.658,185.074,166,182.727,167.374Z" transform="translate(-167.717 -146.105)"/>
              <path id="Path_4392" data-name="Path 4392" class="cls-2" d="M222.981,144.129c-2.347,1.369-6.5,1.173-9.241-.391l-.44-.293L217.554,141Z" transform="translate(-186.115 -135.475)"/>
              <g id="Group_1391" data-name="Group 1391" transform="translate(26.744 15.878)">
                <path id="Path_4393" data-name="Path 4393" class="cls-2" d="M215.138,169.619c-3.276-1.907-3.667-4.743-.88-6.356s7.725-1.418,11,.489,3.667,4.743.88,6.356C223.352,171.77,218.413,171.526,215.138,169.619Z" transform="translate(-212.399 -162.174)"/>
                <path id="Path_4394" data-name="Path 4394" class="cls-3" d="M226.639,170.448c-2.2,1.271-6.014,1.076-8.556-.391s-2.836-3.667-.685-4.938c2.2-1.271,6.014-1.076,8.556.391C228.546,166.977,228.839,169.177,226.639,170.448Z" transform="translate(-214.219 -163.248)"/>
              </g>
              <g id="Group_1392" data-name="Group 1392" transform="translate(80.625 47.023)">
                <path id="Path_4395" data-name="Path 4395" class="cls-2" d="M325.338,233.319c-3.276-1.907-3.667-4.743-.88-6.356s7.725-1.418,11,.489,3.667,4.743.88,6.356S328.613,235.177,325.338,233.319Z" transform="translate(-322.599 -225.875)"/>
                <path id="Path_4396" data-name="Path 4396" class="cls-3" d="M336.839,234.048c-2.2,1.271-6.014,1.076-8.556-.391s-2.836-3.667-.685-4.938c2.2-1.271,6.014-1.076,8.556.391C338.746,230.577,339.039,232.826,336.839,234.048Z" transform="translate(-324.419 -226.897)"/>
              </g>
              <path id="Path_4397" data-name="Path 4397" class="cls-2" d="M282.353,201.7c-6.258,3.618-15.744,3.96-21.269.782-5.476-3.178-4.889-8.654,1.369-12.272s15.744-3.96,21.269-.782C289.2,192.556,288.611,198.081,282.353,201.7Z" transform="translate(-208.621 -159.113)"/>
              <path id="Path_4398" data-name="Path 4398" class="cls-1" d="M264.007,202.83c-4.743-2.738-4.058-7.627,1.565-10.854s14.033-3.618,18.775-.88,4.058,7.627-1.565,10.854C277.208,205.177,268.8,205.568,264.007,202.83Z" transform="translate(-210.419 -160.146)"/>
              <path id="Path_4399" data-name="Path 4399" class="cls-2" d="M267.023,203.228c-4.009-2.347-3.227-6.552,1.76-9.436s12.321-3.325,16.331-1.027c4.009,2.347,3.227,6.552-1.76,9.437S271.033,205.526,267.023,203.228Z" transform="translate(-212.262 -161.179)"/>
              <path id="Path_4400" data-name="Path 4400" class="cls-2" d="M247.229,162.592,228.6,151.836l1.125-.636,18.629,10.757Z" transform="translate(-193.934 -140.688)"/>
              <path id="Path_4401" data-name="Path 4401" class="cls-2" d="M353.331,224.815,332.6,212.836l1.173-.636,20.682,11.93Z" transform="translate(-247.085 -171.863)"/>
              <path id="Path_4402" data-name="Path 4402" class="cls-2" d="M321.931,242.915,301.2,230.936l1.125-.636,20.731,11.979Z" transform="translate(-231.037 -181.113)"/>
              <path id="Path_4403" data-name="Path 4403" class="cls-2" d="M351.015,226.865,334,217.038l.929-.538,17.015,9.828Z" transform="translate(-247.8 -174.06)"/>
              <path id="Path_4404" data-name="Path 4404" class="cls-2" d="M357.281,223.383,345.4,216.538l.929-.538,11.881,6.845Z" transform="translate(-253.626 -173.805)"/>
              <path id="Path_4405" data-name="Path 4405" class="cls-2" d="M305.032,236.09,293.2,229.244l.44-.244,11.832,6.845Z" transform="translate(-226.949 -180.448)"/>
              <path id="Path_4406" data-name="Path 4406" class="cls-2" d="M303.023,237.043l-7.823-4.5.44-.244,7.823,4.5Z" transform="translate(-227.971 -182.135)"/>
              <path id="Path_4407" data-name="Path 4407" class="cls-2" d="M212.735,179.308,198.8,171.24l.733-.44,13.984,8.067Z" transform="translate(-178.705 -150.705)"/>
              <path id="Path_4408" data-name="Path 4408" class="cls-2" d="M215.419,178.387l-8.019-4.645.587-.342,8.019,4.6Z" transform="translate(-183.1 -152.033)"/>
              <path id="Path_4409" data-name="Path 4409" class="cls-2" d="M232.4,157.5l-6.8-3.911,1.125-.685,6.8,3.96Z" transform="translate(-192.401 -141.557)"/>
              <g id="Group_1394" data-name="Group 1394" transform="translate(76.079 44.151)">
                <g id="Group_1393" data-name="Group 1393">
                  <path id="Path_4410" data-name="Path 4410" class="cls-4" d="M321.612,221.222a8.793,8.793,0,0,1-2.1-.685l.929-.538a4.362,4.362,0,0,0,3.423.391l.929.538L314.62,226.8l-1.32-.782Z" transform="translate(-313.3 -220)"/>
                  <path id="Path_4411" data-name="Path 4411" class="cls-4" d="M328.986,226.285a5.125,5.125,0,0,1,5.281.1c1.858,1.076,1.76,2.151.2,3.08l-5.232,3.031a5.213,5.213,0,0,1-5.329-.1c-1.809-1.076-1.711-2.151-.147-3.08Zm-4.009,3.863c-.929.538-1.027,1.125-.049,1.662a2.677,2.677,0,0,0,2.885-.049l5.378-3.129c.929-.538,1.027-1.125.049-1.662a2.78,2.78,0,0,0-2.885.049Z" transform="translate(-318.034 -222.862)"/>
                  <path id="Path_4412" data-name="Path 4412" class="cls-4" d="M342.586,234.184a5.125,5.125,0,0,1,5.281.1c1.858,1.076,1.76,2.151.2,3.08l-5.232,3.031a5.213,5.213,0,0,1-5.329-.1c-1.809-1.076-1.711-2.151-.147-3.08ZM338.577,238c-.929.538-1.027,1.125-.049,1.662a2.677,2.677,0,0,0,2.885-.049l5.378-3.129c.929-.538,1.027-1.125.049-1.662a2.779,2.779,0,0,0-2.885.049Z" transform="translate(-324.984 -226.899)"/>
                </g>
              </g>
              <g id="Group_1396" data-name="Group 1396" transform="translate(74.661 57.988)">
                <g id="Group_1395" data-name="Group 1395">
                  <path id="Path_4413" data-name="Path 4413" class="cls-4" d="M315.632,249.082a6.976,6.976,0,0,1-1.32-.44l.587-.342a2.87,2.87,0,0,0,2.151.244l.587.342-6.405,3.716-.831-.489Z" transform="translate(-310.4 -248.3)"/>
                  <path id="Path_4414" data-name="Path 4414" class="cls-4" d="M320.233,252.346a3.246,3.246,0,0,1,3.325.049c1.173.684,1.125,1.369.147,1.956l-3.325,1.907a3.335,3.335,0,0,1-3.374-.049c-1.173-.685-1.076-1.369-.1-1.956Zm-2.494,2.4c-.587.342-.636.685-.049,1.076a1.835,1.835,0,0,0,1.809,0l3.374-1.956c.587-.342.636-.685.049-1.076a1.836,1.836,0,0,0-1.809,0Z" transform="translate(-313.339 -250.146)"/>
                  <path id="Path_4415" data-name="Path 4415" class="cls-4" d="M328.782,257.246a3.246,3.246,0,0,1,3.325.049c1.173.685,1.125,1.369.1,1.956l-3.325,1.907a3.334,3.334,0,0,1-3.374-.049c-1.173-.685-1.076-1.369-.1-1.956Zm-2.542,2.445c-.587.342-.636.685-.049,1.076a1.835,1.835,0,0,0,1.809,0l3.374-1.956c.587-.342.636-.685.049-1.076a1.835,1.835,0,0,0-1.809,0Z" transform="translate(-317.683 -252.65)"/>
                </g>
              </g>
              <g id="Group_1398" data-name="Group 1398" transform="translate(103.655 43.858)">
                <g id="Group_1397" data-name="Group 1397">
                  <path id="Path_4416" data-name="Path 4416" class="cls-4" d="M373.954,220.036a4.572,4.572,0,0,1-1.076-.342l.489-.293a2.1,2.1,0,0,0,1.76.2l.489.293-5.232,3.031-.685-.391Z" transform="translate(-369.7 -219.4)"/>
                  <path id="Path_4417" data-name="Path 4417" class="cls-4" d="M377.669,222.642a2.741,2.741,0,0,1,2.738.049c.929.538.88,1.125.1,1.565l-2.689,1.565a2.742,2.742,0,0,1-2.738-.049c-.929-.538-.88-1.125-.1-1.565Zm-2.053,2c-.489.293-.538.587,0,.88a1.434,1.434,0,0,0,1.467,0l2.738-1.613c.489-.293.538-.587.049-.88a1.433,1.433,0,0,0-1.467,0Z" transform="translate(-372.095 -220.882)"/>
                  <path id="Path_4418" data-name="Path 4418" class="cls-4" d="M384.669,226.742a2.741,2.741,0,0,1,2.738.049c.929.538.88,1.125.1,1.565l-2.689,1.565a2.742,2.742,0,0,1-2.738-.049c-.929-.538-.88-1.125-.1-1.565Zm-2.054,1.956c-.489.293-.538.587-.049.88a1.434,1.434,0,0,0,1.467,0l2.738-1.614c.489-.293.538-.587.049-.88a1.433,1.433,0,0,0-1.467,0Z" transform="translate(-375.673 -222.977)"/>
                </g>
              </g>
              <g id="Group_1400" data-name="Group 1400" transform="translate(39.213 6.65)">
                <g id="Group_1399" data-name="Group 1399">
                  <path id="Path_4419" data-name="Path 4419" class="cls-4" d="M242.154,143.936a4.573,4.573,0,0,1-1.076-.342l.489-.293a2.1,2.1,0,0,0,1.76.2l.489.293-5.232,3.031-.685-.391Z" transform="translate(-237.9 -143.3)"/>
                  <path id="Path_4420" data-name="Path 4420" class="cls-4" d="M245.869,146.642a2.741,2.741,0,0,1,2.738.049c.929.538.88,1.125.1,1.565l-2.689,1.565a2.742,2.742,0,0,1-2.738-.049c-.929-.538-.88-1.125-.1-1.565Zm-2.054,1.956c-.489.293-.538.587,0,.88a1.434,1.434,0,0,0,1.467,0l2.738-1.613c.489-.293.538-.587.049-.88a1.433,1.433,0,0,0-1.467,0Z" transform="translate(-240.295 -144.833)"/>
                  <path id="Path_4421" data-name="Path 4421" class="cls-4" d="M252.869,150.642a2.741,2.741,0,0,1,2.738.049c.929.538.88,1.125.1,1.565l-2.689,1.565a2.742,2.742,0,0,1-2.738-.049c-.929-.538-.88-1.125-.1-1.565Zm-2.054,1.956c-.489.293-.538.587,0,.88a1.434,1.434,0,0,0,1.467,0l2.738-1.613c.489-.293.538-.587.049-.88a1.434,1.434,0,0,0-1.467,0Z" transform="translate(-243.873 -146.877)"/>
                </g>
              </g>
              <g id="Group_1402" data-name="Group 1402" transform="translate(12.81 22.296)">
                <g id="Group_1401" data-name="Group 1401">
                  <path id="Path_4422" data-name="Path 4422" class="cls-4" d="M189.132,176.082a6.971,6.971,0,0,1-1.32-.44l.587-.342a2.87,2.87,0,0,0,2.151.244l.587.342-6.405,3.716-.831-.489Z" transform="translate(-183.9 -175.3)"/>
                  <path id="Path_4423" data-name="Path 4423" class="cls-4" d="M193.733,179.246a3.246,3.246,0,0,1,3.325.049c1.173.685,1.125,1.369.147,1.956l-3.325,1.907a3.335,3.335,0,0,1-3.374-.049c-1.173-.685-1.076-1.369-.1-1.956Zm-2.542,2.445c-.587.342-.636.685-.049,1.076a1.835,1.835,0,0,0,1.809,0l3.374-1.956c.587-.342.636-.685.049-1.076a1.835,1.835,0,0,0-1.809,0Z" transform="translate(-186.839 -177.095)"/>
                  <path id="Path_4424" data-name="Path 4424" class="cls-4" d="M202.333,184.246a3.246,3.246,0,0,1,3.325.049c1.173.685,1.125,1.369.147,1.956l-3.325,1.907a3.335,3.335,0,0,1-3.374-.049c-1.173-.685-1.076-1.369-.1-1.956Zm-2.542,2.4c-.587.342-.636.685-.049,1.076a1.835,1.835,0,0,0,1.809,0l3.374-1.956c.587-.342.636-.685.049-1.076a1.836,1.836,0,0,0-1.809,0Z" transform="translate(-191.234 -179.65)"/>
                </g>
              </g>
            </g>
            <path id="Path_4425" data-name="Path 4425" class="cls-5" d="M250.109,232.177v-7.285L157.7,171.5v7.334Z" transform="translate(-157.7 -151.062)"/>
            <g id="Group_1404" data-name="Group 1404" transform="translate(0 21.22)">
              <path id="Path_4426" data-name="Path 4426" class="cls-6" d="M250.109,226.736v-.244L157.7,173.1v.293Z" transform="translate(-157.7 -173.1)"/>
              <path id="Path_4427" data-name="Path 4427" class="cls-6" d="M250.109,228.636v-.244L157.7,175v.293Z" transform="translate(-157.7 -174.071)"/>
              <path id="Path_4428" data-name="Path 4428" class="cls-6" d="M250.109,230.536v-.244L157.7,176.9v.293Z" transform="translate(-157.7 -175.042)"/>
              <path id="Path_4429" data-name="Path 4429" class="cls-6" d="M250.109,232.436v-.244L157.7,178.8v.293Z" transform="translate(-157.7 -176.013)"/>
              <path id="Path_4430" data-name="Path 4430" class="cls-6" d="M250.109,234.336v-.244L157.7,180.7v.293Z" transform="translate(-157.7 -176.984)"/>
              <path id="Path_4431" data-name="Path 4431" class="cls-6" d="M250.109,236.288v-.244L157.7,182.7v.244Z" transform="translate(-157.7 -178.006)"/>
              <path id="Path_4432" data-name="Path 4432" class="cls-6" d="M250.109,238.188v-.244L157.7,184.6v.244Z" transform="translate(-157.7 -178.977)"/>
            </g>
            <path id="Path_4433" data-name="Path 4433" class="cls-6" d="M382.148,238.8v7.334L346.7,266.572v-7.285Z" transform="translate(-254.291 -185.457)"/>
            <g id="Group_1405" data-name="Group 1405" transform="translate(92.458 54.174)">
              <path id="Path_4434" data-name="Path 4434" class="cls-7" d="M382.2,240.5v.244l-35.4,20.438v-.244Z" transform="translate(-346.8 -240.5)"/>
              <path id="Path_4435" data-name="Path 4435" class="cls-7" d="M382.2,242.4v.244l-35.4,20.438v-.244Z" transform="translate(-346.8 -241.471)"/>
              <path id="Path_4436" data-name="Path 4436" class="cls-7" d="M382.2,244.3v.244l-35.4,20.438v-.244Z" transform="translate(-346.8 -242.442)"/>
              <path id="Path_4437" data-name="Path 4437" class="cls-7" d="M382.2,246.2v.244l-35.4,20.438v-.244Z" transform="translate(-346.8 -243.413)"/>
              <path id="Path_4438" data-name="Path 4438" class="cls-7" d="M382.2,248.1v.244l-35.4,20.438v-.245Z" transform="translate(-346.8 -244.384)"/>
              <path id="Path_4439" data-name="Path 4439" class="cls-7" d="M382.2,250v.244l-35.4,20.438v-.244Z" transform="translate(-346.8 -245.355)"/>
              <path id="Path_4440" data-name="Path 4440" class="cls-7" d="M382.2,251.9v.244l-35.4,20.438v-.244Z" transform="translate(-346.8 -246.326)"/>
            </g>
          </g>
          <g id="Group_1407" data-name="Group 1407" transform="translate(37.257 21.66)">
            <path id="Path_4441" data-name="Path 4441" class="cls-8" d="M233.9,222.885l17.308,10.023v-7.285L233.9,215.6Z" transform="translate(-233.9 -195.26)"/>
            <path id="Path_4442" data-name="Path 4442" class="cls-9" d="M240.1,226.534V219.2l11.2,6.454v7.334Z" transform="translate(-237.069 -197.1)"/>
            <path id="Path_4443" data-name="Path 4443" class="cls-10" d="M251.208,204.363l35.546-20.389L269.446,174,233.9,194.34Z" transform="translate(-233.9 -174)"/>
            <path id="Path_4444" data-name="Path 4444" class="cls-11" d="M240.1,197.838,275.646,177.4l11.2,6.454L251.3,204.292Z" transform="translate(-237.069 -175.738)"/>
          </g>
        </g>
        <g id="Group_1426" data-name="Group 1426" transform="matrix(0.995, -0.105, 0.105, 0.995, 16.291, 13.365)">
          <g id="Group_1424" data-name="Group 1424" transform="translate(0 0)">
            <g id="Group_1421" data-name="Group 1421" transform="translate(0 0)">
              <path id="Path_4445" data-name="Path 4445" class="cls-1" d="M92.409,73.83,0,20.486,35.448,0l92.409,53.392Z"/>
              <path id="Path_4446" data-name="Path 4446" class="cls-2" d="M0,19.166,33.2,0l89.769,51.827-33.2,19.166Z" transform="translate(2.445 1.418)"/>
              <path id="Path_4447" data-name="Path 4447" class="cls-1" d="M108.349,49.921,86.493,62.535,0,12.615,21.807,0Z" transform="translate(9.632 5.574)"/>
              <path id="Path_4448" data-name="Path 4448" class="cls-2" d="M9.241,1.315,4.987,3.76,0,.875C2.347-.445,6.454-.25,9.241,1.315Z" transform="translate(91.138 64.349)"/>
              <path id="Path_4449" data-name="Path 4449" class="cls-2" d="M6.549,2.885,2.295,5.329C-.443,3.716-.785,1.369,1.561,0Z" transform="translate(111.432 52.61)"/>
              <path id="Path_4450" data-name="Path 4450" class="cls-2" d="M5.427,5.574,0,2.445,4.254,0a4.545,4.545,0,0,0,.489.244C7.432,1.809,7.774,4.2,5.427,5.574Z" transform="translate(9.632 15.744)"/>
              <path id="Path_4451" data-name="Path 4451" class="cls-2" d="M9.681,3.129C7.334,4.5,3.178,4.3.44,2.738L0,2.445,4.254,0Z" transform="translate(27.185 5.574)"/>
              <g id="Group_1409" data-name="Group 1409" transform="translate(26.744 15.927)">
                <path id="Path_4452" data-name="Path 4452" class="cls-2" d="M2.739,7.444C-.537,5.537-.928,2.7,1.858,1.088s7.725-1.418,11,.489,3.667,4.743.88,6.356S6.014,9.351,2.739,7.444Z" transform="translate(0 0)"/>
                <path id="Path_4453" data-name="Path 4453" class="cls-3" d="M10.678,6.172c-2.2,1.271-6.014,1.076-8.556-.391S-.714,2.114,1.437.843s6.014-1.076,8.556.391C12.585,2.7,12.878,4.95,10.678,6.172Z" transform="translate(1.742 0.979)"/>
              </g>
              <g id="Group_1410" data-name="Group 1410" transform="translate(80.625 47.023)">
                <path id="Path_4454" data-name="Path 4454" class="cls-2" d="M2.739,7.444C-.537,5.537-.928,2.7,1.858,1.088s7.725-1.418,11,.489,3.667,4.743.88,6.356C10.953,9.6,6.014,9.351,2.739,7.444Z" transform="translate(0 0)"/>
                <path id="Path_4455" data-name="Path 4455" class="cls-3" d="M10.678,6.172c-2.2,1.271-6.014,1.076-8.556-.391S-.714,2.114,1.437.843c2.2-1.271,6.014-1.076,8.556.391S12.829,4.9,10.678,6.172Z" transform="translate(1.79 1.027)"/>
              </g>
              <path id="Path_4456" data-name="Path 4456" class="cls-2" d="M25.015,14.447c-6.258,3.618-15.744,3.96-21.269.782C-1.73,12.051-1.143,6.575,5.115,2.957S20.859-1,26.384,2.175C31.86,5.353,31.274,10.829,25.015,14.447Z" transform="translate(48.717 28.139)"/>
              <path id="Path_4457" data-name="Path 4457" class="cls-1" d="M3.15,13.557C-1.592,10.819-.908,5.929,4.715,2.7S18.748-.916,23.49,1.822s4.058,7.627-1.565,10.854S7.893,16.295,3.15,13.557Z" transform="translate(50.486 29.176)"/>
              <path id="Path_4458" data-name="Path 4458" class="cls-2" d="M2.561,11.932C-1.449,9.585-.666,5.38,4.321,2.5S16.642-.829,20.651,1.469c4.009,2.347,3.227,6.552-1.76,9.437C13.9,13.839,6.57,14.279,2.561,11.932Z" transform="translate(52.2 30.116)"/>
              <path id="Path_4459" data-name="Path 4459" class="cls-2" d="M18.629,11.392,0,.685,1.125,0,19.753,10.757Z" transform="translate(34.666 10.512)"/>
              <path id="Path_4460" data-name="Path 4460" class="cls-2" d="M20.682,12.615,0,.685,1.125,0,21.807,11.979Z" transform="translate(85.564 40.337)"/>
              <path id="Path_4461" data-name="Path 4461" class="cls-2" d="M20.682,12.615,0,.636,1.125,0,21.807,11.93Z" transform="translate(70.211 49.236)"/>
              <path id="Path_4462" data-name="Path 4462" class="cls-2" d="M17.015,10.365,0,.538.929,0,17.944,9.828Z" transform="translate(86.2 42.489)"/>
              <path id="Path_4463" data-name="Path 4463" class="cls-2" d="M11.93,7.432,0,.538.929,0,12.81,6.894Z" transform="translate(91.774 42.195)"/>
              <path id="Path_4464" data-name="Path 4464" class="cls-2" d="M11.832,7.09,0,.244.44,0,12.272,6.8Z" transform="translate(66.251 48.6)"/>
              <path id="Path_4465" data-name="Path 4465" class="cls-2" d="M7.823,4.792,0,.244.44,0,8.263,4.547Z" transform="translate(67.229 50.165)"/>
              <path id="Path_4466" data-name="Path 4466" class="cls-2" d="M13.935,8.459,0,.44.733,0,14.717,8.019Z" transform="translate(20.095 20.144)"/>
              <path id="Path_4467" data-name="Path 4467" class="cls-2" d="M8.019,4.987,0,.391.636,0,8.654,4.645Z" transform="translate(24.3 21.367)"/>
              <path id="Path_4468" data-name="Path 4468" class="cls-2" d="M6.8,4.547,0,.636,1.125,0l6.8,3.911Z" transform="translate(33.199 11.392)"/>
              <g id="Group_1412" data-name="Group 1412" transform="translate(76.079 44.151)">
                <g id="Group_1411" data-name="Group 1411" transform="translate(0 0)">
                  <path id="Path_4469" data-name="Path 4469" class="cls-4" d="M8.312,1.222A7.049,7.049,0,0,1,6.21.538L7.138,0a4.362,4.362,0,0,0,3.423.391l.929.538L1.32,6.8,0,6.014Z" transform="translate(0 0)"/>
                  <path id="Path_4470" data-name="Path 4470" class="cls-4" d="M6.423.685a5.125,5.125,0,0,1,5.281.1c1.858,1.076,1.76,2.151.2,3.08L6.668,6.894a5.213,5.213,0,0,1-5.329-.1C-.471,5.721-.373,4.645,1.192,3.716ZM2.414,4.5c-.929.538-1.027,1.125-.049,1.662A2.677,2.677,0,0,0,5.25,6.112l5.378-3.129c.929-.538,1.027-1.125.049-1.662a2.78,2.78,0,0,0-2.885.049Z" transform="translate(4.529 2.787)"/>
                  <path id="Path_4471" data-name="Path 4471" class="cls-4" d="M6.424.685a5.125,5.125,0,0,1,5.281.1c1.858,1.076,1.76,2.151.2,3.08L6.668,6.894a5.213,5.213,0,0,1-5.329-.1C-.471,5.721-.373,4.645,1.192,3.716ZM2.414,4.547c-.929.538-1.027,1.125-.049,1.662A2.677,2.677,0,0,0,5.25,6.161l5.378-3.129c.929-.538,1.027-1.125.049-1.662a2.78,2.78,0,0,0-2.885.049Z" transform="translate(11.178 6.601)"/>
                </g>
              </g>
              <g id="Group_1414" data-name="Group 1414" transform="translate(74.71 58.037)">
                <g id="Group_1413" data-name="Group 1413" transform="translate(0 0)">
                  <path id="Path_4472" data-name="Path 4472" class="cls-4" d="M5.232.782a6.975,6.975,0,0,1-1.32-.44L4.5,0A2.87,2.87,0,0,0,6.65.244l.587.342L.831,4.3,0,3.814Z" transform="translate(0)"/>
                  <path id="Path_4473" data-name="Path 4473" class="cls-4" d="M4.132.434A3.246,3.246,0,0,1,7.456.483c1.173.684,1.125,1.369.1,1.956L4.229,4.346A3.334,3.334,0,0,1,.856,4.3C-.318,3.612-.22,2.928.758,2.341ZM1.638,2.879c-.587.342-.636.685-.049,1.076a1.835,1.835,0,0,0,1.809,0L6.772,2c.587-.342.636-.685.049-1.076a1.835,1.835,0,0,0-1.809,0Z" transform="translate(2.714 1.717)"/>
                  <path id="Path_4474" data-name="Path 4474" class="cls-4" d="M4.132.434A3.246,3.246,0,0,1,7.456.483c1.173.685,1.125,1.369.1,1.956L4.229,4.346A3.335,3.335,0,0,1,.856,4.3C-.318,3.612-.22,2.928.758,2.341ZM1.638,2.83c-.587.342-.636.684-.049,1.076a1.835,1.835,0,0,0,1.809,0L6.772,1.95c.587-.342.636-.685.049-1.076a1.836,1.836,0,0,0-1.809,0Z" transform="translate(6.918 4.162)"/>
                </g>
              </g>
              <g id="Group_1416" data-name="Group 1416" transform="translate(103.655 43.907)">
                <g id="Group_1415" data-name="Group 1415" transform="translate(0 0)">
                  <path id="Path_4475" data-name="Path 4475" class="cls-4" d="M4.254.636A4.575,4.575,0,0,1,3.178.293L3.667,0a2.1,2.1,0,0,0,1.76.2l.489.293L.685,3.52,0,3.129Z" transform="translate(0 0)"/>
                  <path id="Path_4476" data-name="Path 4476" class="cls-4" d="M3.282.342A2.741,2.741,0,0,1,6.02.391c.929.538.88,1.125.1,1.565L3.429,3.52A2.742,2.742,0,0,1,.691,3.471c-.929-.538-.88-1.125-.1-1.565ZM1.229,2.3c-.489.293-.538.587-.049.831a1.434,1.434,0,0,0,1.467,0L5.385,1.516c.489-.293.538-.587.049-.88a1.434,1.434,0,0,0-1.467,0Z" transform="translate(2.292 1.418)"/>
                  <path id="Path_4477" data-name="Path 4477" class="cls-4" d="M3.282.342A2.741,2.741,0,0,1,6.02.391c.929.538.88,1.125.1,1.565L3.429,3.52A2.742,2.742,0,0,1,.691,3.471c-.929-.538-.88-1.125-.1-1.565Zm-2.054,2c-.489.293-.538.587-.049.88a1.434,1.434,0,0,0,1.467,0L5.385,1.613c.489-.293.538-.587.049-.88a1.434,1.434,0,0,0-1.467,0Z" transform="translate(5.714 3.374)"/>
                </g>
              </g>
              <g id="Group_1418" data-name="Group 1418" transform="translate(39.213 6.698)">
                <g id="Group_1417" data-name="Group 1417" transform="translate(0 0)">
                  <path id="Path_4478" data-name="Path 4478" class="cls-4" d="M4.254.636A4.574,4.574,0,0,1,3.178.293L3.667,0a2.1,2.1,0,0,0,1.76.2l.489.293L.685,3.52,0,3.129Z"/>
                  <path id="Path_4479" data-name="Path 4479" class="cls-4" d="M3.282.342A2.741,2.741,0,0,1,6.02.391c.929.538.88,1.125.1,1.565L3.429,3.52A2.742,2.742,0,0,1,.691,3.471c-.929-.538-.88-1.125-.1-1.565ZM1.229,2.3c-.489.293-.538.587-.049.88a1.434,1.434,0,0,0,1.467,0L5.385,1.565c.489-.293.538-.587.049-.88a1.434,1.434,0,0,0-1.467,0Z" transform="translate(2.292 1.418)"/>
                  <path id="Path_4480" data-name="Path 4480" class="cls-4" d="M3.282.342A2.741,2.741,0,0,1,6.02.391c.929.538.88,1.125.1,1.565L3.429,3.52A2.742,2.742,0,0,1,.691,3.471c-.929-.538-.88-1.125-.1-1.565Zm-2.054,2c-.489.293-.538.587-.049.831a1.434,1.434,0,0,0,1.467,0L5.385,1.565c.489-.293.538-.587.049-.88a1.434,1.434,0,0,0-1.467,0Z" transform="translate(5.714 3.374)"/>
                </g>
              </g>
              <g id="Group_1420" data-name="Group 1420" transform="translate(12.859 22.296)">
                <g id="Group_1419" data-name="Group 1419" transform="translate(0 0)">
                  <path id="Path_4481" data-name="Path 4481" class="cls-4" d="M5.232.782a6.974,6.974,0,0,1-1.32-.44L4.5,0A2.87,2.87,0,0,0,6.65.244l.587.342L.831,4.3,0,3.814Z" transform="translate(0)"/>
                  <path id="Path_4482" data-name="Path 4482" class="cls-4" d="M4.132.434A3.246,3.246,0,0,1,7.456.483c1.173.685,1.125,1.369.1,1.956L4.229,4.346A3.335,3.335,0,0,1,.856,4.3C-.318,3.612-.22,2.928.758,2.341ZM1.638,2.83c-.587.342-.636.685-.049,1.076a1.835,1.835,0,0,0,1.809,0L6.772,1.95c.587-.342.636-.685.049-1.076a1.835,1.835,0,0,0-1.809,0Z" transform="translate(2.714 1.766)"/>
                  <path id="Path_4483" data-name="Path 4483" class="cls-4" d="M4.132.434A3.246,3.246,0,0,1,7.456.483c1.173.685,1.125,1.369.1,1.956L4.229,4.346A3.335,3.335,0,0,1,.856,4.3C-.318,3.612-.22,2.928.758,2.341ZM1.589,2.879C1,3.221.953,3.563,1.54,3.954a1.835,1.835,0,0,0,1.809,0L6.723,2c.587-.342.636-.684.049-1.076a1.836,1.836,0,0,0-1.809,0Z" transform="translate(6.918 4.162)"/>
                </g>
              </g>
            </g>
            <path id="Path_4484" data-name="Path 4484" class="cls-5" d="M92.409,60.677V53.343L0,0V7.285Z" transform="translate(0 20.486)"/>
            <g id="Group_1422" data-name="Group 1422" transform="translate(0 21.269)">
              <path id="Path_4485" data-name="Path 4485" class="cls-6" d="M92.409,53.636v-.293L0,0V.244Z" transform="translate(0 0)"/>
              <path id="Path_4486" data-name="Path 4486" class="cls-6" d="M92.409,53.636v-.293L0,0V.244Z" transform="translate(0 0.929)"/>
              <path id="Path_4487" data-name="Path 4487" class="cls-6" d="M92.409,53.636v-.293L0,0V.244Z" transform="translate(0 1.858)"/>
              <path id="Path_4488" data-name="Path 4488" class="cls-6" d="M92.409,53.636v-.293L0,0V.244Z" transform="translate(0 2.787)"/>
              <path id="Path_4489" data-name="Path 4489" class="cls-6" d="M92.409,53.636v-.293L0,0V.244Z" transform="translate(0 3.716)"/>
              <path id="Path_4490" data-name="Path 4490" class="cls-6" d="M92.409,53.636v-.293L0,0V.244Z" transform="translate(0 4.645)"/>
              <path id="Path_4491" data-name="Path 4491" class="cls-6" d="M92.409,53.636v-.293L0,0V.244Z" transform="translate(0 5.574)"/>
            </g>
            <path id="Path_4492" data-name="Path 4492" class="cls-6" d="M35.448,0V7.285L0,27.772V20.438Z" transform="translate(92.409 53.392)"/>
            <g id="Group_1423" data-name="Group 1423" transform="translate(92.458 54.174)">
              <path id="Path_4493" data-name="Path 4493" class="cls-7" d="M35.4,0V.244L0,20.731v-.293Z" transform="translate(0 0)"/>
              <path id="Path_4494" data-name="Path 4494" class="cls-7" d="M35.4,0V.244L0,20.682v-.244Z" transform="translate(0 0.929)"/>
              <path id="Path_4495" data-name="Path 4495" class="cls-7" d="M35.4,0V.293L0,20.731v-.293Z" transform="translate(0 1.858)"/>
              <path id="Path_4496" data-name="Path 4496" class="cls-7" d="M35.4,0V.293L0,20.731v-.293Z" transform="translate(0 2.787)"/>
              <path id="Path_4497" data-name="Path 4497" class="cls-7" d="M35.4,0V.244L0,20.731v-.293Z" transform="translate(0 3.716)"/>
              <path id="Path_4498" data-name="Path 4498" class="cls-7" d="M35.4,0V.293L0,20.731v-.293Z" transform="translate(0 4.645)"/>
              <path id="Path_4499" data-name="Path 4499" class="cls-7" d="M35.4,0V.293L0,20.731v-.293Z" transform="translate(0 5.574)"/>
            </g>
          </g>
          <g id="Group_1425" data-name="Group 1425" transform="translate(37.257 21.66)">
            <path id="Path_4500" data-name="Path 4500" class="cls-8" d="M0,7.285,17.308,17.308V10.023L0,0Z" transform="translate(0 20.389)"/>
            <path id="Path_4501" data-name="Path 4501" class="cls-9" d="M0,7.334V0L11.246,6.5v7.334Z" transform="translate(3.031 22.1)"/>
            <path id="Path_4502" data-name="Path 4502" class="cls-10" d="M17.308,30.363,52.9,10.023,35.546,0,0,20.389Z" transform="translate(0 0)"/>
            <path id="Path_4503" data-name="Path 4503" class="cls-11" d="M0,20.438,35.546,0l11.2,6.454-35.5,20.438Z" transform="translate(3.031 1.711)"/>
          </g>
        </g>
      </g>
    </g>
  </g>
</svg>
