<?xml version="1.0" encoding="utf-8"?>
<!-- Generator: Adobe Illustrator 22.1.0, SVG Export Plug-In . SVG Version: 6.00 Build 0)  -->
<svg version="1.1" id="Layer_1" xmlns="http://www.w3.org/2000/svg" xmlns:xlink="http://www.w3.org/1999/xlink" x="0px" y="0px"
	 viewBox="0 0 383 367" style="enable-background:new 0 0 383 367;" xml:space="preserve">
<style type="text/css">
	.st0{fill:url(#SVGID_1_);}
	.st1{fill:#FF5A75;}
	.st2{fill:#FBA284;}
	.st3{opacity:0.65;clip-path:url(#SVGID_3_);}
	.st4{opacity:0.3;enable-background:new    ;}
	.st5{fill:url(#SVGID_4_);}
	.st6{fill:#1A1A1A;}
	.st7{fill:#868686;}
	.st8{fill:url(#SVGID_5_);}
	.st9{fill:#D5DEE8;}
	.st10{fill:#C6C5C5;}
	.st11{fill:#98BEE5;}
	.st12{fill:#4C4C4D;}
	.st13{fill:#94C43D;}
	.st14{fill:#B1C2D2;}
	.st15{fill:#BCD0E1;}
	.st16{opacity:0.32;fill:#FFFFFF;enable-background:new    ;}
	.st17{opacity:0.857;fill:url(#SVGID_6_);enable-background:new    ;}
	.st18{fill:#0083E3;}
	.st19{fill:#2CAAFF;}
	.st20{fill:#C3A79E;}
	.st21{fill:#C70000;}
	.st22{fill:#FFFFFF;}
	.st23{fill:#F6D3A9;}
	.st24{opacity:0.102;enable-background:new    ;}
	.st25{fill:#985C0B;}
	.st26{fill:#FFDAA7;}
	.st27{fill:#DDBD98;}
	.st28{fill:#FF0000;}
	.st29{fill:#FF2727;}
	.st30{fill:#FF6060;}
	.st31{fill:#4DB7FF;}
	.st32{fill:#845631;}
	.st33{fill:#936037;}
	.st34{clip-path:url(#SVGID_8_);}
	.st35{fill:#8247A1;}
	.st36{fill:#80469F;}
	.st37{fill:#7F469E;}
	.st38{fill:#B658ED;}
	.st39{fill:#E395FF;}
	.st40{fill:#F6F6F6;}
	.st41{fill:#259CDB;}
	.st42{fill:#78DB23;}
	.st43{fill:#316861;}
	.st44{fill:#F2C78C;}
	.st45{fill:#FF0040;}
	.st46{fill:#AC5500;}
	.st47{fill:#EBAC00;}
	.st48{fill:#FDD920;}
	.st49{fill:#EDEDED;}
	.st50{fill:#D9D9D9;}
	.st51{fill:#F2F2F2;}
	.st52{fill:#292929;}
	.st53{fill:url(#SVGID_9_);}
	.st54{fill:#0090D2;}
	.st55{fill:url(#SVGID_10_);}
	.st56{fill:url(#SVGID_11_);}
	.st57{fill:url(#SVGID_12_);}
	.st58{fill:url(#SVGID_13_);}
	.st59{fill:url(#SVGID_14_);}
	.st60{fill:url(#SVGID_15_);}
	.st61{fill:url(#SVGID_16_);}
</style>
<g transform="translate(-743 -3639.558)">
	<g transform="translate(743 3726.802)">
		
			<linearGradient id="SVGID_1_" gradientUnits="userSpaceOnUse" x1="-293.9087" y1="610.3641" x2="-293.9087" y2="609.3641" gradientTransform="matrix(374.2139 0 0 -216.2441 110177.5391 132033.5156)">
			<stop  offset="0" style="stop-color:#FFBF88"/>
			<stop  offset="0.719" style="stop-color:#F7797F"/>
			<stop  offset="1" style="stop-color:#FF649D"/>
		</linearGradient>
		<path class="st0" d="M5.7,152.8l187-107l187.2,107L192.7,262.1L5.7,152.8z"/>
		<path class="st1" d="M5.7,165.7v-13.5l186.8,109.5v13.2L5.7,165.7z"/>
		<path class="st2" d="M379.9,164.5v-11.6L192.1,261.5v13.3L379.9,164.5z"/>
		<g>
			<defs>
				<path id="SVGID_2_" d="M472.1,147.6l-3.8-8l0,0l-12.6-2l-3.4-7.2l0,0l-12.6-1.9l-3.4-7.2l-12.6-2l-3.4-7.2l0,0l-12.6-2l-3.4-7.2
					l0,0l-12.6-2l-3.4-7.2l-12.6-1.9l-3.4-7.3l0,0l-12.6-2l-3.4-7.2l-12.6-2l-3.4-7.2L328,64.3l-3.4-7.2l0,0l-12.6-2l-3.4-7.2
					L296,46l-3.4-7.2l-12.6-2l-3.4-7.2l-12.6-2l-3.4-7.2l-12.6-2l-3.4-7.2l-12.6-2l-3.4-7.2L214.8,0l-9.1,5.2l-12.6-1.9L183,9.1
					l3.4,7.2l-8.2,4.8l-12.6-2L155.5,25l3.4,7.2l-8.2,4.8l-12.6-2l-10.1,5.9l3.4,7.2l-8.2,4.8l-12.6-2l-10.1,5.9l3.4,7.2l-8.2,4.8
					l-12.6-2l-10.1,5.9l3.4,7.2l-8.2,4.8l-12.6-2l-10.1,5.9l3.4,7.2l-8.2,4.8l-12.6-2l-10.1,5.9l3.4,7.2l-8.2,4.8l-12.6-2l-10.1,5.9
					l3.4,7.2l-8.2,4.8l-12.6-2l-10.1,5.9l3.4,7.2l-8.2,4.8l-12.6-2l-10.1,5.8l3.8,8l12.6,2l3.4,7.2l0,0l12.6,2l3.4,7.2l12.6,1.9
					l3.4,7.2l12.6,2l3.4,7.3l0,0l12.6,2l3.4,7.2l0,0l12.6,2l3.4,7.2l12.6,2l3.4,7.3l12.6,2l3.4,7.2l12.6,2l3.4,7.2l12.6,2l3.4,7.2
					l12.6,2l3.4,7.2l12.6,2l3.4,7.2l12.6,2l3.4,7.2l12.6,2l3.4,7.2l12.6,2l3.4,7.2l12.6,2l3.4,7.2l13.9,2.2l6.7-3.9l3.4-2l-3.4-7.2
					l8.2-4.8l12.6,2l7.2-4.3l2.9-1.7l-3.4-7.2l8.2-4.8l12.8,2.6l10.1-5.9l-3.4-7.2l8.2-4.8l12.6,2l10.1-5.9l-3.4-7.2l8.2-4.8l12.6,2
					l7.2-4.1l2.9-1.7l-3.4-7.2l8.2-4.8l12.6,2l0.5-0.2l9.6-5.6l-3.4-7.2l8.2-4.8l12.6,2l3.8-2.2l6.3-3.7l-3.4-7.2l8.2-4.8l12.6,2
					l10.1-5.9l-3.4-7.2l8.2-4.8l12.6,2l5.9-3.4l4.3-2.4l-3.4-7.2l8.2-4.8l12.6,2l10.1-5.9l-3.4-7.2L472.1,147.6z M466.4,140.6l3,6.5
					l-8.2,4.8l-11.2-1.7l-3-6.5l8.2-4.8L466.4,140.6z M387.7,185.4l-2.9,1.7l-11.2-1.7l-3-6.5l8.2-4.8l5.6,0.9l5.6,0.9l1.5,3.3
					l1.5,3.3L387.7,185.4z M357.4,203.1l-5.6-0.9l-5.6-0.9l-1.5-3.3l-1.5-3.3l8.2-4.8l11.2,1.7l3,6.5l-2.7,1.6L357.4,203.1z
					 M46,109.2l5.6,0.9l5.6,0.9l1.5,3.3l1.5,3.3l-2.9,1.7l-5.2,3l-11.2-1.7l-3-6.5L46,109.2z M100.9,77.2l5.6,0.9l5.6,0.9l1.5,3.3
					l1.5,3.3l-8.2,4.8l-11.2-1.7l-3-6.5L100.9,77.2z M120.1,66.1l8.2-4.8l11.2,1.7l3,6.5l-4.8,2.8l-3.4,2l-5.6-0.9l-5.6-0.9
					l-1.5-3.3L120.1,66.1z M141.7,62.7l8.2-4.8l11.2,1.7l3,6.5l-8.2,4.8l-5.6-0.9l-5.6-0.9l-1.5-3.3L141.7,62.7z M155.6,45.4
					l5.6,0.9l5.6,0.9l1.5,3.3l1.5,3.3l-5.1,3l-2.9,1.7l-11.2-1.7l-3-6.5L155.6,45.4z M183.1,29.4l5.6,0.9l5.6,0.9l1.5,3.3l1.5,3.3
					l-8.2,4.8l-11.2-1.7l-3-6.5L183.1,29.4z M210.5,13.5l5.6,0.9l5.6,0.9l1.5,3.3l1.5,3.3l-5.5,3.2l-2.7,1.6l-11.2-1.7l-3-6.5
					L210.5,13.5z M237.6,24.5l1.5,3.3l1.5,3.3l-1.7,1l-6.5,3.8l-11.2-1.7l-3-6.5l8.2-4.8l5.6,0.9L237.6,24.5z M253.6,33.7l0.4,0.9
					l2.6,5.6l-2.4,1.3l-5.7,3.3l-11.2-1.7l-3-6.5l8.2-4.8l5.6,0.9L253.6,33.7z M269.4,42.8l1.5,3.3l1.5,3.3l-8.2,4.8L253,52.4
					l-3-6.5l8.2-4.8l5.6,0.9L269.4,42.8z M285.4,52.1l1.5,3.3l1.5,3.3l-1.8,1l-6.3,3.7l-11.2-1.7l-3-6.5l8.2-4.8l5.6,0.9L285.4,52.1
					z M301.4,61.2l0.2,0.5l2.8,6l-2,1.1l-6.2,3.5L285,70.6l-3-6.5l8.2-4.8l1.6,0.2L301.4,61.2z M317.2,70.5l1.5,3.3l1.5,3.3l-1.8,1
					l-6.3,3.7l-11-1.8l-3-6.5l8.2-4.8l5.6,0.9L317.2,70.5z M333.2,79.6l1.5,3.2l1.5,3.3l-8.2,4.8l-11.2-1.7l-3-6.5l8.2-4.8l1.6,0.2
					L333.2,79.6z M349.1,88.8l1.5,3.2l1.5,3.3l-2.4,1.3l-5.7,3.3l-11.2-1.7l-3-6.5l8.2-4.8l5.6,0.9L349.1,88.8z M365,98.1l1.5,3.2
					l1.5,3.3l-5.5,3.2l-2.7,1.6l-11.2-1.7l-3-6.5l8.2-4.8l5.6,0.9L365,98.1z M381,107.2l1.5,3.3l1.5,3.3l-8.2,4.8l-11.2-1.7l-3-6.5
					l8.2-4.8l5.6,0.9L381,107.2z M396.9,116.5l1.5,3.3l1.5,3.3l-1.7,1l-6.5,3.8l-11.2-1.7l-3-6.5l8.2-4.8l5.6,0.9L396.9,116.5z
					 M412.9,125.6l1.5,3.3l1.5,3.3l-8,4.6l-0.1,0.1l-11.2-1.7l-3-6.5l8.2-4.8l5.6,0.9L412.9,125.6z M428.8,134.8l1.5,3.3l1.5,3.3
					l-6.8,3.9l-1.3,0.7l-11.2-1.7l-3-6.5l8.2-4.8l5.6,0.9L428.8,134.8z M401.4,158.9l-5.1,3l-11.2-1.7l-3-6.5l8.2-4.8l5.6,0.9
					l5.6,0.9l0,0l1.5,3.3l1.5,3.2L401.4,158.9z M182.7,276.9l-11.2-1.7l-3-6.5l8.2-4.8l5.6,0.9l5.6,0.9l1.5,3.3l1.5,3.3l-3.9,2.3
					L182.7,276.9z M150.9,258.4l-11.2-1.7l-3-6.5l8.2-4.8l5.6,0.9l5.6,0.9l1.5,3.3l1.5,3.3l-7.2,4.1L150.9,258.4z M134.9,249.3
					l-11.2-1.7l-3-6.5l8.2-4.8l9.6,1.5l1.6,0.2l1.5,3.3l1.5,3.3l-6.8,3.9L134.9,249.3z M118.9,240l-11.2-1.7l-3-6.5l8.2-4.8l5.6,0.9
					l5.6,0.9l1.5,3.2l1.5,3.3l-6.8,3.9L118.9,240z M71.1,212.5l-11.2-1.7l-3-6.5l8.2-4.8l10.2,1.6l1,0.1l1.5,3.3l1.5,3.3l-3.5,2.1
					L71.1,212.5z M55.3,203.2L44,201.5l-3-6.5l8.2-4.8l5.6,0.9l5.6,0.9l2.6,5.6l0.4,0.9l-3.9,2.3L55.3,203.2z M7.4,175.6l-11.2-1.7
					l-3-6.5l8.2-4.8l5.6,0.9l5.6,0.9l1.5,3.3l1.5,3.3l-6.2,3.7L7.4,175.6z M62,118.3l5.6,0.9l5.6,0.9l1.5,3.3l1.5,3.3l-8.2,4.8
					l-11.2-1.7l-3-6.5L62,118.3z M75.5,119.7l8.2-4.8l11.2,1.7l3,6.5l-8.2,4.8l-5.6-0.9l-5.6-0.9l-1.5-3.3L75.5,119.7z M87,94.5
					l8.2-4.8l11.2,1.7l3,6.5l-8.2,4.8l-5.6-0.9L90,101l-1.5-3.3L87,94.5z M116.7,86.5l5.6,0.9l5.6,0.9l0,0l1.5,3.3l1.5,3.3l-8.2,4.8
					l-11.2-1.7l-3-6.5L116.7,86.5z M130.3,87.8l8.2-4.8l5.6,0.9l5.6,0.9l0,0l1.5,3.3l1.5,3.3l-4.4,2.6l-3.8,2.2l-5.6-0.9l-5.6-0.9
					l-1.5-3.3L130.3,87.8z M136,75.3l8.2-4.8l11.2,1.7l3,6.5l-2.7,1.6l-5.5,3.2l-5.6-0.9l-5.6-0.9l-1.5-3.3L136,75.3z M157.7,71.8
					l8.2-4.8l11.2,1.7l3,6.5L172,80l-5.6-0.9l-5.6-0.9l-1.5-3.3L157.7,71.8z M169.2,46.7l8.2-4.8l11.2,1.7l3,6.5l-8.2,4.8h-0.1
					l-11-1.7L169.2,46.7L169.2,46.7z M199.1,38.7l5.6,0.9l5.6,0.9l0,0l1.5,3.3l1.5,3.3l-4.8,2.8l-3.4,2L193.8,50l-3-6.5L199.1,38.7z
					 M212.6,40l8.2-4.8L232,37l3,6.5l-8.2,4.8l-5.6-0.9l-5.6-0.9l-1.5-3.3L212.6,40z M385.5,149.8l-5.1,3l-11.2-1.7l-3-6.5l8.2-4.8
					l5.6,0.9l5.6,0.9l0,0l1.5,3.3l1.5,3.3L385.5,149.8z M355.9,167l-2.9,1.7l-11.2-1.7l-3-6.5l8.2-4.8l5.6,0.9l5.6,0.9l1.5,3.3
					l1.5,3.3L355.9,167z M325.5,184.7l-5.6-0.9l-5.6-0.9l-1.5-3.3l-1.5-3.3l8.2-4.8l11.2,1.7l3,6.5l-2.7,1.6L325.5,184.7z
					 M108.8,218.3l-11.2-1.7l-3-6.5l8.2-4.8l1.6,0.2l9.6,1.5l1.5,3.2l1.5,3.3l-4,2.3L108.8,218.3z M77.9,127.5l5.6,0.9l5.6,0.9
					l0.5,0.9l2.6,5.6l-7.4,4.4l-0.7,0.4l-11.2-1.7l-3-6.5L77.9,127.5z M102.9,103.8l8.2-4.8l11.2,1.7l3,6.5l-0.2,0.1l-7.9,4.6
					l-5.6-0.9l-5.6-0.9l-1.5-3.3L102.9,103.8z M132.7,95.6l5.6,0.9l5.6,0.9l0,0l0.1,0.1l2.9,6.3l-8.2,4.8l-11.2-1.7l-3-6.5
					L132.7,95.6z M152,84.4l8.2-4.8l11.2,1.7l3,6.5l-4.3,2.4l-3.9,2.3l-9.6-1.5l-1.6-0.2l-1.5-3.3L152,84.4z M185.1,56l8.2-4.8
					l11.2,1.7l3,6.5l-1.8,1.1l-6.3,3.7h-0.1l-11-1.7L185.1,56L185.1,56z M214.9,47.8l5.6,0.9l5.6,0.9l0,0l0.1,0.1l2.9,6.3l-3.3,2
					l-4.9,2.8L209.8,59l-3-6.5L214.9,47.8z M236.6,44.5l11.2,1.7l3,6.5l-8.2,4.8l-5.6-0.9l-5.6-0.9l-1.5-3.2l-1.5-3.3L236.6,44.5z
					 M260.4,67.6l8.2-4.8l11.2,1.7l3,6.5l-8.2,4.8l-1.6-0.2l-9.6-1.5l-1.5-3.2L260.4,67.6z M292.2,86l8.2-4.8l11.2,1.7l3,6.5
					l-8.2,4.8l-1.6-0.2l-9.6-1.5l-1.5-3.2L292.2,86z M321.8,104.8L321.8,104.8l1.5,3.3l1.5,3.3l-8.2,4.8l-11.2-1.7l-3-6.5l8.2-4.8
					l5.6,0.9L321.8,104.8L321.8,104.8z M337.6,113.9L337.6,113.9l1.5,3.3l1.5,3.3l-5.7,3.4l-2.3,1.3l-11.2-1.7l-3-6.5l8.2-4.8
					l5.6,0.9L337.6,113.9L337.6,113.9z M353.6,123.2L353.6,123.2l1.5,3.3l1.5,3.3l-4.3,2.4l-3.9,2.2l-11.2-1.7l-3-6.5l8.2-4.8
					l5.6,0.9L353.6,123.2z M369.6,132.3L369.6,132.3l1.5,3.3l1.5,3.3l-3.7,2.2l-4.5,2.6l-11.2-1.7l-3-6.5l8.2-4.8l5.6,0.9
					L369.6,132.3z M347.5,154.4l-2.9-6.3v-0.1l8.2-4.8l11.2,1.7l3,6.5l-8.2,4.8h-0.1L347.5,154.4z M232.7,220l-5.5,3.2l-11.2-1.7
					l-3-6.5l8.2-4.8l5.6,0.9l5.6,0.9l1.5,3.3l1.5,3.3L232.7,220z M172.5,255l-11.2-1.7l-3-6.5l8.2-4.8l5.6,0.9l5.6,0.9l1.5,3.3
					l1.5,3.3l-6.8,3.9L172.5,255z M140.6,236.7l-11.2-1.7l-3-6.5l8.2-4.8l5.6,0.9l5.6,0.9l1.5,3.2l1.5,3.3l-6.8,3.9L140.6,236.7z
					 M77,199.9l-11.2-1.7l-3-6.5l8.2-4.8l1.6,0.2l9.6,1.5l0.2,0.5l2.8,6l-3.5,2.1L77,199.9z M93.8,136.7l5.6,0.9l5.6,0.9l1.5,3.3
					l1.5,3.3l-8.2,4.8l-11.2-1.7l-3-6.5L93.8,136.7z M127,108.2l11.2,1.7l3,6.5l-2.7,1.6l-5.5,3.2l-5.6-0.9l-5.6-0.9l-1.5-3.2
					l-1.5-3.3L127,108.2z M168,93.7l8.2-4.8l11.2,1.7l3,6.5l-8.2,4.8l-5.6-0.9l-5.6-0.9l-1.5-3.2L168,93.7z M193.6,76.7L182.3,75
					l-3-6.5l8.2-4.8l5.6,0.9l5.6,0.9l0.5,0.9l2.6,5.6l-5.7,3.3L193.6,76.7z M262.7,75.5h0.2l10.9,1.7l3,6.5l-4.5,2.6l-3.7,2.1
					l-11.2-1.7l-3-6.5L262.7,75.5z M342.7,147h-0.1l-11-1.7l-2.9-6.3v-0.1l8.2-4.8l11.2,1.7l3,6.5l-5,2.9L342.7,147z M293.7,175.4
					l-5.9,3.4l-5.6-0.9l-5.6-0.9l-1.5-3.3l-1.5-3.3l8.2-4.8l5.6,0.9l5.6,0.9l0,0l1.5,3.2l1.5,3.3L293.7,175.4z M98.6,196.5
					l-11.2-1.7l-3-6.5l8.2-4.8l11.2,1.7l3,6.5L98.6,196.5z M88.1,149.3l11.2,1.7l3,6.5l-8.2,4.8l-11.2-1.7l-3-6.5L88.1,149.3z
					 M123.3,147.2l8.2-4.8l11.2,1.7l3,6.5l-8.2,4.8h-0.2l-10.9-1.7l-1.5-3.2L123.3,147.2z M162.2,106.2l8.2-4.8l5.6,0.9l5.6,0.9
					l1.5,3.2l1.5,3.2l-2.2,1.2l-6,3.4l-5.6-0.9l-5.6-0.9l-1.5-3.2L162.2,106.2z M183.8,102.8l8.2-4.8l11.2,1.7l3,6.5l-6.2,3.7
					l-1.8,1.1l-5.6-0.9l-5.6-0.9l-1.5-3.2L183.8,102.8z M205.5,99.5l8.2-4.8l11.2,1.7l3,6.5l-8.2,4.8l-1.6-0.2l-9.6-1.5l-1.5-3.2
					L205.5,99.5z M209.5,85.9l-11.2-1.7l-3-6.5l8.2-4.8l5.6,0.9l5.6,0.9l1.5,3.3l1.5,3.2l-4.4,2.6L209.5,85.9z M217,74.4l8.2-4.8
					l11.2,1.7l3,6.5l-7.7,4.5l-0.5,0.2l-2.9-0.5l-8.3-1.3L217,74.4L217,74.4z M271.1,96.2L263,101l-2.9-0.5l-8.3-1.3l-2-4.1
					l-1.1-2.3l8.2-4.8l11.2,1.7L271.1,96.2z M330,135.9l-3.3,2h-0.1l-11-1.7l-2-4l-1.1-2.4l8.2-4.8l11.2,1.7l3,6.5L330,135.9z
					 M308.1,139.4l-2.9,1.7l-11.2-1.7l-3-6.5l8.2-4.8l5.6,0.9l5.6,0.9l1.5,3.2l1.5,3.3L308.1,139.4z M278.5,165.9l-6.5,3.8l-5.6-0.9
					l-5.6-0.9l-0.4-0.9l-2.6-5.6l8.2-4.8l10.9,1.7h0.2l1.5,3.3l1.5,3.3L278.5,165.9z M152.1,211.5l-11.2-1.7l-3-6.5l8.2-4.8
					l11.2,1.7l3,6.5l-4,2.3L152.1,211.5z M93.2,182.2l-3-6.5l8.2-4.8l11.2,1.7l3,6.5l-8.2,4.8L93.2,182.2z M136.9,156.8l0.2,0.5
					l2.8,6l-1.7,1l-6.5,3.8l-11.2-1.7l-3-6.5l8.2-4.8l1.6,0.2L136.9,156.8z M150.8,131.4l8.2-4.8l11.2,1.7l3,6.5l-5.4,3.2l-2.7,1.6
					l-1.6-0.2l-9.6-1.5l-1.5-3.2L150.8,131.4z M178.1,115.4l8.2-4.8l5.6,0.9l5.6,0.9l2.9,6.3l0.1,0.1l-4.4,2.6l-3.8,2.2l-1.6-0.2
					l-9.6-1.5l-1.5-3.2L178.1,115.4z M221.5,108.7l8.2-4.8l11.2,1.7l3,6.5l-8.2,4.8l-5.6-0.9l-5.6-0.9l-0.2-0.5L221.5,108.7z
					 M219.4,82.2l5.6,0.9l5.6,0.9l1.5,3.3l1.5,3.3l-8.2,4.8l-11.2-1.7l-3-6.5L219.4,82.2z M246.5,93.1l0.2,0.5l2.8,6l-8.2,4.8
					l-11.2-1.7l-3-6.5l8.2-4.8l1.6,0.2L246.5,93.1z M262.5,102.3l1.5,3.3l1.5,3.3l-2.3,1.3l-5.9,3.4L246,112l-3.1-6.5l8.2-4.8
					l5.6,0.9L262.5,102.3z M278.3,111.5l1.5,3.2l1.5,3.3l-8.2,4.8l-11.2-1.7l-3-6.5l8.2-4.8l1.6,0.2L278.3,111.5z M294.3,120.7
					l1.5,3.2l1.5,3.3l-1.8,1.1l-6.3,3.7l-11.2-1.7l-3.1-6.5l8.2-4.8l5.6,0.9L294.3,120.7z M260.9,157.6l-4.8,2.8l-5.6-0.9l-5.6-0.9
					l-1.5-3.3l-1.5-3.3l8.2-4.8l5.6,0.9l5.6,0.9l0,0l1.5,3.2l1.5,3.3L260.9,157.6z M185.8,192l-6.2,3.7l-11.2-1.7l-3-6.5l8.2-4.8
					l5.6,0.9l5.6,0.9l1.5,3.2l1.5,3.3L185.8,192z M157.8,198.9l-11.2-1.7l-3-6.5l8.2-4.8l11.2,1.7l3,6.5L157.8,198.9z M126,180.6
					l-11.2-1.7l-3-6.5l8.2-4.8l11.2,1.7l3,6.5L126,180.6z M141.6,164.3l5.6,0.9l5.6,0.9l1.5,3.3l1.5,3.3l-8.2,4.8l-11.2-1.7l-3-6.5
					L141.6,164.3z M155.1,165.6l8.2-4.8l11.2,1.7l3,6.5l-8.3,4.8h-0.2l-10.9-1.7l-1.5-3.2L155.1,165.6z M202.2,119.9l11.2,1.7
					l1.5,3.2l1.5,3.2l-1.3,0.9l-6.8,3.9l-5.6-0.9L197,131l-0.2-0.5l-2.8-6L202.2,119.9z M215.8,121.2l8.2-4.8l11.2,1.7l3,6.5
					l-6.6,3.9l-1.6,0.9l-5.6-0.9l-5.6-0.9l-1.5-3.2L215.8,121.2z M237.4,117.8l8.2-4.8l11.2,1.7l3,6.5l-8.2,4.8l-1.6-0.2l-9.6-1.5
					l-1.5-3.2L237.4,117.8z M240,151.2l-5.6-0.9l-5.6-0.9l-1.5-3.3l-1.5-3.3l8.2-4.8l5.6,0.9l5.6,0.9l1.5,3.2l1.5,3.3l-1.3,0.7
					L240,151.2z M179.9,168.8l-3-6.5l8.2-4.8l11.2,1.7l3,6.5l-8.2,4.8L179.9,168.8z M182.6,149.8l8.2-4.8l11.2,1.7l3,6.5l-5.1,2.9
					l-3,1.7l-1.6-0.2l-9.6-1.5l-1.5-3.2L182.6,149.8z M218.1,129l5.6,0.9l5.6,0.9l2.9,6.3l0.1,0.1l-7.7,4.5l-0.4,0.2l-1.6-0.2
					l-9.6-1.5l-1.5-3.2l-1.5-3.3L218.1,129z M207.6,134.2l1.5,3.2l1.5,3.2l-8.2,4.8l-11.2-1.7l-3-6.5l8.2-4.8l5.6,0.9L207.6,134.2z
					 M212.7,167.1l-5.6-0.9l-5.6-0.9l-1.5-3.3l-1.5-3.3l8.2-4.8l11.2,1.7l3,6.5l-0.5,0.2L212.7,167.1z M218.4,154.5l-11.2-1.7
					l-3-6.5l8.2-4.8h0.2l10.9,1.7l1.5,3.2l1.5,3.3L218.4,154.5z M245.9,138.7l-5.6-0.9l-5.6-0.9l-2.6-5.6l-0.4-0.9l8.2-4.8l11.2,1.7
					l3,6.5L245.9,138.7z M191.6,125l3,6.5l-8.2,4.8l-11.2-1.7l-3-6.5l8.2-4.8h0.2L191.6,125z M174.8,135.7l11.2,1.7l3,6.5l-1.7,1
					l-6.5,3.8l-5.6-0.9l-5.6-0.9l-0.2-0.5l-2.8-6L174.8,135.7z M169.1,148.3l11.2,1.7l3,6.5l-7.7,4.4l-0.5,0.2l-11.2-1.7l-3-6.5
					L169.1,148.3z M171.7,181.7l-8.2,4.8l-11.2-1.7l-3-6.5l8.2-4.8l1.6,0.2l9.6,1.5l1.5,3.2L171.7,181.7z M185.3,183.1l-5.6-0.9
					l-5.6-0.9l-1.5-3.2l-1.5-3.2l8.2-4.8l11.2,1.7l3,6.5L185.3,183.1z M195.8,177.9l-3-6.5l8.2-4.8l11.2,1.7l3,6.5l-4,2.3l-4,2.3
					L195.8,177.9z M228.6,176.4l-5.6-0.9l-5.6-0.9l-1.5-3.3l-1.5-3.3l8.2-4.8l11.2,1.7l3,6.5L228.6,176.4z M234.3,163.8l-11.2-1.7
					l-3-6.5l8.2-4.8l5.6,0.9l5.6,0.9l1.5,3.2l1.5,3.3L234.3,163.8z M261.7,147.8l-5.6-0.9l-5.6-0.9l-1.5-3.3l-1.5-3.3l8.2-4.8
					l11.2,1.7l3,6.5l-4.8,2.8L261.7,147.8z M267.5,135.3l-5.6-0.9l-5.6-0.9l-1.5-3.3l-1.5-3.2l8.2-4.8l11.2,1.7l3.1,6.5L267.5,135.3
					z M208,107.3l11.2,1.7l3.1,6.5l-4.4,2.6l-3.7,2.2l-10.2-1.6l-1-0.1l-2.6-5.6l-0.4-0.9L208,107.3z M175.8,115.7l1.5,3.2l1.5,3.2
					l-8.2,4.8l-11.2-1.7l-3-6.5l8.2-4.8l5.6,0.9L175.8,115.7z M153.1,139.2l11.2,1.7l3,6.5l-6.1,3.5l-2,1.2l-11.2-1.7l-3-6.5
					L153.1,139.2z M147.3,151.7l11.2,1.7l3,6.5l-8.2,4.8l-5.6-0.9l-5.6-0.9l-3-6.5L147.3,151.7z M104,158.4l11.2,1.7l3,6.5l-8.2,4.8
					l-11.2-1.7l-3-6.5L104,158.4z M114.2,180.3l11.2,1.7l3,6.5l-8.2,4.8l-11.2-1.7l-3-6.5L114.2,180.3z M130.8,188.1l-3-6.5l8.2-4.8
					l11.2,1.7l3,6.5l-8.2,4.8L130.8,188.1z M156.9,219.1l-3-6.5l8.2-4.8l11.2,1.7l3,6.5l-4,2.3l-4,2.3L156.9,219.1z M173.8,208.2
					l-11.2-1.7l-3-6.5l8.2-4.8l11.2,1.7l3,6.5L173.8,208.2z M195.5,204.8l-11.2-1.7l-3-6.5l8.2-4.8l5.6,0.9l5.6,0.9l1.5,3.2l1.5,3.3
					L195.5,204.8z M201.2,192.2l-5.6-0.9l-5.6-0.9l-1.5-3.2l-1.5-3.2l8.2-4.8l11.2,1.7l3,6.5L201.2,192.2z M222.8,188.9l-11.2-1.7
					l-3-6.5l8.2-4.8l11.2,1.7l3,6.5l-4,2.3L222.8,188.9z M244.5,185.5l-5.6-0.9l-5.6-0.9L233,183l-2.6-5.6l8.2-4.8l11.1,1.7l3,6.5
					l-0.4,0.2L244.5,185.5z M239.2,171.2l-3-6.5l8.2-4.8l5.6,0.9l5.6,0.9l0,0l1.5,3.2l1.5,3.3l-8.2,4.8L239.2,171.2z M277.7,157
					l-5.6-0.9l-5.6-0.9L265,152l-1.5-3.3l8.2-4.8l11.2,1.7l3,6.5l-2.7,1.6L277.7,157z M283.5,144.4l-5.6-0.9l-5.6-0.9l-1.5-3.3
					l-1.5-3.3l8.2-4.8l11.2,1.7l3,6.5L283.5,144.4z M313.9,126.7l-3.2,1.8h-0.1l-11-1.7l-2.2-4.8l-0.7-1.7l8.2-4.8l11.2,1.7l3,6.5
					L313.9,126.7z M294.9,119.3h-0.1l-11-1.7l-2.3-4.8l-0.7-1.7l8.2-4.8l11.2,1.7l3,6.5L294.9,119.3z M282.1,108.3l-3,1.8h-0.1
					l-11.1-1.7l-2.9-6.3V102l8.2-4.8l11.2,1.7l3,6.5L282.1,108.3z M247.1,91.7L247.1,91.7L235.9,90l-2.9-6.3v-0.1l8.2-4.8l11.2,1.7
					l3,6.5L247.1,91.7z M142.9,117.5l11.2,1.7l3,6.5l-8.2,4.8l-5.6-0.9l-5.6-0.9l-1.5-3.2l-1.5-3.3L142.9,117.5z M137.2,130
					l11.2,1.7l3,6.5l-7.7,4.4l-0.5,0.2l-11.2-1.7l-3-6.5L137.2,130z M120.9,147.6l1.5,3.3l1.5,3.3l-8.2,4.8l-11.2-1.7l-3-6.5
					l8.2-4.8l5.6,0.9L120.9,147.6z M82.3,161.8l11.2,1.7l3,6.5l-4,2.3l-4,2.3l-11.2-1.7l-3-6.5L82.3,161.8z M76.6,174.4l11.2,1.7
					l3,6.5l-8.2,4.8l-11.2-1.7l-3-6.5L76.6,174.4z M125,200.6l-3-6.5l8.2-4.8l11.2,1.7l3,6.5l-8.2,4.8L125,200.6z M140.4,211.2
					l11.2,1.7l3,6.5l-8.2,4.8l-11.2-1.7l-3-6.5L140.4,211.2z M162.3,233.3l-11.2-1.7l-3-6.5l8.2-4.8l11.2,1.7l3,6.5L162.3,233.3z
					 M172.8,228.2l-3-6.5l8.2-4.8l11.2,1.7l3,6.5l-4,2.3l-4.3,2.4L172.8,228.2z M189.8,217.3l-11.2-1.7l-3-6.5l8.2-4.8l11.2,1.7
					l3,6.5L189.8,217.3z M211.4,214l-11.2-1.7l-3-6.5l8.2-4.8l5.6,0.9l5.6,0.9l1.5,3.3l1.5,3.3l-1.5,0.9L211.4,214z M217.1,201.5
					l-5.6-0.9l-5.6-0.9l-0.1-0.1l-2.9-6.3l8.2-4.8l11.2,1.7l3,6.5L217.1,201.5z M238.8,198.1l-11.2-1.7l-3.1-6.5l8.2-4.8l11.2,1.7
					l3,6.5l-4,2.3L238.8,198.1z M248.7,194.4l11.2,1.7l3,6.5l-8.2,4.8l-11.2-1.7l-3-6.5L248.7,194.4z M260.5,194.8l-5.6-0.9
					l-5.6-0.9l-1.5-3.3l-1.5-3.3l8.2-4.8l11.2,1.7l3,6.5l-5.2,3L260.5,194.8z M266.3,182.1l-11.2-1.7l-3-6.5l8.2-4.8l5.6,0.9
					l5.6,0.9l1.5,3.3l1.5,3.3L266.3,182.1z M293.6,166.2l-5.6-0.9l-5.6-0.9l-1.5-3.3l-1.5-3.3l8.2-4.8l11.2,1.7l3,6.5l-4.8,2.8
					L293.6,166.2z M299.4,153.7l-5.6-0.9l-5.6-0.9l-0.5-0.9l-2.6-5.6l8.2-4.8l11.2,1.7l3,6.5L299.4,153.7z M321,150.3l-11.2-1.7
					l-3-6.5l8.2-4.8l5.6,0.9l5.6,0.9l1.5,3.3l1.5,3.3l-3.8,2.2L321,150.3z M209.2,60.4l11.2,1.7l3,6.5l-6.5,3.8l-1.6,1l-2.9-0.5
					l-8.3-1.3l-2.9-6.3V65L209.2,60.4z M197.7,85.5l11.2,1.7l3,6.5l-8.2,4.8l-5.6-0.9l-5.6-0.9l-1.5-3.2l-1.5-3.3L197.7,85.5z
					 M161.4,109.8l1.5,3.2l-8.2,4.8l-11.2-1.7l-3-6.5l8.2-4.8l5.6,0.9l5.6,0.9L161.4,109.8z M121.2,120.7l11.2,1.7l3,6.5l-2,1.2
					l-6.1,3.5l-11.2-1.7l-3-6.5L121.2,120.7z M115.5,133.3l11.2,1.7l3,6.5l-8.2,4.8l-5.6-0.9l-5.6-0.9l-1.5-3.2l-1.5-3.3
					L115.5,133.3z M86.4,148.3l-8.2,4.8L67,151.4l-3-6.5l8.2-4.8l11.2,1.7L86.4,148.3z M66.4,152.6l11.2,1.7l3,6.5l-4,2.3l-4,2.3
					l-11.2-1.7l-3-6.5L66.4,152.6z M60.6,165.1l11.2,1.7l3,6.5l-8.2,4.8l-11.2-1.7l-3-6.5L60.6,165.1z M39,168.6l5.6,0.9l5.6,0.9
					l1.5,3.3l1.5,3.3l-8.2,4.8l-11.2-1.7l-3-6.5L39,168.6z M54.9,177.7l5.6,0.9l5.6,0.9l1.5,3.3L69,186l-8.2,4.8L49.6,189l-3-6.5
					L54.9,177.7z M114.5,205.8l-11.2-1.7l-3-6.5l8.2-4.8l11.2,1.7l3,6.5L114.5,205.8z M124.4,202l11.2,1.7l3,6.5l-8.2,4.8l-11.2-1.7
					l-3-6.5L124.4,202z M150.5,233l5.6,0.9l5.6,0.9l1.5,3.3l1.5,3.3l-8.2,4.8l-11.2-1.7l-3-6.5L150.5,233z M178.2,242.5l-11.2-1.7
					l-3-6.5l8.2-4.8l11.2,1.7l3,6.5L178.2,242.5z M188.7,237.5l-3-6.5l8.2-4.8L205,228l3,6.5l-4,2.3l-4,2.3L188.7,237.5z
					 M205.6,226.6l-11.2-1.7l-3-6.5l8.2-4.8l11.2,1.7l3,6.5L205.6,226.6z M233.1,210.6l-5.6-0.9l-5.6-0.9l-1.5-3.3l-1.5-3.3l8.2-4.8
					l11.2,1.7l3,6.5L233.1,210.6z M276.4,203.9l-5.6-0.9l-5.6-0.9l-1.5-3.3l-1.5-3.3l8.2-4.8l11.2,1.7l3,6.5l-1.8,1L276.4,203.9z
					 M282.1,191.4l-11.2-1.7l-3-6.5l8.2-4.8l5.6,0.9l5.6,0.9l1.5,3.3l1.5,3.3L282.1,191.4z M291.1,183.1l-1.5-3.3l8.2-4.8l5.6,0.9
					l5.6,0.9l1.5,3.3l1.5,3.3l-8.2,4.8l-5.6-0.9l-5.6-0.9L291.1,183.1z M309.6,175.4l-5.6-0.9l-5.6-0.9l-1.5-3.3l-1.5-3.3l8.2-4.8
					l11.2,1.7l3,6.5l-2.7,1.6L309.6,175.4z M315.3,162.8l-5.6-0.9l-5.6-0.9l-1.5-3.3l-1.5-3.3l8.2-4.8l11.2,1.7l3,6.5L315.3,162.8z
					 M325.8,157.7l-3-6.5l8.2-4.8l5.6,0.9l5.6,0.9l1.5,3.3l1.5,3.3l-5.1,3l-2.9,1.7L325.8,157.7z M308.8,102.1l-8.2,4.8l-11.2-1.7
					l-3-6.5l8.2-4.8h0.2l10.9,1.7l1.5,3.2L308.8,102.1z M289.8,86.4l1.5,3.2l1.5,3.2l-4.5,2.6l-3.7,2.1l-11.2-1.7l-3-6.5l8.2-4.8
					l5.6,0.9L289.8,86.4z M259.5,71.2l1.5,3.2l-6.5,3.8l-1.7,1l-11.2-1.7l-3-6.5l8.2-4.8l5.6,0.9l5.6,0.9L259.5,71.2z M237,70
					l-11.2-1.7l-3-6.5l8.2-4.8l5.6,0.9l5.6,0.9l1.5,3.2l1.5,3.2L237,70z M181.7,76.3l11.2,1.7l3,6.5l-8.2,4.8l-5.6-0.9l-5.6-0.9
					l-1.5-3.2l-1.5-3.3L181.7,76.3z M154.4,92.3l5.6,0.9l5.6,0.9l1.5,3.2l1.5,3.2l-8.2,4.8l-5.6-0.9l-5.6-0.9l-1.5-3.2l-1.5-3.3
					L154.4,92.3z M105.3,111.6l11.2,1.7l3,6.5l-0.4,0.2l-7.8,4.5l-11.2-1.7l-3-6.5L105.3,111.6z M99.5,124.2l11.2,1.7l3,6.5
					l-8.2,4.8l-5.6-0.9l-5.6-0.9l-1.5-3.2l-1.5-3.3L99.5,124.2z M50.5,143.4l11.2,1.7l3.1,6.5l-8.2,4.8l-11.2-1.7l-3-6.5L50.5,143.4
					z M44.8,156l11.2,1.7l3,6.5l-8.2,4.8l-11.2-1.7l-3-6.5L44.8,156z M23.1,159.4l5.6,0.9l5.6,0.9l0.4,0.9l2.6,5.6l-3.5,2.1
					l-4.6,2.7l-11.2-1.7l-3-6.5L23.1,159.4z M92.8,209.1l-11.2-1.7l-3-6.5l8.2-4.8l5.6,0.9l5.6,0.9l1.5,3.3l1.5,3.3l-3.5,2.1
					L92.8,209.1z M118.7,214.5l5.6,0.9l5.6,0.9l1.5,3.2l1.5,3.3l-7.2,4.1l-1,0.6l-11.2-1.7l-3-6.5L118.7,214.5z M189.8,263.4
					l-1.3,0.7l-11.2-1.7l-3-6.5l8.2-4.8l5.6,0.9l5.6,0.9l1.5,3.3l1.5,3.3L189.8,263.4z M194.2,251.7L183,250l-3-6.5l8.2-4.8
					l11.2,1.7l3,6.5L194.2,251.7z M204.7,246.6l-3-6.5l8.2-4.8l11.2,1.7l3,6.5l-4,2.3l-4,2.3L204.7,246.6z M221.6,235.8l-11.2-1.7
					l-3-6.5l8.2-4.8l11.2,1.7l3,6.5L221.6,235.8z M243.2,232.5l-11.2-1.7l-3-6.5l8.2-4.8l5.6,0.9l5.6,0.9l1.5,3.3l1.5,3.3
					L243.2,232.5z M249.1,219.9l-5.6-0.9l-5.6-0.9l-1.5-3.3l-1.5-3.3l8.2-4.8l11.2,1.7l3,6.5L249.1,219.9z M270.6,216.5l-11.2-1.7
					l-3-6.5l8.2-4.8l11.2,1.7l3,6.5l-1.5,0.9L270.6,216.5z M279.7,208.2l-1.5-3.3l8.2-4.8l11.2,1.7l3,6.5l-8.2,4.8l-5.6-0.9
					l-5.6-0.9L279.7,208.2z M298.1,200.5l-11.2-1.7l-3-6.5l8.2-4.8l5.6,0.9l5.6,0.9l1.5,3.3l1.5,3.3L298.1,200.5z M331.3,172.1
					l-5.6-0.9l-5.6-0.9l-1.5-3.3l-1.5-3.3l8.2-4.8l11.2,1.7l3,6.5L331.3,172.1z M386,140.1l-5.6-0.9l-5.6-0.9l-1.5-3.3l-1.5-3.3
					l8.2-4.8l11.2,1.7l3,6.5L386,140.1z M378.2,126.2l-8.2,4.8l-5.6-0.9l-5.6-0.9l-1.5-3.3l-1.5-3.3l8.2-4.8l11.2,1.7L378.2,126.2z
					 M362.4,117.1l-8.2,4.8l-5.6-0.9l-5.6-0.9l-0.5-0.9l-2.6-5.6l8.2-4.8l11.2,1.7L362.4,117.1z M346.4,107.8l-8.2,4.8l-5.6-0.9
					l-5.6-0.9l-1.5-3.3l-1.5-3.3l8.2-4.8l11.2,1.7L346.4,107.8z M330.4,98.7l-8.2,4.8l-5.6-0.9l-5.6-0.9l-1.5-3.3l-1.5-3.3l8.2-4.8
					l11.2,1.7L330.4,98.7z M298.6,80.3l-8.2,4.8l-5.6-0.9l-5.6-0.9l-0.2-0.5l-2.8-6l8.2-4.8l11.2,1.7L298.6,80.3z M266.7,61.8
					l-8.2,4.8l-5.6-0.9l-5.6-0.9l-1.5-3.2l-1.5-3.3l8.2-4.8l11.2,1.7L266.7,61.8z M171.6,54.6l5.6,0.9l5.6,0.9l1.5,3.3l1.5,3.3
					l-8.2,4.8L166.4,66l-3-6.5L171.6,54.6z M89.4,102.3l11.2,1.7l3,6.5l-4,2.3l-4,2.3l-11.2-1.7l-3-6.5L89.4,102.3z M56.2,130.9
					l11.2,1.7l3,6.5l-8.2,4.8l-11.2-1.7l-3-6.5L56.2,130.9z M34.5,134.3l11.2,1.7l3,6.5l-8.2,4.8l-11.2-1.7l-3-6.5L34.5,134.3z
					 M28.8,146.8l11.2,1.7l3,6.5l-8.2,4.8l-11.2-1.7l-3-6.5L28.8,146.8z M7.1,150.1l5.6,0.9l5.6,0.9l1.5,3.3l1.5,3.3l-6.8,3.9
					l-1.3,0.7l-11.2-1.7l-3-6.5L7.1,150.1z M17.3,172l5.6,0.9l5.6,0.9L30,177l1.5,3.3l-8.2,4.8l-11.2-1.7l-3-6.5L17.3,172z
					 M33.3,181.1l5.6,0.9l5.6,0.9l1.5,3.3l1.5,3.3l-8.2,4.8l-11.2-1.7l-3-6.5L33.3,181.1z M81,208.7l5.6,0.9l5.6,0.9l2.6,5.6l0.4,1
					l-8.2,4.8L75.7,220l-3-6.5L81,208.7z M160.8,254.7l5.6,0.9l5.6,0.9l1.5,3.3l1.5,3.3l-8.2,4.8l-11.2-1.7l-3-6.5L160.8,254.7z
					 M205.4,273l-1,0.6l-11.2-1.7l-3-6.5l8.2-4.8l5.6,0.9l5.6,0.9l1.5,3.3l1.5,3.3L205.4,273z M210.2,260.9l-11.2-1.7l-3-6.5
					l8.2-4.8l11.2,1.7l3,6.5L210.2,260.9z M231.7,257.6l-11.2-1.7l-3-6.5l8.2-4.8l11.2,1.7l3,6.5l-6,3.4L231.7,257.6z M237.5,245
					l-11.2-1.7l-3-6.5l8.2-4.8l11.2,1.7l3,6.5L237.5,245z M259.2,241.6l-11.2-1.7l-3-6.5l8.2-4.8l5.6,0.9l5.6,0.9l1.5,3.3l1.5,3.3
					L259.2,241.6z M264.9,229l-5.6-0.9l-5.6-0.9l-1.5-3.3l-1.5-3.3l8.2-4.8l11.2,1.7l3,6.5L264.9,229z M275.4,223.9l-3-6.5l8.2-4.8
					l11.2,1.7l3,6.5l-4,2.3l-4,2.3L275.4,223.9z M297.1,220.6l-1.5-3.3l-1.5-3.3l8.2-4.8l11.2,1.7l3,6.5l-8.2,4.8l-5.6-0.9
					L297.1,220.6z M314.1,209.8l-11.2-1.7l-3-6.5l8.2-4.8l5.6,0.9l5.6,0.9l1.5,3.3l1.5,3.3L314.1,209.8z M319.8,197.2l-5.6-0.9
					l-5.6-0.9l-1.5-3.3l-1.5-3.3l8.2-4.8l5.6,0.9l5.6,0.9l1.5,3.3l1.5,3.3l-1.3,0.7L319.8,197.2z M328.7,188.8l-1.5-3.3l8.2-4.8
					l11.2,1.7l3,6.5l-8.2,4.8l-5.6-0.9l-5.6-0.7L328.7,188.8z M347.1,181.2l-5.6-0.9l-5.6-0.9l-1.5-3.3l-1.5-3.3l8.2-4.8l11.2,1.7
					l3,6.5L347.1,181.2z M357.6,176.1l-3-6.5l8.2-4.8l5.6,0.9l5.6,0.9l1.5,3.3l1.5,3.3l-8.2,4.8L357.6,176.1z M374.6,165.4h-0.1
					l-11-1.7l-2.9-6.3v-0.1l8.2-4.8l11.2,1.7l3,6.5L374.6,165.4z M402,149.4l-5.6-0.9l-5.6-0.9l-1.5-3.3l-1.5-3.3l8.2-4.8l11.2,1.7
					l3,6.5L402,149.4z M204.8,26.1l11.2,1.7l3,6.5l-8.2,4.8l-5.6-0.9l-5.6-0.9l-1.5-3.3l-1.5-3.3L204.8,26.1z M122.5,73.9l5.6,0.9
					l5.6,0.9l0,0l1.5,3.3l1.5,3.3l-3.3,2l-4.8,2.8l-5.6-1l-5.6-0.9l-1.5-3.3l-1.5-3.2L122.5,73.9z M73.4,93.2l11.2,1.7l3,6.5
					l-8.2,4.8l-11.2-1.7l-3-6.5L73.4,93.2z M67.7,105.7l11.2,1.7l3,6.5l-8.2,4.8l-5.6-0.9l-5.6-0.9l-1.5-3.3l-1.5-3.3L67.7,105.7z
					 M40.3,121.7l11.2,1.7l3,6.5l-8.2,4.8l-11.2-1.7l-3-6.5L40.3,121.7z M18.5,125l11.2,1.7l3,6.5l-8.2,4.8l-11.2-1.7l-3-6.5
					L18.5,125z M12.8,137.6l11.2,1.7l3,6.5l-8.2,4.8l-11.2-1.7l-3-6.5L12.8,137.6z M-8.8,141l5.6,0.9l5.6,0.9l1.5,3.3l1.5,3.3
					l-5,2.9l-3.2,1.8l-11.2-1.7l-3-6.5L-8.8,141z M-14.5,153.6l5.6,0.9l5.6,0.9l1.5,3.3l1.5,3.3l-6.8,3.9l-1.3,0.7l-11.2-1.7l-3-6.5
					L-14.5,153.6z M97,218l5.6,0.9l5.6,0.9l1.5,3.2l1.5,3.3l-7.2,4.1l-1,0.6l-11.2-1.7l-3-6.5L97,218z M198.6,286l-11.2-1.7l-3-6.5
					l8.2-4.8l5.6,0.9l5.6,0.9l1.5,3.3l1.5,3.3l-0.4,0.2L198.6,286z M221.6,281.9l-1.3,0.7l-11.2-1.7l-3-6.5l8.2-4.8l5.6,0.9l5.6,0.9
					l1.5,3.3l1.5,3.3L221.6,281.9z M226,270.2l-11.2-1.7l-3-6.5l8.2-4.8l11.2,1.7l3,6.5L226,270.2z M236.5,265l-3-6.5l8.2-4.8
					l11.2,1.7l3,6.5l-8.2,4.8L236.5,265z M253.5,254.2l-11.2-1.7l-3-6.5l8.2-4.8l11.2,1.7l3,6.5L253.5,254.2z M275.2,250.8
					l-11.2-1.7l-3-6.5l8.2-4.8l5.6,0.9l5.6,0.9l1.5,3.3l1.5,3.3L275.2,250.8z M280.9,238.2l-5.6-0.9l-5.6-0.9l-1.5-3.3l-1.5-3.3
					l8.2-4.8l11.2,1.7l3,6.5L280.9,238.2z M302.6,234.9l-11.2-1.7l-3-6.5l8.2-4.8l11.2,1.7l3,6.5l-4,2.3L302.6,234.9z M329.9,218.9
					l-11.2-1.7l-3-6.5l8.2-4.8l5.6,0.9l5.6,0.9l1.5,3.3l1.5,3.3L329.9,218.9z M335.7,206.4l-5.6-0.9l-5.6-0.9l-1.5-3.3l-1.5-3.3
					l8.2-4.8l5.6,0.9l5.6,0.9l1.5,3.3l1.5,3.3l-2.7,1.6L335.7,206.4z M363.1,190.5l-5.6-0.9l-5.6-0.9l-1.5-3.3l-1.5-3.3l8.2-4.8
					l11.2,1.7l3,6.5L363.1,190.5z M390.5,174.5h-0.1l-11-1.7l-2.9-6.3v-0.1l8.2-4.8l11.2,1.7l3,6.5l-5,2.9L390.5,174.5z
					 M412.1,171.1l-11.2-1.7l-3-6.5l8.2-4.8l5.6,0.9l5.6,0.9l0,0l1.5,3.3l1.5,3.3L412.1,171.1z M418,158.6l-5.6-0.9l-5.6-0.9
					l-1.5-3.3l-1.5-3.3l8.2-4.8l11.2,1.7l3,6.5L418,158.6z M439.6,155.3l-11.2-1.7l-2.9-6.6l8.2-4.8l5.6,0.9l5.6,0.9l1.5,3.3
					l1.5,3.3l-1.7,1L439.6,155.3z M450.4,131.5l3,6.5l-8.2,4.8l-11.2-1.7l-3-6.5l8.2-4.8L450.4,131.5z M434.6,122.3l3,6.5l-8.2,4.8
					l-11.2-1.7l-3-6.5l8.2-4.8L434.6,122.3z M418.6,113.1l3,6.5l-8.2,4.8l-11.2-1.7l-3-6.5l8.2-4.8L418.6,113.1z M402.6,103.9l3,6.5
					l-8.2,4.8l-11.2-1.7l-3-6.5l8.2-4.8L402.6,103.9z M386.8,94.6l3,6.5l-8.2,4.8l-11.2-1.7l-3-6.5l8.2-4.8L386.8,94.6z M370.8,85.5
					l3,6.5l-8.2,4.8L354.4,95l-3-6.5l8.2-4.8L370.8,85.5z M354.8,76.2l3,6.5l-8.2,4.8l-11.2-1.7l-3-6.5l8.2-4.8L354.8,76.2z
					 M338.9,67.1l3,6.5l-8.2,4.8l-11.2-1.7l-3-6.5l8.2-4.8L338.9,67.1z M323,57.9l3,6.5l-8.2,4.8l-11.2-1.7l-3-6.5l8.2-4.8L323,57.9
					z M307.1,48.7l3,6.5l-8.2,4.8l-11.2-1.7l-3-6.5l8.2-4.8L307.1,48.7z M291.1,39.5l3,6.5l-8.2,4.8L274.8,49l-3-6.5l8.2-4.8
					L291.1,39.5z M275.2,30.2l3,6.5l-8.2,4.8l-11.2-1.7l-3-6.5l8.2-4.8L275.2,30.2z M259.3,21.1l3,6.5l-8.2,4.8L243,30.6l-3-6.5
					l8.2-4.8L259.3,21.1z M243.3,12l3,6.5l-8.2,4.8L227,21.5l-3-6.5l8.2-4.8L243.3,12z M216.3,1l11.2,1.7l3,6.5l-8.2,4.8l-11.2-1.7
					l-3-6.5L216.3,1z M186.4,9l8.2-4.8L205.8,6l1.5,3.3l1.5,3.3l-1.5,0.9l-6.7,3.9l-11.2-1.7L186.4,9z M188.8,16.8l11.2,1.7l3,6.5
					l-8.2,4.8l-5.6-0.9l-5.6-0.9l-1.5-3.3l-1.5-3.3L188.8,16.8z M159,25l8.2-4.8l11.2,1.7l1.5,3.3l1.5,3.3l-3,1.7l-5.1,3L162,31.6
					L159,25z M161.4,32.8l11.2,1.7l3,6.5l-8.2,4.8h-0.1l-11-1.7l-2.9-6.3v-0.1L161.4,32.8z M131.6,41l8.2-4.8l11.2,1.7l1.5,3.3
					l1.5,3.3l-5.1,3l-2.9,1.7l-11.2-1.7L131.6,41z M134,48.8l11.2,1.7l3,6.5l-8.2,4.8l-5.6-0.9l-5.6-0.9l-1.5-3.3l-1.5-3.3L134,48.8
					z M104.2,56.8l8.2-4.8l11.2,1.7l3,6.5l-2.7,1.6l-5.5,3.2l-5.6-0.9l-5.6-0.9L104.2,56.8z M106.6,64.6l5.6,0.9l5.6,0.9l1.5,3.3
					l1.5,3.3l-5.7,3.4l-2.3,1.3l-5.6-0.9l-5.6-0.9l-1.5-3.3l-1.5-3.3L106.6,64.6z M76.7,72.8l8.2-4.8l11.2,1.7l1.5,3.3l1.5,3.3
					l-8.2,4.8l-11.2-1.7L76.7,72.8z M79.2,80.6l11.2,1.7l3,6.5l-8.2,4.8l-5.6-0.9L74,91.8l-1.5-3.3l-1.5-3.3L79.2,80.6z M49.4,88.7
					l8.2-4.8l11.2,1.7l3,6.5l-4,2.3l-4,2.3L52.6,95L49.4,88.7z M51.7,96.6l11.2,1.7l3,6.5l-8.2,4.8l-5.6-0.9l-5.6-0.9l-1.5-3.3
					l-1.5-3.3L51.7,96.6z M22,104.6l8.2-4.8l11.2,1.7l1.5,3.3l1.5,3.3l-8.2,4.8l-11.2-1.7L22,104.6z M24.4,112.5l11.2,1.7l3,6.5
					l-8.2,4.8l-11.2-1.7l-3-6.5L24.4,112.5z M-5.5,120.6l8.2-4.8l11.2,1.7l3,6.5l-8.2,4.8l-11.2-1.7L-5.5,120.6z M-3,128.4l11.2,1.7
					l3,6.5L3,141.4l-11.2-1.7l-3-6.5L-3,128.4z M-32.9,136.5l8.2-4.8l11.2,1.7l1.5,3.3l1.5,3.3l-6.8,3.9l-1.3,0.7l-11.2-1.7
					L-32.9,136.5z M-30.5,144.3l5.6,0.9l5.6,0.9l1.5,3.3l1.5,3.3l-3.9,2.3l-4.3,2.4l-11.1-1.8l-3-6.5L-30.5,144.3z M-57.3,158.9
					l-3-6.5l8.2-4.8l11.2,1.7l1.5,3.3l1.5,3.3l-8.2,4.8L-57.3,158.9z M-41.3,168.1l-3-6.5l8.2-4.8l5.6,0.9l5.6,0.9l1.5,3.3l1.5,3.3
					l-8.2,4.8L-41.3,168.1z M-25.4,177.3l-3-6.5l8.2-4.8l5.6,0.9l5.6,0.9l1.5,3.3l1.5,3.3l-8.2,4.8L-25.4,177.3z M-12.6,180l8.2-4.8
					l5.6,0.9l5.6,0.9l0.5,0.9l2.6,5.6l-0.7,0.5l-7.4,4.3l-11.2-1.7L-12.6,180z M3.4,189.2l8.2-4.8l5.6,0.9l5.6,0.9l1.5,3.3l1.5,3.3
					l-4,2.3l-4,2.3l-11.2-1.7L3.4,189.2z M22.4,204.9l-3-6.5l8.2-4.8l5.6,0.9l5.6,0.9l1.5,3.3l1.5,3.3l-8.2,4.8L22.4,204.9z
					 M35.3,207.6l8.2-4.8l1.6,0.2l9.6,1.5l0.2,0.5l2.8,6l-1.2,0.7l-7,4L38.3,214L35.3,207.6z M54.3,223.3l-3-6.5l8.2-4.8L65,213
					l5.6,0.9l1.5,3.3l1.5,3.3l-8.2,4.8L54.3,223.3z M67.2,226l8.2-4.8l1.6,0.2l9.6,1.5l1.5,3.2l1.5,3.3l-0.4,0.2l-7.8,4.5l-11.2-1.7
					L67.2,226z M97.3,243.4l-11.2-1.7l-3-6.5l8.2-4.8l5.6,0.9l5.6,0.9l1.5,3.2l1.5,3.3l-6.5,3.8L97.3,243.4z M99,244.4l8.2-4.8
					l5.6,0.9l5.6,0.9l1.5,3.2l1.5,3.3l-0.7,0.5l-7.4,4.3l-11.2-1.7L99,244.4z M117.9,260l-3-6.5l8.2-4.8l5.6,0.9l5.6,0.9l1.5,3.3
					l1.5,3.3l-8.2,4.8L117.9,260z M130.9,262.8l8.2-4.8l5.6,0.9l5.6,0.9l1.5,3.3l1.5,3.3l-4,2.3l-4,2.3l-11.2-1.7L130.9,262.8z
					 M146.8,272l8.2-4.8l5.6,0.9l5.6,0.9l1.5,3.3l1.5,3.3l-0.7,0.5l-7.4,4.3l-11.2-1.7L146.8,272z M165.7,287.7l-3-6.5l8.2-4.8
					l5.6,0.9l5.6,0.9l1.5,3.3l1.5,3.3l-8.2,4.8L165.7,287.7z M181.7,296.9l-3-6.5l8.2-4.8l5.6,0.9l5.6,0.9l1.5,3.3l1.5,3.3l-8.2,4.8
					L181.7,296.9z M217,303.1l-8.2,4.8l-11.2-1.7l-3-6.5l8.2-4.8l5.6,0.9l5.6,0.9L217,303.1z M214.5,295.3l-11.2-1.7l-3-6.5l8.2-4.8
					l5.6,0.9l5.6,0.9l1.5,3.3l1.5,3.3L214.5,295.3z M244.4,287.1l-8.2,4.8l-11.2-1.7l-3-6.5l8.2-4.8l5.6,0.9l5.6,0.9L244.4,287.1z
					 M242,279.3l-11.2-1.7l-3-6.5l8.2-4.8l11.2,1.7l3,6.5L242,279.3z M271.7,271.2l-8.2,4.8l-11.2-1.7l-3-6.5l8.2-4.8l11.2,1.7
					L271.7,271.2z M269.4,263.3l-11.2-1.7l-3-6.5l8.2-4.8l11.2,1.7l3,6.5L269.4,263.3z M299.2,255.3L291,260l-11.2-1.7l-3-6.5
					l8.2-4.8l5.6,0.9l5.6,0.9L299.2,255.3z M296.7,247.5l-5.6-0.9l-5.6-0.9l-1.5-3.3l-1.5-3.3l8.2-4.8l11.2,1.7l3,6.5L296.7,247.5z
					 M326.6,239.3l-8.2,4.8l-11.2-1.7l-3-6.5l8.2-4.8l11.2,1.7L326.6,239.3z M324.2,231.5l-5.6-0.9l-5.6-0.9l-1.5-3.3l-1.5-3.3
					l8.2-4.8l11.2,1.7l3,6.5L324.2,231.5z M354.1,223.4l-8.2,4.8l-11.1-1.7l-3-6.5l8.2-4.8l5.6,0.9l5.6,0.9L354.1,223.4z
					 M351.6,215.6l-5.6-0.9l-5.6-0.9l-1.5-3.3l-1.5-3.3l8.2-4.8l5.6,0.9l5.6,0.9l1.5,3.3l1.5,3.3L351.6,215.6z M381.4,207.5
					l-8.2,4.8l-11.2-1.7l-1.5-3.3l-1.5-3.3l8.2-4.8l11.2,1.7L381.4,207.5z M379.1,199.7l-5.6-0.9l-5.6-0.9l-1.5-3.3l-1.5-3.3
					l8.2-4.8l11.2,1.7l3,6.5L379.1,199.7z M408.8,191.6l-8.2,4.8l-11.2-1.7l-3-6.5l8.2-4.8l5.6,0.9l5.6,0.9L408.8,191.6z
					 M406.4,183.7h-0.1l-11-1.7l-2.9-6.3v-0.1l8.2-4.8l11.2,1.7l3,6.5L406.4,183.7z M436.3,175.6l-8.2,4.8l-11.2-1.7l-3-6.5l8.2-4.8
					l5.6,0.9l5.6,0.9L436.3,175.6z M433.8,167.8l-5.6-0.9l-5.6-0.9l-1.5-3.3l-1.5-3.3l8.2-4.8l11.2,1.7l3,6.5L433.8,167.8z
					 M463.7,159.7l-8.2,4.8l-11.2-1.7l-3.1-6.5l8.2-4.8l5.6,0.9l5.6,0.9L463.7,159.7z"/>
			</defs>
			<clipPath id="SVGID_3_">
				<use xlink:href="#SVGID_2_"  style="overflow:visible;"/>
			</clipPath>
			<g transform="translate(0 0)" class="st3">
				<path class="st2" d="M4.5,152.8l187-107l187.2,107L191.5,262.1L4.5,152.8z"/>
			</g>
		</g>
	</g>
	<path class="st4" d="M1068.1,3852.9l-141.9,81.4c0,0-14,11.7-30.7,1.7s-90.3-49.4-90.3-49.4s-10.1-9.8,0-15.7
		s158.7-82.5,158.7-82.5L1068.1,3852.9z"/>
	<g transform="translate(751.38 3554.405)">
		
			<linearGradient id="SVGID_4_" gradientUnits="userSpaceOnUse" x1="-305.9652" y1="781.4857" x2="-304.9652" y2="781.4857" gradientTransform="matrix(240.1854 0 0 -138.8752 72714.3906 108816.5625)">
			<stop  offset="0" style="stop-color:#737373"/>
			<stop  offset="4.100000e-02" style="stop-color:#868686"/>
			<stop  offset="0.619" style="stop-color:#868686"/>
			<stop  offset="0.635" style="stop-color:#989898"/>
			<stop  offset="0.653" style="stop-color:#A9A9A9"/>
			<stop  offset="0.666" style="stop-color:#B0B0B0"/>
			<stop  offset="0.707" style="stop-color:#DFDFDE"/>
			<stop  offset="0.977" style="stop-color:#DFDFDE"/>
			<stop  offset="1" style="stop-color:#F9F9FA"/>
		</linearGradient>
		<path class="st5" d="M74.9,314.2l70.8,40.9c5.1,2.9,13.9,2.5,19.8-0.9l141.6-81.7c3.2-1.9,4.8-4.2,4.8-6.5l0,0v-11.9l-11.6,2.2
			l-62.5-36.2c-5.1-2.9-13.9-2.5-19.8,0.9L87,296.8l-4,0.7l-11.2-0.7v11.6l0,0C71.4,310.5,72.4,312.7,74.9,314.2z"/>
		<path class="st6" d="M94.7,319.5c0.5,0.3,0.9,0.8,0.9,1.4c0,0.5-0.2,0.7-0.7,0.5c-0.5-0.3-0.9-0.8-0.9-1.4
			C94,319.5,94.3,319.3,94.7,319.5z M91.1,318.3c0.1,0.6,0.4,1.1,0.9,1.4c0.5,0.2,0.7,0,0.7-0.5c-0.1-0.6-0.4-1.1-0.9-1.4
			C91.3,317.5,91.1,317.8,91.1,318.3L91.1,318.3z M88.2,316.7c0.1,0.6,0.4,1.1,0.9,1.4c0.5,0.3,0.7,0,0.7-0.5
			c-0.1-0.6-0.4-1.1-0.9-1.4C88.5,315.9,88.1,316.2,88.2,316.7L88.2,316.7z M85.2,314.9c0.1,0.6,0.4,1.1,0.9,1.4
			c0.5,0.2,0.7,0,0.7-0.5c-0.1-0.6-0.4-1.1-0.9-1.4C85.6,314.2,85.2,314.4,85.2,314.9z M82.4,313.3c0.1,0.6,0.4,1.1,0.9,1.4
			c0.5,0.2,0.7,0,0.7-0.5c-0.1-0.6-0.4-1.1-0.9-1.4C82.6,312.6,82.2,312.8,82.4,313.3z M79.4,311.6c0.1,0.6,0.4,1.1,0.9,1.4
			c0.5,0.2,0.7,0,0.7-0.5c-0.1-0.6-0.4-1.1-0.9-1.4C79.8,310.9,79.4,311.1,79.4,311.6L79.4,311.6z"/>
		<path class="st7" d="M88.1,316.7c0.1,0.6,0.4,1.1,0.9,1.4c0.4,0.2,0.6,0.1,0.7-0.2c-0.1-0.1-0.1-0.1-0.2-0.1
			c-0.5-0.3-0.9-0.8-0.9-1.4v-0.2C88.3,316,88.1,316.3,88.1,316.7z"/>
		<path class="st7" d="M91.1,318.4c0.1,0.6,0.4,1.1,0.9,1.4c0.4,0.2,0.6,0.1,0.7-0.2c-0.1-0.1-0.1-0.1-0.2-0.1
			c-0.5-0.3-0.9-0.8-0.9-1.4v-0.2C91.2,317.7,91.1,317.9,91.1,318.4z"/>
		<path class="st7" d="M93.9,320c0.1,0.6,0.4,1.1,0.9,1.4c0.4,0.2,0.6,0.1,0.7-0.2c-0.1-0.1-0.1-0.1-0.2-0.1
			c-0.5-0.3-0.9-0.8-0.9-1.4v-0.2C94.2,319.4,93.9,319.6,93.9,320z"/>
		<path class="st7" d="M79.4,311.7c0.1,0.6,0.4,1.1,0.9,1.4c0.4,0.2,0.6,0.1,0.7-0.2c-0.1-0.1-0.1-0.1-0.2-0.1
			c-0.5-0.3-0.9-0.8-0.9-1.4v-0.2C79.5,311.1,79.4,311.2,79.4,311.7z"/>
		<path class="st7" d="M85.2,315c0.1,0.6,0.4,1.1,0.9,1.4c0.4,0.2,0.6,0.1,0.7-0.2c-0.1-0.1-0.1-0.1-0.2-0.1
			c-0.5-0.3-0.9-0.8-0.9-1.4v-0.2C85.4,314.3,85.2,314.6,85.2,315z"/>
		<path class="st7" d="M82.2,313.3c0.1,0.6,0.4,1.1,0.9,1.4c0.4,0.2,0.6,0.1,0.7-0.2c-0.1-0.1-0.1-0.1-0.2-0.1
			c-0.5-0.3-0.9-0.8-0.9-1.4v-0.2C82.5,312.7,82.2,312.9,82.2,313.3z"/>
		<path class="st6" d="M136.5,343.6c0.5,0.3,0.9,0.8,0.9,1.4c0,0.5-0.2,0.7-0.7,0.5c-0.5-0.3-0.9-0.8-0.9-1.4
			C135.8,343.5,136,343.4,136.5,343.6z M132.8,342.4c0.1,0.6,0.4,1.1,0.9,1.4c0.5,0.2,0.7,0,0.7-0.5c-0.1-0.6-0.4-1.1-0.9-1.4
			C133.2,341.6,132.8,341.9,132.8,342.4z M129.9,340.6c0.1,0.6,0.4,1.1,0.9,1.4c0.5,0.2,0.7,0,0.7-0.5c-0.1-0.6-0.4-1.1-0.9-1.4
			C130.2,340,129.9,340.1,129.9,340.6L129.9,340.6z M127,339c0.1,0.6,0.4,1.1,0.9,1.4c0.5,0.2,0.7,0,0.7-0.5
			c-0.1-0.6-0.4-1.1-0.9-1.4C127.3,338.3,127,338.5,127,339z M124.1,337.4c0.1,0.6,0.4,1.1,0.9,1.4c0.5,0.2,0.7,0,0.7-0.5
			c-0.1-0.6-0.4-1.1-0.9-1.4C124.4,336.7,124.1,336.9,124.1,337.4z M121.3,335.7c0.1,0.6,0.4,1.1,0.9,1.4c0.5,0.3,0.7,0,0.7-0.5
			c-0.1-0.6-0.4-1.1-0.9-1.4C121.5,334.9,121.1,335.2,121.3,335.7L121.3,335.7z"/>
		<path class="st7" d="M129.9,340.8c0.1,0.6,0.4,1.1,0.9,1.4c0.4,0.2,0.6,0.1,0.7-0.2c-0.1-0.1-0.1-0.1-0.2-0.1
			c-0.5-0.3-0.9-0.8-0.9-1.4v-0.2C130.1,340.1,129.9,340.3,129.9,340.8z"/>
		<path class="st7" d="M132.8,342.4c0.1,0.6,0.4,1.1,0.9,1.4c0.4,0.2,0.6,0.1,0.7-0.2c-0.1-0.1-0.1-0.1-0.2-0.1
			c-0.5-0.3-0.9-0.8-0.9-1.4v-0.2C133.1,341.8,132.8,342,132.8,342.4z"/>
		<path class="st7" d="M135.8,344.1c0.1,0.6,0.4,1.1,0.9,1.4c0.4,0.2,0.6,0.1,0.7-0.2c-0.1-0.1-0.1-0.1-0.2-0.1
			c-0.5-0.3-0.9-0.8-0.9-1.4v-0.2C135.9,343.5,135.8,343.6,135.8,344.1z"/>
		<path class="st7" d="M121.1,335.7c0.1,0.6,0.4,1.1,0.9,1.4c0.4,0.2,0.6,0.1,0.7-0.2c-0.1-0.1-0.1-0.1-0.2-0.1
			c-0.5-0.3-0.9-0.8-0.9-1.4v-0.2C121.4,335.1,121.1,335.3,121.1,335.7z"/>
		<path class="st7" d="M127,339c0.1,0.6,0.4,1.1,0.9,1.4c0.4,0.2,0.6,0.1,0.7-0.2c-0.1-0.1-0.1-0.1-0.2-0.1
			c-0.5-0.3-0.9-0.8-0.9-1.4v-0.2C127.2,338.4,127,338.7,127,339z"/>
		<path class="st7" d="M124.1,337.4c0.1,0.6,0.4,1.1,0.9,1.4c0.4,0.2,0.6,0.1,0.7-0.2c-0.1-0.1-0.1-0.1-0.2-0.1
			c-0.5-0.3-0.9-0.8-0.9-1.4v-0.2C124.2,336.8,124.1,337,124.1,337.4z"/>
		
			<linearGradient id="SVGID_5_" gradientUnits="userSpaceOnUse" x1="-305.9622" y1="781.3408" x2="-304.9622" y2="781.3408" gradientTransform="matrix(240.4167 0 0 -130.1752 72784.3281 101994.4219)">
			<stop  offset="0" style="stop-color:#B4B4B4"/>
			<stop  offset="4.100000e-02" style="stop-color:#BDBDBD"/>
			<stop  offset="0.619" style="stop-color:#BDBDBD"/>
			<stop  offset="0.625" style="stop-color:#C2C2C2"/>
			<stop  offset="0.648" style="stop-color:#D0D0D0"/>
			<stop  offset="0.666" style="stop-color:#D6D5D5"/>
			<stop  offset="0.707" style="stop-color:#F1F0F0"/>
			<stop  offset="0.977" style="stop-color:#F1F0F0"/>
			<stop  offset="1" style="stop-color:#FFFFFF"/>
		</linearGradient>
		<path class="st8" d="M311.9,257.2L311.9,257.2v-3.1l-11.6,2.2l-62.6-36.2c-5.1-2.9-13.9-2.5-19.8,0.9L86.7,296.8l-4,0.7l-11.2-0.7
			v2.9l0,0v1.7c0.5,1.8,1.7,3.3,3.4,4.1l70.8,40.9c5.1,2.9,13.9,2.5,19.8-0.9l141.6-81.7C310.5,261.9,312.1,259.5,311.9,257.2z"/>
		<path class="st9" d="M307,260.5l-134.9,77.9v3.4L307,263.9V260.5z"/>
		<path class="st9" d="M218.2,209.1L76.6,290.8c-5.7,3.4-6.3,8.6-1.4,11.4l70.8,40.9c5.1,2.9,13.9,2.5,19.8-0.9l141.6-81.7
			c5.7-3.4,6.3-8.6,1.4-11.4L238,208.2C232.8,205.2,224,205.6,218.2,209.1z"/>
		<path class="st10" d="M75.2,302.1L146,343c4,2.4,10.6,2.5,16,0.7c-5,1.2-10.6,0.9-14.2-1.2L77,301.6c-5.1-3-4.5-8.1,1.4-11.4
			L220,208.5c1.2-0.6,2.4-1.2,3.6-1.6c-1.9,0.4-3.8,1.1-5.5,2.1L76.5,290.7C70.7,294.1,70.1,299.3,75.2,302.1z"/>
		<path class="st11" d="M217.9,209.1l0.2-0.1l-135,78l89.1,51.4c0,0,134.7-77.8,134.8-77.9L217.9,209.1z"/>
		<path class="st12" d="M293.3,243.4c-1.5-0.7-3.2-0.7-4.7,0c-1.4,0.7-1.2,2,0,2.7c1.5,0.7,3.2,0.7,4.7,0c0.7-0.2,1.1-1.1,0.9-1.8
			C294,243.9,293.7,243.5,293.3,243.4z"/>
		<path class="st13" d="M285.1,239.9c-1-0.5-2.2-0.5-3.2,0c-0.5,0.2-0.8,0.8-0.6,1.3c0.1,0.3,0.3,0.5,0.6,0.6c1,0.5,2.2,0.5,3.2,0
			c0.5-0.2,0.8-0.8,0.6-1.3C285.6,240.2,285.4,240,285.1,239.9z"/>
		<path class="st14" d="M131.2,323.5L131.2,323.5c2.5-1.4,2.7-3.4,0.6-4.6l-16.6-9.6c-2.6-1.1-5.6-1-8.1,0.4l0,0
			c-2.5,1.4-2.7,3.4-0.6,4.6l16.6,9.6C125.7,325.1,128.7,325,131.2,323.5z"/>
		<path class="st15" d="M132.8,321.9c0.6-1.1,0.2-2.4-0.9-3c-0.1,0-0.1-0.1-0.2-0.1l-16.6-9.6c-2.6-1.1-5.6-1-8.1,0.4
			c-1.7,1.1-2.4,2.6-1.6,3.7c0.4-0.6,1-1.1,1.6-1.5c2.4-1.4,6-1.6,8.1-0.4l16.6,9.6C132.1,321.3,132.4,321.6,132.8,321.9z"/>
		<path class="st7" d="M104.5,324l0.5,0.2l8.1,4.6c0.4,0.3,0.8,0.7,1,1.2c0.2,0.4,0.3,0.8,0.4,1.2v0.4c0,1.1-0.6,1.6-1.5,1.1l-8.6-5
			c-0.4-0.3-0.8-0.7-1-1.2c-0.3-0.5-0.4-1-0.4-1.6C103,323.9,103.6,323.4,104.5,324z"/>
		<path class="st6" d="M113.1,328.7c0.4,0.3,0.8,0.7,1,1.2c0.2,0.4,0.3,0.8,0.4,1.2l-8.1-4.6c-0.4-0.3-0.8-0.7-1-1.2
			c-0.2-0.4-0.3-0.8-0.4-1.2L113.1,328.7z"/>
		<path class="st16" d="M267.1,238.4l39.1,22.5l-40.7,23.6l-37.9,21.9l-55,31.8l-2.5-1.5L267.1,238.4z"/>
		<path class="st11" d="M306.2,261l-133.6,77.2v2.4l133.6-77.1V261z"/>
		
			<linearGradient id="SVGID_6_" gradientUnits="userSpaceOnUse" x1="-302.1869" y1="782.8613" x2="-302.2679" y2="781.8873" gradientTransform="matrix(325.3877 0 0 -233.1409 98537.6719 182623.9375)">
			<stop  offset="0" style="stop-color:#EFFEFF;stop-opacity:0.133"/>
			<stop  offset="0.422" style="stop-color:#C6EBFF;stop-opacity:0.357"/>
			<stop  offset="1" style="stop-color:#50A1FF"/>
		</linearGradient>
		<path class="st17" d="M172.7,340l134-76.4c0,0,101.2-120.5,46.5-145.6s-309.2,0-309.2,0L84,287.4L172.7,340"/>
		<g transform="translate(24.846 38.982)">
			<g transform="translate(296.504 88.89)">
				<path class="st18" d="M-48,29.5c8.9-16.2,27.4-23.3,41.4-15.7s18.1,26.9,9.2,43.1s-27.4,23.3-41.4,15.7
					C-52.8,65.1-56.9,45.8-48,29.5z"/>
				<g transform="translate(4.158 1.789)">
					
						<ellipse transform="matrix(0.4782 -0.8783 0.8783 0.4782 -49.7274 2.1314)" class="st19" cx="-23.1" cy="42.9" rx="33.3" ry="28.5"/>
				</g>
			</g>
			<g transform="translate(320.86 108.294)">
				<g transform="translate(5.075 46.916)">
					<path class="st20" d="M-64,0c0.4,0.3,0.8,1.2,1.3,2.9C-63.2,1.3-63.6,0.3-64,0z"/>
				</g>
				<g transform="translate(4.821 45.563)">
					<path class="st21" d="M-60.1,0l3.8,11.7c-1.8-0.3-3.6-0.8-5.2-1.5c-0.1-0.6-0.1-1.1-0.2-1.7c-0.1-0.4-0.2-0.8-0.2-1.2
						c-0.1-0.3-0.1-0.7-0.2-1c-0.6-3-1.1-4.6-1.7-4.8H-64L-60.1,0z"/>
				</g>
				<g transform="translate(8.712 44.971)">
					<path class="st22" d="M-62.2,0l4.1,12.4c-0.3,0-0.7-0.1-1-0.1c-0.1,0-0.3,0-0.4-0.1h-0.1c-0.2,0-0.3-0.1-0.5-0.1L-64,0.5
						L-62.2,0z"/>
				</g>
				<g transform="translate(25.205 39.135)">
					<path class="st23" d="M-62.6,2.1C-63.3,1.6-63.8,0.8-64,0C-63.7,0.8-63.2,1.5-62.6,2.1z"/>
				</g>
				<g transform="translate(14.971 39.642)">
					<path class="st24" d="M-64,0.3L-64,0.3L-64,0.3z"/>
				</g>
				<g transform="translate(28.758 15.283)">
					<path class="st25" d="M-64,0c0.1,0,0.2,0,0.3,0.1c0,0,0,0.1-0.1,0.1c0,0,0,0,0,0C-63.9,0.2-64,0.1-64,0z"/>
				</g>
				<g transform="translate(28.589 14.606)">
					<path class="st25" d="M-60.8,0c0.4,0.3,0.6,0.8,0.6,1.4c0,0.6-0.3,1.2-0.8,1.6c-0.3,0.3-0.7,0.5-1.2,0.6h-0.3
						C-63.4,3.5-64,2.7-64,1.9c0-0.4,0.1-0.7,0.3-1c0,0,0-0.1,0.1-0.1c0,0,0,0,0,0c0.4,0.1,0.7,0.1,1.1,0C-61.9,0.7-61.3,0.4-60.8,0
						z"/>
				</g>
				<g transform="translate(29.688 17.567)">
					<path class="st25" d="M-63.5,0.6h0.3c0.4-0.1,0.9-0.3,1.2-0.6c-0.1,0.5-0.2,1-0.4,1.4c0,0.6,0,1.2-0.1,1.9
						c-0.2,1.7-0.5,3.3-1,4.9C-64.7,8-63.4,3.1-63.5,0.6z"/>
				</g>
				<g transform="translate(29.857 20.442)">
					<path class="st26" d="M-62.1,0c0.7,0.1,1.5,0.8,1.1,2.7c-0.3,1.9-1.8,4.1-2.5,4.2h-0.1c-0.3,0-0.4-0.3-0.5-0.5
						c0.1-0.3,0.2-0.8,0.3-1.2c0.5-1.6,0.9-3.2,1-4.9C-62.6,0.1-62.4,0-62.1,0L-62.1,0z"/>
				</g>
				<g transform="translate(17.339 9.701)">
					<path class="st25" d="M-59.2,3.4c-0.5,0.1-1,0.4-1.3,0.9c-0.2-0.1-0.4-0.1-0.6-0.1c-0.2,0-0.4,0.1-0.5,0.2
						c-0.2-0.3-0.5-0.6-0.8-0.7V3.6c0.1-1-0.6-1.9-1.6-2.1c0.5-0.3,0.9-0.6,1.2-1c0.7,0.3,1.4,0.3,2.1,0.2c0.7-0.1,1.3-0.3,1.9-0.7
						c0.6,0.6,1.4,1,2.3,1.2c-1,0.2-1.8,1.1-1.9,2.2L-59.2,3.4z"/>
				</g>
				<g transform="translate(6.428)">
					<g transform="translate(20.723 42.434)">
						<path class="st21" d="M-60,0l4.1,0.2H-56C-56.9,0.3-57.5,3-58.4,8c-0.2,0.8-0.3,1.7-0.3,2.5c-0.2,0.1-0.4,0.3-0.6,0.3h-0.1
							c-0.1,0.1-0.2,0.1-0.3,0.2h-0.1c-0.1,0.1-0.2,0.1-0.3,0.2H-60c-0.1,0.1-0.2,0.1-0.3,0.2h-0.1c-0.1,0.1-0.2,0.1-0.3,0.2h-0.1
							c-0.1,0.1-0.2,0.1-0.3,0.2H-61c-0.1,0.1-0.2,0.1-0.3,0.2l0,0c-0.1,0.1-0.2,0.1-0.3,0.2l0,0c-0.1,0.1-0.2,0.1-0.3,0.2l0,0
							c-0.1,0.1-0.2,0.1-0.3,0.2s-0.3,0.1-0.3,0.2s-0.3,0.1-0.3,0.2c-0.3,0.2-0.7,0.3-1,0.4L-60,0z"/>
					</g>
					<g transform="translate(18.862 42.264)">
						<path class="st22" d="M-64,14l4.2-14l1.7,0.1l-4,13.2c-0.5,0.2-0.9,0.3-1.4,0.5l0,0C-63.7,13.9-63.8,13.9-64,14z"/>
					</g>
					<g transform="translate(21.653 42.011)">
						<path class="st24" d="M-64,0L-64,0z"/>
					</g>
					<g transform="translate(8.543 37.274)">
						<path class="st27" d="M-51.8,4.3l1,0.5c-0.9,0.4-1.9,0.7-2.9,0.8c-1.7,0.2-3.4,0.2-5.1-0.3C-60.7,5-62.6,4-64,2.6V1.3
							c1.7,1.6,3.5,2.5,5,2.3c1.6-0.3,3.4-1.5,5-3.6v0.8l0,0v0.1l0,0v0.3c0,0.1,0.1,0.3,0.1,0.3v0.1c0.2,0.8,0.7,1.6,1.4,2.1
							l0.1,0.1l0.1,0.1l0.1,0.1h0.2L-51.8,4.3L-51.8,4.3z"/>
					</g>
					<g transform="translate(21.653 42.011)">
						<path class="st24" d="M-63.9,0"/>
					</g>
					<g transform="translate(4.06 42.18)">
						<path class="st28" d="M-53.2,15L-53.2,15c-0.3,0-0.4,0.1-0.6,0.1c-0.1,0-0.3,0-0.4,0.1H-60L-64,2.7c0.8-0.1,3.4,8,9.4,7.3h0.1
							c3-0.4,5.1-2.9,6.6-5.2s2.5-4.7,2.9-4.7l-4.2,14c-0.2,0.1-0.4,0.1-0.6,0.2c-0.4,0.1-0.8,0.2-1.1,0.3h-0.1
							c-0.3,0.1-0.7,0.2-1.1,0.3h-0.1c-0.2,0-0.3,0.1-0.5,0.1C-52.9,15-53,15-53.2,15z"/>
					</g>
					<g transform="translate(19.369 12.069)">
						<path class="st25" d="M-63.3,0.2c0,1.3,0.8,2.6,2,3c-0.3,0.2-0.5,0.3-0.8,0.3c-0.7,0.2-1.5-0.2-1.8-0.9C-64,2.4-64,2.1-64,1.8
							c0-0.7,0.3-1.3,0.8-1.8C-63.3,0.1-63.3,0.2-63.3,0.2z"/>
					</g>
					<g transform="translate(20.046 8.686)">
						<path class="st25" d="M-58.3,0c0.8,0.6,1.3,1.6,1.3,2.6c0,1.3-0.7,2.5-1.7,3.3c-0.5,0.4-1.1,0.7-1.8,0.8c-0.4,0-0.7,0-1.1,0
							c-0.1,0-0.2,0-0.3-0.1c-0.1,0-0.1,0-0.2-0.1c-1.3-0.5-2.1-1.7-2-3V3c0-0.2,0.1-0.3,0.1-0.5c0.6,0.4,1.4,0.6,2.1,0.4
							C-60.1,2.8-58.7,1.7-58.3,0z"/>
					</g>
					<g transform="translate(19.961 4.626)">
						<path class="st25" d="M-59.5,0c1,0.6,1.6,1.7,1.6,2.9c0,0.4-0.1,0.8-0.2,1.2c-0.4,1.6-1.7,2.8-3.4,3C-62.2,7.2-63,7-63.6,6.7
							c-0.2-0.1-0.3-0.2-0.4-0.3c2.6-0.6,4.5-3,4.6-5.7C-59.5,0.5-59.6,0.2-59.5,0z"/>
					</g>
					<g transform="translate(19.285 11.054)">
						<path class="st25" d="M-63,0.3c-0.1,0.2-0.1,0.3-0.1,0.5C-63.3,0.4-63.6,0.1-64,0h0.6C-63.3,0.1-63.2,0.2-63,0.3z"/>
					</g>
					<g transform="translate(16.409 11.054)">
						<path class="st25" d="M-61.2,0c0.4,0.1,0.7,0.4,0.9,0.8V1c-0.5,0.5-0.8,1.1-0.8,1.8c0,0.3,0.1,0.6,0.2,0.8
							c-0.3,0.3-0.7,0.4-1.1,0.5c-0.9,0.2-1.8-0.5-2-1.4c0-0.1,0-0.2,0-0.3V2.2c0.1-1.1,0.8-2,1.9-2.2H-61.2z"/>
					</g>
					<g transform="translate(14.463 13.168)">
						<path class="st25" d="M-62,0.2c0,0.6,0.2,1.1,0.7,1.4c-0.1,0.7-0.7,1.2-1.4,1.3c-0.2,0-0.4,0-0.6-0.1C-63.7,2.6-64,2.1-64,1.6
							c0-0.2,0.1-0.5,0.2-0.7c0.2-0.5,0.7-0.9,1.3-0.9C-62.4,0-62.1,0-62,0.2C-62,0.1-62,0.1-62,0.2z"/>
					</g>
					<g transform="translate(12.603 14.014)">
						<path class="st25" d="M-62.2,0.8c0,0.5,0.3,1,0.8,1.2c-0.2,0.5-0.7,0.9-1.3,0.9C-63.3,3-63.8,2.7-64,2.2
							c0.5-0.3,0.8-0.8,0.8-1.4c0-0.2-0.1-0.4-0.2-0.6C-63.2,0.1-63,0-62.8,0c0.2,0,0.4,0,0.6,0.1L-62.2,0.8z"/>
					</g>
					<g transform="translate(15.986 0.944)">
						<path class="st25" d="M-60.4,0c2.2-0.4,4.3,1.1,4.7,3.3c0,0.1,0,0.3,0,0.4v0.7c0,2.7-1.9,5.1-4.6,5.7h-0.6
							c-0.3,0-0.6,0-0.9-0.1c-0.9-0.1-1.7-0.5-2.3-1.2c1.9-1.1,3.1-3.1,3.1-5.3c0-1.1-0.4-2.3-1.1-3.1C-61.4,0.3-60.9,0.1-60.4,0z"
							/>
					</g>
					<g transform="translate(10.826 13.422)">
						<path class="st25" d="M-62.3,0.1c0.4,0.1,0.7,0.3,0.8,0.7c0.1,0.2,0.2,0.4,0.2,0.6c0,0.6-0.3,1.1-0.8,1.4
							c-0.2,0.1-0.3,0.2-0.5,0.2c-0.4,0.1-0.8-0.1-1.1-0.4C-63.9,2.3-64,2-64,1.7c0-0.8,0.6-1.6,1.4-1.7
							C-62.6,0.1-62.5,0.1-62.3,0.1z"/>
					</g>
					<g transform="translate(7.697 11.308)">
						<path class="st25" d="M-60.8,0c1,0.2,1.7,1.1,1.6,2.1v0.1h-0.4c-0.8,0.1-1.4,0.9-1.4,1.7c0,0.3,0.1,0.6,0.3,0.8
							C-61.1,4.9-61.4,5-61.7,5c-0.5,0.1-1.1,0-1.5-0.3c-0.6-0.4-0.9-1-0.8-1.7c0.7-0.6,1.2-1.4,1.6-2.2C-61.8,0.6-61.3,0.3-60.8,0z
							"/>
					</g>
					<g transform="translate(2.115 19.597)">
						<path class="st25" d="M-63.6,4.4c-0.1-0.6-0.1-1.2-0.1-1.8C-63.8,1.8-64,0.9-64,0c0.4,0.2,0.8,0.3,1.3,0.2
							c0.2,0,0.4-0.1,0.6-0.2c-0.2,0.3-0.3,0.5-0.4,0.8C-63.1,3-61.4,8.4-62.7,9C-63.2,7.5-63.5,6-63.6,4.4z"/>
					</g>
					<g transform="translate(3.539 14.606)">
						<path class="st26" d="M-43.8,3.6c0.1,2.5-1.2,7.4,0,7.5c-0.1,0.4-0.2,0.8-0.3,1.2c-0.8,3.8-2.5,7.3-4.9,10.3
							c-1.6,2-3.4,3.3-5,3.6c-1.5,0.3-3.4-0.7-5-2.3c-2.4-2.5-4-5.5-4.8-8.9c-0.1-0.4-0.2-0.8-0.3-1.2c1.3-0.6-0.4-6,0.1-8.2
							c0.2-0.3,0.3-0.5,0.4-0.8c0.7-0.3,1.3-0.8,1.6-1.4c0.8-0.3,1.4-0.9,1.8-1.7h0.1c0.4-0.1,0.8-0.2,1.1-0.4
							c0.4,0.3,1,0.5,1.5,0.3c0.3,0,0.6-0.1,0.8-0.3c0.3,0.3,0.7,0.5,1.1,0.4c0.2,0,0.4-0.1,0.5-0.2c0.2,0.5,0.7,0.8,1.3,0.7
							c0.5-0.1,1-0.4,1.3-0.9c0.2,0.1,0.4,0.1,0.6,0.1c0.7-0.1,1.2-0.6,1.4-1.3c0.4,0.3,0.9,0.4,1.4,0.3c0.4-0.1,0.8-0.3,1.1-0.5
							c0.3,0.7,1,1.1,1.8,0.9c0.3,0,0.6-0.2,0.8-0.3c0.1,0,0.1,0,0.2,0.1l0.2,0.2c-0.2,0.3-0.3,0.7-0.3,1
							C-45.4,2.7-44.7,3.5-43.8,3.6z"/>
					</g>
					<g transform="translate(0.599 23.741)">
						<path class="st26" d="M-61.2,4.7c0.1,0.4,0.2,0.8,0.3,1.2c-0.1,0.4-0.3,0.7-0.5,0.8h-0.1c-0.7,0.1-2-1.9-2.5-3.6
							c-0.3-1.9,0.5-2.8,1.1-3h0.1c0.2,0,0.4,0.1,0.6,0.3C-62,1.8-61.7,3.2-61.2,4.7z"/>
					</g>
					<g transform="translate(5.413 14.183)">
						<path class="st25" d="M-61.7,0c0,0.7,0.3,1.3,0.8,1.7c-0.3,0.2-0.7,0.4-1.1,0.4H-62c-0.8,0.1-1.6-0.4-2-1.1
							C-63.2,0.9-62.3,0.6-61.7,0z"/>
					</g>
					<g transform="translate(9.219)">
						<path class="st25" d="M-59,0.1c1.5-0.3,3,0.3,3.9,1.4c0.7,0.9,1.1,2,1.1,3.1c0,2.2-1.2,4.2-3.1,5.3c-0.6,0.3-1.2,0.5-1.9,0.7
							c-0.7,0.1-1.4,0-2.1-0.2c-1.8-0.7-3-2.4-2.9-4.3c0-1.1,0.3-2.1,0.8-3C-62.4,1.5-60.8,0.4-59,0.1z"/>
					</g>
					<g transform="translate(2.791 14.945)">
						<path class="st25" d="M-61.5,0.3c0.4,0.8,1.2,1.2,2,1.1c-0.3,0.8-1,1.4-1.8,1.7c-0.2,0-0.3,0.1-0.4,0.1
							c-1.1,0.2-2.2-0.6-2.3-1.7c0-0.1,0-0.2,0-0.4c0-0.4,0.1-0.8,0.3-1.1C-63.1,0.3-62.3,0.4-61.5,0.3z"/>
					</g>
					<g transform="translate(2.537 11.984)">
						<path class="st25" d="M-57.7,0.1L-57.7,0.1c0.2,0,0.3,0,0.4-0.1c-0.4,0.8-0.9,1.6-1.6,2.2c-0.7,0.6-1.5,0.9-2.4,1.1
							c-0.8,0.1-1.6,0-2.3-0.3c-0.2-0.1-0.4-0.2-0.5-0.3c0.7,0.4,1.6,0.6,2.5,0.4C-59.9,2.8-58.4,1.7-57.7,0.1z"/>
					</g>
					<g transform="translate(0.846 14.437)">
						<path class="st25" d="M-62,1.5c-0.1,1.1,0.8,2.1,1.9,2.1c0.2,0,0.3,0,0.5,0c0.2,0,0.3-0.1,0.4-0.1c-0.3,0.7-0.9,1.2-1.6,1.4
							c-0.2,0.1-0.4,0.2-0.6,0.2c-0.4,0.1-0.9,0-1.3-0.2c-0.9-0.4-1.4-1.3-1.4-2.2c0-0.3,0.1-0.6,0.2-0.9c0.3-0.8,0.8-1.5,1.5-1.9
							c0.1,0,0.1,0.1,0.2,0.1c0.2,0.1,0.3,0.3,0.5,0.3C-61.9,0.7-62,1.1-62,1.5z"/>
					</g>
					<g transform="translate(4.737 2.871)">
						<path class="st25" d="M-59.5,3.1c-0.1,1.9,1.1,3.7,2.9,4.3c-0.3,0.4-0.7,0.7-1.2,1c-0.5,0.3-1,0.5-1.5,0.7
							c-0.1,0-0.3,0.1-0.3,0.1h-0.1c-2.1,0.2-4-1.3-4.2-3.3c0-0.2,0-0.4,0-0.6c0-0.8,0.2-1.5,0.5-2.2c0.7-1.6,2.2-2.7,3.9-3
							c0.4-0.1,0.7-0.1,1.1,0C-59.2,0.9-59.6,2-59.5,3.1z"/>
					</g>
					<g transform="translate(0 12.153)">
						<path class="st25" d="M-63.3,0c0.2,1,0.8,1.8,1.6,2.4c-0.7,0.4-1.2,1.1-1.5,1.9C-63.7,3.7-64,3-64,2.2
							C-64,1.4-63.7,0.6-63.3,0z"/>
					</g>
					<g transform="translate(0.677 5.979)">
						<path class="st25" d="M-60.1,2.1c-0.1,2.1,1.5,3.9,3.6,4c0.2,0,0.4,0,0.6,0c-0.7,1.6-2.2,2.7-3.9,3c-0.8,0.1-1.7,0-2.5-0.4
							c-0.1,0-0.1-0.1-0.2-0.1c-0.8-0.6-1.4-1.4-1.6-2.4C-64,5.8-64,5.5-64,5.2c0-2.6,1.9-4.7,4.4-5.2h0.1
							C-59.9,0.7-60.1,1.4-60.1,2.1z"/>
					</g>
				</g>
				<g transform="translate(10.488 39.896)">
					<path class="st26" d="M-49.2,3c1-0.1,2-0.4,2.9-0.8c0.4,0.2,0.9,0.3,1.4,0.3c-0.5,0.1-1.4,2.4-3,4.7c-1.5,2.4-3.6,4.8-6.6,5.2
						h-0.1c-6,0.8-8.5-7.4-9.4-7.3c2.3-0.8,4-2.7,4.5-5.1c1.5,1.4,3.3,2.3,5.2,2.8C-52.6,3.1-50.9,3.2-49.2,3z"/>
				</g>
				<g transform="translate(0 46.916)">
					<path class="st28" d="M-57.2,5.9c0.1,0.4,0.2,0.8,0.2,1.2c0.1,0.6,0.2,1.1,0.2,1.7c-0.5-0.2-1-0.4-1.5-0.7
						C-58.7,8-59,7.8-59.3,7.6l0,0c-0.3-0.2-0.6-0.3-0.8-0.5l0,0c-0.2-0.1-0.3-0.2-0.4-0.3h-0.1c-0.3-0.2-0.6-0.4-0.8-0.6
						c0,0-0.1,0-0.1-0.1c0,0,0,0,0,0C-61.7,6.1-61.8,6-62,5.9l0,0c-0.1-0.1-0.3-0.2-0.3-0.3c0,0-0.1,0-0.1-0.1c0,0,0,0,0,0
						c-0.2-0.1-0.3-0.2-0.3-0.3c0,0-0.1,0-0.1-0.1c0,0,0,0,0,0c-0.1-0.1-0.3-0.2-0.3-0.3h-0.1c-0.1-0.1-0.3-0.2-0.3-0.3l-0.1-0.1
						L-64,4.1c0.7-1.8,2.2-3.2,4-3.9l0.8-0.3h0.3c0.7,0.3,1.2,1.9,1.7,4.8C-57.3,5.2-57.2,5.5-57.2,5.9z"/>
				</g>
				<g transform="translate(32.479 42.518)">
					<path class="st28" d="M-60.5,0.1c2.1,0.2,3.9,1.8,4.3,3.9c-0.3,0.3-0.6,0.6-0.8,0.9c-0.3,0.3-0.6,0.6-0.9,0.8l0,0
						c-0.2,0.2-0.3,0.3-0.4,0.4C-58.7,6.4-59,6.8-59.3,7h-0.1c-0.3,0.3-0.6,0.5-0.9,0.8h-0.1c-0.2,0.1-0.3,0.2-0.4,0.3h-0.1
						c-0.2,0.1-0.3,0.2-0.4,0.3c-0.2,0.1-0.3,0.3-0.5,0.3c0,0-0.1,0-0.1,0.1c0,0,0,0,0,0c-0.2,0.1-0.3,0.3-0.5,0.3l0,0
						c-0.2,0.1-0.3,0.2-0.4,0.3h-0.1c-0.2,0.1-0.4,0.2-0.5,0.3c0,0-0.1,0-0.1,0.1c0,0,0,0,0,0c-0.2,0.1-0.4,0.2-0.5,0.3
						c0-0.9,0.1-1.7,0.3-2.5c0.8-4.9,1.4-7.6,2.4-7.8h0.1L-60.5,0.1z"/>
				</g>
				<g transform="translate(6.513 50.553)">
					<path class="st20" d="M-63.9,0.5c0-0.2-0.1-0.3-0.1-0.5C-64,0.2-64,0.3-63.9,0.5z"/>
				</g>
			</g>
		</g>
		<g transform="translate(63 72)">
			<g transform="translate(-5 -3)">
				<path class="st29" d="M199.7,177.7c19.3-2.7,34.8,11.9,34.8,32.7s-15.7,39.8-34.9,42.5c-19.3,2.7-34.8-12-34.8-32.7
					C164.9,199.5,180.5,180.4,199.7,177.7z"/>
			</g>
			<path class="st30" d="M199.7,177.7c19.3-2.7,34.8,11.9,34.8,32.7s-15.7,39.8-34.9,42.5c-19.3,2.7-34.8-12-34.8-32.7
				C164.9,199.5,180.5,180.4,199.7,177.7z"/>
			<path class="st23" d="M211.5,207.1c0.8,0.1,1.8,0.9,1.3,3.2c-0.3,1.7-1.1,3.2-2.2,4.5c0.3-1.3,0.6-2.7,0.7-4.1l0,0
				c-0.7,0.1-1.2-0.5-1.5-1.4c0.5-1.3,1.1-2.2,1.6-2.2H211.5z"/>
			<path class="st27" d="M208.7,232.2"/>
			<path class="st27" d="M208.3,232.1L208.3,232.1c-0.4-0.1-0.7-0.3-1-0.6c-0.3,0.2-0.4,0.7-0.4,1.4c-0.5,0.1-1,0.2-1.6,0.3
				c-2,0.3-4,0.2-6-0.3c-2.3-0.5-4.4-1.6-6.2-3.2v-1.5c1.9,1.8,4,2.8,5.9,2.5c1.8-0.3,3.9-1.8,5.9-4.3v1.2l0,0v0.1l0,0v0.2l0,0v0.1
				l0,0v0.1l0,0v0.1l0,0v0.1l0,0v0.8l0,0v0.1l0,0v0.1l0,0v0.1c0,0.1,0.1,0.1,0.1,0.2v0.1c0,0.1,0,0.1,0.1,0.1l0,0
				c0,0.1,0,0.1,0.1,0.1c0.1,0.1,0.1,0.2,0.2,0.3C206.3,230.9,207.2,231.6,208.3,232.1z"/>
			<path class="st31" d="M199.7,252.8c-0.2,0-0.3,0.2-0.4,0.2c-0.1,0-0.3,0-0.4,0.1c-0.2,0-0.3,0-0.4,0.1h-10.4
				c-0.1,0-0.2,0-0.3-0.1h-0.2c-0.1,0-0.2,0-0.3-0.1h-0.1c-0.1,0-0.2,0-0.3-0.1h-0.1c-0.1,0-0.2,0-0.3-0.1h-0.1
				c-0.1,0-0.2,0-0.3-0.1H186c-0.1,0-0.2,0-0.3-0.1h-0.1c-0.1,0-0.2,0-0.3-0.1h-0.1c-0.1,0-0.2-0.1-0.3-0.1h-0.1
				c-0.1,0-0.2-0.1-0.3-0.1h-0.1c-0.1,0-0.1,0-0.2-0.1h-0.1c-0.1,0-0.1,0-0.2-0.1c-0.1,0-0.1,0-0.1-0.1v0c-0.1,0-0.1,0-0.2-0.1
				c-0.1,0-0.1,0-0.1-0.1v0c-0.1,0-0.1,0-0.2-0.1c-0.1,0-0.1,0-0.1-0.1v0c-0.1,0-0.1,0-0.2-0.1c-0.1,0-0.1,0-0.1-0.1v0
				c-0.1,0-0.2-0.1-0.3-0.1c-0.1,0-0.1,0-0.1-0.1v0c-0.1,0-0.2-0.1-0.3-0.1c-0.1,0-0.1,0-0.1-0.1v0c-0.1,0-0.1,0-0.2-0.1
				c-0.1,0-0.1,0-0.1-0.1v0c-0.1,0-0.1,0-0.2-0.1c-0.1,0-0.1,0-0.1-0.1v0c-0.1,0-0.1,0-0.2-0.1c-0.1,0-0.1,0-0.1-0.1v0
				c-0.1,0-0.1,0-0.2-0.1c-0.1,0-0.1,0-0.1-0.1v0c-0.1,0-0.1,0-0.2-0.1c-0.1,0-0.1,0-0.1-0.1v0c-0.1,0-0.1,0-0.2-0.1
				c-0.1,0-0.1,0-0.1-0.1v0c-0.1,0-0.1,0-0.2-0.1c-0.1,0-0.1,0-0.1-0.1v0c-0.1,0-0.1,0-0.2-0.1c-0.1,0-0.1,0-0.1-0.1v0
				c-0.1,0-0.1-0.1-0.2-0.1c-0.1,0-0.1,0-0.1-0.1v0c-0.1,0-0.1,0-0.2-0.1c-0.1,0-0.1,0-0.1-0.1v0c-0.1,0-0.1,0-0.2-0.1
				c-0.1,0-0.1,0-0.1-0.1v0c-0.1,0-0.1-0.1-0.2-0.1l-0.1-0.1c-0.1,0-0.1-0.1-0.2-0.2c-0.1,0-0.1,0-0.1-0.1v0
				c-0.1-0.1-0.2-0.1-0.2-0.2c-0.1,0-0.1,0-0.1-0.1v0c-0.1-0.1-0.2-0.1-0.2-0.2c-0.1,0-0.1,0-0.1-0.1v0l-0.2-0.2l-0.1-0.1
				c-0.1-0.1-0.2-0.1-0.2-0.2c-0.1-0.1-0.2-0.2-0.3-0.2l-0.3-0.3l-0.1-0.1l-0.1-0.1c-0.1,0-0.1-0.1-0.2-0.1s-0.1-0.1-0.2-0.1
				l-0.1-0.1l-0.2-0.2l-0.1-0.1l-0.2-0.2l-0.1-0.1c0.1-3.3,2.2-6.3,5.3-7.5l0.9-0.3l6.8-2.2c0.1,0,0.1,0,0.2-0.1
				c0.1,0,0.1,0,0.2-0.1s0.3-0.1,0.4-0.2c0.1,0,0.1-0.1,0.2-0.1c0.5-0.2,0.9-0.5,1.3-0.8l0.1-0.1c0.2-0.2,0.3-0.2,0.3-0.3
				c2,1.1-3.1,11.5,8.5,9.9c9.6-1.3,7.7-8.1,7.7-11.2c0-0.7,0.1-1.2,0.4-1.4c0.4,0.3,0.9,0.6,1.4,0.7c0.1,0,0.3,0.1,0.4,0.1h0.1
				c0.1,0,0.2,0,0.3,0.1h0.7l7.7,0.4c2.9,0.1,5.3,2.9,5.3,6.1v0.4c-0.1,0.3-0.2,0.6-0.2,0.9l-0.1,0.1l-0.2,0.2l-0.1,0.1l-0.2,0.2
				l-0.1,0.1l-0.2,0.2l-0.1,0.1l-0.2,0.2l-0.1,0.1l-0.2,0.2l-0.1,0.1l-0.2,0.2l-0.1,0.1l-0.2,0.2l-0.1,0.1l-0.2,0.2l-0.3,0.3
				c-0.3,0.3-0.6,0.5-0.9,0.8l-0.1,0.1l-0.2,0.2c-0.1,0-0.1,0.1-0.2,0.1l-0.2,0.2c-0.1,0-0.1,0.1-0.2,0.1l-0.2,0.2
				c-0.1,0-0.1,0.1-0.2,0.1l-0.2,0.2c-0.1,0-0.1,0.1-0.2,0.1s-0.1,0.1-0.2,0.1s-0.1,0.1-0.2,0.1s-0.1,0.1-0.2,0.1s-0.1,0.1-0.2,0.1
				s-0.1,0.1-0.2,0.1s-0.1,0.1-0.2,0.1s-0.1,0.1-0.2,0.1s-0.1,0.1-0.2,0.1s-0.1,0.1-0.2,0.1s-0.1,0.1-0.2,0.1s-0.1,0.1-0.2,0.1
				s-0.1,0.1-0.2,0.1s-0.1,0.1-0.2,0.1s-0.1,0.1-0.2,0.1s-0.1,0.1-0.2,0.1s-0.1,0.1-0.2,0.1s-0.1,0.1-0.2,0.1s-0.1,0.1-0.2,0.1
				s-0.1,0.1-0.2,0.1s-0.1,0.1-0.2,0.1s-0.1,0.1-0.2,0.1s-0.1,0.1-0.2,0.1s-0.1,0.1-0.2,0.1s-0.1,0.1-0.2,0.1s-0.1,0.1-0.2,0.1
				s-0.1,0.1-0.2,0.1s-0.1,0.1-0.2,0.1s-0.1,0.1-0.2,0.1s-0.1,0.1-0.2,0.1c-0.1,0-0.1,0-0.2,0.1c-0.1,0-0.1,0.1-0.2,0.1
				c-0.1,0-0.1,0-0.2,0.1l-0.1,0.1c-0.1,0-0.1,0-0.2,0.1c-0.1,0-0.1,0.1-0.2,0.1s-0.2,0.1-0.3,0.1c-0.1,0-0.1,0-0.1,0.1v0
				c-0.3,0.1-0.5,0.3-0.8,0.4c-0.2,0.1-0.3,0.1-0.4,0.2c-0.1,0-0.1,0-0.1,0.1v0c-0.1,0-0.2,0.1-0.3,0.1s-0.1,0-0.2,0.1
				c-0.1,0-0.1,0-0.2,0.1c-0.1,0-0.1,0.1-0.2,0.1c-0.1,0-0.1,0-0.2,0.1c-0.1,0-0.1,0.1-0.2,0.1s-0.1,0.1-0.2,0.1s-0.1,0.1-0.2,0.1
				c-0.1,0-0.1,0-0.2,0.1c-0.1,0-0.1,0-0.2,0.1c-0.1,0-0.1,0-0.2,0.1c-0.1,0-0.1,0.1-0.2,0.1s-0.1,0.1-0.2,0.1s-0.1,0-0.2,0.1
				c-0.1,0-0.1,0.1-0.2,0.1s-0.1,0-0.2,0.1c-0.1,0-0.1,0-0.2,0.1c-0.1,0-0.1,0-0.2,0.1c-0.1,0-0.1,0.1-0.2,0.1s-0.1,0-0.2,0.1
				c-0.1,0-0.1,0-0.2,0.1c-0.1,0-0.1,0-0.2,0.1c-0.1,0-0.2,0-0.2,0.1c-0.1,0-0.1,0-0.2,0.1c-0.1,0-0.2,0-0.2,0.1
				c-0.1,0-0.1,0-0.2,0.1c-0.1,0-0.2,0-0.2,0.1c-0.1,0-0.1,0-0.2,0.1c-0.1,0-0.2,0-0.2,0.1c-0.1,0-0.1,0-0.2,0.1
				c-0.1,0-0.2,0-0.2,0.1c-0.1,0-0.1,0-0.2,0.1c-0.1,0-0.2,0-0.2,0.1h-0.2c-0.1,0-0.2,0-0.2,0.1H202c-0.1,0-0.2,0-0.2,0.1h-0.2
				c-0.1,0-0.2,0-0.3,0.1h-1.2l-0.2,0.1L199.7,252.8z"/>
			<path class="st23" d="M208.8,232.3h-0.2C208.6,232.2,208.7,232.2,208.8,232.3C208.8,232.3,208.8,232.3,208.8,232.3z"/>
			<path class="st27" d="M208.6,232.2"/>
			<path class="st27" d="M208.5,232.2"/>
			<path class="st27" d="M208.4,232.1"/>
			<path class="st24" d="M206.7,231c-0.3-0.3-0.5-0.6-0.8-0.9C206.1,230.4,206.4,230.7,206.7,231z"/>
			<path class="st24" d="M206.7,231c0.1,0.1,0.2,0.2,0.3,0.2l0,0C206.8,231.2,206.7,231.1,206.7,231z"/>
			<path class="st24" d="M206.9,231.2c0.2,0.2,0.5,0.4,0.7,0.5l0,0C207.3,231.6,207.1,231.4,206.9,231.2z"/>
			<path class="st24" d="M208.3,232.1c-0.3-0.1-0.5-0.2-0.7-0.4l0,0C207.8,231.8,208.1,232,208.3,232.1z"/>
			<path class="st24" d="M208.3,232.1"/>
			<path class="st32" d="M205.7,229.7"/>
			<path class="st32" d="M205.7,229.7"/>
			<path class="st24" d="M205.7,229.7"/>
			<path class="st32" d="M193.2,229.7L193.2,229.7L193.2,229.7z"/>
			<path class="st23" d="M206.9,232.9c0,3.1,1.8,9.8-7.6,11.2h-0.1c-11.6,1.6-6.5-8.9-8.5-9.9l-0.2,0.2c1.5-1.1,2.5-2.8,2.8-4.6
				c1.8,1.6,3.9,2.7,6.2,3.2c2,0.5,4,0.6,6,0.3C205.9,233.1,206.4,233,206.9,232.9z"/>
			<path class="st23" d="M209.8,209.3c0.4,0.9,0.9,1.5,1.5,1.4c-0.1,1.4-0.4,2.8-0.7,4.1c-1,4.2-2.9,8.2-5.6,11.6
				c-2,2.4-4.1,4-5.9,4.3c-1.9,0.3-4-0.7-5.9-2.5c-2.5-2.6-4.4-5.8-5.3-9.3c-0.1-0.3-0.2-0.5-0.3-0.8c-0.3-1.2-0.3-2.5-0.2-3.8
				c0.6-0.1,1.1-0.3,1.5-0.7c1.3-1.3,0.9-4,2.7-6.1c3.2-3.5,8.8-3.3,14.1-8.5c0.2-0.1,0.3-0.2,0.5-0.2c1.4-0.2,1.9,2.9,2.5,6
				C208.9,206.3,209.3,207.8,209.8,209.3z"/>
			<path class="st23" d="M188.9,213.5c-0.4,0.4-0.9,0.7-1.5,0.7c-0.2,1.3-0.1,2.6,0.2,3.8c-1-1.1-1.8-2.4-2.2-3.9
				c-0.4-2.1,0.6-3.2,1.3-3.5h0.1C187.6,210.4,188.4,211.7,188.9,213.5z"/>
			<path class="st33" d="M207.7,191.9c12.5-0.3,9.9,22.7-2.1,37.9c-0.1-0.3-0.2-0.3-0.2-0.4l-0.4-2.9c2.7-3.4,4.6-7.4,5.6-11.6
				c1.1-1.3,1.8-2.9,2.2-4.5c0.5-2.3-0.6-3.1-1.3-3.2c-0.6,0.1-1.3,1-1.7,2.2c-0.5-1.5-0.9-3-1.2-4.6c-0.6-3.1-1.1-6.2-2.5-6
				c-0.2,0-0.3,0.1-0.5,0.2c-5.2,5.2-10.8,5.1-14.1,8.5c-1.9,2-1.5,4.7-2.7,6.1c-0.5-1.8-1.3-3-2-2.9c-0.9,0.3-1.9,1.4-1.4,3.6
				c0.3,1.5,1,2.9,2.2,3.9c0.1,0.3,0.2,0.5,0.3,0.8c0.9,3.5,2.8,6.7,5.3,9.3v1.4c-0.3,1.8-1.3,3.5-2.8,4.6c-0.2,0.1-0.2,0.2-0.3,0.2
				c-0.4,0.3-0.8,0.6-1.3,0.8c-0.1,0-0.1,0.1-0.2,0.1c-0.1,0.1-0.2,0.1-0.4,0.1c-0.1,0-0.1,0-0.2,0.1c-0.1,0-0.1,0-0.2,0.1l-6.8,2.2
				c4-10.5-4.6-25.8,4.2-39.4c2.7-4.4,7.3-7.4,12.4-8.2C201,189.9,204.5,190.4,207.7,191.9z"/>
		</g>
		<g transform="translate(29.7 53.115)">
			<g transform="translate(100.9 162.783)">
				<g transform="translate(38.907 0.68)">
					<g>
						<defs>
							<path id="SVGID_7_" d="M-42.8,4l5.3,2.9C-44,3.4-51.5,2.1-58.7,3.3L-64,0.4C-56.8-0.8-49.3,0.5-42.8,4z"/>
						</defs>
						<clipPath id="SVGID_8_">
							<use xlink:href="#SVGID_7_"  style="overflow:visible;"/>
						</clipPath>
						<g class="st34">
							<path class="st35" d="M-58.7,3.2L-64,0.3c4.6-0.7,9.3-0.5,13.7,0.7l5.3,2.9C-49.5,2.8-54.2,2.6-58.7,3.2z"/>
							<path class="st36" d="M-45.1,3.9L-50.4,1c2.2,0.5,4.3,1.3,6.2,2.3l5.3,2.9C-40.8,5.2-42.9,4.4-45.1,3.9L-45.1,3.9z"/>
							<path class="st37" d="M-38.8,6.2L-44,3.3c0.4,0.2,0.8,0.4,1.2,0.6l5.3,2.9C-38,6.7-38.4,6.5-38.8,6.2z"/>
						</g>
					</g>
				</g>
				<path class="st38" d="M-23.6,0.4c22.3-3.1,40.2,13.6,40.2,37.2S-1.5,82.9-23.8,86S-64,72.5-64,48.8
					C-63.9,25.1-45.9,3.4-23.6,0.4z"/>
				<g transform="translate(4.401 3.521)">
					<path class="st39" d="M-24.2,0.4c21.9-3.1,39.6,13.6,39.6,37.2S-2.5,82.9-24.4,86S-64,72.5-64,48.8
						C-63.9,25.1-46.2,3.4-24.2,0.4z"/>
				</g>
			</g>
			<g transform="translate(117.625 176.394)">
				<g transform="translate(16.021 50.398)">
					<path class="st40" d="M-52.6,3h0.2l-2.8,5.5c0.6,0,1.1,0,1.7-0.1c-3.7,0.3-7.3-0.5-10.5-2.4c0.3-0.4,0.5-0.8,0.8-1.2
						c1.3-2.1,2.7-4.8,2.7-4.8l1.1,1.3c1.1,1,2.5,1.7,4,1.8C-54.5,3.2-53.5,3.2-52.6,3z"/>
				</g>
				<g transform="translate(24.823 53.391)">
					<path class="st41" d="M-61.2,0l2.7,4.8C-59.3,5-60.2,5.2-61,5.4h-0.7c-0.8,0.1-1.5,0.1-2.3,0.1L-61.2,0L-61.2,0z"/>
				</g>
				<g transform="translate(0 52.95)">
					<path class="st42" d="M-35.9,23.1h-0.2c-0.2,0-0.4,0.1-0.5,0.1s-0.4,0.1-0.5,0.1h-9.5c-0.1,0-0.2,0-0.4-0.1h-0.2
						c-0.1,0-0.2,0-0.4-0.1h-0.2c-0.1,0-0.2,0-0.3-0.1h-0.3c-0.1,0-0.3-0.2-0.4-0.2c-0.3-0.1-0.5-0.2-0.8-0.3c-0.1,0-0.2,0-0.2-0.1
						c-0.3-0.1-0.5-0.2-0.8-0.3c-0.1,0-0.2,0-0.2-0.1c-0.1,0-0.2,0-0.3-0.1c-0.1,0-0.2,0-0.2-0.1c-0.1,0-0.2,0-0.3-0.1
						c-0.1,0-0.2,0-0.2-0.1c-0.1,0-0.2-0.1-0.3-0.1s-0.2,0-0.2-0.1c-0.1,0-0.2-0.1-0.3-0.1s-0.2,0-0.2-0.1c-0.1,0-0.2-0.1-0.3-0.1
						c-0.1,0-0.1,0-0.2-0.1c-0.1,0-0.2-0.1-0.3-0.1c-0.1,0-0.1,0-0.2-0.1c-0.1,0-0.2-0.1-0.3-0.1c-0.1,0-0.1,0-0.2-0.1
						c-0.1,0-0.2-0.1-0.3-0.1s-0.1-0.1-0.2-0.1s-0.2-0.1-0.3-0.1s-0.1-0.1-0.2-0.1s-0.2-0.1-0.3-0.1s-0.1-0.1-0.2-0.1
						s-0.2-0.1-0.3-0.1s-0.1-0.1-0.2-0.1s-0.2-0.1-0.3-0.1s-0.1-0.1-0.2-0.1s-0.2-0.1-0.3-0.1s-0.1-0.1-0.2-0.1s-0.2-0.1-0.3-0.1
						c-0.2-0.1-0.5-0.3-0.7-0.4c-0.2-0.1-0.3-0.1-0.4-0.2c-0.1,0-0.1-0.1-0.2-0.1S-57.9,19-58,19s-0.1-0.1-0.2-0.1
						c-0.1,0-0.1,0-0.2-0.1c-0.1,0-0.1-0.1-0.2-0.1c-0.1,0-0.1,0-0.2-0.1c-0.1,0-0.1-0.1-0.2-0.1c-0.1,0-0.1,0-0.2-0.1
						c-0.1,0-0.1-0.1-0.2-0.1c-0.1,0-0.1,0-0.2-0.1c-0.1,0-0.1-0.1-0.2-0.1s-0.1-0.1-0.2-0.1S-59.9,18-60,18s-0.1-0.1-0.2-0.1
						s-0.1-0.1-0.2-0.1s-0.1-0.1-0.2-0.1s-0.1-0.1-0.2-0.1c-0.1-0.1-0.2-0.1-0.2-0.2c-0.1,0-0.1-0.1-0.2-0.1l-0.2-0.2
						c-0.1,0-0.1-0.1-0.2-0.1l-0.2-0.2c-0.1,0-0.1-0.1-0.2-0.1l-0.2-0.2c-0.1,0-0.1-0.1-0.2-0.1l-0.2-0.2c-0.1,0-0.1-0.1-0.2-0.1
						l-0.2-0.2c-0.1,0-0.1-0.1-0.2-0.1l-0.2-0.2l-0.2-0.2l-0.2-0.2c-0.1,0-0.1-0.1-0.2-0.1c-0.1-0.1-0.2-0.1-0.2-0.2
						c-0.1,0-0.1-0.1-0.2-0.1l-0.2-0.2c0.5-3.4,2.8-6.3,6-7.6l8.7-2.9c0.1,0,0.1-0.1,0.2-0.1c3.7,2.4,8.1,3.5,12.4,2.9
						c4.7-0.8,9.1-3.1,12.5-6.5c-0.4-0.2-0.7-0.5-1-0.9c0.5,0.5,1,1,1.3,1l8.7,0.4c2.9,0.3,5.3,2.5,5.8,5.4C-9.5,7-9.6,7-9.6,7.1
						s-0.1,0.1-0.1,0.2c-0.1,0.1-0.2,0.2-0.2,0.3l-0.2,0.2c-0.1,0.1-0.2,0.2-0.2,0.3c0,0.1-0.1,0.1-0.1,0.2l-0.3,0.3l-0.2,0.2
						L-11,8.9c0,0.1-0.1,0.1-0.2,0.2l-0.3,0.3c0,0.1-0.1,0.1-0.1,0.2l-0.3,0.3L-12,9.9l-0.3,0.3l-0.2,0.2l-0.3,0.3
						c-0.1,0-0.1,0.1-0.2,0.1l-0.3,0.3l-0.1,0.1l-0.3,0.3l-0.1,0.1l-0.3,0.3l-0.1,0.1l-0.3,0.3l-0.1,0.1l-0.3,0.3
						c-0.4,0.3-0.7,0.6-1.1,1c-0.2,0.2-0.3,0.3-0.4,0.3s-0.1,0.1-0.2,0.1c-0.1,0.1-0.2,0.2-0.3,0.2s-0.1,0.1-0.2,0.1
						c-0.1,0.1-0.2,0.1-0.3,0.2l-0.2,0.2c-0.1,0.1-0.2,0.1-0.2,0.2l-0.2,0.2c-0.1,0.1-0.2,0.1-0.2,0.2c-0.1,0.1-0.2,0.1-0.2,0.2
						c-0.1,0.1-0.2,0.1-0.2,0.2c-0.1,0.1-0.2,0.1-0.2,0.2c-0.1,0.1-0.2,0.1-0.2,0.2c-0.1,0.1-0.2,0.1-0.2,0.2
						c-0.1,0.1-0.2,0.1-0.2,0.2c-0.1,0.1-0.2,0.1-0.3,0.2s-0.2,0.1-0.2,0.2c-0.1,0.1-0.2,0.1-0.2,0.2c-0.1,0.1,0-0.2,0-0.1
						c-0.1,0.1-0.2,0.1-0.2,0.2c-0.1,0.1-0.2,0.1-0.2,0.2c-0.1,0.1-0.2,0.1-0.3,0.2c-0.1,0-0.1,0-0.2,0.1c-0.1,0.1-0.2,0.1-0.3,0.2
						c-0.1,0-0.1,0.1-0.2,0.1c-0.1,0.1-0.2,0.1-0.3,0.2c-0.1,0-0.1,0-0.2,0.1c-0.1,0.1-0.2,0.1-0.3,0.2c-0.1,0-0.1,0-0.2,0.1
						c-0.1,0.1-0.2,0.1-0.3,0.2c-0.1,0-0.1,0-0.2,0.1c-0.1,0.1-0.2,0.1-0.3,0.2c-0.1,0-0.1,0-0.2,0.1c-0.1,0.1-0.2,0.1-0.3,0.2
						c-0.1,0-0.1,0-0.2,0.1c-0.1,0-0.2,0.1-0.3,0.1c-0.1,0-0.1,0-0.2,0.1c-0.1,0-0.2,0.1-0.3,0.1c-0.1,0-0.1,0-0.2,0.1
						c-0.1,0-0.2,0.1-0.3,0.1c-0.1,0-0.1,0-0.2,0.1c-0.1,0-0.2,0.1-0.3,0.1c-0.1,0-0.1,0-0.2,0.1c-0.1,0-0.2,0.1-0.3,0.1
						c-0.1,0-0.1,0-0.2,0.1c-0.1,0-0.2,0.1-0.3,0.1c-0.1,0-0.1,0-0.2,0.1c-0.1,0-0.2,0.1-0.3,0.1c-0.1,0-0.1,0-0.2,0.1
						c-0.1,0-0.2,0.1-0.3,0.1c-0.1,0-0.1,0-0.2,0.1c-0.1,0-0.2,0.1-0.3,0.1c-0.1,0-0.1,0-0.2,0.1c-0.1,0-0.2,0.1-0.3,0.1
						c-0.1,0-0.1,0-0.2,0.1c-0.1,0-0.2,0.1-0.3,0.1c-0.1,0-0.1,0-0.2,0.1c-0.1,0-0.2,0.1-0.3,0.1s-0.2,0.1-0.3,0.1s-0.2,0.1-0.3,0.1
						s-0.2,0.1-0.3,0.1s-0.2,0.1-0.3,0.1S-29,21-29.1,21s-0.2,0.1-0.3,0.1s-0.2,0.1-0.3,0.1s-0.2,0.1-0.3,0.1s-0.2,0.1-0.3,0.1
						s-0.2,0.1-0.3,0.1s-0.2,0.1-0.3,0.1s-0.2,0.1-0.3,0.1s-0.2,0.1-0.3,0.1s-0.2,0.1-0.3,0.1c-0.1,0-0.2,0-0.3,0.1
						c-0.1,0-0.2,0.1-0.3,0.1c-0.1,0-0.2,0-0.3,0.1c-0.1,0-0.2,0.1-0.3,0.1c-0.1,0-0.2,0-0.3,0.1c-0.1,0-0.2,0.1-0.3,0.1
						s-0.2,0-0.2,0.1c-0.1,0-0.2,0.1-0.3,0.1s-0.2,0-0.2,0.1c-0.1,0-0.2,0-0.3,0.1h-0.2c-0.2,0.1-0.4,0.1-0.5,0.2
						c-0.2,0.1-0.4,0.1-0.5,0.2c-0.1,0-0.2,0-0.3,0.1c-0.1,0,0.1-0.1,0-0.1C-36.2,23.1-35.8,23-35.9,23.1z"/>
				</g>
				<g transform="translate(15.052 53.215)">
					<path class="st43" d="M-40.1,0c0.3,0.3,0.6,0.6,1,0.9c-3.4,3.4-7.8,5.7-12.5,6.5C-56,8-60.4,7-64,4.5l0.1-0.1
						c0.3-0.3,0.6-0.7,0.9-1.1c3.3,1.9,7.2,2.7,11,2.3h0.7C-47.2,4.8-43.3,2.8-40.1,0z"/>
				</g>
				<g transform="translate(27.64 48.021)">
					<path class="st40" d="M-52.8,4.9L-52.8,4.9l0.2,0.2c-3.1,2.7-6.8,4.6-10.8,5.5c0.8-0.2,1.5-0.4,2.2-0.5L-64,5.3
						c2.7-0.3,5.2-1.6,6.9-3.8c0.4-0.5,0.7-1,1-1.5v0.1C-55.2,1.8-54.1,3.4-52.8,4.9z"/>
				</g>
				<g transform="translate(40.756 24.959)">
					<path class="st26" d="M-61.5,0c0.9,0.1,2,1.1,1.5,3.6c-0.5,2.5-2.4,5.5-3.3,5.7h-0.1c-0.3,0-0.5-0.4-0.7-0.8
						c0.2-0.5,0.3-1.1,0.4-1.7c-0.1,0-0.2-0.1-0.3-0.2c0.7-2,1.2-4,1.6-6.1C-62.2,0.3-61.9,0.1-61.5,0C-61.6,0-61.5,0-61.5,0
						C-61.5,0-61.5,0-61.5,0z"/>
				</g>
				<g transform="translate(20.686 50.926)">
					<path class="st23" d="M-64,0.9c0.1-0.3,0.2-0.6,0.2-0.9c1.2,1,2.5,1.9,3.9,2.6C-61.5,2.6-62.9,1.9-64,0.9z"/>
				</g>
				<g transform="translate(20.862 50.31)">
					<path class="st24" d="M-64,0.6L-64,0.6c0-0.2,0-0.4,0.1-0.6C-64,0.2-64,0.4-64,0.6z"/>
				</g>
				<g transform="translate(20.686 45.997)">
					<path class="st44" d="M-50.3,3.4v0.2c-1.3,1.8-3.4,3.3-6.9,3.8h-0.3c-0.9,0.2-1.8,0.2-2.7,0.1c-1.4-0.7-2.7-1.5-3.9-2.6
						c0-0.2,0-0.4,0.1-0.6V2.1c1.8,1.6,4.3,2.4,6.7,2.1c2.1-0.3,4.5-1.8,6.7-4.2v2.3l0,0v0.6l0,0v0.4C-50.3,3.3-50.3,3.4-50.3,3.4z"
						/>
				</g>
				<g transform="translate(16.813 50.486)">
					<path class="st43" d="M-64,4.8c1.3-2.1,2.7-4.8,2.7-4.8C-62.1,1.7-63,3.3-64,4.8z"/>
				</g>
				<g transform="translate(29.158 25.025)">
					<path class="st45" d="M-52.7,0.6c0.2,0.1,0.3,0.3,0.4,0.4c0.3,0.4,0.4,0.9,0.4,1.4l-0.2,2.4c0,0.5-0.2,1-0.4,1.4
						c-0.6,1-1.7,1.7-2.8,1.8L-60,8.6c-1.6,0.3-3.2-0.6-3.6-2.2L-64,4.7C-64,4.4-64,4.1-64,3.8c0.2,0,0.4,0.2,0.4,0.4l0.4-0.1
						c0-0.4-0.3-0.6-0.7-0.8c0.1-0.3,0.3-0.6,0.4-0.9c0.5-0.6,1.3-1.1,2.1-1.2l6.4-1.2h0.2C-54-0.1-53.3,0.1-52.7,0.6z M-52.8,2.4
						c0-0.5-0.2-0.9-0.5-1.2c-0.4-0.3-0.9-0.4-1.4-0.4h-0.2L-61.3,2c-0.6,0.1-1.1,0.4-1.4,0.9c-0.3,0.4-0.4,0.9-0.4,1.4l0.4,1.7
						c0.4,1.1,1.5,1.9,2.7,1.7l4.6-0.6c1.2-0.2,2.2-1.1,2.4-2.4L-52.8,2.4L-52.8,2.4z"/>
				</g>
				<g transform="translate(30.073 25.895)">
					<path class="st23" d="M-60.9,6.9c-1.2,0.2-2.4-0.5-2.7-1.7L-64,3.6c-0.1-0.5,0-1,0.4-1.4c0.4-0.4,0.9-0.7,1.4-0.9l6.4-1.2h0.2
						c0.5-0.1,1,0,1.4,0.4c0.4,0.3,0.6,0.8,0.5,1.2L-53.9,4C-54,5.2-55,6.2-56.2,6.4L-60.9,6.9z"/>
				</g>
				<g transform="translate(25.263 28.348)">
					<path class="st45" d="M-60,0.1c0.4,0.2,0.7,0.4,0.7,0.8L-59.7,1c0-0.2-0.2-0.4-0.4-0.4c-0.5-0.2-1.1-0.3-1.6-0.2
						c-0.5,0.1-1.1,0.2-1.5,0.5c-0.3,0.2-0.4,0.4-0.4,0.6L-64,1.6c0.1-0.4,0.3-0.8,0.7-1c0.5-0.3,1-0.5,1.6-0.5
						C-61.2,0-60.6,0-60,0.1z"/>
				</g>
				<g transform="translate(10.395)">
					<path class="st46" d="M-26,2.8c7.2,6-2.3,17.9-5.6,18.4c0,1.5-0.1,2.9-0.4,4.4c-0.3,2.1-0.9,4.1-1.6,6.1
						c-0.1-0.2-0.2-0.3-0.3-0.5c0.3-0.4,0.4-0.9,0.4-1.4l0.2-2.4c0-0.5-0.1-1-0.4-1.4c0.2-1.5,0.3-2.9,0.3-4.4
						c-3.6,0.4-7.8,1.2-14.4-3.9c-1.9-1.5-4.3-2.3-6.7-2.2c-0.3,0-0.7,0.1-1,0.3c-2.1,7.1-3.9,5.6-4.8,8.9c-0.2,1.7-0.2,3.4,0.1,5.1
						c-0.3,0.5-0.4,1-0.4,1.5l0.2,2.3c0,0.5,0.2,1,0.5,1.3c0,0.4-0.2,0.8-0.5,1.1c-0.7-2-1.1-4.1-1.3-6.2c-0.1-0.8-0.1-1.6-0.1-2.4
						c-4.5-9.4-1.9-20.2,4-21.9c3.9-3.3,7.4-4.8,10.6-5.3c4.6-0.6,8.4,1,11.4,2.7s5.5,3.5,7.1,3.3C-27.4,5.9-26.6,5-26,2.8z"/>
				</g>
				<g transform="translate(14.172 28.885)">
					<path class="st26" d="M-43.9,17.2c-2.2,2.5-4.7,4-6.7,4.2c-2.4,0.2-4.8-0.5-6.7-2.1c-2.8-2.2-5.2-5.9-6.4-10.9
						C-63.8,8-63.9,7.4-64,7c0.4-0.2,0.6-0.6,0.5-1.1c0.7,0.8,1.8,1.2,2.8,1.1l4.6-0.6c1.7-0.3,3.1-1.5,3.6-3.2l0.4-1.8
						c0.1-0.3,0.1-0.6,0-0.9c0.4-0.3,1-0.5,1.5-0.5c0.5-0.1,1.1,0,1.6,0.2v0.9l0.4,1.7c0.5,1.5,2,2.4,3.6,2.2l4.6-0.6
						c1.2-0.2,2.2-0.9,2.8-1.8c0.1,0.2,0.1,0.4,0.3,0.5c0.1,0.1,0.2,0.2,0.3,0.2c-0.1,0.6-0.3,1.1-0.4,1.7
						C-38.6,9.5-40.7,13.7-43.9,17.2z"/>
				</g>
				<g transform="translate(14.084 27.407)">
					<path class="st45" d="M-52.4,2.5c0.1-0.3,0.2-0.5,0.4-0.6v0.9l-0.4,1.8c-0.5,1.7-1.9,2.9-3.6,3.2l-4.6,0.6
						c-1.5,0.3-3-0.6-3.3-2.1c0-0.1,0-0.2,0-0.3L-64,3.6c0-0.5,0.1-1,0.4-1.5c0.1-0.2,0.3-0.4,0.4-0.5c0.5-0.6,1.3-0.9,2-1.1h0.2
						l6.4-0.5c0.8-0.1,1.6,0.1,2.1,0.7c0.2,0.2,0.3,0.4,0.4,0.7c-0.4,0.2-0.6,0.5-0.7,1L-52.4,2.5z M-52.9,2.7c0.1-0.5,0-1-0.4-1.3
						c-0.4-0.4-0.9-0.5-1.4-0.4l-6.4,0.5h-0.2c-0.5,0.1-1,0.3-1.4,0.7c-0.4,0.4-0.5,0.9-0.5,1.4l0.2,2.3c0.1,1.1,1.1,1.8,2.1,1.7
						c0.1,0,0.2,0,0.2,0l4.6-0.6c1.3-0.2,2.3-1.1,2.7-2.4L-52.9,2.7L-52.9,2.7z"/>
				</g>
				<g transform="translate(14.964 28.369)">
					<path class="st23" d="M-61.5,6.6c-1.1,0.2-2.1-0.5-2.4-1.6c0,0,0-0.1,0-0.1L-64,2.7c0-0.5,0.2-1,0.5-1.4
						c0.4-0.4,0.9-0.6,1.4-0.7h0.2l6.4-0.5c0.5-0.1,1,0.1,1.4,0.4c0.3,0.3,0.5,0.8,0.4,1.3l-0.4,1.8c-0.4,1.2-1.4,2.2-2.7,2.4
						L-61.5,6.6z"/>
				</g>
				<g transform="translate(14.239 15.27)">
					<path class="st26" d="M-51.5,2.4c6.5,5,10.8,4.3,14.4,3.9c0,1.5-0.1,2.9-0.3,4.4c-0.1-0.2-0.2-0.3-0.4-0.4
						c-0.6-0.4-1.3-0.6-2-0.5h-0.2l-6.4,1.2c-0.8,0.2-1.6,0.6-2.1,1.2c-0.2,0.3-0.3,0.6-0.4,0.9c-0.5-0.2-1.1-0.2-1.7-0.1
						c-0.6,0.1-1.1,0.2-1.6,0.5c-0.1-0.3-0.2-0.5-0.4-0.7c-0.6-0.5-1.3-0.8-2.1-0.7l-6.4,0.5h-0.2c-0.8,0.1-1.5,0.5-2,1.1
						c-0.2,0.2-0.3,0.4-0.4,0.5c-0.3-1.7-0.4-3.4-0.1-5.1c1.1-3.3,2.8-1.8,4.8-8.9c0.3-0.1,0.6-0.2,1-0.3
						C-55.7,0.1-53.4,0.9-51.5,2.4z"/>
				</g>
				<g transform="translate(10.253 29.272)">
					<path class="st26" d="M-60.2,6.5c0.1,0.5,0.2,1,0.4,1.4c-0.2,0.4-0.4,0.8-0.7,0.9h-0.1c-0.9,0.1-2.7-2.5-3.3-4.8
						c-0.5-2.5,0.6-3.7,1.5-4h0.2c0.3,0,0.5,0.1,0.7,0.3C-61.3,2.4-60.8,4.5-60.2,6.5z"/>
				</g>
			</g>
		</g>
		<g transform="translate(-10.735 45.359)">
			<g transform="translate(162.235 39.793)">
				
					<ellipse transform="matrix(0.4782 -0.8783 0.8783 0.4782 -54.2056 18.1127)" class="st47" cx="-11.9" cy="54.7" rx="42.5" ry="36.3"/>
				<g transform="translate(5.298 1.766)">
					
						<ellipse transform="matrix(0.4782 -0.8783 0.8783 0.4782 -54.2056 18.1127)" class="st48" cx="-11.9" cy="54.7" rx="42.5" ry="36.3"/>
				</g>
			</g>
			<g transform="translate(194.256 66.564)">
				<g transform="translate(24.017 42.461)">
					<g transform="translate(12.803 6.711)">
						<path class="st23" d="M-64,0c0.5,0.2,1,0.3,1.6,0.3C-63,0.2-63.5,0.1-64,0z"/>
					</g>
					<g transform="translate(3.179 6.887)">
						<path class="st49" d="M-44.6,0.5c3,0.3,5.4,2.7,5.7,5.7L-39,6.4c-0.2,0.3-0.4,0.5-0.6,0.7l-0.3,0.3c-0.2,0.2-0.3,0.4-0.4,0.4
							L-40.6,8l-0.4,0.4l-0.3,0.3c-0.1,0.2-0.3,0.3-0.4,0.4L-42,9.4c-0.2,0.1-0.3,0.3-0.4,0.4l-0.3,0.3c-0.2,0.1-0.3,0.3-0.4,0.4
							l-0.3,0.3l-0.4,0.4l-0.3,0.3c-0.2,0.2-0.4,0.3-0.5,0.4l-0.2,0.2c-0.5,0.4-1,0.8-1.5,1.2c-0.1,0.1-0.2,0.1-0.2,0.2
							c-0.2,0.2-0.4,0.3-0.5,0.4c-0.1,0.1-0.2,0.2-0.3,0.2c-0.2,0.1-0.4,0.3-0.5,0.4c-0.1,0.1-0.2,0.2-0.3,0.2
							c-0.2,0.1-0.4,0.3-0.5,0.4c-0.1,0.1-0.2,0.2-0.4,0.2c-0.2,0.1-0.4,0.2-0.5,0.4c-0.1,0.1-0.2,0.2-0.4,0.2l-0.5,0.3
							c-0.1,0.1-0.2,0.1-0.4,0.2l-0.5,0.3c-0.1,0.1-0.2,0.1-0.3,0.2c-0.2,0.1-0.4,0.2-0.6,0.4c-0.1,0-0.2,0.1-0.3,0.1
							c-0.5,0.3-1.1,0.6-1.7,0.9c-0.1,0-0.2,0.1-0.3,0.1c-0.2,0.1-0.4,0.2-0.6,0.3c-0.1,0.1-0.2,0.1-0.4,0.2l-0.5,0.3
							c-0.1,0.1-0.3,0.1-0.4,0.2c-0.2,0.1-0.3,0.2-0.5,0.2c-0.1,0.1-0.3,0.1-0.4,0.2c-0.2,0.1-0.4,0.1-0.5,0.2
							c-0.1,0.1-0.3,0.1-0.4,0.2c-0.2,0.1-0.4,0.1-0.5,0.2c-0.1,0-0.3,0.1-0.4,0.1c-0.2,0.1-0.4,0.1-0.5,0.2c-0.1,0-0.3,0.1-0.4,0.1
							c-0.2,0.1-0.4,0.1-0.6,0.2c-0.1,0-0.2,0.1-0.4,0.1c-0.3,0.1-0.5,0.2-0.8,0.2c-0.1,0-0.1,0-0.2,0.1c-0.3,0.1-0.6,0.2-0.9,0.2
							c-0.1,0-0.3,0.1-0.4,0.1c-0.2,0-0.4,0.1-0.5,0.1L-64,8.6l0.7-2.3L-61,9l6.1-9c0.5,0.2,1,0.3,1.6,0.3L-44.6,0.5z"/>
					</g>
					<g transform="translate(8.742 2.384)">
						<path class="st50" d="M-64,0"/>
					</g>
					<g transform="translate(8.742)">
						<path class="st51" d="M-63,0c0.2,0.1,0.4,0.4,0.4,0.6L-64,2.5l0,0V2.4l0,0V1.5l0,0V1.4C-63.8,1-63.3,0.5-63,0z"/>
					</g>
					<g transform="translate(8.653 1.413)">
						<path class="st23" d="M-64,0"/>
					</g>
					<g transform="translate(0.088 15.187)">
						<path class="st19" d="M-60.9,12.6L-60.9,12.6c-0.4,0.1-0.7,0.1-1,0.2c-0.3,0-0.6,0.1-0.9,0.1h-0.1c-0.3,0-0.5,0.1-0.9,0.1H-64
							l0.6-12.5l3.1-0.4l0.5,12.4h-0.3C-60.3,12.5-60.6,12.6-60.9,12.6z"/>
					</g>
					<g transform="translate(2.207 0.53)">
						<path class="st22" d="M-57.5,1.9L-56,0l2.6,5.9l-0.1,0.3l-6.1,9l-2.3-2.7L-64,9.7l2.1-2.6L-57.5,1.9z"/>
					</g>
					<g transform="translate(0 10.243)">
						<path class="st19" d="M-61.8,0l2.2,2.7L-60.2,5l-3.2,0.4L-64,3.4L-61.8,0z"/>
					</g>
				</g>
				<g transform="translate(0 52.262)">
					<path class="st49" d="M-42.3,7.2l2.3-3.4l0.6,2.1L-40,18.4h-5.7c-0.2,0-0.4,0-0.5-0.1h-0.4c-0.2,0-0.4,0-0.5-0.1
						c-0.1,0-0.2,0-0.4-0.1c-0.2,0-0.4-0.1-0.5-0.1c-0.1,0-0.2,0-0.4-0.1c-0.2,0-0.4-0.1-0.5-0.1c-0.1,0-0.2,0-0.4-0.1
						c-0.3-0.1-0.4-0.1-0.7-0.2h-0.2c-0.3-0.1-0.5-0.1-0.8-0.2c-0.1,0-0.2-0.1-0.3-0.1c-0.2-0.1-0.4-0.1-0.5-0.2
						c-0.1,0-0.2-0.1-0.4-0.1c-0.2-0.1-0.4-0.1-0.5-0.2c-0.1,0-0.3-0.1-0.4-0.1c-0.2-0.1-0.4-0.1-0.4-0.2c-0.1,0-0.3-0.1-0.4-0.1
						c-0.2-0.1-0.3-0.1-0.4-0.2c-0.1,0-0.3-0.1-0.4-0.1c-0.2-0.1-0.3-0.1-0.4-0.2c-0.1-0.1-0.3-0.1-0.4-0.2
						c-0.2-0.1-0.3-0.1-0.4-0.2c-0.1-0.1-0.2-0.1-0.4-0.2c-0.1-0.1-0.3-0.1-0.4-0.2c-0.1-0.1-0.2-0.1-0.3-0.2
						c-0.2-0.1-0.4-0.2-0.6-0.3c-0.1,0-0.1-0.1-0.2-0.1c-0.2-0.1-0.5-0.2-0.7-0.4c-0.1,0-0.2-0.1-0.3-0.1l-0.5-0.3
						c-0.1-0.1-0.2-0.1-0.3-0.2c-0.2-0.1-0.3-0.2-0.4-0.3c-0.1-0.1-0.2-0.1-0.3-0.2c-0.2-0.1-0.3-0.2-0.4-0.3
						c-0.1-0.1-0.2-0.2-0.3-0.2c-0.1-0.1-0.3-0.2-0.4-0.3s-0.2-0.2-0.3-0.2c-0.1-0.1-0.3-0.2-0.4-0.3s-0.2-0.2-0.3-0.2
						c-0.1-0.1-0.3-0.2-0.4-0.3s-0.2-0.2-0.3-0.2c-0.2-0.1-0.3-0.2-0.4-0.4c-0.1-0.1-0.2-0.2-0.3-0.2c-0.2-0.2-0.4-0.3-0.4-0.4
						c-0.1,0-0.1-0.1-0.2-0.1c0.4-3.3,2.6-6,5.7-7.2l8.3-2.7c0.5-0.2,1.1-0.4,1.6-0.7L-42.3,7.2z"/>
				</g>
				<g transform="translate(22.858 39.181)">
					<path class="st23" d="M-58.5,0c0.7-0.1,1.1,0.3,1,0.8C-57.8,1.4-58.3,1.9-59,2l-3.6,0.5c-0.6,0.1-1.2-0.2-1.4-0.8
						c-0.1-0.5,0.4-1,1-1.1L-58.5,0z"/>
				</g>
				<g transform="translate(10.139)">
					<g transform="translate(16.086 52.704)">
						<path class="st23" d="M-64,0"/>
					</g>
					<g transform="translate(28.624 21.623)">
						<path class="st23" d="M-61.9,0c0.8,0.1,1.9,1,1.4,3.4c-0.4,2.4-2.2,5.3-3.1,5.5h-0.1c-0.1,0-0.3-0.1-0.4-0.2
							c0.2-0.7,0.3-1.3,0.4-2c0.7-2.1,1.1-4.3,1.3-6.5C-62.2,0.1-62.1,0.1-61.9,0C-62,0-62,0-61.9,0z"/>
					</g>
					<g transform="translate(9.64 46.347)">
						<path class="st23" d="M-57.3,3.4c0.6,0.2,1.2,0.3,1.9,0.4l-2.1,2.6l-6.4-6c0-0.1,0.1-0.3,0.1-0.4C-62.1,1.7-59.8,2.9-57.3,3.4
							z"/>
					</g>
					<g transform="translate(9.64 45.728)">
						<path class="st50" d="M-64,0.6L-64,0.6c0-0.2,0-0.4,0.1-0.6C-63.9,0.2-64,0.4-64,0.6z"/>
					</g>
					<g transform="translate(9.64 43.874)">
						<path class="st27" d="M-51,1l-4.4,5.4c-0.6-0.1-1.2-0.2-1.9-0.4c-2.5-0.6-4.8-1.8-6.7-3.5c0-0.2,0-0.4,0.1-0.6V1.6
							c1.7,1.5,4.1,2.2,6.4,1.9c2.5-0.4,4.7-1.6,6.4-3.5v0.1l0,0V1C-51.1,0.8-51.1,0.9-51,1C-51.1,0.9-51,0.9-51,1z"/>
					</g>
					<g transform="translate(5.402 45.287)">
						<path class="st22" d="M-61.4,0l1.6,1.4l6.4,6l-2.2,3.4l-2.3,3.4l-6.1-7.3L-64,6.6L-61.4,0z"/>
					</g>
					<g transform="translate(3.901 52.086)">
						<path class="st23" d="M-62.4,0c-0.5,0.3-1,0.5-1.6,0.7C-63.5,0.6-62.9,0.3-62.4,0z"/>
					</g>
					<g transform="translate(8.051 44.492)">
						<path class="st51" d="M-63.4,0c0.3,0.3,0.7,0.7,1.1,1v0.3c0,0.2,0,0.4-0.1,0.5c0,0.1,0,0.2-0.1,0.4L-64,0.7
							C-63.9,0.4-63.7,0.2-63.4,0z"/>
					</g>
					<g transform="translate(3.106 28.334)">
						<path class="st52" d="M-44.2,9.1c1.1-0.2,2.4-1.9,3.4-3.7c1-1.7,1.9-3.5,2.6-5.4c-0.1,0.7-0.3,1.4-0.4,2
							c-1.1,4.8-2.6,9-4.9,12.1c-0.4,0.5-0.8,1-1.2,1.5c-1.6,1.9-3.9,3.1-6.4,3.5c-2.3,0.3-4.6-0.4-6.4-1.9c-0.4-0.3-0.7-0.6-1.1-1
							c-2.3-2.5-4-6.3-5-10.7c-0.2-0.7-0.4-1.4-0.4-2c0.7,1.7,1.6,3.3,2.6,4.9c1.1,1.4,2.4,2.8,3.4,2.7c0.2,0,0.3-0.1,0.4-0.2
							c1.1-0.8,3.1-2.4,4.2-2.6l2.1-0.3l2.1-0.3c1.1-0.2,3.1,1,4.2,1.4C-44.6,9.1-44.4,9.1-44.2,9.1z M-48,11.7
							c0.1-0.5-0.4-0.9-1-0.8l-4.4,0.6c-0.7,0.1-1.1,0.6-1,1.1c0.2,0.6,0.8,0.9,1.4,0.8l3.6-0.5C-48.7,12.7-48.2,12.3-48,11.7
							L-48,11.7z"/>
					</g>
					<g transform="translate(0 25.707)">
						<path class="st23" d="M-62.1,0.1c0.2,2,0.6,4.1,1.2,6c0.2,0.7,0.3,1.4,0.4,2c-0.1,0.2-0.3,0.3-0.4,0.4h-0.1
							c-0.9,0.1-2.6-2.3-3.1-4.6s0.6-3.5,1.4-3.8h0.1C-62.2,0-62.2,0-62.1,0.1z"/>
					</g>
					<g transform="translate(3.166 15.054)">
						<path class="st23" d="M-38.3,2.7c0.7,2.6-1.5,10.3,0.1,10.6c-0.8,1.9-1.6,3.7-2.6,5.4c-1.1,1.8-2.4,3.5-3.4,3.7
							c-0.2,0-0.3,0-0.4-0.1c-1.1-0.4-3.1-1.6-4.2-1.4l-2.1,0.3l-2.1,0.3c-1.1,0.2-3.1,1.8-4.2,2.6c-0.1,0.1-0.3,0.1-0.4,0.2
							c-1.1,0.2-2.4-1.2-3.4-2.7c-1-1.6-1.9-3.2-2.6-4.9c1.6-0.7-0.5-7.6,0.1-10.4c0.4-2,2.2-3.5,4.2-3.7c2.3-0.4,5.2,0.1,8.4-0.4
							c3.3-0.4,6.2-1.7,8.6-2C-40.6-0.1-39.1,0.3-38.3,2.7z"/>
					</g>
					<g transform="translate(1.211)">
						<path class="st52" d="M-50.4,0.3c3.2-0.4,6.5-0.3,9.7,0.1c1.3,7.9,7.8,6.5,5.7,19.4c0,0.7,0,1.4-0.1,2
							c-0.2,2.2-0.6,4.4-1.3,6.5c-1.6-0.3,0.6-8-0.1-10.6c-0.8-2.3-2.3-2.7-4.3-2.5c-2.3,0.4-5.3,1.6-8.6,2s-6.2,0-8.4,0.4
							c-2.1,0.1-3.9,1.6-4.2,3.7c-0.7,2.7,1.5,9.7-0.1,10.4c-0.7-1.9-1.1-4-1.2-6c-0.1-0.6-0.1-1.3-0.1-1.9
							C-64.6,16.6-65.8,2.5-50.4,0.3z"/>
					</g>
				</g>
			</g>
		</g>
	</g>
	<path class="st31" d="M1012.7,3879.6c7.1-0.6,13.9-3.5,19.2-8.2c9.4-8-9.2,1.5-9.2,1.5l-7.6,4.9L1012.7,3879.6z"/>
	<g transform="translate(679.936 3591.724)">
		
			<linearGradient id="SVGID_9_" gradientUnits="userSpaceOnUse" x1="-227.6238" y1="742.6232" x2="-227.6238" y2="743.6232" gradientTransform="matrix(60.1854 0 0 -93.748 13979.127 69836.9922)">
			<stop  offset="0" style="stop-color:#D9D9D9"/>
			<stop  offset="1" style="stop-color:#F4F4F4"/>
		</linearGradient>
		<path class="st53" d="M309.4,132.2c0,0-14.2,1.5-16.2-8.4c-11.5,3.9-22,10.3-30.8,18.6c0,0-5.7,16.8-11.8,21.5
			c0,0-10,44.2,27.7,53.7C278.4,217.5,312,179.3,309.4,132.2z"/>
		<path class="st54" d="M309.4,132.2c0,0-13.6,1.5-16.2-8.4c0,0,1.5,6.4,10.5,3.5C303.8,127.3,309.3,128.9,309.4,132.2z"/>
		
			<linearGradient id="SVGID_10_" gradientUnits="userSpaceOnUse" x1="-227.4158" y1="742.9675" x2="-226.2328" y2="743.5895" gradientTransform="matrix(51.8394 0 0 -98.549 12035.2148 73417.7422)">
			<stop  offset="0" style="stop-color:#0153E2"/>
			<stop  offset="0.392" style="stop-color:#18ADF4"/>
			<stop  offset="1" style="stop-color:#1FCBFA"/>
		</linearGradient>
		<path class="st55" d="M293.3,123.8c0,0-1.8-3.2-6.9-4.8c0,0-18.8,5.8-30.7,20c-2.2,8.6-6.8,16.5-13.2,22.7
			c0,0-10.6,49.3,35.9,55.9c0,0-34.9-5.4-27.7-53.7c0,0,8.8-8.9,11.8-21.5C262.4,142.4,271.7,132.2,293.3,123.8z"/>
		<g transform="translate(323.642 142.152)">
			
				<linearGradient id="SVGID_11_" gradientUnits="userSpaceOnUse" x1="-549.2277" y1="590.6876" x2="-548.8617" y2="592.6066" gradientTransform="matrix(38.5211 0 0 -23.8672 21107.4746 14147.1865)">
				<stop  offset="0" style="stop-color:#0153E2"/>
				<stop  offset="0.364" style="stop-color:#0D84EC"/>
				<stop  offset="0.852" style="stop-color:#18ADF4"/>
				<stop  offset="1" style="stop-color:#1FCBFA"/>
			</linearGradient>
			<path class="st56" d="M-48.1,20.2c11.1-6.9,20.5-4.7,22.3,5.1c0.2,1.5,0.3,3,0.3,4.5c0,0.7-0.2,1.3-0.5,1.9
				c-0.4,1.1-1,2.2-1.5,3.2c-0.3,0.6-0.6,1-1.1,1.1c-0.5,0.1-0.6-0.3-0.6-0.8c0.4-2.9,0.2-5.9-0.3-8.7c-1.8-6.4-8.3-8.3-15.9-4.5
				c-6.7,3.3-12.3,8.9-17,16.7c-0.2,0.5-0.6,0.9-1.1,1.2c-0.4,0.2-0.7,0-0.7-0.4c0-0.9,0.1-1.7,0.3-2.5c0.2-0.8,0.6-1.6,1.1-2.4
				C-59.3,29.5-55,25-50,21.5C-49.4,21-48.8,20.6-48.1,20.2z"/>
			
				<linearGradient id="SVGID_12_" gradientUnits="userSpaceOnUse" x1="-547.6707" y1="592.5469" x2="-547.2126" y2="594.2529" gradientTransform="matrix(30.8403 0 0 -26.8425 16840.8555 15954.5752)">
				<stop  offset="0" style="stop-color:#0153E2"/>
				<stop  offset="0.364" style="stop-color:#0D84EC"/>
				<stop  offset="0.852" style="stop-color:#18ADF4"/>
				<stop  offset="1" style="stop-color:#1FCBFA"/>
			</linearGradient>
			<path class="st57" d="M-32.3,34.4c-0.3,2.8-0.7,5.6-1.1,8.4c-0.4,2-1.5,3.7-3,5c-0.6,0.6-1.2,0.3-1-0.4c0.3-1.4,0.6-2.9,0.8-4.3
				c0.6-3.1,0.7-6.2,0.5-9.3c-0.6-4.8-4.7-6.6-9.8-4.3c-6.9,3.1-13.2,11.4-14.4,19.1c-0.1,0.4-0.1,0.8-0.2,1.2
				c-0.1,0.5-0.3,0.9-0.7,1.2c-0.4,0.3-0.7,0.3-0.9,0.1c-0.4-0.8-0.8-1.7-1.1-2.6c-0.1-0.6,0-1.3,0.2-1.8
				c2.3-7.3,6.9-13.7,13.1-18.3c8.2-6,15.4-5,17,2.2c0.1,0.3,0.1,0.6,0.2,0.9c0.1,1,0.1,2,0.2,3C-32.4,34.4-32.4,34.4-32.3,34.4z"/>
			
				<linearGradient id="SVGID_13_" gradientUnits="userSpaceOnUse" x1="-549.4069" y1="587.3124" x2="-549.0449" y2="589.6384" gradientTransform="matrix(39.073 0 0 -19.6917 21416.8027 11614.125)">
				<stop  offset="0" style="stop-color:#0153E2"/>
				<stop  offset="0.364" style="stop-color:#0D84EC"/>
				<stop  offset="0.852" style="stop-color:#18ADF4"/>
				<stop  offset="1" style="stop-color:#1FCBFA"/>
			</linearGradient>
			<path class="st58" d="M-48.1,13.2c10.3-6.1,18.6-7,24.6-2.2c0.9,0.8,1.4,2,1.3,3.2v2.1c0,0.5-0.3,1.1-0.7,1.4
				c-0.5,0.4-0.8,0.3-1,0c-0.4-0.7-0.9-1.4-1.5-2c-4.4-4.5-10.7-4.9-19-1c-5.3,2.5-10.3,6.5-15.2,11.9c-0.1,0.2-0.3,0.3-0.4,0.4
				c-0.4,0.4-0.7,0.7-1.1,0.5c-0.3-0.1-0.3-0.5-0.1-1c0.8-2.4,2.3-4.5,4.1-6.3C-54.3,17.6-51.3,15.2-48.1,13.2z"/>
			
				<linearGradient id="SVGID_14_" gradientUnits="userSpaceOnUse" x1="-542.4794" y1="591.1423" x2="-541.7044" y2="593.0953" gradientTransform="matrix(18.2398 0 0 -23.4563 9845.4375 13915.2383)">
				<stop  offset="0" style="stop-color:#0153E2"/>
				<stop  offset="0.364" style="stop-color:#0D84EC"/>
				<stop  offset="0.852" style="stop-color:#18ADF4"/>
				<stop  offset="1" style="stop-color:#1FCBFA"/>
			</linearGradient>
			<path class="st59" d="M-39.4,38.9c-0.2,4-0.8,8-2,11.8c-0.2,1.3-1.1,2.4-2.2,3c-0.2,0.1-0.4,0.3-0.7,0.4
				c-0.8,0.4-1.2,0.2-0.8-0.8c1.5-4.4,2.3-9,2.3-13.6c0-3-2.3-3.9-5.3-2c-2.9,1.8-5.2,5.6-5.2,8.6c0,2.8-0.4,5.6-1.2,8.2
				c-0.4,1.3-1,1.8-1.8,1.5c-0.2-0.1-0.5-0.2-0.7-0.3c-0.5-0.2-0.6-0.7-0.4-1.5c0.5-1.9,0.7-3.9,0.7-5.8c0-4.3,2.9-9.6,7.1-13.1
				c4.8-4,9.7-3.5,10.2,1C-39.4,37.1-39.4,38-39.4,38.9z"/>
			
				<linearGradient id="SVGID_15_" gradientUnits="userSpaceOnUse" x1="-546.6738" y1="576.2866" x2="-546.1288" y2="580.0126" gradientTransform="matrix(25.8962 0 0 -12.2996 14104.3535 7136.3345)">
				<stop  offset="0" style="stop-color:#0153E2"/>
				<stop  offset="0.364" style="stop-color:#0D84EC"/>
				<stop  offset="0.852" style="stop-color:#18ADF4"/>
				<stop  offset="1" style="stop-color:#1FCBFA"/>
			</linearGradient>
			<path class="st60" d="M-45.9,4.9c3.9-2.3,8.1-3.9,12.5-4.8c2.3-0.5,4.7,0.2,6.4,1.8c0.3,0.2,0.2,0.6-0.1,1.2
				c-0.2,0.5-0.7,0.8-1.2,0.7c-2.8-0.3-5.7-0.1-8.4,0.7c-5.3,1.5-10.4,4-14.8,7.4c-0.5,0.3-0.8,0.4-1.1,0.2
				c-0.2-0.4-0.1-0.9,0.3-1.2c1.7-2.3,3.8-4.2,6.1-5.9C-46.1,5.1-46,5-45.9,4.9z"/>
			
				<linearGradient id="SVGID_16_" gradientUnits="userSpaceOnUse" x1="-514.6121" y1="585.007" x2="-512.1331" y2="587.9199" gradientTransform="matrix(5.7046 0 0 -15.7209 2886.3745 9246.0293)">
				<stop  offset="0" style="stop-color:#0153E2"/>
				<stop  offset="0.364" style="stop-color:#0D84EC"/>
				<stop  offset="0.852" style="stop-color:#18ADF4"/>
				<stop  offset="1" style="stop-color:#1FCBFA"/>
			</linearGradient>
			<path class="st61" d="M-46.4,43.3c-0.2,3.9-0.9,7.7-2.3,11.4c-0.4,1.2-0.7,1.5-1.7,1.7c-0.4,0.1-0.8,0.1-1.2,0.2
				c-0.5,0-0.6-0.3-0.4-0.9c1.4-3.7,2.1-7.6,2.1-11.6c0.1-1.2,0.7-2.3,1.7-2.9c1-0.6,1.7-0.3,1.7,0.8
				C-46.4,42.4-46.4,42.9-46.4,43.3z"/>
		</g>
	</g>
</g>
</svg>
