<svg xmlns="http://www.w3.org/2000/svg" xmlns:xlink="http://www.w3.org/1999/xlink" viewBox="0 0 295.045 272.417">
  <defs>
    <style>
      .cls-1 {
        fill: #2caaff;
      }

      .cls-2 {
        opacity: 0.028;
      }

      .cls-3 {
        fill: url(#linear-gradient);
      }

      .cls-4 {
        fill: #1a1a1a;
      }

      .cls-5 {
        fill: #868686;
      }

      .cls-6 {
        fill: url(#linear-gradient-2);
      }

      .cls-7 {
        fill: #d5dee8;
      }

      .cls-8 {
        fill: #c6c5c5;
      }

      .cls-9 {
        fill: #98bee5;
      }

      .cls-10 {
        fill: #4c4c4d;
      }

      .cls-11 {
        fill: #94c43d;
      }

      .cls-12 {
        fill: #b1c2d2;
      }

      .cls-13 {
        fill: #bcd0e1;
      }

      .cls-14, .cls-19 {
        fill: #fff;
      }

      .cls-14 {
        opacity: 0.32;
      }

      .cls-15 {
        opacity: 0.857;
        fill: url(#linear-gradient-3);
      }

      .cls-16 {
        fill: #0083e3;
      }

      .cls-17 {
        fill: #c3a79e;
      }

      .cls-18 {
        fill: #c70000;
      }

      .cls-20 {
        fill: #f6d3a9;
      }

      .cls-21 {
        opacity: 0.102;
      }

      .cls-22 {
        fill: #985c0b;
      }

      .cls-23 {
        fill: #ffdaa7;
      }

      .cls-24 {
        fill: #ddbd98;
      }

      .cls-25 {
        fill: red;
      }

      .cls-26 {
        fill: #ff2727;
      }

      .cls-27 {
        fill: #ff6060;
      }

      .cls-28 {
        fill: #4db7ff;
      }

      .cls-29 {
        fill: #845631;
      }

      .cls-30 {
        fill: #936037;
      }

      .cls-31 {
        clip-path: url(#clip-path);
      }

      .cls-32 {
        fill: #8247a1;
      }

      .cls-33 {
        fill: #80469f;
      }

      .cls-34 {
        fill: #7f469e;
      }

      .cls-35 {
        fill: #b658ed;
      }

      .cls-36 {
        fill: #e395ff;
      }

      .cls-37 {
        fill: #f6f6f6;
      }

      .cls-38 {
        fill: #259cdb;
      }

      .cls-39 {
        fill: #78db23;
      }

      .cls-40 {
        fill: #316861;
      }

      .cls-41 {
        fill: #f2c78c;
      }

      .cls-42 {
        fill: #ff0040;
      }

      .cls-43 {
        fill: #ac5500;
      }

      .cls-44 {
        fill: #ebac00;
      }

      .cls-45 {
        fill: #fdd920;
      }

      .cls-46 {
        fill: #ededed;
      }

      .cls-47 {
        fill: #d9d9d9;
      }

      .cls-48 {
        fill: #f2f2f2;
      }

      .cls-49 {
        fill: #292929;
      }

      .cls-50 {
        fill: url(#linear-gradient-4);
      }

      .cls-51 {
        fill: #0090d2;
      }

      .cls-52 {
        fill: url(#linear-gradient-5);
      }

      .cls-53 {
        fill: url(#linear-gradient-6);
      }

      .cls-54 {
        fill: url(#linear-gradient-7);
      }

      .cls-55 {
        fill: url(#linear-gradient-8);
      }

      .cls-56 {
        fill: url(#linear-gradient-9);
      }

      .cls-57 {
        fill: url(#linear-gradient-10);
      }

      .cls-58 {
        fill: url(#linear-gradient-11);
      }
    </style>
    <linearGradient id="linear-gradient" x1="-3.521" y1="-0.785" x2="-2.521" y2="-0.785" gradientUnits="objectBoundingBox">
      <stop offset="0" stop-color="#737373"/>
      <stop offset="0.041" stop-color="#868686"/>
      <stop offset="0.619" stop-color="#868686"/>
      <stop offset="0.635" stop-color="#989898"/>
      <stop offset="0.653" stop-color="#a9a9a9"/>
      <stop offset="0.666" stop-color="#b0b0b0"/>
      <stop offset="0.707" stop-color="#dfdfde"/>
      <stop offset="0.977" stop-color="#dfdfde"/>
      <stop offset="1" stop-color="#f9f9fa"/>
    </linearGradient>
    <linearGradient id="linear-gradient-2" x1="-3.517" y1="-0.804" x2="-2.518" y2="-0.804" gradientUnits="objectBoundingBox">
      <stop offset="0" stop-color="#b4b4b4"/>
      <stop offset="0.041" stop-color="#bdbdbd"/>
      <stop offset="0.619" stop-color="#bdbdbd"/>
      <stop offset="0.625" stop-color="#c2c2c2"/>
      <stop offset="0.648" stop-color="#d0d0d0"/>
      <stop offset="0.666" stop-color="#d6d5d5"/>
      <stop offset="0.707" stop-color="#f1f0f0"/>
      <stop offset="0.977" stop-color="#f1f0f0"/>
      <stop offset="1" stop-color="#fff"/>
    </linearGradient>
    <linearGradient id="linear-gradient-3" x1="0.5" x2="0.419" y2="0.974" gradientUnits="objectBoundingBox">
      <stop offset="0" stop-color="#effeff" stop-opacity="0.133"/>
      <stop offset="0.422" stop-color="#c6ebff" stop-opacity="0.357"/>
      <stop offset="1" stop-color="#50a1ff"/>
    </linearGradient>
    <clipPath id="clip-path">
      <path id="Path_4697" data-name="Path 4697" d="M164.336,167.183l4.789,2.634a30.512,30.512,0,0,0-19.236-3.272L145.1,163.91A30.608,30.608,0,0,1,164.336,167.183Z" transform="translate(-145.1 -163.555)"/>
    </clipPath>
    <linearGradient id="linear-gradient-4" x1="0.5" y1="1" x2="0.5" gradientUnits="objectBoundingBox">
      <stop offset="0" stop-color="#d9d9d9"/>
      <stop offset="1" stop-color="#f4f4f4"/>
    </linearGradient>
    <linearGradient id="linear-gradient-5" x1="0.09" y1="0.812" x2="1.273" y2="0.19" gradientUnits="objectBoundingBox">
      <stop offset="0" stop-color="#0153e2"/>
      <stop offset="0.392" stop-color="#18adf4"/>
      <stop offset="1" stop-color="#1fcbfa"/>
    </linearGradient>
    <linearGradient id="linear-gradient-6" x1="0.38" y1="1.383" x2="0.746" y2="-0.536" gradientUnits="objectBoundingBox">
      <stop offset="0" stop-color="#0153e2"/>
      <stop offset="0.364" stop-color="#0d84ec"/>
      <stop offset="0.852" stop-color="#18adf4"/>
      <stop offset="1" stop-color="#1fcbfa"/>
    </linearGradient>
    <linearGradient id="linear-gradient-7" x1="0.445" y1="0.922" x2="0.903" y2="-0.784" xlink:href="#linear-gradient-6"/>
    <linearGradient id="linear-gradient-8" x1="0.285" y1="2.084" x2="0.647" y2="-0.242" xlink:href="#linear-gradient-6"/>
    <linearGradient id="linear-gradient-9" x1="0.459" y1="0.707" x2="1.234" y2="-1.246" xlink:href="#linear-gradient-6"/>
    <linearGradient id="linear-gradient-10" x1="0.01" y1="3.923" x2="0.555" y2="0.197" xlink:href="#linear-gradient-6"/>
    <linearGradient id="linear-gradient-11" x1="0.5" y1="0.53" x2="2.979" y2="-2.383" xlink:href="#linear-gradient-6"/>
  </defs>
  <g id="Multiple_Profiles_illustration" transform="translate(-848.63 -3639.558)">
    <path id="Path_4763" data-name="Path 4763" class="cls-2" d="M2641.49,2864.118,2512.861,2937.9s-12.7,10.6-27.811,1.5-81.9-44.784-81.9-44.784-9.147-8.853,0-14.245,143.865-74.779,143.865-74.779Z" transform="translate(-1545.611 968.884)"/>
    <g id="multiple_profiles" transform="translate(848.63 3639.558)">
      <g id="phone" transform="translate(24.832 109.748)">
        <path id="Path_4577" data-name="Path 4577" class="cls-3" d="M138.6,305.244l64.2,37.086c4.624,2.63,12.6,2.267,17.954-.816l128.395-74.081c2.9-1.723,4.352-3.808,4.352-5.894h0v-10.79l-10.518,1.995-56.672-32.824c-4.624-2.63-12.6-2.267-17.953.816L149.575,289.467l-3.627.635-10.156-.635v10.518h0C135.429,301.889,136.336,303.884,138.6,305.244Z" transform="translate(-135.52 -207.305)"/>
        <g id="Group_1518" data-name="Group 1518" transform="translate(7.163 95.059)">
          <path id="Path_4578" data-name="Path 4578" class="cls-4" d="M157.273,318.71a1.535,1.535,0,0,1,.816,1.269c0,.453-.181.635-.635.453a1.536,1.536,0,0,1-.816-1.269C156.638,318.71,156.91,318.528,157.273,318.71Zm-3.264-1.088a1.67,1.67,0,0,0,.816,1.269c.453.181.635,0,.635-.453a1.67,1.67,0,0,0-.816-1.269C154.19,316.9,154.009,317.168,154.009,317.621Zm-2.63-1.451a1.67,1.67,0,0,0,.816,1.269c.453.272.635,0,.635-.453a1.67,1.67,0,0,0-.816-1.269C151.651,315.445,151.289,315.717,151.379,316.171Zm-2.72-1.632a1.67,1.67,0,0,0,.816,1.269c.453.181.635,0,.635-.453a1.67,1.67,0,0,0-.816-1.269C149.022,313.9,148.659,314.085,148.659,314.538Zm-2.539-1.451a1.67,1.67,0,0,0,.816,1.269c.453.181.635,0,.635-.453a1.67,1.67,0,0,0-.816-1.269C146.3,312.453,145.939,312.634,146.12,313.088Zm-2.72-1.541a1.67,1.67,0,0,0,.816,1.269c.453.181.635,0,.635-.453a1.67,1.67,0,0,0-.816-1.269C143.763,310.911,143.4,311.093,143.4,311.546Z" transform="translate(-143.4 -311.023)"/>
          <g id="Group_1517" data-name="Group 1517" transform="translate(0 0.129)">
            <path id="Path_4579" data-name="Path 4579" class="cls-5" d="M152.1,316.647a1.67,1.67,0,0,0,.816,1.269c.363.181.544.091.635-.181a.317.317,0,0,0-.181-.091,1.535,1.535,0,0,1-.816-1.269v-.181C152.281,316.013,152.1,316.285,152.1,316.647Z" transform="translate(-144.211 -311.629)"/>
            <path id="Path_4580" data-name="Path 4580" class="cls-5" d="M155.1,318.346a1.67,1.67,0,0,0,.816,1.269c.363.181.544.091.635-.181a.317.317,0,0,0-.181-.091,1.536,1.536,0,0,1-.816-1.269v-.181C155.191,317.712,155.1,317.893,155.1,318.346Z" transform="translate(-144.491 -311.786)"/>
            <path id="Path_4581" data-name="Path 4581" class="cls-5" d="M157.9,319.951a1.67,1.67,0,0,0,.816,1.269c.363.181.544.091.635-.181a.317.317,0,0,0-.181-.091,1.535,1.535,0,0,1-.816-1.269V319.5C158.172,319.407,157.9,319.588,157.9,319.951Z" transform="translate(-144.752 -311.94)"/>
            <path id="Path_4582" data-name="Path 4582" class="cls-5" d="M143.4,311.65a1.67,1.67,0,0,0,.816,1.269c.363.181.544.091.635-.181a.317.317,0,0,0-.181-.091,1.535,1.535,0,0,1-.816-1.269V311.2C143.491,311.106,143.4,311.2,143.4,311.65Z" transform="translate(-143.4 -311.165)"/>
            <path id="Path_4583" data-name="Path 4583" class="cls-5" d="M149.2,314.947a1.67,1.67,0,0,0,.816,1.269c.363.181.544.091.635-.181a.317.317,0,0,0-.181-.091,1.535,1.535,0,0,1-.816-1.269v-.181C149.381,314.313,149.2,314.585,149.2,314.947Z" transform="translate(-143.941 -311.47)"/>
            <path id="Path_4584" data-name="Path 4584" class="cls-5" d="M146.2,313.251a1.67,1.67,0,0,0,.816,1.269c.363.181.544.091.635-.181a.317.317,0,0,0-.181-.091,1.536,1.536,0,0,1-.816-1.269V312.8C146.472,312.707,146.2,312.888,146.2,313.251Z" transform="translate(-143.661 -311.315)"/>
          </g>
        </g>
        <g id="Group_1520" data-name="Group 1520" transform="translate(44.975 116.872)">
          <path id="Path_4585" data-name="Path 4585" class="cls-4" d="M199.078,342.805a1.536,1.536,0,0,1,.816,1.269c0,.453-.181.635-.635.453a1.535,1.535,0,0,1-.816-1.269C198.443,342.715,198.624,342.624,199.078,342.805Zm-3.355-1.088a1.67,1.67,0,0,0,.816,1.269c.453.181.635,0,.635-.453a1.67,1.67,0,0,0-.816-1.269C196.085,340.992,195.723,341.264,195.723,341.717Zm-2.63-1.632a1.67,1.67,0,0,0,.816,1.269c.453.181.635,0,.635-.453a1.67,1.67,0,0,0-.816-1.269C193.365,339.541,193.093,339.632,193.093,340.085Zm-2.63-1.451a1.67,1.67,0,0,0,.816,1.269c.453.181.635,0,.635-.453a1.67,1.67,0,0,0-.816-1.269C190.736,338,190.464,338.181,190.464,338.634Zm-2.63-1.451a1.67,1.67,0,0,0,.816,1.269c.453.181.635,0,.635-.453a1.67,1.67,0,0,0-.816-1.269C188.106,336.549,187.834,336.73,187.834,337.184Zm-2.539-1.541a1.67,1.67,0,0,0,.816,1.269c.453.272.635,0,.635-.453a1.67,1.67,0,0,0-.816-1.269C185.476,334.917,185.114,335.189,185.3,335.642Z" transform="translate(-185.114 -335.08)"/>
          <g id="Group_1519" data-name="Group 1519" transform="translate(0 0.085)">
            <path id="Path_4586" data-name="Path 4586" class="cls-5" d="M193.9,340.746a1.67,1.67,0,0,0,.816,1.269c.363.181.544.091.635-.181a.317.317,0,0,0-.181-.091,1.535,1.535,0,0,1-.816-1.269v-.181C194.081,340.112,193.9,340.293,193.9,340.746Z" transform="translate(-185.921 -335.645)"/>
            <path id="Path_4587" data-name="Path 4587" class="cls-5" d="M196.8,342.351a1.67,1.67,0,0,0,.816,1.269c.363.181.544.091.635-.181a.317.317,0,0,0-.181-.091,1.536,1.536,0,0,1-.816-1.269V341.9C197.072,341.807,196.8,341.988,196.8,342.351Z" transform="translate(-186.191 -335.799)"/>
            <path id="Path_4588" data-name="Path 4588" class="cls-5" d="M199.8,344.05a1.67,1.67,0,0,0,.816,1.269c.363.181.544.091.635-.181a.317.317,0,0,0-.181-.091,1.536,1.536,0,0,1-.816-1.269V343.6C199.891,343.506,199.8,343.6,199.8,344.05Z" transform="translate(-186.471 -335.957)"/>
            <path id="Path_4589" data-name="Path 4589" class="cls-5" d="M185.1,335.651a1.67,1.67,0,0,0,.816,1.269c.363.181.544.091.635-.181a.317.317,0,0,0-.181-.091,1.536,1.536,0,0,1-.816-1.269V335.2C185.372,335.107,185.1,335.288,185.1,335.651Z" transform="translate(-185.1 -335.174)"/>
            <path id="Path_4590" data-name="Path 4590" class="cls-5" d="M191,338.952a1.67,1.67,0,0,0,.816,1.269c.363.181.544.091.635-.181a.317.317,0,0,0-.181-.091,1.536,1.536,0,0,1-.816-1.269V338.5C191.181,338.408,191,338.68,191,338.952Z" transform="translate(-185.65 -335.483)"/>
            <path id="Path_4591" data-name="Path 4591" class="cls-5" d="M188.1,337.351a1.67,1.67,0,0,0,.816,1.269c.363.181.544.091.635-.181a.317.317,0,0,0-.181-.091,1.536,1.536,0,0,1-.816-1.269V336.9C188.191,336.807,188.1,336.988,188.1,337.351Z" transform="translate(-185.38 -335.333)"/>
          </g>
        </g>
        <path id="Path_4592" data-name="Path 4592" class="cls-6" d="M353.481,253.56h0v-2.811l-10.518,1.995L286.2,219.919c-4.624-2.63-12.6-2.267-17.954.816L149.283,289.467l-3.627.635-10.156-.635v2.63h0v1.541a5.966,5.966,0,0,0,3.083,3.718l64.2,37.086c4.624,2.63,12.6,2.267,17.954-.816l128.395-74.081C352.212,257.821,353.663,255.645,353.481,253.56Z" transform="translate(-135.5 -207.305)"/>
        <path id="Path_4593" data-name="Path 4593" class="cls-7" d="M358.42,260.5,236.1,331.135v3.083l122.32-70.635Z" transform="translate(-144.882 -211.253)"/>
        <path id="Path_4594" data-name="Path 4594" class="cls-7" d="M268.556,208.828,140.161,282.909c-5.168,3.083-5.712,7.8-1.269,10.337l64.2,37.086c4.624,2.63,12.6,2.267,17.954-.816l128.395-74.081c5.168-3.083,5.712-7.8,1.269-10.337l-64.2-37.086C281.794,205.292,273.815,205.655,268.556,208.828Z" transform="translate(-135.536 -206.188)"/>
        <path id="Path_4595" data-name="Path 4595" class="cls-8" d="M138.877,293.222l64.2,37.086c3.627,2.176,9.611,2.267,14.508.635-4.534,1.088-9.611.816-12.876-1.088l-64.2-37.086c-4.624-2.72-4.08-7.345,1.269-10.337l128.395-74.081a21.037,21.037,0,0,1,3.264-1.451,17.273,17.273,0,0,0-4.987,1.9L140.055,282.885C134.8,285.968,134.252,290.683,138.877,293.222Z" transform="translate(-135.522 -206.255)"/>
        <path id="Path_4596" data-name="Path 4596" class="cls-9" d="M269.329,209.089l.181-.091L147.1,279.724l80.791,46.607S350.029,255.786,350.12,255.7Z" transform="translate(-136.582 -206.448)"/>
        <path id="Path_4597" data-name="Path 4597" class="cls-10" d="M356.771,243.351a5,5,0,0,0-4.262,0c-1.269.635-1.088,1.813,0,2.448a5,5,0,0,0,4.262,0A1.289,1.289,0,0,0,356.771,243.351Z" transform="translate(-155.655 -209.609)"/>
        <path id="Path_4598" data-name="Path 4598" class="cls-11" d="M348.739,239.865a3.264,3.264,0,0,0-2.9,0,.912.912,0,0,0,0,1.723,3.264,3.264,0,0,0,2.9,0A.912.912,0,0,0,348.739,239.865Z" transform="translate(-155.058 -209.297)"/>
        <path id="Path_4599" data-name="Path 4599" class="cls-12" d="M192.762,322.106h0c2.267-1.269,2.448-3.083.544-4.171l-15.052-8.7a8.42,8.42,0,0,0-7.345.363h0c-2.267,1.269-2.448,3.083-.544,4.171l15.052,8.7A7.858,7.858,0,0,0,192.762,322.106Z" transform="translate(-138.63 -215.734)"/>
        <path id="Path_4600" data-name="Path 4600" class="cls-13" d="M194.214,320.646a2.023,2.023,0,0,0-1-2.811l-15.052-8.7a8.42,8.42,0,0,0-7.345.363c-1.541,1-2.176,2.358-1.451,3.355a4.245,4.245,0,0,1,1.451-1.36c2.176-1.269,5.44-1.451,7.345-.363l15.052,8.7A5.312,5.312,0,0,1,194.214,320.646Z" transform="translate(-138.631 -215.725)"/>
        <g id="Group_1521" data-name="Group 1521" transform="translate(28.562 106.59)">
          <path id="Path_4601" data-name="Path 4601" class="cls-5" d="M168.36,323.976l.453.181,7.345,4.171a2.772,2.772,0,0,1,.907,1.088,7.613,7.613,0,0,1,.363,1.088v.363c0,1-.544,1.451-1.36,1l-7.8-4.534a2.772,2.772,0,0,1-.907-1.088,2.871,2.871,0,0,1-.363-1.451C167,323.885,167.544,323.432,168.36,323.976Z" transform="translate(-167 -323.741)"/>
          <path id="Path_4602" data-name="Path 4602" class="cls-4" d="M176.345,328.271a2.772,2.772,0,0,1,.907,1.088,7.613,7.613,0,0,1,.363,1.088l-7.345-4.171a2.772,2.772,0,0,1-.907-1.088A7.615,7.615,0,0,1,169,324.1Z" transform="translate(-167.187 -323.774)"/>
        </g>
        <path id="Path_4603" data-name="Path 4603" class="cls-14" d="M322.054,238.4l35.454,20.4-36.9,21.4-34.366,19.858-49.871,28.834-2.267-1.36Z" transform="translate(-144.695 -209.192)"/>
        <path id="Path_4604" data-name="Path 4604" class="cls-9" d="M357.741,261,236.6,331v2.176l121.141-69.91Z" transform="translate(-144.928 -211.3)"/>
      </g>
      <path id="Path_4764" data-name="Path 4764" class="cls-15" d="M3190.975,3822.721l121.517-69.295s91.761-109.291,42.16-132.008-280.337,0-280.337,0l36.154,153.631,80.506,47.671" transform="translate(-3074.315 -3591.681)"/>
      <g id="profile4" transform="translate(193.351 38.736)">
        <g id="Group_1528" data-name="Group 1528" transform="translate(0)">
          <g id="Group_1527" data-name="Group 1527" transform="translate(0)">
            <g id="Group_1667" data-name="Group 1667">
              <path id="Path_4762" data-name="Path 4762" class="cls-16" d="M30.347,0C47.14.04,60.782,11.752,60.816,26.161S47.264,52.217,30.47,52.177.034,40.425,0,26.017,13.553-.04,30.347,0Z" transform="matrix(0.478, -0.878, 0.878, 0.478, 0, 53.421)"/>
            </g>
            <g id="Group_1526" data-name="Group 1526" transform="translate(3.77 1.622)">
              <ellipse id="Ellipse_104" data-name="Ellipse 104" class="cls-1" cx="30.217" cy="25.846" rx="30.217" ry="25.846" transform="matrix(0.478, -0.878, 0.878, 0.478, 0, 53.086)"/>
            </g>
          </g>
        </g>
        <g id="Group_1571" data-name="Group 1571" transform="translate(22.085 17.594)">
          <g id="Group_1529" data-name="Group 1529" transform="translate(4.602 42.541)">
            <path id="Path_4618" data-name="Path 4618" class="cls-17" d="M331.3,167.3c.383.23.767,1.074,1.15,2.608C332.067,168.45,331.683,167.53,331.3,167.3Z" transform="translate(-331.3 -167.3)"/>
          </g>
          <g id="Group_1530" data-name="Group 1530" transform="translate(4.372 41.314)">
            <path id="Path_4619" data-name="Path 4619" class="cls-18" d="M334.6,165.7l3.451,10.584a24.282,24.282,0,0,1-4.755-1.38c-.077-.537-.077-1-.153-1.534a5.177,5.177,0,0,1-.153-1.074,4.589,4.589,0,0,1-.153-.92c-.537-2.684-1-4.141-1.534-4.372H331Z" transform="translate(-331 -165.7)"/>
          </g>
          <g id="Group_1531" data-name="Group 1531" transform="translate(7.899 40.777)">
            <path id="Path_4620" data-name="Path 4620" class="cls-19" d="M337.211,165l3.681,11.274c-.307,0-.614-.077-.92-.077a.575.575,0,0,1-.383-.077h-.077c-.153,0-.307-.077-.46-.077L335.6,165.46Z" transform="translate(-335.6 -165)"/>
          </g>
          <g id="Group_1532" data-name="Group 1532" transform="translate(22.855 35.485)">
            <path id="Path_4621" data-name="Path 4621" class="cls-20" d="M356.4,160.017a4.1,4.1,0,0,1-1.3-1.917A4.515,4.515,0,0,0,356.4,160.017Z" transform="translate(-355.1 -158.1)"/>
          </g>
          <g id="Group_1533" data-name="Group 1533" transform="translate(13.575 35.946)">
            <path id="Path_4622" data-name="Path 4622" class="cls-21" d="M343,158.93h0v0Z" transform="translate(-343 -158.7)"/>
          </g>
          <g id="Group_1534" data-name="Group 1534" transform="translate(26.076 13.858)">
            <path id="Path_4623" data-name="Path 4623" class="cls-22" d="M359.3,129.9a.282.282,0,0,1,.23.077.075.075,0,0,1-.077.077A.165.165,0,0,1,359.3,129.9Z" transform="translate(-359.3 -129.9)"/>
          </g>
          <g id="Group_1535" data-name="Group 1535" transform="translate(25.923 13.244)">
            <path id="Path_4624" data-name="Path 4624" class="cls-22" d="M362.014,129.1a1.668,1.668,0,0,1,.537,1.227,1.889,1.889,0,0,1-.69,1.457,1.8,1.8,0,0,1-1.074.537h-.307a1.513,1.513,0,0,1-1.38-1.534,2.042,2.042,0,0,1,.23-.92.075.075,0,0,1,.077-.077,2.182,2.182,0,0,0,1,0A3.053,3.053,0,0,0,362.014,129.1Z" transform="translate(-359.1 -129.1)"/>
          </g>
          <g id="Group_1536" data-name="Group 1536" transform="translate(26.919 15.928)">
            <path id="Path_4625" data-name="Path 4625" class="cls-22" d="M360.86,133.137h.307a2.045,2.045,0,0,0,1.074-.537,8.38,8.38,0,0,1-.383,1.3,13,13,0,0,1-.077,1.687,20.8,20.8,0,0,1-.92,4.448C359.786,139.809,360.937,135.438,360.86,133.137Z" transform="translate(-360.399 -132.6)"/>
          </g>
          <g id="Group_1537" data-name="Group 1537" transform="translate(27.073 18.536)">
            <path id="Path_4626" data-name="Path 4626" class="cls-23" d="M362.364,136c.614.077,1.38.69,1,2.454-.307,1.687-1.611,3.758-2.224,3.835h-.077c-.23,0-.383-.23-.46-.46.077-.307.153-.69.23-1.074a20.805,20.805,0,0,0,.92-4.448.579.579,0,0,1,.537-.307Z" transform="translate(-360.6 -136)"/>
          </g>
          <g id="Group_1538" data-name="Group 1538" transform="translate(15.722 8.796)">
            <path id="Path_4627" data-name="Path 4627" class="cls-22" d="M350.172,126.368a1.606,1.606,0,0,0-1.15.844,1.305,1.305,0,0,0-.537-.077,1.09,1.09,0,0,0-.46.153,1.219,1.219,0,0,0-.767-.614V126.6a1.854,1.854,0,0,0-1.457-1.917,4.036,4.036,0,0,0,1.074-.92,3.247,3.247,0,0,0,1.917.153,4.477,4.477,0,0,0,1.687-.614,3.853,3.853,0,0,0,2.071,1.074,2.135,2.135,0,0,0-1.687,1.994Z" transform="translate(-345.8 -123.3)"/>
          </g>
          <g id="Group_1566" data-name="Group 1566" transform="translate(5.829)">
            <g id="Group_1539" data-name="Group 1539" transform="translate(18.79 38.476)">
              <path id="Path_4628" data-name="Path 4628" class="cls-18" d="M361.081,162l3.681.153h-.077c-.844.077-1.38,2.531-2.147,7.056a11.7,11.7,0,0,0-.23,2.3c-.153.077-.383.23-.537.307h-.077c-.077.077-.153.077-.23.153h-.077c-.077.077-.153.077-.23.153h-.077c-.077.077-.153.077-.23.153h-.077c-.077.077-.153.077-.23.153h-.077c-.077.077-.153.077-.23.153h-.077c-.077.077-.153.077-.307.153h0c-.077.077-.153.077-.307.153h0c-.077.077-.153.077-.307.153h0c-.077.077-.153.077-.307.153s-.23.077-.307.153-.23.077-.307.153c-.307.153-.614.23-.92.383Z" transform="translate(-357.4 -162)"/>
            </g>
            <g id="Group_1540" data-name="Group 1540" transform="translate(17.103 38.323)">
              <path id="Path_4629" data-name="Path 4629" class="cls-19" d="M355.2,174.454l3.835-12.654,1.534.077-3.6,11.964c-.46.153-.844.307-1.3.46h0A1.09,1.09,0,0,1,355.2,174.454Z" transform="translate(-355.2 -161.8)"/>
            </g>
            <g id="Group_1541" data-name="Group 1541" transform="translate(19.634 38.093)">
              <path id="Path_4630" data-name="Path 4630" class="cls-21" d="M358.5,161.5h0Z" transform="translate(-358.5 -161.5)"/>
            </g>
            <g id="Group_1542" data-name="Group 1542" transform="translate(7.746 33.798)">
              <path id="Path_4631" data-name="Path 4631" class="cls-24" d="M354.044,159.811l.92.46a8.658,8.658,0,0,1-2.608.767,11.86,11.86,0,0,1-4.6-.23A10.133,10.133,0,0,1,343,158.278V157.05c1.534,1.457,3.144,2.224,4.525,2.071a7.967,7.967,0,0,0,4.525-3.221v.767h0v.077h0v.307c0,.077.077.23.077.307v.077a3.751,3.751,0,0,0,1.3,1.917l.077.077.077.077.077.077h.153l.23.23Z" transform="translate(-343 -155.9)"/>
            </g>
            <g id="Group_1543" data-name="Group 1543" transform="translate(19.634 38.093)">
              <path id="Path_4632" data-name="Path 4632" class="cls-21" d="M358.577,161.5Z" transform="translate(-358.5 -161.5)"/>
            </g>
            <g id="Group_1544" data-name="Group 1544" transform="translate(3.681 38.246)">
              <path id="Path_4633" data-name="Path 4633" class="cls-25" d="M347.517,175.275h-.077c-.153,0-.307.077-.46.077a.691.691,0,0,0-.383.077h-5.215L337.7,164.154c.767-.077,3.068,7.286,8.513,6.6h.077c2.684-.383,4.6-2.608,5.982-4.755s2.224-4.218,2.608-4.295l-3.835,12.654a4.887,4.887,0,0,1-.537.153,3.8,3.8,0,0,0-1,.307h-.077c-.307.077-.614.153-1,.23h-.077c-.153,0-.307.077-.46.077C347.824,175.275,347.67,175.275,347.517,175.275Z" transform="translate(-337.7 -161.7)"/>
            </g>
            <g id="Group_1545" data-name="Group 1545" transform="translate(17.563 10.943)">
              <path id="Path_4634" data-name="Path 4634" class="cls-22" d="M356.49,126.253a2.874,2.874,0,0,0,1.841,2.761,2.3,2.3,0,0,1-.767.307,1.438,1.438,0,0,1-1.611-.844,2.268,2.268,0,0,1-.153-.767,2.556,2.556,0,0,1,.69-1.611C356.49,126.177,356.49,126.253,356.49,126.253Z" transform="translate(-355.8 -126.1)"/>
            </g>
            <g id="Group_1546" data-name="Group 1546" transform="translate(18.176 7.876)">
              <path id="Path_4635" data-name="Path 4635" class="cls-22" d="M361.815,122.1a2.981,2.981,0,0,1,1.15,2.378,3.853,3.853,0,0,1-1.534,2.991,3.336,3.336,0,0,1-1.611.69,4.334,4.334,0,0,1-1,0,.282.282,0,0,1-.23-.077c-.077,0-.077,0-.153-.077a2.8,2.8,0,0,1-1.841-2.761v-.46c0-.153.077-.307.077-.46a2.394,2.394,0,0,0,1.917.383A3.363,3.363,0,0,0,361.815,122.1Z" transform="translate(-356.6 -122.1)"/>
            </g>
            <g id="Group_1547" data-name="Group 1547" transform="translate(18.1 4.194)">
              <path id="Path_4636" data-name="Path 4636" class="cls-22" d="M360.565,117.3a2.967,2.967,0,0,1,1.457,2.608,5.177,5.177,0,0,1-.153,1.074,3.681,3.681,0,0,1-3.068,2.761,3.1,3.1,0,0,1-1.917-.383,1.346,1.346,0,0,1-.383-.307,5.342,5.342,0,0,0,4.141-5.138A1.689,1.689,0,0,1,360.565,117.3Z" transform="translate(-356.5 -117.3)"/>
            </g>
            <g id="Group_1548" data-name="Group 1548" transform="translate(17.486 10.023)">
              <path id="Path_4637" data-name="Path 4637" class="cls-22" d="M356.62,125.13a.972.972,0,0,0-.077.46,1.283,1.283,0,0,0-.844-.69h.537A1.677,1.677,0,0,0,356.62,125.13Z" transform="translate(-355.7 -124.9)"/>
            </g>
            <g id="Group_1549" data-name="Group 1549" transform="translate(14.879 10.023)">
              <path id="Path_4638" data-name="Path 4638" class="cls-22" d="M354.831,124.9a1.543,1.543,0,0,1,.844.69v.23a2.089,2.089,0,0,0-.69,1.611,2.268,2.268,0,0,0,.153.767,2.377,2.377,0,0,1-1,.46,1.579,1.579,0,0,1-1.841-1.611v-.153a2.209,2.209,0,0,1,1.687-1.994Z" transform="translate(-352.3 -124.9)"/>
            </g>
            <g id="Group_1550" data-name="Group 1550" transform="translate(13.115 11.94)">
              <path id="Path_4639" data-name="Path 4639" class="cls-22" d="M351.841,127.553a1.638,1.638,0,0,0,.614,1.3,1.467,1.467,0,0,1-1.227,1.15,1.137,1.137,0,0,1-.537-.077,1.12,1.12,0,0,1-.69-1.074,1.445,1.445,0,0,1,.153-.614,1.475,1.475,0,0,1,1.15-.844,1.5,1.5,0,0,1,.614.077C351.841,127.477,351.841,127.477,351.841,127.553Z" transform="translate(-350 -127.4)"/>
            </g>
            <g id="Group_1551" data-name="Group 1551" transform="translate(11.427 12.707)">
              <path id="Path_4640" data-name="Path 4640" class="cls-22" d="M349.411,129.09a1.12,1.12,0,0,0,.69,1.074,1.474,1.474,0,0,1-1.15.844,1.033,1.033,0,0,1-1.15-.614,1.485,1.485,0,0,0,.767-1.3,1.108,1.108,0,0,0-.153-.537,1.09,1.09,0,0,1,.46-.153,1.137,1.137,0,0,1,.537.077Z" transform="translate(-347.8 -128.4)"/>
            </g>
            <g id="Group_1552" data-name="Group 1552" transform="translate(14.495 0.856)">
              <path id="Path_4641" data-name="Path 4641" class="cls-22" d="M355.1,112.988a3.691,3.691,0,0,1,4.295,3.375v.614a5.342,5.342,0,0,1-4.141,5.138h-.537a3.146,3.146,0,0,1-.844-.077,3.622,3.622,0,0,1-2.071-1.074,5.611,5.611,0,0,0,2.838-4.832,4.247,4.247,0,0,0-1-2.838C354.177,113.218,354.638,113.064,355.1,112.988Z" transform="translate(-351.8 -112.947)"/>
            </g>
            <g id="Group_1553" data-name="Group 1553" transform="translate(9.817 12.17)">
              <path id="Path_4642" data-name="Path 4642" class="cls-22" d="M347.234,127.777a1.054,1.054,0,0,1,.767.614,1.108,1.108,0,0,1,.153.537,1.485,1.485,0,0,1-.767,1.3,1.09,1.09,0,0,1-.46.153,1,1,0,0,1-1-.383,1.3,1.3,0,0,1-.23-.767A1.56,1.56,0,0,1,347,127.7C347,127.777,347.081,127.777,347.234,127.777Z" transform="translate(-345.7 -127.7)"/>
            </g>
            <g id="Group_1554" data-name="Group 1554" transform="translate(6.979 10.253)">
              <path id="Path_4643" data-name="Path 4643" class="cls-22" d="M344.914,125.2a1.854,1.854,0,0,1,1.457,1.917v.077h-.383a1.57,1.57,0,0,0-1.3,1.534,1.3,1.3,0,0,0,.23.767,1.3,1.3,0,0,1-.767.23,2.062,2.062,0,0,1-1.38-.307,1.785,1.785,0,0,1-.767-1.534,5.374,5.374,0,0,0,1.457-1.994A5.086,5.086,0,0,0,344.914,125.2Z" transform="translate(-342 -125.2)"/>
            </g>
            <g id="Group_1555" data-name="Group 1555" transform="translate(1.917 17.769)">
              <path id="Path_4644" data-name="Path 4644" class="cls-22" d="M335.783,138.988a11.323,11.323,0,0,1-.077-1.611A22.32,22.32,0,0,1,335.4,135a1.844,1.844,0,0,0,1.15.153,1.422,1.422,0,0,0,.537-.153c-.153.23-.23.46-.383.69-.46,1.994,1.074,6.9-.077,7.439A15.912,15.912,0,0,1,335.783,138.988Z" transform="translate(-335.4 -135)"/>
            </g>
            <g id="Group_1556" data-name="Group 1556" transform="translate(3.209 13.244)">
              <path id="Path_4645" data-name="Path 4645" class="cls-23" d="M355.426,132.321c.077,2.224-1.074,6.672,0,6.826-.077.383-.153.69-.23,1.074a23.12,23.12,0,0,1-4.448,9.357,7.967,7.967,0,0,1-4.525,3.221c-1.38.23-3.068-.614-4.525-2.071a17.62,17.62,0,0,1-4.372-8.053c-.077-.383-.153-.69-.23-1.074,1.15-.537-.383-5.445.077-7.439.153-.23.23-.46.383-.69a2.691,2.691,0,0,0,1.457-1.3,2.87,2.87,0,0,0,1.611-1.534h.077a3.853,3.853,0,0,0,1-.383,1.71,1.71,0,0,0,1.38.307,2.922,2.922,0,0,0,.767-.23,1,1,0,0,0,1,.383,1.09,1.09,0,0,0,.46-.153,1.033,1.033,0,0,0,1.15.614,1.606,1.606,0,0,0,1.15-.844,1.305,1.305,0,0,0,.537.077,1.467,1.467,0,0,0,1.227-1.15,1.653,1.653,0,0,0,1.227.307,2.378,2.378,0,0,0,1-.46,1.446,1.446,0,0,0,1.611.844,1.619,1.619,0,0,0,.767-.307c.077,0,.077,0,.153.077l.153.153a2.042,2.042,0,0,0-.23.92A1.462,1.462,0,0,0,355.426,132.321Z" transform="translate(-337.084 -129.1)"/>
            </g>
            <g id="Group_1557" data-name="Group 1557" transform="translate(0.543 21.527)">
              <path id="Path_4646" data-name="Path 4646" class="cls-23" d="M336.21,144.118c.077.383.153.767.23,1.074q-.115.575-.46.69H335.9c-.614.077-1.841-1.687-2.224-3.221-.307-1.687.46-2.531,1-2.761h.077a1.019,1.019,0,0,1,.537.23A16.807,16.807,0,0,0,336.21,144.118Z" transform="translate(-333.609 -139.9)"/>
            </g>
            <g id="Group_1558" data-name="Group 1558" transform="translate(4.908 12.861)">
              <path id="Path_4647" data-name="Path 4647" class="cls-22" d="M341.447,128.6a1.888,1.888,0,0,0,.767,1.534,1.806,1.806,0,0,1-1,.383h-.077a1.865,1.865,0,0,1-1.841-1A3.854,3.854,0,0,0,341.447,128.6Z" transform="translate(-339.3 -128.6)"/>
            </g>
            <g id="Group_1559" data-name="Group 1559" transform="translate(8.36)">
              <path id="Path_4648" data-name="Path 4648" class="cls-22" d="M348.325,111.884a3.711,3.711,0,0,1,3.528,1.3,4.247,4.247,0,0,1,1,2.838,5.708,5.708,0,0,1-2.838,4.832,6.339,6.339,0,0,1-1.687.614,5.136,5.136,0,0,1-1.917-.153,3.984,3.984,0,0,1-2.608-3.911,5.511,5.511,0,0,1,.767-2.761A5.235,5.235,0,0,1,348.325,111.884Z" transform="translate(-343.8 -111.831)"/>
            </g>
            <g id="Group_1560" data-name="Group 1560" transform="translate(2.531 13.551)">
              <path id="Path_4649" data-name="Path 4649" class="cls-22" d="M338.5,129.807a1.743,1.743,0,0,0,1.841,1,2.87,2.87,0,0,1-1.611,1.534c-.153,0-.23.077-.383.077A1.875,1.875,0,0,1,336.2,130.5a2.363,2.363,0,0,1,.23-1A3.707,3.707,0,0,0,338.5,129.807Z" transform="translate(-336.2 -129.5)"/>
            </g>
            <g id="Group_1561" data-name="Group 1561" transform="translate(2.301 10.867)">
              <path id="Path_4650" data-name="Path 4650" class="cls-22" d="M341.652,126.077h.077a.461.461,0,0,0,.307-.077,5.374,5.374,0,0,1-1.457,1.994,4.608,4.608,0,0,1-2.147,1,3.707,3.707,0,0,1-2.071-.307,1.6,1.6,0,0,1-.46-.307,3.089,3.089,0,0,0,2.224.383A4.558,4.558,0,0,0,341.652,126.077Z" transform="translate(-335.9 -126)"/>
            </g>
            <g id="Group_1562" data-name="Group 1562" transform="translate(0.767 13.091)">
              <path id="Path_4651" data-name="Path 4651" class="cls-22" d="M335.741,130.28a1.842,1.842,0,0,0,2.147,1.917c.153,0,.23-.077.383-.077a2.691,2.691,0,0,1-1.457,1.3,1.422,1.422,0,0,1-.537.153,2.011,2.011,0,0,1-1.15-.153,2.055,2.055,0,0,1-1.227-1.994,3.262,3.262,0,0,1,.153-.844,3.036,3.036,0,0,1,1.38-1.687c.077,0,.077.077.153.077.153.077.307.23.46.307A1.374,1.374,0,0,0,335.741,130.28Z" transform="translate(-333.9 -128.9)"/>
            </g>
            <g id="Group_1563" data-name="Group 1563" transform="translate(4.295 2.603)">
              <path id="Path_4652" data-name="Path 4652" class="cls-22" d="M342.565,118.044a3.984,3.984,0,0,0,2.608,3.911,4.036,4.036,0,0,1-1.074.92,5.449,5.449,0,0,1-1.38.614c-.077,0-.23.077-.307.077h-.077a3.444,3.444,0,0,1-3.835-3.6,4.475,4.475,0,0,1,.46-1.994,4.682,4.682,0,0,1,3.528-2.684,2.189,2.189,0,0,1,1,0A4.434,4.434,0,0,0,342.565,118.044Z" transform="translate(-338.5 -115.225)"/>
            </g>
            <g id="Group_1564" data-name="Group 1564" transform="translate(0 11.02)">
              <path id="Path_4653" data-name="Path 4653" class="cls-22" d="M333.59,126.2a3.628,3.628,0,0,0,1.457,2.147,3.318,3.318,0,0,0-1.38,1.687,2.54,2.54,0,0,1-.767-1.841A3.47,3.47,0,0,1,333.59,126.2Z" transform="translate(-332.9 -126.2)"/>
            </g>
            <g id="Group_1565" data-name="Group 1565" transform="translate(0.614 5.421)">
              <path id="Path_4654" data-name="Path 4654" class="cls-22" d="M337.3,120.817a3.444,3.444,0,0,0,3.835,3.6,4.682,4.682,0,0,1-3.528,2.684,3.531,3.531,0,0,1-2.224-.383c-.077,0-.077-.077-.153-.077a3.628,3.628,0,0,1-1.457-2.147,3.733,3.733,0,0,1-.077-.92,4.778,4.778,0,0,1,3.988-4.678h.077A3.939,3.939,0,0,0,337.3,120.817Z" transform="translate(-333.7 -118.9)"/>
            </g>
          </g>
          <g id="Group_1567" data-name="Group 1567" transform="translate(9.51 36.176)">
            <path id="Path_4655" data-name="Path 4655" class="cls-23" d="M351.121,161.684a8.659,8.659,0,0,0,2.608-.767,3.179,3.179,0,0,0,1.227.23c-.46.077-1.227,2.147-2.684,4.295-1.38,2.147-3.3,4.372-5.982,4.755h-.077c-5.445.69-7.746-6.672-8.513-6.6a6.283,6.283,0,0,0,4.065-4.6,10.863,10.863,0,0,0,4.755,2.531A13.386,13.386,0,0,0,351.121,161.684Z" transform="translate(-337.7 -159)"/>
          </g>
          <g id="Group_1568" data-name="Group 1568" transform="translate(0 42.541)">
            <path id="Path_4656" data-name="Path 4656" class="cls-25" d="M331.512,172.669a4.526,4.526,0,0,1,.153,1.074,11.522,11.522,0,0,1,.153,1.534,10.861,10.861,0,0,1-1.38-.614,8.363,8.363,0,0,1-.844-.46h0a76424.562,76424.562,0,0,1-.767-.46h0c-.153-.077-.23-.153-.383-.23h-.077a4.656,4.656,0,0,1-.767-.537.075.075,0,0,1-.077-.077c-.153-.077-.23-.153-.383-.23h0c-.077-.077-.23-.153-.307-.23a.075.075,0,0,1-.077-.077.6.6,0,0,1-.307-.307.075.075,0,0,1-.077-.077c-.077-.077-.23-.153-.307-.23h-.077c-.077-.077-.23-.153-.307-.307l-.077-.077-.307-.307a6.264,6.264,0,0,1,3.6-3.528l.69-.23h.307c.614.23,1.074,1.764,1.534,4.372C331.436,171.978,331.512,172.285,331.512,172.669Z" transform="translate(-325.3 -167.3)"/>
          </g>
          <g id="Group_1569" data-name="Group 1569" transform="translate(29.45 38.553)">
            <path id="Path_4657" data-name="Path 4657" class="cls-25" d="M366.921,162.177a4.385,4.385,0,0,1,3.911,3.528c-.23.307-.537.537-.767.844a7.636,7.636,0,0,1-.844.767h0c-.153.153-.307.23-.383.383-.307.23-.537.537-.844.767h-.077c-.307.23-.537.46-.844.69H367a1.674,1.674,0,0,0-.383.307h-.077a1.674,1.674,0,0,0-.383.307c-.153.077-.307.23-.46.307a.075.075,0,0,0-.077.077c-.153.077-.307.23-.46.307h0a.766.766,0,0,0-.383.307H364.7a1.605,1.605,0,0,0-.46.307.075.075,0,0,0-.077.077,1.6,1.6,0,0,0-.46.307,11.706,11.706,0,0,1,.23-2.3c.69-4.448,1.3-6.9,2.147-7.056h.077Z" transform="translate(-363.7 -162.1)"/>
          </g>
          <g id="Group_1570" data-name="Group 1570" transform="translate(5.905 45.839)">
            <path id="Path_4658" data-name="Path 4658" class="cls-17" d="M333.077,172.06c0-.153-.077-.307-.077-.46A.972.972,0,0,0,333.077,172.06Z" transform="translate(-333 -171.6)"/>
          </g>
        </g>
      </g>
      <g id="profile3" transform="translate(162.023 146.191)">
        <g id="Group_1579" data-name="Group 1579" transform="translate(0)">
          <g id="Group_1578" data-name="Group 1578">
            <g id="Group_1670" data-name="Group 1670">
              <path id="Path_4672" data-name="Path 4672" class="cls-26" d="M260.445,177.67c17.5-2.448,31.555,10.79,31.555,29.651s-14.236,36.088-31.645,38.537c-17.5,2.448-31.555-10.881-31.555-29.651C228.891,197.437,243.036,180.118,260.445,177.67Z" transform="translate(-228.8 -177.378)"/>
            </g>
            <g id="Group_1577" data-name="Group 1577" transform="translate(4.534 2.72)">
              <path id="Path_4672-2" data-name="Path 4672" class="cls-27" d="M260.445,177.67c17.5-2.448,31.555,10.79,31.555,29.651s-14.236,36.088-31.645,38.537c-17.5,2.448-31.555-10.881-31.555-29.651C228.891,197.437,243.036,180.118,260.445,177.67Z" transform="translate(-228.8 -177.378)"/>
            </g>
          </g>
        </g>
        <g id="Group_1602" data-name="Group 1602" transform="translate(13.964 14.317)">
          <g id="Group_1580" data-name="Group 1580" transform="translate(31.374 15.353)">
            <path id="Path_4673" data-name="Path 4673" class="cls-20" d="M275.341,207.1c.725.091,1.632.816,1.179,2.9a9.055,9.055,0,0,1-1.995,4.08,24.468,24.468,0,0,0,.635-3.718h0c-.635.091-1.088-.453-1.36-1.269.453-1.179,1-1.995,1.451-1.995Z" transform="translate(-273.8 -207.1)"/>
          </g>
          <g id="Group_1601" data-name="Group 1601">
            <g id="Group_1581" data-name="Group 1581" transform="translate(30.376 38.112)">
              <path id="Path_4674" data-name="Path 4674" class="cls-24" d="M272.7,232.2Z" transform="translate(-272.7 -232.2)"/>
            </g>
            <g id="Group_1582" data-name="Group 1582" transform="translate(16.231 32.853)">
              <path id="Path_4675" data-name="Path 4675" class="cls-24" d="M270.883,231.568h0a2.416,2.416,0,0,1-.907-.544c-.272.181-.363.635-.363,1.269-.453.091-.907.181-1.451.272a14.022,14.022,0,0,1-5.44-.272,12.741,12.741,0,0,1-5.622-2.9v-1.36c1.723,1.632,3.627,2.539,5.35,2.267,1.632-.272,3.536-1.632,5.35-3.9v1.088h0v.091h0v.181h0v.091h0v.091h0v.091h0v.091h0v.725h0v.091h0v.091h0v.091c0,.091.091.091.091.181v.091a.089.089,0,0,0,.091.091c0,.091,0,.091.091.091.091.091.091.181.181.272A12.982,12.982,0,0,0,270.883,231.568Z" transform="translate(-257.1 -226.4)"/>
            </g>
            <g id="Group_1583" data-name="Group 1583" transform="translate(0 37.205)">
              <path id="Path_4676" data-name="Path 4676" class="cls-28" d="M261.429,250.786c-.181,0-.286.181-.377.181a.545.545,0,0,0-.363.091c-.181,0-.272,0-.363.091H250.9a.333.333,0,0,1-.272-.091h-.181a.333.333,0,0,1-.272-.091h-.091a.333.333,0,0,1-.272-.091h-.091a.333.333,0,0,1-.272-.091h-.091a.333.333,0,0,1-.272-.091h-.091a.333.333,0,0,1-.272-.091h-.091a.333.333,0,0,1-.272-.091h-.091c-.091,0-.181-.091-.272-.091H247.9c-.091,0-.181-.091-.272-.091h-.091a.316.316,0,0,1-.181-.091h-.091a.317.317,0,0,1-.181-.091.089.089,0,0,1-.091-.091.316.316,0,0,1-.181-.091.089.089,0,0,1-.091-.091.317.317,0,0,1-.181-.091.089.089,0,0,1-.091-.091.316.316,0,0,1-.181-.091.089.089,0,0,1-.091-.091c-.091,0-.181-.091-.272-.091a.089.089,0,0,1-.091-.091c-.091,0-.181-.091-.272-.091a.089.089,0,0,1-.091-.091.317.317,0,0,1-.181-.091.089.089,0,0,1-.091-.091.317.317,0,0,1-.181-.091.089.089,0,0,1-.091-.091.317.317,0,0,1-.181-.091.089.089,0,0,1-.091-.091.317.317,0,0,1-.181-.091.089.089,0,0,1-.091-.091.317.317,0,0,1-.181-.091.089.089,0,0,1-.091-.091.317.317,0,0,1-.181-.091.089.089,0,0,1-.091-.091.317.317,0,0,1-.181-.091.089.089,0,0,1-.091-.091.317.317,0,0,1-.181-.091.089.089,0,0,1-.091-.091c-.091,0-.091-.091-.181-.091a.089.089,0,0,1-.091-.091.317.317,0,0,1-.181-.091.089.089,0,0,1-.091-.091.317.317,0,0,1-.181-.091.089.089,0,0,1-.091-.091c-.091,0-.091-.091-.181-.091l-.091-.091c-.091,0-.091-.091-.181-.181a.089.089,0,0,1-.091-.091c-.091-.091-.181-.091-.181-.181a.089.089,0,0,1-.091-.091c-.091-.091-.181-.091-.181-.181a.089.089,0,0,1-.091-.091l-.181-.181-.091-.091c-.091-.091-.181-.091-.181-.181-.091-.091-.181-.181-.272-.181l-.272-.272-.091-.091-.091-.091c-.091,0-.091-.091-.181-.091s-.091-.091-.181-.091l-.091-.091-.181-.181-.091-.091-.181-.181-.091-.091a7.625,7.625,0,0,1,4.806-6.8l.816-.272,6.166-1.995c.091,0,.091,0,.181-.091.091,0,.091,0,.181-.091s.272-.091.363-.181c.091,0,.091-.091.181-.091a5.141,5.141,0,0,0,1.179-.725l.091-.091c.181-.181.272-.181.272-.272,1.813,1-2.811,10.428,7.707,8.977,8.7-1.179,6.982-7.345,6.982-10.156,0-.635.091-1.088.363-1.269a3.349,3.349,0,0,0,1.269.635c.091,0,.272.091.363.091h.091a.333.333,0,0,1,.272.091h.635l6.982.363c2.63.091,4.806,2.63,4.806,5.531v.363a3.1,3.1,0,0,0-.166.793l-.091.091-.181.181-.091.091-.181.181-.091.091-.181.181-.091.091-.181.181-.091.091-.181.181-.091.091-.181.181-.091.091-.181.181-.091.091-.181.181-.272.272c-.272.272-.544.453-.816.725l-.091.091-.181.181c-.091,0-.091.091-.181.091l-.181.181c-.091,0-.091.091-.181.091l-.181.181c-.091,0-.091.091-.181.091l-.181.181c-.091,0-.091.091-.181.091s-.091.091-.181.091-.091.091-.181.091-.091.091-.181.091-.091.091-.181.091-.091.091-.181.091-.091.091-.181.091-.091.091-.181.091-.091.091-.181.091-.091.091-.181.091-.091.091-.181.091-.091.091-.181.091-.091.091-.181.091-.091.091-.181.091-.091.091-.181.091-.091.091-.181.091-.091.091-.181.091-.091.091-.181.091-.091.091-.181.091-.091.091-.181.091-.091.091-.181.091-.091.091-.181.091-.091.091-.181.091-.091.091-.181.091-.091.091-.181.091-.091.091-.181.091-.091.091-.181.091-.091.091-.181.091-.091.091-.181.091-.091.091-.181.091a.317.317,0,0,0-.181.091c-.091,0-.091.091-.181.091a.317.317,0,0,0-.181.091l-.091.091a.317.317,0,0,0-.181.091c-.091,0-.091.091-.181.091s-.181.091-.272.091a.089.089,0,0,0-.091.091c-.272.091-.453.272-.725.363-.181.091-.272.091-.363.181a.089.089,0,0,0-.091.091c-.091,0-.181.091-.272.091s-.091,0-.181.091a.317.317,0,0,0-.181.091c-.091,0-.091.091-.181.091a.317.317,0,0,0-.181.091c-.091,0-.091.091-.181.091s-.091.091-.181.091-.091.091-.181.091a.317.317,0,0,0-.181.091c-.091,0-.091,0-.181.091a.317.317,0,0,0-.181.091c-.091,0-.091.091-.181.091s-.091.091-.181.091-.091,0-.181.091c-.091,0-.091.091-.181.091s-.091,0-.181.091a.317.317,0,0,0-.181.091c-.091,0-.091,0-.181.091-.091,0-.091.091-.181.091s-.091,0-.181.091a.317.317,0,0,0-.181.091c-.091,0-.091,0-.181.091-.091,0-.181,0-.181.091-.091,0-.091,0-.181.091-.091,0-.181,0-.181.091-.091,0-.091,0-.181.091-.091,0-.181,0-.181.091-.091,0-.091,0-.181.091-.091,0-.181,0-.181.091-.091,0-.091,0-.181.091-.091,0-.181,0-.181.091-.091,0-.091,0-.181.091-.091,0-.181,0-.181.091h-.181c-.091,0-.181,0-.181.091h-.181c-.091,0-.181,0-.181.091h-.181a.333.333,0,0,0-.272.091h-1.088l-.22.113Z" transform="translate(-239.2 -231.2)"/>
            </g>
            <g id="Group_1584" data-name="Group 1584" transform="translate(30.285 38.163)">
              <path id="Path_4677" data-name="Path 4677" class="cls-20" d="M272.781,232.3H272.6A.126.126,0,0,1,272.781,232.3Z" transform="translate(-272.6 -232.256)"/>
            </g>
            <g id="Group_1585" data-name="Group 1585" transform="translate(30.285 38.112)">
              <path id="Path_4678" data-name="Path 4678" class="cls-24" d="M272.6,232.2Z" transform="translate(-272.6 -232.2)"/>
            </g>
            <g id="Group_1586" data-name="Group 1586" transform="translate(30.195 38.112)">
              <path id="Path_4679" data-name="Path 4679" class="cls-24" d="M272.5,232.2Z" transform="translate(-272.5 -232.2)"/>
            </g>
            <g id="Group_1587" data-name="Group 1587" transform="translate(30.104 38.022)">
              <path id="Path_4680" data-name="Path 4680" class="cls-24" d="M272.4,232.1Z" transform="translate(-272.4 -232.1)"/>
            </g>
            <g id="Group_1588" data-name="Group 1588" transform="translate(27.837 36.208)">
              <path id="Path_4681" data-name="Path 4681" class="cls-21" d="M270.625,230.916c-.272-.272-.453-.544-.725-.816A5.866,5.866,0,0,0,270.625,230.916Z" transform="translate(-269.9 -230.1)"/>
            </g>
            <g id="Group_1589" data-name="Group 1589" transform="translate(28.563 37.024)">
              <path id="Path_4682" data-name="Path 4682" class="cls-21" d="M270.7,231c.091.091.181.181.272.181h0C270.791,231.181,270.7,231.091,270.7,231Z" transform="translate(-270.7 -231)"/>
            </g>
            <g id="Group_1590" data-name="Group 1590" transform="translate(28.744 37.206)">
              <path id="Path_4683" data-name="Path 4683" class="cls-21" d="M270.9,231.2a3.838,3.838,0,0,0,.635.453h0a2.755,2.755,0,0,1-.635-.453Z" transform="translate(-270.9 -231.2)"/>
            </g>
            <g id="Group_1591" data-name="Group 1591" transform="translate(29.379 37.659)">
              <path id="Path_4684" data-name="Path 4684" class="cls-21" d="M272.235,232.063a1.462,1.462,0,0,1-.635-.363h0C271.781,231.791,272.053,231.972,272.235,232.063Z" transform="translate(-271.6 -231.7)"/>
            </g>
            <g id="Group_1592" data-name="Group 1592" transform="translate(30.013 38.022)">
              <path id="Path_4685" data-name="Path 4685" class="cls-21" d="M272.3,232.1Z" transform="translate(-272.3 -232.1)"/>
            </g>
            <g id="Group_1593" data-name="Group 1593" transform="translate(27.588 35.846)">
              <path id="Path_4686" data-name="Path 4686" class="cls-29" d="M269.693,229.7Z" transform="translate(-269.625 -229.7)"/>
            </g>
            <g id="Group_1594" data-name="Group 1594" transform="translate(27.588 35.846)">
              <path id="Path_4687" data-name="Path 4687" class="cls-29" d="M269.693,229.7Z" transform="translate(-269.625 -229.7)"/>
            </g>
            <g id="Group_1595" data-name="Group 1595" transform="translate(27.656 35.846)">
              <path id="Path_4688" data-name="Path 4688" class="cls-21" d="M269.7,229.7Z" transform="translate(-269.7 -229.7)"/>
            </g>
            <g id="Group_1596" data-name="Group 1596" transform="translate(16.322 35.392)">
              <path id="Path_4689" data-name="Path 4689" class="cls-29" d="M257.2,229.653h0v0Z" transform="translate(-257.2 -229.2)"/>
            </g>
            <g id="Group_1597" data-name="Group 1597" transform="translate(13.873 35.936)">
              <path id="Path_4690" data-name="Path 4690" class="cls-20" d="M269.371,232.611c0,2.811,1.632,8.886-6.891,10.156h-.091c-10.518,1.451-5.894-8.07-7.707-8.977l-.181.181a6.622,6.622,0,0,0,2.539-4.171,12.741,12.741,0,0,0,5.622,2.9,13.947,13.947,0,0,0,5.44.272A5.2,5.2,0,0,1,269.371,232.611Z" transform="translate(-254.5 -229.8)"/>
            </g>
            <g id="Group_1598" data-name="Group 1598" transform="translate(10.987 7.819)">
              <path id="Path_4691" data-name="Path 4691" class="cls-20" d="M271.7,208.32c.363.816.816,1.36,1.36,1.269a24.468,24.468,0,0,1-.635,3.718,27.775,27.775,0,0,1-5.078,10.518c-1.814,2.176-3.718,3.627-5.35,3.9-1.723.272-3.627-.635-5.35-2.267a18.972,18.972,0,0,1-4.806-8.433,6.247,6.247,0,0,1-.272-.725,10.263,10.263,0,0,1-.181-3.446,2.722,2.722,0,0,0,1.36-.635c1.179-1.179.816-3.627,2.448-5.531,2.9-3.174,7.979-2.992,12.785-7.707.181-.091.272-.181.453-.181,1.269-.181,1.723,2.63,2.267,5.44A20.673,20.673,0,0,0,271.7,208.32Z" transform="translate(-251.317 -198.791)"/>
            </g>
            <g id="Group_1599" data-name="Group 1599" transform="translate(9.166 18.508)">
              <path id="Path_4692" data-name="Path 4692" class="cls-20" d="M252.565,213.228a1.933,1.933,0,0,1-1.36.635,10.1,10.1,0,0,0,.181,3.446,8.244,8.244,0,0,1-1.995-3.536c-.363-1.9.544-2.9,1.179-3.174h.091C251.386,210.417,252.112,211.6,252.565,213.228Z" transform="translate(-249.309 -210.58)"/>
            </g>
            <g id="Group_1600" data-name="Group 1600" transform="translate(5.259)">
              <path id="Path_4693" data-name="Path 4693" class="cls-30" d="M269.21,191.738c11.334-.272,8.977,20.583-1.9,34.366-.091-.272-.181-.272-.181-.363l-.363-2.63a27.12,27.12,0,0,0,5.078-10.518,10.115,10.115,0,0,0,1.995-4.08c.453-2.086-.544-2.811-1.179-2.9-.544.091-1.179.907-1.541,1.995a30.514,30.514,0,0,1-1.088-4.171c-.544-2.811-1-5.622-2.267-5.44a1.533,1.533,0,0,0-.453.181c-4.715,4.715-9.793,4.624-12.785,7.707-1.723,1.813-1.36,4.262-2.448,5.531-.453-1.632-1.179-2.72-1.813-2.63-.816.272-1.723,1.269-1.269,3.264a6.1,6.1,0,0,0,1.995,3.536,6.247,6.247,0,0,0,.272.725,18.973,18.973,0,0,0,4.806,8.433v1.269a6.622,6.622,0,0,1-2.539,4.171c-.181.091-.181.181-.272.181a8.276,8.276,0,0,1-1.179.725c-.091,0-.091.091-.181.091-.091.091-.181.091-.363.091-.091,0-.091,0-.181.091a.317.317,0,0,0-.181.091L245,233.449c3.627-9.521-4.171-23.394,3.808-35.726a16.12,16.12,0,0,1,11.244-7.435A16.5,16.5,0,0,1,269.21,191.738Z" transform="translate(-245 -190.168)"/>
            </g>
          </g>
        </g>
      </g>
      <g id="profile2" transform="translate(20.389 118.553)">
        <g id="Group_1610" data-name="Group 1610" transform="translate(0 0)">
          <g id="Group_1609" data-name="Group 1609">
            <g id="Group_1605" data-name="Group 1605" transform="translate(35.279 0.616)">
              <g id="Group_1604" data-name="Group 1604" class="cls-31">
                <path id="Path_4694" data-name="Path 4694" class="cls-32" d="M149.889,166.445l-4.789-2.634a30.808,30.808,0,0,1,12.451.639l4.789,2.634a32.382,32.382,0,0,0-12.451-.639Z" transform="translate(-145.1 -163.535)"/>
                <path id="Path_4695" data-name="Path 4695" class="cls-33" d="M165.389,167.334,160.6,164.7a26.642,26.642,0,0,1,5.667,2.075l4.789,2.634a26.643,26.643,0,0,0-5.667-2.075Z" transform="translate(-148.228 -163.786)"/>
                <path id="Path_4696" data-name="Path 4696" class="cls-34" d="M172.589,169.934,167.8,167.3c.4.16.718.4,1.117.559l4.789,2.634a4.877,4.877,0,0,1-1.117-.559Z" transform="translate(-149.682 -164.311)"/>
              </g>
            </g>
            <g id="Group_1666" data-name="Group 1666">
              <path id="Path_4707" data-name="Path 4707" class="cls-35" d="M142.549,167.116c20.189-2.794,36.487,12.292,36.487,33.762s-16.459,41.105-36.649,43.9S105.9,232.485,105.9,211.015C105.981,189.544,122.359,169.909,142.549,167.116Z" transform="translate(-105.9 -166.783)"/>
            </g>
            <g id="Group_1608" data-name="Group 1608" transform="translate(3.991 3.193)">
              <path id="Path_4707-2" data-name="Path 4707" class="cls-36" d="M141.977,167.116c19.874-2.794,35.917,12.292,35.917,33.762s-16.2,41.105-36.077,43.9S105.9,232.485,105.9,211.015C105.98,189.544,122.1,169.909,141.977,167.116Z" transform="translate(-105.9 -166.783)"/>
            </g>
          </g>
        </g>
        <g id="Group_1631" data-name="Group 1631" transform="translate(15.165 12.342)">
          <g id="Group_1630" data-name="Group 1630">
            <g id="Group_1611" data-name="Group 1611" transform="translate(14.527 45.698)">
              <path id="Path_4708" data-name="Path 4708" class="cls-37" d="M148.476,238.214h.16l-2.554,5.028a9.657,9.657,0,0,0,1.516-.08,16.449,16.449,0,0,1-9.5-2.155c.239-.319.479-.718.718-1.117,1.2-1.916,2.474-4.39,2.474-4.39l.958,1.2a5.8,5.8,0,0,0,3.672,1.6A9.31,9.31,0,0,0,148.476,238.214Z" transform="translate(-138.1 -235.5)"/>
            </g>
            <g id="Group_1612" data-name="Group 1612" transform="translate(22.508 48.412)">
              <path id="Path_4709" data-name="Path 4709" class="cls-38" d="M150.654,238.9l2.474,4.31a19.633,19.633,0,0,1-2.315.559h-.639a18.04,18.04,0,0,1-2.075.08l2.554-4.949Z" transform="translate(-148.1 -238.9)"/>
            </g>
            <g id="Group_1613" data-name="Group 1613" transform="translate(0 48.012)">
              <path id="Path_4710" data-name="Path 4710" class="cls-39" d="M145.4,259.309h-.16c-.16,0-.319.08-.479.08s-.319.08-.479.08h-8.62a.48.48,0,0,1-.319-.08h-.16a.48.48,0,0,1-.319-.08h-.16a.293.293,0,0,1-.239-.08h-.239c-.08,0-.277-.157-.357-.157a9901.625,9901.625,0,0,0-.718-.239c-.08,0-.16,0-.16-.08a5658.244,5658.244,0,0,1-.718-.239c-.08,0-.16,0-.16-.08a.293.293,0,0,1-.239-.08c-.08,0-.16,0-.16-.08a.293.293,0,0,1-.239-.08c-.08,0-.16,0-.16-.08-.08,0-.16-.08-.239-.08s-.16,0-.16-.08c-.08,0-.16-.08-.239-.08s-.16,0-.16-.08c-.08,0-.16-.08-.239-.08a.279.279,0,0,1-.16-.08c-.08,0-.16-.08-.239-.08a.279.279,0,0,1-.16-.08c-.08,0-.16-.08-.239-.08a.279.279,0,0,1-.16-.08c-.08,0-.16-.08-.239-.08s-.08-.08-.16-.08-.16-.08-.239-.08-.08-.08-.16-.08-.16-.08-.239-.08-.08-.08-.16-.08-.16-.08-.239-.08-.08-.08-.16-.08-.16-.08-.239-.08-.08-.08-.16-.08-.16-.08-.239-.08-.08-.08-.16-.08-.16-.08-.239-.08a4.705,4.705,0,0,0-.639-.319c-.16-.08-.239-.08-.319-.16-.08,0-.08-.08-.16-.08s-.16-.08-.239-.08-.08-.08-.16-.08a.279.279,0,0,1-.16-.08c-.08,0-.08-.08-.16-.08a.279.279,0,0,1-.16-.08c-.08,0-.08-.08-.16-.08a.279.279,0,0,1-.16-.08c-.08,0-.08-.08-.16-.08a.279.279,0,0,1-.16-.08c-.08,0-.08-.08-.16-.08s-.08-.08-.16-.08-.08-.08-.16-.08-.08-.08-.16-.08-.08-.08-.16-.08-.08-.08-.16-.08-.08-.08-.16-.08c-.08-.08-.16-.08-.16-.16-.08,0-.08-.08-.16-.08l-.16-.16c-.08,0-.08-.08-.16-.08l-.16-.16c-.08,0-.08-.08-.16-.08l-.16-.16c-.08,0-.08-.08-.16-.08l-.16-.16c-.08,0-.08-.08-.16-.08l-.16-.16c-.08,0-.08-.08-.16-.08l-.16-.16-.16-.16-.16-.16c-.08,0-.08-.08-.16-.08-.08-.08-.16-.08-.16-.16-.08,0-.08-.08-.16-.08l-.16-.16a8.54,8.54,0,0,1,5.427-6.864l7.9-2.634c.08,0,.08-.08.16-.08a16.6,16.6,0,0,0,11.254,2.634,21.169,21.169,0,0,0,11.334-5.906,3.75,3.75,0,0,1-.878-.8c.479.479.878.878,1.2.878l7.9.4a6,6,0,0,1,5.268,4.869c-.16.16-.239.239-.239.319s-.08.08-.08.16c-.08.08-.16.16-.16.239l-.16.16c-.08.08-.16.16-.16.239s-.08.08-.08.16l-.239.239-.16.16-.239.239c0,.08-.08.08-.16.16l-.239.239c0,.08-.08.08-.08.16l-.239.239-.16.16-.239.239-.16.16-.239.239c-.08,0-.08.08-.16.08l-.239.239-.08.08-.239.239-.08.08-.239.239-.08.08-.239.239-.08.08-.239.239a10.431,10.431,0,0,0-.958.878c-.16.16-.239.239-.319.239s-.08.08-.16.08c-.08.08-.16.16-.239.16s-.08.08-.16.08c-.08.08-.16.08-.239.16l-.16.16c-.08.08-.16.08-.16.16l-.16.16c-.08.08-.16.08-.16.16-.08.08-.16.08-.16.16-.08.08-.16.08-.16.16-.08.08-.16.08-.16.16-.08.08-.16.08-.16.16-.08.08-.16.08-.16.16-.08.08-.16.08-.16.16-.08.08-.16.08-.239.16s-.16.08-.16.16c-.08.08-.16.08-.16.16-.08.08.009-.155.009-.075-.08.08-.16.08-.16.16-.08.08-.16.08-.16.16-.08.08-.16.08-.239.16a.279.279,0,0,0-.16.08c-.08.08-.16.08-.239.16-.08,0-.08.08-.16.08-.08.08-.16.08-.239.16a.279.279,0,0,0-.16.08c-.08.08-.16.08-.239.16a.279.279,0,0,0-.16.08c-.08.08-.16.08-.239.16a.279.279,0,0,0-.16.08c-.08.08-.16.08-.239.16a.279.279,0,0,0-.16.08c-.08.08-.16.08-.239.16a.279.279,0,0,0-.16.08c-.08,0-.16.08-.239.08a.279.279,0,0,0-.16.08c-.08,0-.16.08-.239.08a.279.279,0,0,0-.16.08c-.08,0-.16.08-.239.08a.279.279,0,0,0-.16.08c-.08,0-.16.08-.239.08a.279.279,0,0,0-.16.08c-.08,0-.16.08-.239.08a.279.279,0,0,0-.16.08c-.08,0-.16.08-.239.08a.279.279,0,0,0-.16.08c-.08,0-.16.08-.239.08a.279.279,0,0,0-.16.08c-.08,0-.16.08-.239.08a.279.279,0,0,0-.16.08c-.08,0-.16.08-.239.08a.279.279,0,0,0-.16.08c-.08,0-.16.08-.239.08a.279.279,0,0,0-.16.08c-.08,0-.16.08-.239.08a.279.279,0,0,0-.16.08c-.08,0-.16.08-.239.08s-.16.08-.239.08-.16.08-.239.08-.16.08-.239.08-.16.08-.239.08-.16.08-.239.08-.16.08-.239.08-.16.08-.239.08-.16.08-.239.08-.16.08-.239.08-.16.08-.239.08-.16.08-.239.08-.16.08-.239.08-.16.08-.239.08-.16.08-.239.08a.293.293,0,0,0-.239.08c-.08,0-.16.08-.239.08a.293.293,0,0,0-.239.08c-.08,0-.16.08-.239.08a.293.293,0,0,0-.239.08c-.08,0-.16.08-.239.08s-.16,0-.16.08c-.08,0-.16.08-.239.08s-.16,0-.16.08a.293.293,0,0,0-.239.08h-.16a1886.105,1886.105,0,0,1-.479.16,2200.586,2200.586,0,0,1-.479.16.293.293,0,0,0-.239.08c-.08,0,.08-.087,0-.087C145.1,259.341,145.479,259.229,145.4,259.309Z" transform="translate(-119.9 -238.399)"/>
            </g>
            <g id="Group_1614" data-name="Group 1614" transform="translate(13.649 48.252)">
              <path id="Path_4711" data-name="Path 4711" class="cls-40" d="M158.71,238.7a7.216,7.216,0,0,0,.878.8,21.169,21.169,0,0,1-11.334,5.906A16.174,16.174,0,0,1,137,242.771l.08-.08a5.539,5.539,0,0,0,.8-.958,16.754,16.754,0,0,0,9.977,2.075h.639A21.974,21.974,0,0,0,158.71,238.7Z" transform="translate(-137 -238.7)"/>
            </g>
            <g id="Group_1615" data-name="Group 1615" transform="translate(25.062 43.543)">
              <path id="Path_4712" data-name="Path 4712" class="cls-37" d="M161.437,237.27h0l.16.16a21.1,21.1,0,0,1-9.817,4.949c.718-.16,1.357-.319,2-.479l-2.474-4.31a8.975,8.975,0,0,0,6.226-3.432,7.909,7.909,0,0,0,.878-1.357v.08A27.591,27.591,0,0,0,161.437,237.27Z" transform="translate(-151.3 -232.8)"/>
            </g>
            <g id="Group_1616" data-name="Group 1616" transform="translate(36.955 22.631)">
              <path id="Path_4713" data-name="Path 4713" class="cls-23" d="M168.515,206.6c.8.08,1.836.958,1.357,3.272-.479,2.235-2.155,5.028-2.953,5.188h-.08c-.239,0-.479-.319-.639-.718a10.262,10.262,0,0,0,.319-1.516c-.08,0-.16-.08-.239-.16a32.877,32.877,0,0,0,1.437-5.507.965.965,0,0,1,.718-.479A.078.078,0,0,1,168.515,206.6Z" transform="translate(-166.2 -206.6)"/>
            </g>
            <g id="Group_1617" data-name="Group 1617" transform="translate(18.757 46.177)">
              <path id="Path_4714" data-name="Path 4714" class="cls-20" d="M143.4,236.9a2.836,2.836,0,0,0,.16-.8,16.919,16.919,0,0,0,3.512,2.394A5.616,5.616,0,0,1,143.4,236.9Z" transform="translate(-143.4 -236.1)"/>
            </g>
            <g id="Group_1618" data-name="Group 1618" transform="translate(18.916 45.618)">
              <path id="Path_4715" data-name="Path 4715" class="cls-21" d="M143.6,235.959h0a1.358,1.358,0,0,1,.08-.559A1.358,1.358,0,0,0,143.6,235.959Z" transform="translate(-143.6 -235.4)"/>
            </g>
            <g id="Group_1619" data-name="Group 1619" transform="translate(18.757 41.707)">
              <path id="Path_4716" data-name="Path 4716" class="cls-41" d="M155.851,233.613v.16a8.8,8.8,0,0,1-6.226,3.432h-.239a8.815,8.815,0,0,1-2.474.08,12.408,12.408,0,0,1-3.512-2.394,1.358,1.358,0,0,1,.08-.559v-1.916a8,8,0,0,0,6.066,1.916c1.916-.239,4.071-1.6,6.066-3.831v2.075h0v.559h0v.319C155.851,233.533,155.851,233.613,155.851,233.613Z" transform="translate(-143.4 -230.5)"/>
            </g>
            <g id="Group_1620" data-name="Group 1620" transform="translate(15.245 45.778)">
              <path id="Path_4717" data-name="Path 4717" class="cls-40" d="M139,239.99c1.2-1.916,2.474-4.39,2.474-4.39A43.529,43.529,0,0,1,139,239.99Z" transform="translate(-139 -235.6)"/>
            </g>
            <g id="Group_1621" data-name="Group 1621" transform="translate(26.439 22.691)">
              <path id="Path_4718" data-name="Path 4718" class="cls-42" d="M163.3,207.174c.16.08.239.239.319.319a1.72,1.72,0,0,1,.319,1.277l-.16,2.155a2.412,2.412,0,0,1-.4,1.277,3.765,3.765,0,0,1-2.554,1.676l-4.15.559a2.791,2.791,0,0,1-3.272-2l-.319-1.517a1.353,1.353,0,0,1,0-.8.407.407,0,0,1,.319.4l.4-.08c0-.319-.239-.559-.639-.718a3.728,3.728,0,0,1,.4-.8,3.336,3.336,0,0,1,1.916-1.117l5.827-1.117h.16A2.385,2.385,0,0,1,163.3,207.174Zm-.08,1.676a1.339,1.339,0,0,0-.479-1.117,1.72,1.72,0,0,0-1.277-.319h-.16l-5.827,1.117a1.975,1.975,0,0,0-1.277.8,1.56,1.56,0,0,0-.319,1.277l.319,1.517a2.251,2.251,0,0,0,2.474,1.516l4.15-.559a2.538,2.538,0,0,0,2.155-2.155l.239-2.075Z" transform="translate(-153.025 -206.675)"/>
            </g>
            <g id="Group_1622" data-name="Group 1622" transform="translate(27.268 23.48)">
              <path id="Path_4719" data-name="Path 4719" class="cls-20" d="M156.886,213.918a2.173,2.173,0,0,1-2.474-1.517l-.319-1.516a1.435,1.435,0,0,1,.319-1.277,2.682,2.682,0,0,1,1.277-.8l5.827-1.117h.16a1.435,1.435,0,0,1,1.277.319,1.339,1.339,0,0,1,.479,1.117l-.16,2.155a2.538,2.538,0,0,1-2.155,2.155Z" transform="translate(-154.064 -207.664)"/>
            </g>
            <g id="Group_1623" data-name="Group 1623" transform="translate(22.907 25.704)">
              <path id="Path_4720" data-name="Path 4720" class="cls-42" d="M152.272,210.57c.4.16.639.4.639.718l-.4.08a.53.53,0,0,0-.319-.4,2.545,2.545,0,0,0-1.437-.16,3.017,3.017,0,0,0-1.357.479c-.239.16-.4.319-.4.559l-.4.08a1.119,1.119,0,0,1,.639-.878,3.815,3.815,0,0,1,1.437-.479A2.688,2.688,0,0,1,152.272,210.57Z" transform="translate(-148.6 -210.45)"/>
            </g>
            <g id="Group_1624" data-name="Group 1624" transform="translate(9.426)">
              <path id="Path_4721" data-name="Path 4721" class="cls-43" d="M166.182,180.763c6.545,5.428-2.075,16.2-5.108,16.682a33.6,33.6,0,0,1-.319,3.991,30.983,30.983,0,0,1-1.437,5.507,1.3,1.3,0,0,1-.239-.479,2.412,2.412,0,0,0,.4-1.277l.16-2.155a2.176,2.176,0,0,0-.319-1.277,18.516,18.516,0,0,0,.239-3.991c-3.272.4-7.1,1.117-13.09-3.512a8.927,8.927,0,0,0-6.066-2,3.6,3.6,0,0,0-.878.239c-1.916,6.465-3.512,5.108-4.39,8.061a18.3,18.3,0,0,0,.08,4.629,2.623,2.623,0,0,0-.319,1.357l.16,2.075a1.624,1.624,0,0,0,.479,1.2,1.364,1.364,0,0,1-.479.958,24.785,24.785,0,0,1-1.2-5.587,19.45,19.45,0,0,1-.08-2.155c-4.071-8.54-1.756-18.358,3.672-19.874,3.512-3.033,6.7-4.39,9.578-4.789a16.134,16.134,0,0,1,10.376,2.474c2.794,1.6,4.949,3.193,6.465,3.033C164.905,183.637,165.624,182.759,166.182,180.763Z" transform="translate(-131.709 -178.246)"/>
            </g>
            <g id="Group_1625" data-name="Group 1625" transform="translate(12.85 26.192)">
              <path id="Path_4722" data-name="Path 4722" class="cls-23" d="M154.278,226.656c-2,2.235-4.23,3.592-6.066,3.831a8.239,8.239,0,0,1-6.066-1.916c-2.554-2-4.709-5.348-5.827-9.9-.08-.4-.239-.878-.319-1.277a.965.965,0,0,0,.479-.958,2.876,2.876,0,0,0,2.554.958l4.15-.559a4.069,4.069,0,0,0,3.272-2.873l.319-1.6a1.36,1.36,0,0,0,0-.8,3.017,3.017,0,0,1,1.357-.479,2.653,2.653,0,0,1,1.437.16v.8l.319,1.516a2.988,2.988,0,0,0,3.272,2l4.15-.559a3.765,3.765,0,0,0,2.554-1.676,1.3,1.3,0,0,0,.239.479c.08.08.16.16.239.16-.08.559-.239,1.038-.319,1.517A25.173,25.173,0,0,1,154.278,226.656Z" transform="translate(-136 -211.061)"/>
            </g>
            <g id="Group_1626" data-name="Group 1626" transform="translate(12.771 24.851)">
              <path id="Path_4723" data-name="Path 4723" class="cls-42" d="M146.436,211.631a.826.826,0,0,1,.4-.559v.8l-.319,1.6a4.057,4.057,0,0,1-3.272,2.873l-4.15.559a2.518,2.518,0,0,1-3.033-2.155l-.16-2.075a2.82,2.82,0,0,1,.319-1.357,2.116,2.116,0,0,1,.4-.479,3.163,3.163,0,0,1,1.836-.958h.16l5.827-.479a2.268,2.268,0,0,1,1.916.639,1.738,1.738,0,0,1,.4.639,1.119,1.119,0,0,0-.639.878Zm-.479.239a1.278,1.278,0,0,0-.319-1.2,1.473,1.473,0,0,0-1.277-.4l-5.827.479h-.16a2.433,2.433,0,0,0-1.277.639,1.813,1.813,0,0,0-.479,1.277l.16,2.075a1.762,1.762,0,0,0,2.155,1.517l4.15-.559a3.129,3.129,0,0,0,2.474-2.155l.4-1.676Z" transform="translate(-135.9 -209.381)"/>
            </g>
            <g id="Group_1627" data-name="Group 1627" transform="translate(13.569 25.724)">
              <path id="Path_4724" data-name="Path 4724" class="cls-20" d="M139.215,216.481a1.812,1.812,0,0,1-2.155-1.516l-.16-2.075a1.957,1.957,0,0,1,.479-1.277,2.433,2.433,0,0,1,1.277-.639h.16l5.827-.479a1.4,1.4,0,0,1,1.277.4,1.278,1.278,0,0,1,.319,1.2l-.319,1.6a3.129,3.129,0,0,1-2.474,2.155Z" transform="translate(-136.9 -210.475)"/>
            </g>
            <g id="Group_1628" data-name="Group 1628" transform="translate(12.911 13.846)">
              <path id="Path_4725" data-name="Path 4725" class="cls-23" d="M147.429,197.754c5.906,4.55,9.817,3.911,13.09,3.512a25.659,25.659,0,0,1-.239,3.991.623.623,0,0,0-.319-.319,2.385,2.385,0,0,0-1.836-.479h-.16l-5.827,1.117a3.335,3.335,0,0,0-1.916,1.117,2.5,2.5,0,0,0-.4.8,3.064,3.064,0,0,0-1.516-.08,3.383,3.383,0,0,0-1.437.479,1.738,1.738,0,0,0-.4-.639,2.545,2.545,0,0,0-1.916-.639l-5.827.479h-.16a3.163,3.163,0,0,0-1.836.958c-.16.16-.239.319-.4.479a13.01,13.01,0,0,1-.08-4.629c.958-2.953,2.554-1.676,4.39-8.061.239-.08.559-.16.878-.239A10.56,10.56,0,0,1,147.429,197.754Z" transform="translate(-136.076 -195.594)"/>
            </g>
            <g id="Group_1629" data-name="Group 1629" transform="translate(9.297 26.542)">
              <path id="Path_4726" data-name="Path 4726" class="cls-23" d="M135.022,217.406a5.979,5.979,0,0,0,.319,1.277c-.16.4-.319.718-.639.8h-.08c-.8.08-2.474-2.235-2.953-4.31-.479-2.235.559-3.352,1.357-3.672h.16a.906.906,0,0,1,.639.239A28.345,28.345,0,0,0,135.022,217.406Z" transform="translate(-131.548 -211.5)"/>
            </g>
          </g>
        </g>
      </g>
      <g id="profile1" transform="translate(39.34 0)">
        <g id="Group_1639" data-name="Group 1639">
          <g id="Group_1638" data-name="Group 1638" transform="translate(0)">
            <g id="Group_1668" data-name="Group 1668">
              <ellipse id="Ellipse_105" data-name="Ellipse 105" class="cls-44" cx="38.511" cy="32.906" rx="38.511" ry="32.906" transform="matrix(0.478, -0.878, 0.878, 0.478, 0, 67.656)"/>
            </g>
            <g id="Group_1637" data-name="Group 1637" transform="translate(4.804 1.601)">
              <ellipse id="Ellipse_105-2" data-name="Ellipse 105" class="cls-45" cx="38.511" cy="32.906" rx="38.511" ry="32.906" transform="matrix(0.478, -0.878, 0.878, 0.478, 0, 67.656)"/>
            </g>
          </g>
        </g>
        <g id="Group_1664" data-name="Group 1664" transform="translate(29.036 24.274)">
          <g id="Group_1648" data-name="Group 1648" transform="translate(21.777 38.502)">
            <g id="Group_1640" data-name="Group 1640" transform="translate(11.609 6.085)">
              <path id="Path_4740" data-name="Path 4740" class="cls-20" d="M240.2,125.8a4.188,4.188,0,0,0,1.441.24A6.739,6.739,0,0,1,240.2,125.8Z" transform="translate(-240.2 -125.8)"/>
            </g>
            <g id="Group_1641" data-name="Group 1641" transform="translate(2.882 6.245)">
              <path id="Path_4741" data-name="Path 4741" class="cls-46" d="M246.914,126.48a5.723,5.723,0,0,1,5.124,5.2l-.08.08a4.009,4.009,0,0,1-.56.641l-.24.24c-.16.16-.24.32-.4.4l-.24.24-.4.4-.24.24c-.08.16-.24.24-.4.4l-.24.24c-.16.08-.24.24-.4.32l-.24.24c-.16.08-.24.24-.4.32l-.24.24-.4.4-.24.24c-.16.16-.32.24-.48.4l-.16.16c-.48.4-.881.721-1.361,1.121-.08.08-.16.08-.16.16-.16.16-.32.24-.48.4-.08.08-.16.16-.24.16-.16.08-.32.24-.48.32-.08.08-.16.16-.24.16-.16.08-.32.24-.48.32a.416.416,0,0,1-.32.16,1.675,1.675,0,0,0-.48.32.416.416,0,0,1-.32.16l-.48.24c-.08.08-.16.08-.32.16l-.48.24c-.08.08-.16.08-.24.16a4.594,4.594,0,0,0-.56.32c-.08,0-.16.08-.24.08-.48.24-1.041.56-1.521.8-.08,0-.16.08-.24.08a3.9,3.9,0,0,1-.56.24c-.08.08-.16.08-.32.16l-.48.24c-.08.08-.24.08-.32.16a1.138,1.138,0,0,1-.48.16c-.08.08-.24.08-.32.16-.16.08-.32.08-.48.16-.08.08-.24.08-.32.16-.16.08-.32.08-.48.16-.08,0-.24.08-.32.08-.16.08-.32.08-.48.16-.08,0-.24.08-.32.08a5.1,5.1,0,0,1-.56.16c-.08,0-.16.08-.32.08a2.337,2.337,0,0,1-.721.16c-.08,0-.08,0-.16.08a2.844,2.844,0,0,1-.8.16c-.08,0-.24.08-.32.08-.16,0-.32.08-.48.08l-.48-11.209.641-2.082,2.082,2.482L237.547,126a4.188,4.188,0,0,0,1.441.24Z" transform="translate(-229.3 -126)"/>
            </g>
            <g id="Group_1642" data-name="Group 1642" transform="translate(7.926 2.162)">
              <path id="Path_4742" data-name="Path 4742" class="cls-47" d="M235.6,120.9Z" transform="translate(-235.6 -120.9)"/>
            </g>
            <g id="Group_1643" data-name="Group 1643" transform="translate(7.926)">
              <path id="Path_4743" data-name="Path 4743" class="cls-48" d="M236.561,118.2a.927.927,0,0,1,.4.56l-1.361,1.681h0v-.08h0v-.8h0v-.08C235.84,119.081,236.241,118.68,236.561,118.2Z" transform="translate(-235.6 -118.2)"/>
            </g>
            <g id="Group_1644" data-name="Group 1644" transform="translate(7.846 1.281)">
              <path id="Path_4744" data-name="Path 4744" class="cls-20" d="M235.5,119.8Z" transform="translate(-235.5 -119.8)"/>
            </g>
            <g id="Group_1645" data-name="Group 1645" transform="translate(0.08 13.771)">
              <path id="Path_4745" data-name="Path 4745" class="cls-1" d="M228.6,146.849h-.08c-.24.08-.56.08-.8.16-.24,0-.56.08-.8.08h-.08c-.24,0-.48.08-.8.08h-.24l.56-11.369,2.8-.4.48,11.209h-.24A1.545,1.545,0,0,1,228.6,146.849Z" transform="translate(-225.8 -135.4)"/>
            </g>
            <g id="Group_1646" data-name="Group 1646" transform="translate(2.002 0.48)">
              <path id="Path_4746" data-name="Path 4746" class="cls-19" d="M234.125,120.481l1.361-1.681,2.4,5.364-.08.24-5.524,8.167-2.082-2.482-2-2.482,1.922-2.322Z" transform="translate(-228.2 -118.8)"/>
            </g>
            <g id="Group_1647" data-name="Group 1647" transform="translate(0 9.287)">
              <path id="Path_4747" data-name="Path 4747" class="cls-1" d="M227.7,129.8l2,2.482-.56,2.082-2.882.4-.56-1.922Z" transform="translate(-225.7 -129.8)"/>
            </g>
          </g>
          <g id="Group_1649" data-name="Group 1649" transform="translate(0 47.389)">
            <path id="Path_4748" data-name="Path 4748" class="cls-46" d="M218.2,135.785l2.082-3.122.56,1.922-.56,11.369h-5.2a1.016,1.016,0,0,1-.48-.08h-.32a1.015,1.015,0,0,1-.48-.08.481.481,0,0,1-.32-.08c-.16,0-.32-.08-.48-.08a.481.481,0,0,1-.32-.08c-.16,0-.32-.08-.48-.08a.605.605,0,0,1-.32-.08c-.24-.08-.4-.08-.641-.16h-.16c-.24-.08-.48-.08-.721-.16-.08,0-.16-.08-.24-.08-.16-.08-.32-.08-.48-.16-.08,0-.16-.08-.32-.08-.16-.08-.32-.08-.48-.16-.08,0-.24-.08-.32-.08-.16-.08-.32-.08-.4-.16-.08,0-.24-.08-.32-.08-.16-.08-.24-.08-.4-.16-.08,0-.24-.08-.32-.08-.16-.08-.24-.08-.4-.16-.08-.08-.24-.08-.32-.16-.16-.08-.24-.08-.4-.16-.08-.08-.16-.08-.32-.16a1.352,1.352,0,0,0-.4-.16c-.08-.08-.16-.08-.24-.16-.16-.08-.4-.16-.56-.24-.08,0-.08-.08-.16-.08a4.756,4.756,0,0,1-.641-.32c-.08,0-.16-.08-.24-.08l-.48-.24c-.08-.08-.16-.08-.24-.16-.16-.08-.24-.16-.4-.24-.08-.08-.16-.08-.24-.16-.16-.08-.24-.16-.4-.24-.08-.08-.16-.16-.24-.16-.08-.08-.24-.16-.32-.24s-.16-.16-.24-.16c-.08-.08-.24-.16-.32-.24s-.16-.16-.24-.16c-.08-.08-.24-.16-.32-.24s-.16-.16-.24-.16a1.406,1.406,0,0,1-.4-.32c-.08-.08-.16-.16-.24-.16-.16-.16-.32-.24-.4-.4-.08,0-.08-.08-.16-.08a8.153,8.153,0,0,1,5.124-6.565l7.526-2.482a11.342,11.342,0,0,0,1.441-.641Z" transform="translate(-198.5 -129.3)"/>
          </g>
          <g id="Group_1650" data-name="Group 1650" transform="translate(20.726 35.527)">
            <path id="Path_4749" data-name="Path 4749" class="cls-20" d="M229.361,114.5c.641-.08,1.041.24.881.721a1.484,1.484,0,0,1-1.281,1.041l-3.283.48a1.078,1.078,0,0,1-1.281-.721c-.08-.48.32-.881.881-1.041Z" transform="translate(-224.387 -114.485)"/>
          </g>
          <g id="Group_1663" data-name="Group 1663" transform="translate(9.193)">
            <g id="Group_1651" data-name="Group 1651" transform="translate(14.586 47.789)">
              <path id="Path_4750" data-name="Path 4750" class="cls-20" d="M228.2,129.8Z" transform="translate(-228.2 -129.8)"/>
            </g>
            <g id="Group_1652" data-name="Group 1652" transform="translate(25.955 19.607)">
              <path id="Path_4751" data-name="Path 4751" class="cls-20" d="M244.322,94.6c.721.08,1.761.881,1.281,3.122-.4,2.162-2,4.8-2.8,4.964h-.08a.607.607,0,0,1-.32-.16c.16-.641.24-1.2.4-1.841A29.916,29.916,0,0,0,244,94.76a.294.294,0,0,1,.24-.08C244.241,94.6,244.241,94.6,244.322,94.6Z" transform="translate(-242.4 -94.6)"/>
            </g>
            <g id="Group_1653" data-name="Group 1653" transform="translate(8.741 42.024)">
              <path id="Path_4752" data-name="Path 4752" class="cls-20" d="M226.985,125.722a12.429,12.429,0,0,0,1.681.32l-1.922,2.322L220.9,122.92c0-.08.08-.24.08-.32A13.415,13.415,0,0,0,226.985,125.722Z" transform="translate(-220.9 -122.6)"/>
            </g>
            <g id="Group_1654" data-name="Group 1654" transform="translate(8.741 41.464)">
              <path id="Path_4753" data-name="Path 4753" class="cls-47" d="M220.9,122.46h0a1.563,1.563,0,0,1,.08-.56A1.563,1.563,0,0,1,220.9,122.46Z" transform="translate(-220.9 -121.9)"/>
            </g>
            <g id="Group_1655" data-name="Group 1655" transform="translate(8.741 39.783)">
              <path id="Path_4754" data-name="Path 4754" class="cls-24" d="M232.669,120.681l-4,4.884a12.431,12.431,0,0,1-1.681-.32,13.452,13.452,0,0,1-6.085-3.2,1.563,1.563,0,0,1,.08-.56v-.24A7.255,7.255,0,0,0,226.745,123a9.52,9.52,0,0,0,5.765-3.2v.08h0v.8c.08-.16.08-.08.16,0C232.589,120.6,232.669,120.6,232.669,120.681Z" transform="translate(-220.9 -119.8)"/>
            </g>
            <g id="Group_1656" data-name="Group 1656" transform="translate(4.898 41.064)">
              <path id="Path_4755" data-name="Path 4755" class="cls-19" d="M218.5,121.4l1.441,1.281,5.845,5.444-2,3.042L221.7,134.21l-5.524-6.645-.08-.16Z" transform="translate(-216.1 -121.4)"/>
            </g>
            <g id="Group_1657" data-name="Group 1657" transform="translate(3.537 47.229)">
              <path id="Path_4756" data-name="Path 4756" class="cls-20" d="M215.841,129.1a7.862,7.862,0,0,1-1.441.641A3.957,3.957,0,0,0,215.841,129.1Z" transform="translate(-214.4 -129.1)"/>
            </g>
            <g id="Group_1658" data-name="Group 1658" transform="translate(7.3 40.343)">
              <path id="Path_4757" data-name="Path 4757" class="cls-48" d="M219.66,120.5a9.6,9.6,0,0,0,.961.881v.24a1.015,1.015,0,0,1-.08.48.481.481,0,0,1-.08.32l-1.361-1.281A1.842,1.842,0,0,1,219.66,120.5Z" transform="translate(-219.1 -120.5)"/>
            </g>
            <g id="Group_1659" data-name="Group 1659" transform="translate(2.816 25.691)">
              <path id="Path_4758" data-name="Path 4758" class="cls-49" d="M231.434,110.447c.961-.16,2.162-1.761,3.122-3.363a47.7,47.7,0,0,0,2.4-4.884,15.148,15.148,0,0,1-.4,1.841,29.207,29.207,0,0,1-4.484,10.969,16.769,16.769,0,0,1-1.121,1.361,9.52,9.52,0,0,1-5.765,3.2,7.082,7.082,0,0,1-5.765-1.761,9.6,9.6,0,0,1-.961-.881c-2.082-2.242-3.6-5.685-4.564-9.688-.16-.641-.32-1.281-.4-1.841a26.527,26.527,0,0,0,2.4,4.4c.961,1.281,2.162,2.562,3.122,2.482a.612.612,0,0,0,.4-.16c1.041-.721,2.8-2.162,3.843-2.322l1.922-.24,1.922-.24c1.041-.16,2.8.881,3.843,1.281A.677.677,0,0,1,231.434,110.447Zm-3.363,2.322c.08-.48-.32-.8-.881-.721l-4,.56c-.641.08-1.041.56-.881,1.041a1.078,1.078,0,0,0,1.281.721l3.283-.48a1.7,1.7,0,0,0,1.2-1.121Z" transform="translate(-213.5 -102.2)"/>
            </g>
            <g id="Group_1660" data-name="Group 1660" transform="translate(0 23.309)">
              <path id="Path_4759" data-name="Path 4759" class="cls-20" d="M211.758,99.285a23.452,23.452,0,0,0,1.121,5.444c.16.641.24,1.281.4,1.841-.08.16-.24.24-.32.32h-.08c-.8.08-2.4-2.082-2.8-4.163s.56-3.2,1.281-3.443h.08C211.6,99.2,211.678,99.2,211.758,99.285Z" transform="translate(-209.982 -99.225)"/>
            </g>
            <g id="Group_1661" data-name="Group 1661" transform="translate(2.871 13.65)">
              <path id="Path_4760" data-name="Path 4760" class="cls-20" d="M236.892,89.594c.641,2.322-1.361,9.367.08,9.608a39.732,39.732,0,0,1-2.4,4.884c-.961,1.6-2.162,3.2-3.122,3.363a.6.6,0,0,1-.4-.08c-1.041-.4-2.8-1.441-3.843-1.281l-1.922.24-1.922.24c-1.041.16-2.8,1.6-3.843,2.322a1.353,1.353,0,0,1-.4.16c-.961.16-2.162-1.121-3.122-2.482a34.944,34.944,0,0,1-2.4-4.4c1.441-.641-.48-6.886.08-9.448a4.259,4.259,0,0,1,3.843-3.363c2.082-.32,4.724.08,7.606-.32,2.962-.4,5.6-1.521,7.766-1.841C234.811,87.032,236.172,87.432,236.892,89.594Z" transform="translate(-213.568 -87.161)"/>
            </g>
            <g id="Group_1662" data-name="Group 1662" transform="translate(1.098)">
              <path id="Path_4761" data-name="Path 4761" class="cls-49" d="M223.721,70.342a36.214,36.214,0,0,1,8.807.08c1.2,7.206,7.046,5.925,5.2,17.614a14.173,14.173,0,0,1-.08,1.841,23.583,23.583,0,0,1-1.2,5.925c-1.441-.24.56-7.286-.08-9.608-.721-2.082-2.082-2.482-3.923-2.242-2.082.32-4.8,1.441-7.766,1.841s-5.6,0-7.606.32a4.116,4.116,0,0,0-3.843,3.363c-.641,2.482,1.361,8.807-.08,9.448a22.618,22.618,0,0,1-1.121-5.444,12.975,12.975,0,0,1-.08-1.761C210.83,85.154,209.79,72.344,223.721,70.342Z" transform="translate(-211.354 -70.111)"/>
            </g>
          </g>
        </g>
      </g>
    </g>
    <path id="Path_4765" data-name="Path 4765" class="cls-28" d="M1076.771,3877.524a30.169,30.169,0,0,0,17.441-7.429c8.522-7.282-8.358,1.4-8.358,1.4l-6.9,4.438Z" transform="translate(-31.126 -20.321)"/>
    <g id="isometric_sheild" transform="translate(962.788 3704.087)">
      <path id="Path_4940" data-name="Path 4940" class="cls-50" d="M390.1,144.806s-12.868,1.339-14.662-7.606a76.988,76.988,0,0,0-27.96,16.886s-5.142,15.212-10.739,19.469c0,0-9.065,40.039,25.162,48.65C361.928,222.205,392.448,187.548,390.1,144.806Z" transform="translate(-328.432 -132.847)"/>
      <path id="Path_4941" data-name="Path 4941" class="cls-51" d="M516.662,144.806S504.368,146.145,502,137.2c0,0,1.339,5.812,9.5,3.133C511.519,140.333,516.542,141.816,516.662,144.806Z" transform="translate(-454.99 -132.847)"/>
      <path id="Path_4942" data-name="Path 4942" class="cls-52" d="M352.466,123.353A11.127,11.127,0,0,0,346.2,119s-17.006,5.262-27.841,18.13A43.33,43.33,0,0,1,306.4,157.7s-9.615,44.727,32.553,50.659c0,0-31.644-4.927-25.162-48.65a46.355,46.355,0,0,0,10.739-19.469C324.506,140.239,332.9,130.959,352.466,123.353Z" transform="translate(-305.456 -119)"/>
      <g id="Group_1720" data-name="Group 1720" transform="translate(16.49 20.993)">
        <path id="Path_4943" data-name="Path 4943" class="cls-53" d="M388.847,271.618c10.046-6.243,18.632-4.305,20.235,4.64a24.79,24.79,0,0,1,.239,4.066,4.555,4.555,0,0,1-.431,1.746c-.383.981-.885,1.961-1.339,2.942-.239.5-.526.933-.981,1.028-.454.12-.526-.239-.5-.718a24.489,24.489,0,0,0-.311-7.917c-1.65-5.788-7.486-7.486-14.4-4.066-6.051,3.014-11.194,8.108-15.379,15.14a2.4,2.4,0,0,1-.981,1.076c-.383.144-.6.024-.6-.359a9.489,9.489,0,0,1,.239-2.3,7.178,7.178,0,0,1,.981-2.153,46.182,46.182,0,0,1,11.5-11.959C387.651,272.407,388.249,272.049,388.847,271.618Z" transform="translate(-374.4 -253.337)"/>
        <path id="Path_4944" data-name="Path 4944" class="cls-54" d="M405.618,308.268c-.311,2.559-.6,5.095-.957,7.63a7.859,7.859,0,0,1-2.751,4.5c-.574.526-1.052.311-.909-.383.239-1.268.574-2.631.765-3.9a32.883,32.883,0,0,0,.454-8.4c-.5-4.329-4.281-6-8.921-3.923-6.267,2.822-11.959,10.357-13.035,17.293-.072.407-.072.741-.143,1.1a1.66,1.66,0,0,1-.67,1.124c-.359.287-.67.311-.813.048a12.478,12.478,0,0,1-.957-2.392,3.364,3.364,0,0,1,.215-1.674,32.851,32.851,0,0,1,11.911-16.551c7.415-5.405,13.992-4.521,15.4,1.985.072.263.1.574.144.837.072.909.1,1.842.143,2.751A.183.183,0,0,0,405.618,308.268Z" transform="translate(-376.869 -277.096)"/>
        <path id="Path_4945" data-name="Path 4945" class="cls-55" d="M396.615,241.447c9.376-5.573,16.838-6.338,22.292-2.033a3.438,3.438,0,0,1,1.148,2.894v1.937a1.587,1.587,0,0,1-.622,1.268c-.454.383-.741.287-.909,0a11.3,11.3,0,0,0-1.339-1.794c-3.947-4.114-9.711-4.449-17.245-.885A44.794,44.794,0,0,0,386.187,253.6c-.1.144-.239.263-.359.407-.359.407-.67.6-.957.454-.287-.1-.287-.431-.1-.885a14.21,14.21,0,0,1,3.731-5.693A50.737,50.737,0,0,1,396.615,241.447Z" transform="translate(-382.193 -229.504)"/>
        <path id="Path_4946" data-name="Path 4946" class="cls-56" d="M415.091,336.085a44.789,44.789,0,0,1-1.794,10.739,3.746,3.746,0,0,1-2.033,2.679,5.817,5.817,0,0,1-.622.359c-.694.407-1.052.144-.765-.718a38.374,38.374,0,0,0,2.081-12.366c0-2.7-2.1-3.492-4.784-1.818-2.631,1.65-4.712,5.095-4.736,7.773a23.916,23.916,0,0,1-1.1,7.462c-.383,1.22-.909,1.65-1.65,1.387-.215-.072-.454-.167-.67-.239-.431-.191-.574-.6-.383-1.316a21.039,21.039,0,0,0,.622-5.286c0-3.9,2.607-8.682,6.434-11.887,4.353-3.612,8.778-3.205,9.28.885C415.067,334.506,415.067,335.3,415.091,336.085Z" transform="translate(-392.776 -300.822)"/>
        <path id="Path_4947" data-name="Path 4947" class="cls-57" d="M423.492,211.249a36.511,36.511,0,0,1,11.361-4.353,6.6,6.6,0,0,1,5.836,1.65c.239.191.215.574-.1,1.076a1.219,1.219,0,0,1-1.124.67,19.565,19.565,0,0,0-7.654.646,40.691,40.691,0,0,0-13.418,6.7c-.431.287-.741.383-.957.144a.978.978,0,0,1,.239-1.076,25.1,25.1,0,0,1,5.525-5.31A.642.642,0,0,0,423.492,211.249Z" transform="translate(-407.084 -206.768)"/>
        <path id="Path_4948" data-name="Path 4948" class="cls-58" d="M424.656,363.948a34.471,34.471,0,0,1-2.081,10.333c-.383,1.052-.67,1.339-1.507,1.507-.383.072-.741.12-1.124.167-.431.024-.574-.287-.359-.837a29.272,29.272,0,0,0,1.89-10.5,3.286,3.286,0,0,1,1.579-2.631c.909-.574,1.555-.263,1.555.717A10.81,10.81,0,0,1,424.656,363.948Z" transform="translate(-408.703 -324.643)"/>
      </g>
    </g>
  </g>
</svg>
