<svg xmlns="http://www.w3.org/2000/svg" xmlns:xlink="http://www.w3.org/1999/xlink" viewBox="0 0 145.959 135.425">
  <defs>
    <style>
      .cls-1 {
        fill: url(#linear-gradient);
      }

      .cls-2 {
        fill: url(#linear-gradient-2);
      }

      .cls-3 {
        fill: url(#linear-gradient-3);
      }

      .cls-4 {
        fill: url(#linear-gradient-4);
      }

      .cls-5 {
        fill: url(#linear-gradient-5);
      }

      .cls-6 {
        fill: url(#linear-gradient-6);
      }

      .cls-7 {
        fill: url(#linear-gradient-7);
      }

      .cls-8 {
        fill: url(#linear-gradient-8);
      }

      .cls-9 {
        fill: #98bee5;
      }

      .cls-10 {
        fill: url(#linear-gradient-9);
      }

      .cls-11 {
        fill: url(#linear-gradient-10);
      }

      .cls-12 {
        fill: url(#linear-gradient-11);
      }

      .cls-13 {
        fill: url(#linear-gradient-12);
      }

      .cls-14 {
        fill: url(#linear-gradient-13);
      }

      .cls-15 {
        fill: url(#linear-gradient-14);
      }

      .cls-16 {
        fill: url(#linear-gradient-15);
      }

      .cls-17 {
        fill: url(#linear-gradient-16);
      }

      .cls-18 {
        fill: url(#linear-gradient-17);
      }

      .cls-19 {
        fill: #d1cee7;
      }

      .cls-20 {
        fill: #81b3e0;
      }

      .cls-21, .cls-28 {
        fill: #010101;
      }

      .cls-21 {
        opacity: 0.12;
      }

      .cls-22 {
        fill: #191b1a;
      }

      .cls-23 {
        fill: #f3b68e;
      }

      .cls-24 {
        fill: #fdd0ac;
      }

      .cls-25 {
        fill: #2c2c31;
      }

      .cls-26 {
        fill: #282a28;
      }

      .cls-27 {
        fill: #0d0e0e;
      }

      .cls-29 {
        fill: #2d271e;
      }

      .cls-30 {
        fill: #505050;
      }

      .cls-31 {
        fill: url(#linear-gradient-18);
      }

      .cls-32 {
        fill: #131313;
      }
    </style>
    <linearGradient id="linear-gradient" x1="0.01" y1="7.438" x2="0.775" y2="7.438" gradientUnits="objectBoundingBox">
      <stop offset="0" stop-color="#d1cee7"/>
      <stop offset="0.036" stop-color="#d3d1e9"/>
      <stop offset="0.335" stop-color="#e6e4f2"/>
      <stop offset="0.649" stop-color="#f1f0f8"/>
      <stop offset="1" stop-color="#f5f5fa"/>
    </linearGradient>
    <linearGradient id="linear-gradient-2" x1="0.25" y1="10.72" x2="1.014" y2="10.72" xlink:href="#linear-gradient"/>
    <linearGradient id="linear-gradient-3" x1="0.01" y1="7.433" x2="0.774" y2="7.433" gradientUnits="objectBoundingBox">
      <stop offset="0" stop-color="#726cb1"/>
      <stop offset="0.006" stop-color="#726cb1"/>
      <stop offset="0.475" stop-color="#6f66ad"/>
      <stop offset="1" stop-color="#6e63ac"/>
    </linearGradient>
    <linearGradient id="linear-gradient-4" x1="0.25" y1="10.727" x2="1.014" y2="10.727" gradientUnits="objectBoundingBox">
      <stop offset="0" stop-color="#726cb1"/>
      <stop offset="0.039" stop-color="#756eb2"/>
      <stop offset="0.471" stop-color="#9783bd"/>
      <stop offset="0.806" stop-color="#ae92c5"/>
      <stop offset="1" stop-color="#b698c8"/>
    </linearGradient>
    <linearGradient id="linear-gradient-5" x1="0.232" y1="5.385" x2="0.732" y2="4.662" xlink:href="#linear-gradient"/>
    <linearGradient id="linear-gradient-6" x1="5.052" y1="7.332" x2="5.052" y2="6.568" xlink:href="#linear-gradient-4"/>
    <linearGradient id="linear-gradient-7" x1="0.156" y1="7.385" x2="0.92" y2="7.385" gradientUnits="objectBoundingBox">
      <stop offset="0" stop-color="#b698c8"/>
      <stop offset="1" stop-color="#f5f5fa"/>
    </linearGradient>
    <linearGradient id="linear-gradient-8" x1="0.429" y1="3.685" x2="0.645" y2="4.171" gradientUnits="objectBoundingBox">
      <stop offset="0" stop-color="#d1cee7"/>
      <stop offset="0.369" stop-color="#d4d1e9"/>
      <stop offset="0.665" stop-color="#dedcee"/>
      <stop offset="0.934" stop-color="#efeef7"/>
      <stop offset="1" stop-color="#f5f5fa"/>
    </linearGradient>
    <linearGradient id="linear-gradient-9" x1="0.223" y1="66.925" x2="0.99" y2="66.925" xlink:href="#linear-gradient-4"/>
    <linearGradient id="linear-gradient-10" x1="0" y1="67.138" x2="0.766" y2="67.138" xlink:href="#linear-gradient-4"/>
    <linearGradient id="linear-gradient-11" x1="-0.353" y1="31.232" x2="0.409" y2="31.232" xlink:href="#linear-gradient-4"/>
    <linearGradient id="linear-gradient-12" x1="0.121" y1="8.875" x2="0.885" y2="8.875" xlink:href="#linear-gradient-4"/>
    <linearGradient id="linear-gradient-13" x1="0.051" y1="8.808" x2="0.815" y2="8.808" xlink:href="#linear-gradient-4"/>
    <linearGradient id="linear-gradient-14" x1="0.119" y1="10.488" x2="0.882" y2="10.488" xlink:href="#linear-gradient-4"/>
    <linearGradient id="linear-gradient-15" x1="-0.041" y1="14.101" x2="0.722" y2="14.101" xlink:href="#linear-gradient-4"/>
    <linearGradient id="linear-gradient-16" x1="0.092" y1="10.484" x2="0.855" y2="10.484" xlink:href="#linear-gradient-4"/>
    <linearGradient id="linear-gradient-17" x1="-1.395" y1="69.453" x2="-0.635" y2="69.453" xlink:href="#linear-gradient-4"/>
    <linearGradient id="linear-gradient-18" x1="0.013" y1="0.788" x2="0.948" y2="0.25" gradientUnits="objectBoundingBox">
      <stop offset="0" stop-color="#1d1d1d"/>
      <stop offset="0.186" stop-color="#212121"/>
      <stop offset="0.445" stop-color="#2a2a2a"/>
      <stop offset="0.745" stop-color="#383838"/>
      <stop offset="1" stop-color="#464646"/>
    </linearGradient>
  </defs>
  <g id="Non_transparent_ID" transform="translate(-589.738 -1718.2)">
    <g id="private_user_Data" transform="translate(589.738 1718.2)">
      <g id="Layer_2" transform="translate(0 0)">
        <g id="Group_1489" data-name="Group 1489">
          <path id="Path_4504" data-name="Path 4504" class="cls-1" d="M422.606,322.982h0a1.472,1.472,0,0,0-.277.323.045.045,0,0,0-.046.046,1.809,1.809,0,0,1-.462.369.045.045,0,0,0-.046.046,5.783,5.783,0,0,1-.554.416h-.046c-.185.139-.416.277-.6.416h0c-.231.139-.416.277-.647.416-.046,0-.046.046-.092.046-.323.185-.647.369-1.016.6h-.046l-.554.277h0c-.37.231-.785.416-1.155.647-.138.092-.231.139-.37.231a.161.161,0,0,0-.092.046c-.139.092-.277.139-.416.231-.046,0-.046.046-.092.046a1.873,1.873,0,0,1-.416.231l-63.417,36.859c-3.787,2.217-6.1,3.7-8.037,4.342a6.753,6.753,0,0,1-.924.231v3.834a8.975,8.975,0,0,0,.924-.231c1.894-.647,4.249-2.125,8.037-4.342L415.678,331.2c.139-.092.323-.185.462-.277h0c.693-.37,1.478-.785,2.217-1.247a1.009,1.009,0,0,0,.231-.139.965.965,0,0,0,.277-.185c.092-.046.231-.139.323-.185.046-.046.092-.046.139-.092.139-.092.277-.139.416-.231.046,0,.046-.046.092-.046h.046c.185-.139.416-.231.6-.369l.046-.046a6.732,6.732,0,0,0,.6-.416l.046-.046c.185-.139.37-.277.508-.37l.046-.046a3.234,3.234,0,0,1,.462-.369h.046v-.046l.231-.231.046-.046.185-.185.046-.046.046-.046c.046-.046.046-.046.046-.092.046-.046.046-.092.092-.092,0-.046.046-.046.046-.092s.046-.046.046-.092h0v-.046l.138-.277h0V325.8c0-.046.046-.092.046-.185v-.046h0v-.231C423.484,322.844,422.7,322.936,422.606,322.982Z" transform="translate(-290.044 -237.256)"/>
          <path id="Path_4505" data-name="Path 4505" class="cls-2" d="M281.586,387.7h-.878a.586.586,0,0,1-.277-.046c-.092,0-.185-.046-.277-.046-.138-.046-.277-.046-.369-.092a2.606,2.606,0,0,1-.554-.185,8.636,8.636,0,0,1-1.155-.554l-46.928-27.067c-1.155-.647-1.848-1.155-1.848-1.709v3.834c0,.554.693,1.016,1.848,1.709l46.928,27.067a8.636,8.636,0,0,0,1.155.554,2.606,2.606,0,0,0,.554.185c.139.046.277.046.369.092.092,0,.185.046.277.046s.185.046.277.046h.878c.139,0,.277-.046.462-.046v-3.834A1.733,1.733,0,0,1,281.586,387.7Z" transform="translate(-228.7 -256.108)"/>
          <path id="Path_4506" data-name="Path 4506" class="cls-3" d="M422.806,320.86h0a1.475,1.475,0,0,0-.277.323.045.045,0,0,0-.046.046,1.806,1.806,0,0,1-.462.369l-.046.046a5.76,5.76,0,0,1-.554.416h-.046c-.185.139-.416.277-.6.416h0c-.231.139-.416.277-.647.416-.046,0-.046.046-.092.046-.323.185-.647.369-1.016.6h-.046a3.445,3.445,0,0,0-.554.323h0c-.369.231-.785.416-1.155.647a2.577,2.577,0,0,0-.37.231.161.161,0,0,0-.092.046c-.139.092-.277.139-.416.231-.046,0-.046.046-.092.046a1.873,1.873,0,0,1-.416.231l-63.417,36.859c-3.788,2.217-6.1,3.7-8.037,4.342a6.746,6.746,0,0,1-.924.231v3.834a8.978,8.978,0,0,0,.924-.231c1.894-.647,4.249-2.125,8.037-4.342l63.417-36.859c.139-.092.323-.185.462-.277h0c.693-.37,1.478-.785,2.217-1.247a1.009,1.009,0,0,0,.231-.139.967.967,0,0,0,.277-.185c.092-.046.231-.139.323-.185.046-.046.092-.046.139-.092.139-.092.277-.139.416-.231.046,0,.046-.046.092-.046h.046c.185-.139.416-.231.6-.37l.046-.046c.185-.139.416-.277.6-.416l.046-.046c.185-.139.37-.277.508-.37l.046-.046a3.231,3.231,0,0,1,.462-.369h.046v-.046l.231-.231.046-.046a1.008,1.008,0,0,0,.185-.231l.046-.046.046-.046c.046-.046.046-.046.046-.092a.1.1,0,0,1,.092-.092c0-.046.046-.046.046-.092a.161.161,0,0,0,.046-.092h0V324l.139-.277h0v-.046c0-.046.046-.092.046-.185v-.046h0v-.231C423.684,320.675,422.852,320.767,422.806,320.86Z" transform="translate(-290.152 -236.103)"/>
          <path id="Path_4507" data-name="Path 4507" class="cls-4" d="M281.686,385.6h-.878a.586.586,0,0,1-.277-.046c-.092,0-.185-.046-.277-.046-.139-.046-.277-.046-.369-.092-.185-.046-.37-.139-.554-.185a8.63,8.63,0,0,1-1.155-.554l-46.928-27.067c-1.155-.647-1.848-1.155-1.848-1.709v3.834c0,.554.693,1.016,1.848,1.709l46.928,27.067a6.585,6.585,0,0,0,1.155.554,2.6,2.6,0,0,0,.554.185,1.427,1.427,0,0,0,.369.092c.092,0,.185.046.277.046s.185.046.277.046h.878c.139,0,.277-.046.462-.046v-3.834C282.009,385.553,281.824,385.6,281.686,385.6Z" transform="translate(-228.753 -254.978)"/>
          <g id="Group_1428" data-name="Group 1428" transform="translate(0.651 56.026)">
            <path id="Path_4508" data-name="Path 4508" class="cls-5" d="M360.858,286.735c4.111,2.356-2.679,5.358-6.374,7.483l-63.417,36.859c-7.205,4.2-9.145,5.866-12.887,3.7L231.252,307.7c-3.279-1.894-2.771-2.171,6.374-7.483l63.417-36.859c7.39-4.3,9.192-5.866,12.887-3.7Z" transform="translate(-229.408 -258.697)"/>
          </g>
          <path id="Path_4509" data-name="Path 4509" class="cls-6" d="M230.864,300.778l-.139-50.808L228,248.4l.139,52.794a2.3,2.3,0,0,0,1.293,1.755c.554.323.231-1.109.6-.878C229.478,301.7,230.864,301.84,230.864,300.778Z" transform="translate(-228 -197.131)"/>
          <path id="Path_4510" data-name="Path 4510" class="cls-7" d="M312.9,139.155c.092-.046.139-.046.231-.092.046,0,.092-.046.139-.046a.17.17,0,0,0,.139-.046.278.278,0,0,0,.185-.046,6.02,6.02,0,0,0-.462-.693,12.922,12.922,0,0,0-1.155-.647h0c-.046-.046-.092-.046-.185-.092H311.7c-.046,0-.046,0-.092-.046-.046,0-.046,0-.092-.046h-.831a.17.17,0,0,0-.139.046h-.092a.143.143,0,0,0-.092.046c-.092,0-.139.046-.231.092-.046,0-.046,0-.092.046a.045.045,0,0,0-.046.046c-.139.046-.277.139-.416.185l-78.336,45.219c-.092.046-.231.139-.323.185-.046,0-.046.046-.092.046a.637.637,0,0,0-.185.139c-.046.046-.092.046-.092.092-.046.046-.139.092-.185.185-.046.046-.092.046-.092.092a.161.161,0,0,1-.092.046.161.161,0,0,0-.046.092l-.231.231-.092.092c-.046,0-.046.046-.046.092l-.139.139-.092.092c0,.046-.046.046-.046.092-.046.046-.046.092-.092.139s-.046.046-.046.092c-.046.046-.046.092-.092.139,0,.046-.046.046-.046.092a.045.045,0,0,1-.046.046.967.967,0,0,1-.185.277v.092c-.046.092-.092.139-.139.231,0,.046-.046.046-.046.092s-.046.046-.046.092-.046.046-.046.092c-.046.092-.092.139-.092.231v.046h0l-.139.277v.046a.161.161,0,0,1-.046.092c0,.046-.046.092-.046.139s-.046.092-.046.139-.046.092-.046.139,0,.046-.046.092c0,.046-.046.092-.046.139s-.046.092-.046.139v.185c0,.092-.046.185-.046.277v.739l2.725,1.57v-.508a.416.416,0,0,1,.046-.231c0-.092.046-.185.046-.277a.349.349,0,0,1,.046-.185c0-.046.046-.139.046-.185,0-.092.046-.139.046-.231,0-.046.046-.092.046-.139.046-.092.046-.185.092-.277a.161.161,0,0,1,.046-.092c.046-.139.092-.231.139-.37v-.046c.046-.092.092-.231.139-.323,0-.046.046-.046.046-.092l.139-.277.046-.046a1.158,1.158,0,0,0,.185-.323c0-.046.046-.046.046-.092a.81.81,0,0,1,.185-.231c.046-.046.046-.092.092-.092.046-.046.092-.139.139-.185l.139-.139.139-.139.231-.231.139-.139c.046-.046.092-.046.092-.092.046-.046.139-.092.185-.185.046-.046.092-.046.092-.092.092-.046.139-.092.231-.139.046,0,.046-.046.092-.092a.744.744,0,0,1,.323-.185l78.336-45.219a1.64,1.64,0,0,1,.416-.185C312.856,139.2,312.856,139.155,312.9,139.155Z" transform="translate(-228.054 -137.4)"/>
          <g id="Group_1429" data-name="Group 1429" transform="translate(0.831 0.508)">
            <path id="Path_4511" data-name="Path 4511" class="cls-8" d="M311.554,138.961c1.8-1.062,3.279-.231,3.279,1.848l.139,50.808a7.12,7.12,0,0,1-3.233,5.635l-78.521,45.357c-1.8,1.062-3.279-.139-3.279-2.217l-.139-50.438a7.12,7.12,0,0,1,3.233-5.635Z" transform="translate(-229.8 -138.499)"/>
          </g>
          <g id="Group_1432" data-name="Group 1432" transform="translate(3.048 3.879)">
            <g id="Group_1431" data-name="Group 1431">
              <g id="Group_1430" data-name="Group 1430">
                <path id="Path_4512" data-name="Path 4512" class="cls-9" d="M312.936,146.214l-75.38,43.51a6.547,6.547,0,0,0-2.956,5.127l.139,46.143c0,1.894,1.339,2.633,2.956,1.709l75.38-43.51a6.547,6.547,0,0,0,2.956-5.127l-.139-46.143c0-1.894-1.339-2.679-2.956-1.709Z" transform="translate(-234.6 -145.798)"/>
              </g>
            </g>
          </g>
          <g id="Group_1460" data-name="Group 1460" transform="translate(19.676 66.489)">
            <g id="Group_1435" data-name="Group 1435" transform="translate(28.475 52.043)">
              <g id="Group_1434" data-name="Group 1434">
                <g id="Group_1433" data-name="Group 1433">
                  <path id="Path_4513" data-name="Path 4513" class="cls-10" d="M340.264,394.475a4.015,4.015,0,0,0-3.7,0l-3.557,2.079a1.154,1.154,0,0,0,0,2.171,4.015,4.015,0,0,0,3.7,0l3.557-2.078c1.016-.647,1.016-1.617,0-2.171Z" transform="translate(-332.25 -394.025)"/>
                </g>
              </g>
            </g>
            <g id="Group_1438" data-name="Group 1438" transform="translate(36.789 47.424)">
              <g id="Group_1437" data-name="Group 1437">
                <g id="Group_1436" data-name="Group 1436">
                  <path id="Path_4514" data-name="Path 4514" class="cls-11" d="M358.264,384.475a4.015,4.015,0,0,0-3.7,0l-3.557,2.078a1.154,1.154,0,0,0,0,2.171,4.015,4.015,0,0,0,3.7,0l3.557-2.078c1.016-.647,1.016-1.57,0-2.171Z" transform="translate(-350.25 -384.025)"/>
                </g>
              </g>
            </g>
            <g id="Group_1441" data-name="Group 1441" transform="translate(66.743 3.845)">
              <g id="Group_1440" data-name="Group 1440">
                <g id="Group_1439" data-name="Group 1439">
                  <path id="Path_4515" data-name="Path 4515" class="cls-12" d="M434.314,294.721l-8.083-4.665a3.718,3.718,0,0,0-3.279,0l-7.159,4.157a.993.993,0,0,0,0,1.894l8.083,4.665a3.718,3.718,0,0,0,3.279,0l7.159-4.157a.993.993,0,0,0,0-1.894Z" transform="translate(-415.1 -289.675)"/>
                </g>
              </g>
            </g>
            <g id="Group_1444" data-name="Group 1444">
              <g id="Group_1443" data-name="Group 1443">
                <g id="Group_1442" data-name="Group 1442">
                  <path id="Path_4516" data-name="Path 4516" class="cls-13" d="M341.731,281.835a4.5,4.5,0,0,0-4.065,0L271.431,320.31a1.25,1.25,0,0,0,0,2.356,4.5,4.5,0,0,0,4.065,0l66.235-38.475c1.155-.647,1.155-1.709,0-2.356Z" transform="translate(-270.6 -281.35)"/>
                </g>
              </g>
            </g>
            <g id="Group_1447" data-name="Group 1447" transform="translate(21.385 11.87)">
              <g id="Group_1446" data-name="Group 1446">
                <g id="Group_1445" data-name="Group 1445">
                  <path id="Path_4517" data-name="Path 4517" class="cls-14" d="M388.031,307.535a4.5,4.5,0,0,0-4.065,0L317.731,346.01a1.25,1.25,0,0,0,0,2.356,4.5,4.5,0,0,0,4.065,0l66.235-38.475a1.25,1.25,0,0,0,0-2.356Z" transform="translate(-316.9 -307.05)"/>
                </g>
              </g>
            </g>
            <g id="Group_1450" data-name="Group 1450" transform="translate(6.559 10.854)">
              <g id="Group_1449" data-name="Group 1449">
                <g id="Group_1448" data-name="Group 1448">
                  <path id="Path_4518" data-name="Path 4518" class="cls-15" d="M344.337,305.335a4.5,4.5,0,0,0-4.065,0l-54.641,31.547a1.25,1.25,0,0,0,0,2.356,4.5,4.5,0,0,0,4.065,0l54.641-31.547c1.155-.693,1.109-1.709,0-2.356Z" transform="translate(-284.8 -304.85)"/>
                </g>
              </g>
            </g>
            <g id="Group_1453" data-name="Group 1453" transform="translate(44.803 22.124)">
              <g id="Group_1452" data-name="Group 1452">
                <g id="Group_1451" data-name="Group 1451">
                  <path id="Path_4519" data-name="Path 4519" class="cls-16" d="M411.017,329.735a4.5,4.5,0,0,0-4.065,0l-38.521,22.171a1.25,1.25,0,0,0,0,2.356,4.5,4.5,0,0,0,4.065,0l38.521-22.171c1.155-.647,1.155-1.709,0-2.356Z" transform="translate(-367.6 -329.25)"/>
                </g>
              </g>
            </g>
            <g id="Group_1456" data-name="Group 1456" transform="translate(13.579 15.427)">
              <g id="Group_1455" data-name="Group 1455">
                <g id="Group_1454" data-name="Group 1454">
                  <path id="Path_4520" data-name="Path 4520" class="cls-17" d="M359.26,315.235a4.5,4.5,0,0,0-4.065,0l-54.364,31.454a1.25,1.25,0,0,0,0,2.356,4.5,4.5,0,0,0,4.065,0l54.364-31.454c1.155-.693,1.155-1.709,0-2.356Z" transform="translate(-300 -314.75)"/>
                </g>
              </g>
            </g>
            <g id="Group_1459" data-name="Group 1459" transform="translate(89.052 17.228)">
              <g id="Group_1458" data-name="Group 1458">
                <g id="Group_1457" data-name="Group 1457">
                  <path id="Path_4521" data-name="Path 4521" class="cls-18" d="M471.344,319.135a4.4,4.4,0,0,0-4.018,0l-3.095,1.8c-1.109.647-1.109,1.709,0,2.309a4.4,4.4,0,0,0,4.018,0l3.095-1.8c1.155-.647,1.155-1.663,0-2.309Z" transform="translate(-463.4 -318.65)"/>
                </g>
              </g>
            </g>
          </g>
          <g id="Group_1488" data-name="Group 1488" transform="translate(19.676 65.934)">
            <g id="Group_1463" data-name="Group 1463" transform="translate(28.475 52.043)">
              <g id="Group_1462" data-name="Group 1462">
                <g id="Group_1461" data-name="Group 1461">
                  <path id="Path_4522" data-name="Path 4522" class="cls-19" d="M340.264,393.275a4.015,4.015,0,0,0-3.7,0l-3.557,2.078a1.154,1.154,0,0,0,0,2.171,4.015,4.015,0,0,0,3.7,0l3.557-2.078c1.016-.647,1.016-1.57,0-2.171Z" transform="translate(-332.25 -392.825)"/>
                </g>
              </g>
            </g>
            <g id="Group_1466" data-name="Group 1466" transform="translate(36.789 47.424)">
              <g id="Group_1465" data-name="Group 1465">
                <g id="Group_1464" data-name="Group 1464">
                  <path id="Path_4523" data-name="Path 4523" class="cls-19" d="M358.264,383.275a4.015,4.015,0,0,0-3.7,0l-3.557,2.079a1.154,1.154,0,0,0,0,2.171,4.015,4.015,0,0,0,3.7,0l3.557-2.079a1.154,1.154,0,0,0,0-2.171Z" transform="translate(-350.25 -382.825)"/>
                </g>
              </g>
            </g>
            <g id="Group_1469" data-name="Group 1469" transform="translate(66.743 3.845)">
              <g id="Group_1468" data-name="Group 1468">
                <g id="Group_1467" data-name="Group 1467">
                  <path id="Path_4524" data-name="Path 4524" class="cls-19" d="M434.314,293.521l-8.083-4.665a3.718,3.718,0,0,0-3.279,0l-7.159,4.157a.993.993,0,0,0,0,1.894l8.083,4.665a3.718,3.718,0,0,0,3.279,0l7.159-4.157a.993.993,0,0,0,0-1.894Z" transform="translate(-415.1 -288.475)"/>
                </g>
              </g>
            </g>
            <g id="Group_1472" data-name="Group 1472">
              <g id="Group_1471" data-name="Group 1471">
                <g id="Group_1470" data-name="Group 1470">
                  <path id="Path_4525" data-name="Path 4525" class="cls-19" d="M341.731,280.635a4.5,4.5,0,0,0-4.065,0L271.431,319.11a1.25,1.25,0,0,0,0,2.356,4.5,4.5,0,0,0,4.065,0l66.235-38.475c1.155-.647,1.155-1.709,0-2.356Z" transform="translate(-270.6 -280.15)"/>
                </g>
              </g>
            </g>
            <g id="Group_1475" data-name="Group 1475" transform="translate(21.385 11.917)">
              <g id="Group_1474" data-name="Group 1474">
                <g id="Group_1473" data-name="Group 1473">
                  <path id="Path_4526" data-name="Path 4526" class="cls-19" d="M388.031,306.435a4.5,4.5,0,0,0-4.065,0L317.731,344.91a1.25,1.25,0,0,0,0,2.356,4.5,4.5,0,0,0,4.065,0l66.235-38.521a1.218,1.218,0,0,0,0-2.309Z" transform="translate(-316.9 -305.95)"/>
                </g>
              </g>
            </g>
            <g id="Group_1478" data-name="Group 1478" transform="translate(6.559 10.854)">
              <g id="Group_1477" data-name="Group 1477">
                <g id="Group_1476" data-name="Group 1476">
                  <path id="Path_4527" data-name="Path 4527" class="cls-19" d="M344.337,304.135a4.5,4.5,0,0,0-4.065,0l-54.641,31.547a1.25,1.25,0,0,0,0,2.356,4.5,4.5,0,0,0,4.065,0l54.641-31.547c1.155-.647,1.109-1.709,0-2.356Z" transform="translate(-284.8 -303.65)"/>
                </g>
              </g>
            </g>
            <g id="Group_1481" data-name="Group 1481" transform="translate(44.803 22.124)">
              <g id="Group_1480" data-name="Group 1480">
                <g id="Group_1479" data-name="Group 1479">
                  <path id="Path_4528" data-name="Path 4528" class="cls-19" d="M411.017,328.535a4.5,4.5,0,0,0-4.065,0l-38.521,22.171a1.25,1.25,0,0,0,0,2.356,4.5,4.5,0,0,0,4.065,0l38.521-22.171c1.155-.647,1.155-1.709,0-2.356Z" transform="translate(-367.6 -328.05)"/>
                </g>
              </g>
            </g>
            <g id="Group_1484" data-name="Group 1484" transform="translate(13.579 15.427)">
              <g id="Group_1483" data-name="Group 1483">
                <g id="Group_1482" data-name="Group 1482">
                  <path id="Path_4529" data-name="Path 4529" class="cls-19" d="M359.26,314.035a4.5,4.5,0,0,0-4.065,0L300.831,345.49a1.25,1.25,0,0,0,0,2.356,4.5,4.5,0,0,0,4.065,0l54.364-31.455c1.155-.647,1.155-1.709,0-2.356Z" transform="translate(-300 -313.55)"/>
                </g>
              </g>
            </g>
            <g id="Group_1487" data-name="Group 1487" transform="translate(89.052 17.228)">
              <g id="Group_1486" data-name="Group 1486">
                <g id="Group_1485" data-name="Group 1485">
                  <path id="Path_4530" data-name="Path 4530" class="cls-19" d="M471.344,317.935a4.4,4.4,0,0,0-4.018,0l-3.095,1.8a1.25,1.25,0,0,0,0,2.356,4.4,4.4,0,0,0,4.018,0l3.095-1.8c1.155-.647,1.155-1.709,0-2.356Z" transform="translate(-463.4 -317.45)"/>
                </g>
              </g>
            </g>
          </g>
          <path id="Path_4531" data-name="Path 4531" class="cls-20" d="M350.55,146.137l-33.117,19.122L304.5,225.72l46.189-26.651a6.547,6.547,0,0,0,2.956-5.127l-.139-46.143C353.506,145.952,352.167,145.213,350.55,146.137Z" transform="translate(-269.166 -141.887)"/>
        </g>
      </g>
      <g id="Layer_1" transform="translate(55.302 8.373)">
        <path id="Path_4532" data-name="Path 4532" class="cls-21" d="M436.076,307.978c-12.379-6-30.392-12.979-40.831-7.39a7.5,7.5,0,0,0-3.279-3.372.277.277,0,0,0,.046-.185.477.477,0,0,0-.185-.369c4.157-3.6-.185-5.358-10.3-4.111a35.846,35.846,0,0,0-13.487-2.032c-5.266.369-7.252,1.57-9.423,3.326-2.217,1.755-6.974,1.247-10.069,3.557-2.032,1.524.139,3.926,2.032,5.45-5.358,3.972-1.386,6.1,9.284,4.757l1.109-.139a16.571,16.571,0,0,0,1.617.369,41.15,41.15,0,0,0,10.023.924,10.45,10.45,0,0,1,2.864,1.617,20.8,20.8,0,0,0-1.016,1.848c-3.279,2.587-11.362,8.083-8.5,10.808,3.51,3.372,16.72,10.623,18.614,11.686,4.573,2.633,36.258-5.081,49.653-18.014C439.447,311.719,438.847,309.317,436.076,307.978Z" transform="translate(-347.731 -228.13)"/>
        <path id="Path_4533" data-name="Path 4533" class="cls-22" d="M461.55,248.01s-18.937,5.219-20.692,7.436-17.275,8.914-18.706,17.829-1.016,30.762-1.016,33.949c0,7.483,25.589,11.455,46.281-4.573,8.129-6.282,10.439-11.131,10.439-15.335C477.947,267.086,475.73,239.373,461.55,248.01Z" transform="translate(-387.2 -204.421)"/>
        <path id="Path_4534" data-name="Path 4534" class="cls-23" d="M484.593,242.851l.139-6.051L463.9,238.37s1.755,9.7,0,11.917c1.339,4.2,8.914,16.166,17.829,12.979S484.916,242.712,484.593,242.851Z" transform="translate(-410.243 -199.261)"/>
        <path id="Path_4535" data-name="Path 4535" class="cls-24" d="M466.427,176.976c-12.24.647-18.06,11.409-13.579,25.542,4.434,14.18,16.3,14.919,21.8,13.256C485.133,212.541,486.427,175.96,466.427,176.976Z" transform="translate(-403.486 -167.058)"/>
        <path id="Path_4536" data-name="Path 4536" class="cls-25" d="M465.149,177.524c-11.039.924-17.459,9.884-12.517,25.311.416-1.986,2.864-1.339,3.972,1.663.693,1.94,2.263,3.88,2.587,1.986.739-4.2,2.587-7.852,4.8-8.914,2.217-1.016,2.771,2.771,10.808,1.109a16.527,16.527,0,0,0,6.79-3.233C484.733,190.873,478.682,176.369,465.149,177.524Z" transform="translate(-403.27 -167.329)"/>
        <path id="Path_4537" data-name="Path 4537" class="cls-26" d="M460.3,271.1c3.741,13.441,26.374,45.912,26.374,45.912a410.527,410.527,0,0,0-7.436-41.108C468.706,281.169,463.348,274.241,460.3,271.1Z" transform="translate(-408.306 -217.719)"/>
        <path id="Path_4538" data-name="Path 4538" class="cls-26" d="M501.3,263.75s4.3,25.034,7.436,41.108c0,0,10.623-23.695-.647-56.258C508.321,251.233,508.321,260.794,501.3,263.75Z" transform="translate(-430.368 -205.611)"/>
        <path id="Path_4539" data-name="Path 4539" class="cls-26" d="M469.015,268.4c-6.559-3.557-6.744-6-6.744-6s-1.894,2.125-2.771,3.279c0,0,2.54,8.914,16.951,12.748,0,0,.508-4.619,2.356-7.252C478.807,271.176,475.574,271.961,469.015,268.4Z" transform="translate(-407.875 -213.037)"/>
        <path id="Path_4540" data-name="Path 4540" class="cls-27" d="M459.5,269.5c2.263,12.1,7.806,27.667,7.806,27.667l4.48-1.339.6,6.189s9.192,12.425,13.857,14.18c0,0-9.238-17.413-13.9-24.988C467.629,283.541,462.318,275,459.5,269.5Z" transform="translate(-407.875 -216.858)"/>
        <path id="Path_4541" data-name="Path 4541" class="cls-26" d="M506.843,248c-.277.6-1.57,3-1.57,3,.046,6.1-3.972,12.471-3.972,12.471,3.095.185,5.035,4.388,5.035,4.388,5.358-8.868,1.755-19.538,1.755-19.538A4.982,4.982,0,0,1,506.843,248Z" transform="translate(-430.368 -205.288)"/>
        <g id="Group_1490" data-name="Group 1490" transform="translate(64.995 28.142)">
          <path id="Path_4542" data-name="Path 4542" class="cls-28" d="M511.307,216.568l-5.081,3.141a1.968,1.968,0,0,0-.508.554.992.992,0,0,0-.139.693c.231,1.109.924,3.557,2.356,2.725l2.864-1.663a2.155,2.155,0,0,0,.693-.739c.6-1.062.6-3.233.508-4.434C511.954,216.476,511.677,216.338,511.307,216.568Z" transform="translate(-497.657 -216.456)"/>
          <path id="Path_4543" data-name="Path 4543" class="cls-28" d="M494.245,226.825l-5.081,2.771a1.51,1.51,0,0,0-.693,1.109c-.046,1.247-.092,3.418.508,3.834.185.139.416.092.693-.046l2.864-1.663c1.432-.831,2.125-4.065,2.356-5.4a.545.545,0,0,0-.139-.554A.414.414,0,0,0,494.245,226.825Z" transform="translate(-488.447 -222.001)"/>
        </g>
        <path id="Path_4544" data-name="Path 4544" class="cls-29" d="M516.323,249.478A8.425,8.425,0,0,0,516,248.6,6.724,6.724,0,0,0,516.323,249.478Z" transform="translate(-438.279 -205.611)"/>
        <path id="Path_4545" data-name="Path 4545" class="cls-27" d="M516.7,250.5c.554,1.848,1.57,7.575,2.032,24.85.6,23.972-1.709,30.577-1.709,30.577,4.342-3.372,7.39-22.54,7.39-22.54l-1.109-4.942,2.633-5.4C525.938,273.086,519.194,256.782,516.7,250.5Z" transform="translate(-438.655 -206.633)"/>
        <g id="Group_1491" data-name="Group 1491" transform="translate(41.786)">
          <ellipse id="Ellipse_71" data-name="Ellipse 71" class="cls-30" cx="20.97" cy="12.101" rx="20.97" ry="12.101" transform="translate(0 12.458)"/>
          <path id="Path_4546" data-name="Path 4546" class="cls-31" d="M474.963,157.409c-3.6-3.095-6.189-1.94-9.561.37s-5.727-2.448-10.3.416c-4.434,2.818-5.219,16.443-5.312,18.2-.139,2.4,1.386,4.85,4.573,6.651,6.1,3.51,15.981,3.51,22.078,0,3.187-1.848,4.711-4.249,4.573-6.651,0-.6-.092-1.062-.231-2.587C480.228,167.986,478.565,160.5,474.963,157.409Z" transform="translate(-444.432 -155.527)"/>
          <path id="Path_4547" data-name="Path 4547" class="cls-32" d="M476.441,199.181c-6.1,3.51-15.981,3.326-22.078-.231-2.078-1.2-3.649-3.926-4.342-5.45,0,0-.231,2.956-.231,3.326-.139,2.4,1.386,4.85,4.573,6.651,6.1,3.51,15.981,3.51,22.078,0,3.187-1.848,4.711-4.249,4.573-6.651a14.7,14.7,0,0,0-.231-2.587A10.089,10.089,0,0,1,476.441,199.181Z" transform="translate(-444.432 -175.961)"/>
        </g>
      </g>
    </g>
  </g>
</svg>
