<svg xmlns="http://www.w3.org/2000/svg" viewBox="0 0 110.89 142.012">
    <defs>
        <style>
            .cls-1,.cls-2,.cls-3{fill:none;stroke-linejoin:round;stroke-miterlimit:10}.cls-1,.cls-2{stroke:#a3b8ca;stroke-width:4px}.cls-2,.cls-3{stroke-linecap:round}.cls-3{stroke:#a391f0;stroke-width:3px}.cls-4,.cls-5,.cls-7{fill:#a3b8ca}.cls-6,.cls-7{stroke:none}
        </style>
    </defs>
    <g id="Non_transparent_icon" transform="translate(-23.702 -2656.852)">
        <g id="noun_Data_Sharing_1652404" data-name="noun_Data Sharing_1652404" transform="translate(25.702 2656.852)">
            <g id="Group_3248" data-name="Group 3248">
                <path id="Rectangle_168" d="M0 0h37.179v25.561H0z" class="cls-1" data-name="Rectangle 168" transform="translate(4.647 102.833)"/>
                <path id="Path_5581" d="M49.474 55.618H3L7.647 44h37.18z" class="cls-1" data-name="Path 5581" transform="translate(-3 84.394)"/>
                <path id="Path_5580" d="M65.532 58.561H37.647A4.661 4.661 0 0 1 33 53.913V37.647A4.661 4.661 0 0 1 37.647 33h27.885a4.661 4.661 0 0 1 4.647 4.647v16.266a4.661 4.661 0 0 1-4.647 4.648z" class="cls-1" data-name="Path 5580" transform="translate(36.711 69.833)"/>
                <path id="Line_77" d="M0 0v9.295" class="cls-2" data-name="Line 77" transform="translate(88.301 128.394)"/>
                <path id="Line_78" d="M0 0h18.59" class="cls-2" data-name="Line 78" transform="translate(79.006 137.688)"/>
                <path id="Path_5582" d="M28 24h30.208v11.618" class="cls-3" data-name="Path 5582" transform="translate(30.092 57.92)"/>
                <path id="Path_5583" d="M11 35.618V24h30.208" class="cls-3" data-name="Path 5583" transform="translate(7.59 57.92)"/>
                <path id="Line_79" d="M0 14.132V0" class="cls-3" data-name="Line 79" transform="translate(53.445 63.14)"/>
                <circle id="Ellipse_111" cx="4.647" cy="4.647" r="4.647" class="cls-3" data-name="Ellipse 111" transform="translate(48.798 77.272)"/>
                <g id="Group_3249" data-name="Group 3249" transform="translate(16.412)">
                    <path id="Subtraction_37" d="M69.94 58.863H3.681L0 14.723h3.683V7.361h3.68V0h22.084l3.681 7.361h36.809v7.362h3.68L69.94 58.862zM4 18.4l3.069 36.811h59.479L69.616 18.4zm3.362-7.36v3.681h58.892v-3.678h-35.4l-1.018-2.035-2.664-5.327h-16.13v7.361z" class="cls-4" data-name="Subtraction 37"/>
                </g>
            </g>
        </g>
        <g id="noun_Privacy_1223482" transform="translate(60.938 2680.521)">
            <g id="Group_3250" data-name="Group 3250">
                <g id="Path_5584" class="cls-5" data-name="Path 5584">
                    <path d="M34.604 997.206c-.338 0-.66-.16-.862-.43l-3.5-4.194a21.086 21.086 0 0 1-6.022.867c-4.028 0-7.888-1.125-11.473-3.343-2.943-1.82-4.984-3.917-6.203-5.17-.18-.185-.336-.345-.474-.483-.203-.2-.32-.479-.32-.764 0-.286.117-.565.32-.766.134-.134.287-.29.463-.47 1.558-1.599 4.764-4.887 9.512-6.866l-3-3.596a1.074 1.074 0 1 1 1.652-1.38l3.514 4.21a21.097 21.097 0 0 1 6.01-.88c4.03 0 7.892 1.124 11.479 3.34 2.944 1.82 4.983 3.914 6.201 5.165.179.183.333.342.47.478.202.2.319.479.319.765 0 .285-.117.564-.32.765-.136.135-.29.293-.468.477-1.559 1.6-4.766 4.892-9.507 6.872l2.999 3.593a1.075 1.075 0 1 1-.79 1.81zM8.343 983.695c2.493 2.551 7.56 7.601 15.877 7.601a19.4 19.4 0 0 0 4.508-.528l-1.262-1.505a6.43 6.43 0 0 1-3.246.88c-3.563 0-6.461-2.892-6.461-6.448a6.41 6.41 0 0 1 1.563-4.189l-1.845-2.205c-4.44 1.66-7.458 4.679-9.134 6.394zm20.775 4.189l1.845 2.204c4.436-1.659 7.454-4.674 9.135-6.393-2.49-2.548-7.555-7.601-15.878-7.601-1.525 0-3.04.177-4.508.528l1.262 1.505a6.43 6.43 0 0 1 3.246-.88c3.563 0 6.461 2.892 6.461 6.448a6.41 6.41 0 0 1-1.563 4.189zm-8.397-6.696a4.302 4.302 0 0 0-.806 2.507c0 1.152.447 2.232 1.257 3.04a4.284 4.284 0 0 0 3.048 1.255c.63 0 1.258-.141 1.834-.41l-5.333-6.392zm1.666-1.377l5.333 6.39a4.303 4.303 0 0 0 .805-2.506 4.265 4.265 0 0 0-1.257-3.04 4.284 4.284 0 0 0-3.048-1.255 4.33 4.33 0 0 0-1.833.41z" class="cls-6" transform="translate(-6 -970.455)"/>
                    <path d="M34.604 996.956a.828.828 0 0 0 .602-1.394l-3.222-3.861c5.398-2.155 8.809-6.026 10.21-7.425a.826.826 0 0 0 0-1.175c-1.985-1.98-7.988-8.91-17.974-8.91-2.232 0-4.261.357-6.095.917l-3.623-4.339a.829.829 0 0 0-1.42.214.825.825 0 0 0 .152.845l3.222 3.861c-5.398 2.151-8.808 6.013-10.21 7.412a.826.826 0 0 0 0 1.175c1.985 1.98 7.988 8.923 17.974 8.923 2.237 0 4.271-.34 6.108-.904l3.61 4.326a.829.829 0 0 0 .666.335m-17.048-19.95l2.096 2.505a6.157 6.157 0 0 0-1.643 4.184c0 3.413 2.79 6.198 6.211 6.198a6.169 6.169 0 0 0 3.3-.955l1.656 1.975a19.521 19.521 0 0 1-4.956.633c-8.618 0-13.809-5.375-16.227-7.851 1.713-1.754 4.823-4.968 9.563-6.689m6.664.49a6.169 6.169 0 0 0-3.3.956l-1.656-1.975a19.522 19.522 0 0 1 4.956-.633c8.625 0 13.812 5.378 16.227 7.851-1.714 1.755-4.828 4.968-9.563 6.689l-2.096-2.505a6.158 6.158 0 0 0 1.643-4.184c0-3.414-2.79-6.198-6.21-6.198m-3.508 3.292l5.733 6.87a4.567 4.567 0 0 1-2.226.581 4.538 4.538 0 0 1-4.555-4.545c0-1.11.394-2.12 1.048-2.905m3.507-1.64a4.538 4.538 0 0 1 4.555 4.545 4.52 4.52 0 0 1-1.048 2.906l-5.733-6.87a4.567 4.567 0 0 1 2.226-.581m10.384 18.306c-.414 0-.808-.196-1.058-.525l-3.391-4.063c-1.908.552-3.903.831-5.935.831-4.075 0-7.98-1.137-11.604-3.38-2.97-1.837-5.024-3.947-6.25-5.208-.18-.185-.336-.345-.473-.481a1.333 1.333 0 0 1-.393-.941c0-.352.144-.696.395-.944.132-.132.283-.287.459-.467 1.535-1.575 4.66-4.78 9.283-6.79l-2.783-3.335a1.32 1.32 0 0 1-.238-1.351 1.323 1.323 0 0 1 1.236-.847c.406 0 .784.181 1.038.498l3.408 4.082c1.94-.56 3.93-.844 5.922-.844 4.078 0 7.984 1.137 11.611 3.378 2.97 1.836 5.023 3.943 6.25 5.202.177.183.33.34.466.476.25.246.393.59.393.942s-.144.695-.395.943c-.133.133-.286.29-.464.473-1.536 1.577-4.661 4.785-9.278 6.796l2.778 3.33a1.324 1.324 0 1 1-.977 2.225zm-25.912-13.76c2.527 2.574 7.501 7.35 15.528 7.35 1.37 0 2.73-.145 4.054-.431l-.866-1.033a6.676 6.676 0 0 1-3.188.811c-3.7 0-6.711-3.005-6.711-6.698 0-1.527.525-2.998 1.487-4.189l-1.597-1.908c-4.153 1.597-7.035 4.394-8.707 6.097zm20.752 4.188l1.597 1.908c4.149-1.597 7.032-4.391 8.707-6.097-2.523-2.572-7.495-7.351-15.528-7.351-1.369 0-2.728.145-4.053.431l.865 1.033a6.676 6.676 0 0 1 3.188-.811c3.7 0 6.711 3.005 6.711 6.698a6.653 6.653 0 0 1-1.487 4.189zm-8.7-6.277a4.056 4.056 0 0 0-.579 2.088c0 1.085.42 2.102 1.184 2.864a4.036 4.036 0 0 0 2.871 1.181c.485 0 .969-.089 1.425-.26l-4.9-5.873zm2.051-1.697l4.901 5.873a4.056 4.056 0 0 0 .58-2.088c0-1.085-.421-2.102-1.185-2.864a4.036 4.036 0 0 0-2.87-1.181c-.486 0-.97.089-1.426.26z" class="cls-7" transform="translate(-6 -970.455)"/>
                </g>
            </g>
        </g>
    </g>
</svg>
