<svg xmlns="http://www.w3.org/2000/svg" viewBox="0 0 21.512 21.512"><defs><style>.a{fill:#e2c7ff;}</style></defs><path class="a" d="M19.925,0H1.591A1.566,1.566,0,0,0,0,1.541V19.97a1.566,1.566,0,0,0,1.589,1.542H19.925a1.566,1.566,0,0,0,1.588-1.542V1.541A1.565,1.565,0,0,0,19.925,0ZM6.524,18.007H3.273V8.295h3.25ZM4.9,6.968H4.877a1.683,1.683,0,1,1,.042-3.356A1.684,1.684,0,1,1,4.9,6.968ZM18.24,18.007H14.991v-5.2c0-1.306-.471-2.2-1.646-2.2A1.775,1.775,0,0,0,11.678,11.8a2.171,2.171,0,0,0-.108.787v5.425H8.321s.043-8.8,0-9.712H11.57V9.671A3.227,3.227,0,0,1,14.5,8.066c2.139,0,3.742,1.387,3.742,4.372v5.569ZM11.549,9.7l.021-.031V9.7Z" transform="translate(-0.002 0)"/></svg>