<svg xmlns="http://www.w3.org/2000/svg" viewBox="0 0 33.416 33.416">
  <defs>
    <style>
      .cls-1 {
        fill: #fff;
      }
    </style>
  </defs>
  <path id="reddit_icon" class="cls-1" d="M19.824,21.37a.3.3,0,0,1,0,.426,4.239,4.239,0,0,1-3.106.957l-.011,0-.011,0a4.236,4.236,0,0,1-3.106-.958.3.3,0,0,1,0-.425.3.3,0,0,1,.427,0,3.693,3.693,0,0,0,2.679.781l.011,0,.011,0A3.7,3.7,0,0,0,19.4,21.37.3.3,0,0,1,19.824,21.37ZM15.035,18a1.284,1.284,0,1,0-1.284,1.278A1.283,1.283,0,0,0,15.035,18Zm18.382-1.295A16.708,16.708,0,1,1,16.708,0,16.709,16.709,0,0,1,33.416,16.708Zm-6.962-.18A2.155,2.155,0,0,0,22.8,14.986a11.129,11.129,0,0,0-5.661-1.662l1.2-3.793,3.262.764,0,.047a1.77,1.77,0,1,0,.124-.638L18.211,8.88a.3.3,0,0,0-.358.2l-1.344,4.23a11.261,11.261,0,0,0-5.929,1.644,2.146,2.146,0,1,0-2.549,3.417,3.869,3.869,0,0,0-.07.7c0,3.176,3.906,5.76,8.706,5.76s8.706-2.584,8.706-5.76a3.821,3.821,0,0,0-.061-.657,2.14,2.14,0,0,0,1.142-1.884Zm-6.784.2A1.279,1.279,0,1,0,20.955,18,1.282,1.282,0,0,0,19.671,16.725Z"/>
</svg>
