<svg xmlns="http://www.w3.org/2000/svg" viewBox="0 0 187.33 137.548">
  <defs>
    <style>
      .cls-1 {
        opacity: 0.2;
      }

      .cls-2 {
        fill: #d7d7d7;
      }

      .cls-3 {
        fill: #f7f7f7;
      }

      .cls-4 {
        fill: #ec533e;
      }

      .cls-5 {
        fill: #fff;
      }

      .cls-6 {
        fill: #ed1c24;
      }

      .cls-7 {
        fill: #e6a570;
      }

      .cls-8 {
        fill: #537b4f;
      }

      .cls-9 {
        opacity: 0.7;
      }
    </style>
  </defs>
  <g id="Registry_process" transform="translate(-650.385 -1799.726)">
    <g id="Group_1512" data-name="Group 1512" class="cls-1" transform="translate(-164.415 -378.933)">
      <g id="login_popup" transform="translate(814.8 2204.659)">
        <g id="Group_1341" data-name="Group 1341" transform="translate(0 3.388)">
          <g id="Group_1337" data-name="Group 1337" transform="translate(0 0)">
            <g id="Group_1334" data-name="Group 1334">
              <path id="Path_4197" data-name="Path 4197" class="cls-2" d="M315.63,168.528l-111.8,64.531-75.526-43.6L240.1,124.9Z" transform="translate(-128.3 -124.9)"/>
              <path id="Path_4198" data-name="Path 4198" class="cls-2" d="M252.632,132.155l-111.8,64.531L128.3,189.463,240.1,124.9Z" transform="translate(-128.3 -124.9)"/>
              <g id="Group_1333" data-name="Group 1333" transform="translate(10.244 54.28)">
                <path id="Path_4199" data-name="Path 4199" class="cls-2" d="M165.64,320.377a1.33,1.33,0,0,1,0,2.525,4.808,4.808,0,0,1-4.379,0,1.33,1.33,0,0,1,0-2.525A4.808,4.808,0,0,1,165.64,320.377Z" transform="translate(-160.35 -311.82)"/>
                <ellipse id="Ellipse_67" data-name="Ellipse 67" class="cls-2" cx="3.1" cy="1.79" rx="3.1" ry="1.79" transform="translate(6.952 3.987)"/>
                <path id="Path_4200" data-name="Path 4200" class="cls-2" d="M209.14,295.228a1.33,1.33,0,0,1,0,2.525,4.808,4.808,0,0,1-4.379,0,1.33,1.33,0,0,1,0-2.525A5.013,5.013,0,0,1,209.14,295.228Z" transform="translate(-189.946 -294.725)"/>
              </g>
            </g>
            <path id="Path_4201" data-name="Path 4201" class="cls-2" d="M462.256,298.315l-33.624,19.433a9.276,9.276,0,0,1-8.406,0h0c-2.3-1.342-2.3-3.516,0-4.858l33.624-19.433a9.276,9.276,0,0,1,8.406,0h0C464.589,294.8,464.589,296.973,462.256,298.315Z" transform="translate(-325.746 -238.898)"/>
            <g id="Group_1335" data-name="Group 1335" transform="translate(64.084 36.988)">
              <path id="Path_4202" data-name="Path 4202" class="cls-2" d="M374.218,247.457,340.594,266.89a10.767,10.767,0,0,1-9.78,0c-2.685-1.566-2.685-4.091,0-5.657L364.438,241.8a10.767,10.767,0,0,1,9.78,0C376.935,243.366,376.935,245.891,374.218,247.457Zm-42.03,14.575c-1.95,1.119-1.95,2.941,0,4.059a7.786,7.786,0,0,0,7.032,0l33.624-19.433c1.95-1.119,1.95-2.941,0-4.059a7.786,7.786,0,0,0-7.032,0Z" transform="translate(-328.8 -240.625)"/>
            </g>
            <g id="Group_1336" data-name="Group 1336" transform="translate(75.782 43.764)">
              <path id="Path_4203" data-name="Path 4203" class="cls-2" d="M410.818,268.625l-33.624,19.433a10.767,10.767,0,0,1-9.78,0c-2.685-1.566-2.685-4.091,0-5.657L401.07,263a10.767,10.767,0,0,1,9.78,0C413.535,264.534,413.535,267.091,410.818,268.625ZM368.788,283.2c-1.95,1.119-1.95,2.941,0,4.059a7.786,7.786,0,0,0,7.032,0l33.624-19.433c1.95-1.119,1.95-2.941,0-4.059a7.786,7.786,0,0,0-7.032,0Z" transform="translate(-365.4 -261.825)"/>
            </g>
          </g>
          <g id="Group_1338" data-name="Group 1338" transform="translate(77.172 44.587)">
            <path id="Path_4204" data-name="Path 4204" class="cls-2" d="M381.752,281.551l-10,5.785a1.9,1.9,0,0,1-1.662,0h0a.51.51,0,0,1,0-.959l10-5.785a1.9,1.9,0,0,1,1.662,0h0C382.2,280.879,382.2,281.295,381.752,281.551Z" transform="translate(-369.75 -275.286)"/>
            <path id="Path_4205" data-name="Path 4205" class="cls-2" d="M421.15,265.519l-4.6,2.653a1.9,1.9,0,0,1-1.662,0h0a.51.51,0,0,1,0-.959l4.6-2.621a1.9,1.9,0,0,1,1.662,0h0A.488.488,0,0,1,421.15,265.519Z" transform="translate(-400.231 -264.4)"/>
          </g>
          <g id="Group_1339" data-name="Group 1339" transform="translate(84.771 48.95)">
            <path id="Path_4206" data-name="Path 4206" class="cls-2" d="M395.85,327.641c.543.32.543.8,0,1.119a2.037,2.037,0,0,1-1.918,0c-.543-.32-.543-.8,0-1.119A2.238,2.238,0,0,1,395.85,327.641Z" transform="translate(-393.525 -311.644)"/>
            <path id="Path_4207" data-name="Path 4207" class="cls-2" d="M410.05,319.39c.543.32.543.8,0,1.119a2.038,2.038,0,0,1-1.918,0c-.543-.32-.543-.8,0-1.119A2.037,2.037,0,0,1,410.05,319.39Z" transform="translate(-403.186 -306.014)"/>
            <path id="Path_4208" data-name="Path 4208" class="cls-2" d="M424.25,311.19c.543.32.543.8,0,1.119a2.038,2.038,0,0,1-1.918,0c-.543-.32-.543-.8,0-1.119A2.037,2.037,0,0,1,424.25,311.19Z" transform="translate(-412.848 -300.434)"/>
            <path id="Path_4209" data-name="Path 4209" class="cls-2" d="M438.55,302.99c.543.32.543.8,0,1.119a2.037,2.037,0,0,1-1.918,0c-.543-.32-.543-.8,0-1.119A2.037,2.037,0,0,1,438.55,302.99Z" transform="translate(-422.577 -294.855)"/>
            <path id="Path_4210" data-name="Path 4210" class="cls-2" d="M452.75,294.741c.543.32.543.8,0,1.119a2.038,2.038,0,0,1-1.918,0c-.543-.32-.543-.8,0-1.119A2.238,2.238,0,0,1,452.75,294.741Z" transform="translate(-432.239 -289.259)"/>
            <path id="Path_4211" data-name="Path 4211" class="cls-2" d="M467.05,286.49c.543.32.543.8,0,1.119a2.038,2.038,0,0,1-1.918,0c-.543-.32-.543-.8,0-1.119A2.037,2.037,0,0,1,467.05,286.49Z" transform="translate(-441.968 -283.629)"/>
            <path id="Path_4212" data-name="Path 4212" class="cls-2" d="M481.25,278.29c.543.32.543.8,0,1.119a2.038,2.038,0,0,1-1.918,0c-.543-.32-.543-.8,0-1.119A2.037,2.037,0,0,1,481.25,278.29Z" transform="translate(-451.629 -278.05)"/>
          </g>
          <g id="Group_1340" data-name="Group 1340" transform="translate(104.1 60.153)">
            <path id="Path_4213" data-name="Path 4213" class="cls-2" d="M458.475,347.792,454,345.2l1.247-.7,3.42,1.982,2.046-1.183,1.087.607Z" transform="translate(-454 -334.464)"/>
            <path id="Path_4214" data-name="Path 4214" class="cls-2" d="M474,338.2a2.929,2.929,0,0,1-1.087.384,7.376,7.376,0,0,1-1.183.1,4.351,4.351,0,0,1-1.151-.16,3.085,3.085,0,0,1-.991-.416,2.516,2.516,0,0,1-.7-.575,1.531,1.531,0,0,1-.288-.671,1.084,1.084,0,0,1,.192-.671,1.8,1.8,0,0,1,.671-.607,2.929,2.929,0,0,1,1.087-.384,7.376,7.376,0,0,1,1.183-.1,7.033,7.033,0,0,1,1.183.16,4,4,0,0,1,.991.384,2.516,2.516,0,0,1,.7.575,1.531,1.531,0,0,1,.288.671.913.913,0,0,1-.192.671A1.718,1.718,0,0,1,474,338.2Zm-3.164-.8a3.228,3.228,0,0,0,.479.224,3.345,3.345,0,0,0,.543.128,1.548,1.548,0,0,0,.543,0,2.4,2.4,0,0,0,.511-.16.611.611,0,0,0,.288-.288.544.544,0,0,0,0-.32.974.974,0,0,0-.224-.32,1.992,1.992,0,0,0-.384-.288,2.477,2.477,0,0,0-.511-.224,3.349,3.349,0,0,0-.543-.128,3.086,3.086,0,0,0-.543,0,2.4,2.4,0,0,0-.511.16.611.611,0,0,0-.288.288.544.544,0,0,0,0,.32.654.654,0,0,0,.224.32A1.216,1.216,0,0,0,470.837,337.4Z" transform="translate(-463.934 -328.068)"/>
            <path id="Path_4215" data-name="Path 4215" class="cls-2" d="M488.813,329.1a1.078,1.078,0,0,1-.575.8,3.029,3.029,0,0,1-.991.352,6.99,6.99,0,0,1-1.151.1,5.013,5.013,0,0,1-1.183-.16,3.822,3.822,0,0,1-1.055-.415,2.246,2.246,0,0,1-.7-.607,1.176,1.176,0,0,1-.256-.671,1.126,1.126,0,0,1,.224-.671,2.506,2.506,0,0,1,.671-.607c.192-.1.384-.192.607-.288a5.118,5.118,0,0,1,.671-.16,3.9,3.9,0,0,1,1.406,0l-.224.927a2.069,2.069,0,0,0-.767-.032,1.677,1.677,0,0,0-.639.192.5.5,0,0,0-.256.256.311.311,0,0,0-.032.288.852.852,0,0,0,.192.32,1.562,1.562,0,0,0,.416.32,1.957,1.957,0,0,0,.543.224,1.773,1.773,0,0,0,.543.1,3.1,3.1,0,0,0,.543-.032,1.849,1.849,0,0,0,.448-.16.767.767,0,0,0,.32-.32.61.61,0,0,0,.064-.416l-.8.447-.895-.511,1.854-1.055,2.4,1.374-1.023.575Z" transform="translate(-473.663 -322.353)"/>
            <path id="Path_4216" data-name="Path 4216" class="cls-2" d="M498.075,324.892,493.6,322.3l1.246-.7,4.475,2.589Z" transform="translate(-480.943 -318.883)"/>
            <path id="Path_4217" data-name="Path 4217" class="cls-2" d="M503.316,315.977l2.205,1.279-1.247.7-4.475-2.589.959-.543,4.091.288-2.269-1.31,1.246-.7,4.475,2.589-.991.575Z" transform="translate(-485.161 -313.1)"/>
          </g>
        </g>
        <g id="Group_1350" data-name="Group 1350" transform="translate(0 0)">
          <g id="Group_1346" data-name="Group 1346">
            <g id="Group_1343" data-name="Group 1343">
              <path id="Path_4218" data-name="Path 4218" class="cls-3" d="M315.63,157.928l-111.8,64.531-75.526-43.6L240.1,114.3Z" transform="translate(-128.3 -114.3)"/>
              <path id="Path_4219" data-name="Path 4219" class="cls-4" d="M252.632,121.555l-111.8,64.563L128.3,178.863,240.1,114.3Z" transform="translate(-128.3 -114.3)"/>
              <g id="Group_1342" data-name="Group 1342" transform="translate(10.244 54.272)">
                <path id="Path_4220" data-name="Path 4220" class="cls-5" d="M165.64,309.777a1.33,1.33,0,0,1,0,2.525,4.808,4.808,0,0,1-4.379,0,1.33,1.33,0,0,1,0-2.525A4.808,4.808,0,0,1,165.64,309.777Z" transform="translate(-160.35 -301.212)"/>
                <ellipse id="Ellipse_68" data-name="Ellipse 68" class="cls-5" cx="3.1" cy="1.79" rx="3.1" ry="1.79" transform="translate(6.952 4.027)"/>
                <ellipse id="Ellipse_69" data-name="Ellipse 69" class="cls-5" cx="3.1" cy="1.79" rx="3.1" ry="1.79" transform="translate(13.919)"/>
              </g>
            </g>
            <g id="Group_1344" data-name="Group 1344" transform="translate(64.084 36.988)">
              <path id="Path_4222" data-name="Path 4222" class="cls-6" d="M374.218,236.857,340.594,256.29a10.767,10.767,0,0,1-9.78,0c-2.685-1.566-2.685-4.091,0-5.657L364.438,231.2a10.767,10.767,0,0,1,9.78,0C376.935,232.766,376.935,235.291,374.218,236.857Zm-42.03,14.575c-1.95,1.119-1.95,2.941,0,4.059a7.786,7.786,0,0,0,7.032,0l33.624-19.433c1.95-1.119,1.95-2.941,0-4.059a7.786,7.786,0,0,0-7.032,0Z" transform="translate(-328.8 -230.025)"/>
            </g>
            <g id="Group_1345" data-name="Group 1345" transform="translate(75.782 43.764)">
              <path id="Path_4223" data-name="Path 4223" class="cls-7" d="M410.818,258.057,377.194,277.49a10.767,10.767,0,0,1-9.78,0c-2.685-1.566-2.685-4.091,0-5.657L401.07,252.4a10.767,10.767,0,0,1,9.78,0C413.535,253.966,413.535,256.491,410.818,258.057ZM368.788,272.6c-1.95,1.119-1.95,2.94,0,4.059a7.786,7.786,0,0,0,7.032,0l33.624-19.433c1.95-1.119,1.95-2.941,0-4.059a7.786,7.786,0,0,0-7.032,0Z" transform="translate(-365.4 -251.225)"/>
            </g>
          </g>
          <g id="Group_1347" data-name="Group 1347" transform="translate(77.172 44.587)">
            <path id="Path_4224" data-name="Path 4224" class="cls-6" d="M381.752,270.983l-10,5.753a1.9,1.9,0,0,1-1.662,0h0a.51.51,0,0,1,0-.959l10-5.785a1.9,1.9,0,0,1,1.662,0h0A.533.533,0,0,1,381.752,270.983Z" transform="translate(-369.75 -264.686)"/>
            <path id="Path_4225" data-name="Path 4225" class="cls-6" d="M421.15,254.951l-4.6,2.653a1.9,1.9,0,0,1-1.662,0h0a.51.51,0,0,1,0-.959l4.6-2.653a1.9,1.9,0,0,1,1.662,0h0C421.6,254.247,421.6,254.663,421.15,254.951Z" transform="translate(-400.231 -253.8)"/>
          </g>
          <g id="Group_1348" data-name="Group 1348" transform="translate(84.771 48.966)">
            <path id="Path_4226" data-name="Path 4226" class="cls-8" d="M395.85,317.041c.543.32.543.8,0,1.119a2.038,2.038,0,0,1-1.918,0c-.543-.32-.543-.8,0-1.119A2.238,2.238,0,0,1,395.85,317.041Z" transform="translate(-393.525 -301.06)"/>
            <path id="Path_4227" data-name="Path 4227" class="cls-8" d="M410.05,308.841c.543.32.543.8,0,1.119a2.037,2.037,0,0,1-1.918,0c-.543-.32-.543-.8,0-1.119A2.239,2.239,0,0,1,410.05,308.841Z" transform="translate(-403.186 -295.481)"/>
            <path id="Path_4228" data-name="Path 4228" class="cls-8" d="M424.25,300.59c.543.32.543.8,0,1.119a2.038,2.038,0,0,1-1.918,0c-.543-.32-.543-.8,0-1.119A2.037,2.037,0,0,1,424.25,300.59Z" transform="translate(-412.848 -289.85)"/>
            <path id="Path_4229" data-name="Path 4229" class="cls-8" d="M438.55,292.39c.543.32.543.8,0,1.119a2.038,2.038,0,0,1-1.918,0c-.543-.32-.543-.8,0-1.119A2.038,2.038,0,0,1,438.55,292.39Z" transform="translate(-422.577 -284.271)"/>
            <path id="Path_4230" data-name="Path 4230" class="cls-8" d="M452.75,284.141c.543.32.543.8,0,1.119a2.038,2.038,0,0,1-1.918,0c-.543-.32-.543-.8,0-1.119A2.238,2.238,0,0,1,452.75,284.141Z" transform="translate(-432.239 -278.675)"/>
            <path id="Path_4231" data-name="Path 4231" class="cls-8" d="M467.05,275.941c.543.32.543.8,0,1.119a2.038,2.038,0,0,1-1.918,0c-.543-.32-.543-.8,0-1.119A2.239,2.239,0,0,1,467.05,275.941Z" transform="translate(-441.968 -273.096)"/>
            <ellipse id="Ellipse_70" data-name="Ellipse 70" class="cls-8" cx="1.342" cy="0.767" rx="1.342" ry="0.767" transform="translate(27.32)"/>
          </g>
        </g>
      </g>
    </g>
    <g id="Group_1511" data-name="Group 1511" transform="translate(-164.415 -391.933)">
      <g id="login_popup-2" data-name="login_popup" class="cls-9" transform="translate(814.8 2204.659)">
        <g id="Group_1341-2" data-name="Group 1341" transform="translate(0 3.388)">
          <g id="Group_1337-2" data-name="Group 1337" transform="translate(0 0)">
            <g id="Group_1334-2" data-name="Group 1334">
              <path id="Path_4197-2" data-name="Path 4197" class="cls-2" d="M315.63,168.528l-111.8,64.531-75.526-43.6L240.1,124.9Z" transform="translate(-128.3 -124.9)"/>
              <path id="Path_4198-2" data-name="Path 4198" class="cls-2" d="M252.632,132.155l-111.8,64.531L128.3,189.463,240.1,124.9Z" transform="translate(-128.3 -124.9)"/>
              <g id="Group_1333-2" data-name="Group 1333" transform="translate(10.244 54.28)">
                <path id="Path_4199-2" data-name="Path 4199" class="cls-2" d="M165.64,320.377a1.33,1.33,0,0,1,0,2.525,4.808,4.808,0,0,1-4.379,0,1.33,1.33,0,0,1,0-2.525A4.808,4.808,0,0,1,165.64,320.377Z" transform="translate(-160.35 -311.82)"/>
                <ellipse id="Ellipse_67-2" data-name="Ellipse 67" class="cls-2" cx="3.1" cy="1.79" rx="3.1" ry="1.79" transform="translate(6.952 3.987)"/>
                <path id="Path_4200-2" data-name="Path 4200" class="cls-2" d="M209.14,295.228a1.33,1.33,0,0,1,0,2.525,4.808,4.808,0,0,1-4.379,0,1.33,1.33,0,0,1,0-2.525A5.013,5.013,0,0,1,209.14,295.228Z" transform="translate(-189.946 -294.725)"/>
              </g>
            </g>
            <path id="Path_4201-2" data-name="Path 4201" class="cls-2" d="M462.256,298.315l-33.624,19.433a9.276,9.276,0,0,1-8.406,0h0c-2.3-1.342-2.3-3.516,0-4.858l33.624-19.433a9.276,9.276,0,0,1,8.406,0h0C464.589,294.8,464.589,296.973,462.256,298.315Z" transform="translate(-325.746 -238.898)"/>
            <g id="Group_1335-2" data-name="Group 1335" transform="translate(64.084 36.988)">
              <path id="Path_4202-2" data-name="Path 4202" class="cls-2" d="M374.218,247.457,340.594,266.89a10.767,10.767,0,0,1-9.78,0c-2.685-1.566-2.685-4.091,0-5.657L364.438,241.8a10.767,10.767,0,0,1,9.78,0C376.935,243.366,376.935,245.891,374.218,247.457Zm-42.03,14.575c-1.95,1.119-1.95,2.941,0,4.059a7.786,7.786,0,0,0,7.032,0l33.624-19.433c1.95-1.119,1.95-2.941,0-4.059a7.786,7.786,0,0,0-7.032,0Z" transform="translate(-328.8 -240.625)"/>
            </g>
            <g id="Group_1336-2" data-name="Group 1336" transform="translate(75.782 43.764)">
              <path id="Path_4203-2" data-name="Path 4203" class="cls-2" d="M410.818,268.625l-33.624,19.433a10.767,10.767,0,0,1-9.78,0c-2.685-1.566-2.685-4.091,0-5.657L401.07,263a10.767,10.767,0,0,1,9.78,0C413.535,264.534,413.535,267.091,410.818,268.625ZM368.788,283.2c-1.95,1.119-1.95,2.941,0,4.059a7.786,7.786,0,0,0,7.032,0l33.624-19.433c1.95-1.119,1.95-2.941,0-4.059a7.786,7.786,0,0,0-7.032,0Z" transform="translate(-365.4 -261.825)"/>
            </g>
          </g>
          <g id="Group_1338-2" data-name="Group 1338" transform="translate(77.172 44.587)">
            <path id="Path_4204-2" data-name="Path 4204" class="cls-2" d="M381.752,281.551l-10,5.785a1.9,1.9,0,0,1-1.662,0h0a.51.51,0,0,1,0-.959l10-5.785a1.9,1.9,0,0,1,1.662,0h0C382.2,280.879,382.2,281.295,381.752,281.551Z" transform="translate(-369.75 -275.286)"/>
            <path id="Path_4205-2" data-name="Path 4205" class="cls-2" d="M421.15,265.519l-4.6,2.653a1.9,1.9,0,0,1-1.662,0h0a.51.51,0,0,1,0-.959l4.6-2.621a1.9,1.9,0,0,1,1.662,0h0A.488.488,0,0,1,421.15,265.519Z" transform="translate(-400.231 -264.4)"/>
          </g>
          <g id="Group_1339-2" data-name="Group 1339" transform="translate(84.771 48.95)">
            <path id="Path_4206-2" data-name="Path 4206" class="cls-2" d="M395.85,327.641c.543.32.543.8,0,1.119a2.037,2.037,0,0,1-1.918,0c-.543-.32-.543-.8,0-1.119A2.238,2.238,0,0,1,395.85,327.641Z" transform="translate(-393.525 -311.644)"/>
            <path id="Path_4207-2" data-name="Path 4207" class="cls-2" d="M410.05,319.39c.543.32.543.8,0,1.119a2.038,2.038,0,0,1-1.918,0c-.543-.32-.543-.8,0-1.119A2.037,2.037,0,0,1,410.05,319.39Z" transform="translate(-403.186 -306.014)"/>
            <path id="Path_4208-2" data-name="Path 4208" class="cls-2" d="M424.25,311.19c.543.32.543.8,0,1.119a2.038,2.038,0,0,1-1.918,0c-.543-.32-.543-.8,0-1.119A2.037,2.037,0,0,1,424.25,311.19Z" transform="translate(-412.848 -300.434)"/>
            <path id="Path_4209-2" data-name="Path 4209" class="cls-2" d="M438.55,302.99c.543.32.543.8,0,1.119a2.037,2.037,0,0,1-1.918,0c-.543-.32-.543-.8,0-1.119A2.037,2.037,0,0,1,438.55,302.99Z" transform="translate(-422.577 -294.855)"/>
            <path id="Path_4210-2" data-name="Path 4210" class="cls-2" d="M452.75,294.741c.543.32.543.8,0,1.119a2.038,2.038,0,0,1-1.918,0c-.543-.32-.543-.8,0-1.119A2.238,2.238,0,0,1,452.75,294.741Z" transform="translate(-432.239 -289.259)"/>
            <path id="Path_4211-2" data-name="Path 4211" class="cls-2" d="M467.05,286.49c.543.32.543.8,0,1.119a2.038,2.038,0,0,1-1.918,0c-.543-.32-.543-.8,0-1.119A2.037,2.037,0,0,1,467.05,286.49Z" transform="translate(-441.968 -283.629)"/>
            <path id="Path_4212-2" data-name="Path 4212" class="cls-2" d="M481.25,278.29c.543.32.543.8,0,1.119a2.038,2.038,0,0,1-1.918,0c-.543-.32-.543-.8,0-1.119A2.037,2.037,0,0,1,481.25,278.29Z" transform="translate(-451.629 -278.05)"/>
          </g>
          <g id="Group_1340-2" data-name="Group 1340" transform="translate(104.1 60.153)">
            <path id="Path_4213-2" data-name="Path 4213" class="cls-2" d="M458.475,347.792,454,345.2l1.247-.7,3.42,1.982,2.046-1.183,1.087.607Z" transform="translate(-454 -334.464)"/>
            <path id="Path_4214-2" data-name="Path 4214" class="cls-2" d="M474,338.2a2.929,2.929,0,0,1-1.087.384,7.376,7.376,0,0,1-1.183.1,4.351,4.351,0,0,1-1.151-.16,3.085,3.085,0,0,1-.991-.416,2.516,2.516,0,0,1-.7-.575,1.531,1.531,0,0,1-.288-.671,1.084,1.084,0,0,1,.192-.671,1.8,1.8,0,0,1,.671-.607,2.929,2.929,0,0,1,1.087-.384,7.376,7.376,0,0,1,1.183-.1,7.033,7.033,0,0,1,1.183.16,4,4,0,0,1,.991.384,2.516,2.516,0,0,1,.7.575,1.531,1.531,0,0,1,.288.671.913.913,0,0,1-.192.671A1.718,1.718,0,0,1,474,338.2Zm-3.164-.8a3.228,3.228,0,0,0,.479.224,3.345,3.345,0,0,0,.543.128,1.548,1.548,0,0,0,.543,0,2.4,2.4,0,0,0,.511-.16.611.611,0,0,0,.288-.288.544.544,0,0,0,0-.32.974.974,0,0,0-.224-.32,1.992,1.992,0,0,0-.384-.288,2.477,2.477,0,0,0-.511-.224,3.349,3.349,0,0,0-.543-.128,3.086,3.086,0,0,0-.543,0,2.4,2.4,0,0,0-.511.16.611.611,0,0,0-.288.288.544.544,0,0,0,0,.32.654.654,0,0,0,.224.32A1.216,1.216,0,0,0,470.837,337.4Z" transform="translate(-463.934 -328.068)"/>
            <path id="Path_4215-2" data-name="Path 4215" class="cls-2" d="M488.813,329.1a1.078,1.078,0,0,1-.575.8,3.029,3.029,0,0,1-.991.352,6.99,6.99,0,0,1-1.151.1,5.013,5.013,0,0,1-1.183-.16,3.822,3.822,0,0,1-1.055-.415,2.246,2.246,0,0,1-.7-.607,1.176,1.176,0,0,1-.256-.671,1.126,1.126,0,0,1,.224-.671,2.506,2.506,0,0,1,.671-.607c.192-.1.384-.192.607-.288a5.118,5.118,0,0,1,.671-.16,3.9,3.9,0,0,1,1.406,0l-.224.927a2.069,2.069,0,0,0-.767-.032,1.677,1.677,0,0,0-.639.192.5.5,0,0,0-.256.256.311.311,0,0,0-.032.288.852.852,0,0,0,.192.32,1.562,1.562,0,0,0,.416.32,1.957,1.957,0,0,0,.543.224,1.773,1.773,0,0,0,.543.1,3.1,3.1,0,0,0,.543-.032,1.849,1.849,0,0,0,.448-.16.767.767,0,0,0,.32-.32.61.61,0,0,0,.064-.416l-.8.447-.895-.511,1.854-1.055,2.4,1.374-1.023.575Z" transform="translate(-473.663 -322.353)"/>
            <path id="Path_4216-2" data-name="Path 4216" class="cls-2" d="M498.075,324.892,493.6,322.3l1.246-.7,4.475,2.589Z" transform="translate(-480.943 -318.883)"/>
            <path id="Path_4217-2" data-name="Path 4217" class="cls-2" d="M503.316,315.977l2.205,1.279-1.247.7-4.475-2.589.959-.543,4.091.288-2.269-1.31,1.246-.7,4.475,2.589-.991.575Z" transform="translate(-485.161 -313.1)"/>
          </g>
        </g>
        <g id="Group_1350-2" data-name="Group 1350" transform="translate(0 0)">
          <g id="Group_1346-2" data-name="Group 1346">
            <g id="Group_1343-2" data-name="Group 1343">
              <path id="Path_4218-2" data-name="Path 4218" class="cls-3" d="M315.63,157.928l-111.8,64.531-75.526-43.6L240.1,114.3Z" transform="translate(-128.3 -114.3)"/>
              <path id="Path_4219-2" data-name="Path 4219" class="cls-4" d="M252.632,121.555l-111.8,64.563L128.3,178.863,240.1,114.3Z" transform="translate(-128.3 -114.3)"/>
              <g id="Group_1342-2" data-name="Group 1342" transform="translate(10.244 54.272)">
                <path id="Path_4220-2" data-name="Path 4220" class="cls-5" d="M165.64,309.777a1.33,1.33,0,0,1,0,2.525,4.808,4.808,0,0,1-4.379,0,1.33,1.33,0,0,1,0-2.525A4.808,4.808,0,0,1,165.64,309.777Z" transform="translate(-160.35 -301.212)"/>
                <ellipse id="Ellipse_68-2" data-name="Ellipse 68" class="cls-5" cx="3.1" cy="1.79" rx="3.1" ry="1.79" transform="translate(6.952 4.027)"/>
                <ellipse id="Ellipse_69-2" data-name="Ellipse 69" class="cls-5" cx="3.1" cy="1.79" rx="3.1" ry="1.79" transform="translate(13.919)"/>
              </g>
            </g>
            <g id="Group_1344-2" data-name="Group 1344" transform="translate(64.084 36.988)">
              <path id="Path_4222-2" data-name="Path 4222" class="cls-6" d="M374.218,236.857,340.594,256.29a10.767,10.767,0,0,1-9.78,0c-2.685-1.566-2.685-4.091,0-5.657L364.438,231.2a10.767,10.767,0,0,1,9.78,0C376.935,232.766,376.935,235.291,374.218,236.857Zm-42.03,14.575c-1.95,1.119-1.95,2.941,0,4.059a7.786,7.786,0,0,0,7.032,0l33.624-19.433c1.95-1.119,1.95-2.941,0-4.059a7.786,7.786,0,0,0-7.032,0Z" transform="translate(-328.8 -230.025)"/>
            </g>
            <g id="Group_1345-2" data-name="Group 1345" transform="translate(75.782 43.764)">
              <path id="Path_4223-2" data-name="Path 4223" class="cls-7" d="M410.818,258.057,377.194,277.49a10.767,10.767,0,0,1-9.78,0c-2.685-1.566-2.685-4.091,0-5.657L401.07,252.4a10.767,10.767,0,0,1,9.78,0C413.535,253.966,413.535,256.491,410.818,258.057ZM368.788,272.6c-1.95,1.119-1.95,2.94,0,4.059a7.786,7.786,0,0,0,7.032,0l33.624-19.433c1.95-1.119,1.95-2.941,0-4.059a7.786,7.786,0,0,0-7.032,0Z" transform="translate(-365.4 -251.225)"/>
            </g>
          </g>
          <g id="Group_1347-2" data-name="Group 1347" transform="translate(77.172 44.587)">
            <path id="Path_4224-2" data-name="Path 4224" class="cls-6" d="M381.752,270.983l-10,5.753a1.9,1.9,0,0,1-1.662,0h0a.51.51,0,0,1,0-.959l10-5.785a1.9,1.9,0,0,1,1.662,0h0A.533.533,0,0,1,381.752,270.983Z" transform="translate(-369.75 -264.686)"/>
            <path id="Path_4225-2" data-name="Path 4225" class="cls-6" d="M421.15,254.951l-4.6,2.653a1.9,1.9,0,0,1-1.662,0h0a.51.51,0,0,1,0-.959l4.6-2.653a1.9,1.9,0,0,1,1.662,0h0C421.6,254.247,421.6,254.663,421.15,254.951Z" transform="translate(-400.231 -253.8)"/>
          </g>
          <g id="Group_1348-2" data-name="Group 1348" transform="translate(84.771 48.966)">
            <path id="Path_4226-2" data-name="Path 4226" class="cls-8" d="M395.85,317.041c.543.32.543.8,0,1.119a2.038,2.038,0,0,1-1.918,0c-.543-.32-.543-.8,0-1.119A2.238,2.238,0,0,1,395.85,317.041Z" transform="translate(-393.525 -301.06)"/>
            <path id="Path_4227-2" data-name="Path 4227" class="cls-8" d="M410.05,308.841c.543.32.543.8,0,1.119a2.037,2.037,0,0,1-1.918,0c-.543-.32-.543-.8,0-1.119A2.239,2.239,0,0,1,410.05,308.841Z" transform="translate(-403.186 -295.481)"/>
            <path id="Path_4228-2" data-name="Path 4228" class="cls-8" d="M424.25,300.59c.543.32.543.8,0,1.119a2.038,2.038,0,0,1-1.918,0c-.543-.32-.543-.8,0-1.119A2.037,2.037,0,0,1,424.25,300.59Z" transform="translate(-412.848 -289.85)"/>
            <path id="Path_4229-2" data-name="Path 4229" class="cls-8" d="M438.55,292.39c.543.32.543.8,0,1.119a2.038,2.038,0,0,1-1.918,0c-.543-.32-.543-.8,0-1.119A2.038,2.038,0,0,1,438.55,292.39Z" transform="translate(-422.577 -284.271)"/>
            <path id="Path_4230-2" data-name="Path 4230" class="cls-8" d="M452.75,284.141c.543.32.543.8,0,1.119a2.038,2.038,0,0,1-1.918,0c-.543-.32-.543-.8,0-1.119A2.238,2.238,0,0,1,452.75,284.141Z" transform="translate(-432.239 -278.675)"/>
            <path id="Path_4231-2" data-name="Path 4231" class="cls-8" d="M467.05,275.941c.543.32.543.8,0,1.119a2.038,2.038,0,0,1-1.918,0c-.543-.32-.543-.8,0-1.119A2.239,2.239,0,0,1,467.05,275.941Z" transform="translate(-441.968 -273.096)"/>
            <ellipse id="Ellipse_70-2" data-name="Ellipse 70" class="cls-8" cx="1.342" cy="0.767" rx="1.342" ry="0.767" transform="translate(27.32)"/>
          </g>
        </g>
      </g>
    </g>
    <g id="Group_1494" data-name="Group 1494" transform="translate(-164.415 -404.933)">
      <g id="login_popup-3" data-name="login_popup" transform="translate(814.8 2204.659)">
        <g id="Group_1341-3" data-name="Group 1341" transform="translate(0 3.388)">
          <g id="Group_1337-3" data-name="Group 1337" transform="translate(0 0)">
            <g id="Group_1334-3" data-name="Group 1334">
              <path id="Path_4197-3" data-name="Path 4197" class="cls-2" d="M315.63,168.528l-111.8,64.531-75.526-43.6L240.1,124.9Z" transform="translate(-128.3 -124.9)"/>
              <path id="Path_4198-3" data-name="Path 4198" class="cls-2" d="M252.632,132.155l-111.8,64.531L128.3,189.463,240.1,124.9Z" transform="translate(-128.3 -124.9)"/>
              <g id="Group_1333-3" data-name="Group 1333" transform="translate(10.244 54.28)">
                <path id="Path_4199-3" data-name="Path 4199" class="cls-2" d="M165.64,320.377a1.33,1.33,0,0,1,0,2.525,4.808,4.808,0,0,1-4.379,0,1.33,1.33,0,0,1,0-2.525A4.808,4.808,0,0,1,165.64,320.377Z" transform="translate(-160.35 -311.82)"/>
                <ellipse id="Ellipse_67-3" data-name="Ellipse 67" class="cls-2" cx="3.1" cy="1.79" rx="3.1" ry="1.79" transform="translate(6.952 3.987)"/>
                <path id="Path_4200-3" data-name="Path 4200" class="cls-2" d="M209.14,295.228a1.33,1.33,0,0,1,0,2.525,4.808,4.808,0,0,1-4.379,0,1.33,1.33,0,0,1,0-2.525A5.013,5.013,0,0,1,209.14,295.228Z" transform="translate(-189.946 -294.725)"/>
              </g>
            </g>
            <path id="Path_4201-3" data-name="Path 4201" class="cls-2" d="M462.256,298.315l-33.624,19.433a9.276,9.276,0,0,1-8.406,0h0c-2.3-1.342-2.3-3.516,0-4.858l33.624-19.433a9.276,9.276,0,0,1,8.406,0h0C464.589,294.8,464.589,296.973,462.256,298.315Z" transform="translate(-325.746 -238.898)"/>
            <g id="Group_1335-3" data-name="Group 1335" transform="translate(64.084 36.988)">
              <path id="Path_4202-3" data-name="Path 4202" class="cls-2" d="M374.218,247.457,340.594,266.89a10.767,10.767,0,0,1-9.78,0c-2.685-1.566-2.685-4.091,0-5.657L364.438,241.8a10.767,10.767,0,0,1,9.78,0C376.935,243.366,376.935,245.891,374.218,247.457Zm-42.03,14.575c-1.95,1.119-1.95,2.941,0,4.059a7.786,7.786,0,0,0,7.032,0l33.624-19.433c1.95-1.119,1.95-2.941,0-4.059a7.786,7.786,0,0,0-7.032,0Z" transform="translate(-328.8 -240.625)"/>
            </g>
            <g id="Group_1336-3" data-name="Group 1336" transform="translate(75.782 43.764)">
              <path id="Path_4203-3" data-name="Path 4203" class="cls-2" d="M410.818,268.625l-33.624,19.433a10.767,10.767,0,0,1-9.78,0c-2.685-1.566-2.685-4.091,0-5.657L401.07,263a10.767,10.767,0,0,1,9.78,0C413.535,264.534,413.535,267.091,410.818,268.625ZM368.788,283.2c-1.95,1.119-1.95,2.941,0,4.059a7.786,7.786,0,0,0,7.032,0l33.624-19.433c1.95-1.119,1.95-2.941,0-4.059a7.786,7.786,0,0,0-7.032,0Z" transform="translate(-365.4 -261.825)"/>
            </g>
          </g>
          <g id="Group_1338-3" data-name="Group 1338" transform="translate(77.172 44.587)">
            <path id="Path_4204-3" data-name="Path 4204" class="cls-2" d="M381.752,281.551l-10,5.785a1.9,1.9,0,0,1-1.662,0h0a.51.51,0,0,1,0-.959l10-5.785a1.9,1.9,0,0,1,1.662,0h0C382.2,280.879,382.2,281.295,381.752,281.551Z" transform="translate(-369.75 -275.286)"/>
            <path id="Path_4205-3" data-name="Path 4205" class="cls-2" d="M421.15,265.519l-4.6,2.653a1.9,1.9,0,0,1-1.662,0h0a.51.51,0,0,1,0-.959l4.6-2.621a1.9,1.9,0,0,1,1.662,0h0A.488.488,0,0,1,421.15,265.519Z" transform="translate(-400.231 -264.4)"/>
          </g>
          <g id="Group_1339-3" data-name="Group 1339" transform="translate(84.771 48.95)">
            <path id="Path_4206-3" data-name="Path 4206" class="cls-2" d="M395.85,327.641c.543.32.543.8,0,1.119a2.037,2.037,0,0,1-1.918,0c-.543-.32-.543-.8,0-1.119A2.238,2.238,0,0,1,395.85,327.641Z" transform="translate(-393.525 -311.644)"/>
            <path id="Path_4207-3" data-name="Path 4207" class="cls-2" d="M410.05,319.39c.543.32.543.8,0,1.119a2.038,2.038,0,0,1-1.918,0c-.543-.32-.543-.8,0-1.119A2.037,2.037,0,0,1,410.05,319.39Z" transform="translate(-403.186 -306.014)"/>
            <path id="Path_4208-3" data-name="Path 4208" class="cls-2" d="M424.25,311.19c.543.32.543.8,0,1.119a2.038,2.038,0,0,1-1.918,0c-.543-.32-.543-.8,0-1.119A2.037,2.037,0,0,1,424.25,311.19Z" transform="translate(-412.848 -300.434)"/>
            <path id="Path_4209-3" data-name="Path 4209" class="cls-2" d="M438.55,302.99c.543.32.543.8,0,1.119a2.037,2.037,0,0,1-1.918,0c-.543-.32-.543-.8,0-1.119A2.037,2.037,0,0,1,438.55,302.99Z" transform="translate(-422.577 -294.855)"/>
            <path id="Path_4210-3" data-name="Path 4210" class="cls-2" d="M452.75,294.741c.543.32.543.8,0,1.119a2.038,2.038,0,0,1-1.918,0c-.543-.32-.543-.8,0-1.119A2.238,2.238,0,0,1,452.75,294.741Z" transform="translate(-432.239 -289.259)"/>
            <path id="Path_4211-3" data-name="Path 4211" class="cls-2" d="M467.05,286.49c.543.32.543.8,0,1.119a2.038,2.038,0,0,1-1.918,0c-.543-.32-.543-.8,0-1.119A2.037,2.037,0,0,1,467.05,286.49Z" transform="translate(-441.968 -283.629)"/>
            <path id="Path_4212-3" data-name="Path 4212" class="cls-2" d="M481.25,278.29c.543.32.543.8,0,1.119a2.038,2.038,0,0,1-1.918,0c-.543-.32-.543-.8,0-1.119A2.037,2.037,0,0,1,481.25,278.29Z" transform="translate(-451.629 -278.05)"/>
          </g>
          <g id="Group_1340-3" data-name="Group 1340" transform="translate(104.1 60.153)">
            <path id="Path_4213-3" data-name="Path 4213" class="cls-2" d="M458.475,347.792,454,345.2l1.247-.7,3.42,1.982,2.046-1.183,1.087.607Z" transform="translate(-454 -334.464)"/>
            <path id="Path_4214-3" data-name="Path 4214" class="cls-2" d="M474,338.2a2.929,2.929,0,0,1-1.087.384,7.376,7.376,0,0,1-1.183.1,4.351,4.351,0,0,1-1.151-.16,3.085,3.085,0,0,1-.991-.416,2.516,2.516,0,0,1-.7-.575,1.531,1.531,0,0,1-.288-.671,1.084,1.084,0,0,1,.192-.671,1.8,1.8,0,0,1,.671-.607,2.929,2.929,0,0,1,1.087-.384,7.376,7.376,0,0,1,1.183-.1,7.033,7.033,0,0,1,1.183.16,4,4,0,0,1,.991.384,2.516,2.516,0,0,1,.7.575,1.531,1.531,0,0,1,.288.671.913.913,0,0,1-.192.671A1.718,1.718,0,0,1,474,338.2Zm-3.164-.8a3.228,3.228,0,0,0,.479.224,3.345,3.345,0,0,0,.543.128,1.548,1.548,0,0,0,.543,0,2.4,2.4,0,0,0,.511-.16.611.611,0,0,0,.288-.288.544.544,0,0,0,0-.32.974.974,0,0,0-.224-.32,1.992,1.992,0,0,0-.384-.288,2.477,2.477,0,0,0-.511-.224,3.349,3.349,0,0,0-.543-.128,3.086,3.086,0,0,0-.543,0,2.4,2.4,0,0,0-.511.16.611.611,0,0,0-.288.288.544.544,0,0,0,0,.32.654.654,0,0,0,.224.32A1.216,1.216,0,0,0,470.837,337.4Z" transform="translate(-463.934 -328.068)"/>
            <path id="Path_4215-3" data-name="Path 4215" class="cls-2" d="M488.813,329.1a1.078,1.078,0,0,1-.575.8,3.029,3.029,0,0,1-.991.352,6.99,6.99,0,0,1-1.151.1,5.013,5.013,0,0,1-1.183-.16,3.822,3.822,0,0,1-1.055-.415,2.246,2.246,0,0,1-.7-.607,1.176,1.176,0,0,1-.256-.671,1.126,1.126,0,0,1,.224-.671,2.506,2.506,0,0,1,.671-.607c.192-.1.384-.192.607-.288a5.118,5.118,0,0,1,.671-.16,3.9,3.9,0,0,1,1.406,0l-.224.927a2.069,2.069,0,0,0-.767-.032,1.677,1.677,0,0,0-.639.192.5.5,0,0,0-.256.256.311.311,0,0,0-.032.288.852.852,0,0,0,.192.32,1.562,1.562,0,0,0,.416.32,1.957,1.957,0,0,0,.543.224,1.773,1.773,0,0,0,.543.1,3.1,3.1,0,0,0,.543-.032,1.849,1.849,0,0,0,.448-.16.767.767,0,0,0,.32-.32.61.61,0,0,0,.064-.416l-.8.447-.895-.511,1.854-1.055,2.4,1.374-1.023.575Z" transform="translate(-473.663 -322.353)"/>
            <path id="Path_4216-3" data-name="Path 4216" class="cls-2" d="M498.075,324.892,493.6,322.3l1.246-.7,4.475,2.589Z" transform="translate(-480.943 -318.883)"/>
            <path id="Path_4217-3" data-name="Path 4217" class="cls-2" d="M503.316,315.977l2.205,1.279-1.247.7-4.475-2.589.959-.543,4.091.288-2.269-1.31,1.246-.7,4.475,2.589-.991.575Z" transform="translate(-485.161 -313.1)"/>
          </g>
        </g>
        <g id="Group_1350-3" data-name="Group 1350" transform="translate(0 0)">
          <g id="Group_1346-3" data-name="Group 1346">
            <g id="Group_1343-3" data-name="Group 1343">
              <path id="Path_4218-3" data-name="Path 4218" class="cls-3" d="M315.63,157.928l-111.8,64.531-75.526-43.6L240.1,114.3Z" transform="translate(-128.3 -114.3)"/>
              <path id="Path_4219-3" data-name="Path 4219" class="cls-4" d="M252.632,121.555l-111.8,64.563L128.3,178.863,240.1,114.3Z" transform="translate(-128.3 -114.3)"/>
              <g id="Group_1342-3" data-name="Group 1342" transform="translate(10.244 54.272)">
                <path id="Path_4220-3" data-name="Path 4220" class="cls-5" d="M165.64,309.777a1.33,1.33,0,0,1,0,2.525,4.808,4.808,0,0,1-4.379,0,1.33,1.33,0,0,1,0-2.525A4.808,4.808,0,0,1,165.64,309.777Z" transform="translate(-160.35 -301.212)"/>
                <ellipse id="Ellipse_68-3" data-name="Ellipse 68" class="cls-5" cx="3.1" cy="1.79" rx="3.1" ry="1.79" transform="translate(6.952 4.027)"/>
                <ellipse id="Ellipse_69-3" data-name="Ellipse 69" class="cls-5" cx="3.1" cy="1.79" rx="3.1" ry="1.79" transform="translate(13.919)"/>
              </g>
            </g>
            <path id="Path_4221" data-name="Path 4221" class="cls-6" d="M462.256,287.715l-33.624,19.433a9.276,9.276,0,0,1-8.406,0h0c-2.3-1.342-2.3-3.516,0-4.858l33.624-19.433a9.276,9.276,0,0,1,8.406,0h0C464.589,284.2,464.589,286.373,462.256,287.715Z" transform="translate(-325.746 -228.298)"/>
            <g id="Group_1344-3" data-name="Group 1344" transform="translate(64.084 36.988)">
              <path id="Path_4222-3" data-name="Path 4222" class="cls-6" d="M374.218,236.857,340.594,256.29a10.767,10.767,0,0,1-9.78,0c-2.685-1.566-2.685-4.091,0-5.657L364.438,231.2a10.767,10.767,0,0,1,9.78,0C376.935,232.766,376.935,235.291,374.218,236.857Zm-42.03,14.575c-1.95,1.119-1.95,2.941,0,4.059a7.786,7.786,0,0,0,7.032,0l33.624-19.433c1.95-1.119,1.95-2.941,0-4.059a7.786,7.786,0,0,0-7.032,0Z" transform="translate(-328.8 -230.025)"/>
            </g>
            <g id="Group_1345-3" data-name="Group 1345" transform="translate(75.782 43.764)">
              <path id="Path_4223-3" data-name="Path 4223" class="cls-7" d="M410.818,258.057,377.194,277.49a10.767,10.767,0,0,1-9.78,0c-2.685-1.566-2.685-4.091,0-5.657L401.07,252.4a10.767,10.767,0,0,1,9.78,0C413.535,253.966,413.535,256.491,410.818,258.057ZM368.788,272.6c-1.95,1.119-1.95,2.94,0,4.059a7.786,7.786,0,0,0,7.032,0l33.624-19.433c1.95-1.119,1.95-2.941,0-4.059a7.786,7.786,0,0,0-7.032,0Z" transform="translate(-365.4 -251.225)"/>
            </g>
          </g>
          <g id="Group_1347-3" data-name="Group 1347" transform="translate(77.172 44.587)">
            <path id="Path_4224-3" data-name="Path 4224" class="cls-6" d="M381.752,270.983l-10,5.753a1.9,1.9,0,0,1-1.662,0h0a.51.51,0,0,1,0-.959l10-5.785a1.9,1.9,0,0,1,1.662,0h0A.533.533,0,0,1,381.752,270.983Z" transform="translate(-369.75 -264.686)"/>
            <path id="Path_4225-3" data-name="Path 4225" class="cls-6" d="M421.15,254.951l-4.6,2.653a1.9,1.9,0,0,1-1.662,0h0a.51.51,0,0,1,0-.959l4.6-2.653a1.9,1.9,0,0,1,1.662,0h0C421.6,254.247,421.6,254.663,421.15,254.951Z" transform="translate(-400.231 -253.8)"/>
          </g>
          <g id="Group_1348-3" data-name="Group 1348" transform="translate(84.771 48.966)">
            <path id="Path_4226-3" data-name="Path 4226" class="cls-8" d="M395.85,317.041c.543.32.543.8,0,1.119a2.038,2.038,0,0,1-1.918,0c-.543-.32-.543-.8,0-1.119A2.238,2.238,0,0,1,395.85,317.041Z" transform="translate(-393.525 -301.06)"/>
            <path id="Path_4227-3" data-name="Path 4227" class="cls-8" d="M410.05,308.841c.543.32.543.8,0,1.119a2.037,2.037,0,0,1-1.918,0c-.543-.32-.543-.8,0-1.119A2.239,2.239,0,0,1,410.05,308.841Z" transform="translate(-403.186 -295.481)"/>
            <path id="Path_4228-3" data-name="Path 4228" class="cls-8" d="M424.25,300.59c.543.32.543.8,0,1.119a2.038,2.038,0,0,1-1.918,0c-.543-.32-.543-.8,0-1.119A2.037,2.037,0,0,1,424.25,300.59Z" transform="translate(-412.848 -289.85)"/>
            <path id="Path_4229-3" data-name="Path 4229" class="cls-8" d="M438.55,292.39c.543.32.543.8,0,1.119a2.038,2.038,0,0,1-1.918,0c-.543-.32-.543-.8,0-1.119A2.038,2.038,0,0,1,438.55,292.39Z" transform="translate(-422.577 -284.271)"/>
            <path id="Path_4230-3" data-name="Path 4230" class="cls-8" d="M452.75,284.141c.543.32.543.8,0,1.119a2.038,2.038,0,0,1-1.918,0c-.543-.32-.543-.8,0-1.119A2.238,2.238,0,0,1,452.75,284.141Z" transform="translate(-432.239 -278.675)"/>
            <path id="Path_4231-3" data-name="Path 4231" class="cls-8" d="M467.05,275.941c.543.32.543.8,0,1.119a2.038,2.038,0,0,1-1.918,0c-.543-.32-.543-.8,0-1.119A2.239,2.239,0,0,1,467.05,275.941Z" transform="translate(-441.968 -273.096)"/>
            <ellipse id="Ellipse_70-3" data-name="Ellipse 70" class="cls-8" cx="1.342" cy="0.767" rx="1.342" ry="0.767" transform="translate(27.32)"/>
          </g>
          <g id="Group_1349" data-name="Group 1349" transform="translate(104.1 60.153)">
            <path id="Path_4232" data-name="Path 4232" class="cls-5" d="M458.475,337.192,454,334.6l1.247-.7,3.42,1.982,2.046-1.183,1.087.607Z" transform="translate(-454 -323.864)"/>
            <path id="Path_4233" data-name="Path 4233" class="cls-5" d="M474,327.7a2.929,2.929,0,0,1-1.087.384,7.379,7.379,0,0,1-1.183.1,4.351,4.351,0,0,1-1.151-.16,3.085,3.085,0,0,1-.991-.415,2.517,2.517,0,0,1-.7-.575,1.531,1.531,0,0,1-.288-.671,1.084,1.084,0,0,1,.192-.671,1.8,1.8,0,0,1,.671-.607,2.929,2.929,0,0,1,1.087-.384,7.379,7.379,0,0,1,1.183-.1,7.033,7.033,0,0,1,1.183.16,4,4,0,0,1,.991.384,2.516,2.516,0,0,1,.7.575,1.531,1.531,0,0,1,.288.671.913.913,0,0,1-.192.671A2.307,2.307,0,0,1,474,327.7Zm-3.164-.8a3.225,3.225,0,0,0,.479.224,3.345,3.345,0,0,0,.543.128,3.08,3.08,0,0,0,.543,0,2.4,2.4,0,0,0,.511-.16.611.611,0,0,0,.288-.288.544.544,0,0,0,0-.32.974.974,0,0,0-.224-.32,1.991,1.991,0,0,0-.384-.288,2.474,2.474,0,0,0-.511-.224,3.339,3.339,0,0,0-.543-.128,3.086,3.086,0,0,0-.543,0,2.4,2.4,0,0,0-.511.16.611.611,0,0,0-.288.288.544.544,0,0,0,0,.32.654.654,0,0,0,.224.32A4.667,4.667,0,0,0,470.837,326.9Z" transform="translate(-463.934 -317.536)"/>
            <path id="Path_4234" data-name="Path 4234" class="cls-5" d="M488.813,318.5a1.078,1.078,0,0,1-.575.8,3.029,3.029,0,0,1-.991.352,6.987,6.987,0,0,1-1.151.1,5.013,5.013,0,0,1-1.183-.16,3.823,3.823,0,0,1-1.055-.415,2.246,2.246,0,0,1-.7-.607,1.176,1.176,0,0,1-.256-.671,1.126,1.126,0,0,1,.224-.671,2.505,2.505,0,0,1,.671-.607c.192-.1.384-.192.607-.288a5.108,5.108,0,0,1,.671-.16,3.9,3.9,0,0,1,1.406,0l-.224.927a2.069,2.069,0,0,0-.767-.032,1.677,1.677,0,0,0-.639.192.5.5,0,0,0-.256.256.311.311,0,0,0-.032.288.852.852,0,0,0,.192.32,1.561,1.561,0,0,0,.416.32,1.955,1.955,0,0,0,.543.224,1.773,1.773,0,0,0,.543.1,3.1,3.1,0,0,0,.543-.032,1.847,1.847,0,0,0,.448-.16.767.767,0,0,0,.32-.32.61.61,0,0,0,.064-.416l-.8.447-.895-.511,1.854-1.055,2.4,1.374-1.023.575Z" transform="translate(-473.663 -311.753)"/>
            <path id="Path_4235" data-name="Path 4235" class="cls-5" d="M498.075,314.292,493.6,311.7l1.246-.7,4.475,2.589Z" transform="translate(-480.943 -308.283)"/>
            <path id="Path_4236" data-name="Path 4236" class="cls-5" d="M503.316,305.377l2.205,1.278-1.247.7-4.475-2.589.959-.543,4.091.288-2.269-1.31,1.246-.7,4.475,2.589-.991.575Z" transform="translate(-485.161 -302.5)"/>
          </g>
        </g>
      </g>
    </g>
  </g>
</svg>
