<svg xmlns="http://www.w3.org/2000/svg" viewBox="0 0 108.33 108.33">
    <defs>
        <style>
            .cls-1,.cls-2,.cls-4{fill:#a3b8ca}.cls-1,.cls-2{stroke:#a3b8ca}.cls-2{stroke-width:.5px}.cls-3{fill:#a391f0}
        </style>
    </defs>
    <g id="Registration_process_icon" transform="translate(-730.5 -2423.5)">
        <g id="noun_Online_Registration_1328091" data-name="noun_Online Registration_1328091" transform="translate(731 2424)">
            <g id="Group_3265" data-name="Group 3265">
                <g id="Group_3254" data-name="Group 3254">
                    <path id="Path_5588" d="M101.964 0H5.367A5.414 5.414 0 0 0 0 5.367v74.317a5.414 5.414 0 0 0 5.367 5.366h35.939l-4.553 9.432H34.8A11.243 11.243 0 0 0 23.58 105.7a1.536 1.536 0 0 0 1.626 1.626h56.918a1.536 1.536 0 0 0 1.626-1.626v-.325a11.287 11.287 0 0 0-11.221-10.9h-1.951l-4.553-9.432h35.939a5.414 5.414 0 0 0 5.367-5.367V5.367A5.414 5.414 0 0 0 101.964 0zM5.367 3.252h96.6a2.153 2.153 0 0 1 2.114 2.114v59.357H3.252V5.367a2.153 2.153 0 0 1 2.115-2.115zm74.968 100.826H27a8.021 8.021 0 0 1 7.8-6.343h37.892a7.843 7.843 0 0 1 7.643 6.343zM67 94.483H40.33l4.553-9.432h17.4zM101.964 81.8H5.366a2.05 2.05 0 0 1-2.114-2.114V67.813h100.826v11.871a2.05 2.05 0 0 1-2.114 2.116z" class="cls-1" data-name="Path 5588"/>
                </g>
                <g id="Group_3255" data-name="Group 3255" transform="translate(48.299 69.277)">
                    <path id="Path_5589" d="M35.066 42.6a5.366 5.366 0 1 0 5.367 5.366 5.414 5.414 0 0 0-5.367-5.366zm0 7.481a2.114 2.114 0 1 1 2.114-2.114 2.05 2.05 0 0 1-2.114 2.114z" class="cls-1" data-name="Path 5589" transform="translate(-29.7 -42.6)"/>
                </g>
            </g>
        </g>
        <g id="noun_password_410663" transform="translate(729 2364.5)">
            <g id="Group_3266" data-name="Group 3266" transform="translate(30.163 68.163)">
                <path id="Path_5590" d="M48.9.5H5.066A4.571 4.571 0 0 0 .5 5.066V48.9a4.571 4.571 0 0 0 4.566 4.566H48.9a4.571 4.571 0 0 0 4.564-4.566V5.066A4.571 4.571 0 0 0 48.9.5zm2.74 48.4a2.743 2.743 0 0 1-2.74 2.74H5.066a2.743 2.743 0 0 1-2.74-2.74V5.066a2.743 2.743 0 0 1 2.74-2.74H48.9a2.743 2.743 0 0 1 2.74 2.74z" class="cls-2" data-name="Path 5590" transform="translate(-1.939 -1.939)"/>
                <path id="Path_5591" d="M38.9 18.5H7.818A4.323 4.323 0 0 0 3.5 22.818V28a4.323 4.323 0 0 0 4.318 4.318H38.9A4.323 4.323 0 0 0 43.223 28v-5.182A4.323 4.323 0 0 0 38.9 18.5zm2.6 9.5a2.594 2.594 0 0 1-2.6 2.589H7.818A2.594 2.594 0 0 1 5.227 28v-5.182a2.594 2.594 0 0 1 2.591-2.591H38.9a2.594 2.594 0 0 1 2.6 2.591z" class="cls-2" data-name="Path 5591" transform="translate(1.681 12.587)"/>
                <path id="Path_5592" d="M12.155 20.753a.864.864 0 0 0-1.221 0l-1.98 1.98-1.979-1.98a.863.863 0 0 0-1.221 1.221l1.977 1.979-1.979 1.98a.864.864 0 0 0 1.221 1.223l1.981-1.979 1.979 1.979a.863.863 0 0 0 1.221-1.221l-1.979-1.981 1.979-1.979a.864.864 0 0 0 .001-1.222z" class="cls-3" data-name="Path 5592" transform="translate(3.135 14.042)"/>
                <path id="Path_5593" d="M17.154 20.753a.864.864 0 0 0-1.221 0l-1.979 1.979-1.979-1.979a.863.863 0 0 0-1.221 1.221l1.979 1.979-1.979 1.979a.864.864 0 0 0 0 1.221.861.861 0 0 0 1.219 0l1.979-1.979 1.979 1.979a.874.874 0 0 0 .613.252.863.863 0 0 0 .61-1.473l-1.979-1.981 1.979-1.979a.864.864 0 0 0 0-1.219z" class="cls-3" data-name="Path 5593" transform="translate(6.771 14.042)"/>
                <path id="Path_5594" d="M22.154 20.753a.864.864 0 0 0-1.221 0l-1.979 1.979-1.979-1.979a.863.863 0 0 0-1.221 1.221l1.979 1.979-1.979 1.979a.864.864 0 0 0 0 1.221.861.861 0 0 0 1.219 0l1.979-1.979 1.979 1.979a.874.874 0 0 0 .613.252.863.863 0 0 0 .61-1.473l-1.979-1.981 1.979-1.979a.864.864 0 0 0 0-1.219z" class="cls-3" data-name="Path 5594" transform="translate(10.407 14.042)"/>
                <path id="Path_5595" d="M27.154 20.753a.864.864 0 0 0-1.221 0l-1.979 1.979-1.979-1.979a.863.863 0 0 0-1.221 1.221l1.979 1.979-1.979 1.979a.864.864 0 0 0 0 1.221.861.861 0 0 0 1.219 0l1.979-1.979 1.979 1.979a.874.874 0 0 0 .613.252.863.863 0 0 0 .61-1.473l-1.979-1.981 1.979-1.979a.864.864 0 0 0 0-1.219z" class="cls-3" data-name="Path 5595" transform="translate(14.042 14.042)"/>
                <path id="Path_5596" d="M7.631 16.269c.029.207.055.414.095.618s.1.421.149.63c.04.155.074.311.119.463.067.23.147.452.226.677.045.126.09.254.138.378.093.235.2.465.3.693.05.107.1.216.155.321q.179.352.382.689c.055.093.111.185.169.276q.218.347.459.675c.059.079.117.159.178.238q.256.334.534.649c.029.035.055.071.086.1.007.007.017.009.022.016a12.031 12.031 0 0 0 17.879 0c.007-.009.019-.01.026-.019.031-.033.055-.071.086-.1q.28-.316.535-.649c.06-.078.119-.157.176-.235q.244-.332.463-.68a11.483 11.483 0 0 0 .549-.971c.054-.1.1-.209.152-.314.109-.23.212-.461.307-.7.048-.123.092-.247.136-.371.081-.226.161-.452.228-.684.043-.149.078-.3.117-.452.054-.212.109-.423.15-.641.04-.2.064-.406.093-.608.024-.173.055-.344.073-.52.038-.385.059-.774.059-1.166A12.035 12.035 0 0 0 31.135 11a11.953 11.953 0 0 0-.917-2.167 12.189 12.189 0 0 0-2.943-3.568 12.063 12.063 0 0 0-15.371 0 12.2 12.2 0 0 0-2.943 3.57 11.983 11.983 0 0 0-1.4 4.521A12.164 12.164 0 0 0 7.5 14.59c0 .392.021.781.059 1.167.017.173.048.343.072.512zM12.358 22a8.588 8.588 0 0 1 14.462 0 10.33 10.33 0 0 1-14.462 0zm3.777-9.136a3.454 3.454 0 1 1 3.454 3.454 3.458 3.458 0 0 1-3.454-3.455zm.377-8.169a10.3 10.3 0 0 1 2.021-.413 10.167 10.167 0 0 1 1.057-.054 10.283 10.283 0 0 1 10.246 11.823l-.043.282a10.273 10.273 0 0 1-.933 2.858 2.27 2.27 0 0 0-.041.086 10.2 10.2 0 0 1-.81 1.33l-.009.018a10.37 10.37 0 0 0-5.15-3.765 5.181 5.181 0 1 0-6.514 0 10.37 10.37 0 0 0-5.15 3.765l-.012-.017a10.343 10.343 0 0 1-.808-1.326l-.045-.093a10.3 10.3 0 0 1-.931-2.855c-.016-.093-.029-.188-.043-.282a10.367 10.367 0 0 1 7.165-11.358z" class="cls-4" data-name="Path 5596" transform="translate(4.589 .953)"/>
            </g>
        </g>
    </g>
</svg>
