<svg xmlns="http://www.w3.org/2000/svg" viewBox="0 0 1100.734 193.26">
  <defs>
    <style>
      .cls-1 {
        opacity: 0.7;
      }

      .cls-12, .cls-19, .cls-2, .cls-3 {
        fill: #819eb6;
      }

      .cls-2 {
        fill-rule: evenodd;
      }

      .cls-4 {
        fill: #93b1c9;
      }

      .cls-5 {
        fill: #fcfcfc;
      }

      .cls-6 {
        fill: #b11e2c;
      }

      .cls-7 {
        fill: #fbf6f7;
      }

      .cls-8 {
        fill: #f5e6e8;
      }

      .cls-9 {
        fill: #fcfdfd;
      }

      .cls-10 {
        fill: #fdfefe;
      }

      .cls-11 {
        opacity: 0.698;
      }

      .cls-12 {
        stroke: #819eb6;
      }

      .cls-13 {
        fill: #f9fafc;
      }

      .cls-14 {
        fill: #f8f9fb;
      }

      .cls-15 {
        fill: #f7f8fb;
      }

      .cls-16 {
        fill: #fbfcfd;
      }

      .cls-17 {
        fill: #f2f6f8;
      }

      .cls-18 {
        fill: none;
      }

      .cls-19 {
        font-size: 44px;
        font-family: MyriadPro-Regular, Myriad Pro;
      }

      .cls-20 {
        fill: #b0c6d7;
      }

      .cls-21 {
        fill: #a3b8ca;
      }
    </style>
  </defs>
  <g id="Supporter_Tech_logos" transform="translate(-143.088 -2406.061)">
    <g id="koop-master-wh2x-1-1" class="cls-1" transform="translate(643.856 2263.847)">
      <g id="koop--master--wh" transform="translate(250.001 147.333)">
        <g id="koop-blu" transform="translate(0 0)">
          <g id="Group_1112" data-name="Group 1112">
            <path id="Fill-1" class="cls-2" d="M375.953,58.835a9.634,9.634,0,0,0,2.786-7,9.393,9.393,0,0,0-2.786-6.94,9.786,9.786,0,0,0-13.809,0,9.587,9.587,0,0,0-2.725,6.94,9.837,9.837,0,0,0,2.725,7,9.941,9.941,0,0,0,13.809,0Zm5.2-18.777a15.776,15.776,0,0,1,4.954,11.774,15.777,15.777,0,0,1-4.954,11.774,17.774,17.774,0,0,1-21.739,1.942v8.676a3.687,3.687,0,1,1-7.375,0V65.289c.03-.029.063-.053.093-.082a17.921,17.921,0,0,0,5.628-13.375,18.121,18.121,0,0,0-2.626-9.63A16.975,16.975,0,0,1,357,40.058a17.666,17.666,0,0,1,24.151,0Z" transform="translate(-270.245 -27.397)"/>
            <path id="Fill-3" class="cls-2" d="M25.006,36.176,15.424,24.016l7.787-8.678a3.48,3.48,0,0,0-.118-4.913L22.618,10a3.474,3.474,0,0,0-4.894.41L7.375,21.94V4.7a3.369,3.369,0,0,0-3.368-3.37H3.368A3.369,3.369,0,0,0,0,4.7V38.788a3.369,3.369,0,0,0,3.368,3.37h.639a3.369,3.369,0,0,0,3.368-3.37v-5.8l3.049-3.4,8.792,11.158a3.474,3.474,0,0,0,4.857.722l.5-.4a3.48,3.48,0,0,0,.431-4.9" transform="translate(-0.001 -1.333)"/>
            <path id="Fill-5" class="cls-2" d="M128.583,58.835a9.634,9.634,0,0,0,2.786-7,9.392,9.392,0,0,0-2.786-6.94,9.786,9.786,0,0,0-13.809,0,9.587,9.587,0,0,0-2.725,6.94,9.837,9.837,0,0,0,2.725,7,9.941,9.941,0,0,0,13.809,0m-23.9-7a15.777,15.777,0,0,1,4.954-11.774,17.666,17.666,0,0,1,24.151,0,15.776,15.776,0,0,1,4.954,11.774,15.777,15.777,0,0,1-4.954,11.774,17.667,17.667,0,0,1-24.151,0,15.778,15.778,0,0,1-4.954-11.774" transform="translate(-80.358 -27.397)"/>
            <path id="Fill-7" class="cls-2" d="M266.136,40.246a16.607,16.607,0,0,0-10.757-4.715v6.785a9,9,0,0,1,5.556,2.764,9.393,9.393,0,0,1,2.786,6.94,9.634,9.634,0,0,1-2.786,7,9.941,9.941,0,0,1-13.809,0,10.64,10.64,0,0,1-1.181-1.509,17.54,17.54,0,0,1-3.624,6.575,17.651,17.651,0,0,0,23.815-.3A15.777,15.777,0,0,0,271.09,52.02a15.776,15.776,0,0,0-4.954-11.774" transform="translate(-186.018 -27.585)"/>
            <path id="Fill-9" class="cls-2" d="M253,35.478A16.624,16.624,0,0,0,242.32,39.91a17.542,17.542,0,0,1,3.629,6.595,9.988,9.988,0,0,1,1.176-1.466,9.031,9.031,0,0,1,5.878-2.8Z" transform="translate(-186.017 -27.544)"/>
          </g>
        </g>
        <g id="the.fintech.hub" transform="translate(13.557 55.863)">
          <path id="the" class="cls-2" d="M1.288,24.586V23.255h.988V21.261H4.11v1.994H5.261v1.332H4.11v3.778a.857.857,0,0,0,.111.548,1.208,1.208,0,0,0,.676.108q.085,0,.179,0t.185-.01v1.4l-.878.033a2.341,2.341,0,0,1-1.794-.459,1.375,1.375,0,0,1-.312-.99v-4.4Zm9.067-1.581a3,3,0,0,1,1.193.23,2.089,2.089,0,0,1,.881.7,1.873,1.873,0,0,1,.358.823,10.226,10.226,0,0,1,.065,1.381v4.2H10.96V25.99a1.927,1.927,0,0,0-.2-.931.977.977,0,0,0-.962-.5,1.32,1.32,0,0,0-1.115.5,2.281,2.281,0,0,0-.38,1.414v3.87H6.461V20.7H8.307V24.12a2.28,2.28,0,0,1,.933-.869A2.617,2.617,0,0,1,10.355,23.005Zm7.019,1.535a1.253,1.253,0,0,0-1,.407,2.04,2.04,0,0,0-.445,1.1h2.88a1.635,1.635,0,0,0-.445-1.125A1.376,1.376,0,0,0,17.374,24.54Zm0-1.541a3.686,3.686,0,0,1,1.593.335,2.8,2.8,0,0,1,1.17,1.056,3.623,3.623,0,0,1,.54,1.476,9.616,9.616,0,0,1,.059,1.417h-4.85a1.783,1.783,0,0,0,.67,1.509,1.567,1.567,0,0,0,.923.269,1.322,1.322,0,0,0,.93-.328,1.558,1.558,0,0,0,.345-.492h1.892a2.379,2.379,0,0,1-.657,1.292,3.2,3.2,0,0,1-2.549,1.043,3.312,3.312,0,0,1-3.42-3.739,4,4,0,0,1,.933-2.847A3.176,3.176,0,0,1,17.374,23Z" transform="translate(-1.288 -20.478)"/>
          <path id="fintech" class="cls-2" d="M126.981,23.021v-.672h1.052v-1.1a2.29,2.29,0,0,1,.333-1.317,1.275,1.275,0,0,1,1.132-.484q.186,0,.346.013t.32.04v.739a1.98,1.98,0,0,0-.479-.067.864.864,0,0,0-.479.114.668.668,0,0,0-.253.3,1.374,1.374,0,0,0-.1.423q-.02.235-.02.477v.86h1.3v.672h-1.3v6.287h-.8V23.021Zm4.78,6.287V22.349h.8v6.959Zm.839-8.477h-.879v-1.2h.879Zm2.62,8.477h-.8V22.349h.8v.967a5.085,5.085,0,0,1,.992-.833,2.266,2.266,0,0,1,1.232-.322,3.12,3.12,0,0,1,1.185.222,2.026,2.026,0,0,1,.919.772,1.742,1.742,0,0,1,.3.772,7.072,7.072,0,0,1,.047.826v4.554h-.8V24.767a2.086,2.086,0,0,0-.413-1.411,1.744,1.744,0,0,0-1.371-.47,1.931,1.931,0,0,0-.679.114,2.13,2.13,0,0,0-.553.3,2.02,2.02,0,0,0-.686.94,2.582,2.582,0,0,0-.146.645q-.027.309-.027.672Zm9.025.027q-.146.027-.386.094a1.971,1.971,0,0,1-.533.067,1.262,1.262,0,0,1-.912-.3,1.48,1.48,0,0,1-.313-1.081V23.021h-.972v-.672h.972V20.414h.8v1.934h1.292v.672H142.9V27.79q0,.255.013.443a.749.749,0,0,0,.08.309.383.383,0,0,0,.206.175,1.135,1.135,0,0,0,.393.054,2.045,2.045,0,0,0,.326-.027q.166-.027.326-.067Zm6.269-3.99a3.221,3.221,0,0,0-.14-.961,2.251,2.251,0,0,0-.413-.779,1.967,1.967,0,0,0-.686-.524,2.19,2.19,0,0,0-.945-.195,2.086,2.086,0,0,0-.939.2,2.161,2.161,0,0,0-.692.537,2.708,2.708,0,0,0-.459.779,3.64,3.64,0,0,0-.226.94Zm-4.5.672a3.807,3.807,0,0,0,.146,1.068,2.588,2.588,0,0,0,.433.873,2.1,2.1,0,0,0,.726.591,2.217,2.217,0,0,0,1.012.222,2.188,2.188,0,0,0,1.345-.416,2.008,2.008,0,0,0,.746-1.182h.892a4.36,4.36,0,0,1-.386.92,2.834,2.834,0,0,1-.6.739,2.584,2.584,0,0,1-.852.49,3.424,3.424,0,0,1-1.145.175,3.318,3.318,0,0,1-1.425-.282,2.69,2.69,0,0,1-.985-.772,3.271,3.271,0,0,1-.573-1.155,5.281,5.281,0,0,1-.186-1.431,4.6,4.6,0,0,1,.22-1.437,3.671,3.671,0,0,1,.626-1.175A2.913,2.913,0,0,1,147,22.45a2.972,2.972,0,0,1,1.332-.289,2.739,2.739,0,0,1,2.237.987,4.365,4.365,0,0,1,.8,2.868Zm11.794-1.478a2.344,2.344,0,0,0-.732-1.216,1.978,1.978,0,0,0-1.318-.437,2.059,2.059,0,0,0-1.052.255,2.137,2.137,0,0,0-.719.678,3.071,3.071,0,0,0-.413.954,4.373,4.373,0,0,0-.133,1.068,4.563,4.563,0,0,0,.126,1.075,2.885,2.885,0,0,0,.406.94,2.1,2.1,0,0,0,.719.665,2.132,2.132,0,0,0,1.065.249,2.029,2.029,0,0,0,1.431-.5,2.318,2.318,0,0,0,.686-1.37h.852a4.073,4.073,0,0,1-.34,1.055,2.781,2.781,0,0,1-.6.819,2.571,2.571,0,0,1-.872.531,3.7,3.7,0,0,1-2.583-.094,2.69,2.69,0,0,1-.985-.772,3.265,3.265,0,0,1-.573-1.162,5.355,5.355,0,0,1-.186-1.437,4.664,4.664,0,0,1,.206-1.39,3.636,3.636,0,0,1,.606-1.175,2.887,2.887,0,0,1,2.357-1.115,3.056,3.056,0,0,1,1.937.578,2.688,2.688,0,0,1,.925,1.8Zm2.514,4.769V19.635h.8v3.681a5.084,5.084,0,0,1,.992-.833,2.266,2.266,0,0,1,1.232-.322,3.12,3.12,0,0,1,1.185.222,2.026,2.026,0,0,1,.919.772,1.742,1.742,0,0,1,.3.772,7.072,7.072,0,0,1,.047.826v4.554H165V24.767a2.086,2.086,0,0,0-.413-1.411,1.744,1.744,0,0,0-1.371-.47,1.931,1.931,0,0,0-.679.114,2.13,2.13,0,0,0-.553.3,2.02,2.02,0,0,0-.686.94,2.581,2.581,0,0,0-.146.645q-.027.309-.027.672v3.748Z" transform="translate(-104.507 -19.447)"/>
          <path id="hub" class="cls-2" d="M371.418,22.915a3,3,0,0,1,1.193.23,2.089,2.089,0,0,1,.881.7,1.873,1.873,0,0,1,.358.823,10.217,10.217,0,0,1,.065,1.381v4.2h-1.892V25.9a1.927,1.927,0,0,0-.2-.931.977.977,0,0,0-.962-.5,1.32,1.32,0,0,0-1.115.5,2.281,2.281,0,0,0-.38,1.414v3.87h-1.846V20.613h1.846V24.03a2.28,2.28,0,0,1,.933-.869A2.617,2.617,0,0,1,371.418,22.915Zm6.07.184v4.31a2.274,2.274,0,0,0,.143.918.988.988,0,0,0,.995.544,1.3,1.3,0,0,0,1.3-.774,2.825,2.825,0,0,0,.182-1.109V23.1h1.879v7.15h-1.8v-1.01q-.026.033-.13.2a1.313,1.313,0,0,1-.247.289,2.577,2.577,0,0,1-.842.538,2.846,2.846,0,0,1-.952.144,2.119,2.119,0,0,1-2.119-1.141,4.4,4.4,0,0,1-.306-1.856V23.1Zm10.114-.157a2.616,2.616,0,0,1,2.188,1.017,4.153,4.153,0,0,1,.79,2.624,4.644,4.644,0,0,1-.78,2.762,2.8,2.8,0,0,1-3.589.741,2.832,2.832,0,0,1-.689-.735v.9h-1.814V20.593h1.846V24.03a2.714,2.714,0,0,1,.774-.761A2.282,2.282,0,0,1,387.6,22.941Zm-.475,5.956a1.269,1.269,0,0,0,1.112-.584,2.684,2.684,0,0,0,.4-1.535,3.489,3.489,0,0,0-.2-1.259,1.359,1.359,0,0,0-1.365-.945,1.379,1.379,0,0,0-1.385.925,3.5,3.5,0,0,0-.195,1.273,2.683,2.683,0,0,0,.4,1.522A1.376,1.376,0,0,0,387.127,28.9Z" transform="translate(-302.04 -20.388)"/>
        </g>
      </g>
    </g>
    <g id="linspark_logo" class="cls-1" transform="translate(459.276 2499.415)">
      <path id="Path_2810" data-name="Path 2810" class="cls-3" d="M224.928,69.3c-.475.7-.52.7-1.039.059a83.848,83.848,0,0,1-14.547-26.764,94.74,94.74,0,0,1-3.949-16.566c-.148-1.069-.238-2.167-.356-3.236-.059-.46.119-.653.609-.7a50.158,50.158,0,0,0,25.1-9.426,32.181,32.181,0,0,0,4.824-4.275c.327-.371.52-.371.876-.015a46.376,46.376,0,0,0,22.474,12.44,47.6,47.6,0,0,0,7.378,1.262c.623.059.727.312.683.846a69.86,69.86,0,0,1-1.188,8.06,93.529,93.529,0,0,1-6.65,20.634,80.535,80.535,0,0,1-9.871,16.329c-.935,1.232-1.959,2.39-2.939,3.592-.549.683-.742.683-1.484.208a10.223,10.223,0,0,1-2.138-1.692,3.021,3.021,0,0,1-.831-1.766c-.074-.638.119-.861.772-.861,1.6,0,3.221-.015,4.824,0,.534,0,.876-.163.846-.757-.119-3.088-.341-6.16-1.8-8.981a12.344,12.344,0,0,0-4.884-4.913c-1.306-.787-2.642-1.544-3.874-2.449a5.978,5.978,0,0,1-2.7-3.978,1.53,1.53,0,0,1-.015-.52c.045-.371.238-.46.564-.282a3.949,3.949,0,0,0,3.622.015,2.68,2.68,0,0,1,3.34,1.633,2.806,2.806,0,0,0,2.88,1.87.975.975,0,0,0,.653-.312,5.7,5.7,0,0,1,2.375-1.44A1.35,1.35,0,0,0,249.51,45.8a4.451,4.451,0,0,1,0-.445,2.321,2.321,0,0,0-1.425-2.627,8.712,8.712,0,0,1-2.509-2.271,1.927,1.927,0,0,1-.445-1.514,2.359,2.359,0,0,0-1.707-2.687,4.448,4.448,0,0,1-1.915-1.232c-.653-.787-.564-1.247.282-1.781a2.777,2.777,0,0,0,.52-.416c.341-.341.713-.727.594-1.217-.134-.549-.713-.43-1.128-.5a20.629,20.629,0,0,0-8.313,0,15.038,15.038,0,0,0-3.874,1.44.925.925,0,0,0-.52,1.321c.312.772.52,1.573.787,2.36l-.178.134c-.668-.52-1.38-.995-2-1.559-.52-.475-.92-.49-1.381.015-1.024.8-1.039.831-.46,2,.267.534.549,1.054.846,1.573.074.148.223.3.03.46-.148.119-.282.015-.4-.089-.386-.327-.638-.193-.891.208s-.534.831-.787,1.262c-.208.356-.386.668-.015,1.054.238.267.074.475-.267.445-.445-.03-.594.267-.757.579-.312.564-.46,1.2-.727,1.781-.178.371.089.549.312.727.119.089.252.178.148.356-.074.134-.208.089-.327.074-.594-.1-1.188.015-1.766-.1a.664.664,0,0,0-.831.534c-.549,1.811-.46,1.989,1.336,2.464a6.591,6.591,0,0,1,.92.282.285.285,0,0,1,.208.282c-.015.134-.148.193-.267.208a5.169,5.169,0,0,0-.653.148c-.178.045-.371.1-.416.267a9.685,9.685,0,0,0-.371,2.256.259.259,0,0,0,.074.208c.49.356.668.638-.089.891-.193.059-.193.4-.193.609-.015.475-.074.935-.1,1.4-.03.534-.059.995.579,1.158a.2.2,0,0,1,.148.223c-.015.148-.134.193-.267.208-.46.074-.906.208-1.381.282a.784.784,0,0,0-.727.92c.045,1.915-.148,1.47,1.47,2,.43.148.95.208.238.742a7.4,7.4,0,0,0,.045,3.325,4.236,4.236,0,0,0,1.158.653,14.324,14.324,0,0,1,1.87,1.039C225.3,66.181,226.131,67.517,224.928,69.3Z" transform="translate(-28.87 5.52)"/>
      <path id="Path_2811" data-name="Path 2811" class="cls-3" d="M255.877,476.083v5.9c0,.369-.017.721,0,1.09.017.386-.151.587-.537.57h-.168c-2.751-.05-2.214.419-2.231-2.13-.034-3.1.017-6.207-.017-9.293,0-.7.134-.99.923-.99,2.55.017,2.55-.017,3.892,2.181,1.023,1.678,2.047,3.338,3.07,5,.084.134.151.3.386.352a3.987,3.987,0,0,0,.117-1.778c0-1.678-.017-3.355-.067-5.033-.017-.554.2-.7.738-.721,2.231-.05,2.231-.067,2.231,2.147,0,3.1-.034,6.207.017,9.293.017.805-.268.906-.99.99-3.439.117-2.952-.3-3.758-2.03a54.6,54.6,0,0,0-3.036-5.016C256.314,476.435,256.23,476.183,255.877,476.083Z" transform="translate(-72.751 -384.063)"/>
      <path id="Path_2812" data-name="Path 2812" class="cls-4" d="M532.011,477.286c0-1.761.017-3.523-.017-5.284-.017-.637.151-.923.839-.889a29.1,29.1,0,0,1,5.687.2,3.609,3.609,0,0,1,2.533,5.469,2.7,2.7,0,0,1-1.292,1.158c-.621.268-.6.587-.285,1.09.788,1.241,1.543,2.533,2.332,3.774.335.537.268.755-.386.738h-.084c-2.7.067-2.7.067-3.976-2.332-.335-.621-.654-1.225-1.006-1.828-.218-.369-.369-.889-.973-.7-.537.168-.268.654-.336,1.006-.017,1.04-.034,2.063,0,3.1.017.52-.134.738-.7.772-2.332.1-2.332.117-2.332-2.231Z" transform="translate(-305.018 -383.941)"/>
      <path id="Path_2813" data-name="Path 2813" class="cls-4" d="M600.9,477.417c0-1.795.017-3.573,0-5.368,0-.57.168-.805.755-.805,2.734.05,2.147-.336,2.2,2.114.017.637,0,1.292.017,1.929,0,.185-.084.436.134.52.268.117.386-.151.52-.3,1.057-1.191,2.13-2.365,3.154-3.59a1.642,1.642,0,0,1,1.51-.671c.637.05,1.292,0,1.929.017.235,0,.554-.134.654.184.084.252-.168.386-.319.554-1.275,1.375-2.55,2.734-3.841,4.093-.822.872-.839.856-.05,1.795,1.426,1.694,2.852,3.372,4.261,5.066.134.168.386.3.268.554-.084.185-.4.134-.6.151-2.885.2-3.791-.168-4.9-2.2a16.359,16.359,0,0,0-1.929-2.432c-.185-.218-.319-.637-.671-.5-.3.1-.151.5-.151.755-.017,1.208-.034,2.4,0,3.607.017.587-.218.788-.788.772-2.617-.067-2.13.369-2.181-2.147C600.886,480.152,600.9,478.793,600.9,477.417Z" transform="translate(-362.335 -384.072)"/>
      <path id="Path_2814" data-name="Path 2814" class="cls-4" d="M454.648,481.419h-.335c-1.963,0-1.963,0-2.7,1.812-.084.2-.117.487-.369.52a9.448,9.448,0,0,1-2.835,0c-.386-.05-.168-.453-.067-.688,1.191-2.835,2.365-5.653,3.556-8.488.352-.856.721-1.694,1.074-2.533.117-.285.235-.587.6-.6q1.132-.025,2.265,0c.319,0,.453.252.57.52q2.315,5.611,4.647,11.206c.218.5.067.671-.436.654a4.479,4.479,0,0,1-.671,0c-2.483.034-2.5-.252-2.785-1.862a.671.671,0,0,0-.788-.57C455.823,481.435,455.236,481.419,454.648,481.419Z" transform="translate(-235.271 -384.232)"/>
      <path id="Path_2815" data-name="Path 2815" class="cls-4" d="M396.211,477.588c0-1.812.017-3.623-.017-5.435-.017-.6.151-.872.788-.839a41.069,41.069,0,0,1,5.183.134c3.137.5,3.724,2.382,3.338,4.848-.235,1.51-1.761,2.533-3.791,2.734a12.315,12.315,0,0,1-1.745.1c-.537-.017-.755.2-.738.738.034,1.057-.017,2.114.017,3.187.017.5-.168.671-.671.688-2.365.067-2.349.084-2.349-2.281C396.211,480.155,396.211,478.88,396.211,477.588Z" transform="translate(-191.999 -384.126)"/>
      <path id="Path_2816" data-name="Path 2816" class="cls-4" d="M334.334,482.341a6.914,6.914,0,0,1-3.942-1.208c-.47-.335-.688-.654-.151-1.124a6.457,6.457,0,0,0,.453-.5c.889-.939.889-.923,2-.268a2.722,2.722,0,0,0,2.55.386,1.131,1.131,0,0,0,.3-2.013,6.012,6.012,0,0,0-1.678-.738c-.335-.151-.688-.252-1.023-.369a3.278,3.278,0,0,1-2.466-3.12,3.439,3.439,0,0,1,2.181-3.539,6.189,6.189,0,0,1,5.938.4c.788.453.772.688.134,1.325a3.492,3.492,0,0,0-.352.352c-.52.7-1.04,1.09-1.862.319a2.067,2.067,0,0,0-1.678-.336,1.278,1.278,0,0,0-1.225.973c-.134.654.352.973.839,1.191.839.352,1.745.621,2.583.973a3.268,3.268,0,0,1,2.214,2.9,3.7,3.7,0,0,1-1.728,3.59A5.173,5.173,0,0,1,334.334,482.341Z" transform="translate(-136.848 -382.437)"/>
      <path id="Path_2817" data-name="Path 2817" class="cls-3" d="M165.513,477.424c0-1.795.034-3.573-.017-5.368-.017-.688.218-.856.872-.856,2.181.017,2.181-.017,2.181,2.2,0,2.231.017,4.479-.017,6.71-.017.654.185.889.856.872,1.09-.05,2.181,0,3.271-.017.453,0,.671.168.671.637-.034,2.483.3,2-1.845,2.03-1.728.017-3.472-.017-5.2.017-.587.017-.788-.185-.772-.772C165.529,481.064,165.513,479.235,165.513,477.424Z" transform="translate(0 -384.045)"/>
      <path id="Path_2818" data-name="Path 2818" class="cls-3" d="M219.911,477.47c0-1.812.017-3.64-.017-5.452-.017-.6.151-.839.788-.855,2.265-.034,2.265-.05,2.265,2.214,0,3.1-.017,6.207.017,9.31.017.755-.235.956-.956.939-2.114-.034-2.114,0-2.114-2.13C219.911,480.154,219.911,478.812,219.911,477.47Z" transform="translate(-45.273 -384.008)"/>
      <path id="Path_2819" data-name="Path 2819" class="cls-5" d="M552.144,488.251c-.05.017-.084.034-.134.05a5.12,5.12,0,0,1-1.879.285c-.47-.034-.738-.218-.755-.772-.067-2.063.554-2.533,2.567-1.879a1.557,1.557,0,0,1,.453.2C553.268,487.009,553.2,487.529,552.144,488.251Z" transform="translate(-319.481 -396.08)"/>
      <path id="Path_2820" data-name="Path 2820" class="cls-6" d="M566.252,488.3c0-.067.017-.134.017-.2a1.15,1.15,0,0,1,.6,1.325c-.1.453-.369.889-.973.839A1.264,1.264,0,0,0,566.252,488.3Z" transform="translate(-333.237 -398.11)"/>
      <path id="Path_2821" data-name="Path 2821" class="cls-7" d="M480.308,498.6c-1.426,0-1.426,0-.923-1.359.218-.57.419-1.158.637-1.728.084-.2.1-.5.352-.52.285-.034.285.3.352.486.3.788.537,1.594.872,2.348.252.587.134.839-.52.788A5.929,5.929,0,0,0,480.308,498.6Z" transform="translate(-260.982 -403.841)"/>
      <path id="Path_2822" data-name="Path 2822" class="cls-8" d="M414.3,487.526c0-1.426,0-1.426,1.124-1.426,1.527,0,2.231.453,2.214,1.409-.017.973-.772,1.459-2.315,1.459C414.3,488.969,414.3,488.969,414.3,487.526Z" transform="translate(-207.068 -396.445)"/>
    </g>
    <g id="lostar_logo" class="cls-1" transform="translate(688.668 2479.708)">
      <path id="Path_2823" data-name="Path 2823" class="cls-4" d="M642.44,106.415a1.019,1.019,0,0,1-.876.389,41.849,41.849,0,0,0-4.51.1,8.621,8.621,0,0,0-6.586,3.926,7.6,7.6,0,0,0-.973,4.185c-.032,4.153-.032,8.339-.032,12.492v.357q-.049.681-.681.681h-3.7c-.487,0-.681-.227-.681-.779v-4.153c0-2.888,0-5.775.065-8.631a14.424,14.424,0,0,1,.973-5.613,11.427,11.427,0,0,1,7.333-6.651,16.548,16.548,0,0,1,5.029-.584c1.265,0,2.531,0,3.764-.032a1.019,1.019,0,0,1,.876.389Z" transform="translate(-381.052 -34.265)"/>
      <path id="Path_2824" data-name="Path 2824" class="cls-3" d="M87.868,101.514a27.961,27.961,0,0,1-5.938-.13,24.187,24.187,0,0,1-10.74-4.218A24.666,24.666,0,0,1,60.646,80.359,25.065,25.065,0,0,1,80.308,51.937a24.764,24.764,0,0,1,18.624,3.342c.422.26.422.26.1.616q-6.278,6.23-12.524,12.524a41.924,41.924,0,0,0-4.283,5A17.961,17.961,0,0,0,78.686,84.9a19.091,19.091,0,0,0,5.062,12.3c1.2,1.4,2.531,2.661,3.829,3.926a3.449,3.449,0,0,0,.357.292C87.9,101.449,87.9,101.481,87.868,101.514Z" transform="translate(0)"/>
      <path id="Path_2825" data-name="Path 2825" class="cls-3" d="M166.564,96.958a24.964,24.964,0,0,1-6.035,16.353,24.625,24.625,0,0,1-7.852,6.165.468.468,0,0,1-.649-.1c-1.492-1.525-3.05-3.017-4.542-4.607a15.616,15.616,0,0,1-3.958-7.106,12.3,12.3,0,0,1,.649-7.917,12.549,12.549,0,0,1,2.4-3.277c1.557-1.752,3.245-3.407,4.9-5.062l9.507-9.507c.26-.26.357-.26.584.032a24.858,24.858,0,0,1,4.8,12.1C166.5,95.011,166.532,95.984,166.564,96.958Z" transform="translate(-55.952 -20.492)"/>
      <path id="Path_2826" data-name="Path 2826" class="cls-4" d="M556.456,128.477H550a10.749,10.749,0,0,1-4.056-.649,6.305,6.305,0,0,1-4.088-4.77,11.22,11.22,0,0,1,.227-5.678,5.541,5.541,0,0,1,5.159-4.153c1.655-.162,3.31-.162,4.964-.162h6.684c.292,0,.389-.032.292-.357a6.982,6.982,0,0,0-2.888-4.185,9.408,9.408,0,0,0-5.386-1.72c-1.233-.032-2.433,0-3.666-.032-.584,0-.779-.195-.779-.779v-3.18c0-.552.195-.746.746-.746,2.077,0,4.153-.065,6.23.065a11.572,11.572,0,0,1,10.707,9.7,33.662,33.662,0,0,1,.324,4.77v11.1c0,.649-.195.811-.844.811C561.258,128.477,558.857,128.477,556.456,128.477Zm-2.044-4.834h4.672c.26,0,.357-.032.357-.324V117.77c0-.227-.032-.324-.292-.324-2.855.032-5.71-.065-8.566.065a7.816,7.816,0,0,0-2.725.519,2.336,2.336,0,0,0-1.428,1.59,3.683,3.683,0,0,0-.032,1.785,2.258,2.258,0,0,0,1.525,1.817,6.868,6.868,0,0,0,1.979.357C551.394,123.675,552.887,123.643,554.412,123.643Z" transform="translate(-325.113 -34.231)"/>
      <path id="Path_2827" data-name="Path 2827" class="cls-4" d="M305.3,114.292a13.708,13.708,0,1,1,13.66,13.725A13.682,13.682,0,0,1,305.3,114.292Zm13.725,8.987a8.988,8.988,0,1,0-8.987-8.987A8.987,8.987,0,0,0,319.025,123.279Z" transform="translate(-165.487 -33.251)"/>
      <path id="Path_2828" data-name="Path 2828" class="cls-4" d="M406.55,128.511h-7.17c-.714,0-.876-.162-.876-.876V124.65c0-.681.162-.844.844-.844h12.1a13.5,13.5,0,0,0,2.79-.227c1.849-.357,2.628-1.493,2.369-3.569a2.293,2.293,0,0,0-1.655-1.979,10.078,10.078,0,0,0-3.407-.487h-5.775a11.574,11.574,0,0,1-3.8-.552,6.354,6.354,0,0,1-4.315-4.834,11.136,11.136,0,0,1,.26-5.743,5.474,5.474,0,0,1,5-4.088,39.651,39.651,0,0,1,4.8-.227H415.7c.714,0,.876.162.876.876v2.92c0,.779-.162.941-.908.941h-8.76a12.357,12.357,0,0,0-2.433.227c-1.914.357-2.5,1.428-2.271,3.309a2.721,2.721,0,0,0,2.239,2.369,14.2,14.2,0,0,0,4.056.324c2.174.032,4.348-.032,6.522.13a11.457,11.457,0,0,1,2.109.357,5.081,5.081,0,0,1,3.569,3.439,10.576,10.576,0,0,1,.292,6.489c-.746,2.79-2.725,4.25-5.451,4.8a12.683,12.683,0,0,1-2.466.227Z" transform="translate(-227.705 -34.265)"/>
      <path id="Path_2829" data-name="Path 2829" class="cls-4" d="M479.6,97.163V88.176c0-.714.162-.876.876-.876h3.472c.519,0,.746.195.746.714v3.7c0,.292.1.357.357.357h11.356c.746,0,.909.162.909.908v2.953c0,.681-.195.844-.844.844H485.148c-.324,0-.422.065-.389.389.032,2.531,0,5.029,0,7.56a23.8,23.8,0,0,0,.162,2.628,6,6,0,0,0,1.622,3.374,8.582,8.582,0,0,0,5.613,2.855,31.468,31.468,0,0,0,4.283.1c.746,0,.909.162.909.908v2.985c0,.584-.195.811-.779.811-1.914-.032-3.829.065-5.743-.065a11.619,11.619,0,0,1-10.707-9.279,28.169,28.169,0,0,1-.454-5.224C479.6,101.641,479.6,99.4,479.6,97.163Z" transform="translate(-283.234 -24.267)"/>
      <path id="Path_2830" data-name="Path 2830" class="cls-4" d="M245.729,85.378c.032,2.985-.065,6.684.065,10.35a7.628,7.628,0,0,0,6.489,7.657,13.03,13.03,0,0,0,2.758.26h4.9c.649,0,.844.195.844.811V107.6c0,.519-.227.746-.714.746-2.758-.032-5.516.1-8.274-.065a11.5,11.5,0,0,1-10.8-9.961,38.679,38.679,0,0,1-.292-4.737V73.308c0-.746.162-.908.909-.908h3.342c.584,0,.779.195.779.779Z" transform="translate(-121.846 -14.201)"/>
      <path id="Path_2831" data-name="Path 2831" class="cls-9" d="M564.27,155.687c-1.492,0-3.017.032-4.51-.065a6.869,6.869,0,0,1-1.979-.357,2.259,2.259,0,0,1-1.525-1.817,4.722,4.722,0,0,1,.032-1.785,2.207,2.207,0,0,1,1.428-1.59,7.141,7.141,0,0,1,2.725-.519c2.855-.13,5.71-.032,8.566-.065.26,0,.292.1.292.324v5.548c0,.292-.13.324-.357.324Z" transform="translate(-334.971 -66.276)"/>
      <path id="Path_2832" data-name="Path 2832" class="cls-10" d="M328.887,133.075a8.988,8.988,0,1,1,8.987-8.987A9.008,9.008,0,0,1,328.887,133.075Z" transform="translate(-175.349 -43.047)"/>
    </g>
    <g id="microsoft-azure-vector-logo" class="cls-11" transform="translate(657.26 2183.836)">
      <g id="Group_1113" data-name="Group 1113" transform="translate(15.1 231.5)">
        <path id="Path_2833" data-name="Path 2833" class="cls-3" d="M98.931,236.937c10.71-1.5,21.389-2.968,32.1-4.437-.031,9.425,0,18.849,0,28.274H98.9c.031-7.925-.031-15.881.031-23.837" transform="translate(-72.411 -232.5)"/>
        <path id="Path_2834" data-name="Path 2834" class="cls-12" d="M592.719,244.45a3.588,3.588,0,0,1,4.8-.8c-1.163.306-2.479.245-3.55.826-.918,1.285-.428,3-.581,4.5,2.142.031,4.253,0,6.4.031.031-1.561.061-3.091.061-4.651l1.132.031v4.559c1.132.031,2.234.031,3.366.061v.857c-1.132,0-2.264,0-3.366.031.031,3.3,0,6.579,0,9.884.092.887-.214,2.081.612,2.693.765.612,1.836.459,2.754.643v.826c-1.714.031-4.131-.337-4.406-2.417-.214-3.886-.031-7.772-.061-11.658h-6.426c0,4.712.031,9.425-.031,14.137-.275-.092-.765-.275-1.04-.337-.214-4.559-.061-9.18-.061-13.739-1.04-.184-2.54.367-3.121-.826,1.01-.061,2.05-.122,3.06-.153.061-1.5-.153-3.091.459-4.5" transform="translate(-413.527 -238.984)"/>
        <path id="Path_2835" data-name="Path 2835" class="cls-12" d="M257.331,243.5c.459.092,1.346.275,1.805.367,3.152,6.151,5.753,12.607,8.721,18.849,3.3-6.089,5.753-12.638,8.721-18.911.643,0,1.285-.031,1.928-.031v20.41l-1.377-.122c.031-6.273.092-12.515-.031-18.788-3,6.212-5.63,12.607-8.507,18.849h-1.255c-1.928-4.162-3.825-8.354-5.722-12.546a29.157,29.157,0,0,0-2.968-5.845c-.214,6.12-.061,12.24-.092,18.39-.306,0-.949.031-1.255.061.031-6.916,0-13.8.031-20.685" transform="translate(-183.188 -239.288)"/>
        <path id="Path_2836" data-name="Path 2836" class="cls-12" d="M339.831,244.3c.275,0,.826.031,1.071.031v2.723h-1.1c0-.918.031-1.836.031-2.754" transform="translate(-240.443 -239.843)"/>
        <path id="Path_2837" data-name="Path 2837" class="cls-3" d="M15.1,250.888c8.14-1.163,16.31-2.142,24.449-3.488.061,7.925,0,15.82.031,23.745-8.139.061-16.279-.092-24.419.092-.061-6.793,0-13.586-.061-20.349" transform="translate(-15.1 -242.841)"/>
        <path id="Path_2838" data-name="Path 2838" class="cls-12" d="M355.434,263.08c3.4-3.55,10.618-2.479,11.9,2.6-.245.092-.765.275-1.04.367-.918-4.9-8.262-5.508-10.71-1.591a8.519,8.519,0,0,0,.214,9.18c2.387,3.06,8.323,2.815,9.853-1.01.367-.765.673-1.775,1.775-1.561a7.077,7.077,0,0,1-9,5.263c-5.569-1.316-6.793-9.425-3-13.25" transform="translate(-249.774 -251.432)"/>
        <path id="Path_2839" data-name="Path 2839" class="cls-12" d="M339.854,262.3l1.1.031v14.81l-1.071.061c-.061-4.957-.061-9.914-.031-14.9" transform="translate(-240.467 -252.335)"/>
        <path id="Path_2840" data-name="Path 2840" class="cls-12" d="M408.83,262.4h1.132c.031.918.031,1.805.061,2.723,1.652-1.438,3.611-3.06,5.967-2.662.122.153.4.459.52.643-2.723.122-5.753,1.561-6.365,4.468-.4,3.3.031,6.671-.245,9.975-.275-.153-.765-.459-1.01-.581-.184-4.865-.031-9.7-.061-14.565" transform="translate(-288.329 -252.405)"/>
        <path id="Path_2841" data-name="Path 2841" class="cls-12" d="M439.581,262.286c-5.416,1.744-5.753,10.587-.734,13.035a6.224,6.224,0,0,0,6.763-1.071,7.966,7.966,0,0,0,.306-10.281,6.116,6.116,0,0,0-6.334-1.683m-.612-.734a7.466,7.466,0,0,1,7.65,1.652c3.06,3.274,2.846,9.119-.612,12-3.213,2.6-8.66,1.775-10.679-1.928-2.448-3.917-1.01-10.19,3.641-11.72" transform="translate(-305.921 -251.526)"/>
        <path id="Path_2842" data-name="Path 2842" class="cls-12" d="M492.45,262.053a8.619,8.619,0,0,1,8.139.061c1.377.734,1.652,2.417,2.05,3.764-1.775.031-1.377-2.295-2.693-3.029a7.073,7.073,0,0,0-6.762-.092,2.486,2.486,0,0,0,.061,4.315c2.6,1.346,5.814.979,8.323,2.54a3.723,3.723,0,0,1,1.132,4.468c-.765,1.683-2.723,2.234-4.376,2.509-2.6.4-5.691-.184-7.252-2.479-.581-.918-1.285-2.326.031-2.907.49,1.193.765,2.632,1.867,3.458,2.02,1.53,4.865,1.377,7.13.581a2.793,2.793,0,0,0,.673-4.835c-2.693-1.5-6.151-.979-8.69-2.785a3.4,3.4,0,0,1,.367-5.569" transform="translate(-344.929 -251.476)"/>
        <path id="Path_2843" data-name="Path 2843" class="cls-12" d="M545.252,262.061c-4.865.367-6.671,6.579-4.682,10.434,1.377,3.335,6.059,4.315,8.9,2.264,3-2.295,3.4-6.977,1.469-10.1a5.759,5.759,0,0,0-5.692-2.6m-2.264-.337a7.417,7.417,0,0,1,8.445,1.805,8.76,8.76,0,0,1-.306,11.077,7.342,7.342,0,0,1-9.914.337c-3.978-3.458-3.244-11.108,1.775-13.219" transform="translate(-378.453 -251.515)"/>
        <path id="Path_2844" data-name="Path 2844" class="cls-3" d="M15.254,328.8H39.673c.031,7.864,0,15.728.031,23.623-8.17-.734-16.279-2.264-24.419-3.244-.061-6.824-.061-13.586-.031-20.379" transform="translate(-15.193 -298.486)"/>
        <path id="Path_2845" data-name="Path 2845" class="cls-3" d="M98.9,352.6c.061-7.956-.061-15.942.061-23.9,10.679.061,21.389-.031,32.068.031v28.335c-10.74-1.377-21.45-2.938-32.13-4.468" transform="translate(-72.411 -298.417)"/>
        <path id="Path_2846" data-name="Path 2846" class="cls-3" d="M256.973,347.826h7.681c-1.224-3.213-2.387-6.457-3.764-9.578-1.469,3.091-2.54,6.4-3.917,9.578m2.356-12.026c1.1,0,2.173.031,3.274.061,2.815,6.824,5.661,13.647,8.66,20.41-1.071,0-2.142-.031-3.213-.031-.8-2.05-1.591-4.07-2.387-6.12-3.213.031-6.4,0-9.608.031-.826,2.05-1.652,4.07-2.479,6.12H250.7c2.876-6.824,5.722-13.678,8.629-20.471" transform="translate(-178.607 -303.345)"/>
        <path id="Path_2847" data-name="Path 2847" class="cls-3" d="M431.065,355.893c1.5-1.867,3.427-3.458,5.967-3.4,0,.826,0,1.652.031,2.479-2.2.092-4.774.949-5.416,3.335-.734,3.121-.214,6.334-.367,9.517h-2.632c-.031-4.957-.031-9.945,0-14.9H431.1v2.968Z" transform="translate(-302.088 -314.93)"/>
        <path id="Path_2848" data-name="Path 2848" class="cls-3" d="M460.737,359.34c3.274.061,6.518.061,9.792,0-.52-2.448-2.57-4.8-5.324-4.345-2.479-.122-3.978,2.2-4.468,4.345m-.7-3.794c2.57-3.244,8.078-3.58,10.893-.459a9.717,9.717,0,0,1,2.081,6.365c-4.1.031-8.17-.031-12.27.031.306,1.224.4,2.632,1.408,3.519,2.387,2.387,7.1,1.836,8.323-1.5.612.031,1.836.031,2.417.061-1.438,5.171-8.629,6.365-12.332,3a8.459,8.459,0,0,1-.52-11.016" transform="translate(-322.64 -315.226)"/>
        <path id="Path_2849" data-name="Path 2849" class="cls-3" d="M319.828,353.931c4.284-.031,8.537-.061,12.821.031-.092,1.652-1.377,2.754-2.387,3.947-2.54,2.907-5.11,5.814-7.619,8.751,3.4.643,6.854-.367,10.251.367,0,.428.031,1.316.031,1.775H319.4v-1.867c3.152-3.611,6.457-7.069,9.455-10.8-2.907-.245-5.845-.031-8.751-.214-.092-.459-.214-1.469-.275-1.989" transform="translate(-226.285 -315.906)"/>
        <path id="Path_2850" data-name="Path 2850" class="cls-3" d="M371.289,353.9c.857,0,1.744,0,2.632.031.061,3.672-.184,7.375.092,11.046,1.377,3.947,8.078,2.111,8.078-1.836.092-3.06,0-6.151.031-9.211h2.54v14.9h-2.326c-.061-.49-.153-1.5-.214-2.02a7.257,7.257,0,0,1-8.415,1.683c-1.775-.8-2.356-2.876-2.356-4.651-.122-3.335-.031-6.64-.061-9.945" transform="translate(-262.294 -315.906)"/>
      </g>
    </g>
    <g id="eea-logo-new" class="cls-1" transform="translate(19.988 2264.661)">
      <path id="Path_2851" data-name="Path 2851" class="cls-3" d="M216.2,183.08V142.9c.468-.025.517.37.69.591l20.4,29.122c.394.567.813.961-.222,1.4-6.8,2.956-13.6,5.962-20.375,8.943C216.57,183.007,216.471,183.007,216.2,183.08Z" transform="translate(-70.162 -1.127)"/>
      <path id="Path_2852" data-name="Path 2852" class="cls-3" d="M144.958,141.4v40.43c-.246.222-.468,0-.665-.074-6.726-2.957-13.427-5.913-20.154-8.87-.616-.271-.986-.419-.443-1.183q10.459-14.856,20.843-29.738A3.8,3.8,0,0,1,144.958,141.4Z" transform="translate(-0.251)"/>
      <path id="Path_2853" data-name="Path 2853" class="cls-3" d="M123.2,330.577c2.932-.985,5.741-1.922,8.525-2.883a1.734,1.734,0,0,1,1.4.123c3.819,1.7,7.662,3.351,11.481,5.075a2.035,2.035,0,0,0,1.848-.025c3.745-1.675,7.514-3.3,11.235-4.977a2.257,2.257,0,0,1,1.872-.1c2.685.961,5.4,1.848,8.4,2.858-1.971.862-3.671,1.626-5.4,2.39-5.4,2.39-10.816,4.755-16.212,7.145a1.685,1.685,0,0,1-1.5.123c-7.071-3.154-14.167-6.258-21.262-9.387C123.5,330.848,123.422,330.75,123.2,330.577Z" transform="translate(-0.075 -140.321)"/>
      <path id="Path_2854" data-name="Path 2854" class="cls-3" d="M123.1,293.7c3.129-1.059,6.012-2.045,8.919-3.03.419-.148.714.123,1.035.271,3.794,1.651,7.588,3.3,11.358,5a2.269,2.269,0,0,0,2.07-.025q5.617-2.513,11.259-4.952c.37-.148.665-.443,1.158-.271,2.883.986,5.79,1.971,9.017,3.055-2.193.986-4.114,1.848-6.036,2.685q-7.761,3.437-15.546,6.825a1.687,1.687,0,0,1-1.5.148q-10.57-4.693-21.139-9.338C123.568,294,123.47,293.921,123.1,293.7Z" transform="translate(0 -112.461)"/>
      <path id="Path_2855" data-name="Path 2855" class="cls-3" d="M145.114,373.638Q134.545,360.555,124,347.472a.75.75,0,0,0,.123-.172c1.478.665,2.957,1.33,4.435,1.971,5.322,2.365,10.619,4.755,15.94,7.12.517.222.887.443.887,1.133q-.037,7.982-.025,15.965A2.159,2.159,0,0,1,145.114,373.638Z" transform="translate(-0.678 -155.171)"/>
      <path id="Path_2856" data-name="Path 2856" class="cls-3" d="M216.1,373.665V357.848c0-.567.025-.986.665-1.257,6.775-3.006,13.551-6.036,20.326-9.042a2.432,2.432,0,0,1,.468-.049c-7.145,8.845-14.191,17.567-21.213,26.288A2.286,2.286,0,0,1,216.1,373.665Z" transform="translate(-70.087 -155.322)"/>
      <path id="Path_2857" data-name="Path 2857" class="cls-4" d="M652.955,285.507c-.591.887-1.232,1.725-1.749,2.636-.468.813-.739.641-1.133-.025a11.722,11.722,0,0,0-1.922-2.464c0,1.454-.049,2.907.025,4.336.025.788-.3.961-1.01.961-.739,0-1.133-.123-1.109-.986.049-2.291,0-4.583.025-6.9,0-.419-.32-1.158.394-1.232.739-.049,1.651-.443,2.193.542.468.813,1.01,1.577,1.478,2.414.419.739.69.616,1.035-.025.443-.788.961-1.528,1.4-2.316a1.175,1.175,0,0,1,1.059-.69c1.577-.074,1.552-.1,1.552,1.478v6.406c0,.69.172,1.306-.986,1.33-1.207.025-1.059-.641-1.059-1.4.025-1.355,0-2.685,0-4.041C653.1,285.531,653.029,285.507,652.955,285.507Z" transform="translate(-394.077 -105.746)"/>
      <path id="Path_2858" data-name="Path 2858" class="cls-4" d="M545.832,358.522c0,1.8-.049,3.277.025,4.73.049.912-.493.838-1.084.862-.641.025-.961-.074-.961-.862.049-2.341,0-4.681.025-7,0-.419-.345-1.109.345-1.232a1.732,1.732,0,0,1,2,.542c.961,1.38,2.02,2.685,3.03,4.016.148.2.3.37.714.887,0-1.7.049-3.055-.025-4.385-.049-.862.222-1.109,1.084-1.133.912,0,.961.419.961,1.109-.025,2.291,0,4.583-.025,6.874,0,.394.3,1.01-.345,1.133-.616.1-1.281.246-1.774-.443-1.084-1.478-2.217-2.932-3.351-4.41C546.325,359.039,546.177,358.916,545.832,358.522Z" transform="translate(-317.012 -160.923)"/>
      <path id="Path_2859" data-name="Path 2859" class="cls-4" d="M397.742,214.059c0-1.5.049-2.957-.025-4.385-.025-.838.443-.788,1.01-.788s1.035-.049,1.01.788c-.049,2.39,0,4.755-.025,7.145,0,.394.3,1.035-.32,1.158-.591.123-1.281.271-1.8-.419-1.059-1.454-2.193-2.883-3.277-4.312-.172-.222-.345-.419-.739-.887,0,1.774-.049,3.252.025,4.755.025.838-.345.912-1.035.936-.715,0-1.035-.123-1.01-.936.049-2.341,0-4.681.025-7.022,0-.394-.3-1.035.32-1.133.641-.1,1.38-.32,1.922.394,1.01,1.38,2.07,2.759,3.129,4.114C397.176,213.69,397.25,213.985,397.742,214.059Z" transform="translate(-202.282 -50.83)"/>
      <path id="Path_2860" data-name="Path 2860" class="cls-4" d="M524.975,290.838c-1.5.345-2.636.2-3.277-1.257a8.107,8.107,0,0,0-.739-1.133c-.37-.591-.936-.443-1.429-.37-.517.1-.3.591-.345.912a3.367,3.367,0,0,0,0,.862c.123.862-.246,1.109-1.109,1.109-.887,0-1.01-.37-.985-1.109q.037-3.511,0-7.022c0-.764.148-1.133,1.01-1.059,1.256.074,2.538,0,3.819.074a2.772,2.772,0,0,1,2.71,1.971,2.929,2.929,0,0,1-1.109,3.474c-.616.419-.493.69-.148,1.133C523.916,289.237,524.409,290,524.975,290.838Z" transform="translate(-296.919 -105.781)"/>
      <path id="Path_2861" data-name="Path 2861" class="cls-4" d="M518.99,213.579c0-1.232.025-2.464,0-3.7-.025-.591.074-.912.788-.887,1.355.049,2.71-.025,4.065.074a2.687,2.687,0,0,1,2.636,2.02,2.847,2.847,0,0,1-1.084,3.375c-.665.468-.517.764-.148,1.257.419.567.788,1.158,1.183,1.725.37.542.172.665-.394.714a2.179,2.179,0,0,1-2.341-1.109c-.419-.714-.591-1.774-1.749-1.823-.641-.025-1.035.123-.936.862.049.32-.025.665.025.985.074.739-.1,1.084-.985,1.109-.912,0-1.084-.345-1.059-1.158C519.015,215.87,518.99,214.736,518.99,213.579Z" transform="translate(-298.35 -50.941)"/>
      <path id="Path_2862" data-name="Path 2862" class="cls-4" d="M610.761,218.013c-1.7.443-2.685-.025-3.375-1.429-.3-.591-.517-1.4-1.528-1.355-.616.025-.911.172-.862.838.025.32-.025.665.025.985.1.838-.172,1.133-1.059,1.133-.912,0-.961-.419-.961-1.109.025-2.39.025-4.755,0-7.145,0-.665.148-.961.887-.936,1.281.049,2.538,0,3.819.074a2.81,2.81,0,0,1,2.784,2.02,2.981,2.981,0,0,1-1.158,3.449c-.517.37-.493.591-.148,1.059C609.677,216.338,610.169,217.126,610.761,218.013Z" transform="translate(-361.664 -50.941)"/>
      <path id="Path_2863" data-name="Path 2863" class="cls-4" d="M439.079,286.578c0,1.232-.049,2.464.025,3.7.025.788-.345.887-.961.838-.567-.025-1.232.148-1.158-.788v-.37c-.049-2.759-.025-2.735-2.883-2.513-.542.049-.714.222-.714.739.025.567-.025,1.158,0,1.725.025.69.074,1.257-.961,1.232-.961,0-1.158-.345-1.133-1.232.049-2.341.049-4.681,0-7-.025-.936.419-.961,1.109-.961.715-.025,1.109.172.986.961v.123c.049,2.759.049,2.759,2.833,2.538.591-.049.788-.271.764-.813-.025-.493.049-.985-.025-1.478-.172-1.133.32-1.429,1.38-1.33.591.049.764.271.764.813C439.055,284.04,439.079,285.3,439.079,286.578Z" transform="translate(-232.261 -105.906)"/>
      <path id="Path_2864" data-name="Path 2864" class="cls-4" d="M351.049,213.528c0-1.232.025-2.464,0-3.7-.025-.641.222-.862.862-.838,1.725.025,3.449.049,5.174,0,.69-.025.936.2.912.912,0,.641-.123.986-.887.936-1.01-.049-2.045.025-3.08-.025-.764-.049-.862.345-.862.961-.025.665.246.862.862.838.862-.049,1.725.025,2.587-.025.813-.049.813.394.813.985,0,.567-.049.936-.788.912-.813-.049-1.651.025-2.464-.025-.69-.049-1.01.1-1.035.912-.025.887.345,1.035,1.084.985,1.035-.049,2.045.025,3.08-.025.714-.049.813.3.788.887,0,.542-.049.936-.788.936q-2.772-.037-5.543,0c-.616,0-.764-.246-.764-.813C351.049,216.065,351.049,214.809,351.049,213.528Z" transform="translate(-171.751 -50.939)"/>
      <path id="Path_2865" data-name="Path 2865" class="cls-4" d="M351.192,286.43c0-1.183.025-2.39,0-3.572-.025-.641.123-.961.862-.961,1.774.049,3.523.049,5.3,0,.739-.025.764.37.764.912s0,.961-.764.912c-1.059-.049-2.143.025-3.2-.025-.641-.025-.838.222-.838.838,0,.641.123.985.887.936.813-.049,1.651.025,2.464-.025.665-.025.961.148.936.887-.025.69-.1,1.084-.936,1.01-.739-.074-1.478,0-2.217-.025-.665-.025-1.133-.025-1.158.936,0,.912.394,1.01,1.109.986,1.035-.025,2.045.025,3.08-.025.739-.049.788.345.788.887,0,.567-.074.936-.788.912q-2.772-.037-5.543,0c-.616,0-.739-.3-.739-.838Z" transform="translate(-171.894 -105.881)"/>
      <path id="Path_2866" data-name="Path 2866" class="cls-4" d="M478.193,213.456c0-1.183.025-2.39,0-3.572-.025-.616.148-.887.813-.887,1.774.025,3.523.049,5.3,0,.813-.025.813.394.838.985.025.641-.173.887-.838.838-1.059-.049-2.143.025-3.2-.025-.69-.025-.813.3-.813.887,0,.567.1.936.788.887.813-.049,1.651.025,2.464-.025.665-.025,1.059.025,1.059.887s-.32,1.059-1.084,1.01c-.739-.049-1.478.025-2.217-.025-.69-.049-1.035.1-1.035.912-.025.887.37,1.01,1.109.986,1.035-.049,2.045.049,3.08-.025.764-.049.764.345.788.912,0,.567-.074.936-.788.912-1.8-.025-3.6-.025-5.42,0-.69,0-.838-.3-.813-.887C478.218,215.994,478.193,214.713,478.193,213.456Z" transform="translate(-267.605 -50.942)"/>
      <path id="Path_2867" data-name="Path 2867" class="cls-4" d="M708.018,213.528c0-1.232.025-2.464,0-3.7-.025-.641.222-.862.862-.838,1.774.025,3.523.049,5.3,0,.714-.025.788.345.764.912,0,.517.025.961-.739.936-1.109-.049-2.217.025-3.326-.025-.69-.025-.838.3-.838.887s.1.936.788.912c.936-.049,1.9.025,2.833-.025.764-.025.714.443.714.961,0,.542,0,.986-.739.936-.912-.049-1.8.025-2.71-.025-.714-.049-.912.246-.912.936.025.616.074,1.01.862.985,1.109-.049,2.217.025,3.326-.025.764-.049.764.37.764.912,0,.567-.074.936-.788.912-1.8-.049-3.622-.025-5.42,0-.591,0-.788-.246-.764-.813C708.043,216.065,708.018,214.809,708.018,213.528Z" transform="translate(-440.789 -50.939)"/>
      <path id="Path_2868" data-name="Path 2868" class="cls-4" d="M634.993,359.627c0-1.232.025-2.464,0-3.7-.025-.665.148-.961.862-.936q2.587.074,5.174,0c.715-.025.887.246.912.936,0,.69-.2.961-.912.912-1.059-.049-2.143.025-3.2-.025-.69-.025-.838.271-.813.887,0,.567.074.936.788.912.936-.049,1.9.025,2.833-.025.739-.025.739.419.739.961s-.025.961-.764.936c-.912-.049-1.8.025-2.71-.025-.714-.049-.912.246-.912.936.025.616.074,1.01.862.985,1.109-.049,2.217.025,3.326-.025.69-.049.838.246.813.862-.025.517.025.985-.739.961q-2.772-.037-5.543,0c-.665,0-.714-.32-.714-.838C635.018,362.091,634.993,360.859,634.993,359.627Z" transform="translate(-385.774 -160.969)"/>
      <path id="Path_2869" data-name="Path 2869" class="cls-4" d="M560.719,286.479c0-1.232.025-2.464,0-3.7-.025-.616.148-.887.813-.887,1.749.049,3.523.049,5.3,0,.788-.025.838.37.838.986s-.172.887-.838.862c-1.109-.049-2.217.025-3.326-.025-.714-.025-.764.345-.788.912,0,.591.1.936.788.887.813-.049,1.651.025,2.464-.025.665-.025,1.035.1,1.059.912.025.887-.37,1.01-1.109.986-.69-.049-1.4.025-2.094-.025-.69-.025-1.133,0-1.133.936s.443.986,1.133.961c1.035-.025,2.045.025,3.08-.025.739-.049.764.345.764.912s-.025.936-.764.912c-1.8-.049-3.6-.025-5.42,0-.591,0-.813-.2-.788-.788C560.719,289.017,560.719,287.76,560.719,286.479Z" transform="translate(-329.78 -105.881)"/>
      <path id="Path_2870" data-name="Path 2870" class="cls-4" d="M476.725,286.481c0-1.232.025-2.464,0-3.7-.025-.567.172-.788.764-.788,1.8.025,3.6.025,5.42,0,.739-.025.739.394.764.936,0,.567-.049.936-.788.912-1.035-.049-2.045,0-3.08-.025-.616,0-1.059-.025-1.084.862-.025.986.493.936,1.133.912.788-.025,1.552.025,2.341-.025s.838.394.838.986-.1.936-.813.912c-.813-.049-1.651.025-2.464-.025-.665-.025-1.035.049-1.059.887-.025.862.32,1.059,1.084,1.01,1.035-.049,2.045.025,3.08-.025.69-.049.838.246.813.862,0,.616-.074.985-.838.961-1.749-.049-3.523-.049-5.3,0-.665.025-.838-.246-.838-.862C476.749,289.019,476.725,287.762,476.725,286.481Z" transform="translate(-266.482 -105.956)"/>
      <path id="Path_2871" data-name="Path 2871" class="cls-4" d="M503.558,363.908c-1.38.32-2.414.246-2.686-1.306-.1-.517-.468-.616-.912-.591a11.58,11.58,0,0,1-1.6,0c-1.059-.123-1.774.1-2.07,1.306-.32,1.257-1.4.542-2.39.764.69-1.626,1.306-3.08,1.922-4.509.567-1.355,1.183-2.71,1.725-4.065a.881.881,0,0,1,1.035-.641c.493.049,1.084-.222,1.38.493C501.094,358.217,502.326,361.05,503.558,363.908Z" transform="translate(-279.444 -160.865)"/>
      <path id="Path_2872" data-name="Path 2872" class="cls-4" d="M353.4,362.019c-1.232-.246-2.119,0-2.488,1.4-.271,1.035-1.306.641-1.872.468-.542-.148-.049-.764.1-1.109.986-2.39,2.045-4.73,3.006-7.12a1.289,1.289,0,0,1,1.4-.862,1.14,1.14,0,0,1,1.256.862c.986,2.414,2.045,4.8,3.055,7.219.123.32.665.838.123,1.01-.591.172-1.38.394-1.922-.246a.188.188,0,0,1-.049-.123C355.742,362.019,354.707,361.748,353.4,362.019Z" transform="translate(-170.087 -160.823)"/>
      <path id="Path_2873" data-name="Path 2873" class="cls-4" d="M562.122,213.6c0-1.281.025-2.538,0-3.819-.025-.567.2-.813.788-.788,1.158.049,2.291-.025,3.449.049a3.033,3.033,0,0,1,3.08,2.907,3.112,3.112,0,0,1-2.759,3.351l-.37.074c-.641.148-1.429-.246-1.9.2-.493.443-.172,1.232-.2,1.872-.025.887-.665.641-1.158.665-.517.025-.986.049-.961-.715C562.146,216.14,562.122,214.883,562.122,213.6Z" transform="translate(-330.838 -50.94)"/>
      <path id="Path_2874" data-name="Path 2874" class="cls-4" d="M600.772,285v-1.848c0-.69-.172-1.355.986-1.355,1.084,0,1.059.517,1.059,1.281-.025,1.355-.025,2.71.025,4.065s.764,2.094,1.922,2.094a1.9,1.9,0,0,0,1.946-2.094c.049-1.429.074-2.883,0-4.312-.025-.813.246-1.035,1.035-1.035.862-.025,1.035.345,1.01,1.084-.049,1.478.025,2.957-.025,4.435-.074,2.464-1.5,3.77-4.041,3.745-2.488,0-3.794-1.257-3.893-3.745C600.748,286.576,600.772,285.788,600.772,285Z" transform="translate(-359.979 -105.805)"/>
      <path id="Path_2875" data-name="Path 2875" class="cls-4" d="M670.789,217.813a4.84,4.84,0,0,1-2.907-.813c-.345-.222-1.109-.394-.493-1.035.37-.394.591-1.306,1.5-.591a3.16,3.16,0,0,0,2.439.641.92.92,0,0,0,.912-.714c.1-.517-.3-.739-.69-.887-.739-.271-1.5-.443-2.217-.69a2.421,2.421,0,0,1-1.9-2.661,2.662,2.662,0,0,1,2.168-2.488,5.119,5.119,0,0,1,3.794.591c.345.2.813.443.32.912-.37.345-.37,1.355-1.306.764a3.15,3.15,0,0,0-2.094-.517.843.843,0,0,0-.813.641.707.707,0,0,0,.567.838c.567.222,1.158.37,1.749.542,1.946.591,2.685,1.528,2.464,3.1C674.041,216.975,672.833,217.813,670.789,217.813Z" transform="translate(-410.014 -50.519)"/>
      <path id="Path_2876" data-name="Path 2876" class="cls-4" d="M589.2,359.094a4.562,4.562,0,0,1,2.365-4.213,4.962,4.962,0,0,1,5.149.123c.32.2,1.158.37.542,1.035-.394.443-.591,1.478-1.675.665a2.532,2.532,0,0,0-3.3.074,3.032,3.032,0,0,0-.665,3.5,2.547,2.547,0,0,0,3.942,1.01c.961-.714,1.33-.1,1.749.468.542.714-.271.912-.641,1.133a4.8,4.8,0,0,1-5.026.271A4.491,4.491,0,0,1,589.2,359.094Z" transform="translate(-351.264 -160.387)"/>
      <path id="Path_2877" data-name="Path 2877" class="cls-4" d="M393.027,281.99c.912,0,1.8.025,2.71,0,.69-.025,1.035.074,1.035.912,0,.764-.222,1.059-.985.961-.2-.025-.419.025-.616,0-1.01-.172-1.232.32-1.183,1.232.074,1.675-.025,3.351.025,5.026.025.813-.222,1.059-1.035,1.059-.838,0-1.158-.246-1.109-1.109.074-1.6-.074-3.2.049-4.78.1-1.207-.3-1.626-1.478-1.429-.813.123-1.454.049-1.306-1.109.074-.616.3-.739.838-.739C390.983,282.015,392.017,281.99,393.027,281.99Z" transform="translate(-200.474 -105.95)"/>
      <path id="Path_2878" data-name="Path 2878" class="cls-4" d="M398.1,359.458c0-1.183.049-2.39-.025-3.572-.074-.912.394-.961,1.109-.985.714,0,1.059.123,1.035.936-.049,1.8,0,3.622-.025,5.42-.025.69.172.961.887.936.912-.049,1.8.025,2.71-.025.665-.025.961.148.936.887-.025.69-.123,1.059-.936,1.01q-2.4-.074-4.8,0c-.714.025-.936-.246-.912-.936C398.126,361.922,398.1,360.69,398.1,359.458Z" transform="translate(-207.223 -160.899)"/>
      <path id="Path_2879" data-name="Path 2879" class="cls-4" d="M439.021,214.466v-1.232c0-2.168,0-2.193-2.143-2.365-.641-.049-.715-.345-.69-.862.025-.493-.123-1.01.69-1.01,2.045.025,4.114.025,6.159,0,.715-.025.788.37.764.912,0,.517.025.912-.739.961-2.02.1-2.02.148-2.02,2.217,0,1.4-.025,2.784.025,4.188.025.739-.3.912-.961.887-.616-.025-1.158.049-1.084-.862C439.046,216.363,439.021,215.4,439.021,214.466Z" transform="translate(-235.948 -50.942)"/>
      <path id="Path_2880" data-name="Path 2880" class="cls-4" d="M436.014,359.483c0-1.232.049-2.464-.025-3.7-.049-.887.443-.862,1.084-.887.616,0,.986.074.961.862-.049,1.8.025,3.622-.025,5.42-.025.838.271,1.084,1.059,1.01.862-.049,1.725.025,2.587-.025.764-.049.986.246.986.986,0,.69-.2.936-.912.912q-2.4-.074-4.8,0c-.69.025-.936-.2-.912-.912C436.063,361.946,436.014,360.714,436.014,359.483Z" transform="translate(-235.799 -160.899)"/>
      <path id="Path_2881" data-name="Path 2881" class="cls-4" d="M474.2,359.433c0-1.183.074-2.39-.025-3.572-.074-.936.443-.961,1.133-.961.665,0,1.059.049,1.035.887-.049,2.464-.049,4.927,0,7.367.025.862-.394.887-1.035.912-.714,0-1.183-.049-1.133-.961C474.252,361.9,474.2,360.665,474.2,359.433Z" transform="translate(-264.576 -160.899)"/>
      <path id="Path_2882" data-name="Path 2882" class="cls-4" d="M646.614,213.49c0-1.281.049-2.538-.025-3.819-.025-.838.493-.764,1.035-.788.591-.025,1.01,0,1.01.813-.049,2.488-.049,5,0,7.49.025.788-.345.862-.985.838-.641,0-1.109-.025-1.059-.887C646.663,215.954,646.614,214.722,646.614,213.49Z" transform="translate(-394.512 -50.853)"/>
      <path id="Path_2883" data-name="Path 2883" class="cls-13" d="M526.649,292.055a1.511,1.511,0,0,1-1.429-2.291c.2-.394.517-.3.838-.32a8.328,8.328,0,0,1,1.109,0c.813.025,1.5.345,1.528,1.257.025.961-.69,1.306-1.552,1.355Z" transform="translate(-302.905 -111.555)"/>
      <path id="Path_2884" data-name="Path 2884" class="cls-14" d="M528.489,216.454c1.4,0,2.143.468,2,1.355-.222,1.429-1.4,1.133-2.39,1.257-1.355.172-1.059-.714-1.158-1.5C526.764,216.158,527.7,216.478,528.489,216.454Z" transform="translate(-304.325 -56.551)"/>
      <path id="Path_2885" data-name="Path 2885" class="cls-13" d="M611.913,218.722c-.37-.123-1.059.271-1.232-.32-.173-.69-.394-1.749.1-2.094a2.876,2.876,0,0,1,2.685.025,1.049,1.049,0,0,1,.591,1.33c-.222.912-.961,1.01-1.725,1.035A1.881,1.881,0,0,1,611.913,218.722Z" transform="translate(-367.301 -56.208)"/>
      <path id="Path_2886" data-name="Path 2886" class="cls-15" d="M510.109,365c.443,1.109.764,1.9,1.109,2.759a4.813,4.813,0,0,1-2.217-.025C509.32,366.872,509.641,366.109,510.109,365Z" transform="translate(-290.824 -168.51)"/>
      <path id="Path_2887" data-name="Path 2887" class="cls-14" d="M363.4,368.888a9.88,9.88,0,0,1,.961-2.488c.419.1.443.493.542.764.2.517.788,1.207.493,1.552C364.952,369.184,364.139,368.839,363.4,368.888Z" transform="translate(-181.096 -169.566)"/>
      <path id="Path_2888" data-name="Path 2888" class="cls-16" d="M571.55,219.105c-.764.148-1.232-.074-1.059-1.059.123-.714-.468-1.8,1.084-1.675,1.38.123,2.045.468,2,1.429C573.5,219.056,572.61,219.13,571.55,219.105Z" transform="translate(-337.138 -56.492)"/>
    </g>
    <g id="OpenID_logo" class="cls-1" transform="translate(7359.494 1565.22)">
      <g id="g2202" transform="translate(-7034.409 849.41)">
        <path id="path2204" class="cls-4" d="M-8179.893,9815.426c-5.43-3.381-13.012-5.481-21.312-5.481-16.7,0-30.227,8.351-30.227,18.648,0,9.427,11.271,17.162,25.872,18.494v-5.431c-9.836-1.229-17.214-6.608-17.214-13.063,0-7.325,9.632-13.32,21.568-13.32a29.347,29.347,0,0,1,15.215,3.894l-5.533,3.433h17.266v-10.656Z" transform="translate(8231.432 -9795.139)"/>
        <path id="path2206" class="cls-4" d="M-5335.867,8158.463v46.365l8.66-5.431v-46.519Z" transform="translate(5361.739 -8152.878)"/>
      </g>
      <g id="g2208" transform="translate(-6972.014 870.251)">
        <path id="path2210" class="cls-3" d="M-1175.1,13606.3a13.906,13.906,0,0,1,2.6-5,12.926,12.926,0,0,1,4.446-3.421,13.582,13.582,0,0,1,6.157-1.3,13.681,13.681,0,0,1,6.225,1.3,12.674,12.674,0,0,1,4.378,3.421,13.908,13.908,0,0,1,2.6,5,18.552,18.552,0,0,1,.889,5.881,19.3,19.3,0,0,1-.889,5.952,14.176,14.176,0,0,1-2.6,4.926,12.66,12.66,0,0,1-4.378,3.42,13.668,13.668,0,0,1-6.225,1.3,13.569,13.569,0,0,1-6.157-1.3,12.911,12.911,0,0,1-4.446-3.42,14.174,14.174,0,0,1-2.6-4.926,19.3,19.3,0,0,1-.889-5.952,18.552,18.552,0,0,1,.889-5.881m2.6,10.737a12.2,12.2,0,0,0,2.052,4.243,10.7,10.7,0,0,0,3.489,3.01,10.641,10.641,0,0,0,5.062,1.093,10.925,10.925,0,0,0,5.13-1.093,11.454,11.454,0,0,0,3.489-3.01,13.378,13.378,0,0,0,1.984-4.243,19.343,19.343,0,0,0,.684-4.856,18.826,18.826,0,0,0-.684-4.788,12.739,12.739,0,0,0-1.984-4.24,10.572,10.572,0,0,0-3.489-3.009,10.89,10.89,0,0,0-5.13-1.1,10.607,10.607,0,0,0-5.062,1.1,9.933,9.933,0,0,0-3.489,3.009,11.659,11.659,0,0,0-2.052,4.24,18.768,18.768,0,0,0-.616,4.788A19.286,19.286,0,0,0-1172.5,13617.04Z" transform="translate(1175.987 -13596.588)"/>
        <path id="path2212" class="cls-3" d="M2179.877,14531.257v4.1h.069a7.14,7.14,0,0,1,3.01-3.488,8.984,8.984,0,0,1,4.72-1.232,9.525,9.525,0,0,1,4.31.889,8.519,8.519,0,0,1,3.079,2.53,12.008,12.008,0,0,1,1.778,3.626,15.4,15.4,0,0,1,.616,4.378,15.053,15.053,0,0,1-.616,4.379,11.974,11.974,0,0,1-1.778,3.626,8.509,8.509,0,0,1-3.079,2.53,10.511,10.511,0,0,1-4.31.89,14.18,14.18,0,0,1-2.395-.274,9.791,9.791,0,0,1-2.121-.889,7.748,7.748,0,0,1-1.847-1.5,5.958,5.958,0,0,1-1.163-2.052h-.068v12.04h-2.668v-29.552h2.463m14.5,7.524a9.94,9.94,0,0,0-1.231-3.011,8.355,8.355,0,0,0-2.257-2.121,5.9,5.9,0,0,0-3.215-.752,7.3,7.3,0,0,0-3.626.752,6.241,6.241,0,0,0-2.394,1.984,9.527,9.527,0,0,0-1.231,2.94,18.89,18.89,0,0,0-.342,3.489,13.621,13.621,0,0,0,.41,3.352,8.222,8.222,0,0,0,1.3,2.943,6.933,6.933,0,0,0,2.326,2.12,7.191,7.191,0,0,0,3.557.821,5.9,5.9,0,0,0,3.215-.821,7.414,7.414,0,0,0,2.257-2.12,9.524,9.524,0,0,0,1.231-2.943,13.608,13.608,0,0,0,0-6.634Z" transform="translate(-2147.451 -14522.295)"/>
        <path id="path2214" class="cls-3" d="M4584.461,14545.758a7.781,7.781,0,0,0,1.3,2.737,6.518,6.518,0,0,0,5.4,2.8,6.33,6.33,0,0,0,4.515-1.5,7.823,7.823,0,0,0,2.257-4.037h2.668a10.183,10.183,0,0,1-3.079,5.679,9.123,9.123,0,0,1-6.362,2.052,10.6,10.6,0,0,1-4.378-.89,7.974,7.974,0,0,1-3.078-2.53,10.458,10.458,0,0,1-1.71-3.626,15.062,15.062,0,0,1-.547-4.379,14.262,14.262,0,0,1,.547-4.172,11.422,11.422,0,0,1,1.71-3.694,8.814,8.814,0,0,1,3.078-2.6,9.621,9.621,0,0,1,4.378-.956,9.084,9.084,0,0,1,4.447,1.025,8.936,8.936,0,0,1,3.009,2.737,12.4,12.4,0,0,1,1.642,3.9,16.073,16.073,0,0,1,.41,4.446h-16.623a11.81,11.81,0,0,0,.41,3.011m13.066-8.072a8.526,8.526,0,0,0-1.368-2.463,7.331,7.331,0,0,0-2.121-1.71,6.559,6.559,0,0,0-2.873-.615,6.354,6.354,0,0,0-2.874.615,6.535,6.535,0,0,0-2.121,1.71,7.313,7.313,0,0,0-1.437,2.463,12.61,12.61,0,0,0-.683,2.874h13.955A9.713,9.713,0,0,0,4597.527,14537.686Z" transform="translate(-4530.008 -14522.295)"/>
        <path id="path2216" class="cls-3" d="M6888.556,14531.257v3.693h.069a6.718,6.718,0,0,1,2.735-3.146,8.045,8.045,0,0,1,4.242-1.163,11.8,11.8,0,0,1,3.762.547,5.891,5.891,0,0,1,2.463,1.71,6.2,6.2,0,0,1,1.3,2.6,13.735,13.735,0,0,1,.342,3.489v13.888h-2.6V14539.4a10.447,10.447,0,0,0-.273-2.6,5.521,5.521,0,0,0-.889-2.053,3.825,3.825,0,0,0-1.71-1.368,5.889,5.889,0,0,0-2.6-.479,6.353,6.353,0,0,0-2.874.547,5.729,5.729,0,0,0-2.052,1.506,6.847,6.847,0,0,0-1.368,2.394,9.8,9.8,0,0,0-.547,2.942v12.587h-2.6v-21.616Z" transform="translate(-6813.922 -14522.295)"/>
        <path id="path2218" class="cls-3" d="M9101.4,13673.149v29.894h-2.806v-29.894Z" transform="translate(-9006.785 -13672.466)"/>
        <path id="path2220" class="cls-3" d="M9667.818,13673.149c4.584.067,8,1.368,10.33,3.831,2.257,2.463,3.421,6.157,3.421,11.082,0,4.994-1.164,8.688-3.421,11.15-2.325,2.462-5.746,3.693-10.33,3.83h-10.329v-29.894h10.329m-1.368,27.433a19.235,19.235,0,0,0,5.542-.685,9.258,9.258,0,0,0,3.831-2.189,9.838,9.838,0,0,0,2.188-3.9,24.2,24.2,0,0,0,0-11.424,8.968,8.968,0,0,0-2.188-3.9,8.568,8.568,0,0,0-3.831-2.189,19.1,19.1,0,0,0-5.542-.751h-6.087v25.038Z" transform="translate(-9560.692 -13672.466)"/>
      </g>
    </g>
    <g id="ratel_logo" class="cls-1" transform="translate(933.357 2237.042)">
      <path id="Path_2889" data-name="Path 2889" class="cls-3" d="M163.521,234.881a17.975,17.975,0,0,0-7.571-1.745,14.161,14.161,0,0,0-13.481,12.975c-.056.957-.338,1.154-1.21,1.126-2.2-.056-4.419-.056-6.614,0-.76.028-1.069-.225-1.182-.985A51.6,51.6,0,0,1,161.8,191.622c.366-.169.788-.281,1.182-.422.619.169.844.7,1.126,1.182a40.439,40.439,0,0,1,5.8,16.859,39.713,39.713,0,0,1-5.094,24.2C164.478,234.008,164.225,234.655,163.521,234.881Z" transform="translate(0 -12.26)"/>
      <path id="Path_2890" data-name="Path 2890" class="cls-4" d="M240.463,222.621a42.246,42.246,0,0,0,5.432-13.594,39.3,39.3,0,0,0-5.432-29.13c-.2-.31-.366-.647-.563-.957a47.206,47.206,0,0,1,16.1-4.475,40.727,40.727,0,0,1,9.794-.056c.31.619,0,1.182-.169,1.773a35.464,35.464,0,0,0,1.689,24.88c.422.957,1.295,1.745,1.238,2.927a33.657,33.657,0,0,0-8.781,16.042,32.152,32.152,0,0,0-.225,13.509c.225,1.126.113,1.52-1.182,1.464-3.237-.113-6.473-.028-9.682-.028-.535,0-1.126.169-1.154-.76C247.274,229.094,244.656,225.351,240.463,222.621Z" transform="translate(-76.941)"/>
      <path id="Path_2891" data-name="Path 2891" class="cls-3" d="M329.58,204.68a32.334,32.334,0,0,1-4.756-16.127,34.741,34.741,0,0,1,1.97-13.453,48.758,48.758,0,0,1,23.839,8.078,51,51,0,0,1,13.087,12.215c.253.338.478.675.7,1.041.056.056,0,.169.028.394a56.277,56.277,0,0,0-6.361-1.492,32.86,32.86,0,0,0-27.047,8.078C330.565,203.836,330.087,204.258,329.58,204.68Z" transform="translate(-137.942 -0.691)"/>
      <path id="Path_2892" data-name="Path 2892" class="cls-17" d="M410.7,215.258a1.578,1.578,0,1,1,3.152-.141,1.451,1.451,0,0,1-1.52,1.632A1.468,1.468,0,0,1,410.7,215.258Z" transform="translate(-199.67 -28.353)"/>
      <rect id="Rectangle_106" data-name="Rectangle 106" class="cls-18" width="108.723" height="36.757" transform="translate(201.742 198.247)"/>
      <text id="ratel" class="cls-19" transform="translate(201.742 229.448)"><tspan x="0" y="0">ratel</tspan></text>
    </g>
    <g id="quorum_logo" transform="translate(263.568 2296.361)">
      <path id="Path_4952" data-name="Path 4952" class="cls-20" d="M350.107,118.234c0-1.459.272-1.9-1.113-1.88-7.025.025-14.025.025-21.05,0-1.435,0-1.9.569-1.9,1.929q.074,7.272,0,14.545c0,1.41.569,1.9,1.954,1.9,4.65-.049,9.326-.049,13.976,0,2.6.025,3.908,1.41,3.71,3.785a3.066,3.066,0,0,1-3.191,3.141q-9.833.037-19.715-.074c-2.226-.025-3.488-1.435-3.562-3.908-.1-2.869-.049-5.739-.049-8.608,0-4.972-.025-9.944,0-14.916.025-3.24,1.138-4.354,4.378-4.378l30.4-.074c2.672,0,3.908,1.138,3.884,3.834-.124,13.506-.223,27.036-.445,40.542-.025,2.152-.049,4.329-.1,6.481-.025.891.322,1.262,1.212,1.262q10.426-.037,20.852-.025c.965,0,1.385-.47,1.385-1.41V144.875c0-1.435-1.014-1.385-2-1.385H364.949c-1.88,0-3.216-.717-3.71-2.622a3.223,3.223,0,0,1,3.067-4.279q10.055-.111,20.086,0c2.1.025,3.24,1.558,3.24,4.156,0,4.452-.1,8.9-.1,13.382-.025,3.513.025,7,.025,10.513,0,2.82-1.237,4.106-4.081,4.131q-14.545.037-29.09,0c-2.8,0-4.205-1.484-4.205-4.279V145.765" transform="translate(-26.075)"/>
      <path id="Path_4953" data-name="Path 4953" class="cls-20" d="M514.788,386.929v-4.972c0-.519.2-1.36.742-.965.2.148.272.346.47.495.717.594,1.806-.668,2.647-.792a3.908,3.908,0,0,1,3.438.742c.594.519.989.173,1.509-.1,3.142-1.583,5.541-.2,5.615,3.265.049,2.3.025,4.576.025,6.877,0,.792-.049,1.608-1.138,1.633-1.187.025-1.039-.866-1.039-1.608,0-2.226.025-4.452.025-6.679,0-1.187-.223-2.276-1.732-2.2-1.361.049-2.3.618-2.276,2.226.049,2.028.049,4.081,0,6.11-.025.891.322,2.325-1.163,2.152-1.262-.148-.94-1.41-.965-2.2-.074-1.9-.025-3.809.025-5.739.025-1.311-.173-2.523-1.855-2.523-1.558,0-2.276.816-2.2,2.424.074,2.1.025,4.205,0,6.308,0,.866.223,1.806-1.262,1.707-1.064-.074-.841-1.064-.866-1.756,0-1.459.025-2.944,0-4.4Z" transform="translate(-173.317 -203.887)"/>
      <path id="Path_4954" data-name="Path 4954" class="cls-20" d="M296.154,376.828c-.124,2.845-.1,5.368-2.944,6.9-1.064.569-.1,1.014.272,1.41.445.47,1.484,1.039.519,1.806a1.47,1.47,0,0,1-2.3-.47,4.777,4.777,0,0,0-3.315-2.251c-1.88-.421-2.845-2.053-3.364-3.834a12.99,12.99,0,0,1-.173-6.6c.767-3.29,2.82-5,5.838-4.9a5.827,5.827,0,0,1,5.417,5.467A16.522,16.522,0,0,1,296.154,376.828Zm-2.35-.346a14.657,14.657,0,0,0-.272-3.092,3.1,3.1,0,0,0-2.968-2.523,2.828,2.828,0,0,0-3.043,2.127,12.432,12.432,0,0,0,.173,8.039,2.653,2.653,0,0,0,2.894,1.707,2.865,2.865,0,0,0,2.746-2A12.015,12.015,0,0,0,293.8,376.482Z" transform="translate(0 -195.072)"/>
      <path id="Path_4955" data-name="Path 4955" class="cls-20" d="M395.97,387.7a8.178,8.178,0,0,1-.915,4.255,4.23,4.23,0,0,1-7.47-.025,7.879,7.879,0,0,1-.792-3.686,12.385,12.385,0,0,1,.668-4.4c.693-1.954,2.523-2.523,4.873-2.2,2.028.3,2.869,1.806,3.364,3.587A11.84,11.84,0,0,1,395.97,387.7Zm-7.124.4a12.586,12.586,0,0,0,.247,2.276,2.281,2.281,0,0,0,2.251,1.9c1.237,0,1.855-.792,2.177-1.954a10.112,10.112,0,0,0-.049-5.294,2.158,2.158,0,0,0-2-1.707,2.19,2.19,0,0,0-2.226,1.385C388.747,385.7,388.92,386.739,388.846,388.1Z" transform="translate(-76.985 -204.612)"/>
      <path id="Path_4956" data-name="Path 4956" class="cls-20" d="M350.522,388.129c0,1.583.025,3.191,0,4.774-.025.965-.544,1.633-1.435.866-.693-.594-.989-.47-1.534-.1-2.6,1.707-5.442.173-5.541-3.092-.049-2.3-.025-4.6,0-6.877,0-.742-.1-1.657,1.039-1.707,1.311-.049,1.113.99,1.113,1.756.025,2.028.025,4.081,0,6.11,0,1.336-.049,2.671,1.83,2.721,1.583.025,2.177-.742,2.2-2.82.025-1.855-.049-3.71.025-5.541.025-.866-.346-2.177,1.113-2.2,1.633-.025,1.138,1.36,1.212,2.276.049,1.286,0,2.548-.025,3.834Z" transform="translate(-43.262 -204.939)"/>
      <path id="Path_4957" data-name="Path 4957" class="cls-20" d="M434.625,387.7V382.93c0-.519.3-1.187.693-1.039a1.147,1.147,0,0,1,.519.594c.346.767,1.732-.717,2.548-.792a6.286,6.286,0,0,1,.965-.025c.668.049,1.558-.124,1.509.94-.025.89-.742,1.014-1.509,1.088-2.523.223-2.647.4-2.671,2.894,0,1.979,0,3.933-.025,5.912,0,.767-.173,1.435-1.138,1.385-.89-.049-.915-.742-.915-1.385.025-1.633.025-3.216.025-4.8Z" transform="translate(-112.968 -204.687)"/>
      <path id="Path_4958" data-name="Path 4958" class="cls-20" d="M476.422,387.329c0,1.583.025,3.191,0,4.774-.025.965-.544,1.633-1.435.866-.693-.594-.99-.47-1.534-.1-2.6,1.707-5.442.173-5.541-3.092-.049-2.3-.025-4.6,0-6.877,0-.742-.1-1.657,1.039-1.707,1.311-.049,1.113.99,1.113,1.756.025,2.028.025,4.081,0,6.11,0,1.336-.049,2.671,1.83,2.721,1.583.025,2.177-.742,2.2-2.82.025-1.855-.049-3.71.025-5.541.025-.866-.346-2.177,1.113-2.2,1.633-.025,1.138,1.36,1.212,2.276.05,1.286-.025,2.573-.025,3.834Z" transform="translate(-138.019 -204.337)"/>
    </g>
    <g id="elixir_logo" transform="translate(264.19 2319.272)">
      <g id="Layer_3" transform="translate(152.459 200.7)">
        <path id="Path_5360" data-name="Path 5360" class="cls-21" d="M175.226,200.7c-.165,1.322-.3,2.259-.358,3.2a16.64,16.64,0,0,0,4.656,12.507c2.59,2.893,5.482,5.482,8.265,8.21,1.13,1.13,2.259,2.231,3.416,3.361,4.518,4.463,5.234,9.725,3.306,15.538a21.542,21.542,0,0,1-41.847-3.609c-.716-5.289.523-10.138,2.59-14.849A58.383,58.383,0,0,1,173.9,201.582,9.533,9.533,0,0,1,175.226,200.7Z" transform="translate(-152.458 -200.7)"/>
      </g>
      <g id="Layer_2" transform="translate(205.195 213.609)">
        <path id="Path_5361" data-name="Path 5361" class="cls-20" d="M555.83,291.8c1.35-.22,2.342.468,3.168,1.791,1.515,2.4,3.223,4.683,4.794,7.053.5.744.771.689,1.24,0,1.625-2.452,3.333-4.849,4.986-7.273A4.342,4.342,0,0,1,575,291.991c.937.468.634,1.1.22,1.708-1.13,1.681-2.287,3.333-3.416,4.986-1.35,1.956-2.672,3.94-4.077,5.9a1.407,1.407,0,0,0,0,1.928c2.617,3.747,5.207,7.548,7.8,11.35.331.5.964.992.551,1.708-.358.634-1.1.551-1.736.634a4.062,4.062,0,0,1-4.49-2.094c-1.543-2.59-3.416-4.986-5.069-7.548-.634-.964-.909-.771-1.433.055q-2.81,4.174-5.7,8.265a4.446,4.446,0,0,1-4.986,1.019c-.826-.523-.386-1.1-.028-1.625,1.736-2.535,3.471-5.069,5.234-7.6.937-1.35,1.846-2.755,2.838-4.077a1.407,1.407,0,0,0,.028-1.928c-2.342-3.389-4.656-6.832-6.942-10.248-.386-.579-1.157-1.157-.8-1.928.413-.909,1.433-.606,2.2-.716C555.334,291.77,555.472,291.8,555.83,291.8Z" transform="translate(-494.804 -279.527)"/>
        <path id="Path_5362" data-name="Path 5362" class="cls-20" d="M454.736,265.717V249.739c0-1.68.386-2.039,2.287-2.039,1.873,0,2.259.358,2.259,2.094v30.3a13.93,13.93,0,0,0,.055,1.515c.3,2.424,1.4,3.278,3.829,3,1.818-.22,2.176.028,2.424,1.763.193,1.212-.358,1.791-1.984,2.039a11.15,11.15,0,0,1-1.653.138c-4.491.055-7.163-2.507-7.218-7C454.68,276.268,454.736,270.979,454.736,265.717Z" transform="translate(-424.179 -247.661)"/>
        <path id="Path_5363" data-name="Path 5363" class="cls-20" d="M715.16,295.17a14.574,14.574,0,0,1,3.03-2.838,6.011,6.011,0,0,1,2.975-.937c2.782-.055,3.8,1.267,3,3.94-.248.826-.634,1.212-1.6.937a5.613,5.613,0,0,0-6.8,2.452,2.488,2.488,0,0,0-.3,1.57v17.631c0,1.736-.386,2.094-2.231,2.094-1.873,0-2.287-.358-2.287-2.039-.028-6.694-.028-13.416-.11-20.111a20.154,20.154,0,0,0-.441-3.829c-.193-.964-.083-1.57.937-1.9,1.543-.5,2.534-.358,3,.689A12.792,12.792,0,0,1,715.16,295.17Z" transform="translate(-609.367 -279.317)"/>
        <path id="Path_5364" data-name="Path 5364" class="cls-20" d="M518.873,306.2v12.4c0,1.543-.441,1.928-2.259,1.928s-2.314-.386-2.314-1.928V294.08c0-1.625.468-2.011,2.369-1.984,1.791.028,2.2.358,2.2,1.984C518.9,298.13,518.873,302.152,518.873,306.2Z" transform="translate(-467.352 -279.825)"/>
        <path id="Path_5365" data-name="Path 5365" class="cls-20" d="M665.546,306.339V318.6c0,1.57-.441,1.928-2.259,1.928-1.791,0-2.287-.386-2.287-1.928V293.942c0-1.488.5-1.873,2.342-1.846,1.763.028,2.2.358,2.2,1.846Z" transform="translate(-573.637 -279.825)"/>
        <path id="Path_5366" data-name="Path 5366" class="cls-20" d="M518.714,250.406c0,2.59-1.873,3.719-4.27,2.59a1.091,1.091,0,0,1-.744-1.047v-3.03a1.385,1.385,0,0,1,.165-.661c.413-.634,2.534-.909,3.8-.523.964.275,1.074,1.019,1.019,1.846C518.686,249.855,518.714,250.131,518.714,250.406Z" transform="translate(-466.917 -247.557)"/>
        <path id="Path_5367" data-name="Path 5367" class="cls-20" d="M665.284,250.632c-.138.716.413,1.791-.579,2.287a4.781,4.781,0,0,1-3.747.055.821.821,0,0,1-.606-.689c-.028-1.24-.028-2.479.028-3.719.028-.386.386-.606.744-.744a4.9,4.9,0,0,1,1.074-.193C664.953,247.491,665.284,247.794,665.284,250.632Z" transform="translate(-573.155 -247.59)"/>
        <path id="Path_5368" data-name="Path 5368" class="cls-20" d="M365.377,295.73c-2.259-3.526-5.73-4.463-9.67-4.353-5.675.165-9.56,3.141-11.02,8.6a23.188,23.188,0,0,0-.138,11.571,10.213,10.213,0,0,0,8.54,8.265,20.385,20.385,0,0,0,10.055-.523,9.512,9.512,0,0,0,2.948-1.46c1.24-.909.579-1.818.028-2.755s-1.185-1.322-2.231-.634a12.654,12.654,0,0,1-3.967,1.543c-6.254,1.433-10.276-1.185-11.02-7.163-.11-.937.138-1.185,1.047-1.185,2.535.055,5.042.028,7.576.028h7.438a2.427,2.427,0,0,0,2.59-2.287C367.636,301.984,367.25,298.651,365.377,295.73Zm-5.069,8.044H349.839c-.523,0-1.019.083-.937-.744.523-5.455,3.526-8.347,8.761-7.6,2.755.386,4.38,2.342,4.931,5.675C363.035,303.775,363.035,303.775,360.308,303.775Z" transform="translate(-343.884 -279.299)"/>
      </g>
    </g>
  </g>
</svg>
