<svg xmlns="http://www.w3.org/2000/svg" viewBox="0 0 1366.501 373.373"><defs><style>.a{fill:#f6f8fb;}</style></defs><path class="a" d="M-1293.467-5474.572c-92.254,0-194.853-1.718-304.949-5.107-88.066-2.712-181.1-6.493-276.5-11.238-84.938-4.225-156-8.444-200.661-11.239-48.227-3.018-77.142-5.088-77.42-5.108v-340.68c.153.048,17.745,5.577,49.695,13.639,18.839,4.753,38.948,9.456,59.768,13.979,26.035,5.656,53.274,11.048,80.959,16.025,70.469,12.669,144.226,22.764,219.223,30,44.522,4.3,89.987,7.625,135.131,9.888,49.649,2.489,100.135,3.75,150.053,3.75,50.843,0,102.368-1.309,153.142-3.891,54.465-2.77,109.515-7.078,163.623-12.8,28.388-3,57.1-6.461,85.34-10.274,29.1-3.929,58.531-8.35,87.479-13.139,29.794-4.93,59.891-10.385,89.456-16.215,30.408-6,61.117-12.558,91.273-19.5l.617-.142.742-.171v329.237l-.371.081-.988.214C-888.5-5485.573-1058.612-5474.573-1293.467-5474.572Z" transform="translate(2153.001 5847.945)"/></svg>