<svg xmlns="http://www.w3.org/2000/svg" viewBox="0 0 37.161 31.168">
  <defs>
    <style>
      .cls-1 {
        fill: #d3d3d3;
      }

      .cls-2 {
        fill: #b7b7b7;
      }

      .cls-3 {
        fill: #fff;
      }
    </style>
  </defs>
  <g id="telegram_icon" transform="translate(-266.753 -257.514)">
    <path id="path" class="cls-1" d="M86.556,107.053c-1.107,0-.919-.418-1.3-1.472L82,94.867,107.06,80" transform="translate(194.173 179.74)"/>
    <path id="Path_4564" data-name="Path 4564" class="cls-2" d="M98,153.119a2.189,2.189,0,0,0,1.709-.854l4.556-4.43-5.683-3.427" transform="translate(182.73 133.675)"/>
    <path id="Path_4565" data-name="Path 4565" class="cls-3" d="M63.477,92.749l13.771,10.175c1.572.867,2.706.418,3.1-1.459l5.606-26.416c.574-2.3-.877-3.345-2.381-2.662L50.654,85.079c-2.247.9-2.234,2.155-.41,2.713l8.447,2.636L78.247,78.091c.923-.56,1.771-.259,1.075.358" transform="translate(217.834 185.333)"/>
  </g>
</svg>
