<svg xmlns="http://www.w3.org/2000/svg" xmlns:xlink="http://www.w3.org/1999/xlink" viewBox="0 0 1090 676"><defs><style>.a{fill:#eaf0f8;}.b{fill:url(#a);}.c,.p,.q,.r,.s,.t,.u,.v{fill:none;}.d{fill:#b3c452;}.e{fill:#f4ad02;}.f{fill:#ffc99b;}.g{fill:#cb67e5;}.h{fill:#eb5e89;}.i{fill:#49abe5;}.j{fill:#cbaddb;}.k{fill:url(#b);}.l{fill:url(#e);}.m{fill:url(#f);}.n{fill:#0581f0;}.o{fill:url(#g);}.p{stroke:#b3c452;}.p,.q,.r,.s,.t,.u,.v{stroke-width:2px;}.q{stroke:#49abe5;}.r{stroke:#eb5e89;}.s{stroke:#caaddb;}.t{stroke:#f4ad02;}.u{stroke:#ffc99b;}.v{stroke:#cb67e5;}.w{fill:#839fb7;font-size:24px;font-family:Muli-Bold, Muli;letter-spacing:-0.05em;font-weight:700;}.x{font-family:Muli-Regular, Muli;font-weight:400;}.y{fill:#ffca9b;}.aa,.ab,.z{stroke:none;}.aa{fill:#cddcf0;}.ab{fill:#e8f2ff;}.ac{filter:url(#c);}</style><radialGradient id="a" cx="0.5" cy="0.5" r="0.5" gradientUnits="objectBoundingBox"><stop offset="0" stop-color="#f3f7fc"/><stop offset="0.517" stop-color="#edf2f7"/><stop offset="1" stop-color="#c2d2e2"/></radialGradient><linearGradient id="b" x1="0.49" y1="0.992" x2="0.5" y2="0.527" gradientUnits="objectBoundingBox"><stop offset="0" stop-color="#ccc"/><stop offset="1" stop-color="#fff"/></linearGradient><filter id="c" x="550.346" y="261.239" width="129.559" height="151.022" filterUnits="userSpaceOnUse"><feOffset dy="3" input="SourceAlpha"/><feGaussianBlur stdDeviation="3" result="d"/><feFlood flood-color="#8dbcff"/><feComposite operator="in" in2="d"/><feComposite in="SourceGraphic"/></filter><linearGradient id="e" x1="0.409" y1="0.926" x2="0.451" y2="0.624" gradientUnits="objectBoundingBox"><stop offset="0" stop-color="#f4f4f4"/><stop offset="1" stop-color="#d1d1d1"/></linearGradient><linearGradient id="f" x1="0.49" y1="0.992" x2="0.506" y2="0.005" gradientUnits="objectBoundingBox"><stop offset="0" stop-color="#277dd8"/><stop offset="1" stop-color="#2bc1fa"/></linearGradient><linearGradient id="g" x1="0.563" y1="0.5" x2="0.583" y2="-0.421" gradientUnits="objectBoundingBox"><stop offset="0" stop-color="#fff"/><stop offset="1" stop-color="#d5d5d5"/></linearGradient></defs><g transform="translate(44 -6629)"><g transform="translate(-170.844 -967.844)"><path class="a" d="M299.969,0C465.637,0,599.938,134.3,599.938,299.969s-134.3,299.969-299.969,299.969S0,465.637,0,299.969,134.3,0,299.969,0Z" transform="translate(442.375 7629.375)"/><path class="b" d="M208.544,0C323.72,0,417.089,93.369,417.089,208.544S323.72,417.089,208.544,417.089,0,323.72,0,208.544,93.369,0,208.544,0Z" transform="translate(533.799 7720.799)"/><g class="c" transform="translate(511.932 7698.932)"><path class="z" d="M230.412,0C357.664,0,460.823,103.159,460.823,230.412S357.664,460.823,230.412,460.823,0,357.664,0,230.412,103.159,0,230.412,0Z"/><path class="aa" d="M 230.4116058349609 459.8231811523438 C 245.9775543212891 459.8231811523438 261.5334167480469 458.2550659179688 276.6471252441406 455.1623840332031 C 291.3761901855469 452.1483764648438 305.8641967773438 447.6510314941406 319.7086791992188 441.7953186035156 C 333.3020324707031 436.0457763671875 346.4129028320312 428.929443359375 358.6771240234375 420.6438903808594 C 370.8250732421875 412.4368896484375 382.2484741210938 403.01171875 392.6300659179688 392.6300659179688 C 403.01171875 382.2484741210938 412.4368896484375 370.8250732421875 420.6438903808594 358.6771240234375 C 428.929443359375 346.4129028320312 436.0457763671875 333.3020324707031 441.7953186035156 319.7086791992188 C 447.6510314941406 305.8641967773438 452.1483764648438 291.3761901855469 455.1623840332031 276.6471252441406 C 458.2550659179688 261.5334167480469 459.8231811523438 245.9775543212891 459.8231811523438 230.4116058349609 C 459.8231811523438 214.8456573486328 458.2550659179688 199.2897796630859 455.1623840332031 184.1760711669922 C 452.1483764648438 169.447021484375 447.6510314941406 154.9590148925781 441.7953186035156 141.1145477294922 C 436.0457763671875 127.5211944580078 428.929443359375 114.4103088378906 420.6438903808594 102.1460800170898 C 412.4368896484375 89.99813842773438 403.01171875 78.57472229003906 392.6300659179688 68.19313812255859 C 382.2484741210938 57.81148910522461 370.8250732421875 48.38631057739258 358.6771240234375 40.1793098449707 C 346.4129028320312 31.8937816619873 333.3020324707031 24.77742958068848 319.7086791992188 19.02790069580078 C 305.8641967773438 13.172194480896 291.3761901855469 8.674840927124023 276.6471252441406 5.66084098815918 C 261.5334167480469 2.568135261535645 245.9775543212891 1.000017642974854 230.4116058349609 1.000017642974854 C 214.8456573486328 1.000017642974854 199.2897796630859 2.568135261535645 184.1760711669922 5.66084098815918 C 169.447021484375 8.674840927124023 154.9590148925781 13.172194480896 141.1145477294922 19.02790069580078 C 127.5211944580078 24.77742958068848 114.4103088378906 31.8937816619873 102.1460800170898 40.1793098449707 C 89.99813842773438 48.38631057739258 78.57472229003906 57.81148910522461 68.19313812255859 68.19313812255859 C 57.81148910522461 78.57472229003906 48.38631057739258 89.99813842773438 40.1793098449707 102.1460800170898 C 31.8937816619873 114.4103088378906 24.77742958068848 127.5211944580078 19.02790069580078 141.1145477294922 C 13.172194480896 154.9590148925781 8.674840927124023 169.447021484375 5.66084098815918 184.1760711669922 C 2.568135261535645 199.2897796630859 1.000017642974854 214.8456573486328 1.000017642974854 230.4116058349609 C 1.000017642974854 245.9775543212891 2.568135261535645 261.5334167480469 5.66084098815918 276.6471252441406 C 8.674840927124023 291.3761901855469 13.172194480896 305.8641967773438 19.02790069580078 319.7086791992188 C 24.77742958068848 333.3020324707031 31.8937816619873 346.4129028320312 40.1793098449707 358.6771240234375 C 48.38631057739258 370.8250732421875 57.81148910522461 382.2484741210938 68.19313812255859 392.6300659179688 C 78.57472229003906 403.01171875 89.99813842773438 412.4368896484375 102.1460800170898 420.6438903808594 C 114.4103088378906 428.929443359375 127.5211944580078 436.0457763671875 141.1145477294922 441.7953186035156 C 154.9590148925781 447.6510314941406 169.447021484375 452.1483764648438 184.1760711669922 455.1623840332031 C 199.2897796630859 458.2550659179688 214.8456573486328 459.8231811523438 230.4116058349609 459.8231811523438 M 230.4116058349609 460.8231811523438 C 103.1587829589844 460.8231811523438 1.75996665348066e-05 357.6644287109375 1.75996665348066e-05 230.4116058349609 C 1.75996665348066e-05 103.1587829589844 103.1587829589844 1.75996665348066e-05 230.4116058349609 1.75996665348066e-05 C 357.6644287109375 1.75996665348066e-05 460.8231811523438 103.1587829589844 460.8231811523438 230.4116058349609 C 460.8231811523438 357.6644287109375 357.6644287109375 460.8231811523438 230.4116058349609 460.8231811523438 Z"/></g><g class="c" transform="translate(639.982 7826.982)"><path class="z" d="M102.361,0A102.361,102.361,0,1,1,0,102.361,102.361,102.361,0,0,1,102.361,0Z"/><path class="ab" d="M 102.3613204956055 203.72265625 C 109.2392120361328 203.72265625 116.1124801635742 203.0298156738281 122.7902145385742 201.6633453369141 C 129.2977447509766 200.3317108154297 135.6987457275391 198.3447418212891 141.8154296875 195.7575836181641 C 147.8212738037109 193.2173156738281 153.6139984130859 190.0731353759766 159.03271484375 186.4123229980469 C 164.4001922607422 182.7861328125 169.4475555419922 178.6216583251953 174.0346069335938 174.0346069335938 C 178.6216583251953 169.4475555419922 182.7861328125 164.4001922607422 186.4123229980469 159.03271484375 C 190.0731353759766 153.6139984130859 193.2173156738281 147.8212738037109 195.7575836181641 141.8154296875 C 198.3447418212891 135.6987457275391 200.3317108154297 129.2977447509766 201.6633453369141 122.7902145385742 C 203.0298156738281 116.1124801635742 203.72265625 109.2392120361328 203.72265625 102.3613204956055 C 203.72265625 95.48342895507812 203.0298156738281 88.61016082763672 201.6633453369141 81.93242645263672 C 200.3317108154297 75.42489624023438 198.3447418212891 69.02390289306641 195.7575836181641 62.9072151184082 C 193.2173156738281 56.90137481689453 190.0731353759766 51.10863494873047 186.4123229980469 45.68992614746094 C 182.7861328125 40.32245254516602 178.6216583251953 35.27510833740234 174.0346069335938 30.68803024291992 C 169.4475555419922 26.10097885131836 164.4001922607422 21.93653106689453 159.03271484375 18.3103199005127 C 153.6139984130859 14.64953136444092 147.8212890625 11.50532054901123 141.8154296875 8.965057373046875 C 135.6987457275391 6.377925872802734 129.2977447509766 4.390952110290527 122.7902145385742 3.059320449829102 C 116.1124801635742 1.692846775054932 109.2392120361328 1.000004649162292 102.3613204956055 1.000004649162292 C 95.48342895507812 1.000004649162292 88.61016082763672 1.692846775054932 81.93242645263672 3.059320449829102 C 75.42489624023438 4.390952110290527 69.02390289306641 6.377925872802734 62.9072151184082 8.965057373046875 C 56.90137481689453 11.50532054901123 51.10863494873047 14.64953136444092 45.68992614746094 18.3103199005127 C 40.32245254516602 21.93653106689453 35.27510833740234 26.10097885131836 30.68803024291992 30.68803024291992 C 26.10097885131836 35.27510833740234 21.93653106689453 40.32245254516602 18.3103199005127 45.68992614746094 C 14.64953136444092 51.10863494873047 11.50532054901123 56.90137481689453 8.965057373046875 62.9072151184082 C 6.377925872802734 69.02390289306641 4.390952110290527 75.42489624023438 3.059320449829102 81.93242645263672 C 1.692846775054932 88.61016082763672 1.000004649162292 95.48342895507812 1.000004649162292 102.3613204956055 C 1.000004649162292 109.2392120361328 1.692846775054932 116.1124801635742 3.059320449829102 122.7902145385742 C 4.390952110290527 129.2977447509766 6.377925872802734 135.6987457275391 8.965057373046875 141.8154296875 C 11.50532054901123 147.8212890625 14.64953136444092 153.6139984130859 18.3103199005127 159.03271484375 C 21.93653106689453 164.4001922607422 26.10097885131836 169.4475555419922 30.68803024291992 174.0346069335938 C 35.27510833740234 178.6216583251953 40.32245254516602 182.7861328125 45.68992614746094 186.4123229980469 C 51.10863494873047 190.0731353759766 56.90137481689453 193.2173156738281 62.9072151184082 195.7575836181641 C 69.02390289306641 198.3447418212891 75.42489624023438 200.3317108154297 81.93242645263672 201.6633453369141 C 88.61016082763672 203.0298156738281 95.48342895507812 203.72265625 102.3613204956055 203.72265625 M 102.3613204956055 204.72265625 C 45.82871627807617 204.72265625 4.706131676357472e-06 158.8939208984375 4.706131676357472e-06 102.3613204956055 C 4.706131676357472e-06 45.82871627807617 45.82871627807617 4.706131676357472e-06 102.3613204956055 4.706131676357472e-06 C 158.8939208984375 4.706131676357472e-06 204.72265625 45.82871627807617 204.72265625 102.3613204956055 C 204.72265625 158.8939208984375 158.8939208984375 204.72265625 102.3613204956055 204.72265625 Z"/></g><g class="c" transform="translate(606.844 7793.844)"><path class="z" d="M135.5,0A135.5,135.5,0,1,1,0,135.5,135.5,135.5,0,0,1,135.5,0Z"/><path class="ab" d="M 135.5 270 C 144.6263275146484 270 153.7465667724609 269.0806579589844 162.6074981689453 267.2674255371094 C 171.2427215576172 265.5003967285156 179.736572265625 262.8637390136719 187.8531494140625 259.4307556152344 C 195.8226013183594 256.0599365234375 203.5092468261719 251.8877563476562 210.6995391845703 247.0301055908203 C 217.8217468261719 242.2184295654297 224.5192108154297 236.6925048828125 230.6058502197266 230.6058502197266 C 236.6925048828125 224.5192108154297 242.2184295654297 217.8217468261719 247.0301055908203 210.6995391845703 C 251.8877563476562 203.5092468261719 256.0599365234375 195.8226013183594 259.4307556152344 187.8531494140625 C 262.8637390136719 179.736572265625 265.5003967285156 171.2427215576172 267.2674255371094 162.6074981689453 C 269.0806579589844 153.7465667724609 270 144.6263275146484 270 135.5 C 270 126.3736801147461 269.0806579589844 117.2534255981445 267.2674255371094 108.3925018310547 C 265.5003967285156 99.75728607177734 262.8637390136719 91.263427734375 259.4307556152344 83.14685821533203 C 256.0599365234375 75.17739105224609 251.8877563476562 67.49075317382812 247.0301055908203 60.30046463012695 C 242.2184295654297 53.17824935913086 236.6925048828125 46.48078536987305 230.6058502197266 40.39414215087891 C 224.5192108154297 34.30749893188477 217.8217468261719 28.78157234191895 210.6995391845703 23.96989250183105 C 203.5092468261719 19.11224937438965 195.8226013183594 14.94007110595703 187.8531494140625 11.56925010681152 C 179.736572265625 8.136249542236328 171.2427215576172 5.499607086181641 162.6074981689453 3.732571363449097 C 153.7465667724609 1.919357180595398 144.6263275146484 1 135.5 1 C 126.3736801147461 1 117.2534255981445 1.919357180595398 108.3925018310547 3.732571363449097 C 99.75728607177734 5.499607086181641 91.263427734375 8.136249542236328 83.14685821533203 11.56925010681152 C 75.17739105224609 14.94007110595703 67.49075317382812 19.11224937438965 60.30046463012695 23.96989250183105 C 53.17824935913086 28.78157234191895 46.48078536987305 34.30749893188477 40.39414215087891 40.39414215087891 C 34.30749893188477 46.48078536987305 28.78157234191895 53.17824935913086 23.96989250183105 60.30046463012695 C 19.11224937438965 67.49075317382812 14.94007110595703 75.17739105224609 11.56925010681152 83.14685821533203 C 8.136249542236328 91.263427734375 5.499607086181641 99.75728607177734 3.732571363449097 108.3925018310547 C 1.919357180595398 117.2534255981445 1 126.3736801147461 1 135.5 C 1 144.6263275146484 1.919357180595398 153.7465667724609 3.732571363449097 162.6074981689453 C 5.499607086181641 171.2427215576172 8.136249542236328 179.736572265625 11.56925010681152 187.8531494140625 C 14.94007110595703 195.8226013183594 19.11224937438965 203.5092468261719 23.96989250183105 210.6995391845703 C 28.78157234191895 217.8217468261719 34.30749893188477 224.5192108154297 40.39414215087891 230.6058502197266 C 46.48078536987305 236.6925048828125 53.17824935913086 242.2184295654297 60.30046463012695 247.0301055908203 C 67.49075317382812 251.8877563476562 75.17739105224609 256.0599365234375 83.14685821533203 259.4307556152344 C 91.263427734375 262.8637390136719 99.75728607177734 265.5003967285156 108.3925018310547 267.2674255371094 C 117.2534255981445 269.0806579589844 126.3736801147461 270 135.5 270 M 135.5 271 C 60.66542816162109 271 2.842170943040401e-14 210.3345642089844 2.842170943040401e-14 135.5 C 2.842170943040401e-14 60.66542816162109 60.66542816162109 2.842170943040401e-14 135.5 2.842170943040401e-14 C 210.3345642089844 2.842170943040401e-14 271 60.66542816162109 271 135.5 C 271 210.3345642089844 210.3345642089844 271 135.5 271 Z"/></g><g class="c" transform="translate(553.4 7740.4)"><path class="z" d="M188.943,0C293.294,0,377.887,84.593,377.887,188.943S293.294,377.887,188.943,377.887,0,293.294,0,188.943,84.593,0,188.943,0Z"/><path class="ab" d="M 188.9433746337891 376.8867797851562 C 201.6957244873047 376.8867797851562 214.4398193359375 375.6020812988281 226.8215789794922 373.0684204101562 C 238.8881225585938 370.5992126464844 250.7572174072266 366.9148864746094 262.0990600585938 362.11767578125 C 273.2352600097656 357.4074096679688 283.9762268066406 351.5774230957031 294.0235595703125 344.7895812988281 C 303.9757385253906 338.0660095214844 313.3343200683594 330.344482421875 321.8394165039062 321.8394165039062 C 330.344482421875 313.3343200683594 338.0660095214844 303.9757385253906 344.7895812988281 294.0235595703125 C 351.5774230957031 283.9762268066406 357.4074096679688 273.2352600097656 362.11767578125 262.0990600585938 C 366.9148864746094 250.7572174072266 370.5992126464844 238.8881225585938 373.0684204101562 226.8215789794922 C 375.6020812988281 214.4398193359375 376.8867797851562 201.6957244873047 376.8867797851562 188.9433746337891 C 376.8867797851562 176.1910247802734 375.6020812988281 163.4469299316406 373.0684204101562 151.0651702880859 C 370.5992126464844 138.9985809326172 366.9148864746094 127.129524230957 362.11767578125 115.7876281738281 C 357.4074096679688 104.6514282226562 351.5774230957031 93.91047668457031 344.7895812988281 83.86312103271484 C 338.0660095214844 73.91097259521484 330.344482421875 64.55237579345703 321.8394165039062 56.04732513427734 C 313.3343200683594 47.54227447509766 303.9757385253906 39.82072448730469 294.0235595703125 33.09717559814453 C 283.9762268066406 26.30932426452637 273.2352600097656 20.47932434082031 262.0990600585938 15.76907444000244 C 250.7572174072266 10.97187423706055 238.8881225585938 7.287524700164795 226.8215789794922 4.818324565887451 C 214.4398193359375 2.284674644470215 201.6957244873047 0.9999746084213257 188.9433746337891 0.9999746084213257 C 176.1910247802734 0.9999746084213257 163.4469299316406 2.284674644470215 151.0651702880859 4.818324565887451 C 138.9985809326172 7.287524700164795 127.129524230957 10.97187423706055 115.7876281738281 15.76907444000244 C 104.6514282226562 20.47932434082031 93.91047668457031 26.30932426452637 83.86312103271484 33.09717559814453 C 73.91097259521484 39.82072448730469 64.55237579345703 47.54227447509766 56.04732513427734 56.04732513427734 C 47.54227447509766 64.55237579345703 39.82072448730469 73.91097259521484 33.09717559814453 83.86312103271484 C 26.30932426452637 93.91047668457031 20.47932434082031 104.6514282226562 15.76907444000244 115.7876281738281 C 10.97187423706055 127.129524230957 7.287524700164795 138.9985809326172 4.818324565887451 151.0651702880859 C 2.284674644470215 163.4469299316406 0.9999746084213257 176.1910247802734 0.9999746084213257 188.9433746337891 C 0.9999746084213257 201.6957244873047 2.284674644470215 214.4398193359375 4.818324565887451 226.8215789794922 C 7.287524700164795 238.8881225585938 10.97187423706055 250.7572174072266 15.76907444000244 262.0990600585938 C 20.47932434082031 273.2352600097656 26.30932426452637 283.9762268066406 33.09717559814453 294.0235595703125 C 39.82072448730469 303.9757385253906 47.54227447509766 313.3343200683594 56.04732513427734 321.8394165039062 C 64.55237579345703 330.344482421875 73.91097259521484 338.0660095214844 83.86312103271484 344.7895812988281 C 93.91047668457031 351.5774230957031 104.6514282226562 357.4074096679688 115.7876281738281 362.11767578125 C 127.129524230957 366.9148864746094 138.9985809326172 370.5992126464844 151.0651702880859 373.0684204101562 C 163.4469299316406 375.6020812988281 176.1910247802734 376.8867797851562 188.9433746337891 376.8867797851562 M 188.9433746337891 377.8867797851562 C 84.59282684326172 377.8867797851562 -2.536621104809456e-05 293.2938842773438 -2.536621104809456e-05 188.9433746337891 C -2.536621104809456e-05 84.59282684326172 84.59282684326172 -2.536621104809456e-05 188.9433746337891 -2.536621104809456e-05 C 293.2938842773438 -2.536621104809456e-05 377.8867797851562 84.59282684326172 377.8867797851562 188.9433746337891 C 377.8867797851562 293.2938842773438 293.2938842773438 377.8867797851562 188.9433746337891 377.8867797851562 Z"/></g><g transform="translate(741.369 7655.682)"><path class="d" d="M0,548.709H0v-30.4a231.2,231.2,0,0,0,46.711-4.954A230.035,230.035,0,0,0,91.1,499.144a234.342,234.342,0,0,0,40.172-22.492,239.9,239.9,0,0,0,35-29.789,244.179,244.179,0,0,0,28.878-36.106,246.525,246.525,0,0,0,21.806-41.442,248.464,248.464,0,0,0,13.78-45.794,253.211,253.211,0,0,0,4.8-49.166,253.246,253.246,0,0,0-4.8-49.168,248.517,248.517,0,0,0-13.78-45.794,246.512,246.512,0,0,0-21.806-41.44,244.117,244.117,0,0,0-28.878-36.106,239.928,239.928,0,0,0-35-29.791A234.329,234.329,0,0,0,91.1,49.565,230.031,230.031,0,0,0,46.711,35.35,231.213,231.213,0,0,0,0,30.4V0A260.018,260.018,0,0,1,52.65,5.573a258.668,258.668,0,0,1,49.923,15.985,263.564,263.564,0,0,1,45.179,25.3,269.984,269.984,0,0,1,39.362,33.5,274.59,274.59,0,0,1,32.475,40.6,277.133,277.133,0,0,1,24.522,46.6,279.325,279.325,0,0,1,15.5,51.5,284.827,284.827,0,0,1,5.4,55.293,284.792,284.792,0,0,1-5.4,55.292,279.292,279.292,0,0,1-15.5,51.5,277.2,277.2,0,0,1-24.522,46.6,274.658,274.658,0,0,1-32.475,40.6,269.865,269.865,0,0,1-39.362,33.5,263.548,263.548,0,0,1-45.179,25.3A258.661,258.661,0,0,1,52.65,543.138,260.167,260.167,0,0,1,0,548.709Z" transform="translate(15.22)"/><ellipse class="d" cx="15.22" cy="15.21" rx="15.22" ry="15.21" transform="translate(0)"/><ellipse class="d" cx="15.22" cy="15.21" rx="15.22" ry="15.21" transform="translate(0 518.124)"/></g><g transform="matrix(-0.017, 1, -1, -0.017, 736.929, 8140.525)"><path class="e" d="M26.59,127.793h0L0,113.468a242.692,242.692,0,0,0,12.044-24.5A241.225,241.225,0,0,0,26.165,43.477,244.047,244.047,0,0,0,31.029,0L61.215.635a274.428,274.428,0,0,1-5.47,48.927,271.141,271.141,0,0,1-15.881,51.156,272.686,272.686,0,0,1-13.273,27.073Z" transform="translate(3.625 12.755)"/><ellipse class="e" cx="15.596" cy="15.109" rx="15.596" ry="15.109" transform="translate(0 120.871)"/><path class="e" d="M30.134,14.02H0A14.331,14.331,0,0,1,4.606,4.087a15.431,15.431,0,0,1,20.922,0,14.331,14.331,0,0,1,4.605,9.931Z" transform="translate(34.188 0)"/></g><g transform="translate(737.333 7655.326) rotate(93)"><path class="f" d="M1.938,23.561v0C1.073,17.232.421,10.783,0,4.391L29.981,0c.391,6.957,1.086,13.976,2.069,20.862l-30.11,2.7Z" transform="translate(1.759 13.41)"/><path class="f" d="M30.134,14.02H0A14.331,14.331,0,0,1,4.606,4.087a15.431,15.431,0,0,1,20.922,0,14.331,14.331,0,0,1,4.605,9.931Z" transform="translate(0 4.194) rotate(-8)"/><path class="f" d="M30.128,14.018H0A14.329,14.329,0,0,1,4.605,4.087a15.429,15.429,0,0,1,20.919,0,14.329,14.329,0,0,1,4.6,9.929Z" transform="matrix(-0.996, 0.087, -0.087, -0.996, 34.905, 47.668)"/></g><g transform="translate(593.024 7980.036) rotate(88)"><path class="g" d="M5.007,107.144v0L0,77.328A241.271,241.271,0,0,0,42.2,63.9,242.386,242.386,0,0,0,83.362,41.562a244.033,244.033,0,0,0,35.865-29.591c3.839-3.839,7.6-7.867,11.19-11.971l23.394,19.11c-4.237,4.885-8.689,9.665-13.233,14.209A274.5,274.5,0,0,1,100.245,66.6,272.539,272.539,0,0,1,53.95,91.725,271.275,271.275,0,0,1,5.009,107.143Z" transform="translate(13.367 10.943)"/><path class="g" d="M30.134,14.02H0A14.331,14.331,0,0,1,4.606,4.087a15.431,15.431,0,0,1,20.922,0,14.331,14.331,0,0,1,4.605,9.931Z" transform="translate(152.197 0) rotate(39)"/><path class="g" d="M30.134,14.02H0A14.331,14.331,0,0,1,4.606,4.087a15.431,15.431,0,0,1,20.922,0,14.331,14.331,0,0,1,4.605,9.931Z" transform="matrix(-0.174, -0.985, 0.985, -0.174, 5.233, 120.668)"/></g><g transform="translate(503.817 7850.95) rotate(90)"><path class="h" d="M63.68,37.228A274.663,274.663,0,0,1,8.756,31.692C5.844,31.1,2.9,30.442,0,29.747L5.481,0c3.083.761,6.231,1.472,9.36,2.112A244.107,244.107,0,0,0,63.68,7.035,245.728,245.728,0,0,0,97.437,4.7l2.558,30.126A276.533,276.533,0,0,1,63.68,37.228Z" transform="translate(13.049 2.339)"/><path class="h" d="M30.406,15.638H0A16.744,16.744,0,0,1,4.648,4.559a14.5,14.5,0,0,1,21.111,0,16.743,16.743,0,0,1,4.647,11.077Z" transform="translate(123.827 5.117) rotate(82)"/><path class="h" d="M30.134,14.02H0A14.331,14.331,0,0,1,4.606,4.087a15.431,15.431,0,0,1,20.922,0,14.331,14.331,0,0,1,4.605,9.931Z" transform="matrix(0.208, -0.978, 0.978, 0.208, 0, 29.475)"/></g><g transform="translate(683.777 7657.866) rotate(89)"><path class="i" d="M104.471,162.913h0a275.142,275.142,0,0,1-32.3-27.637A274.5,274.5,0,0,1,38.89,94.942,272.865,272.865,0,0,1,13.763,48.648,271.688,271.688,0,0,1,0,6.96L29.387,0a241.7,241.7,0,0,0,12.2,36.9A242.467,242.467,0,0,0,63.928,78.062a244.076,244.076,0,0,0,29.591,35.865,244.667,244.667,0,0,0,30.4,25.788l-19.448,23.2Z" transform="translate(3.326 13.447)"/><path class="i" d="M30.406,15.638H0A16.744,16.744,0,0,1,4.648,4.559a14.5,14.5,0,0,1,21.111,0,16.743,16.743,0,0,1,4.647,11.077Z" transform="matrix(-0.643, 0.766, -0.766, -0.643, 138.281, 162.676)"/><path class="i" d="M30.134,14.02H0A14.331,14.331,0,0,1,4.606,4.087a15.431,15.431,0,0,1,20.922,0,14.331,14.331,0,0,1,4.605,9.931Z" transform="matrix(0.974, -0.225, 0.225, 0.974, 0, 6.779)"/></g><g transform="matrix(0.07, 0.998, -0.998, 0.07, 521.328, 7785.326)"><path class="j" d="M31.976,40.932h0c-2.872-1.1-5.762-2.264-8.59-3.46C15.47,34.123,7.6,30.341,0,26.229L14.984,0c6.553,3.519,13.332,6.766,20.153,9.651,2.6,1.1,5.254,2.167,7.9,3.179L31.977,40.93Z" transform="translate(11.145 6.405)"/><path class="j" d="M30.406,15.638H0A16.744,16.744,0,0,1,4.648,4.559a14.5,14.5,0,0,1,21.111,0,16.743,16.743,0,0,1,4.647,11.077Z" transform="translate(65.96 23.675) rotate(110)"/><path class="j" d="M30.134,14.02H0A14.331,14.331,0,0,1,4.606,4.087a15.431,15.431,0,0,1,20.922,0,14.331,14.331,0,0,1,4.605,9.931Z" transform="matrix(0.485, -0.875, 0.875, 0.485, 0, 26.356)"/></g><circle class="j" cx="10" cy="10" r="10" transform="translate(367.844 7783.844)"/><g transform="translate(-434.284 7703.483)"><g transform="translate(1120.474 160.6)"><g class="ac" transform="matrix(1, 0, 0, 1, -559.35, -267.24)"><path class="k" d="M407.184,232.571c-.058-2.392-.135-4.862-.135-7.312h.058V206.931c0-6.019,0-12.174.058-18.27.058-7.389-4.148-12.829-11.267-14.566-6.926-1.678-14.045-3.434-20.913-5.19l-3.048-.772c-5.19-1.293-10.553-2.662-15.8-3.955a19.042,19.042,0,0,0-9.318,0c-5.826,1.428-11.595,2.855-16.958,4.206-6.675,1.678-14.952,3.762-22.862,5.633-7.119,1.756-11.4,7.254-11.325,14.7l.058,6.54c.058,12.559.135,25.524-.058,38.276a52.681,52.681,0,0,0,12.5,35.17c9.125,11.074,20.99,19.563,37.312,26.682a15.393,15.393,0,0,0,5.961,1.235,16.516,16.516,0,0,0,6.212-1.235c13.736-5.884,24.733-13.331,33.685-22.669C402.38,261.008,407.763,247.464,407.184,232.571Z" transform="translate(263.68 103.64)"/></g><path class="l" d="M640.939,232.571c-.058-2.392-.135-4.862-.135-7.312h.058V206.931c0-6.019,0-12.174.058-18.27.058-7.389-4.148-12.829-11.267-14.566-6.926-1.678-14.045-3.434-20.913-5.19l-3.048-.772c-5.19-1.293-10.553-2.662-15.8-3.955a18.377,18.377,0,0,0-4.592-.579V296.545a15.621,15.621,0,0,0,6.019-1.235c13.736-5.884,24.733-13.331,33.685-22.669C636.136,261.008,641.518,247.464,640.939,232.571Z" transform="translate(-529.422 -163.6)"/></g><path class="m" d="M1225.858,226.185c-.052-2.171-.123-4.412-.123-6.635h.052V202.919c0-5.462,0-11.046.052-16.578.052-6.7-3.764-11.642-10.224-13.217-6.285-1.523-12.745-3.116-18.977-4.709l-2.766-.7c-4.709-1.173-9.576-2.416-14.337-3.589a17.279,17.279,0,0,0-8.456,0c-5.287,1.3-10.521,2.591-15.388,3.816-6.057,1.523-13.567,3.414-20.745,5.112-6.46,1.593-10.346,6.582-10.276,13.34l.052,5.935c.052,11.4.123,23.161-.052,34.732a47.8,47.8,0,0,0,11.344,31.914c8.281,10.049,19.047,17.751,33.857,24.211a13.966,13.966,0,0,0,5.409,1.12,14.988,14.988,0,0,0,5.637-1.12c12.464-5.339,22.443-12.1,30.565-20.57C1221.5,251.989,1226.384,239.7,1225.858,226.185Z" transform="translate(0.971 0.695)"/><path class="n" d="M1464.788,226.185c-.052-2.171-.122-4.412-.122-6.635h.052V202.919c0-5.462,0-11.046.052-16.578.052-6.7-3.764-11.642-10.224-13.217-6.285-1.523-12.744-3.116-18.977-4.709l-2.766-.7c-4.709-1.173-9.576-2.416-14.338-3.589a16.673,16.673,0,0,0-4.167-.525V284.235a14.175,14.175,0,0,0,5.462-1.12c12.464-5.339,22.443-12.1,30.566-20.57C1460.429,251.989,1465.313,239.7,1464.788,226.185Z" transform="translate(-237.958 0.695)"/><g transform="translate(1144.621 183.937)"><path class="o" d="M1257.241,396.2a34.454,34.454,0,0,1,33.857,28.92,47.7,47.7,0,0,1,.4,7.055,5.294,5.294,0,0,1-.7,2.468c-.648,1.225-1.47,2.346-2.241,3.519-.4.6-.875,1-1.646.7s-.875-.945-.823-1.7a44.171,44.171,0,0,0-.525-13.567,29.171,29.171,0,0,0-24.089-21.865c-10.171-1.348-18.749,1.821-25.734,9.226-.473.473-.875.945-1.646.77a1.2,1.2,0,0,1-1-1.225,14.2,14.2,0,0,1,.4-3.589,5.727,5.727,0,0,1,1.646-2.591,33.454,33.454,0,0,1,19.222-8C1255.245,396.27,1256.243,396.27,1257.241,396.2Z" transform="translate(-1233.1 -375.123)"/><path class="o" d="M1287.43,482.728c-.525,3.939-1,7.878-1.593,11.747-.35,2.643-2.293,3.886-4.587,4.639a1.251,1.251,0,0,1-1.523-1.593c.4-1.873.945-3.816,1.3-5.707a50.3,50.3,0,0,0,.77-13.567,18.558,18.558,0,0,0-36.728-.578c-.123.6-.123,1.173-.228,1.7a1.254,1.254,0,0,1-1.12,1.173,1.148,1.148,0,0,1-1.348-.77,39.353,39.353,0,0,1-1.593-4.989,4.472,4.472,0,0,1,.35-2.591c3.694-8.876,10.276-14.215,19.922-15.213a23.612,23.612,0,0,1,25.734,19.4,12.817,12.817,0,0,1,.228,1.523c.123,1.593.175,3.169.228,4.762A.26.26,0,0,0,1287.43,482.728Z" transform="translate(-1239.376 -425.151)"/><path class="o" d="M1276.433,335.5c15.685.473,28.15,6.985,37.253,19.87a10.16,10.16,0,0,1,1.943,6.057v3.239a1.315,1.315,0,0,1-1.05,1.47c-.77.175-1.225-.3-1.523-.945a41.771,41.771,0,0,0-2.241-4.412c-6.582-10.994-16.211-17.576-28.85-19.5A38.47,38.47,0,0,0,1259,344.918c-.175.123-.4.175-.6.3a1.194,1.194,0,0,1-1.593-.228,1.245,1.245,0,0,1-.175-1.593,10,10,0,0,1,6.232-5.637A43.97,43.97,0,0,1,1276.433,335.5Z" transform="translate(-1252.344 -325.049)"/><path class="o" d="M1315.687,532.552a55.759,55.759,0,0,1-2.994,16.106c-.7,2-1.348,2.416-3.414,2.346a7.044,7.044,0,0,1-1.05-.052,1.33,1.33,0,0,1-1.3-2,46.772,46.772,0,0,0,3.466-18.5,7.966,7.966,0,1,0-15.931,0,30.849,30.849,0,0,1-1.821,11.344c-.648,1.646-1.523,1.821-2.766.6l-1.12-1.12a2.516,2.516,0,0,1-.648-2.591,29.191,29.191,0,0,0,1.051-8.175,13.192,13.192,0,0,1,26.259-2A34.341,34.341,0,0,1,1315.687,532.552Z" transform="translate(-1278.381 -474.851)"/><path class="o" d="M1341.19,275.853a54.339,54.339,0,0,1,18.976,4.587c4.237,1.873,7.23,5.112,9.751,8.876a1.219,1.219,0,0,1-.175,1.7,1.358,1.358,0,0,1-1.873-.052,48.33,48.33,0,0,0-12.815-6.932,50.168,50.168,0,0,0-22.443-2.818,1.492,1.492,0,0,1-1.593-.77,1.1,1.1,0,0,1,.4-1.523c2.871-1.593,5.812-3.116,9.226-3.116A1.969,1.969,0,0,0,1341.19,275.853Z" transform="translate(-1313.758 -275.8)"/><path class="o" d="M1344.81,582.729a39.118,39.118,0,0,1-3.466,15.108c-.648,1.348-1.121,1.523-2.521.945-.648-.3-1.225-.6-1.873-.875a1.264,1.264,0,0,1-.6-1.768,34.692,34.692,0,0,0,3.169-15.58,2.57,2.57,0,0,1,2.643-2.766,2.6,2.6,0,0,1,2.591,2.818C1344.81,581.328,1344.81,582.029,1344.81,582.729Z" transform="translate(-1318.148 -524.923)"/></g></g></g><path class="p" d="M3230.945,6903.2l24.955-24.955h82" transform="translate(-2387 70)"/><path class="q" d="M3337.905,6903.2l-24.956-24.955h-82" transform="translate(-2948.043 -155)"/><path class="r" d="M3337.905,6903.2l-24.956-24.955h-82" transform="translate(-3034.043 58)"/><path class="s" d="M3337.905,6903.2l-24.956-24.955h-82" transform="translate(-3019.043 -52)"/><path class="t" d="M3230.945,6903.2l24.955-24.955h82" transform="translate(3727.848 14130.443) rotate(180)"/><path class="u" d="M3230.945,6903.2l24.955-24.955h82" transform="translate(-2692 -210)"/><path class="v" d="M3230.945,6903.2l24.955-24.955h82" transform="translate(3587.848 14015.443) rotate(180)"/><text class="w" transform="translate(955 6921)"><tspan x="25.82" y="24">ICO</tspan><tspan class="x"><tspan x="21.032" y="54">50%</tspan></tspan></text><text class="w" transform="translate(79 7240)"><tspan x="11.212" y="24">Reserved for Future OPS</tspan><tspan class="x"><tspan x="121.132" y="54">9%</tspan></tspan></text><text class="w" transform="translate(5 7120)"><tspan x="58.744" y="24">Founders Team</tspan><tspan class="x"><tspan x="114.532" y="54">13%</tspan></tspan></text><text class="w" transform="translate(-44 6921)"><tspan x="71.788" y="24">Reward Pool</tspan><tspan class="x"><tspan x="121.132" y="54">8%</tspan></tspan></text><text class="w" transform="translate(-6 6806)"><tspan x="55.736" y="24">Partners</tspan><tspan class="x"><tspan x="83.132" y="54">4%</tspan></tspan></text><text class="w" transform="translate(26 6703)"><tspan x="58.816" y="24">Angel Investors</tspan><tspan class="x"><tspan x="114.532" y="54">13%</tspan></tspan></text><text class="w" transform="translate(662 6629)"><tspan x="41.056" y="24">Bounties &amp; Airdrop</tspan><tspan class="x"><tspan x="121.132" y="54">3%</tspan></tspan></text><circle class="d" cx="10" cy="10" r="10" transform="translate(941 6938)"/><circle class="y" cx="10" cy="10" r="10" transform="translate(636 6658)"/><circle class="i" cx="10" cy="10" r="10" transform="translate(272 6713)"/><circle class="h" cx="10" cy="10" r="10" transform="translate(187 6926)"/><circle class="g" cx="10" cy="10" r="10" transform="translate(245 7127)"/><circle class="e" cx="10" cy="10" r="10" transform="translate(378 7242)"/></g></svg>