<svg xmlns="http://www.w3.org/2000/svg" viewBox="0 0 37.224 30.237">
  <defs>
    <style>
      .cls-1 {
        fill: #fff;
      }
    </style>
  </defs>
  <path id="twitter_icon" class="cls-1" d="M37.225,61.018a15.249,15.249,0,0,1-4.385,1.2A7.668,7.668,0,0,0,36.2,58a15.394,15.394,0,0,1-4.852,1.854,7.642,7.642,0,0,0-13.012,6.962A21.679,21.679,0,0,1,2.595,58.837,7.645,7.645,0,0,0,4.958,69.029,7.637,7.637,0,0,1,1.5,68.071v.1a7.644,7.644,0,0,0,6.125,7.488,7.735,7.735,0,0,1-2.012.268,7.33,7.33,0,0,1-1.438-.142,7.64,7.64,0,0,0,7.132,5.3,15.321,15.321,0,0,1-9.483,3.263A16.229,16.229,0,0,1,0,84.242a21.585,21.585,0,0,0,11.7,3.436c14.047,0,21.725-11.635,21.725-21.725l-.026-.989A15.248,15.248,0,0,0,37.225,61.018Z" transform="translate(-0.001 -57.441)"/>
</svg>
