<svg xmlns="http://www.w3.org/2000/svg" viewBox="0 0 26.735 21.716"><defs><style>.a{fill:#e2c7ff;}</style></defs><g transform="translate(-0.001 -57.441)"><g transform="translate(0.001 57.441)"><path class="a" d="M26.736,60.01a10.952,10.952,0,0,1-3.149.864A5.507,5.507,0,0,0,26,57.842a11.056,11.056,0,0,1-3.485,1.331,5.489,5.489,0,0,0-9.345,5,15.57,15.57,0,0,1-11.3-5.73,5.491,5.491,0,0,0,1.7,7.321,5.485,5.485,0,0,1-2.484-.688v.068a5.49,5.49,0,0,0,4.4,5.378,5.555,5.555,0,0,1-1.445.192A5.264,5.264,0,0,1,3,70.612,5.487,5.487,0,0,0,8.12,74.421a11,11,0,0,1-6.811,2.344A11.655,11.655,0,0,1,0,76.69a15.5,15.5,0,0,0,8.406,2.467,15.5,15.5,0,0,0,15.6-15.6l-.018-.71A10.952,10.952,0,0,0,26.736,60.01Z" transform="translate(-0.001 -57.441)"/></g></g></svg>