<svg xmlns="http://www.w3.org/2000/svg" viewBox="0 0 27.356 27.328">
  <defs>
    <style>
      .cls-1 {
        fill: none;
      }

      .cls-2 {
        fill: #ee2131;
      }

      .cls-3 {
        fill: #fffbfd;
      }

      .cls-4 {
        fill: #28377c;
      }

      .cls-5 {
        fill: #fafcf8;
      }
    </style>
  </defs>
  <g id="us_flag" transform="translate(-81.8 -28.3)">
    <path id="Path_2755" data-name="Path 2755" class="cls-1" d="M181.527,28.3h0Z" transform="translate(-86.002)"/>
    <path id="Path_2756" data-name="Path 2756" class="cls-2" d="M189.558,30.4a13.654,13.654,0,0,0-7.158-2.1v2.1Z" transform="translate(-86.778)"/>
    <path id="Path_2757" data-name="Path 2757" class="cls-3" d="M182.4,45.7h9.728a13.969,13.969,0,0,0-2.569-2.1H182.4Z" transform="translate(-86.778 -13.198)"/>
    <path id="Path_2758" data-name="Path 2758" class="cls-2" d="M182.4,61h11.39a13.641,13.641,0,0,0-1.662-2.1H182.4V61Z" transform="translate(-86.778 -26.396)"/>
    <path id="Path_2759" data-name="Path 2759" class="cls-3" d="M182.4,76.3h12.489a12.72,12.72,0,0,0-1.1-2.1H182.4Z" transform="translate(-86.778 -39.594)"/>
    <path id="Path_2760" data-name="Path 2760" class="cls-2" d="M182.4,91.6h13.163a13.4,13.4,0,0,0-.673-2.1H182.4Z" transform="translate(-86.778 -52.791)"/>
    <path id="Path_2761" data-name="Path 2761" class="cls-3" d="M182.4,106.9h13.492a13.4,13.4,0,0,0-.33-2.1H182.4v2.1Z" transform="translate(-86.778 -65.989)"/>
    <path id="Path_2762" data-name="Path 2762" class="cls-2" d="M182.4,122.288h13.492c.027-.343.041-.7.041-1.044s-.014-.7-.041-1.044H182.4v2.088Z" transform="translate(-86.778 -79.273)"/>
    <path id="Path_2763" data-name="Path 2763" class="cls-2" d="M85.473,152.8H110.7a13.4,13.4,0,0,0,.673-2.1H84.8A13.874,13.874,0,0,0,85.473,152.8Z" transform="translate(-2.588 -105.583)"/>
    <path id="Path_2764" data-name="Path 2764" class="cls-3" d="M82.4,135.4a13.4,13.4,0,0,0,.33,2.1h26.586a13.4,13.4,0,0,0,.33-2.1H82.4Z" transform="translate(-0.518 -92.385)"/>
    <path id="Path_2765" data-name="Path 2765" class="cls-2" d="M99.449,183.4h19.7a14.526,14.526,0,0,0,1.662-2.1H97.8A13.555,13.555,0,0,0,99.449,183.4Z" transform="translate(-13.802 -131.978)"/>
    <path id="Path_2766" data-name="Path 2766" class="cls-3" d="M90.813,168.1h23.014a12.721,12.721,0,0,0,1.1-2.1H89.7A15.373,15.373,0,0,0,90.813,168.1Z" transform="translate(-6.815 -118.781)"/>
    <path id="Path_2767" data-name="Path 2767" class="cls-2" d="M135.868,214a13.594,13.594,0,0,0,7.282-2.1H128.6A13.667,13.667,0,0,0,135.868,214Z" transform="translate(-40.37 -158.374)"/>
    <path id="Path_2768" data-name="Path 2768" class="cls-3" d="M112.383,198.7h14.55a13.11,13.11,0,0,0,2.569-2.1H109.8A14.163,14.163,0,0,0,112.383,198.7Z" transform="translate(-24.153 -145.176)"/>
    <path id="Path_2769" data-name="Path 2769" class="cls-4" d="M88.656,30.141l.1.33-.275-.22a11.035,11.035,0,0,0-1.14.769h.206l-.44.357.165.577-.44-.357-.44.357.055-.206c-.275.247-.55.508-.811.783h.412l-.44.357.165.577-.44-.357-.44.357.041-.137q-.268.33-.536.7h.151l-.357.289c-.027.027-.041.069-.069.1l.151.536-.33-.261A13.543,13.543,0,0,0,82.4,38.083l.124.4h.536l-.44.357.165.577-.44-.357-.247.192a12.821,12.821,0,0,0-.261,2.2h.343l.165-.577.165.577h.536l-.44.357.165.577-.44-.357-.44.357.165-.577-.247-.192c0,.124-.014.261-.014.4,0,.357.014.7.041,1.044h13.74V28.3H95.43A13.49,13.49,0,0,0,88.656,30.141Zm5.427-.591.165-.577.165.577h.55l-.44.357.165.577-.44-.357-.44.357.165-.577-.44-.357Zm-2.638,2.968h.536l-.44.357.165.577-.44-.357-.44.357.165-.577-.44-.357h.55l.165-.577Zm1.759,8.34-.44-.357-.44.357.165-.577-.44-.357h.55l.165-.577.165.577h.55l-.44.357ZM91.72,39.374l-.44-.357-.44.357.165-.577-.44-.357h.55l.165-.577.165.577h.536l-.44.357Zm-5.949-2.968-.44-.357-.44.357.165-.577-.44-.357h.55l.165-.577.165.577h.55l-.44.357Zm.879.536.165-.577.165.577h.55l-.44.357.165.577-.44-.357-.44.357.165-.577-.44-.357Zm1.5-1.47.165-.577.165.577h.55l-.44.357.165.577-.44-.357-.44.357.165-.577-.44-.357Zm-1.5,4.452.165-.577.165.577h.55l-.44.357.165.577-.44-.357-.44.357.165-.577-.44-.357ZM88.038,38.8l-.44-.357h.55l.165-.577.165.577h.55l-.44.357.165.577-.44-.357-.44.357Zm2.2,2.061L89.8,40.5l-.44.357.165-.577-.44-.357h.55l.165-.577.165.577h.55l-.44.357Zm-.275-3.916h.55l-.44.357.165.577-.44-.357-.44.357.165-.577-.44-.357h.55l.165-.577Zm1.759-.536-.44-.357-.44.357.165-.577-.44-.357h.55l.165-.577.165.577h.536l-.44.357Zm-1.484-1.484-.44-.357-.44.357.165-.577-.44-.357h.55l.165-.577.165.577h.55l-.44.357Zm0-2.981-.44-.357-.44.357.165-.577-.44-.357h.55l.165-.577.165.577h.55l-.44.357ZM92.6,31.02l.165-.577.165.577h.55l-.44.357.165.577-.44-.357-.44.357.165-.577-.44-.357Zm-2.033-1.47h.55l.165-.577.165.577h.536l-.44.357.165.577-.44-.357-.44.357.165-.577Zm-2.253,2.391.165.577h.55l-.44.357.165.577-.44-.357-.44.357.165-.577-.44-.357h.55ZM86.114,34h.55l.165-.577.165.577h.55l-.44.357.165.577-.44-.357-.44.357.165-.577Zm-2.267,2.377.165.577h.55l-.44.357.165.577-.44-.357-.44.343.165-.577-.44-.357h.55Zm.783,2.061h.55l.165-.577.165.577h.55l-.44.357.165.577-.44-.357-.44.357.165-.577Zm-.343,2.418-.44-.357-.44.357.165-.577-.44-.357h.55l.165-.577.165.577h.55l-.44.357Zm1.484,1.47-.44-.357-.44.357.165-.577-.44-.357h.55l.165-.577.165.577h.55l-.44.357Zm2.982,0-.44-.357-.44.357.165-.577-.44-.357h.55l.165-.577.165.577h.55l-.44.357Zm2.968,0-.44-.357-.44.357.165-.577-.44-.357h.55l.165-.577.165.577h.536l-.44.357Zm2.707-.921h.55l-.44.357.165.577-.44-.357-.44.357.165-.577-.44-.357h.55l.165-.577Zm.275-2.033-.44-.357-.44.357.165-.577-.44-.357h.55l.165-.577.165.577h.55l-.44.357Zm-1.759-2.432h.55l-.44.357.165.577-.44-.357-.44.357L92.5,37.3l-.44-.357h.55l.165-.577Zm1.759-.536-.44-.357-.44.357.165-.577-.44-.357h.55l.165-.577.165.577h.55l-.44.357Zm-1.5-1.484-.44-.357-.44.357.165-.577-.44-.357h.55l.165-.577.165.577h.55l-.44.357Zm1.223-2.4h.55l-.44.357.165.577-.44-.357-.44.357.165-.577-.44-.357h.55l.165-.577Z"/>
    <path id="Path_2770" data-name="Path 2770" class="cls-5" d="M167.575,34.7l.44-.357.44.357-.179-.563.44-.357h-.536l-.165-.577-.179.577H167.3l.44.357Z" transform="translate(-73.753 -4.227)"/>
    <path id="Path_2771" data-name="Path 2771" class="cls-5" d="M145.875,34.7l.44-.357.44.357-.165-.563.44-.357h-.55l-.165-.577-.165.577h-.55l.44.357Z" transform="translate(-55.034 -4.227)"/>
    <path id="Path_2772" data-name="Path 2772" class="cls-5" d="M130.675,42.03l-.1-.33c-.055.041-.124.069-.179.11Z" transform="translate(-41.923 -11.559)"/>
    <path id="Path_2773" data-name="Path 2773" class="cls-5" d="M156.761,45.4l.44-.343.44.343-.165-.563.44-.357h-.536L157.2,43.9l-.165.577H156.5l.44.357Z" transform="translate(-64.436 -13.457)"/>
    <path id="Path_2774" data-name="Path 2774" class="cls-5" d="M135.679,44.477l-.165-.577-.165.577h-.55l.44.357-.165.563.44-.343.44.343-.165-.563.44-.357Z" transform="translate(-45.718 -13.457)"/>
    <path id="Path_2775" data-name="Path 2775" class="cls-5" d="M115.64,48.677l.44.357-.165-.577.44-.357h-.22c-.3.234-.591.467-.879.714l-.055.206Z" transform="translate(-28.811 -17.08)"/>
    <path id="Path_2776" data-name="Path 2776" class="cls-5" d="M167.836,55.377H167.3l.44.343-.165.577.44-.357.44.357-.179-.577.44-.343h-.536l-.165-.577Z" transform="translate(-73.753 -22.859)"/>
    <path id="Path_2777" data-name="Path 2777" class="cls-5" d="M146.15,55.377h-.55l.44.343-.165.577.44-.357.44.357-.165-.577.44-.343h-.55l-.165-.577Z" transform="translate(-55.034 -22.859)"/>
    <path id="Path_2778" data-name="Path 2778" class="cls-5" d="M124,55.377l.44.343-.165.577.44-.357.44.357-.165-.577.44-.343h-.55l-.165-.577-.165.577Z" transform="translate(-36.402 -22.859)"/>
    <path id="Path_2779" data-name="Path 2779" class="cls-5" d="M104.74,59.477l.44.357-.165-.577.44-.357h-.412a9.494,9.494,0,0,0-.7.783l-.041.137Z" transform="translate(-19.409 -26.396)"/>
    <path id="Path_2780" data-name="Path 2780" class="cls-5" d="M157.915,66.177h-.536L157.2,65.6l-.165.577H156.5l.44.343-.179.577.44-.357.44.357-.165-.577Z" transform="translate(-64.436 -32.175)"/>
    <path id="Path_2781" data-name="Path 2781" class="cls-5" d="M136.229,66.177h-.55l-.165-.577-.165.577h-.55l.44.343-.165.577.44-.357.44.357-.165-.577Z" transform="translate(-45.718 -32.175)"/>
    <path id="Path_2782" data-name="Path 2782" class="cls-5" d="M113.475,67.1l.44-.357.44.357-.179-.577.44-.343h-.536l-.165-.577-.179.577H113.2l.44.343Z" transform="translate(-27.086 -32.175)"/>
    <path id="Path_2783" data-name="Path 2783" class="cls-5" d="M99.506,69.8l-.206.289.357-.289Z" transform="translate(-15.096 -35.798)"/>
    <path id="Path_2784" data-name="Path 2784" class="cls-5" d="M97.679,72.6c-.055.082-.11.179-.179.275l.33.261Z" transform="translate(-13.543 -38.213)"/>
    <path id="Path_2785" data-name="Path 2785" class="cls-5" d="M168.179,76.963l-.165-.563-.179.563H167.3l.44.357-.165.577.44-.357.44.357-.179-.577.44-.357Z" transform="translate(-73.753 -41.491)"/>
    <path id="Path_2786" data-name="Path 2786" class="cls-5" d="M146.479,76.963l-.165-.563-.165.563h-.55l.44.357-.165.577.44-.357.44.357-.165-.577.44-.357Z" transform="translate(-55.034 -41.491)"/>
    <path id="Path_2787" data-name="Path 2787" class="cls-5" d="M124.275,77.9l.44-.357.44.357-.165-.577.44-.357h-.55l-.165-.563-.165.563H124l.44.357Z" transform="translate(-36.402 -41.491)"/>
    <path id="Path_2788" data-name="Path 2788" class="cls-5" d="M103.279,76.963,103.1,76.4l-.165.563H102.4l.44.357-.179.577.44-.357.44.357-.165-.577.44-.357Z" transform="translate(-17.77 -41.491)"/>
    <path id="Path_2789" data-name="Path 2789" class="cls-5" d="M157.036,87.663H156.5l.44.357-.179.577.44-.357.44.357-.165-.577.44-.357h-.536L157.2,87.1Z" transform="translate(-64.436 -50.721)"/>
    <path id="Path_2790" data-name="Path 2790" class="cls-5" d="M135.35,87.663h-.55l.44.357-.165.577.44-.357.44.357-.165-.577.44-.357h-.55l-.165-.563Z" transform="translate(-45.718 -50.721)"/>
    <path id="Path_2791" data-name="Path 2791" class="cls-5" d="M113.475,88.6l.44-.357.44.357-.179-.577.44-.357h-.536l-.165-.563-.179.563H113.2l.44.357Z" transform="translate(-27.086 -50.721)"/>
    <path id="Path_2792" data-name="Path 2792" class="cls-5" d="M91.5,87.663l.44.357-.165.577.44-.357.44.357-.165-.577.44-.357h-.55l-.165-.563-.165.563Z" transform="translate(-8.367 -50.721)"/>
    <path id="Path_2793" data-name="Path 2793" class="cls-5" d="M168.715,98.563h-.536L168.014,98l-.179.563H167.3l.44.357-.165.577.44-.357.44.357-.179-.577Z" transform="translate(-73.753 -60.123)"/>
    <path id="Path_2794" data-name="Path 2794" class="cls-5" d="M146.479,98.563,146.314,98l-.165.563h-.55l.44.357-.165.577.44-.357.44.357-.165-.577.44-.357Z" transform="translate(-55.034 -60.123)"/>
    <path id="Path_2795" data-name="Path 2795" class="cls-5" d="M125.154,99.5l-.165-.577.44-.357h-.55L124.714,98l-.165.563H124l.44.357-.165.577.44-.357Z" transform="translate(-36.402 -60.123)"/>
    <path id="Path_2796" data-name="Path 2796" class="cls-5" d="M102.661,99.5l.44-.357.44.357-.165-.577.44-.357h-.536L103.1,98l-.165.563H102.4l.44.357Z" transform="translate(-17.77 -60.123)"/>
    <path id="Path_2797" data-name="Path 2797" class="cls-5" d="M84.787,100.533l-.165-.577.44-.357h-.536l-.124-.4c-.11.385-.22.769-.3,1.168l.247-.192Z" transform="translate(-1.984 -61.159)"/>
    <path id="Path_2798" data-name="Path 2798" class="cls-5" d="M167.836,120.077H167.3l.44.357-.165.563.44-.343.44.343-.179-.563.44-.357h-.536l-.165-.577Z" transform="translate(-73.753 -78.669)"/>
    <path id="Path_2799" data-name="Path 2799" class="cls-5" d="M146.479,120.077l-.165-.577-.165.577h-.55l.44.357-.165.563.44-.343.44.343-.165-.563.44-.357Z" transform="translate(-55.034 -78.669)"/>
    <path id="Path_2800" data-name="Path 2800" class="cls-5" d="M124.879,120.077l-.165-.577-.165.577H124l.44.357-.165.563.44-.343.44.343-.165-.563.44-.357Z" transform="translate(-36.402 -78.669)"/>
    <path id="Path_2801" data-name="Path 2801" class="cls-5" d="M103.279,120.077l-.179-.577-.165.577H102.4l.44.357-.179.563.44-.343.44.343-.165-.563.44-.357Z" transform="translate(-17.77 -78.669)"/>
    <path id="Path_2802" data-name="Path 2802" class="cls-5" d="M82.355,120.911l.44-.357.44.357-.165-.577.44-.357h-.536l-.165-.577-.165.577H82.3v.165l.247.192Z" transform="translate(-0.431 -78.583)"/>
    <path id="Path_2803" data-name="Path 2803" class="cls-5" d="M157.379,109.363l-.179-.563-.165.563H156.5l.44.357-.179.577.44-.357.44.357-.165-.577.44-.357Z" transform="translate(-64.436 -69.44)"/>
    <path id="Path_2804" data-name="Path 2804" class="cls-5" d="M135.679,109.363l-.165-.563-.165.563h-.55l.44.357-.165.577.44-.357.44.357-.165-.577.44-.357Z" transform="translate(-45.718 -69.44)"/>
    <path id="Path_2805" data-name="Path 2805" class="cls-5" d="M113.475,110.3l.44-.357.44.357-.179-.577.44-.357h-.536l-.165-.563-.179.563H113.2l.44.357Z" transform="translate(-27.086 -69.44)"/>
    <path id="Path_2806" data-name="Path 2806" class="cls-5" d="M92.379,109.363l-.165-.563-.165.563H91.5l.44.357-.165.577.44-.357.44.357-.165-.577.44-.357Z" transform="translate(-8.367 -69.44)"/>
  </g>
</svg>
